G04 #@! TF.GenerationSoftware,KiCad,Pcbnew,(5.1.5)-3*
G04 #@! TF.CreationDate,2021-02-01T12:28:56+11:00*
G04 #@! TF.ProjectId,LED Array,4c454420-4172-4726-9179-2e6b69636164,rev?*
G04 #@! TF.SameCoordinates,Original*
G04 #@! TF.FileFunction,Legend,Top*
G04 #@! TF.FilePolarity,Positive*
%FSLAX46Y46*%
G04 Gerber Fmt 4.6, Leading zero omitted, Abs format (unit mm)*
G04 Created by KiCad (PCBNEW (5.1.5)-3) date 2021-02-01 12:28:56*
%MOMM*%
%LPD*%
G04 APERTURE LIST*
%ADD10C,0.150000*%
%ADD11C,0.120000*%
G04 APERTURE END LIST*
D10*
X142309523Y-62802380D02*
X141976190Y-62326190D01*
X141738095Y-62802380D02*
X141738095Y-61802380D01*
X142119047Y-61802380D01*
X142214285Y-61850000D01*
X142261904Y-61897619D01*
X142309523Y-61992857D01*
X142309523Y-62135714D01*
X142261904Y-62230952D01*
X142214285Y-62278571D01*
X142119047Y-62326190D01*
X141738095Y-62326190D01*
X142261904Y-63500000D02*
X142166666Y-63452380D01*
X142023809Y-63452380D01*
X141880952Y-63500000D01*
X141785714Y-63595238D01*
X141738095Y-63690476D01*
X141690476Y-63880952D01*
X141690476Y-64023809D01*
X141738095Y-64214285D01*
X141785714Y-64309523D01*
X141880952Y-64404761D01*
X142023809Y-64452380D01*
X142119047Y-64452380D01*
X142261904Y-64404761D01*
X142309523Y-64357142D01*
X142309523Y-64023809D01*
X142119047Y-64023809D01*
X142071428Y-65578571D02*
X142214285Y-65626190D01*
X142261904Y-65673809D01*
X142309523Y-65769047D01*
X142309523Y-65911904D01*
X142261904Y-66007142D01*
X142214285Y-66054761D01*
X142119047Y-66102380D01*
X141738095Y-66102380D01*
X141738095Y-65102380D01*
X142071428Y-65102380D01*
X142166666Y-65150000D01*
X142214285Y-65197619D01*
X142261904Y-65292857D01*
X142261904Y-65388095D01*
X142214285Y-65483333D01*
X142166666Y-65530952D01*
X142071428Y-65578571D01*
X141738095Y-65578571D01*
D11*
X278761252Y-225210000D02*
X278238748Y-225210000D01*
X278761252Y-223790000D02*
X278238748Y-223790000D01*
X203761252Y-225460000D02*
X203238748Y-225460000D01*
X203761252Y-224040000D02*
X203238748Y-224040000D01*
X278761252Y-207710000D02*
X278238748Y-207710000D01*
X278761252Y-206290000D02*
X278238748Y-206290000D01*
X203761252Y-207960000D02*
X203238748Y-207960000D01*
X203761252Y-206540000D02*
X203238748Y-206540000D01*
X278761252Y-190210000D02*
X278238748Y-190210000D01*
X278761252Y-188790000D02*
X278238748Y-188790000D01*
X203761252Y-190460000D02*
X203238748Y-190460000D01*
X203761252Y-189040000D02*
X203238748Y-189040000D01*
X278761252Y-172710000D02*
X278238748Y-172710000D01*
X278761252Y-171290000D02*
X278238748Y-171290000D01*
X203761252Y-172960000D02*
X203238748Y-172960000D01*
X203761252Y-171540000D02*
X203238748Y-171540000D01*
X278761252Y-155210000D02*
X278238748Y-155210000D01*
X278761252Y-153790000D02*
X278238748Y-153790000D01*
X203761252Y-155460000D02*
X203238748Y-155460000D01*
X203761252Y-154040000D02*
X203238748Y-154040000D01*
X278761252Y-137710000D02*
X278238748Y-137710000D01*
X278761252Y-136290000D02*
X278238748Y-136290000D01*
X203761252Y-137960000D02*
X203238748Y-137960000D01*
X203761252Y-136540000D02*
X203238748Y-136540000D01*
X278761252Y-120210000D02*
X278238748Y-120210000D01*
X278761252Y-118790000D02*
X278238748Y-118790000D01*
X203761252Y-120460000D02*
X203238748Y-120460000D01*
X203761252Y-119040000D02*
X203238748Y-119040000D01*
X278761252Y-102710000D02*
X278238748Y-102710000D01*
X278761252Y-101290000D02*
X278238748Y-101290000D01*
X203761252Y-102960000D02*
X203238748Y-102960000D01*
X203761252Y-101540000D02*
X203238748Y-101540000D01*
X278761252Y-85210000D02*
X278238748Y-85210000D01*
X278761252Y-83790000D02*
X278238748Y-83790000D01*
X203761252Y-85460000D02*
X203238748Y-85460000D01*
X203761252Y-84040000D02*
X203238748Y-84040000D01*
X278761252Y-67710000D02*
X278238748Y-67710000D01*
X278761252Y-66290000D02*
X278238748Y-66290000D01*
X278736252Y-220290000D02*
X278213748Y-220290000D01*
X278736252Y-221710000D02*
X278213748Y-221710000D01*
X203736252Y-220540000D02*
X203213748Y-220540000D01*
X203736252Y-221960000D02*
X203213748Y-221960000D01*
X278736252Y-202790000D02*
X278213748Y-202790000D01*
X278736252Y-204210000D02*
X278213748Y-204210000D01*
X203736252Y-203040000D02*
X203213748Y-203040000D01*
X203736252Y-204460000D02*
X203213748Y-204460000D01*
X278736252Y-185290000D02*
X278213748Y-185290000D01*
X278736252Y-186710000D02*
X278213748Y-186710000D01*
X203736252Y-185540000D02*
X203213748Y-185540000D01*
X203736252Y-186960000D02*
X203213748Y-186960000D01*
X278736252Y-167790000D02*
X278213748Y-167790000D01*
X278736252Y-169210000D02*
X278213748Y-169210000D01*
X203736252Y-168040000D02*
X203213748Y-168040000D01*
X203736252Y-169460000D02*
X203213748Y-169460000D01*
X278736252Y-150290000D02*
X278213748Y-150290000D01*
X278736252Y-151710000D02*
X278213748Y-151710000D01*
X203736252Y-150540000D02*
X203213748Y-150540000D01*
X203736252Y-151960000D02*
X203213748Y-151960000D01*
X278736252Y-132790000D02*
X278213748Y-132790000D01*
X278736252Y-134210000D02*
X278213748Y-134210000D01*
X203736252Y-133040000D02*
X203213748Y-133040000D01*
X203736252Y-134460000D02*
X203213748Y-134460000D01*
X278736252Y-115290000D02*
X278213748Y-115290000D01*
X278736252Y-116710000D02*
X278213748Y-116710000D01*
X203736252Y-115540000D02*
X203213748Y-115540000D01*
X203736252Y-116960000D02*
X203213748Y-116960000D01*
X278736252Y-97790000D02*
X278213748Y-97790000D01*
X278736252Y-99210000D02*
X278213748Y-99210000D01*
X203736252Y-98040000D02*
X203213748Y-98040000D01*
X203736252Y-99460000D02*
X203213748Y-99460000D01*
X278736252Y-80290000D02*
X278213748Y-80290000D01*
X278736252Y-81710000D02*
X278213748Y-81710000D01*
X203736252Y-80540000D02*
X203213748Y-80540000D01*
X203736252Y-81960000D02*
X203213748Y-81960000D01*
X278736252Y-62790000D02*
X278213748Y-62790000D01*
X278736252Y-64210000D02*
X278213748Y-64210000D01*
X267900000Y-223350000D02*
X271100000Y-223350000D01*
X271100000Y-218650000D02*
X267900000Y-218650000D01*
X192900000Y-223600000D02*
X196100000Y-223600000D01*
X196100000Y-218900000D02*
X192900000Y-218900000D01*
X267900000Y-205850000D02*
X271100000Y-205850000D01*
X271100000Y-201150000D02*
X267900000Y-201150000D01*
X192900000Y-206100000D02*
X196100000Y-206100000D01*
X196100000Y-201400000D02*
X192900000Y-201400000D01*
X267900000Y-188350000D02*
X271100000Y-188350000D01*
X271100000Y-183650000D02*
X267900000Y-183650000D01*
X192900000Y-188600000D02*
X196100000Y-188600000D01*
X196100000Y-183900000D02*
X192900000Y-183900000D01*
X267900000Y-170850000D02*
X271100000Y-170850000D01*
X271100000Y-166150000D02*
X267900000Y-166150000D01*
X192900000Y-171100000D02*
X196100000Y-171100000D01*
X196100000Y-166400000D02*
X192900000Y-166400000D01*
X267900000Y-153350000D02*
X271100000Y-153350000D01*
X271100000Y-148650000D02*
X267900000Y-148650000D01*
X192900000Y-153600000D02*
X196100000Y-153600000D01*
X196100000Y-148900000D02*
X192900000Y-148900000D01*
X267900000Y-135850000D02*
X271100000Y-135850000D01*
X271100000Y-131150000D02*
X267900000Y-131150000D01*
X192900000Y-136100000D02*
X196100000Y-136100000D01*
X196100000Y-131400000D02*
X192900000Y-131400000D01*
X267900000Y-118350000D02*
X271100000Y-118350000D01*
X271100000Y-113650000D02*
X267900000Y-113650000D01*
X192900000Y-118600000D02*
X196100000Y-118600000D01*
X196100000Y-113900000D02*
X192900000Y-113900000D01*
X267900000Y-100850000D02*
X271100000Y-100850000D01*
X271100000Y-96150000D02*
X267900000Y-96150000D01*
X192900000Y-101100000D02*
X196100000Y-101100000D01*
X196100000Y-96400000D02*
X192900000Y-96400000D01*
X267900000Y-83350000D02*
X271100000Y-83350000D01*
X271100000Y-78650000D02*
X267900000Y-78650000D01*
X192900000Y-83600000D02*
X196100000Y-83600000D01*
X196100000Y-78900000D02*
X192900000Y-78900000D01*
X267900000Y-65850000D02*
X271100000Y-65850000D01*
X271100000Y-61150000D02*
X267900000Y-61150000D01*
X244400000Y-223350000D02*
X247600000Y-223350000D01*
X247600000Y-218650000D02*
X244400000Y-218650000D01*
X169400000Y-223600000D02*
X172600000Y-223600000D01*
X172600000Y-218900000D02*
X169400000Y-218900000D01*
X244400000Y-205850000D02*
X247600000Y-205850000D01*
X247600000Y-201150000D02*
X244400000Y-201150000D01*
X169400000Y-206100000D02*
X172600000Y-206100000D01*
X172600000Y-201400000D02*
X169400000Y-201400000D01*
X244400000Y-188350000D02*
X247600000Y-188350000D01*
X247600000Y-183650000D02*
X244400000Y-183650000D01*
X169400000Y-188600000D02*
X172600000Y-188600000D01*
X172600000Y-183900000D02*
X169400000Y-183900000D01*
X244400000Y-170850000D02*
X247600000Y-170850000D01*
X247600000Y-166150000D02*
X244400000Y-166150000D01*
X169400000Y-171100000D02*
X172600000Y-171100000D01*
X172600000Y-166400000D02*
X169400000Y-166400000D01*
X244400000Y-153350000D02*
X247600000Y-153350000D01*
X247600000Y-148650000D02*
X244400000Y-148650000D01*
X169400000Y-153600000D02*
X172600000Y-153600000D01*
X172600000Y-148900000D02*
X169400000Y-148900000D01*
X244400000Y-135850000D02*
X247600000Y-135850000D01*
X247600000Y-131150000D02*
X244400000Y-131150000D01*
X169400000Y-136100000D02*
X172600000Y-136100000D01*
X172600000Y-131400000D02*
X169400000Y-131400000D01*
X244400000Y-118350000D02*
X247600000Y-118350000D01*
X247600000Y-113650000D02*
X244400000Y-113650000D01*
X169400000Y-118600000D02*
X172600000Y-118600000D01*
X172600000Y-113900000D02*
X169400000Y-113900000D01*
X244400000Y-100850000D02*
X247600000Y-100850000D01*
X247600000Y-96150000D02*
X244400000Y-96150000D01*
X169400000Y-101100000D02*
X172600000Y-101100000D01*
X172600000Y-96400000D02*
X169400000Y-96400000D01*
X244400000Y-83350000D02*
X247600000Y-83350000D01*
X247600000Y-78650000D02*
X244400000Y-78650000D01*
X169400000Y-83790000D02*
X172600000Y-83790000D01*
X172600000Y-79090000D02*
X169400000Y-79090000D01*
X244400000Y-65850000D02*
X247600000Y-65850000D01*
X247600000Y-61150000D02*
X244400000Y-61150000D01*
X223830000Y-218900000D02*
X220630000Y-218900000D01*
X220630000Y-223600000D02*
X223830000Y-223600000D01*
X148830000Y-218900000D02*
X145630000Y-218900000D01*
X145630000Y-223600000D02*
X148830000Y-223600000D01*
X223830000Y-201400000D02*
X220630000Y-201400000D01*
X220630000Y-206100000D02*
X223830000Y-206100000D01*
X148830000Y-201400000D02*
X145630000Y-201400000D01*
X145630000Y-206100000D02*
X148830000Y-206100000D01*
X223830000Y-183900000D02*
X220630000Y-183900000D01*
X220630000Y-188600000D02*
X223830000Y-188600000D01*
X148830000Y-183900000D02*
X145630000Y-183900000D01*
X145630000Y-188600000D02*
X148830000Y-188600000D01*
X223830000Y-166400000D02*
X220630000Y-166400000D01*
X220630000Y-171100000D02*
X223830000Y-171100000D01*
X148830000Y-166400000D02*
X145630000Y-166400000D01*
X145630000Y-171100000D02*
X148830000Y-171100000D01*
X223830000Y-148900000D02*
X220630000Y-148900000D01*
X220630000Y-153600000D02*
X223830000Y-153600000D01*
X148830000Y-148900000D02*
X145630000Y-148900000D01*
X145630000Y-153600000D02*
X148830000Y-153600000D01*
X223830000Y-131400000D02*
X220630000Y-131400000D01*
X220630000Y-136100000D02*
X223830000Y-136100000D01*
X148830000Y-131400000D02*
X145630000Y-131400000D01*
X145630000Y-136100000D02*
X148830000Y-136100000D01*
X223830000Y-113900000D02*
X220630000Y-113900000D01*
X220630000Y-118600000D02*
X223830000Y-118600000D01*
X148830000Y-113900000D02*
X145630000Y-113900000D01*
X145630000Y-118600000D02*
X148830000Y-118600000D01*
X223830000Y-96400000D02*
X220630000Y-96400000D01*
X220630000Y-101100000D02*
X223830000Y-101100000D01*
X148830000Y-96400000D02*
X145630000Y-96400000D01*
X145630000Y-101100000D02*
X148830000Y-101100000D01*
X223830000Y-78900000D02*
X220630000Y-78900000D01*
X220630000Y-83600000D02*
X223830000Y-83600000D01*
X148830000Y-79090000D02*
X145630000Y-79090000D01*
X145630000Y-83790000D02*
X148830000Y-83790000D01*
X223830000Y-61400000D02*
X220630000Y-61400000D01*
X220630000Y-66100000D02*
X223830000Y-66100000D01*
X278761252Y-218210000D02*
X278238748Y-218210000D01*
X278761252Y-216790000D02*
X278238748Y-216790000D01*
X203761252Y-218460000D02*
X203238748Y-218460000D01*
X203761252Y-217040000D02*
X203238748Y-217040000D01*
X278761252Y-200710000D02*
X278238748Y-200710000D01*
X278761252Y-199290000D02*
X278238748Y-199290000D01*
X203761252Y-200960000D02*
X203238748Y-200960000D01*
X203761252Y-199540000D02*
X203238748Y-199540000D01*
X278761252Y-183210000D02*
X278238748Y-183210000D01*
X278761252Y-181790000D02*
X278238748Y-181790000D01*
X203761252Y-183460000D02*
X203238748Y-183460000D01*
X203761252Y-182040000D02*
X203238748Y-182040000D01*
X278761252Y-165710000D02*
X278238748Y-165710000D01*
X278761252Y-164290000D02*
X278238748Y-164290000D01*
X203761252Y-165960000D02*
X203238748Y-165960000D01*
X203761252Y-164540000D02*
X203238748Y-164540000D01*
X278761252Y-148210000D02*
X278238748Y-148210000D01*
X278761252Y-146790000D02*
X278238748Y-146790000D01*
X203761252Y-148460000D02*
X203238748Y-148460000D01*
X203761252Y-147040000D02*
X203238748Y-147040000D01*
X278761252Y-130710000D02*
X278238748Y-130710000D01*
X278761252Y-129290000D02*
X278238748Y-129290000D01*
X203761252Y-130960000D02*
X203238748Y-130960000D01*
X203761252Y-129540000D02*
X203238748Y-129540000D01*
X278761252Y-113210000D02*
X278238748Y-113210000D01*
X278761252Y-111790000D02*
X278238748Y-111790000D01*
X203761252Y-113460000D02*
X203238748Y-113460000D01*
X203761252Y-112040000D02*
X203238748Y-112040000D01*
X278761252Y-96210000D02*
X278238748Y-96210000D01*
X278761252Y-94790000D02*
X278238748Y-94790000D01*
X203761252Y-95960000D02*
X203238748Y-95960000D01*
X203761252Y-94540000D02*
X203238748Y-94540000D01*
X278761252Y-78210000D02*
X278238748Y-78210000D01*
X278761252Y-76790000D02*
X278238748Y-76790000D01*
X203761252Y-78460000D02*
X203238748Y-78460000D01*
X203761252Y-77040000D02*
X203238748Y-77040000D01*
X278761252Y-60710000D02*
X278238748Y-60710000D01*
X278761252Y-59290000D02*
X278238748Y-59290000D01*
X145630000Y-66100000D02*
X148830000Y-66100000D01*
X148830000Y-61400000D02*
X145630000Y-61400000D01*
X172600000Y-61400000D02*
X169400000Y-61400000D01*
X169400000Y-66100000D02*
X172600000Y-66100000D01*
X196100000Y-61400000D02*
X192900000Y-61400000D01*
X192900000Y-66100000D02*
X196100000Y-66100000D01*
X203761252Y-66540000D02*
X203238748Y-66540000D01*
X203761252Y-67960000D02*
X203238748Y-67960000D01*
X203736252Y-64460000D02*
X203213748Y-64460000D01*
X203736252Y-63040000D02*
X203213748Y-63040000D01*
X203761252Y-59540000D02*
X203238748Y-59540000D01*
X203761252Y-60960000D02*
X203238748Y-60960000D01*
D10*
X278333333Y-226602380D02*
X278000000Y-226126190D01*
X277761904Y-226602380D02*
X277761904Y-225602380D01*
X278142857Y-225602380D01*
X278238095Y-225650000D01*
X278285714Y-225697619D01*
X278333333Y-225792857D01*
X278333333Y-225935714D01*
X278285714Y-226030952D01*
X278238095Y-226078571D01*
X278142857Y-226126190D01*
X277761904Y-226126190D01*
X279190476Y-225935714D02*
X279190476Y-226602380D01*
X278952380Y-225554761D02*
X278714285Y-226269047D01*
X279333333Y-226269047D01*
X203333333Y-226852380D02*
X203000000Y-226376190D01*
X202761904Y-226852380D02*
X202761904Y-225852380D01*
X203142857Y-225852380D01*
X203238095Y-225900000D01*
X203285714Y-225947619D01*
X203333333Y-226042857D01*
X203333333Y-226185714D01*
X203285714Y-226280952D01*
X203238095Y-226328571D01*
X203142857Y-226376190D01*
X202761904Y-226376190D01*
X204190476Y-226185714D02*
X204190476Y-226852380D01*
X203952380Y-225804761D02*
X203714285Y-226519047D01*
X204333333Y-226519047D01*
X278333333Y-209102380D02*
X278000000Y-208626190D01*
X277761904Y-209102380D02*
X277761904Y-208102380D01*
X278142857Y-208102380D01*
X278238095Y-208150000D01*
X278285714Y-208197619D01*
X278333333Y-208292857D01*
X278333333Y-208435714D01*
X278285714Y-208530952D01*
X278238095Y-208578571D01*
X278142857Y-208626190D01*
X277761904Y-208626190D01*
X279190476Y-208435714D02*
X279190476Y-209102380D01*
X278952380Y-208054761D02*
X278714285Y-208769047D01*
X279333333Y-208769047D01*
X203333333Y-209352380D02*
X203000000Y-208876190D01*
X202761904Y-209352380D02*
X202761904Y-208352380D01*
X203142857Y-208352380D01*
X203238095Y-208400000D01*
X203285714Y-208447619D01*
X203333333Y-208542857D01*
X203333333Y-208685714D01*
X203285714Y-208780952D01*
X203238095Y-208828571D01*
X203142857Y-208876190D01*
X202761904Y-208876190D01*
X204190476Y-208685714D02*
X204190476Y-209352380D01*
X203952380Y-208304761D02*
X203714285Y-209019047D01*
X204333333Y-209019047D01*
X278333333Y-191602380D02*
X278000000Y-191126190D01*
X277761904Y-191602380D02*
X277761904Y-190602380D01*
X278142857Y-190602380D01*
X278238095Y-190650000D01*
X278285714Y-190697619D01*
X278333333Y-190792857D01*
X278333333Y-190935714D01*
X278285714Y-191030952D01*
X278238095Y-191078571D01*
X278142857Y-191126190D01*
X277761904Y-191126190D01*
X279190476Y-190935714D02*
X279190476Y-191602380D01*
X278952380Y-190554761D02*
X278714285Y-191269047D01*
X279333333Y-191269047D01*
X203333333Y-191852380D02*
X203000000Y-191376190D01*
X202761904Y-191852380D02*
X202761904Y-190852380D01*
X203142857Y-190852380D01*
X203238095Y-190900000D01*
X203285714Y-190947619D01*
X203333333Y-191042857D01*
X203333333Y-191185714D01*
X203285714Y-191280952D01*
X203238095Y-191328571D01*
X203142857Y-191376190D01*
X202761904Y-191376190D01*
X204190476Y-191185714D02*
X204190476Y-191852380D01*
X203952380Y-190804761D02*
X203714285Y-191519047D01*
X204333333Y-191519047D01*
X278333333Y-174102380D02*
X278000000Y-173626190D01*
X277761904Y-174102380D02*
X277761904Y-173102380D01*
X278142857Y-173102380D01*
X278238095Y-173150000D01*
X278285714Y-173197619D01*
X278333333Y-173292857D01*
X278333333Y-173435714D01*
X278285714Y-173530952D01*
X278238095Y-173578571D01*
X278142857Y-173626190D01*
X277761904Y-173626190D01*
X279190476Y-173435714D02*
X279190476Y-174102380D01*
X278952380Y-173054761D02*
X278714285Y-173769047D01*
X279333333Y-173769047D01*
X203333333Y-174352380D02*
X203000000Y-173876190D01*
X202761904Y-174352380D02*
X202761904Y-173352380D01*
X203142857Y-173352380D01*
X203238095Y-173400000D01*
X203285714Y-173447619D01*
X203333333Y-173542857D01*
X203333333Y-173685714D01*
X203285714Y-173780952D01*
X203238095Y-173828571D01*
X203142857Y-173876190D01*
X202761904Y-173876190D01*
X204190476Y-173685714D02*
X204190476Y-174352380D01*
X203952380Y-173304761D02*
X203714285Y-174019047D01*
X204333333Y-174019047D01*
X278333333Y-156602380D02*
X278000000Y-156126190D01*
X277761904Y-156602380D02*
X277761904Y-155602380D01*
X278142857Y-155602380D01*
X278238095Y-155650000D01*
X278285714Y-155697619D01*
X278333333Y-155792857D01*
X278333333Y-155935714D01*
X278285714Y-156030952D01*
X278238095Y-156078571D01*
X278142857Y-156126190D01*
X277761904Y-156126190D01*
X279190476Y-155935714D02*
X279190476Y-156602380D01*
X278952380Y-155554761D02*
X278714285Y-156269047D01*
X279333333Y-156269047D01*
X203333333Y-156852380D02*
X203000000Y-156376190D01*
X202761904Y-156852380D02*
X202761904Y-155852380D01*
X203142857Y-155852380D01*
X203238095Y-155900000D01*
X203285714Y-155947619D01*
X203333333Y-156042857D01*
X203333333Y-156185714D01*
X203285714Y-156280952D01*
X203238095Y-156328571D01*
X203142857Y-156376190D01*
X202761904Y-156376190D01*
X204190476Y-156185714D02*
X204190476Y-156852380D01*
X203952380Y-155804761D02*
X203714285Y-156519047D01*
X204333333Y-156519047D01*
X278333333Y-139102380D02*
X278000000Y-138626190D01*
X277761904Y-139102380D02*
X277761904Y-138102380D01*
X278142857Y-138102380D01*
X278238095Y-138150000D01*
X278285714Y-138197619D01*
X278333333Y-138292857D01*
X278333333Y-138435714D01*
X278285714Y-138530952D01*
X278238095Y-138578571D01*
X278142857Y-138626190D01*
X277761904Y-138626190D01*
X279190476Y-138435714D02*
X279190476Y-139102380D01*
X278952380Y-138054761D02*
X278714285Y-138769047D01*
X279333333Y-138769047D01*
X203333333Y-139352380D02*
X203000000Y-138876190D01*
X202761904Y-139352380D02*
X202761904Y-138352380D01*
X203142857Y-138352380D01*
X203238095Y-138400000D01*
X203285714Y-138447619D01*
X203333333Y-138542857D01*
X203333333Y-138685714D01*
X203285714Y-138780952D01*
X203238095Y-138828571D01*
X203142857Y-138876190D01*
X202761904Y-138876190D01*
X204190476Y-138685714D02*
X204190476Y-139352380D01*
X203952380Y-138304761D02*
X203714285Y-139019047D01*
X204333333Y-139019047D01*
X278333333Y-121602380D02*
X278000000Y-121126190D01*
X277761904Y-121602380D02*
X277761904Y-120602380D01*
X278142857Y-120602380D01*
X278238095Y-120650000D01*
X278285714Y-120697619D01*
X278333333Y-120792857D01*
X278333333Y-120935714D01*
X278285714Y-121030952D01*
X278238095Y-121078571D01*
X278142857Y-121126190D01*
X277761904Y-121126190D01*
X279190476Y-120935714D02*
X279190476Y-121602380D01*
X278952380Y-120554761D02*
X278714285Y-121269047D01*
X279333333Y-121269047D01*
X203333333Y-121852380D02*
X203000000Y-121376190D01*
X202761904Y-121852380D02*
X202761904Y-120852380D01*
X203142857Y-120852380D01*
X203238095Y-120900000D01*
X203285714Y-120947619D01*
X203333333Y-121042857D01*
X203333333Y-121185714D01*
X203285714Y-121280952D01*
X203238095Y-121328571D01*
X203142857Y-121376190D01*
X202761904Y-121376190D01*
X204190476Y-121185714D02*
X204190476Y-121852380D01*
X203952380Y-120804761D02*
X203714285Y-121519047D01*
X204333333Y-121519047D01*
X278333333Y-104102380D02*
X278000000Y-103626190D01*
X277761904Y-104102380D02*
X277761904Y-103102380D01*
X278142857Y-103102380D01*
X278238095Y-103150000D01*
X278285714Y-103197619D01*
X278333333Y-103292857D01*
X278333333Y-103435714D01*
X278285714Y-103530952D01*
X278238095Y-103578571D01*
X278142857Y-103626190D01*
X277761904Y-103626190D01*
X279190476Y-103435714D02*
X279190476Y-104102380D01*
X278952380Y-103054761D02*
X278714285Y-103769047D01*
X279333333Y-103769047D01*
X203333333Y-104352380D02*
X203000000Y-103876190D01*
X202761904Y-104352380D02*
X202761904Y-103352380D01*
X203142857Y-103352380D01*
X203238095Y-103400000D01*
X203285714Y-103447619D01*
X203333333Y-103542857D01*
X203333333Y-103685714D01*
X203285714Y-103780952D01*
X203238095Y-103828571D01*
X203142857Y-103876190D01*
X202761904Y-103876190D01*
X204190476Y-103685714D02*
X204190476Y-104352380D01*
X203952380Y-103304761D02*
X203714285Y-104019047D01*
X204333333Y-104019047D01*
X278333333Y-86602380D02*
X278000000Y-86126190D01*
X277761904Y-86602380D02*
X277761904Y-85602380D01*
X278142857Y-85602380D01*
X278238095Y-85650000D01*
X278285714Y-85697619D01*
X278333333Y-85792857D01*
X278333333Y-85935714D01*
X278285714Y-86030952D01*
X278238095Y-86078571D01*
X278142857Y-86126190D01*
X277761904Y-86126190D01*
X279190476Y-85935714D02*
X279190476Y-86602380D01*
X278952380Y-85554761D02*
X278714285Y-86269047D01*
X279333333Y-86269047D01*
X203333333Y-86852380D02*
X203000000Y-86376190D01*
X202761904Y-86852380D02*
X202761904Y-85852380D01*
X203142857Y-85852380D01*
X203238095Y-85900000D01*
X203285714Y-85947619D01*
X203333333Y-86042857D01*
X203333333Y-86185714D01*
X203285714Y-86280952D01*
X203238095Y-86328571D01*
X203142857Y-86376190D01*
X202761904Y-86376190D01*
X204190476Y-86185714D02*
X204190476Y-86852380D01*
X203952380Y-85804761D02*
X203714285Y-86519047D01*
X204333333Y-86519047D01*
X278333333Y-69102380D02*
X278000000Y-68626190D01*
X277761904Y-69102380D02*
X277761904Y-68102380D01*
X278142857Y-68102380D01*
X278238095Y-68150000D01*
X278285714Y-68197619D01*
X278333333Y-68292857D01*
X278333333Y-68435714D01*
X278285714Y-68530952D01*
X278238095Y-68578571D01*
X278142857Y-68626190D01*
X277761904Y-68626190D01*
X279190476Y-68435714D02*
X279190476Y-69102380D01*
X278952380Y-68054761D02*
X278714285Y-68769047D01*
X279333333Y-68769047D01*
X278308333Y-223102380D02*
X277975000Y-222626190D01*
X277736904Y-223102380D02*
X277736904Y-222102380D01*
X278117857Y-222102380D01*
X278213095Y-222150000D01*
X278260714Y-222197619D01*
X278308333Y-222292857D01*
X278308333Y-222435714D01*
X278260714Y-222530952D01*
X278213095Y-222578571D01*
X278117857Y-222626190D01*
X277736904Y-222626190D01*
X279213095Y-222102380D02*
X278736904Y-222102380D01*
X278689285Y-222578571D01*
X278736904Y-222530952D01*
X278832142Y-222483333D01*
X279070238Y-222483333D01*
X279165476Y-222530952D01*
X279213095Y-222578571D01*
X279260714Y-222673809D01*
X279260714Y-222911904D01*
X279213095Y-223007142D01*
X279165476Y-223054761D01*
X279070238Y-223102380D01*
X278832142Y-223102380D01*
X278736904Y-223054761D01*
X278689285Y-223007142D01*
X203308333Y-223352380D02*
X202975000Y-222876190D01*
X202736904Y-223352380D02*
X202736904Y-222352380D01*
X203117857Y-222352380D01*
X203213095Y-222400000D01*
X203260714Y-222447619D01*
X203308333Y-222542857D01*
X203308333Y-222685714D01*
X203260714Y-222780952D01*
X203213095Y-222828571D01*
X203117857Y-222876190D01*
X202736904Y-222876190D01*
X204213095Y-222352380D02*
X203736904Y-222352380D01*
X203689285Y-222828571D01*
X203736904Y-222780952D01*
X203832142Y-222733333D01*
X204070238Y-222733333D01*
X204165476Y-222780952D01*
X204213095Y-222828571D01*
X204260714Y-222923809D01*
X204260714Y-223161904D01*
X204213095Y-223257142D01*
X204165476Y-223304761D01*
X204070238Y-223352380D01*
X203832142Y-223352380D01*
X203736904Y-223304761D01*
X203689285Y-223257142D01*
X278308333Y-205602380D02*
X277975000Y-205126190D01*
X277736904Y-205602380D02*
X277736904Y-204602380D01*
X278117857Y-204602380D01*
X278213095Y-204650000D01*
X278260714Y-204697619D01*
X278308333Y-204792857D01*
X278308333Y-204935714D01*
X278260714Y-205030952D01*
X278213095Y-205078571D01*
X278117857Y-205126190D01*
X277736904Y-205126190D01*
X279213095Y-204602380D02*
X278736904Y-204602380D01*
X278689285Y-205078571D01*
X278736904Y-205030952D01*
X278832142Y-204983333D01*
X279070238Y-204983333D01*
X279165476Y-205030952D01*
X279213095Y-205078571D01*
X279260714Y-205173809D01*
X279260714Y-205411904D01*
X279213095Y-205507142D01*
X279165476Y-205554761D01*
X279070238Y-205602380D01*
X278832142Y-205602380D01*
X278736904Y-205554761D01*
X278689285Y-205507142D01*
X203308333Y-205852380D02*
X202975000Y-205376190D01*
X202736904Y-205852380D02*
X202736904Y-204852380D01*
X203117857Y-204852380D01*
X203213095Y-204900000D01*
X203260714Y-204947619D01*
X203308333Y-205042857D01*
X203308333Y-205185714D01*
X203260714Y-205280952D01*
X203213095Y-205328571D01*
X203117857Y-205376190D01*
X202736904Y-205376190D01*
X204213095Y-204852380D02*
X203736904Y-204852380D01*
X203689285Y-205328571D01*
X203736904Y-205280952D01*
X203832142Y-205233333D01*
X204070238Y-205233333D01*
X204165476Y-205280952D01*
X204213095Y-205328571D01*
X204260714Y-205423809D01*
X204260714Y-205661904D01*
X204213095Y-205757142D01*
X204165476Y-205804761D01*
X204070238Y-205852380D01*
X203832142Y-205852380D01*
X203736904Y-205804761D01*
X203689285Y-205757142D01*
X278308333Y-188102380D02*
X277975000Y-187626190D01*
X277736904Y-188102380D02*
X277736904Y-187102380D01*
X278117857Y-187102380D01*
X278213095Y-187150000D01*
X278260714Y-187197619D01*
X278308333Y-187292857D01*
X278308333Y-187435714D01*
X278260714Y-187530952D01*
X278213095Y-187578571D01*
X278117857Y-187626190D01*
X277736904Y-187626190D01*
X279213095Y-187102380D02*
X278736904Y-187102380D01*
X278689285Y-187578571D01*
X278736904Y-187530952D01*
X278832142Y-187483333D01*
X279070238Y-187483333D01*
X279165476Y-187530952D01*
X279213095Y-187578571D01*
X279260714Y-187673809D01*
X279260714Y-187911904D01*
X279213095Y-188007142D01*
X279165476Y-188054761D01*
X279070238Y-188102380D01*
X278832142Y-188102380D01*
X278736904Y-188054761D01*
X278689285Y-188007142D01*
X203308333Y-188352380D02*
X202975000Y-187876190D01*
X202736904Y-188352380D02*
X202736904Y-187352380D01*
X203117857Y-187352380D01*
X203213095Y-187400000D01*
X203260714Y-187447619D01*
X203308333Y-187542857D01*
X203308333Y-187685714D01*
X203260714Y-187780952D01*
X203213095Y-187828571D01*
X203117857Y-187876190D01*
X202736904Y-187876190D01*
X204213095Y-187352380D02*
X203736904Y-187352380D01*
X203689285Y-187828571D01*
X203736904Y-187780952D01*
X203832142Y-187733333D01*
X204070238Y-187733333D01*
X204165476Y-187780952D01*
X204213095Y-187828571D01*
X204260714Y-187923809D01*
X204260714Y-188161904D01*
X204213095Y-188257142D01*
X204165476Y-188304761D01*
X204070238Y-188352380D01*
X203832142Y-188352380D01*
X203736904Y-188304761D01*
X203689285Y-188257142D01*
X278308333Y-170602380D02*
X277975000Y-170126190D01*
X277736904Y-170602380D02*
X277736904Y-169602380D01*
X278117857Y-169602380D01*
X278213095Y-169650000D01*
X278260714Y-169697619D01*
X278308333Y-169792857D01*
X278308333Y-169935714D01*
X278260714Y-170030952D01*
X278213095Y-170078571D01*
X278117857Y-170126190D01*
X277736904Y-170126190D01*
X279213095Y-169602380D02*
X278736904Y-169602380D01*
X278689285Y-170078571D01*
X278736904Y-170030952D01*
X278832142Y-169983333D01*
X279070238Y-169983333D01*
X279165476Y-170030952D01*
X279213095Y-170078571D01*
X279260714Y-170173809D01*
X279260714Y-170411904D01*
X279213095Y-170507142D01*
X279165476Y-170554761D01*
X279070238Y-170602380D01*
X278832142Y-170602380D01*
X278736904Y-170554761D01*
X278689285Y-170507142D01*
X203308333Y-170852380D02*
X202975000Y-170376190D01*
X202736904Y-170852380D02*
X202736904Y-169852380D01*
X203117857Y-169852380D01*
X203213095Y-169900000D01*
X203260714Y-169947619D01*
X203308333Y-170042857D01*
X203308333Y-170185714D01*
X203260714Y-170280952D01*
X203213095Y-170328571D01*
X203117857Y-170376190D01*
X202736904Y-170376190D01*
X204213095Y-169852380D02*
X203736904Y-169852380D01*
X203689285Y-170328571D01*
X203736904Y-170280952D01*
X203832142Y-170233333D01*
X204070238Y-170233333D01*
X204165476Y-170280952D01*
X204213095Y-170328571D01*
X204260714Y-170423809D01*
X204260714Y-170661904D01*
X204213095Y-170757142D01*
X204165476Y-170804761D01*
X204070238Y-170852380D01*
X203832142Y-170852380D01*
X203736904Y-170804761D01*
X203689285Y-170757142D01*
X278308333Y-153102380D02*
X277975000Y-152626190D01*
X277736904Y-153102380D02*
X277736904Y-152102380D01*
X278117857Y-152102380D01*
X278213095Y-152150000D01*
X278260714Y-152197619D01*
X278308333Y-152292857D01*
X278308333Y-152435714D01*
X278260714Y-152530952D01*
X278213095Y-152578571D01*
X278117857Y-152626190D01*
X277736904Y-152626190D01*
X279213095Y-152102380D02*
X278736904Y-152102380D01*
X278689285Y-152578571D01*
X278736904Y-152530952D01*
X278832142Y-152483333D01*
X279070238Y-152483333D01*
X279165476Y-152530952D01*
X279213095Y-152578571D01*
X279260714Y-152673809D01*
X279260714Y-152911904D01*
X279213095Y-153007142D01*
X279165476Y-153054761D01*
X279070238Y-153102380D01*
X278832142Y-153102380D01*
X278736904Y-153054761D01*
X278689285Y-153007142D01*
X203308333Y-153352380D02*
X202975000Y-152876190D01*
X202736904Y-153352380D02*
X202736904Y-152352380D01*
X203117857Y-152352380D01*
X203213095Y-152400000D01*
X203260714Y-152447619D01*
X203308333Y-152542857D01*
X203308333Y-152685714D01*
X203260714Y-152780952D01*
X203213095Y-152828571D01*
X203117857Y-152876190D01*
X202736904Y-152876190D01*
X204213095Y-152352380D02*
X203736904Y-152352380D01*
X203689285Y-152828571D01*
X203736904Y-152780952D01*
X203832142Y-152733333D01*
X204070238Y-152733333D01*
X204165476Y-152780952D01*
X204213095Y-152828571D01*
X204260714Y-152923809D01*
X204260714Y-153161904D01*
X204213095Y-153257142D01*
X204165476Y-153304761D01*
X204070238Y-153352380D01*
X203832142Y-153352380D01*
X203736904Y-153304761D01*
X203689285Y-153257142D01*
X278308333Y-135602380D02*
X277975000Y-135126190D01*
X277736904Y-135602380D02*
X277736904Y-134602380D01*
X278117857Y-134602380D01*
X278213095Y-134650000D01*
X278260714Y-134697619D01*
X278308333Y-134792857D01*
X278308333Y-134935714D01*
X278260714Y-135030952D01*
X278213095Y-135078571D01*
X278117857Y-135126190D01*
X277736904Y-135126190D01*
X279213095Y-134602380D02*
X278736904Y-134602380D01*
X278689285Y-135078571D01*
X278736904Y-135030952D01*
X278832142Y-134983333D01*
X279070238Y-134983333D01*
X279165476Y-135030952D01*
X279213095Y-135078571D01*
X279260714Y-135173809D01*
X279260714Y-135411904D01*
X279213095Y-135507142D01*
X279165476Y-135554761D01*
X279070238Y-135602380D01*
X278832142Y-135602380D01*
X278736904Y-135554761D01*
X278689285Y-135507142D01*
X203308333Y-135852380D02*
X202975000Y-135376190D01*
X202736904Y-135852380D02*
X202736904Y-134852380D01*
X203117857Y-134852380D01*
X203213095Y-134900000D01*
X203260714Y-134947619D01*
X203308333Y-135042857D01*
X203308333Y-135185714D01*
X203260714Y-135280952D01*
X203213095Y-135328571D01*
X203117857Y-135376190D01*
X202736904Y-135376190D01*
X204213095Y-134852380D02*
X203736904Y-134852380D01*
X203689285Y-135328571D01*
X203736904Y-135280952D01*
X203832142Y-135233333D01*
X204070238Y-135233333D01*
X204165476Y-135280952D01*
X204213095Y-135328571D01*
X204260714Y-135423809D01*
X204260714Y-135661904D01*
X204213095Y-135757142D01*
X204165476Y-135804761D01*
X204070238Y-135852380D01*
X203832142Y-135852380D01*
X203736904Y-135804761D01*
X203689285Y-135757142D01*
X278308333Y-118102380D02*
X277975000Y-117626190D01*
X277736904Y-118102380D02*
X277736904Y-117102380D01*
X278117857Y-117102380D01*
X278213095Y-117150000D01*
X278260714Y-117197619D01*
X278308333Y-117292857D01*
X278308333Y-117435714D01*
X278260714Y-117530952D01*
X278213095Y-117578571D01*
X278117857Y-117626190D01*
X277736904Y-117626190D01*
X279213095Y-117102380D02*
X278736904Y-117102380D01*
X278689285Y-117578571D01*
X278736904Y-117530952D01*
X278832142Y-117483333D01*
X279070238Y-117483333D01*
X279165476Y-117530952D01*
X279213095Y-117578571D01*
X279260714Y-117673809D01*
X279260714Y-117911904D01*
X279213095Y-118007142D01*
X279165476Y-118054761D01*
X279070238Y-118102380D01*
X278832142Y-118102380D01*
X278736904Y-118054761D01*
X278689285Y-118007142D01*
X203308333Y-118352380D02*
X202975000Y-117876190D01*
X202736904Y-118352380D02*
X202736904Y-117352380D01*
X203117857Y-117352380D01*
X203213095Y-117400000D01*
X203260714Y-117447619D01*
X203308333Y-117542857D01*
X203308333Y-117685714D01*
X203260714Y-117780952D01*
X203213095Y-117828571D01*
X203117857Y-117876190D01*
X202736904Y-117876190D01*
X204213095Y-117352380D02*
X203736904Y-117352380D01*
X203689285Y-117828571D01*
X203736904Y-117780952D01*
X203832142Y-117733333D01*
X204070238Y-117733333D01*
X204165476Y-117780952D01*
X204213095Y-117828571D01*
X204260714Y-117923809D01*
X204260714Y-118161904D01*
X204213095Y-118257142D01*
X204165476Y-118304761D01*
X204070238Y-118352380D01*
X203832142Y-118352380D01*
X203736904Y-118304761D01*
X203689285Y-118257142D01*
X278308333Y-100602380D02*
X277975000Y-100126190D01*
X277736904Y-100602380D02*
X277736904Y-99602380D01*
X278117857Y-99602380D01*
X278213095Y-99650000D01*
X278260714Y-99697619D01*
X278308333Y-99792857D01*
X278308333Y-99935714D01*
X278260714Y-100030952D01*
X278213095Y-100078571D01*
X278117857Y-100126190D01*
X277736904Y-100126190D01*
X279213095Y-99602380D02*
X278736904Y-99602380D01*
X278689285Y-100078571D01*
X278736904Y-100030952D01*
X278832142Y-99983333D01*
X279070238Y-99983333D01*
X279165476Y-100030952D01*
X279213095Y-100078571D01*
X279260714Y-100173809D01*
X279260714Y-100411904D01*
X279213095Y-100507142D01*
X279165476Y-100554761D01*
X279070238Y-100602380D01*
X278832142Y-100602380D01*
X278736904Y-100554761D01*
X278689285Y-100507142D01*
X203308333Y-100852380D02*
X202975000Y-100376190D01*
X202736904Y-100852380D02*
X202736904Y-99852380D01*
X203117857Y-99852380D01*
X203213095Y-99900000D01*
X203260714Y-99947619D01*
X203308333Y-100042857D01*
X203308333Y-100185714D01*
X203260714Y-100280952D01*
X203213095Y-100328571D01*
X203117857Y-100376190D01*
X202736904Y-100376190D01*
X204213095Y-99852380D02*
X203736904Y-99852380D01*
X203689285Y-100328571D01*
X203736904Y-100280952D01*
X203832142Y-100233333D01*
X204070238Y-100233333D01*
X204165476Y-100280952D01*
X204213095Y-100328571D01*
X204260714Y-100423809D01*
X204260714Y-100661904D01*
X204213095Y-100757142D01*
X204165476Y-100804761D01*
X204070238Y-100852380D01*
X203832142Y-100852380D01*
X203736904Y-100804761D01*
X203689285Y-100757142D01*
X278308333Y-83102380D02*
X277975000Y-82626190D01*
X277736904Y-83102380D02*
X277736904Y-82102380D01*
X278117857Y-82102380D01*
X278213095Y-82150000D01*
X278260714Y-82197619D01*
X278308333Y-82292857D01*
X278308333Y-82435714D01*
X278260714Y-82530952D01*
X278213095Y-82578571D01*
X278117857Y-82626190D01*
X277736904Y-82626190D01*
X279213095Y-82102380D02*
X278736904Y-82102380D01*
X278689285Y-82578571D01*
X278736904Y-82530952D01*
X278832142Y-82483333D01*
X279070238Y-82483333D01*
X279165476Y-82530952D01*
X279213095Y-82578571D01*
X279260714Y-82673809D01*
X279260714Y-82911904D01*
X279213095Y-83007142D01*
X279165476Y-83054761D01*
X279070238Y-83102380D01*
X278832142Y-83102380D01*
X278736904Y-83054761D01*
X278689285Y-83007142D01*
X203308333Y-83352380D02*
X202975000Y-82876190D01*
X202736904Y-83352380D02*
X202736904Y-82352380D01*
X203117857Y-82352380D01*
X203213095Y-82400000D01*
X203260714Y-82447619D01*
X203308333Y-82542857D01*
X203308333Y-82685714D01*
X203260714Y-82780952D01*
X203213095Y-82828571D01*
X203117857Y-82876190D01*
X202736904Y-82876190D01*
X204213095Y-82352380D02*
X203736904Y-82352380D01*
X203689285Y-82828571D01*
X203736904Y-82780952D01*
X203832142Y-82733333D01*
X204070238Y-82733333D01*
X204165476Y-82780952D01*
X204213095Y-82828571D01*
X204260714Y-82923809D01*
X204260714Y-83161904D01*
X204213095Y-83257142D01*
X204165476Y-83304761D01*
X204070238Y-83352380D01*
X203832142Y-83352380D01*
X203736904Y-83304761D01*
X203689285Y-83257142D01*
X278308333Y-65602380D02*
X277975000Y-65126190D01*
X277736904Y-65602380D02*
X277736904Y-64602380D01*
X278117857Y-64602380D01*
X278213095Y-64650000D01*
X278260714Y-64697619D01*
X278308333Y-64792857D01*
X278308333Y-64935714D01*
X278260714Y-65030952D01*
X278213095Y-65078571D01*
X278117857Y-65126190D01*
X277736904Y-65126190D01*
X279213095Y-64602380D02*
X278736904Y-64602380D01*
X278689285Y-65078571D01*
X278736904Y-65030952D01*
X278832142Y-64983333D01*
X279070238Y-64983333D01*
X279165476Y-65030952D01*
X279213095Y-65078571D01*
X279260714Y-65173809D01*
X279260714Y-65411904D01*
X279213095Y-65507142D01*
X279165476Y-65554761D01*
X279070238Y-65602380D01*
X278832142Y-65602380D01*
X278736904Y-65554761D01*
X278689285Y-65507142D01*
X268761904Y-217702380D02*
X268761904Y-216702380D01*
X269000000Y-216702380D01*
X269142857Y-216750000D01*
X269238095Y-216845238D01*
X269285714Y-216940476D01*
X269333333Y-217130952D01*
X269333333Y-217273809D01*
X269285714Y-217464285D01*
X269238095Y-217559523D01*
X269142857Y-217654761D01*
X269000000Y-217702380D01*
X268761904Y-217702380D01*
X270190476Y-217035714D02*
X270190476Y-217702380D01*
X269952380Y-216654761D02*
X269714285Y-217369047D01*
X270333333Y-217369047D01*
X193761904Y-217952380D02*
X193761904Y-216952380D01*
X194000000Y-216952380D01*
X194142857Y-217000000D01*
X194238095Y-217095238D01*
X194285714Y-217190476D01*
X194333333Y-217380952D01*
X194333333Y-217523809D01*
X194285714Y-217714285D01*
X194238095Y-217809523D01*
X194142857Y-217904761D01*
X194000000Y-217952380D01*
X193761904Y-217952380D01*
X195190476Y-217285714D02*
X195190476Y-217952380D01*
X194952380Y-216904761D02*
X194714285Y-217619047D01*
X195333333Y-217619047D01*
X268761904Y-200202380D02*
X268761904Y-199202380D01*
X269000000Y-199202380D01*
X269142857Y-199250000D01*
X269238095Y-199345238D01*
X269285714Y-199440476D01*
X269333333Y-199630952D01*
X269333333Y-199773809D01*
X269285714Y-199964285D01*
X269238095Y-200059523D01*
X269142857Y-200154761D01*
X269000000Y-200202380D01*
X268761904Y-200202380D01*
X270190476Y-199535714D02*
X270190476Y-200202380D01*
X269952380Y-199154761D02*
X269714285Y-199869047D01*
X270333333Y-199869047D01*
X193761904Y-200452380D02*
X193761904Y-199452380D01*
X194000000Y-199452380D01*
X194142857Y-199500000D01*
X194238095Y-199595238D01*
X194285714Y-199690476D01*
X194333333Y-199880952D01*
X194333333Y-200023809D01*
X194285714Y-200214285D01*
X194238095Y-200309523D01*
X194142857Y-200404761D01*
X194000000Y-200452380D01*
X193761904Y-200452380D01*
X195190476Y-199785714D02*
X195190476Y-200452380D01*
X194952380Y-199404761D02*
X194714285Y-200119047D01*
X195333333Y-200119047D01*
X268761904Y-182702380D02*
X268761904Y-181702380D01*
X269000000Y-181702380D01*
X269142857Y-181750000D01*
X269238095Y-181845238D01*
X269285714Y-181940476D01*
X269333333Y-182130952D01*
X269333333Y-182273809D01*
X269285714Y-182464285D01*
X269238095Y-182559523D01*
X269142857Y-182654761D01*
X269000000Y-182702380D01*
X268761904Y-182702380D01*
X270190476Y-182035714D02*
X270190476Y-182702380D01*
X269952380Y-181654761D02*
X269714285Y-182369047D01*
X270333333Y-182369047D01*
X193761904Y-182952380D02*
X193761904Y-181952380D01*
X194000000Y-181952380D01*
X194142857Y-182000000D01*
X194238095Y-182095238D01*
X194285714Y-182190476D01*
X194333333Y-182380952D01*
X194333333Y-182523809D01*
X194285714Y-182714285D01*
X194238095Y-182809523D01*
X194142857Y-182904761D01*
X194000000Y-182952380D01*
X193761904Y-182952380D01*
X195190476Y-182285714D02*
X195190476Y-182952380D01*
X194952380Y-181904761D02*
X194714285Y-182619047D01*
X195333333Y-182619047D01*
X268761904Y-165202380D02*
X268761904Y-164202380D01*
X269000000Y-164202380D01*
X269142857Y-164250000D01*
X269238095Y-164345238D01*
X269285714Y-164440476D01*
X269333333Y-164630952D01*
X269333333Y-164773809D01*
X269285714Y-164964285D01*
X269238095Y-165059523D01*
X269142857Y-165154761D01*
X269000000Y-165202380D01*
X268761904Y-165202380D01*
X270190476Y-164535714D02*
X270190476Y-165202380D01*
X269952380Y-164154761D02*
X269714285Y-164869047D01*
X270333333Y-164869047D01*
X193761904Y-165452380D02*
X193761904Y-164452380D01*
X194000000Y-164452380D01*
X194142857Y-164500000D01*
X194238095Y-164595238D01*
X194285714Y-164690476D01*
X194333333Y-164880952D01*
X194333333Y-165023809D01*
X194285714Y-165214285D01*
X194238095Y-165309523D01*
X194142857Y-165404761D01*
X194000000Y-165452380D01*
X193761904Y-165452380D01*
X195190476Y-164785714D02*
X195190476Y-165452380D01*
X194952380Y-164404761D02*
X194714285Y-165119047D01*
X195333333Y-165119047D01*
X268761904Y-147702380D02*
X268761904Y-146702380D01*
X269000000Y-146702380D01*
X269142857Y-146750000D01*
X269238095Y-146845238D01*
X269285714Y-146940476D01*
X269333333Y-147130952D01*
X269333333Y-147273809D01*
X269285714Y-147464285D01*
X269238095Y-147559523D01*
X269142857Y-147654761D01*
X269000000Y-147702380D01*
X268761904Y-147702380D01*
X270190476Y-147035714D02*
X270190476Y-147702380D01*
X269952380Y-146654761D02*
X269714285Y-147369047D01*
X270333333Y-147369047D01*
X193761904Y-147952380D02*
X193761904Y-146952380D01*
X194000000Y-146952380D01*
X194142857Y-147000000D01*
X194238095Y-147095238D01*
X194285714Y-147190476D01*
X194333333Y-147380952D01*
X194333333Y-147523809D01*
X194285714Y-147714285D01*
X194238095Y-147809523D01*
X194142857Y-147904761D01*
X194000000Y-147952380D01*
X193761904Y-147952380D01*
X195190476Y-147285714D02*
X195190476Y-147952380D01*
X194952380Y-146904761D02*
X194714285Y-147619047D01*
X195333333Y-147619047D01*
X268761904Y-130202380D02*
X268761904Y-129202380D01*
X269000000Y-129202380D01*
X269142857Y-129250000D01*
X269238095Y-129345238D01*
X269285714Y-129440476D01*
X269333333Y-129630952D01*
X269333333Y-129773809D01*
X269285714Y-129964285D01*
X269238095Y-130059523D01*
X269142857Y-130154761D01*
X269000000Y-130202380D01*
X268761904Y-130202380D01*
X270190476Y-129535714D02*
X270190476Y-130202380D01*
X269952380Y-129154761D02*
X269714285Y-129869047D01*
X270333333Y-129869047D01*
X193761904Y-130452380D02*
X193761904Y-129452380D01*
X194000000Y-129452380D01*
X194142857Y-129500000D01*
X194238095Y-129595238D01*
X194285714Y-129690476D01*
X194333333Y-129880952D01*
X194333333Y-130023809D01*
X194285714Y-130214285D01*
X194238095Y-130309523D01*
X194142857Y-130404761D01*
X194000000Y-130452380D01*
X193761904Y-130452380D01*
X195190476Y-129785714D02*
X195190476Y-130452380D01*
X194952380Y-129404761D02*
X194714285Y-130119047D01*
X195333333Y-130119047D01*
X268761904Y-112702380D02*
X268761904Y-111702380D01*
X269000000Y-111702380D01*
X269142857Y-111750000D01*
X269238095Y-111845238D01*
X269285714Y-111940476D01*
X269333333Y-112130952D01*
X269333333Y-112273809D01*
X269285714Y-112464285D01*
X269238095Y-112559523D01*
X269142857Y-112654761D01*
X269000000Y-112702380D01*
X268761904Y-112702380D01*
X270190476Y-112035714D02*
X270190476Y-112702380D01*
X269952380Y-111654761D02*
X269714285Y-112369047D01*
X270333333Y-112369047D01*
X193761904Y-112952380D02*
X193761904Y-111952380D01*
X194000000Y-111952380D01*
X194142857Y-112000000D01*
X194238095Y-112095238D01*
X194285714Y-112190476D01*
X194333333Y-112380952D01*
X194333333Y-112523809D01*
X194285714Y-112714285D01*
X194238095Y-112809523D01*
X194142857Y-112904761D01*
X194000000Y-112952380D01*
X193761904Y-112952380D01*
X195190476Y-112285714D02*
X195190476Y-112952380D01*
X194952380Y-111904761D02*
X194714285Y-112619047D01*
X195333333Y-112619047D01*
X268761904Y-95202380D02*
X268761904Y-94202380D01*
X269000000Y-94202380D01*
X269142857Y-94250000D01*
X269238095Y-94345238D01*
X269285714Y-94440476D01*
X269333333Y-94630952D01*
X269333333Y-94773809D01*
X269285714Y-94964285D01*
X269238095Y-95059523D01*
X269142857Y-95154761D01*
X269000000Y-95202380D01*
X268761904Y-95202380D01*
X270190476Y-94535714D02*
X270190476Y-95202380D01*
X269952380Y-94154761D02*
X269714285Y-94869047D01*
X270333333Y-94869047D01*
X193761904Y-95452380D02*
X193761904Y-94452380D01*
X194000000Y-94452380D01*
X194142857Y-94500000D01*
X194238095Y-94595238D01*
X194285714Y-94690476D01*
X194333333Y-94880952D01*
X194333333Y-95023809D01*
X194285714Y-95214285D01*
X194238095Y-95309523D01*
X194142857Y-95404761D01*
X194000000Y-95452380D01*
X193761904Y-95452380D01*
X195190476Y-94785714D02*
X195190476Y-95452380D01*
X194952380Y-94404761D02*
X194714285Y-95119047D01*
X195333333Y-95119047D01*
X268761904Y-77702380D02*
X268761904Y-76702380D01*
X269000000Y-76702380D01*
X269142857Y-76750000D01*
X269238095Y-76845238D01*
X269285714Y-76940476D01*
X269333333Y-77130952D01*
X269333333Y-77273809D01*
X269285714Y-77464285D01*
X269238095Y-77559523D01*
X269142857Y-77654761D01*
X269000000Y-77702380D01*
X268761904Y-77702380D01*
X270190476Y-77035714D02*
X270190476Y-77702380D01*
X269952380Y-76654761D02*
X269714285Y-77369047D01*
X270333333Y-77369047D01*
X193761904Y-77952380D02*
X193761904Y-76952380D01*
X194000000Y-76952380D01*
X194142857Y-77000000D01*
X194238095Y-77095238D01*
X194285714Y-77190476D01*
X194333333Y-77380952D01*
X194333333Y-77523809D01*
X194285714Y-77714285D01*
X194238095Y-77809523D01*
X194142857Y-77904761D01*
X194000000Y-77952380D01*
X193761904Y-77952380D01*
X195190476Y-77285714D02*
X195190476Y-77952380D01*
X194952380Y-76904761D02*
X194714285Y-77619047D01*
X195333333Y-77619047D01*
X268761904Y-60202380D02*
X268761904Y-59202380D01*
X269000000Y-59202380D01*
X269142857Y-59250000D01*
X269238095Y-59345238D01*
X269285714Y-59440476D01*
X269333333Y-59630952D01*
X269333333Y-59773809D01*
X269285714Y-59964285D01*
X269238095Y-60059523D01*
X269142857Y-60154761D01*
X269000000Y-60202380D01*
X268761904Y-60202380D01*
X270190476Y-59535714D02*
X270190476Y-60202380D01*
X269952380Y-59154761D02*
X269714285Y-59869047D01*
X270333333Y-59869047D01*
X245261904Y-217702380D02*
X245261904Y-216702380D01*
X245500000Y-216702380D01*
X245642857Y-216750000D01*
X245738095Y-216845238D01*
X245785714Y-216940476D01*
X245833333Y-217130952D01*
X245833333Y-217273809D01*
X245785714Y-217464285D01*
X245738095Y-217559523D01*
X245642857Y-217654761D01*
X245500000Y-217702380D01*
X245261904Y-217702380D01*
X246166666Y-216702380D02*
X246785714Y-216702380D01*
X246452380Y-217083333D01*
X246595238Y-217083333D01*
X246690476Y-217130952D01*
X246738095Y-217178571D01*
X246785714Y-217273809D01*
X246785714Y-217511904D01*
X246738095Y-217607142D01*
X246690476Y-217654761D01*
X246595238Y-217702380D01*
X246309523Y-217702380D01*
X246214285Y-217654761D01*
X246166666Y-217607142D01*
X170261904Y-217952380D02*
X170261904Y-216952380D01*
X170500000Y-216952380D01*
X170642857Y-217000000D01*
X170738095Y-217095238D01*
X170785714Y-217190476D01*
X170833333Y-217380952D01*
X170833333Y-217523809D01*
X170785714Y-217714285D01*
X170738095Y-217809523D01*
X170642857Y-217904761D01*
X170500000Y-217952380D01*
X170261904Y-217952380D01*
X171166666Y-216952380D02*
X171785714Y-216952380D01*
X171452380Y-217333333D01*
X171595238Y-217333333D01*
X171690476Y-217380952D01*
X171738095Y-217428571D01*
X171785714Y-217523809D01*
X171785714Y-217761904D01*
X171738095Y-217857142D01*
X171690476Y-217904761D01*
X171595238Y-217952380D01*
X171309523Y-217952380D01*
X171214285Y-217904761D01*
X171166666Y-217857142D01*
X245261904Y-200202380D02*
X245261904Y-199202380D01*
X245500000Y-199202380D01*
X245642857Y-199250000D01*
X245738095Y-199345238D01*
X245785714Y-199440476D01*
X245833333Y-199630952D01*
X245833333Y-199773809D01*
X245785714Y-199964285D01*
X245738095Y-200059523D01*
X245642857Y-200154761D01*
X245500000Y-200202380D01*
X245261904Y-200202380D01*
X246166666Y-199202380D02*
X246785714Y-199202380D01*
X246452380Y-199583333D01*
X246595238Y-199583333D01*
X246690476Y-199630952D01*
X246738095Y-199678571D01*
X246785714Y-199773809D01*
X246785714Y-200011904D01*
X246738095Y-200107142D01*
X246690476Y-200154761D01*
X246595238Y-200202380D01*
X246309523Y-200202380D01*
X246214285Y-200154761D01*
X246166666Y-200107142D01*
X170261904Y-200452380D02*
X170261904Y-199452380D01*
X170500000Y-199452380D01*
X170642857Y-199500000D01*
X170738095Y-199595238D01*
X170785714Y-199690476D01*
X170833333Y-199880952D01*
X170833333Y-200023809D01*
X170785714Y-200214285D01*
X170738095Y-200309523D01*
X170642857Y-200404761D01*
X170500000Y-200452380D01*
X170261904Y-200452380D01*
X171166666Y-199452380D02*
X171785714Y-199452380D01*
X171452380Y-199833333D01*
X171595238Y-199833333D01*
X171690476Y-199880952D01*
X171738095Y-199928571D01*
X171785714Y-200023809D01*
X171785714Y-200261904D01*
X171738095Y-200357142D01*
X171690476Y-200404761D01*
X171595238Y-200452380D01*
X171309523Y-200452380D01*
X171214285Y-200404761D01*
X171166666Y-200357142D01*
X245261904Y-182702380D02*
X245261904Y-181702380D01*
X245500000Y-181702380D01*
X245642857Y-181750000D01*
X245738095Y-181845238D01*
X245785714Y-181940476D01*
X245833333Y-182130952D01*
X245833333Y-182273809D01*
X245785714Y-182464285D01*
X245738095Y-182559523D01*
X245642857Y-182654761D01*
X245500000Y-182702380D01*
X245261904Y-182702380D01*
X246166666Y-181702380D02*
X246785714Y-181702380D01*
X246452380Y-182083333D01*
X246595238Y-182083333D01*
X246690476Y-182130952D01*
X246738095Y-182178571D01*
X246785714Y-182273809D01*
X246785714Y-182511904D01*
X246738095Y-182607142D01*
X246690476Y-182654761D01*
X246595238Y-182702380D01*
X246309523Y-182702380D01*
X246214285Y-182654761D01*
X246166666Y-182607142D01*
X170261904Y-182952380D02*
X170261904Y-181952380D01*
X170500000Y-181952380D01*
X170642857Y-182000000D01*
X170738095Y-182095238D01*
X170785714Y-182190476D01*
X170833333Y-182380952D01*
X170833333Y-182523809D01*
X170785714Y-182714285D01*
X170738095Y-182809523D01*
X170642857Y-182904761D01*
X170500000Y-182952380D01*
X170261904Y-182952380D01*
X171166666Y-181952380D02*
X171785714Y-181952380D01*
X171452380Y-182333333D01*
X171595238Y-182333333D01*
X171690476Y-182380952D01*
X171738095Y-182428571D01*
X171785714Y-182523809D01*
X171785714Y-182761904D01*
X171738095Y-182857142D01*
X171690476Y-182904761D01*
X171595238Y-182952380D01*
X171309523Y-182952380D01*
X171214285Y-182904761D01*
X171166666Y-182857142D01*
X245261904Y-165202380D02*
X245261904Y-164202380D01*
X245500000Y-164202380D01*
X245642857Y-164250000D01*
X245738095Y-164345238D01*
X245785714Y-164440476D01*
X245833333Y-164630952D01*
X245833333Y-164773809D01*
X245785714Y-164964285D01*
X245738095Y-165059523D01*
X245642857Y-165154761D01*
X245500000Y-165202380D01*
X245261904Y-165202380D01*
X246166666Y-164202380D02*
X246785714Y-164202380D01*
X246452380Y-164583333D01*
X246595238Y-164583333D01*
X246690476Y-164630952D01*
X246738095Y-164678571D01*
X246785714Y-164773809D01*
X246785714Y-165011904D01*
X246738095Y-165107142D01*
X246690476Y-165154761D01*
X246595238Y-165202380D01*
X246309523Y-165202380D01*
X246214285Y-165154761D01*
X246166666Y-165107142D01*
X170261904Y-165452380D02*
X170261904Y-164452380D01*
X170500000Y-164452380D01*
X170642857Y-164500000D01*
X170738095Y-164595238D01*
X170785714Y-164690476D01*
X170833333Y-164880952D01*
X170833333Y-165023809D01*
X170785714Y-165214285D01*
X170738095Y-165309523D01*
X170642857Y-165404761D01*
X170500000Y-165452380D01*
X170261904Y-165452380D01*
X171166666Y-164452380D02*
X171785714Y-164452380D01*
X171452380Y-164833333D01*
X171595238Y-164833333D01*
X171690476Y-164880952D01*
X171738095Y-164928571D01*
X171785714Y-165023809D01*
X171785714Y-165261904D01*
X171738095Y-165357142D01*
X171690476Y-165404761D01*
X171595238Y-165452380D01*
X171309523Y-165452380D01*
X171214285Y-165404761D01*
X171166666Y-165357142D01*
X245261904Y-147702380D02*
X245261904Y-146702380D01*
X245500000Y-146702380D01*
X245642857Y-146750000D01*
X245738095Y-146845238D01*
X245785714Y-146940476D01*
X245833333Y-147130952D01*
X245833333Y-147273809D01*
X245785714Y-147464285D01*
X245738095Y-147559523D01*
X245642857Y-147654761D01*
X245500000Y-147702380D01*
X245261904Y-147702380D01*
X246166666Y-146702380D02*
X246785714Y-146702380D01*
X246452380Y-147083333D01*
X246595238Y-147083333D01*
X246690476Y-147130952D01*
X246738095Y-147178571D01*
X246785714Y-147273809D01*
X246785714Y-147511904D01*
X246738095Y-147607142D01*
X246690476Y-147654761D01*
X246595238Y-147702380D01*
X246309523Y-147702380D01*
X246214285Y-147654761D01*
X246166666Y-147607142D01*
X170261904Y-147952380D02*
X170261904Y-146952380D01*
X170500000Y-146952380D01*
X170642857Y-147000000D01*
X170738095Y-147095238D01*
X170785714Y-147190476D01*
X170833333Y-147380952D01*
X170833333Y-147523809D01*
X170785714Y-147714285D01*
X170738095Y-147809523D01*
X170642857Y-147904761D01*
X170500000Y-147952380D01*
X170261904Y-147952380D01*
X171166666Y-146952380D02*
X171785714Y-146952380D01*
X171452380Y-147333333D01*
X171595238Y-147333333D01*
X171690476Y-147380952D01*
X171738095Y-147428571D01*
X171785714Y-147523809D01*
X171785714Y-147761904D01*
X171738095Y-147857142D01*
X171690476Y-147904761D01*
X171595238Y-147952380D01*
X171309523Y-147952380D01*
X171214285Y-147904761D01*
X171166666Y-147857142D01*
X245261904Y-130202380D02*
X245261904Y-129202380D01*
X245500000Y-129202380D01*
X245642857Y-129250000D01*
X245738095Y-129345238D01*
X245785714Y-129440476D01*
X245833333Y-129630952D01*
X245833333Y-129773809D01*
X245785714Y-129964285D01*
X245738095Y-130059523D01*
X245642857Y-130154761D01*
X245500000Y-130202380D01*
X245261904Y-130202380D01*
X246166666Y-129202380D02*
X246785714Y-129202380D01*
X246452380Y-129583333D01*
X246595238Y-129583333D01*
X246690476Y-129630952D01*
X246738095Y-129678571D01*
X246785714Y-129773809D01*
X246785714Y-130011904D01*
X246738095Y-130107142D01*
X246690476Y-130154761D01*
X246595238Y-130202380D01*
X246309523Y-130202380D01*
X246214285Y-130154761D01*
X246166666Y-130107142D01*
X170261904Y-130452380D02*
X170261904Y-129452380D01*
X170500000Y-129452380D01*
X170642857Y-129500000D01*
X170738095Y-129595238D01*
X170785714Y-129690476D01*
X170833333Y-129880952D01*
X170833333Y-130023809D01*
X170785714Y-130214285D01*
X170738095Y-130309523D01*
X170642857Y-130404761D01*
X170500000Y-130452380D01*
X170261904Y-130452380D01*
X171166666Y-129452380D02*
X171785714Y-129452380D01*
X171452380Y-129833333D01*
X171595238Y-129833333D01*
X171690476Y-129880952D01*
X171738095Y-129928571D01*
X171785714Y-130023809D01*
X171785714Y-130261904D01*
X171738095Y-130357142D01*
X171690476Y-130404761D01*
X171595238Y-130452380D01*
X171309523Y-130452380D01*
X171214285Y-130404761D01*
X171166666Y-130357142D01*
X245261904Y-112702380D02*
X245261904Y-111702380D01*
X245500000Y-111702380D01*
X245642857Y-111750000D01*
X245738095Y-111845238D01*
X245785714Y-111940476D01*
X245833333Y-112130952D01*
X245833333Y-112273809D01*
X245785714Y-112464285D01*
X245738095Y-112559523D01*
X245642857Y-112654761D01*
X245500000Y-112702380D01*
X245261904Y-112702380D01*
X246166666Y-111702380D02*
X246785714Y-111702380D01*
X246452380Y-112083333D01*
X246595238Y-112083333D01*
X246690476Y-112130952D01*
X246738095Y-112178571D01*
X246785714Y-112273809D01*
X246785714Y-112511904D01*
X246738095Y-112607142D01*
X246690476Y-112654761D01*
X246595238Y-112702380D01*
X246309523Y-112702380D01*
X246214285Y-112654761D01*
X246166666Y-112607142D01*
X170261904Y-112952380D02*
X170261904Y-111952380D01*
X170500000Y-111952380D01*
X170642857Y-112000000D01*
X170738095Y-112095238D01*
X170785714Y-112190476D01*
X170833333Y-112380952D01*
X170833333Y-112523809D01*
X170785714Y-112714285D01*
X170738095Y-112809523D01*
X170642857Y-112904761D01*
X170500000Y-112952380D01*
X170261904Y-112952380D01*
X171166666Y-111952380D02*
X171785714Y-111952380D01*
X171452380Y-112333333D01*
X171595238Y-112333333D01*
X171690476Y-112380952D01*
X171738095Y-112428571D01*
X171785714Y-112523809D01*
X171785714Y-112761904D01*
X171738095Y-112857142D01*
X171690476Y-112904761D01*
X171595238Y-112952380D01*
X171309523Y-112952380D01*
X171214285Y-112904761D01*
X171166666Y-112857142D01*
X245261904Y-95202380D02*
X245261904Y-94202380D01*
X245500000Y-94202380D01*
X245642857Y-94250000D01*
X245738095Y-94345238D01*
X245785714Y-94440476D01*
X245833333Y-94630952D01*
X245833333Y-94773809D01*
X245785714Y-94964285D01*
X245738095Y-95059523D01*
X245642857Y-95154761D01*
X245500000Y-95202380D01*
X245261904Y-95202380D01*
X246166666Y-94202380D02*
X246785714Y-94202380D01*
X246452380Y-94583333D01*
X246595238Y-94583333D01*
X246690476Y-94630952D01*
X246738095Y-94678571D01*
X246785714Y-94773809D01*
X246785714Y-95011904D01*
X246738095Y-95107142D01*
X246690476Y-95154761D01*
X246595238Y-95202380D01*
X246309523Y-95202380D01*
X246214285Y-95154761D01*
X246166666Y-95107142D01*
X170261904Y-95452380D02*
X170261904Y-94452380D01*
X170500000Y-94452380D01*
X170642857Y-94500000D01*
X170738095Y-94595238D01*
X170785714Y-94690476D01*
X170833333Y-94880952D01*
X170833333Y-95023809D01*
X170785714Y-95214285D01*
X170738095Y-95309523D01*
X170642857Y-95404761D01*
X170500000Y-95452380D01*
X170261904Y-95452380D01*
X171166666Y-94452380D02*
X171785714Y-94452380D01*
X171452380Y-94833333D01*
X171595238Y-94833333D01*
X171690476Y-94880952D01*
X171738095Y-94928571D01*
X171785714Y-95023809D01*
X171785714Y-95261904D01*
X171738095Y-95357142D01*
X171690476Y-95404761D01*
X171595238Y-95452380D01*
X171309523Y-95452380D01*
X171214285Y-95404761D01*
X171166666Y-95357142D01*
X245261904Y-77702380D02*
X245261904Y-76702380D01*
X245500000Y-76702380D01*
X245642857Y-76750000D01*
X245738095Y-76845238D01*
X245785714Y-76940476D01*
X245833333Y-77130952D01*
X245833333Y-77273809D01*
X245785714Y-77464285D01*
X245738095Y-77559523D01*
X245642857Y-77654761D01*
X245500000Y-77702380D01*
X245261904Y-77702380D01*
X246166666Y-76702380D02*
X246785714Y-76702380D01*
X246452380Y-77083333D01*
X246595238Y-77083333D01*
X246690476Y-77130952D01*
X246738095Y-77178571D01*
X246785714Y-77273809D01*
X246785714Y-77511904D01*
X246738095Y-77607142D01*
X246690476Y-77654761D01*
X246595238Y-77702380D01*
X246309523Y-77702380D01*
X246214285Y-77654761D01*
X246166666Y-77607142D01*
X170261904Y-78142380D02*
X170261904Y-77142380D01*
X170500000Y-77142380D01*
X170642857Y-77190000D01*
X170738095Y-77285238D01*
X170785714Y-77380476D01*
X170833333Y-77570952D01*
X170833333Y-77713809D01*
X170785714Y-77904285D01*
X170738095Y-77999523D01*
X170642857Y-78094761D01*
X170500000Y-78142380D01*
X170261904Y-78142380D01*
X171166666Y-77142380D02*
X171785714Y-77142380D01*
X171452380Y-77523333D01*
X171595238Y-77523333D01*
X171690476Y-77570952D01*
X171738095Y-77618571D01*
X171785714Y-77713809D01*
X171785714Y-77951904D01*
X171738095Y-78047142D01*
X171690476Y-78094761D01*
X171595238Y-78142380D01*
X171309523Y-78142380D01*
X171214285Y-78094761D01*
X171166666Y-78047142D01*
X245261904Y-60202380D02*
X245261904Y-59202380D01*
X245500000Y-59202380D01*
X245642857Y-59250000D01*
X245738095Y-59345238D01*
X245785714Y-59440476D01*
X245833333Y-59630952D01*
X245833333Y-59773809D01*
X245785714Y-59964285D01*
X245738095Y-60059523D01*
X245642857Y-60154761D01*
X245500000Y-60202380D01*
X245261904Y-60202380D01*
X246166666Y-59202380D02*
X246785714Y-59202380D01*
X246452380Y-59583333D01*
X246595238Y-59583333D01*
X246690476Y-59630952D01*
X246738095Y-59678571D01*
X246785714Y-59773809D01*
X246785714Y-60011904D01*
X246738095Y-60107142D01*
X246690476Y-60154761D01*
X246595238Y-60202380D01*
X246309523Y-60202380D01*
X246214285Y-60154761D01*
X246166666Y-60107142D01*
X221491904Y-217952380D02*
X221491904Y-216952380D01*
X221730000Y-216952380D01*
X221872857Y-217000000D01*
X221968095Y-217095238D01*
X222015714Y-217190476D01*
X222063333Y-217380952D01*
X222063333Y-217523809D01*
X222015714Y-217714285D01*
X221968095Y-217809523D01*
X221872857Y-217904761D01*
X221730000Y-217952380D01*
X221491904Y-217952380D01*
X222444285Y-217047619D02*
X222491904Y-217000000D01*
X222587142Y-216952380D01*
X222825238Y-216952380D01*
X222920476Y-217000000D01*
X222968095Y-217047619D01*
X223015714Y-217142857D01*
X223015714Y-217238095D01*
X222968095Y-217380952D01*
X222396666Y-217952380D01*
X223015714Y-217952380D01*
X146491904Y-217952380D02*
X146491904Y-216952380D01*
X146730000Y-216952380D01*
X146872857Y-217000000D01*
X146968095Y-217095238D01*
X147015714Y-217190476D01*
X147063333Y-217380952D01*
X147063333Y-217523809D01*
X147015714Y-217714285D01*
X146968095Y-217809523D01*
X146872857Y-217904761D01*
X146730000Y-217952380D01*
X146491904Y-217952380D01*
X147444285Y-217047619D02*
X147491904Y-217000000D01*
X147587142Y-216952380D01*
X147825238Y-216952380D01*
X147920476Y-217000000D01*
X147968095Y-217047619D01*
X148015714Y-217142857D01*
X148015714Y-217238095D01*
X147968095Y-217380952D01*
X147396666Y-217952380D01*
X148015714Y-217952380D01*
X221491904Y-200452380D02*
X221491904Y-199452380D01*
X221730000Y-199452380D01*
X221872857Y-199500000D01*
X221968095Y-199595238D01*
X222015714Y-199690476D01*
X222063333Y-199880952D01*
X222063333Y-200023809D01*
X222015714Y-200214285D01*
X221968095Y-200309523D01*
X221872857Y-200404761D01*
X221730000Y-200452380D01*
X221491904Y-200452380D01*
X222444285Y-199547619D02*
X222491904Y-199500000D01*
X222587142Y-199452380D01*
X222825238Y-199452380D01*
X222920476Y-199500000D01*
X222968095Y-199547619D01*
X223015714Y-199642857D01*
X223015714Y-199738095D01*
X222968095Y-199880952D01*
X222396666Y-200452380D01*
X223015714Y-200452380D01*
X146491904Y-200452380D02*
X146491904Y-199452380D01*
X146730000Y-199452380D01*
X146872857Y-199500000D01*
X146968095Y-199595238D01*
X147015714Y-199690476D01*
X147063333Y-199880952D01*
X147063333Y-200023809D01*
X147015714Y-200214285D01*
X146968095Y-200309523D01*
X146872857Y-200404761D01*
X146730000Y-200452380D01*
X146491904Y-200452380D01*
X147444285Y-199547619D02*
X147491904Y-199500000D01*
X147587142Y-199452380D01*
X147825238Y-199452380D01*
X147920476Y-199500000D01*
X147968095Y-199547619D01*
X148015714Y-199642857D01*
X148015714Y-199738095D01*
X147968095Y-199880952D01*
X147396666Y-200452380D01*
X148015714Y-200452380D01*
X221491904Y-182952380D02*
X221491904Y-181952380D01*
X221730000Y-181952380D01*
X221872857Y-182000000D01*
X221968095Y-182095238D01*
X222015714Y-182190476D01*
X222063333Y-182380952D01*
X222063333Y-182523809D01*
X222015714Y-182714285D01*
X221968095Y-182809523D01*
X221872857Y-182904761D01*
X221730000Y-182952380D01*
X221491904Y-182952380D01*
X222444285Y-182047619D02*
X222491904Y-182000000D01*
X222587142Y-181952380D01*
X222825238Y-181952380D01*
X222920476Y-182000000D01*
X222968095Y-182047619D01*
X223015714Y-182142857D01*
X223015714Y-182238095D01*
X222968095Y-182380952D01*
X222396666Y-182952380D01*
X223015714Y-182952380D01*
X146491904Y-182952380D02*
X146491904Y-181952380D01*
X146730000Y-181952380D01*
X146872857Y-182000000D01*
X146968095Y-182095238D01*
X147015714Y-182190476D01*
X147063333Y-182380952D01*
X147063333Y-182523809D01*
X147015714Y-182714285D01*
X146968095Y-182809523D01*
X146872857Y-182904761D01*
X146730000Y-182952380D01*
X146491904Y-182952380D01*
X147444285Y-182047619D02*
X147491904Y-182000000D01*
X147587142Y-181952380D01*
X147825238Y-181952380D01*
X147920476Y-182000000D01*
X147968095Y-182047619D01*
X148015714Y-182142857D01*
X148015714Y-182238095D01*
X147968095Y-182380952D01*
X147396666Y-182952380D01*
X148015714Y-182952380D01*
X221491904Y-165452380D02*
X221491904Y-164452380D01*
X221730000Y-164452380D01*
X221872857Y-164500000D01*
X221968095Y-164595238D01*
X222015714Y-164690476D01*
X222063333Y-164880952D01*
X222063333Y-165023809D01*
X222015714Y-165214285D01*
X221968095Y-165309523D01*
X221872857Y-165404761D01*
X221730000Y-165452380D01*
X221491904Y-165452380D01*
X222444285Y-164547619D02*
X222491904Y-164500000D01*
X222587142Y-164452380D01*
X222825238Y-164452380D01*
X222920476Y-164500000D01*
X222968095Y-164547619D01*
X223015714Y-164642857D01*
X223015714Y-164738095D01*
X222968095Y-164880952D01*
X222396666Y-165452380D01*
X223015714Y-165452380D01*
X146491904Y-165452380D02*
X146491904Y-164452380D01*
X146730000Y-164452380D01*
X146872857Y-164500000D01*
X146968095Y-164595238D01*
X147015714Y-164690476D01*
X147063333Y-164880952D01*
X147063333Y-165023809D01*
X147015714Y-165214285D01*
X146968095Y-165309523D01*
X146872857Y-165404761D01*
X146730000Y-165452380D01*
X146491904Y-165452380D01*
X147444285Y-164547619D02*
X147491904Y-164500000D01*
X147587142Y-164452380D01*
X147825238Y-164452380D01*
X147920476Y-164500000D01*
X147968095Y-164547619D01*
X148015714Y-164642857D01*
X148015714Y-164738095D01*
X147968095Y-164880952D01*
X147396666Y-165452380D01*
X148015714Y-165452380D01*
X221491904Y-147952380D02*
X221491904Y-146952380D01*
X221730000Y-146952380D01*
X221872857Y-147000000D01*
X221968095Y-147095238D01*
X222015714Y-147190476D01*
X222063333Y-147380952D01*
X222063333Y-147523809D01*
X222015714Y-147714285D01*
X221968095Y-147809523D01*
X221872857Y-147904761D01*
X221730000Y-147952380D01*
X221491904Y-147952380D01*
X222444285Y-147047619D02*
X222491904Y-147000000D01*
X222587142Y-146952380D01*
X222825238Y-146952380D01*
X222920476Y-147000000D01*
X222968095Y-147047619D01*
X223015714Y-147142857D01*
X223015714Y-147238095D01*
X222968095Y-147380952D01*
X222396666Y-147952380D01*
X223015714Y-147952380D01*
X146491904Y-147952380D02*
X146491904Y-146952380D01*
X146730000Y-146952380D01*
X146872857Y-147000000D01*
X146968095Y-147095238D01*
X147015714Y-147190476D01*
X147063333Y-147380952D01*
X147063333Y-147523809D01*
X147015714Y-147714285D01*
X146968095Y-147809523D01*
X146872857Y-147904761D01*
X146730000Y-147952380D01*
X146491904Y-147952380D01*
X147444285Y-147047619D02*
X147491904Y-147000000D01*
X147587142Y-146952380D01*
X147825238Y-146952380D01*
X147920476Y-147000000D01*
X147968095Y-147047619D01*
X148015714Y-147142857D01*
X148015714Y-147238095D01*
X147968095Y-147380952D01*
X147396666Y-147952380D01*
X148015714Y-147952380D01*
X221491904Y-130452380D02*
X221491904Y-129452380D01*
X221730000Y-129452380D01*
X221872857Y-129500000D01*
X221968095Y-129595238D01*
X222015714Y-129690476D01*
X222063333Y-129880952D01*
X222063333Y-130023809D01*
X222015714Y-130214285D01*
X221968095Y-130309523D01*
X221872857Y-130404761D01*
X221730000Y-130452380D01*
X221491904Y-130452380D01*
X222444285Y-129547619D02*
X222491904Y-129500000D01*
X222587142Y-129452380D01*
X222825238Y-129452380D01*
X222920476Y-129500000D01*
X222968095Y-129547619D01*
X223015714Y-129642857D01*
X223015714Y-129738095D01*
X222968095Y-129880952D01*
X222396666Y-130452380D01*
X223015714Y-130452380D01*
X146491904Y-130452380D02*
X146491904Y-129452380D01*
X146730000Y-129452380D01*
X146872857Y-129500000D01*
X146968095Y-129595238D01*
X147015714Y-129690476D01*
X147063333Y-129880952D01*
X147063333Y-130023809D01*
X147015714Y-130214285D01*
X146968095Y-130309523D01*
X146872857Y-130404761D01*
X146730000Y-130452380D01*
X146491904Y-130452380D01*
X147444285Y-129547619D02*
X147491904Y-129500000D01*
X147587142Y-129452380D01*
X147825238Y-129452380D01*
X147920476Y-129500000D01*
X147968095Y-129547619D01*
X148015714Y-129642857D01*
X148015714Y-129738095D01*
X147968095Y-129880952D01*
X147396666Y-130452380D01*
X148015714Y-130452380D01*
X221491904Y-112952380D02*
X221491904Y-111952380D01*
X221730000Y-111952380D01*
X221872857Y-112000000D01*
X221968095Y-112095238D01*
X222015714Y-112190476D01*
X222063333Y-112380952D01*
X222063333Y-112523809D01*
X222015714Y-112714285D01*
X221968095Y-112809523D01*
X221872857Y-112904761D01*
X221730000Y-112952380D01*
X221491904Y-112952380D01*
X222444285Y-112047619D02*
X222491904Y-112000000D01*
X222587142Y-111952380D01*
X222825238Y-111952380D01*
X222920476Y-112000000D01*
X222968095Y-112047619D01*
X223015714Y-112142857D01*
X223015714Y-112238095D01*
X222968095Y-112380952D01*
X222396666Y-112952380D01*
X223015714Y-112952380D01*
X146491904Y-112952380D02*
X146491904Y-111952380D01*
X146730000Y-111952380D01*
X146872857Y-112000000D01*
X146968095Y-112095238D01*
X147015714Y-112190476D01*
X147063333Y-112380952D01*
X147063333Y-112523809D01*
X147015714Y-112714285D01*
X146968095Y-112809523D01*
X146872857Y-112904761D01*
X146730000Y-112952380D01*
X146491904Y-112952380D01*
X147444285Y-112047619D02*
X147491904Y-112000000D01*
X147587142Y-111952380D01*
X147825238Y-111952380D01*
X147920476Y-112000000D01*
X147968095Y-112047619D01*
X148015714Y-112142857D01*
X148015714Y-112238095D01*
X147968095Y-112380952D01*
X147396666Y-112952380D01*
X148015714Y-112952380D01*
X221491904Y-95452380D02*
X221491904Y-94452380D01*
X221730000Y-94452380D01*
X221872857Y-94500000D01*
X221968095Y-94595238D01*
X222015714Y-94690476D01*
X222063333Y-94880952D01*
X222063333Y-95023809D01*
X222015714Y-95214285D01*
X221968095Y-95309523D01*
X221872857Y-95404761D01*
X221730000Y-95452380D01*
X221491904Y-95452380D01*
X222444285Y-94547619D02*
X222491904Y-94500000D01*
X222587142Y-94452380D01*
X222825238Y-94452380D01*
X222920476Y-94500000D01*
X222968095Y-94547619D01*
X223015714Y-94642857D01*
X223015714Y-94738095D01*
X222968095Y-94880952D01*
X222396666Y-95452380D01*
X223015714Y-95452380D01*
X146491904Y-95452380D02*
X146491904Y-94452380D01*
X146730000Y-94452380D01*
X146872857Y-94500000D01*
X146968095Y-94595238D01*
X147015714Y-94690476D01*
X147063333Y-94880952D01*
X147063333Y-95023809D01*
X147015714Y-95214285D01*
X146968095Y-95309523D01*
X146872857Y-95404761D01*
X146730000Y-95452380D01*
X146491904Y-95452380D01*
X147444285Y-94547619D02*
X147491904Y-94500000D01*
X147587142Y-94452380D01*
X147825238Y-94452380D01*
X147920476Y-94500000D01*
X147968095Y-94547619D01*
X148015714Y-94642857D01*
X148015714Y-94738095D01*
X147968095Y-94880952D01*
X147396666Y-95452380D01*
X148015714Y-95452380D01*
X221491904Y-77952380D02*
X221491904Y-76952380D01*
X221730000Y-76952380D01*
X221872857Y-77000000D01*
X221968095Y-77095238D01*
X222015714Y-77190476D01*
X222063333Y-77380952D01*
X222063333Y-77523809D01*
X222015714Y-77714285D01*
X221968095Y-77809523D01*
X221872857Y-77904761D01*
X221730000Y-77952380D01*
X221491904Y-77952380D01*
X222444285Y-77047619D02*
X222491904Y-77000000D01*
X222587142Y-76952380D01*
X222825238Y-76952380D01*
X222920476Y-77000000D01*
X222968095Y-77047619D01*
X223015714Y-77142857D01*
X223015714Y-77238095D01*
X222968095Y-77380952D01*
X222396666Y-77952380D01*
X223015714Y-77952380D01*
X146491904Y-78142380D02*
X146491904Y-77142380D01*
X146730000Y-77142380D01*
X146872857Y-77190000D01*
X146968095Y-77285238D01*
X147015714Y-77380476D01*
X147063333Y-77570952D01*
X147063333Y-77713809D01*
X147015714Y-77904285D01*
X146968095Y-77999523D01*
X146872857Y-78094761D01*
X146730000Y-78142380D01*
X146491904Y-78142380D01*
X147444285Y-77237619D02*
X147491904Y-77190000D01*
X147587142Y-77142380D01*
X147825238Y-77142380D01*
X147920476Y-77190000D01*
X147968095Y-77237619D01*
X148015714Y-77332857D01*
X148015714Y-77428095D01*
X147968095Y-77570952D01*
X147396666Y-78142380D01*
X148015714Y-78142380D01*
X221491904Y-60452380D02*
X221491904Y-59452380D01*
X221730000Y-59452380D01*
X221872857Y-59500000D01*
X221968095Y-59595238D01*
X222015714Y-59690476D01*
X222063333Y-59880952D01*
X222063333Y-60023809D01*
X222015714Y-60214285D01*
X221968095Y-60309523D01*
X221872857Y-60404761D01*
X221730000Y-60452380D01*
X221491904Y-60452380D01*
X222444285Y-59547619D02*
X222491904Y-59500000D01*
X222587142Y-59452380D01*
X222825238Y-59452380D01*
X222920476Y-59500000D01*
X222968095Y-59547619D01*
X223015714Y-59642857D01*
X223015714Y-59738095D01*
X222968095Y-59880952D01*
X222396666Y-60452380D01*
X223015714Y-60452380D01*
X278333333Y-219602380D02*
X278000000Y-219126190D01*
X277761904Y-219602380D02*
X277761904Y-218602380D01*
X278142857Y-218602380D01*
X278238095Y-218650000D01*
X278285714Y-218697619D01*
X278333333Y-218792857D01*
X278333333Y-218935714D01*
X278285714Y-219030952D01*
X278238095Y-219078571D01*
X278142857Y-219126190D01*
X277761904Y-219126190D01*
X279190476Y-218602380D02*
X279000000Y-218602380D01*
X278904761Y-218650000D01*
X278857142Y-218697619D01*
X278761904Y-218840476D01*
X278714285Y-219030952D01*
X278714285Y-219411904D01*
X278761904Y-219507142D01*
X278809523Y-219554761D01*
X278904761Y-219602380D01*
X279095238Y-219602380D01*
X279190476Y-219554761D01*
X279238095Y-219507142D01*
X279285714Y-219411904D01*
X279285714Y-219173809D01*
X279238095Y-219078571D01*
X279190476Y-219030952D01*
X279095238Y-218983333D01*
X278904761Y-218983333D01*
X278809523Y-219030952D01*
X278761904Y-219078571D01*
X278714285Y-219173809D01*
X203333333Y-219852380D02*
X203000000Y-219376190D01*
X202761904Y-219852380D02*
X202761904Y-218852380D01*
X203142857Y-218852380D01*
X203238095Y-218900000D01*
X203285714Y-218947619D01*
X203333333Y-219042857D01*
X203333333Y-219185714D01*
X203285714Y-219280952D01*
X203238095Y-219328571D01*
X203142857Y-219376190D01*
X202761904Y-219376190D01*
X204190476Y-218852380D02*
X204000000Y-218852380D01*
X203904761Y-218900000D01*
X203857142Y-218947619D01*
X203761904Y-219090476D01*
X203714285Y-219280952D01*
X203714285Y-219661904D01*
X203761904Y-219757142D01*
X203809523Y-219804761D01*
X203904761Y-219852380D01*
X204095238Y-219852380D01*
X204190476Y-219804761D01*
X204238095Y-219757142D01*
X204285714Y-219661904D01*
X204285714Y-219423809D01*
X204238095Y-219328571D01*
X204190476Y-219280952D01*
X204095238Y-219233333D01*
X203904761Y-219233333D01*
X203809523Y-219280952D01*
X203761904Y-219328571D01*
X203714285Y-219423809D01*
X278333333Y-202102380D02*
X278000000Y-201626190D01*
X277761904Y-202102380D02*
X277761904Y-201102380D01*
X278142857Y-201102380D01*
X278238095Y-201150000D01*
X278285714Y-201197619D01*
X278333333Y-201292857D01*
X278333333Y-201435714D01*
X278285714Y-201530952D01*
X278238095Y-201578571D01*
X278142857Y-201626190D01*
X277761904Y-201626190D01*
X279190476Y-201102380D02*
X279000000Y-201102380D01*
X278904761Y-201150000D01*
X278857142Y-201197619D01*
X278761904Y-201340476D01*
X278714285Y-201530952D01*
X278714285Y-201911904D01*
X278761904Y-202007142D01*
X278809523Y-202054761D01*
X278904761Y-202102380D01*
X279095238Y-202102380D01*
X279190476Y-202054761D01*
X279238095Y-202007142D01*
X279285714Y-201911904D01*
X279285714Y-201673809D01*
X279238095Y-201578571D01*
X279190476Y-201530952D01*
X279095238Y-201483333D01*
X278904761Y-201483333D01*
X278809523Y-201530952D01*
X278761904Y-201578571D01*
X278714285Y-201673809D01*
X203333333Y-202352380D02*
X203000000Y-201876190D01*
X202761904Y-202352380D02*
X202761904Y-201352380D01*
X203142857Y-201352380D01*
X203238095Y-201400000D01*
X203285714Y-201447619D01*
X203333333Y-201542857D01*
X203333333Y-201685714D01*
X203285714Y-201780952D01*
X203238095Y-201828571D01*
X203142857Y-201876190D01*
X202761904Y-201876190D01*
X204190476Y-201352380D02*
X204000000Y-201352380D01*
X203904761Y-201400000D01*
X203857142Y-201447619D01*
X203761904Y-201590476D01*
X203714285Y-201780952D01*
X203714285Y-202161904D01*
X203761904Y-202257142D01*
X203809523Y-202304761D01*
X203904761Y-202352380D01*
X204095238Y-202352380D01*
X204190476Y-202304761D01*
X204238095Y-202257142D01*
X204285714Y-202161904D01*
X204285714Y-201923809D01*
X204238095Y-201828571D01*
X204190476Y-201780952D01*
X204095238Y-201733333D01*
X203904761Y-201733333D01*
X203809523Y-201780952D01*
X203761904Y-201828571D01*
X203714285Y-201923809D01*
X278333333Y-184602380D02*
X278000000Y-184126190D01*
X277761904Y-184602380D02*
X277761904Y-183602380D01*
X278142857Y-183602380D01*
X278238095Y-183650000D01*
X278285714Y-183697619D01*
X278333333Y-183792857D01*
X278333333Y-183935714D01*
X278285714Y-184030952D01*
X278238095Y-184078571D01*
X278142857Y-184126190D01*
X277761904Y-184126190D01*
X279190476Y-183602380D02*
X279000000Y-183602380D01*
X278904761Y-183650000D01*
X278857142Y-183697619D01*
X278761904Y-183840476D01*
X278714285Y-184030952D01*
X278714285Y-184411904D01*
X278761904Y-184507142D01*
X278809523Y-184554761D01*
X278904761Y-184602380D01*
X279095238Y-184602380D01*
X279190476Y-184554761D01*
X279238095Y-184507142D01*
X279285714Y-184411904D01*
X279285714Y-184173809D01*
X279238095Y-184078571D01*
X279190476Y-184030952D01*
X279095238Y-183983333D01*
X278904761Y-183983333D01*
X278809523Y-184030952D01*
X278761904Y-184078571D01*
X278714285Y-184173809D01*
X203333333Y-184852380D02*
X203000000Y-184376190D01*
X202761904Y-184852380D02*
X202761904Y-183852380D01*
X203142857Y-183852380D01*
X203238095Y-183900000D01*
X203285714Y-183947619D01*
X203333333Y-184042857D01*
X203333333Y-184185714D01*
X203285714Y-184280952D01*
X203238095Y-184328571D01*
X203142857Y-184376190D01*
X202761904Y-184376190D01*
X204190476Y-183852380D02*
X204000000Y-183852380D01*
X203904761Y-183900000D01*
X203857142Y-183947619D01*
X203761904Y-184090476D01*
X203714285Y-184280952D01*
X203714285Y-184661904D01*
X203761904Y-184757142D01*
X203809523Y-184804761D01*
X203904761Y-184852380D01*
X204095238Y-184852380D01*
X204190476Y-184804761D01*
X204238095Y-184757142D01*
X204285714Y-184661904D01*
X204285714Y-184423809D01*
X204238095Y-184328571D01*
X204190476Y-184280952D01*
X204095238Y-184233333D01*
X203904761Y-184233333D01*
X203809523Y-184280952D01*
X203761904Y-184328571D01*
X203714285Y-184423809D01*
X278333333Y-167102380D02*
X278000000Y-166626190D01*
X277761904Y-167102380D02*
X277761904Y-166102380D01*
X278142857Y-166102380D01*
X278238095Y-166150000D01*
X278285714Y-166197619D01*
X278333333Y-166292857D01*
X278333333Y-166435714D01*
X278285714Y-166530952D01*
X278238095Y-166578571D01*
X278142857Y-166626190D01*
X277761904Y-166626190D01*
X279190476Y-166102380D02*
X279000000Y-166102380D01*
X278904761Y-166150000D01*
X278857142Y-166197619D01*
X278761904Y-166340476D01*
X278714285Y-166530952D01*
X278714285Y-166911904D01*
X278761904Y-167007142D01*
X278809523Y-167054761D01*
X278904761Y-167102380D01*
X279095238Y-167102380D01*
X279190476Y-167054761D01*
X279238095Y-167007142D01*
X279285714Y-166911904D01*
X279285714Y-166673809D01*
X279238095Y-166578571D01*
X279190476Y-166530952D01*
X279095238Y-166483333D01*
X278904761Y-166483333D01*
X278809523Y-166530952D01*
X278761904Y-166578571D01*
X278714285Y-166673809D01*
X203333333Y-167352380D02*
X203000000Y-166876190D01*
X202761904Y-167352380D02*
X202761904Y-166352380D01*
X203142857Y-166352380D01*
X203238095Y-166400000D01*
X203285714Y-166447619D01*
X203333333Y-166542857D01*
X203333333Y-166685714D01*
X203285714Y-166780952D01*
X203238095Y-166828571D01*
X203142857Y-166876190D01*
X202761904Y-166876190D01*
X204190476Y-166352380D02*
X204000000Y-166352380D01*
X203904761Y-166400000D01*
X203857142Y-166447619D01*
X203761904Y-166590476D01*
X203714285Y-166780952D01*
X203714285Y-167161904D01*
X203761904Y-167257142D01*
X203809523Y-167304761D01*
X203904761Y-167352380D01*
X204095238Y-167352380D01*
X204190476Y-167304761D01*
X204238095Y-167257142D01*
X204285714Y-167161904D01*
X204285714Y-166923809D01*
X204238095Y-166828571D01*
X204190476Y-166780952D01*
X204095238Y-166733333D01*
X203904761Y-166733333D01*
X203809523Y-166780952D01*
X203761904Y-166828571D01*
X203714285Y-166923809D01*
X278333333Y-149602380D02*
X278000000Y-149126190D01*
X277761904Y-149602380D02*
X277761904Y-148602380D01*
X278142857Y-148602380D01*
X278238095Y-148650000D01*
X278285714Y-148697619D01*
X278333333Y-148792857D01*
X278333333Y-148935714D01*
X278285714Y-149030952D01*
X278238095Y-149078571D01*
X278142857Y-149126190D01*
X277761904Y-149126190D01*
X279190476Y-148602380D02*
X279000000Y-148602380D01*
X278904761Y-148650000D01*
X278857142Y-148697619D01*
X278761904Y-148840476D01*
X278714285Y-149030952D01*
X278714285Y-149411904D01*
X278761904Y-149507142D01*
X278809523Y-149554761D01*
X278904761Y-149602380D01*
X279095238Y-149602380D01*
X279190476Y-149554761D01*
X279238095Y-149507142D01*
X279285714Y-149411904D01*
X279285714Y-149173809D01*
X279238095Y-149078571D01*
X279190476Y-149030952D01*
X279095238Y-148983333D01*
X278904761Y-148983333D01*
X278809523Y-149030952D01*
X278761904Y-149078571D01*
X278714285Y-149173809D01*
X203333333Y-149852380D02*
X203000000Y-149376190D01*
X202761904Y-149852380D02*
X202761904Y-148852380D01*
X203142857Y-148852380D01*
X203238095Y-148900000D01*
X203285714Y-148947619D01*
X203333333Y-149042857D01*
X203333333Y-149185714D01*
X203285714Y-149280952D01*
X203238095Y-149328571D01*
X203142857Y-149376190D01*
X202761904Y-149376190D01*
X204190476Y-148852380D02*
X204000000Y-148852380D01*
X203904761Y-148900000D01*
X203857142Y-148947619D01*
X203761904Y-149090476D01*
X203714285Y-149280952D01*
X203714285Y-149661904D01*
X203761904Y-149757142D01*
X203809523Y-149804761D01*
X203904761Y-149852380D01*
X204095238Y-149852380D01*
X204190476Y-149804761D01*
X204238095Y-149757142D01*
X204285714Y-149661904D01*
X204285714Y-149423809D01*
X204238095Y-149328571D01*
X204190476Y-149280952D01*
X204095238Y-149233333D01*
X203904761Y-149233333D01*
X203809523Y-149280952D01*
X203761904Y-149328571D01*
X203714285Y-149423809D01*
X278333333Y-132102380D02*
X278000000Y-131626190D01*
X277761904Y-132102380D02*
X277761904Y-131102380D01*
X278142857Y-131102380D01*
X278238095Y-131150000D01*
X278285714Y-131197619D01*
X278333333Y-131292857D01*
X278333333Y-131435714D01*
X278285714Y-131530952D01*
X278238095Y-131578571D01*
X278142857Y-131626190D01*
X277761904Y-131626190D01*
X279190476Y-131102380D02*
X279000000Y-131102380D01*
X278904761Y-131150000D01*
X278857142Y-131197619D01*
X278761904Y-131340476D01*
X278714285Y-131530952D01*
X278714285Y-131911904D01*
X278761904Y-132007142D01*
X278809523Y-132054761D01*
X278904761Y-132102380D01*
X279095238Y-132102380D01*
X279190476Y-132054761D01*
X279238095Y-132007142D01*
X279285714Y-131911904D01*
X279285714Y-131673809D01*
X279238095Y-131578571D01*
X279190476Y-131530952D01*
X279095238Y-131483333D01*
X278904761Y-131483333D01*
X278809523Y-131530952D01*
X278761904Y-131578571D01*
X278714285Y-131673809D01*
X203333333Y-132352380D02*
X203000000Y-131876190D01*
X202761904Y-132352380D02*
X202761904Y-131352380D01*
X203142857Y-131352380D01*
X203238095Y-131400000D01*
X203285714Y-131447619D01*
X203333333Y-131542857D01*
X203333333Y-131685714D01*
X203285714Y-131780952D01*
X203238095Y-131828571D01*
X203142857Y-131876190D01*
X202761904Y-131876190D01*
X204190476Y-131352380D02*
X204000000Y-131352380D01*
X203904761Y-131400000D01*
X203857142Y-131447619D01*
X203761904Y-131590476D01*
X203714285Y-131780952D01*
X203714285Y-132161904D01*
X203761904Y-132257142D01*
X203809523Y-132304761D01*
X203904761Y-132352380D01*
X204095238Y-132352380D01*
X204190476Y-132304761D01*
X204238095Y-132257142D01*
X204285714Y-132161904D01*
X204285714Y-131923809D01*
X204238095Y-131828571D01*
X204190476Y-131780952D01*
X204095238Y-131733333D01*
X203904761Y-131733333D01*
X203809523Y-131780952D01*
X203761904Y-131828571D01*
X203714285Y-131923809D01*
X278333333Y-114602380D02*
X278000000Y-114126190D01*
X277761904Y-114602380D02*
X277761904Y-113602380D01*
X278142857Y-113602380D01*
X278238095Y-113650000D01*
X278285714Y-113697619D01*
X278333333Y-113792857D01*
X278333333Y-113935714D01*
X278285714Y-114030952D01*
X278238095Y-114078571D01*
X278142857Y-114126190D01*
X277761904Y-114126190D01*
X279190476Y-113602380D02*
X279000000Y-113602380D01*
X278904761Y-113650000D01*
X278857142Y-113697619D01*
X278761904Y-113840476D01*
X278714285Y-114030952D01*
X278714285Y-114411904D01*
X278761904Y-114507142D01*
X278809523Y-114554761D01*
X278904761Y-114602380D01*
X279095238Y-114602380D01*
X279190476Y-114554761D01*
X279238095Y-114507142D01*
X279285714Y-114411904D01*
X279285714Y-114173809D01*
X279238095Y-114078571D01*
X279190476Y-114030952D01*
X279095238Y-113983333D01*
X278904761Y-113983333D01*
X278809523Y-114030952D01*
X278761904Y-114078571D01*
X278714285Y-114173809D01*
X203333333Y-114852380D02*
X203000000Y-114376190D01*
X202761904Y-114852380D02*
X202761904Y-113852380D01*
X203142857Y-113852380D01*
X203238095Y-113900000D01*
X203285714Y-113947619D01*
X203333333Y-114042857D01*
X203333333Y-114185714D01*
X203285714Y-114280952D01*
X203238095Y-114328571D01*
X203142857Y-114376190D01*
X202761904Y-114376190D01*
X204190476Y-113852380D02*
X204000000Y-113852380D01*
X203904761Y-113900000D01*
X203857142Y-113947619D01*
X203761904Y-114090476D01*
X203714285Y-114280952D01*
X203714285Y-114661904D01*
X203761904Y-114757142D01*
X203809523Y-114804761D01*
X203904761Y-114852380D01*
X204095238Y-114852380D01*
X204190476Y-114804761D01*
X204238095Y-114757142D01*
X204285714Y-114661904D01*
X204285714Y-114423809D01*
X204238095Y-114328571D01*
X204190476Y-114280952D01*
X204095238Y-114233333D01*
X203904761Y-114233333D01*
X203809523Y-114280952D01*
X203761904Y-114328571D01*
X203714285Y-114423809D01*
X278333333Y-97452380D02*
X278000000Y-96976190D01*
X277761904Y-97452380D02*
X277761904Y-96452380D01*
X278142857Y-96452380D01*
X278238095Y-96500000D01*
X278285714Y-96547619D01*
X278333333Y-96642857D01*
X278333333Y-96785714D01*
X278285714Y-96880952D01*
X278238095Y-96928571D01*
X278142857Y-96976190D01*
X277761904Y-96976190D01*
X279190476Y-96452380D02*
X279000000Y-96452380D01*
X278904761Y-96500000D01*
X278857142Y-96547619D01*
X278761904Y-96690476D01*
X278714285Y-96880952D01*
X278714285Y-97261904D01*
X278761904Y-97357142D01*
X278809523Y-97404761D01*
X278904761Y-97452380D01*
X279095238Y-97452380D01*
X279190476Y-97404761D01*
X279238095Y-97357142D01*
X279285714Y-97261904D01*
X279285714Y-97023809D01*
X279238095Y-96928571D01*
X279190476Y-96880952D01*
X279095238Y-96833333D01*
X278904761Y-96833333D01*
X278809523Y-96880952D01*
X278761904Y-96928571D01*
X278714285Y-97023809D01*
X203333333Y-97352380D02*
X203000000Y-96876190D01*
X202761904Y-97352380D02*
X202761904Y-96352380D01*
X203142857Y-96352380D01*
X203238095Y-96400000D01*
X203285714Y-96447619D01*
X203333333Y-96542857D01*
X203333333Y-96685714D01*
X203285714Y-96780952D01*
X203238095Y-96828571D01*
X203142857Y-96876190D01*
X202761904Y-96876190D01*
X204190476Y-96352380D02*
X204000000Y-96352380D01*
X203904761Y-96400000D01*
X203857142Y-96447619D01*
X203761904Y-96590476D01*
X203714285Y-96780952D01*
X203714285Y-97161904D01*
X203761904Y-97257142D01*
X203809523Y-97304761D01*
X203904761Y-97352380D01*
X204095238Y-97352380D01*
X204190476Y-97304761D01*
X204238095Y-97257142D01*
X204285714Y-97161904D01*
X204285714Y-96923809D01*
X204238095Y-96828571D01*
X204190476Y-96780952D01*
X204095238Y-96733333D01*
X203904761Y-96733333D01*
X203809523Y-96780952D01*
X203761904Y-96828571D01*
X203714285Y-96923809D01*
X278333333Y-79602380D02*
X278000000Y-79126190D01*
X277761904Y-79602380D02*
X277761904Y-78602380D01*
X278142857Y-78602380D01*
X278238095Y-78650000D01*
X278285714Y-78697619D01*
X278333333Y-78792857D01*
X278333333Y-78935714D01*
X278285714Y-79030952D01*
X278238095Y-79078571D01*
X278142857Y-79126190D01*
X277761904Y-79126190D01*
X279190476Y-78602380D02*
X279000000Y-78602380D01*
X278904761Y-78650000D01*
X278857142Y-78697619D01*
X278761904Y-78840476D01*
X278714285Y-79030952D01*
X278714285Y-79411904D01*
X278761904Y-79507142D01*
X278809523Y-79554761D01*
X278904761Y-79602380D01*
X279095238Y-79602380D01*
X279190476Y-79554761D01*
X279238095Y-79507142D01*
X279285714Y-79411904D01*
X279285714Y-79173809D01*
X279238095Y-79078571D01*
X279190476Y-79030952D01*
X279095238Y-78983333D01*
X278904761Y-78983333D01*
X278809523Y-79030952D01*
X278761904Y-79078571D01*
X278714285Y-79173809D01*
X203333333Y-79852380D02*
X203000000Y-79376190D01*
X202761904Y-79852380D02*
X202761904Y-78852380D01*
X203142857Y-78852380D01*
X203238095Y-78900000D01*
X203285714Y-78947619D01*
X203333333Y-79042857D01*
X203333333Y-79185714D01*
X203285714Y-79280952D01*
X203238095Y-79328571D01*
X203142857Y-79376190D01*
X202761904Y-79376190D01*
X204190476Y-78852380D02*
X204000000Y-78852380D01*
X203904761Y-78900000D01*
X203857142Y-78947619D01*
X203761904Y-79090476D01*
X203714285Y-79280952D01*
X203714285Y-79661904D01*
X203761904Y-79757142D01*
X203809523Y-79804761D01*
X203904761Y-79852380D01*
X204095238Y-79852380D01*
X204190476Y-79804761D01*
X204238095Y-79757142D01*
X204285714Y-79661904D01*
X204285714Y-79423809D01*
X204238095Y-79328571D01*
X204190476Y-79280952D01*
X204095238Y-79233333D01*
X203904761Y-79233333D01*
X203809523Y-79280952D01*
X203761904Y-79328571D01*
X203714285Y-79423809D01*
X278333333Y-62102380D02*
X278000000Y-61626190D01*
X277761904Y-62102380D02*
X277761904Y-61102380D01*
X278142857Y-61102380D01*
X278238095Y-61150000D01*
X278285714Y-61197619D01*
X278333333Y-61292857D01*
X278333333Y-61435714D01*
X278285714Y-61530952D01*
X278238095Y-61578571D01*
X278142857Y-61626190D01*
X277761904Y-61626190D01*
X279190476Y-61102380D02*
X279000000Y-61102380D01*
X278904761Y-61150000D01*
X278857142Y-61197619D01*
X278761904Y-61340476D01*
X278714285Y-61530952D01*
X278714285Y-61911904D01*
X278761904Y-62007142D01*
X278809523Y-62054761D01*
X278904761Y-62102380D01*
X279095238Y-62102380D01*
X279190476Y-62054761D01*
X279238095Y-62007142D01*
X279285714Y-61911904D01*
X279285714Y-61673809D01*
X279238095Y-61578571D01*
X279190476Y-61530952D01*
X279095238Y-61483333D01*
X278904761Y-61483333D01*
X278809523Y-61530952D01*
X278761904Y-61578571D01*
X278714285Y-61673809D01*
X146491904Y-60452380D02*
X146491904Y-59452380D01*
X146730000Y-59452380D01*
X146872857Y-59500000D01*
X146968095Y-59595238D01*
X147015714Y-59690476D01*
X147063333Y-59880952D01*
X147063333Y-60023809D01*
X147015714Y-60214285D01*
X146968095Y-60309523D01*
X146872857Y-60404761D01*
X146730000Y-60452380D01*
X146491904Y-60452380D01*
X147444285Y-59547619D02*
X147491904Y-59500000D01*
X147587142Y-59452380D01*
X147825238Y-59452380D01*
X147920476Y-59500000D01*
X147968095Y-59547619D01*
X148015714Y-59642857D01*
X148015714Y-59738095D01*
X147968095Y-59880952D01*
X147396666Y-60452380D01*
X148015714Y-60452380D01*
X170261904Y-60452380D02*
X170261904Y-59452380D01*
X170500000Y-59452380D01*
X170642857Y-59500000D01*
X170738095Y-59595238D01*
X170785714Y-59690476D01*
X170833333Y-59880952D01*
X170833333Y-60023809D01*
X170785714Y-60214285D01*
X170738095Y-60309523D01*
X170642857Y-60404761D01*
X170500000Y-60452380D01*
X170261904Y-60452380D01*
X171166666Y-59452380D02*
X171785714Y-59452380D01*
X171452380Y-59833333D01*
X171595238Y-59833333D01*
X171690476Y-59880952D01*
X171738095Y-59928571D01*
X171785714Y-60023809D01*
X171785714Y-60261904D01*
X171738095Y-60357142D01*
X171690476Y-60404761D01*
X171595238Y-60452380D01*
X171309523Y-60452380D01*
X171214285Y-60404761D01*
X171166666Y-60357142D01*
X193761904Y-60452380D02*
X193761904Y-59452380D01*
X194000000Y-59452380D01*
X194142857Y-59500000D01*
X194238095Y-59595238D01*
X194285714Y-59690476D01*
X194333333Y-59880952D01*
X194333333Y-60023809D01*
X194285714Y-60214285D01*
X194238095Y-60309523D01*
X194142857Y-60404761D01*
X194000000Y-60452380D01*
X193761904Y-60452380D01*
X195190476Y-59785714D02*
X195190476Y-60452380D01*
X194952380Y-59404761D02*
X194714285Y-60119047D01*
X195333333Y-60119047D01*
X203333333Y-69352380D02*
X203000000Y-68876190D01*
X202761904Y-69352380D02*
X202761904Y-68352380D01*
X203142857Y-68352380D01*
X203238095Y-68400000D01*
X203285714Y-68447619D01*
X203333333Y-68542857D01*
X203333333Y-68685714D01*
X203285714Y-68780952D01*
X203238095Y-68828571D01*
X203142857Y-68876190D01*
X202761904Y-68876190D01*
X204190476Y-68685714D02*
X204190476Y-69352380D01*
X203952380Y-68304761D02*
X203714285Y-69019047D01*
X204333333Y-69019047D01*
X203308333Y-65852380D02*
X202975000Y-65376190D01*
X202736904Y-65852380D02*
X202736904Y-64852380D01*
X203117857Y-64852380D01*
X203213095Y-64900000D01*
X203260714Y-64947619D01*
X203308333Y-65042857D01*
X203308333Y-65185714D01*
X203260714Y-65280952D01*
X203213095Y-65328571D01*
X203117857Y-65376190D01*
X202736904Y-65376190D01*
X204213095Y-64852380D02*
X203736904Y-64852380D01*
X203689285Y-65328571D01*
X203736904Y-65280952D01*
X203832142Y-65233333D01*
X204070238Y-65233333D01*
X204165476Y-65280952D01*
X204213095Y-65328571D01*
X204260714Y-65423809D01*
X204260714Y-65661904D01*
X204213095Y-65757142D01*
X204165476Y-65804761D01*
X204070238Y-65852380D01*
X203832142Y-65852380D01*
X203736904Y-65804761D01*
X203689285Y-65757142D01*
X203333333Y-62352380D02*
X203000000Y-61876190D01*
X202761904Y-62352380D02*
X202761904Y-61352380D01*
X203142857Y-61352380D01*
X203238095Y-61400000D01*
X203285714Y-61447619D01*
X203333333Y-61542857D01*
X203333333Y-61685714D01*
X203285714Y-61780952D01*
X203238095Y-61828571D01*
X203142857Y-61876190D01*
X202761904Y-61876190D01*
X204190476Y-61352380D02*
X204000000Y-61352380D01*
X203904761Y-61400000D01*
X203857142Y-61447619D01*
X203761904Y-61590476D01*
X203714285Y-61780952D01*
X203714285Y-62161904D01*
X203761904Y-62257142D01*
X203809523Y-62304761D01*
X203904761Y-62352380D01*
X204095238Y-62352380D01*
X204190476Y-62304761D01*
X204238095Y-62257142D01*
X204285714Y-62161904D01*
X204285714Y-61923809D01*
X204238095Y-61828571D01*
X204190476Y-61780952D01*
X204095238Y-61733333D01*
X203904761Y-61733333D01*
X203809523Y-61780952D01*
X203761904Y-61828571D01*
X203714285Y-61923809D01*
M02*
