M48
; DRILL file {KiCad (5.1.5)-3} date 1/02/2021 12:28:52 PM
; FORMAT={-:-/ absolute / inch / decimal}
; #@! TF.CreationDate,2021-02-01T12:28:52+11:00
; #@! TF.GenerationSoftware,Kicad,Pcbnew,(5.1.5)-3
FMAT,2
INCH
T1C0.0157
T2C0.0315
T3C0.0394
%
G90
G05
T1
X5.374Y-3.0906
X5.374Y-3.7992
X5.374Y-4.5079
X5.374Y-5.1969
X5.374Y-5.8858
X5.374Y-6.5748
X5.374Y-7.2441
X5.374Y-7.9724
X5.374Y-8.7008
X5.4724Y-3.189
X5.4724Y-3.8976
X5.4724Y-4.5669
X5.4724Y-5.2559
X5.4724Y-5.9252
X5.4724Y-6.6535
X5.4724Y-7.3228
X5.4724Y-8.0315
X5.4724Y-8.6614
X5.5709Y-3.2677
X5.5709Y-3.9567
X5.5709Y-4.6457
X5.5709Y-5.3346
X5.5709Y-6.0236
X5.5709Y-6.7126
X5.5709Y-7.3819
X5.5709Y-8.1102
X5.5709Y-8.563
X5.6102Y-8.7795
X5.6339Y-3.0906
X5.6339Y-3.2087
X5.6339Y-3.8386
X5.6339Y-3.8976
X5.6339Y-4.5079
X5.6339Y-4.5669
X5.6339Y-5.1969
X5.6339Y-5.2756
X5.6339Y-5.8858
X5.6339Y-5.9646
X5.6339Y-6.5748
X5.6339Y-6.6535
X5.6339Y-7.2638
X5.6339Y-7.3425
X5.6339Y-7.9724
X5.6339Y-8.0315
X5.6496Y-8.5039
X6.1417Y-3.9173
X6.1417Y-3.9764
X6.4764Y-3.9173
X6.5354Y-3.9173
X7.0472Y-3.4646
X7.0472Y-3.7402
X7.3819Y-3.4646
X7.3819Y-3.7402
X7.7362Y-3.4646
X7.7362Y-3.7402
X8.248Y-3.1102
X8.248Y-3.7992
X8.248Y-4.4882
X8.248Y-5.1772
X8.248Y-5.8661
X8.248Y-6.5748
X8.248Y-7.2441
X8.248Y-7.9331
X8.248Y-8.5827
X8.3465Y-3.1693
X8.3465Y-3.878
X8.3465Y-4.5669
X8.3465Y-5.2559
X8.3465Y-5.9449
X8.3465Y-6.6339
X8.3465Y-7.3228
X8.3465Y-8.0118
X8.3465Y-8.6811
X8.5236Y-3.1299
X8.5236Y-3.2087
X8.5236Y-3.8189
X8.5236Y-3.8976
X8.5236Y-4.5079
X8.5433Y-4.5866
X8.5433Y-5.1772
X8.5433Y-5.2559
X8.5433Y-5.8858
X8.5433Y-5.9449
X8.5433Y-6.5748
X8.5433Y-6.6535
X8.5433Y-7.2638
X8.5433Y-7.3228
X8.5433Y-7.9528
X8.5433Y-8.0118
X8.5433Y-8.6417
X8.5433Y-8.7205
T2
X5.374Y-4.0748
X5.4724Y-3.6417
X5.5709Y-3.3858
X8.248Y-4.0354
X8.3465Y-3.6614
X8.4449Y-3.3858
T3
X6.2992Y-3.3983
X6.3976Y-3.3983
X6.2992Y-3.9754
X6.3976Y-3.9754
X6.2992Y-3.6801
X6.3976Y-3.6801
T0
M30
