G04 #@! TF.GenerationSoftware,KiCad,Pcbnew,(5.1.5)-3*
G04 #@! TF.CreationDate,2021-02-01T12:28:56+11:00*
G04 #@! TF.ProjectId,LED Array,4c454420-4172-4726-9179-2e6b69636164,rev?*
G04 #@! TF.SameCoordinates,Original*
G04 #@! TF.FileFunction,Soldermask,Bot*
G04 #@! TF.FilePolarity,Negative*
%FSLAX46Y46*%
G04 Gerber Fmt 4.6, Leading zero omitted, Abs format (unit mm)*
G04 Created by KiCad (PCBNEW (5.1.5)-3) date 2021-02-01 12:28:56*
%MOMM*%
%LPD*%
G04 APERTURE LIST*
%ADD10C,0.100000*%
G04 APERTURE END LIST*
D10*
G36*
X162734810Y-100200935D02*
G01*
X162881309Y-100261617D01*
X162881310Y-100261618D01*
X163013158Y-100349716D01*
X163125284Y-100461842D01*
X163125285Y-100461844D01*
X163213383Y-100593691D01*
X163274065Y-100740190D01*
X163305000Y-100895713D01*
X163305000Y-101054287D01*
X163274065Y-101209810D01*
X163213383Y-101356309D01*
X163213382Y-101356310D01*
X163125284Y-101488158D01*
X163013158Y-101600284D01*
X162946785Y-101644633D01*
X162881309Y-101688383D01*
X162734810Y-101749065D01*
X162579287Y-101780000D01*
X162420713Y-101780000D01*
X162265190Y-101749065D01*
X162118691Y-101688383D01*
X162053215Y-101644633D01*
X161986842Y-101600284D01*
X161874716Y-101488158D01*
X161786618Y-101356310D01*
X161786617Y-101356309D01*
X161725935Y-101209810D01*
X161695000Y-101054287D01*
X161695000Y-100895713D01*
X161725935Y-100740190D01*
X161786617Y-100593691D01*
X161874715Y-100461844D01*
X161874716Y-100461842D01*
X161986842Y-100349716D01*
X162118690Y-100261618D01*
X162118691Y-100261617D01*
X162265190Y-100200935D01*
X162420713Y-100170000D01*
X162579287Y-100170000D01*
X162734810Y-100200935D01*
G37*
G36*
X160805000Y-101780000D02*
G01*
X159195000Y-101780000D01*
X159195000Y-100170000D01*
X160805000Y-100170000D01*
X160805000Y-101780000D01*
G37*
G36*
X162734810Y-92700935D02*
G01*
X162881309Y-92761617D01*
X162881310Y-92761618D01*
X163013158Y-92849716D01*
X163125284Y-92961842D01*
X163125285Y-92961844D01*
X163213383Y-93093691D01*
X163274065Y-93240190D01*
X163305000Y-93395713D01*
X163305000Y-93554287D01*
X163274065Y-93709810D01*
X163213383Y-93856309D01*
X163213382Y-93856310D01*
X163125284Y-93988158D01*
X163013158Y-94100284D01*
X162946785Y-94144633D01*
X162881309Y-94188383D01*
X162734810Y-94249065D01*
X162579287Y-94280000D01*
X162420713Y-94280000D01*
X162265190Y-94249065D01*
X162118691Y-94188383D01*
X162053215Y-94144633D01*
X161986842Y-94100284D01*
X161874716Y-93988158D01*
X161786618Y-93856310D01*
X161786617Y-93856309D01*
X161725935Y-93709810D01*
X161695000Y-93554287D01*
X161695000Y-93395713D01*
X161725935Y-93240190D01*
X161786617Y-93093691D01*
X161874715Y-92961844D01*
X161874716Y-92961842D01*
X161986842Y-92849716D01*
X162118690Y-92761618D01*
X162118691Y-92761617D01*
X162265190Y-92700935D01*
X162420713Y-92670000D01*
X162579287Y-92670000D01*
X162734810Y-92700935D01*
G37*
G36*
X160805000Y-94280000D02*
G01*
X159195000Y-94280000D01*
X159195000Y-92670000D01*
X160805000Y-92670000D01*
X160805000Y-94280000D01*
G37*
G36*
X162734810Y-85543435D02*
G01*
X162881309Y-85604117D01*
X162881310Y-85604118D01*
X163013158Y-85692216D01*
X163125284Y-85804342D01*
X163125285Y-85804344D01*
X163213383Y-85936191D01*
X163274065Y-86082690D01*
X163305000Y-86238213D01*
X163305000Y-86396787D01*
X163274065Y-86552310D01*
X163213383Y-86698809D01*
X163213382Y-86698810D01*
X163125284Y-86830658D01*
X163013158Y-86942784D01*
X162946785Y-86987133D01*
X162881309Y-87030883D01*
X162734810Y-87091565D01*
X162579287Y-87122500D01*
X162420713Y-87122500D01*
X162265190Y-87091565D01*
X162118691Y-87030883D01*
X162053215Y-86987133D01*
X161986842Y-86942784D01*
X161874716Y-86830658D01*
X161786618Y-86698810D01*
X161786617Y-86698809D01*
X161725935Y-86552310D01*
X161695000Y-86396787D01*
X161695000Y-86238213D01*
X161725935Y-86082690D01*
X161786617Y-85936191D01*
X161874715Y-85804344D01*
X161874716Y-85804342D01*
X161986842Y-85692216D01*
X162118690Y-85604118D01*
X162118691Y-85604117D01*
X162265190Y-85543435D01*
X162420713Y-85512500D01*
X162579287Y-85512500D01*
X162734810Y-85543435D01*
G37*
G36*
X160805000Y-87122500D02*
G01*
X159195000Y-87122500D01*
X159195000Y-85512500D01*
X160805000Y-85512500D01*
X160805000Y-87122500D01*
G37*
M02*
