G04 #@! TF.GenerationSoftware,KiCad,Pcbnew,(5.1.5)-3*
G04 #@! TF.CreationDate,2020-10-29T12:26:40+11:00*
G04 #@! TF.ProjectId,MotorControlsV2,4d6f746f-7243-46f6-9e74-726f6c735632,rev?*
G04 #@! TF.SameCoordinates,Original*
G04 #@! TF.FileFunction,Paste,Top*
G04 #@! TF.FilePolarity,Positive*
%FSLAX46Y46*%
G04 Gerber Fmt 4.6, Leading zero omitted, Abs format (unit mm)*
G04 Created by KiCad (PCBNEW (5.1.5)-3) date 2020-10-29 12:26:40*
%MOMM*%
%LPD*%
G04 APERTURE LIST*
%ADD10C,0.010000*%
%ADD11C,0.100000*%
%ADD12R,0.970000X3.020000*%
%ADD13R,2.400000X3.100000*%
%ADD14R,2.200000X0.500000*%
%ADD15R,3.100000X2.400000*%
%ADD16R,0.500000X2.200000*%
G04 APERTURE END LIST*
D10*
G36*
X129660000Y-56970000D02*
G01*
X131380000Y-56970000D01*
X131380000Y-58530000D01*
X129660000Y-58530000D01*
X129660000Y-56970000D01*
G37*
X129660000Y-56970000D02*
X131380000Y-56970000D01*
X131380000Y-58530000D01*
X129660000Y-58530000D01*
X129660000Y-56970000D01*
G36*
X127120000Y-56970000D02*
G01*
X128840000Y-56970000D01*
X128840000Y-58530000D01*
X127120000Y-58530000D01*
X127120000Y-56970000D01*
G37*
X127120000Y-56970000D02*
X128840000Y-56970000D01*
X128840000Y-58530000D01*
X127120000Y-58530000D01*
X127120000Y-56970000D01*
G36*
X129660000Y-54860000D02*
G01*
X131380000Y-54860000D01*
X131380000Y-56420000D01*
X129660000Y-56420000D01*
X129660000Y-54860000D01*
G37*
X129660000Y-54860000D02*
X131380000Y-54860000D01*
X131380000Y-56420000D01*
X129660000Y-56420000D01*
X129660000Y-54860000D01*
G36*
X127120000Y-54860000D02*
G01*
X128840000Y-54860000D01*
X128840000Y-56420000D01*
X127120000Y-56420000D01*
X127120000Y-54860000D01*
G37*
X127120000Y-54860000D02*
X128840000Y-54860000D01*
X128840000Y-56420000D01*
X127120000Y-56420000D01*
X127120000Y-54860000D01*
G36*
X129660000Y-59080000D02*
G01*
X131380000Y-59080000D01*
X131380000Y-60640000D01*
X129660000Y-60640000D01*
X129660000Y-59080000D01*
G37*
X129660000Y-59080000D02*
X131380000Y-59080000D01*
X131380000Y-60640000D01*
X129660000Y-60640000D01*
X129660000Y-59080000D01*
G36*
X127120000Y-59080000D02*
G01*
X128840000Y-59080000D01*
X128840000Y-60640000D01*
X127120000Y-60640000D01*
X127120000Y-59080000D01*
G37*
X127120000Y-59080000D02*
X128840000Y-59080000D01*
X128840000Y-60640000D01*
X127120000Y-60640000D01*
X127120000Y-59080000D01*
D11*
G36*
X112567642Y-52751174D02*
G01*
X112591303Y-52754684D01*
X112614507Y-52760496D01*
X112637029Y-52768554D01*
X112658653Y-52778782D01*
X112679170Y-52791079D01*
X112698383Y-52805329D01*
X112716107Y-52821393D01*
X112732171Y-52839117D01*
X112746421Y-52858330D01*
X112758718Y-52878847D01*
X112768946Y-52900471D01*
X112777004Y-52922993D01*
X112782816Y-52946197D01*
X112786326Y-52969858D01*
X112787500Y-52993750D01*
X112787500Y-53906250D01*
X112786326Y-53930142D01*
X112782816Y-53953803D01*
X112777004Y-53977007D01*
X112768946Y-53999529D01*
X112758718Y-54021153D01*
X112746421Y-54041670D01*
X112732171Y-54060883D01*
X112716107Y-54078607D01*
X112698383Y-54094671D01*
X112679170Y-54108921D01*
X112658653Y-54121218D01*
X112637029Y-54131446D01*
X112614507Y-54139504D01*
X112591303Y-54145316D01*
X112567642Y-54148826D01*
X112543750Y-54150000D01*
X112056250Y-54150000D01*
X112032358Y-54148826D01*
X112008697Y-54145316D01*
X111985493Y-54139504D01*
X111962971Y-54131446D01*
X111941347Y-54121218D01*
X111920830Y-54108921D01*
X111901617Y-54094671D01*
X111883893Y-54078607D01*
X111867829Y-54060883D01*
X111853579Y-54041670D01*
X111841282Y-54021153D01*
X111831054Y-53999529D01*
X111822996Y-53977007D01*
X111817184Y-53953803D01*
X111813674Y-53930142D01*
X111812500Y-53906250D01*
X111812500Y-52993750D01*
X111813674Y-52969858D01*
X111817184Y-52946197D01*
X111822996Y-52922993D01*
X111831054Y-52900471D01*
X111841282Y-52878847D01*
X111853579Y-52858330D01*
X111867829Y-52839117D01*
X111883893Y-52821393D01*
X111901617Y-52805329D01*
X111920830Y-52791079D01*
X111941347Y-52778782D01*
X111962971Y-52768554D01*
X111985493Y-52760496D01*
X112008697Y-52754684D01*
X112032358Y-52751174D01*
X112056250Y-52750000D01*
X112543750Y-52750000D01*
X112567642Y-52751174D01*
G37*
G36*
X114442642Y-52751174D02*
G01*
X114466303Y-52754684D01*
X114489507Y-52760496D01*
X114512029Y-52768554D01*
X114533653Y-52778782D01*
X114554170Y-52791079D01*
X114573383Y-52805329D01*
X114591107Y-52821393D01*
X114607171Y-52839117D01*
X114621421Y-52858330D01*
X114633718Y-52878847D01*
X114643946Y-52900471D01*
X114652004Y-52922993D01*
X114657816Y-52946197D01*
X114661326Y-52969858D01*
X114662500Y-52993750D01*
X114662500Y-53906250D01*
X114661326Y-53930142D01*
X114657816Y-53953803D01*
X114652004Y-53977007D01*
X114643946Y-53999529D01*
X114633718Y-54021153D01*
X114621421Y-54041670D01*
X114607171Y-54060883D01*
X114591107Y-54078607D01*
X114573383Y-54094671D01*
X114554170Y-54108921D01*
X114533653Y-54121218D01*
X114512029Y-54131446D01*
X114489507Y-54139504D01*
X114466303Y-54145316D01*
X114442642Y-54148826D01*
X114418750Y-54150000D01*
X113931250Y-54150000D01*
X113907358Y-54148826D01*
X113883697Y-54145316D01*
X113860493Y-54139504D01*
X113837971Y-54131446D01*
X113816347Y-54121218D01*
X113795830Y-54108921D01*
X113776617Y-54094671D01*
X113758893Y-54078607D01*
X113742829Y-54060883D01*
X113728579Y-54041670D01*
X113716282Y-54021153D01*
X113706054Y-53999529D01*
X113697996Y-53977007D01*
X113692184Y-53953803D01*
X113688674Y-53930142D01*
X113687500Y-53906250D01*
X113687500Y-52993750D01*
X113688674Y-52969858D01*
X113692184Y-52946197D01*
X113697996Y-52922993D01*
X113706054Y-52900471D01*
X113716282Y-52878847D01*
X113728579Y-52858330D01*
X113742829Y-52839117D01*
X113758893Y-52821393D01*
X113776617Y-52805329D01*
X113795830Y-52791079D01*
X113816347Y-52778782D01*
X113837971Y-52768554D01*
X113860493Y-52760496D01*
X113883697Y-52754684D01*
X113907358Y-52751174D01*
X113931250Y-52750000D01*
X114418750Y-52750000D01*
X114442642Y-52751174D01*
G37*
G36*
X120367642Y-120601174D02*
G01*
X120391303Y-120604684D01*
X120414507Y-120610496D01*
X120437029Y-120618554D01*
X120458653Y-120628782D01*
X120479170Y-120641079D01*
X120498383Y-120655329D01*
X120516107Y-120671393D01*
X120532171Y-120689117D01*
X120546421Y-120708330D01*
X120558718Y-120728847D01*
X120568946Y-120750471D01*
X120577004Y-120772993D01*
X120582816Y-120796197D01*
X120586326Y-120819858D01*
X120587500Y-120843750D01*
X120587500Y-121756250D01*
X120586326Y-121780142D01*
X120582816Y-121803803D01*
X120577004Y-121827007D01*
X120568946Y-121849529D01*
X120558718Y-121871153D01*
X120546421Y-121891670D01*
X120532171Y-121910883D01*
X120516107Y-121928607D01*
X120498383Y-121944671D01*
X120479170Y-121958921D01*
X120458653Y-121971218D01*
X120437029Y-121981446D01*
X120414507Y-121989504D01*
X120391303Y-121995316D01*
X120367642Y-121998826D01*
X120343750Y-122000000D01*
X119856250Y-122000000D01*
X119832358Y-121998826D01*
X119808697Y-121995316D01*
X119785493Y-121989504D01*
X119762971Y-121981446D01*
X119741347Y-121971218D01*
X119720830Y-121958921D01*
X119701617Y-121944671D01*
X119683893Y-121928607D01*
X119667829Y-121910883D01*
X119653579Y-121891670D01*
X119641282Y-121871153D01*
X119631054Y-121849529D01*
X119622996Y-121827007D01*
X119617184Y-121803803D01*
X119613674Y-121780142D01*
X119612500Y-121756250D01*
X119612500Y-120843750D01*
X119613674Y-120819858D01*
X119617184Y-120796197D01*
X119622996Y-120772993D01*
X119631054Y-120750471D01*
X119641282Y-120728847D01*
X119653579Y-120708330D01*
X119667829Y-120689117D01*
X119683893Y-120671393D01*
X119701617Y-120655329D01*
X119720830Y-120641079D01*
X119741347Y-120628782D01*
X119762971Y-120618554D01*
X119785493Y-120610496D01*
X119808697Y-120604684D01*
X119832358Y-120601174D01*
X119856250Y-120600000D01*
X120343750Y-120600000D01*
X120367642Y-120601174D01*
G37*
G36*
X122242642Y-120601174D02*
G01*
X122266303Y-120604684D01*
X122289507Y-120610496D01*
X122312029Y-120618554D01*
X122333653Y-120628782D01*
X122354170Y-120641079D01*
X122373383Y-120655329D01*
X122391107Y-120671393D01*
X122407171Y-120689117D01*
X122421421Y-120708330D01*
X122433718Y-120728847D01*
X122443946Y-120750471D01*
X122452004Y-120772993D01*
X122457816Y-120796197D01*
X122461326Y-120819858D01*
X122462500Y-120843750D01*
X122462500Y-121756250D01*
X122461326Y-121780142D01*
X122457816Y-121803803D01*
X122452004Y-121827007D01*
X122443946Y-121849529D01*
X122433718Y-121871153D01*
X122421421Y-121891670D01*
X122407171Y-121910883D01*
X122391107Y-121928607D01*
X122373383Y-121944671D01*
X122354170Y-121958921D01*
X122333653Y-121971218D01*
X122312029Y-121981446D01*
X122289507Y-121989504D01*
X122266303Y-121995316D01*
X122242642Y-121998826D01*
X122218750Y-122000000D01*
X121731250Y-122000000D01*
X121707358Y-121998826D01*
X121683697Y-121995316D01*
X121660493Y-121989504D01*
X121637971Y-121981446D01*
X121616347Y-121971218D01*
X121595830Y-121958921D01*
X121576617Y-121944671D01*
X121558893Y-121928607D01*
X121542829Y-121910883D01*
X121528579Y-121891670D01*
X121516282Y-121871153D01*
X121506054Y-121849529D01*
X121497996Y-121827007D01*
X121492184Y-121803803D01*
X121488674Y-121780142D01*
X121487500Y-121756250D01*
X121487500Y-120843750D01*
X121488674Y-120819858D01*
X121492184Y-120796197D01*
X121497996Y-120772993D01*
X121506054Y-120750471D01*
X121516282Y-120728847D01*
X121528579Y-120708330D01*
X121542829Y-120689117D01*
X121558893Y-120671393D01*
X121576617Y-120655329D01*
X121595830Y-120641079D01*
X121616347Y-120628782D01*
X121637971Y-120618554D01*
X121660493Y-120610496D01*
X121683697Y-120604684D01*
X121707358Y-120601174D01*
X121731250Y-120600000D01*
X122218750Y-120600000D01*
X122242642Y-120601174D01*
G37*
G36*
X150730142Y-138013674D02*
G01*
X150753803Y-138017184D01*
X150777007Y-138022996D01*
X150799529Y-138031054D01*
X150821153Y-138041282D01*
X150841670Y-138053579D01*
X150860883Y-138067829D01*
X150878607Y-138083893D01*
X150894671Y-138101617D01*
X150908921Y-138120830D01*
X150921218Y-138141347D01*
X150931446Y-138162971D01*
X150939504Y-138185493D01*
X150945316Y-138208697D01*
X150948826Y-138232358D01*
X150950000Y-138256250D01*
X150950000Y-138743750D01*
X150948826Y-138767642D01*
X150945316Y-138791303D01*
X150939504Y-138814507D01*
X150931446Y-138837029D01*
X150921218Y-138858653D01*
X150908921Y-138879170D01*
X150894671Y-138898383D01*
X150878607Y-138916107D01*
X150860883Y-138932171D01*
X150841670Y-138946421D01*
X150821153Y-138958718D01*
X150799529Y-138968946D01*
X150777007Y-138977004D01*
X150753803Y-138982816D01*
X150730142Y-138986326D01*
X150706250Y-138987500D01*
X149793750Y-138987500D01*
X149769858Y-138986326D01*
X149746197Y-138982816D01*
X149722993Y-138977004D01*
X149700471Y-138968946D01*
X149678847Y-138958718D01*
X149658330Y-138946421D01*
X149639117Y-138932171D01*
X149621393Y-138916107D01*
X149605329Y-138898383D01*
X149591079Y-138879170D01*
X149578782Y-138858653D01*
X149568554Y-138837029D01*
X149560496Y-138814507D01*
X149554684Y-138791303D01*
X149551174Y-138767642D01*
X149550000Y-138743750D01*
X149550000Y-138256250D01*
X149551174Y-138232358D01*
X149554684Y-138208697D01*
X149560496Y-138185493D01*
X149568554Y-138162971D01*
X149578782Y-138141347D01*
X149591079Y-138120830D01*
X149605329Y-138101617D01*
X149621393Y-138083893D01*
X149639117Y-138067829D01*
X149658330Y-138053579D01*
X149678847Y-138041282D01*
X149700471Y-138031054D01*
X149722993Y-138022996D01*
X149746197Y-138017184D01*
X149769858Y-138013674D01*
X149793750Y-138012500D01*
X150706250Y-138012500D01*
X150730142Y-138013674D01*
G37*
G36*
X150730142Y-139888674D02*
G01*
X150753803Y-139892184D01*
X150777007Y-139897996D01*
X150799529Y-139906054D01*
X150821153Y-139916282D01*
X150841670Y-139928579D01*
X150860883Y-139942829D01*
X150878607Y-139958893D01*
X150894671Y-139976617D01*
X150908921Y-139995830D01*
X150921218Y-140016347D01*
X150931446Y-140037971D01*
X150939504Y-140060493D01*
X150945316Y-140083697D01*
X150948826Y-140107358D01*
X150950000Y-140131250D01*
X150950000Y-140618750D01*
X150948826Y-140642642D01*
X150945316Y-140666303D01*
X150939504Y-140689507D01*
X150931446Y-140712029D01*
X150921218Y-140733653D01*
X150908921Y-140754170D01*
X150894671Y-140773383D01*
X150878607Y-140791107D01*
X150860883Y-140807171D01*
X150841670Y-140821421D01*
X150821153Y-140833718D01*
X150799529Y-140843946D01*
X150777007Y-140852004D01*
X150753803Y-140857816D01*
X150730142Y-140861326D01*
X150706250Y-140862500D01*
X149793750Y-140862500D01*
X149769858Y-140861326D01*
X149746197Y-140857816D01*
X149722993Y-140852004D01*
X149700471Y-140843946D01*
X149678847Y-140833718D01*
X149658330Y-140821421D01*
X149639117Y-140807171D01*
X149621393Y-140791107D01*
X149605329Y-140773383D01*
X149591079Y-140754170D01*
X149578782Y-140733653D01*
X149568554Y-140712029D01*
X149560496Y-140689507D01*
X149554684Y-140666303D01*
X149551174Y-140642642D01*
X149550000Y-140618750D01*
X149550000Y-140131250D01*
X149551174Y-140107358D01*
X149554684Y-140083697D01*
X149560496Y-140060493D01*
X149568554Y-140037971D01*
X149578782Y-140016347D01*
X149591079Y-139995830D01*
X149605329Y-139976617D01*
X149621393Y-139958893D01*
X149639117Y-139942829D01*
X149658330Y-139928579D01*
X149678847Y-139916282D01*
X149700471Y-139906054D01*
X149722993Y-139897996D01*
X149746197Y-139892184D01*
X149769858Y-139888674D01*
X149793750Y-139887500D01*
X150706250Y-139887500D01*
X150730142Y-139888674D01*
G37*
G36*
X165867642Y-89701174D02*
G01*
X165891303Y-89704684D01*
X165914507Y-89710496D01*
X165937029Y-89718554D01*
X165958653Y-89728782D01*
X165979170Y-89741079D01*
X165998383Y-89755329D01*
X166016107Y-89771393D01*
X166032171Y-89789117D01*
X166046421Y-89808330D01*
X166058718Y-89828847D01*
X166068946Y-89850471D01*
X166077004Y-89872993D01*
X166082816Y-89896197D01*
X166086326Y-89919858D01*
X166087500Y-89943750D01*
X166087500Y-90856250D01*
X166086326Y-90880142D01*
X166082816Y-90903803D01*
X166077004Y-90927007D01*
X166068946Y-90949529D01*
X166058718Y-90971153D01*
X166046421Y-90991670D01*
X166032171Y-91010883D01*
X166016107Y-91028607D01*
X165998383Y-91044671D01*
X165979170Y-91058921D01*
X165958653Y-91071218D01*
X165937029Y-91081446D01*
X165914507Y-91089504D01*
X165891303Y-91095316D01*
X165867642Y-91098826D01*
X165843750Y-91100000D01*
X165356250Y-91100000D01*
X165332358Y-91098826D01*
X165308697Y-91095316D01*
X165285493Y-91089504D01*
X165262971Y-91081446D01*
X165241347Y-91071218D01*
X165220830Y-91058921D01*
X165201617Y-91044671D01*
X165183893Y-91028607D01*
X165167829Y-91010883D01*
X165153579Y-90991670D01*
X165141282Y-90971153D01*
X165131054Y-90949529D01*
X165122996Y-90927007D01*
X165117184Y-90903803D01*
X165113674Y-90880142D01*
X165112500Y-90856250D01*
X165112500Y-89943750D01*
X165113674Y-89919858D01*
X165117184Y-89896197D01*
X165122996Y-89872993D01*
X165131054Y-89850471D01*
X165141282Y-89828847D01*
X165153579Y-89808330D01*
X165167829Y-89789117D01*
X165183893Y-89771393D01*
X165201617Y-89755329D01*
X165220830Y-89741079D01*
X165241347Y-89728782D01*
X165262971Y-89718554D01*
X165285493Y-89710496D01*
X165308697Y-89704684D01*
X165332358Y-89701174D01*
X165356250Y-89700000D01*
X165843750Y-89700000D01*
X165867642Y-89701174D01*
G37*
G36*
X167742642Y-89701174D02*
G01*
X167766303Y-89704684D01*
X167789507Y-89710496D01*
X167812029Y-89718554D01*
X167833653Y-89728782D01*
X167854170Y-89741079D01*
X167873383Y-89755329D01*
X167891107Y-89771393D01*
X167907171Y-89789117D01*
X167921421Y-89808330D01*
X167933718Y-89828847D01*
X167943946Y-89850471D01*
X167952004Y-89872993D01*
X167957816Y-89896197D01*
X167961326Y-89919858D01*
X167962500Y-89943750D01*
X167962500Y-90856250D01*
X167961326Y-90880142D01*
X167957816Y-90903803D01*
X167952004Y-90927007D01*
X167943946Y-90949529D01*
X167933718Y-90971153D01*
X167921421Y-90991670D01*
X167907171Y-91010883D01*
X167891107Y-91028607D01*
X167873383Y-91044671D01*
X167854170Y-91058921D01*
X167833653Y-91071218D01*
X167812029Y-91081446D01*
X167789507Y-91089504D01*
X167766303Y-91095316D01*
X167742642Y-91098826D01*
X167718750Y-91100000D01*
X167231250Y-91100000D01*
X167207358Y-91098826D01*
X167183697Y-91095316D01*
X167160493Y-91089504D01*
X167137971Y-91081446D01*
X167116347Y-91071218D01*
X167095830Y-91058921D01*
X167076617Y-91044671D01*
X167058893Y-91028607D01*
X167042829Y-91010883D01*
X167028579Y-90991670D01*
X167016282Y-90971153D01*
X167006054Y-90949529D01*
X166997996Y-90927007D01*
X166992184Y-90903803D01*
X166988674Y-90880142D01*
X166987500Y-90856250D01*
X166987500Y-89943750D01*
X166988674Y-89919858D01*
X166992184Y-89896197D01*
X166997996Y-89872993D01*
X167006054Y-89850471D01*
X167016282Y-89828847D01*
X167028579Y-89808330D01*
X167042829Y-89789117D01*
X167058893Y-89771393D01*
X167076617Y-89755329D01*
X167095830Y-89741079D01*
X167116347Y-89728782D01*
X167137971Y-89718554D01*
X167160493Y-89710496D01*
X167183697Y-89704684D01*
X167207358Y-89701174D01*
X167231250Y-89700000D01*
X167718750Y-89700000D01*
X167742642Y-89701174D01*
G37*
G36*
X107824504Y-54701204D02*
G01*
X107848773Y-54704804D01*
X107872571Y-54710765D01*
X107895671Y-54719030D01*
X107917849Y-54729520D01*
X107938893Y-54742133D01*
X107958598Y-54756747D01*
X107976777Y-54773223D01*
X107993253Y-54791402D01*
X108007867Y-54811107D01*
X108020480Y-54832151D01*
X108030970Y-54854329D01*
X108039235Y-54877429D01*
X108045196Y-54901227D01*
X108048796Y-54925496D01*
X108050000Y-54950000D01*
X108050000Y-56050000D01*
X108048796Y-56074504D01*
X108045196Y-56098773D01*
X108039235Y-56122571D01*
X108030970Y-56145671D01*
X108020480Y-56167849D01*
X108007867Y-56188893D01*
X107993253Y-56208598D01*
X107976777Y-56226777D01*
X107958598Y-56243253D01*
X107938893Y-56257867D01*
X107917849Y-56270480D01*
X107895671Y-56280970D01*
X107872571Y-56289235D01*
X107848773Y-56295196D01*
X107824504Y-56298796D01*
X107800000Y-56300000D01*
X104800000Y-56300000D01*
X104775496Y-56298796D01*
X104751227Y-56295196D01*
X104727429Y-56289235D01*
X104704329Y-56280970D01*
X104682151Y-56270480D01*
X104661107Y-56257867D01*
X104641402Y-56243253D01*
X104623223Y-56226777D01*
X104606747Y-56208598D01*
X104592133Y-56188893D01*
X104579520Y-56167849D01*
X104569030Y-56145671D01*
X104560765Y-56122571D01*
X104554804Y-56098773D01*
X104551204Y-56074504D01*
X104550000Y-56050000D01*
X104550000Y-54950000D01*
X104551204Y-54925496D01*
X104554804Y-54901227D01*
X104560765Y-54877429D01*
X104569030Y-54854329D01*
X104579520Y-54832151D01*
X104592133Y-54811107D01*
X104606747Y-54791402D01*
X104623223Y-54773223D01*
X104641402Y-54756747D01*
X104661107Y-54742133D01*
X104682151Y-54729520D01*
X104704329Y-54719030D01*
X104727429Y-54710765D01*
X104751227Y-54704804D01*
X104775496Y-54701204D01*
X104800000Y-54700000D01*
X107800000Y-54700000D01*
X107824504Y-54701204D01*
G37*
G36*
X102224504Y-54701204D02*
G01*
X102248773Y-54704804D01*
X102272571Y-54710765D01*
X102295671Y-54719030D01*
X102317849Y-54729520D01*
X102338893Y-54742133D01*
X102358598Y-54756747D01*
X102376777Y-54773223D01*
X102393253Y-54791402D01*
X102407867Y-54811107D01*
X102420480Y-54832151D01*
X102430970Y-54854329D01*
X102439235Y-54877429D01*
X102445196Y-54901227D01*
X102448796Y-54925496D01*
X102450000Y-54950000D01*
X102450000Y-56050000D01*
X102448796Y-56074504D01*
X102445196Y-56098773D01*
X102439235Y-56122571D01*
X102430970Y-56145671D01*
X102420480Y-56167849D01*
X102407867Y-56188893D01*
X102393253Y-56208598D01*
X102376777Y-56226777D01*
X102358598Y-56243253D01*
X102338893Y-56257867D01*
X102317849Y-56270480D01*
X102295671Y-56280970D01*
X102272571Y-56289235D01*
X102248773Y-56295196D01*
X102224504Y-56298796D01*
X102200000Y-56300000D01*
X99200000Y-56300000D01*
X99175496Y-56298796D01*
X99151227Y-56295196D01*
X99127429Y-56289235D01*
X99104329Y-56280970D01*
X99082151Y-56270480D01*
X99061107Y-56257867D01*
X99041402Y-56243253D01*
X99023223Y-56226777D01*
X99006747Y-56208598D01*
X98992133Y-56188893D01*
X98979520Y-56167849D01*
X98969030Y-56145671D01*
X98960765Y-56122571D01*
X98954804Y-56098773D01*
X98951204Y-56074504D01*
X98950000Y-56050000D01*
X98950000Y-54950000D01*
X98951204Y-54925496D01*
X98954804Y-54901227D01*
X98960765Y-54877429D01*
X98969030Y-54854329D01*
X98979520Y-54832151D01*
X98992133Y-54811107D01*
X99006747Y-54791402D01*
X99023223Y-54773223D01*
X99041402Y-54756747D01*
X99061107Y-54742133D01*
X99082151Y-54729520D01*
X99104329Y-54719030D01*
X99127429Y-54710765D01*
X99151227Y-54704804D01*
X99175496Y-54701204D01*
X99200000Y-54700000D01*
X102200000Y-54700000D01*
X102224504Y-54701204D01*
G37*
G36*
X120224504Y-116501204D02*
G01*
X120248773Y-116504804D01*
X120272571Y-116510765D01*
X120295671Y-116519030D01*
X120317849Y-116529520D01*
X120338893Y-116542133D01*
X120358598Y-116556747D01*
X120376777Y-116573223D01*
X120393253Y-116591402D01*
X120407867Y-116611107D01*
X120420480Y-116632151D01*
X120430970Y-116654329D01*
X120439235Y-116677429D01*
X120445196Y-116701227D01*
X120448796Y-116725496D01*
X120450000Y-116750000D01*
X120450000Y-117850000D01*
X120448796Y-117874504D01*
X120445196Y-117898773D01*
X120439235Y-117922571D01*
X120430970Y-117945671D01*
X120420480Y-117967849D01*
X120407867Y-117988893D01*
X120393253Y-118008598D01*
X120376777Y-118026777D01*
X120358598Y-118043253D01*
X120338893Y-118057867D01*
X120317849Y-118070480D01*
X120295671Y-118080970D01*
X120272571Y-118089235D01*
X120248773Y-118095196D01*
X120224504Y-118098796D01*
X120200000Y-118100000D01*
X117200000Y-118100000D01*
X117175496Y-118098796D01*
X117151227Y-118095196D01*
X117127429Y-118089235D01*
X117104329Y-118080970D01*
X117082151Y-118070480D01*
X117061107Y-118057867D01*
X117041402Y-118043253D01*
X117023223Y-118026777D01*
X117006747Y-118008598D01*
X116992133Y-117988893D01*
X116979520Y-117967849D01*
X116969030Y-117945671D01*
X116960765Y-117922571D01*
X116954804Y-117898773D01*
X116951204Y-117874504D01*
X116950000Y-117850000D01*
X116950000Y-116750000D01*
X116951204Y-116725496D01*
X116954804Y-116701227D01*
X116960765Y-116677429D01*
X116969030Y-116654329D01*
X116979520Y-116632151D01*
X116992133Y-116611107D01*
X117006747Y-116591402D01*
X117023223Y-116573223D01*
X117041402Y-116556747D01*
X117061107Y-116542133D01*
X117082151Y-116529520D01*
X117104329Y-116519030D01*
X117127429Y-116510765D01*
X117151227Y-116504804D01*
X117175496Y-116501204D01*
X117200000Y-116500000D01*
X120200000Y-116500000D01*
X120224504Y-116501204D01*
G37*
G36*
X114624504Y-116501204D02*
G01*
X114648773Y-116504804D01*
X114672571Y-116510765D01*
X114695671Y-116519030D01*
X114717849Y-116529520D01*
X114738893Y-116542133D01*
X114758598Y-116556747D01*
X114776777Y-116573223D01*
X114793253Y-116591402D01*
X114807867Y-116611107D01*
X114820480Y-116632151D01*
X114830970Y-116654329D01*
X114839235Y-116677429D01*
X114845196Y-116701227D01*
X114848796Y-116725496D01*
X114850000Y-116750000D01*
X114850000Y-117850000D01*
X114848796Y-117874504D01*
X114845196Y-117898773D01*
X114839235Y-117922571D01*
X114830970Y-117945671D01*
X114820480Y-117967849D01*
X114807867Y-117988893D01*
X114793253Y-118008598D01*
X114776777Y-118026777D01*
X114758598Y-118043253D01*
X114738893Y-118057867D01*
X114717849Y-118070480D01*
X114695671Y-118080970D01*
X114672571Y-118089235D01*
X114648773Y-118095196D01*
X114624504Y-118098796D01*
X114600000Y-118100000D01*
X111600000Y-118100000D01*
X111575496Y-118098796D01*
X111551227Y-118095196D01*
X111527429Y-118089235D01*
X111504329Y-118080970D01*
X111482151Y-118070480D01*
X111461107Y-118057867D01*
X111441402Y-118043253D01*
X111423223Y-118026777D01*
X111406747Y-118008598D01*
X111392133Y-117988893D01*
X111379520Y-117967849D01*
X111369030Y-117945671D01*
X111360765Y-117922571D01*
X111354804Y-117898773D01*
X111351204Y-117874504D01*
X111350000Y-117850000D01*
X111350000Y-116750000D01*
X111351204Y-116725496D01*
X111354804Y-116701227D01*
X111360765Y-116677429D01*
X111369030Y-116654329D01*
X111379520Y-116632151D01*
X111392133Y-116611107D01*
X111406747Y-116591402D01*
X111423223Y-116573223D01*
X111441402Y-116556747D01*
X111461107Y-116542133D01*
X111482151Y-116529520D01*
X111504329Y-116519030D01*
X111527429Y-116510765D01*
X111551227Y-116504804D01*
X111575496Y-116501204D01*
X111600000Y-116500000D01*
X114600000Y-116500000D01*
X114624504Y-116501204D01*
G37*
G36*
X144824504Y-134701204D02*
G01*
X144848773Y-134704804D01*
X144872571Y-134710765D01*
X144895671Y-134719030D01*
X144917849Y-134729520D01*
X144938893Y-134742133D01*
X144958598Y-134756747D01*
X144976777Y-134773223D01*
X144993253Y-134791402D01*
X145007867Y-134811107D01*
X145020480Y-134832151D01*
X145030970Y-134854329D01*
X145039235Y-134877429D01*
X145045196Y-134901227D01*
X145048796Y-134925496D01*
X145050000Y-134950000D01*
X145050000Y-137950000D01*
X145048796Y-137974504D01*
X145045196Y-137998773D01*
X145039235Y-138022571D01*
X145030970Y-138045671D01*
X145020480Y-138067849D01*
X145007867Y-138088893D01*
X144993253Y-138108598D01*
X144976777Y-138126777D01*
X144958598Y-138143253D01*
X144938893Y-138157867D01*
X144917849Y-138170480D01*
X144895671Y-138180970D01*
X144872571Y-138189235D01*
X144848773Y-138195196D01*
X144824504Y-138198796D01*
X144800000Y-138200000D01*
X143700000Y-138200000D01*
X143675496Y-138198796D01*
X143651227Y-138195196D01*
X143627429Y-138189235D01*
X143604329Y-138180970D01*
X143582151Y-138170480D01*
X143561107Y-138157867D01*
X143541402Y-138143253D01*
X143523223Y-138126777D01*
X143506747Y-138108598D01*
X143492133Y-138088893D01*
X143479520Y-138067849D01*
X143469030Y-138045671D01*
X143460765Y-138022571D01*
X143454804Y-137998773D01*
X143451204Y-137974504D01*
X143450000Y-137950000D01*
X143450000Y-134950000D01*
X143451204Y-134925496D01*
X143454804Y-134901227D01*
X143460765Y-134877429D01*
X143469030Y-134854329D01*
X143479520Y-134832151D01*
X143492133Y-134811107D01*
X143506747Y-134791402D01*
X143523223Y-134773223D01*
X143541402Y-134756747D01*
X143561107Y-134742133D01*
X143582151Y-134729520D01*
X143604329Y-134719030D01*
X143627429Y-134710765D01*
X143651227Y-134704804D01*
X143675496Y-134701204D01*
X143700000Y-134700000D01*
X144800000Y-134700000D01*
X144824504Y-134701204D01*
G37*
G36*
X144824504Y-140301204D02*
G01*
X144848773Y-140304804D01*
X144872571Y-140310765D01*
X144895671Y-140319030D01*
X144917849Y-140329520D01*
X144938893Y-140342133D01*
X144958598Y-140356747D01*
X144976777Y-140373223D01*
X144993253Y-140391402D01*
X145007867Y-140411107D01*
X145020480Y-140432151D01*
X145030970Y-140454329D01*
X145039235Y-140477429D01*
X145045196Y-140501227D01*
X145048796Y-140525496D01*
X145050000Y-140550000D01*
X145050000Y-143550000D01*
X145048796Y-143574504D01*
X145045196Y-143598773D01*
X145039235Y-143622571D01*
X145030970Y-143645671D01*
X145020480Y-143667849D01*
X145007867Y-143688893D01*
X144993253Y-143708598D01*
X144976777Y-143726777D01*
X144958598Y-143743253D01*
X144938893Y-143757867D01*
X144917849Y-143770480D01*
X144895671Y-143780970D01*
X144872571Y-143789235D01*
X144848773Y-143795196D01*
X144824504Y-143798796D01*
X144800000Y-143800000D01*
X143700000Y-143800000D01*
X143675496Y-143798796D01*
X143651227Y-143795196D01*
X143627429Y-143789235D01*
X143604329Y-143780970D01*
X143582151Y-143770480D01*
X143561107Y-143757867D01*
X143541402Y-143743253D01*
X143523223Y-143726777D01*
X143506747Y-143708598D01*
X143492133Y-143688893D01*
X143479520Y-143667849D01*
X143469030Y-143645671D01*
X143460765Y-143622571D01*
X143454804Y-143598773D01*
X143451204Y-143574504D01*
X143450000Y-143550000D01*
X143450000Y-140550000D01*
X143451204Y-140525496D01*
X143454804Y-140501227D01*
X143460765Y-140477429D01*
X143469030Y-140454329D01*
X143479520Y-140432151D01*
X143492133Y-140411107D01*
X143506747Y-140391402D01*
X143523223Y-140373223D01*
X143541402Y-140356747D01*
X143561107Y-140342133D01*
X143582151Y-140329520D01*
X143604329Y-140319030D01*
X143627429Y-140310765D01*
X143651227Y-140304804D01*
X143675496Y-140301204D01*
X143700000Y-140300000D01*
X144800000Y-140300000D01*
X144824504Y-140301204D01*
G37*
G36*
X169324504Y-95701204D02*
G01*
X169348773Y-95704804D01*
X169372571Y-95710765D01*
X169395671Y-95719030D01*
X169417849Y-95729520D01*
X169438893Y-95742133D01*
X169458598Y-95756747D01*
X169476777Y-95773223D01*
X169493253Y-95791402D01*
X169507867Y-95811107D01*
X169520480Y-95832151D01*
X169530970Y-95854329D01*
X169539235Y-95877429D01*
X169545196Y-95901227D01*
X169548796Y-95925496D01*
X169550000Y-95950000D01*
X169550000Y-97050000D01*
X169548796Y-97074504D01*
X169545196Y-97098773D01*
X169539235Y-97122571D01*
X169530970Y-97145671D01*
X169520480Y-97167849D01*
X169507867Y-97188893D01*
X169493253Y-97208598D01*
X169476777Y-97226777D01*
X169458598Y-97243253D01*
X169438893Y-97257867D01*
X169417849Y-97270480D01*
X169395671Y-97280970D01*
X169372571Y-97289235D01*
X169348773Y-97295196D01*
X169324504Y-97298796D01*
X169300000Y-97300000D01*
X166300000Y-97300000D01*
X166275496Y-97298796D01*
X166251227Y-97295196D01*
X166227429Y-97289235D01*
X166204329Y-97280970D01*
X166182151Y-97270480D01*
X166161107Y-97257867D01*
X166141402Y-97243253D01*
X166123223Y-97226777D01*
X166106747Y-97208598D01*
X166092133Y-97188893D01*
X166079520Y-97167849D01*
X166069030Y-97145671D01*
X166060765Y-97122571D01*
X166054804Y-97098773D01*
X166051204Y-97074504D01*
X166050000Y-97050000D01*
X166050000Y-95950000D01*
X166051204Y-95925496D01*
X166054804Y-95901227D01*
X166060765Y-95877429D01*
X166069030Y-95854329D01*
X166079520Y-95832151D01*
X166092133Y-95811107D01*
X166106747Y-95791402D01*
X166123223Y-95773223D01*
X166141402Y-95756747D01*
X166161107Y-95742133D01*
X166182151Y-95729520D01*
X166204329Y-95719030D01*
X166227429Y-95710765D01*
X166251227Y-95704804D01*
X166275496Y-95701204D01*
X166300000Y-95700000D01*
X169300000Y-95700000D01*
X169324504Y-95701204D01*
G37*
G36*
X163724504Y-95701204D02*
G01*
X163748773Y-95704804D01*
X163772571Y-95710765D01*
X163795671Y-95719030D01*
X163817849Y-95729520D01*
X163838893Y-95742133D01*
X163858598Y-95756747D01*
X163876777Y-95773223D01*
X163893253Y-95791402D01*
X163907867Y-95811107D01*
X163920480Y-95832151D01*
X163930970Y-95854329D01*
X163939235Y-95877429D01*
X163945196Y-95901227D01*
X163948796Y-95925496D01*
X163950000Y-95950000D01*
X163950000Y-97050000D01*
X163948796Y-97074504D01*
X163945196Y-97098773D01*
X163939235Y-97122571D01*
X163930970Y-97145671D01*
X163920480Y-97167849D01*
X163907867Y-97188893D01*
X163893253Y-97208598D01*
X163876777Y-97226777D01*
X163858598Y-97243253D01*
X163838893Y-97257867D01*
X163817849Y-97270480D01*
X163795671Y-97280970D01*
X163772571Y-97289235D01*
X163748773Y-97295196D01*
X163724504Y-97298796D01*
X163700000Y-97300000D01*
X160700000Y-97300000D01*
X160675496Y-97298796D01*
X160651227Y-97295196D01*
X160627429Y-97289235D01*
X160604329Y-97280970D01*
X160582151Y-97270480D01*
X160561107Y-97257867D01*
X160541402Y-97243253D01*
X160523223Y-97226777D01*
X160506747Y-97208598D01*
X160492133Y-97188893D01*
X160479520Y-97167849D01*
X160469030Y-97145671D01*
X160460765Y-97122571D01*
X160454804Y-97098773D01*
X160451204Y-97074504D01*
X160450000Y-97050000D01*
X160450000Y-95950000D01*
X160451204Y-95925496D01*
X160454804Y-95901227D01*
X160460765Y-95877429D01*
X160469030Y-95854329D01*
X160479520Y-95832151D01*
X160492133Y-95811107D01*
X160506747Y-95791402D01*
X160523223Y-95773223D01*
X160541402Y-95756747D01*
X160561107Y-95742133D01*
X160582151Y-95729520D01*
X160604329Y-95719030D01*
X160627429Y-95710765D01*
X160651227Y-95704804D01*
X160675496Y-95701204D01*
X160700000Y-95700000D01*
X163700000Y-95700000D01*
X163724504Y-95701204D01*
G37*
G36*
X121117642Y-69001174D02*
G01*
X121141303Y-69004684D01*
X121164507Y-69010496D01*
X121187029Y-69018554D01*
X121208653Y-69028782D01*
X121229170Y-69041079D01*
X121248383Y-69055329D01*
X121266107Y-69071393D01*
X121282171Y-69089117D01*
X121296421Y-69108330D01*
X121308718Y-69128847D01*
X121318946Y-69150471D01*
X121327004Y-69172993D01*
X121332816Y-69196197D01*
X121336326Y-69219858D01*
X121337500Y-69243750D01*
X121337500Y-70156250D01*
X121336326Y-70180142D01*
X121332816Y-70203803D01*
X121327004Y-70227007D01*
X121318946Y-70249529D01*
X121308718Y-70271153D01*
X121296421Y-70291670D01*
X121282171Y-70310883D01*
X121266107Y-70328607D01*
X121248383Y-70344671D01*
X121229170Y-70358921D01*
X121208653Y-70371218D01*
X121187029Y-70381446D01*
X121164507Y-70389504D01*
X121141303Y-70395316D01*
X121117642Y-70398826D01*
X121093750Y-70400000D01*
X120606250Y-70400000D01*
X120582358Y-70398826D01*
X120558697Y-70395316D01*
X120535493Y-70389504D01*
X120512971Y-70381446D01*
X120491347Y-70371218D01*
X120470830Y-70358921D01*
X120451617Y-70344671D01*
X120433893Y-70328607D01*
X120417829Y-70310883D01*
X120403579Y-70291670D01*
X120391282Y-70271153D01*
X120381054Y-70249529D01*
X120372996Y-70227007D01*
X120367184Y-70203803D01*
X120363674Y-70180142D01*
X120362500Y-70156250D01*
X120362500Y-69243750D01*
X120363674Y-69219858D01*
X120367184Y-69196197D01*
X120372996Y-69172993D01*
X120381054Y-69150471D01*
X120391282Y-69128847D01*
X120403579Y-69108330D01*
X120417829Y-69089117D01*
X120433893Y-69071393D01*
X120451617Y-69055329D01*
X120470830Y-69041079D01*
X120491347Y-69028782D01*
X120512971Y-69018554D01*
X120535493Y-69010496D01*
X120558697Y-69004684D01*
X120582358Y-69001174D01*
X120606250Y-69000000D01*
X121093750Y-69000000D01*
X121117642Y-69001174D01*
G37*
G36*
X122992642Y-69001174D02*
G01*
X123016303Y-69004684D01*
X123039507Y-69010496D01*
X123062029Y-69018554D01*
X123083653Y-69028782D01*
X123104170Y-69041079D01*
X123123383Y-69055329D01*
X123141107Y-69071393D01*
X123157171Y-69089117D01*
X123171421Y-69108330D01*
X123183718Y-69128847D01*
X123193946Y-69150471D01*
X123202004Y-69172993D01*
X123207816Y-69196197D01*
X123211326Y-69219858D01*
X123212500Y-69243750D01*
X123212500Y-70156250D01*
X123211326Y-70180142D01*
X123207816Y-70203803D01*
X123202004Y-70227007D01*
X123193946Y-70249529D01*
X123183718Y-70271153D01*
X123171421Y-70291670D01*
X123157171Y-70310883D01*
X123141107Y-70328607D01*
X123123383Y-70344671D01*
X123104170Y-70358921D01*
X123083653Y-70371218D01*
X123062029Y-70381446D01*
X123039507Y-70389504D01*
X123016303Y-70395316D01*
X122992642Y-70398826D01*
X122968750Y-70400000D01*
X122481250Y-70400000D01*
X122457358Y-70398826D01*
X122433697Y-70395316D01*
X122410493Y-70389504D01*
X122387971Y-70381446D01*
X122366347Y-70371218D01*
X122345830Y-70358921D01*
X122326617Y-70344671D01*
X122308893Y-70328607D01*
X122292829Y-70310883D01*
X122278579Y-70291670D01*
X122266282Y-70271153D01*
X122256054Y-70249529D01*
X122247996Y-70227007D01*
X122242184Y-70203803D01*
X122238674Y-70180142D01*
X122237500Y-70156250D01*
X122237500Y-69243750D01*
X122238674Y-69219858D01*
X122242184Y-69196197D01*
X122247996Y-69172993D01*
X122256054Y-69150471D01*
X122266282Y-69128847D01*
X122278579Y-69108330D01*
X122292829Y-69089117D01*
X122308893Y-69071393D01*
X122326617Y-69055329D01*
X122345830Y-69041079D01*
X122366347Y-69028782D01*
X122387971Y-69018554D01*
X122410493Y-69010496D01*
X122433697Y-69004684D01*
X122457358Y-69001174D01*
X122481250Y-69000000D01*
X122968750Y-69000000D01*
X122992642Y-69001174D01*
G37*
G36*
X165330142Y-128801174D02*
G01*
X165353803Y-128804684D01*
X165377007Y-128810496D01*
X165399529Y-128818554D01*
X165421153Y-128828782D01*
X165441670Y-128841079D01*
X165460883Y-128855329D01*
X165478607Y-128871393D01*
X165494671Y-128889117D01*
X165508921Y-128908330D01*
X165521218Y-128928847D01*
X165531446Y-128950471D01*
X165539504Y-128972993D01*
X165545316Y-128996197D01*
X165548826Y-129019858D01*
X165550000Y-129043750D01*
X165550000Y-129956250D01*
X165548826Y-129980142D01*
X165545316Y-130003803D01*
X165539504Y-130027007D01*
X165531446Y-130049529D01*
X165521218Y-130071153D01*
X165508921Y-130091670D01*
X165494671Y-130110883D01*
X165478607Y-130128607D01*
X165460883Y-130144671D01*
X165441670Y-130158921D01*
X165421153Y-130171218D01*
X165399529Y-130181446D01*
X165377007Y-130189504D01*
X165353803Y-130195316D01*
X165330142Y-130198826D01*
X165306250Y-130200000D01*
X164818750Y-130200000D01*
X164794858Y-130198826D01*
X164771197Y-130195316D01*
X164747993Y-130189504D01*
X164725471Y-130181446D01*
X164703847Y-130171218D01*
X164683330Y-130158921D01*
X164664117Y-130144671D01*
X164646393Y-130128607D01*
X164630329Y-130110883D01*
X164616079Y-130091670D01*
X164603782Y-130071153D01*
X164593554Y-130049529D01*
X164585496Y-130027007D01*
X164579684Y-130003803D01*
X164576174Y-129980142D01*
X164575000Y-129956250D01*
X164575000Y-129043750D01*
X164576174Y-129019858D01*
X164579684Y-128996197D01*
X164585496Y-128972993D01*
X164593554Y-128950471D01*
X164603782Y-128928847D01*
X164616079Y-128908330D01*
X164630329Y-128889117D01*
X164646393Y-128871393D01*
X164664117Y-128855329D01*
X164683330Y-128841079D01*
X164703847Y-128828782D01*
X164725471Y-128818554D01*
X164747993Y-128810496D01*
X164771197Y-128804684D01*
X164794858Y-128801174D01*
X164818750Y-128800000D01*
X165306250Y-128800000D01*
X165330142Y-128801174D01*
G37*
G36*
X167205142Y-128801174D02*
G01*
X167228803Y-128804684D01*
X167252007Y-128810496D01*
X167274529Y-128818554D01*
X167296153Y-128828782D01*
X167316670Y-128841079D01*
X167335883Y-128855329D01*
X167353607Y-128871393D01*
X167369671Y-128889117D01*
X167383921Y-128908330D01*
X167396218Y-128928847D01*
X167406446Y-128950471D01*
X167414504Y-128972993D01*
X167420316Y-128996197D01*
X167423826Y-129019858D01*
X167425000Y-129043750D01*
X167425000Y-129956250D01*
X167423826Y-129980142D01*
X167420316Y-130003803D01*
X167414504Y-130027007D01*
X167406446Y-130049529D01*
X167396218Y-130071153D01*
X167383921Y-130091670D01*
X167369671Y-130110883D01*
X167353607Y-130128607D01*
X167335883Y-130144671D01*
X167316670Y-130158921D01*
X167296153Y-130171218D01*
X167274529Y-130181446D01*
X167252007Y-130189504D01*
X167228803Y-130195316D01*
X167205142Y-130198826D01*
X167181250Y-130200000D01*
X166693750Y-130200000D01*
X166669858Y-130198826D01*
X166646197Y-130195316D01*
X166622993Y-130189504D01*
X166600471Y-130181446D01*
X166578847Y-130171218D01*
X166558330Y-130158921D01*
X166539117Y-130144671D01*
X166521393Y-130128607D01*
X166505329Y-130110883D01*
X166491079Y-130091670D01*
X166478782Y-130071153D01*
X166468554Y-130049529D01*
X166460496Y-130027007D01*
X166454684Y-130003803D01*
X166451174Y-129980142D01*
X166450000Y-129956250D01*
X166450000Y-129043750D01*
X166451174Y-129019858D01*
X166454684Y-128996197D01*
X166460496Y-128972993D01*
X166468554Y-128950471D01*
X166478782Y-128928847D01*
X166491079Y-128908330D01*
X166505329Y-128889117D01*
X166521393Y-128871393D01*
X166539117Y-128855329D01*
X166558330Y-128841079D01*
X166578847Y-128828782D01*
X166600471Y-128818554D01*
X166622993Y-128810496D01*
X166646197Y-128804684D01*
X166669858Y-128801174D01*
X166693750Y-128800000D01*
X167181250Y-128800000D01*
X167205142Y-128801174D01*
G37*
G36*
X122055142Y-103451174D02*
G01*
X122078803Y-103454684D01*
X122102007Y-103460496D01*
X122124529Y-103468554D01*
X122146153Y-103478782D01*
X122166670Y-103491079D01*
X122185883Y-103505329D01*
X122203607Y-103521393D01*
X122219671Y-103539117D01*
X122233921Y-103558330D01*
X122246218Y-103578847D01*
X122256446Y-103600471D01*
X122264504Y-103622993D01*
X122270316Y-103646197D01*
X122273826Y-103669858D01*
X122275000Y-103693750D01*
X122275000Y-104606250D01*
X122273826Y-104630142D01*
X122270316Y-104653803D01*
X122264504Y-104677007D01*
X122256446Y-104699529D01*
X122246218Y-104721153D01*
X122233921Y-104741670D01*
X122219671Y-104760883D01*
X122203607Y-104778607D01*
X122185883Y-104794671D01*
X122166670Y-104808921D01*
X122146153Y-104821218D01*
X122124529Y-104831446D01*
X122102007Y-104839504D01*
X122078803Y-104845316D01*
X122055142Y-104848826D01*
X122031250Y-104850000D01*
X121543750Y-104850000D01*
X121519858Y-104848826D01*
X121496197Y-104845316D01*
X121472993Y-104839504D01*
X121450471Y-104831446D01*
X121428847Y-104821218D01*
X121408330Y-104808921D01*
X121389117Y-104794671D01*
X121371393Y-104778607D01*
X121355329Y-104760883D01*
X121341079Y-104741670D01*
X121328782Y-104721153D01*
X121318554Y-104699529D01*
X121310496Y-104677007D01*
X121304684Y-104653803D01*
X121301174Y-104630142D01*
X121300000Y-104606250D01*
X121300000Y-103693750D01*
X121301174Y-103669858D01*
X121304684Y-103646197D01*
X121310496Y-103622993D01*
X121318554Y-103600471D01*
X121328782Y-103578847D01*
X121341079Y-103558330D01*
X121355329Y-103539117D01*
X121371393Y-103521393D01*
X121389117Y-103505329D01*
X121408330Y-103491079D01*
X121428847Y-103478782D01*
X121450471Y-103468554D01*
X121472993Y-103460496D01*
X121496197Y-103454684D01*
X121519858Y-103451174D01*
X121543750Y-103450000D01*
X122031250Y-103450000D01*
X122055142Y-103451174D01*
G37*
G36*
X120180142Y-103451174D02*
G01*
X120203803Y-103454684D01*
X120227007Y-103460496D01*
X120249529Y-103468554D01*
X120271153Y-103478782D01*
X120291670Y-103491079D01*
X120310883Y-103505329D01*
X120328607Y-103521393D01*
X120344671Y-103539117D01*
X120358921Y-103558330D01*
X120371218Y-103578847D01*
X120381446Y-103600471D01*
X120389504Y-103622993D01*
X120395316Y-103646197D01*
X120398826Y-103669858D01*
X120400000Y-103693750D01*
X120400000Y-104606250D01*
X120398826Y-104630142D01*
X120395316Y-104653803D01*
X120389504Y-104677007D01*
X120381446Y-104699529D01*
X120371218Y-104721153D01*
X120358921Y-104741670D01*
X120344671Y-104760883D01*
X120328607Y-104778607D01*
X120310883Y-104794671D01*
X120291670Y-104808921D01*
X120271153Y-104821218D01*
X120249529Y-104831446D01*
X120227007Y-104839504D01*
X120203803Y-104845316D01*
X120180142Y-104848826D01*
X120156250Y-104850000D01*
X119668750Y-104850000D01*
X119644858Y-104848826D01*
X119621197Y-104845316D01*
X119597993Y-104839504D01*
X119575471Y-104831446D01*
X119553847Y-104821218D01*
X119533330Y-104808921D01*
X119514117Y-104794671D01*
X119496393Y-104778607D01*
X119480329Y-104760883D01*
X119466079Y-104741670D01*
X119453782Y-104721153D01*
X119443554Y-104699529D01*
X119435496Y-104677007D01*
X119429684Y-104653803D01*
X119426174Y-104630142D01*
X119425000Y-104606250D01*
X119425000Y-103693750D01*
X119426174Y-103669858D01*
X119429684Y-103646197D01*
X119435496Y-103622993D01*
X119443554Y-103600471D01*
X119453782Y-103578847D01*
X119466079Y-103558330D01*
X119480329Y-103539117D01*
X119496393Y-103521393D01*
X119514117Y-103505329D01*
X119533330Y-103491079D01*
X119553847Y-103478782D01*
X119575471Y-103468554D01*
X119597993Y-103460496D01*
X119621197Y-103454684D01*
X119644858Y-103451174D01*
X119668750Y-103450000D01*
X120156250Y-103450000D01*
X120180142Y-103451174D01*
G37*
G36*
X164642642Y-69701174D02*
G01*
X164666303Y-69704684D01*
X164689507Y-69710496D01*
X164712029Y-69718554D01*
X164733653Y-69728782D01*
X164754170Y-69741079D01*
X164773383Y-69755329D01*
X164791107Y-69771393D01*
X164807171Y-69789117D01*
X164821421Y-69808330D01*
X164833718Y-69828847D01*
X164843946Y-69850471D01*
X164852004Y-69872993D01*
X164857816Y-69896197D01*
X164861326Y-69919858D01*
X164862500Y-69943750D01*
X164862500Y-70856250D01*
X164861326Y-70880142D01*
X164857816Y-70903803D01*
X164852004Y-70927007D01*
X164843946Y-70949529D01*
X164833718Y-70971153D01*
X164821421Y-70991670D01*
X164807171Y-71010883D01*
X164791107Y-71028607D01*
X164773383Y-71044671D01*
X164754170Y-71058921D01*
X164733653Y-71071218D01*
X164712029Y-71081446D01*
X164689507Y-71089504D01*
X164666303Y-71095316D01*
X164642642Y-71098826D01*
X164618750Y-71100000D01*
X164131250Y-71100000D01*
X164107358Y-71098826D01*
X164083697Y-71095316D01*
X164060493Y-71089504D01*
X164037971Y-71081446D01*
X164016347Y-71071218D01*
X163995830Y-71058921D01*
X163976617Y-71044671D01*
X163958893Y-71028607D01*
X163942829Y-71010883D01*
X163928579Y-70991670D01*
X163916282Y-70971153D01*
X163906054Y-70949529D01*
X163897996Y-70927007D01*
X163892184Y-70903803D01*
X163888674Y-70880142D01*
X163887500Y-70856250D01*
X163887500Y-69943750D01*
X163888674Y-69919858D01*
X163892184Y-69896197D01*
X163897996Y-69872993D01*
X163906054Y-69850471D01*
X163916282Y-69828847D01*
X163928579Y-69808330D01*
X163942829Y-69789117D01*
X163958893Y-69771393D01*
X163976617Y-69755329D01*
X163995830Y-69741079D01*
X164016347Y-69728782D01*
X164037971Y-69718554D01*
X164060493Y-69710496D01*
X164083697Y-69704684D01*
X164107358Y-69701174D01*
X164131250Y-69700000D01*
X164618750Y-69700000D01*
X164642642Y-69701174D01*
G37*
G36*
X166517642Y-69701174D02*
G01*
X166541303Y-69704684D01*
X166564507Y-69710496D01*
X166587029Y-69718554D01*
X166608653Y-69728782D01*
X166629170Y-69741079D01*
X166648383Y-69755329D01*
X166666107Y-69771393D01*
X166682171Y-69789117D01*
X166696421Y-69808330D01*
X166708718Y-69828847D01*
X166718946Y-69850471D01*
X166727004Y-69872993D01*
X166732816Y-69896197D01*
X166736326Y-69919858D01*
X166737500Y-69943750D01*
X166737500Y-70856250D01*
X166736326Y-70880142D01*
X166732816Y-70903803D01*
X166727004Y-70927007D01*
X166718946Y-70949529D01*
X166708718Y-70971153D01*
X166696421Y-70991670D01*
X166682171Y-71010883D01*
X166666107Y-71028607D01*
X166648383Y-71044671D01*
X166629170Y-71058921D01*
X166608653Y-71071218D01*
X166587029Y-71081446D01*
X166564507Y-71089504D01*
X166541303Y-71095316D01*
X166517642Y-71098826D01*
X166493750Y-71100000D01*
X166006250Y-71100000D01*
X165982358Y-71098826D01*
X165958697Y-71095316D01*
X165935493Y-71089504D01*
X165912971Y-71081446D01*
X165891347Y-71071218D01*
X165870830Y-71058921D01*
X165851617Y-71044671D01*
X165833893Y-71028607D01*
X165817829Y-71010883D01*
X165803579Y-70991670D01*
X165791282Y-70971153D01*
X165781054Y-70949529D01*
X165772996Y-70927007D01*
X165767184Y-70903803D01*
X165763674Y-70880142D01*
X165762500Y-70856250D01*
X165762500Y-69943750D01*
X165763674Y-69919858D01*
X165767184Y-69896197D01*
X165772996Y-69872993D01*
X165781054Y-69850471D01*
X165791282Y-69828847D01*
X165803579Y-69808330D01*
X165817829Y-69789117D01*
X165833893Y-69771393D01*
X165851617Y-69755329D01*
X165870830Y-69741079D01*
X165891347Y-69728782D01*
X165912971Y-69718554D01*
X165935493Y-69710496D01*
X165958697Y-69704684D01*
X165982358Y-69701174D01*
X166006250Y-69700000D01*
X166493750Y-69700000D01*
X166517642Y-69701174D01*
G37*
G36*
X115174504Y-64301204D02*
G01*
X115198773Y-64304804D01*
X115222571Y-64310765D01*
X115245671Y-64319030D01*
X115267849Y-64329520D01*
X115288893Y-64342133D01*
X115308598Y-64356747D01*
X115326777Y-64373223D01*
X115343253Y-64391402D01*
X115357867Y-64411107D01*
X115370480Y-64432151D01*
X115380970Y-64454329D01*
X115389235Y-64477429D01*
X115395196Y-64501227D01*
X115398796Y-64525496D01*
X115400000Y-64550000D01*
X115400000Y-65650000D01*
X115398796Y-65674504D01*
X115395196Y-65698773D01*
X115389235Y-65722571D01*
X115380970Y-65745671D01*
X115370480Y-65767849D01*
X115357867Y-65788893D01*
X115343253Y-65808598D01*
X115326777Y-65826777D01*
X115308598Y-65843253D01*
X115288893Y-65857867D01*
X115267849Y-65870480D01*
X115245671Y-65880970D01*
X115222571Y-65889235D01*
X115198773Y-65895196D01*
X115174504Y-65898796D01*
X115150000Y-65900000D01*
X112150000Y-65900000D01*
X112125496Y-65898796D01*
X112101227Y-65895196D01*
X112077429Y-65889235D01*
X112054329Y-65880970D01*
X112032151Y-65870480D01*
X112011107Y-65857867D01*
X111991402Y-65843253D01*
X111973223Y-65826777D01*
X111956747Y-65808598D01*
X111942133Y-65788893D01*
X111929520Y-65767849D01*
X111919030Y-65745671D01*
X111910765Y-65722571D01*
X111904804Y-65698773D01*
X111901204Y-65674504D01*
X111900000Y-65650000D01*
X111900000Y-64550000D01*
X111901204Y-64525496D01*
X111904804Y-64501227D01*
X111910765Y-64477429D01*
X111919030Y-64454329D01*
X111929520Y-64432151D01*
X111942133Y-64411107D01*
X111956747Y-64391402D01*
X111973223Y-64373223D01*
X111991402Y-64356747D01*
X112011107Y-64342133D01*
X112032151Y-64329520D01*
X112054329Y-64319030D01*
X112077429Y-64310765D01*
X112101227Y-64304804D01*
X112125496Y-64301204D01*
X112150000Y-64300000D01*
X115150000Y-64300000D01*
X115174504Y-64301204D01*
G37*
G36*
X120774504Y-64301204D02*
G01*
X120798773Y-64304804D01*
X120822571Y-64310765D01*
X120845671Y-64319030D01*
X120867849Y-64329520D01*
X120888893Y-64342133D01*
X120908598Y-64356747D01*
X120926777Y-64373223D01*
X120943253Y-64391402D01*
X120957867Y-64411107D01*
X120970480Y-64432151D01*
X120980970Y-64454329D01*
X120989235Y-64477429D01*
X120995196Y-64501227D01*
X120998796Y-64525496D01*
X121000000Y-64550000D01*
X121000000Y-65650000D01*
X120998796Y-65674504D01*
X120995196Y-65698773D01*
X120989235Y-65722571D01*
X120980970Y-65745671D01*
X120970480Y-65767849D01*
X120957867Y-65788893D01*
X120943253Y-65808598D01*
X120926777Y-65826777D01*
X120908598Y-65843253D01*
X120888893Y-65857867D01*
X120867849Y-65870480D01*
X120845671Y-65880970D01*
X120822571Y-65889235D01*
X120798773Y-65895196D01*
X120774504Y-65898796D01*
X120750000Y-65900000D01*
X117750000Y-65900000D01*
X117725496Y-65898796D01*
X117701227Y-65895196D01*
X117677429Y-65889235D01*
X117654329Y-65880970D01*
X117632151Y-65870480D01*
X117611107Y-65857867D01*
X117591402Y-65843253D01*
X117573223Y-65826777D01*
X117556747Y-65808598D01*
X117542133Y-65788893D01*
X117529520Y-65767849D01*
X117519030Y-65745671D01*
X117510765Y-65722571D01*
X117504804Y-65698773D01*
X117501204Y-65674504D01*
X117500000Y-65650000D01*
X117500000Y-64550000D01*
X117501204Y-64525496D01*
X117504804Y-64501227D01*
X117510765Y-64477429D01*
X117519030Y-64454329D01*
X117529520Y-64432151D01*
X117542133Y-64411107D01*
X117556747Y-64391402D01*
X117573223Y-64373223D01*
X117591402Y-64356747D01*
X117611107Y-64342133D01*
X117632151Y-64329520D01*
X117654329Y-64319030D01*
X117677429Y-64310765D01*
X117701227Y-64304804D01*
X117725496Y-64301204D01*
X117750000Y-64300000D01*
X120750000Y-64300000D01*
X120774504Y-64301204D01*
G37*
G36*
X163724504Y-134701204D02*
G01*
X163748773Y-134704804D01*
X163772571Y-134710765D01*
X163795671Y-134719030D01*
X163817849Y-134729520D01*
X163838893Y-134742133D01*
X163858598Y-134756747D01*
X163876777Y-134773223D01*
X163893253Y-134791402D01*
X163907867Y-134811107D01*
X163920480Y-134832151D01*
X163930970Y-134854329D01*
X163939235Y-134877429D01*
X163945196Y-134901227D01*
X163948796Y-134925496D01*
X163950000Y-134950000D01*
X163950000Y-136050000D01*
X163948796Y-136074504D01*
X163945196Y-136098773D01*
X163939235Y-136122571D01*
X163930970Y-136145671D01*
X163920480Y-136167849D01*
X163907867Y-136188893D01*
X163893253Y-136208598D01*
X163876777Y-136226777D01*
X163858598Y-136243253D01*
X163838893Y-136257867D01*
X163817849Y-136270480D01*
X163795671Y-136280970D01*
X163772571Y-136289235D01*
X163748773Y-136295196D01*
X163724504Y-136298796D01*
X163700000Y-136300000D01*
X160700000Y-136300000D01*
X160675496Y-136298796D01*
X160651227Y-136295196D01*
X160627429Y-136289235D01*
X160604329Y-136280970D01*
X160582151Y-136270480D01*
X160561107Y-136257867D01*
X160541402Y-136243253D01*
X160523223Y-136226777D01*
X160506747Y-136208598D01*
X160492133Y-136188893D01*
X160479520Y-136167849D01*
X160469030Y-136145671D01*
X160460765Y-136122571D01*
X160454804Y-136098773D01*
X160451204Y-136074504D01*
X160450000Y-136050000D01*
X160450000Y-134950000D01*
X160451204Y-134925496D01*
X160454804Y-134901227D01*
X160460765Y-134877429D01*
X160469030Y-134854329D01*
X160479520Y-134832151D01*
X160492133Y-134811107D01*
X160506747Y-134791402D01*
X160523223Y-134773223D01*
X160541402Y-134756747D01*
X160561107Y-134742133D01*
X160582151Y-134729520D01*
X160604329Y-134719030D01*
X160627429Y-134710765D01*
X160651227Y-134704804D01*
X160675496Y-134701204D01*
X160700000Y-134700000D01*
X163700000Y-134700000D01*
X163724504Y-134701204D01*
G37*
G36*
X169324504Y-134701204D02*
G01*
X169348773Y-134704804D01*
X169372571Y-134710765D01*
X169395671Y-134719030D01*
X169417849Y-134729520D01*
X169438893Y-134742133D01*
X169458598Y-134756747D01*
X169476777Y-134773223D01*
X169493253Y-134791402D01*
X169507867Y-134811107D01*
X169520480Y-134832151D01*
X169530970Y-134854329D01*
X169539235Y-134877429D01*
X169545196Y-134901227D01*
X169548796Y-134925496D01*
X169550000Y-134950000D01*
X169550000Y-136050000D01*
X169548796Y-136074504D01*
X169545196Y-136098773D01*
X169539235Y-136122571D01*
X169530970Y-136145671D01*
X169520480Y-136167849D01*
X169507867Y-136188893D01*
X169493253Y-136208598D01*
X169476777Y-136226777D01*
X169458598Y-136243253D01*
X169438893Y-136257867D01*
X169417849Y-136270480D01*
X169395671Y-136280970D01*
X169372571Y-136289235D01*
X169348773Y-136295196D01*
X169324504Y-136298796D01*
X169300000Y-136300000D01*
X166300000Y-136300000D01*
X166275496Y-136298796D01*
X166251227Y-136295196D01*
X166227429Y-136289235D01*
X166204329Y-136280970D01*
X166182151Y-136270480D01*
X166161107Y-136257867D01*
X166141402Y-136243253D01*
X166123223Y-136226777D01*
X166106747Y-136208598D01*
X166092133Y-136188893D01*
X166079520Y-136167849D01*
X166069030Y-136145671D01*
X166060765Y-136122571D01*
X166054804Y-136098773D01*
X166051204Y-136074504D01*
X166050000Y-136050000D01*
X166050000Y-134950000D01*
X166051204Y-134925496D01*
X166054804Y-134901227D01*
X166060765Y-134877429D01*
X166069030Y-134854329D01*
X166079520Y-134832151D01*
X166092133Y-134811107D01*
X166106747Y-134791402D01*
X166123223Y-134773223D01*
X166141402Y-134756747D01*
X166161107Y-134742133D01*
X166182151Y-134729520D01*
X166204329Y-134719030D01*
X166227429Y-134710765D01*
X166251227Y-134704804D01*
X166275496Y-134701204D01*
X166300000Y-134700000D01*
X169300000Y-134700000D01*
X169324504Y-134701204D01*
G37*
G36*
X115174504Y-98151204D02*
G01*
X115198773Y-98154804D01*
X115222571Y-98160765D01*
X115245671Y-98169030D01*
X115267849Y-98179520D01*
X115288893Y-98192133D01*
X115308598Y-98206747D01*
X115326777Y-98223223D01*
X115343253Y-98241402D01*
X115357867Y-98261107D01*
X115370480Y-98282151D01*
X115380970Y-98304329D01*
X115389235Y-98327429D01*
X115395196Y-98351227D01*
X115398796Y-98375496D01*
X115400000Y-98400000D01*
X115400000Y-99500000D01*
X115398796Y-99524504D01*
X115395196Y-99548773D01*
X115389235Y-99572571D01*
X115380970Y-99595671D01*
X115370480Y-99617849D01*
X115357867Y-99638893D01*
X115343253Y-99658598D01*
X115326777Y-99676777D01*
X115308598Y-99693253D01*
X115288893Y-99707867D01*
X115267849Y-99720480D01*
X115245671Y-99730970D01*
X115222571Y-99739235D01*
X115198773Y-99745196D01*
X115174504Y-99748796D01*
X115150000Y-99750000D01*
X112150000Y-99750000D01*
X112125496Y-99748796D01*
X112101227Y-99745196D01*
X112077429Y-99739235D01*
X112054329Y-99730970D01*
X112032151Y-99720480D01*
X112011107Y-99707867D01*
X111991402Y-99693253D01*
X111973223Y-99676777D01*
X111956747Y-99658598D01*
X111942133Y-99638893D01*
X111929520Y-99617849D01*
X111919030Y-99595671D01*
X111910765Y-99572571D01*
X111904804Y-99548773D01*
X111901204Y-99524504D01*
X111900000Y-99500000D01*
X111900000Y-98400000D01*
X111901204Y-98375496D01*
X111904804Y-98351227D01*
X111910765Y-98327429D01*
X111919030Y-98304329D01*
X111929520Y-98282151D01*
X111942133Y-98261107D01*
X111956747Y-98241402D01*
X111973223Y-98223223D01*
X111991402Y-98206747D01*
X112011107Y-98192133D01*
X112032151Y-98179520D01*
X112054329Y-98169030D01*
X112077429Y-98160765D01*
X112101227Y-98154804D01*
X112125496Y-98151204D01*
X112150000Y-98150000D01*
X115150000Y-98150000D01*
X115174504Y-98151204D01*
G37*
G36*
X120774504Y-98151204D02*
G01*
X120798773Y-98154804D01*
X120822571Y-98160765D01*
X120845671Y-98169030D01*
X120867849Y-98179520D01*
X120888893Y-98192133D01*
X120908598Y-98206747D01*
X120926777Y-98223223D01*
X120943253Y-98241402D01*
X120957867Y-98261107D01*
X120970480Y-98282151D01*
X120980970Y-98304329D01*
X120989235Y-98327429D01*
X120995196Y-98351227D01*
X120998796Y-98375496D01*
X121000000Y-98400000D01*
X121000000Y-99500000D01*
X120998796Y-99524504D01*
X120995196Y-99548773D01*
X120989235Y-99572571D01*
X120980970Y-99595671D01*
X120970480Y-99617849D01*
X120957867Y-99638893D01*
X120943253Y-99658598D01*
X120926777Y-99676777D01*
X120908598Y-99693253D01*
X120888893Y-99707867D01*
X120867849Y-99720480D01*
X120845671Y-99730970D01*
X120822571Y-99739235D01*
X120798773Y-99745196D01*
X120774504Y-99748796D01*
X120750000Y-99750000D01*
X117750000Y-99750000D01*
X117725496Y-99748796D01*
X117701227Y-99745196D01*
X117677429Y-99739235D01*
X117654329Y-99730970D01*
X117632151Y-99720480D01*
X117611107Y-99707867D01*
X117591402Y-99693253D01*
X117573223Y-99676777D01*
X117556747Y-99658598D01*
X117542133Y-99638893D01*
X117529520Y-99617849D01*
X117519030Y-99595671D01*
X117510765Y-99572571D01*
X117504804Y-99548773D01*
X117501204Y-99524504D01*
X117500000Y-99500000D01*
X117500000Y-98400000D01*
X117501204Y-98375496D01*
X117504804Y-98351227D01*
X117510765Y-98327429D01*
X117519030Y-98304329D01*
X117529520Y-98282151D01*
X117542133Y-98261107D01*
X117556747Y-98241402D01*
X117573223Y-98223223D01*
X117591402Y-98206747D01*
X117611107Y-98192133D01*
X117632151Y-98179520D01*
X117654329Y-98169030D01*
X117677429Y-98160765D01*
X117701227Y-98154804D01*
X117725496Y-98151204D01*
X117750000Y-98150000D01*
X120750000Y-98150000D01*
X120774504Y-98151204D01*
G37*
G36*
X163724504Y-75701204D02*
G01*
X163748773Y-75704804D01*
X163772571Y-75710765D01*
X163795671Y-75719030D01*
X163817849Y-75729520D01*
X163838893Y-75742133D01*
X163858598Y-75756747D01*
X163876777Y-75773223D01*
X163893253Y-75791402D01*
X163907867Y-75811107D01*
X163920480Y-75832151D01*
X163930970Y-75854329D01*
X163939235Y-75877429D01*
X163945196Y-75901227D01*
X163948796Y-75925496D01*
X163950000Y-75950000D01*
X163950000Y-77050000D01*
X163948796Y-77074504D01*
X163945196Y-77098773D01*
X163939235Y-77122571D01*
X163930970Y-77145671D01*
X163920480Y-77167849D01*
X163907867Y-77188893D01*
X163893253Y-77208598D01*
X163876777Y-77226777D01*
X163858598Y-77243253D01*
X163838893Y-77257867D01*
X163817849Y-77270480D01*
X163795671Y-77280970D01*
X163772571Y-77289235D01*
X163748773Y-77295196D01*
X163724504Y-77298796D01*
X163700000Y-77300000D01*
X160700000Y-77300000D01*
X160675496Y-77298796D01*
X160651227Y-77295196D01*
X160627429Y-77289235D01*
X160604329Y-77280970D01*
X160582151Y-77270480D01*
X160561107Y-77257867D01*
X160541402Y-77243253D01*
X160523223Y-77226777D01*
X160506747Y-77208598D01*
X160492133Y-77188893D01*
X160479520Y-77167849D01*
X160469030Y-77145671D01*
X160460765Y-77122571D01*
X160454804Y-77098773D01*
X160451204Y-77074504D01*
X160450000Y-77050000D01*
X160450000Y-75950000D01*
X160451204Y-75925496D01*
X160454804Y-75901227D01*
X160460765Y-75877429D01*
X160469030Y-75854329D01*
X160479520Y-75832151D01*
X160492133Y-75811107D01*
X160506747Y-75791402D01*
X160523223Y-75773223D01*
X160541402Y-75756747D01*
X160561107Y-75742133D01*
X160582151Y-75729520D01*
X160604329Y-75719030D01*
X160627429Y-75710765D01*
X160651227Y-75704804D01*
X160675496Y-75701204D01*
X160700000Y-75700000D01*
X163700000Y-75700000D01*
X163724504Y-75701204D01*
G37*
G36*
X169324504Y-75701204D02*
G01*
X169348773Y-75704804D01*
X169372571Y-75710765D01*
X169395671Y-75719030D01*
X169417849Y-75729520D01*
X169438893Y-75742133D01*
X169458598Y-75756747D01*
X169476777Y-75773223D01*
X169493253Y-75791402D01*
X169507867Y-75811107D01*
X169520480Y-75832151D01*
X169530970Y-75854329D01*
X169539235Y-75877429D01*
X169545196Y-75901227D01*
X169548796Y-75925496D01*
X169550000Y-75950000D01*
X169550000Y-77050000D01*
X169548796Y-77074504D01*
X169545196Y-77098773D01*
X169539235Y-77122571D01*
X169530970Y-77145671D01*
X169520480Y-77167849D01*
X169507867Y-77188893D01*
X169493253Y-77208598D01*
X169476777Y-77226777D01*
X169458598Y-77243253D01*
X169438893Y-77257867D01*
X169417849Y-77270480D01*
X169395671Y-77280970D01*
X169372571Y-77289235D01*
X169348773Y-77295196D01*
X169324504Y-77298796D01*
X169300000Y-77300000D01*
X166300000Y-77300000D01*
X166275496Y-77298796D01*
X166251227Y-77295196D01*
X166227429Y-77289235D01*
X166204329Y-77280970D01*
X166182151Y-77270480D01*
X166161107Y-77257867D01*
X166141402Y-77243253D01*
X166123223Y-77226777D01*
X166106747Y-77208598D01*
X166092133Y-77188893D01*
X166079520Y-77167849D01*
X166069030Y-77145671D01*
X166060765Y-77122571D01*
X166054804Y-77098773D01*
X166051204Y-77074504D01*
X166050000Y-77050000D01*
X166050000Y-75950000D01*
X166051204Y-75925496D01*
X166054804Y-75901227D01*
X166060765Y-75877429D01*
X166069030Y-75854329D01*
X166079520Y-75832151D01*
X166092133Y-75811107D01*
X166106747Y-75791402D01*
X166123223Y-75773223D01*
X166141402Y-75756747D01*
X166161107Y-75742133D01*
X166182151Y-75729520D01*
X166204329Y-75719030D01*
X166227429Y-75710765D01*
X166251227Y-75704804D01*
X166275496Y-75701204D01*
X166300000Y-75700000D01*
X169300000Y-75700000D01*
X169324504Y-75701204D01*
G37*
G36*
X120017642Y-85901174D02*
G01*
X120041303Y-85904684D01*
X120064507Y-85910496D01*
X120087029Y-85918554D01*
X120108653Y-85928782D01*
X120129170Y-85941079D01*
X120148383Y-85955329D01*
X120166107Y-85971393D01*
X120182171Y-85989117D01*
X120196421Y-86008330D01*
X120208718Y-86028847D01*
X120218946Y-86050471D01*
X120227004Y-86072993D01*
X120232816Y-86096197D01*
X120236326Y-86119858D01*
X120237500Y-86143750D01*
X120237500Y-87056250D01*
X120236326Y-87080142D01*
X120232816Y-87103803D01*
X120227004Y-87127007D01*
X120218946Y-87149529D01*
X120208718Y-87171153D01*
X120196421Y-87191670D01*
X120182171Y-87210883D01*
X120166107Y-87228607D01*
X120148383Y-87244671D01*
X120129170Y-87258921D01*
X120108653Y-87271218D01*
X120087029Y-87281446D01*
X120064507Y-87289504D01*
X120041303Y-87295316D01*
X120017642Y-87298826D01*
X119993750Y-87300000D01*
X119506250Y-87300000D01*
X119482358Y-87298826D01*
X119458697Y-87295316D01*
X119435493Y-87289504D01*
X119412971Y-87281446D01*
X119391347Y-87271218D01*
X119370830Y-87258921D01*
X119351617Y-87244671D01*
X119333893Y-87228607D01*
X119317829Y-87210883D01*
X119303579Y-87191670D01*
X119291282Y-87171153D01*
X119281054Y-87149529D01*
X119272996Y-87127007D01*
X119267184Y-87103803D01*
X119263674Y-87080142D01*
X119262500Y-87056250D01*
X119262500Y-86143750D01*
X119263674Y-86119858D01*
X119267184Y-86096197D01*
X119272996Y-86072993D01*
X119281054Y-86050471D01*
X119291282Y-86028847D01*
X119303579Y-86008330D01*
X119317829Y-85989117D01*
X119333893Y-85971393D01*
X119351617Y-85955329D01*
X119370830Y-85941079D01*
X119391347Y-85928782D01*
X119412971Y-85918554D01*
X119435493Y-85910496D01*
X119458697Y-85904684D01*
X119482358Y-85901174D01*
X119506250Y-85900000D01*
X119993750Y-85900000D01*
X120017642Y-85901174D01*
G37*
G36*
X121892642Y-85901174D02*
G01*
X121916303Y-85904684D01*
X121939507Y-85910496D01*
X121962029Y-85918554D01*
X121983653Y-85928782D01*
X122004170Y-85941079D01*
X122023383Y-85955329D01*
X122041107Y-85971393D01*
X122057171Y-85989117D01*
X122071421Y-86008330D01*
X122083718Y-86028847D01*
X122093946Y-86050471D01*
X122102004Y-86072993D01*
X122107816Y-86096197D01*
X122111326Y-86119858D01*
X122112500Y-86143750D01*
X122112500Y-87056250D01*
X122111326Y-87080142D01*
X122107816Y-87103803D01*
X122102004Y-87127007D01*
X122093946Y-87149529D01*
X122083718Y-87171153D01*
X122071421Y-87191670D01*
X122057171Y-87210883D01*
X122041107Y-87228607D01*
X122023383Y-87244671D01*
X122004170Y-87258921D01*
X121983653Y-87271218D01*
X121962029Y-87281446D01*
X121939507Y-87289504D01*
X121916303Y-87295316D01*
X121892642Y-87298826D01*
X121868750Y-87300000D01*
X121381250Y-87300000D01*
X121357358Y-87298826D01*
X121333697Y-87295316D01*
X121310493Y-87289504D01*
X121287971Y-87281446D01*
X121266347Y-87271218D01*
X121245830Y-87258921D01*
X121226617Y-87244671D01*
X121208893Y-87228607D01*
X121192829Y-87210883D01*
X121178579Y-87191670D01*
X121166282Y-87171153D01*
X121156054Y-87149529D01*
X121147996Y-87127007D01*
X121142184Y-87103803D01*
X121138674Y-87080142D01*
X121137500Y-87056250D01*
X121137500Y-86143750D01*
X121138674Y-86119858D01*
X121142184Y-86096197D01*
X121147996Y-86072993D01*
X121156054Y-86050471D01*
X121166282Y-86028847D01*
X121178579Y-86008330D01*
X121192829Y-85989117D01*
X121208893Y-85971393D01*
X121226617Y-85955329D01*
X121245830Y-85941079D01*
X121266347Y-85928782D01*
X121287971Y-85918554D01*
X121310493Y-85910496D01*
X121333697Y-85904684D01*
X121357358Y-85901174D01*
X121381250Y-85900000D01*
X121868750Y-85900000D01*
X121892642Y-85901174D01*
G37*
G36*
X121505142Y-137951174D02*
G01*
X121528803Y-137954684D01*
X121552007Y-137960496D01*
X121574529Y-137968554D01*
X121596153Y-137978782D01*
X121616670Y-137991079D01*
X121635883Y-138005329D01*
X121653607Y-138021393D01*
X121669671Y-138039117D01*
X121683921Y-138058330D01*
X121696218Y-138078847D01*
X121706446Y-138100471D01*
X121714504Y-138122993D01*
X121720316Y-138146197D01*
X121723826Y-138169858D01*
X121725000Y-138193750D01*
X121725000Y-139106250D01*
X121723826Y-139130142D01*
X121720316Y-139153803D01*
X121714504Y-139177007D01*
X121706446Y-139199529D01*
X121696218Y-139221153D01*
X121683921Y-139241670D01*
X121669671Y-139260883D01*
X121653607Y-139278607D01*
X121635883Y-139294671D01*
X121616670Y-139308921D01*
X121596153Y-139321218D01*
X121574529Y-139331446D01*
X121552007Y-139339504D01*
X121528803Y-139345316D01*
X121505142Y-139348826D01*
X121481250Y-139350000D01*
X120993750Y-139350000D01*
X120969858Y-139348826D01*
X120946197Y-139345316D01*
X120922993Y-139339504D01*
X120900471Y-139331446D01*
X120878847Y-139321218D01*
X120858330Y-139308921D01*
X120839117Y-139294671D01*
X120821393Y-139278607D01*
X120805329Y-139260883D01*
X120791079Y-139241670D01*
X120778782Y-139221153D01*
X120768554Y-139199529D01*
X120760496Y-139177007D01*
X120754684Y-139153803D01*
X120751174Y-139130142D01*
X120750000Y-139106250D01*
X120750000Y-138193750D01*
X120751174Y-138169858D01*
X120754684Y-138146197D01*
X120760496Y-138122993D01*
X120768554Y-138100471D01*
X120778782Y-138078847D01*
X120791079Y-138058330D01*
X120805329Y-138039117D01*
X120821393Y-138021393D01*
X120839117Y-138005329D01*
X120858330Y-137991079D01*
X120878847Y-137978782D01*
X120900471Y-137968554D01*
X120922993Y-137960496D01*
X120946197Y-137954684D01*
X120969858Y-137951174D01*
X120993750Y-137950000D01*
X121481250Y-137950000D01*
X121505142Y-137951174D01*
G37*
G36*
X119630142Y-137951174D02*
G01*
X119653803Y-137954684D01*
X119677007Y-137960496D01*
X119699529Y-137968554D01*
X119721153Y-137978782D01*
X119741670Y-137991079D01*
X119760883Y-138005329D01*
X119778607Y-138021393D01*
X119794671Y-138039117D01*
X119808921Y-138058330D01*
X119821218Y-138078847D01*
X119831446Y-138100471D01*
X119839504Y-138122993D01*
X119845316Y-138146197D01*
X119848826Y-138169858D01*
X119850000Y-138193750D01*
X119850000Y-139106250D01*
X119848826Y-139130142D01*
X119845316Y-139153803D01*
X119839504Y-139177007D01*
X119831446Y-139199529D01*
X119821218Y-139221153D01*
X119808921Y-139241670D01*
X119794671Y-139260883D01*
X119778607Y-139278607D01*
X119760883Y-139294671D01*
X119741670Y-139308921D01*
X119721153Y-139321218D01*
X119699529Y-139331446D01*
X119677007Y-139339504D01*
X119653803Y-139345316D01*
X119630142Y-139348826D01*
X119606250Y-139350000D01*
X119118750Y-139350000D01*
X119094858Y-139348826D01*
X119071197Y-139345316D01*
X119047993Y-139339504D01*
X119025471Y-139331446D01*
X119003847Y-139321218D01*
X118983330Y-139308921D01*
X118964117Y-139294671D01*
X118946393Y-139278607D01*
X118930329Y-139260883D01*
X118916079Y-139241670D01*
X118903782Y-139221153D01*
X118893554Y-139199529D01*
X118885496Y-139177007D01*
X118879684Y-139153803D01*
X118876174Y-139130142D01*
X118875000Y-139106250D01*
X118875000Y-138193750D01*
X118876174Y-138169858D01*
X118879684Y-138146197D01*
X118885496Y-138122993D01*
X118893554Y-138100471D01*
X118903782Y-138078847D01*
X118916079Y-138058330D01*
X118930329Y-138039117D01*
X118946393Y-138021393D01*
X118964117Y-138005329D01*
X118983330Y-137991079D01*
X119003847Y-137978782D01*
X119025471Y-137968554D01*
X119047993Y-137960496D01*
X119071197Y-137954684D01*
X119094858Y-137951174D01*
X119118750Y-137950000D01*
X119606250Y-137950000D01*
X119630142Y-137951174D01*
G37*
G36*
X167767642Y-109501174D02*
G01*
X167791303Y-109504684D01*
X167814507Y-109510496D01*
X167837029Y-109518554D01*
X167858653Y-109528782D01*
X167879170Y-109541079D01*
X167898383Y-109555329D01*
X167916107Y-109571393D01*
X167932171Y-109589117D01*
X167946421Y-109608330D01*
X167958718Y-109628847D01*
X167968946Y-109650471D01*
X167977004Y-109672993D01*
X167982816Y-109696197D01*
X167986326Y-109719858D01*
X167987500Y-109743750D01*
X167987500Y-110656250D01*
X167986326Y-110680142D01*
X167982816Y-110703803D01*
X167977004Y-110727007D01*
X167968946Y-110749529D01*
X167958718Y-110771153D01*
X167946421Y-110791670D01*
X167932171Y-110810883D01*
X167916107Y-110828607D01*
X167898383Y-110844671D01*
X167879170Y-110858921D01*
X167858653Y-110871218D01*
X167837029Y-110881446D01*
X167814507Y-110889504D01*
X167791303Y-110895316D01*
X167767642Y-110898826D01*
X167743750Y-110900000D01*
X167256250Y-110900000D01*
X167232358Y-110898826D01*
X167208697Y-110895316D01*
X167185493Y-110889504D01*
X167162971Y-110881446D01*
X167141347Y-110871218D01*
X167120830Y-110858921D01*
X167101617Y-110844671D01*
X167083893Y-110828607D01*
X167067829Y-110810883D01*
X167053579Y-110791670D01*
X167041282Y-110771153D01*
X167031054Y-110749529D01*
X167022996Y-110727007D01*
X167017184Y-110703803D01*
X167013674Y-110680142D01*
X167012500Y-110656250D01*
X167012500Y-109743750D01*
X167013674Y-109719858D01*
X167017184Y-109696197D01*
X167022996Y-109672993D01*
X167031054Y-109650471D01*
X167041282Y-109628847D01*
X167053579Y-109608330D01*
X167067829Y-109589117D01*
X167083893Y-109571393D01*
X167101617Y-109555329D01*
X167120830Y-109541079D01*
X167141347Y-109528782D01*
X167162971Y-109518554D01*
X167185493Y-109510496D01*
X167208697Y-109504684D01*
X167232358Y-109501174D01*
X167256250Y-109500000D01*
X167743750Y-109500000D01*
X167767642Y-109501174D01*
G37*
G36*
X165892642Y-109501174D02*
G01*
X165916303Y-109504684D01*
X165939507Y-109510496D01*
X165962029Y-109518554D01*
X165983653Y-109528782D01*
X166004170Y-109541079D01*
X166023383Y-109555329D01*
X166041107Y-109571393D01*
X166057171Y-109589117D01*
X166071421Y-109608330D01*
X166083718Y-109628847D01*
X166093946Y-109650471D01*
X166102004Y-109672993D01*
X166107816Y-109696197D01*
X166111326Y-109719858D01*
X166112500Y-109743750D01*
X166112500Y-110656250D01*
X166111326Y-110680142D01*
X166107816Y-110703803D01*
X166102004Y-110727007D01*
X166093946Y-110749529D01*
X166083718Y-110771153D01*
X166071421Y-110791670D01*
X166057171Y-110810883D01*
X166041107Y-110828607D01*
X166023383Y-110844671D01*
X166004170Y-110858921D01*
X165983653Y-110871218D01*
X165962029Y-110881446D01*
X165939507Y-110889504D01*
X165916303Y-110895316D01*
X165892642Y-110898826D01*
X165868750Y-110900000D01*
X165381250Y-110900000D01*
X165357358Y-110898826D01*
X165333697Y-110895316D01*
X165310493Y-110889504D01*
X165287971Y-110881446D01*
X165266347Y-110871218D01*
X165245830Y-110858921D01*
X165226617Y-110844671D01*
X165208893Y-110828607D01*
X165192829Y-110810883D01*
X165178579Y-110791670D01*
X165166282Y-110771153D01*
X165156054Y-110749529D01*
X165147996Y-110727007D01*
X165142184Y-110703803D01*
X165138674Y-110680142D01*
X165137500Y-110656250D01*
X165137500Y-109743750D01*
X165138674Y-109719858D01*
X165142184Y-109696197D01*
X165147996Y-109672993D01*
X165156054Y-109650471D01*
X165166282Y-109628847D01*
X165178579Y-109608330D01*
X165192829Y-109589117D01*
X165208893Y-109571393D01*
X165226617Y-109555329D01*
X165245830Y-109541079D01*
X165266347Y-109528782D01*
X165287971Y-109518554D01*
X165310493Y-109510496D01*
X165333697Y-109504684D01*
X165357358Y-109501174D01*
X165381250Y-109500000D01*
X165868750Y-109500000D01*
X165892642Y-109501174D01*
G37*
G36*
X171080142Y-60113674D02*
G01*
X171103803Y-60117184D01*
X171127007Y-60122996D01*
X171149529Y-60131054D01*
X171171153Y-60141282D01*
X171191670Y-60153579D01*
X171210883Y-60167829D01*
X171228607Y-60183893D01*
X171244671Y-60201617D01*
X171258921Y-60220830D01*
X171271218Y-60241347D01*
X171281446Y-60262971D01*
X171289504Y-60285493D01*
X171295316Y-60308697D01*
X171298826Y-60332358D01*
X171300000Y-60356250D01*
X171300000Y-60843750D01*
X171298826Y-60867642D01*
X171295316Y-60891303D01*
X171289504Y-60914507D01*
X171281446Y-60937029D01*
X171271218Y-60958653D01*
X171258921Y-60979170D01*
X171244671Y-60998383D01*
X171228607Y-61016107D01*
X171210883Y-61032171D01*
X171191670Y-61046421D01*
X171171153Y-61058718D01*
X171149529Y-61068946D01*
X171127007Y-61077004D01*
X171103803Y-61082816D01*
X171080142Y-61086326D01*
X171056250Y-61087500D01*
X170143750Y-61087500D01*
X170119858Y-61086326D01*
X170096197Y-61082816D01*
X170072993Y-61077004D01*
X170050471Y-61068946D01*
X170028847Y-61058718D01*
X170008330Y-61046421D01*
X169989117Y-61032171D01*
X169971393Y-61016107D01*
X169955329Y-60998383D01*
X169941079Y-60979170D01*
X169928782Y-60958653D01*
X169918554Y-60937029D01*
X169910496Y-60914507D01*
X169904684Y-60891303D01*
X169901174Y-60867642D01*
X169900000Y-60843750D01*
X169900000Y-60356250D01*
X169901174Y-60332358D01*
X169904684Y-60308697D01*
X169910496Y-60285493D01*
X169918554Y-60262971D01*
X169928782Y-60241347D01*
X169941079Y-60220830D01*
X169955329Y-60201617D01*
X169971393Y-60183893D01*
X169989117Y-60167829D01*
X170008330Y-60153579D01*
X170028847Y-60141282D01*
X170050471Y-60131054D01*
X170072993Y-60122996D01*
X170096197Y-60117184D01*
X170119858Y-60113674D01*
X170143750Y-60112500D01*
X171056250Y-60112500D01*
X171080142Y-60113674D01*
G37*
G36*
X171080142Y-58238674D02*
G01*
X171103803Y-58242184D01*
X171127007Y-58247996D01*
X171149529Y-58256054D01*
X171171153Y-58266282D01*
X171191670Y-58278579D01*
X171210883Y-58292829D01*
X171228607Y-58308893D01*
X171244671Y-58326617D01*
X171258921Y-58345830D01*
X171271218Y-58366347D01*
X171281446Y-58387971D01*
X171289504Y-58410493D01*
X171295316Y-58433697D01*
X171298826Y-58457358D01*
X171300000Y-58481250D01*
X171300000Y-58968750D01*
X171298826Y-58992642D01*
X171295316Y-59016303D01*
X171289504Y-59039507D01*
X171281446Y-59062029D01*
X171271218Y-59083653D01*
X171258921Y-59104170D01*
X171244671Y-59123383D01*
X171228607Y-59141107D01*
X171210883Y-59157171D01*
X171191670Y-59171421D01*
X171171153Y-59183718D01*
X171149529Y-59193946D01*
X171127007Y-59202004D01*
X171103803Y-59207816D01*
X171080142Y-59211326D01*
X171056250Y-59212500D01*
X170143750Y-59212500D01*
X170119858Y-59211326D01*
X170096197Y-59207816D01*
X170072993Y-59202004D01*
X170050471Y-59193946D01*
X170028847Y-59183718D01*
X170008330Y-59171421D01*
X169989117Y-59157171D01*
X169971393Y-59141107D01*
X169955329Y-59123383D01*
X169941079Y-59104170D01*
X169928782Y-59083653D01*
X169918554Y-59062029D01*
X169910496Y-59039507D01*
X169904684Y-59016303D01*
X169901174Y-58992642D01*
X169900000Y-58968750D01*
X169900000Y-58481250D01*
X169901174Y-58457358D01*
X169904684Y-58433697D01*
X169910496Y-58410493D01*
X169918554Y-58387971D01*
X169928782Y-58366347D01*
X169941079Y-58345830D01*
X169955329Y-58326617D01*
X169971393Y-58308893D01*
X169989117Y-58292829D01*
X170008330Y-58278579D01*
X170028847Y-58266282D01*
X170050471Y-58256054D01*
X170072993Y-58247996D01*
X170096197Y-58242184D01*
X170119858Y-58238674D01*
X170143750Y-58237500D01*
X171056250Y-58237500D01*
X171080142Y-58238674D01*
G37*
G36*
X120574504Y-81201204D02*
G01*
X120598773Y-81204804D01*
X120622571Y-81210765D01*
X120645671Y-81219030D01*
X120667849Y-81229520D01*
X120688893Y-81242133D01*
X120708598Y-81256747D01*
X120726777Y-81273223D01*
X120743253Y-81291402D01*
X120757867Y-81311107D01*
X120770480Y-81332151D01*
X120780970Y-81354329D01*
X120789235Y-81377429D01*
X120795196Y-81401227D01*
X120798796Y-81425496D01*
X120800000Y-81450000D01*
X120800000Y-82550000D01*
X120798796Y-82574504D01*
X120795196Y-82598773D01*
X120789235Y-82622571D01*
X120780970Y-82645671D01*
X120770480Y-82667849D01*
X120757867Y-82688893D01*
X120743253Y-82708598D01*
X120726777Y-82726777D01*
X120708598Y-82743253D01*
X120688893Y-82757867D01*
X120667849Y-82770480D01*
X120645671Y-82780970D01*
X120622571Y-82789235D01*
X120598773Y-82795196D01*
X120574504Y-82798796D01*
X120550000Y-82800000D01*
X117550000Y-82800000D01*
X117525496Y-82798796D01*
X117501227Y-82795196D01*
X117477429Y-82789235D01*
X117454329Y-82780970D01*
X117432151Y-82770480D01*
X117411107Y-82757867D01*
X117391402Y-82743253D01*
X117373223Y-82726777D01*
X117356747Y-82708598D01*
X117342133Y-82688893D01*
X117329520Y-82667849D01*
X117319030Y-82645671D01*
X117310765Y-82622571D01*
X117304804Y-82598773D01*
X117301204Y-82574504D01*
X117300000Y-82550000D01*
X117300000Y-81450000D01*
X117301204Y-81425496D01*
X117304804Y-81401227D01*
X117310765Y-81377429D01*
X117319030Y-81354329D01*
X117329520Y-81332151D01*
X117342133Y-81311107D01*
X117356747Y-81291402D01*
X117373223Y-81273223D01*
X117391402Y-81256747D01*
X117411107Y-81242133D01*
X117432151Y-81229520D01*
X117454329Y-81219030D01*
X117477429Y-81210765D01*
X117501227Y-81204804D01*
X117525496Y-81201204D01*
X117550000Y-81200000D01*
X120550000Y-81200000D01*
X120574504Y-81201204D01*
G37*
G36*
X114974504Y-81201204D02*
G01*
X114998773Y-81204804D01*
X115022571Y-81210765D01*
X115045671Y-81219030D01*
X115067849Y-81229520D01*
X115088893Y-81242133D01*
X115108598Y-81256747D01*
X115126777Y-81273223D01*
X115143253Y-81291402D01*
X115157867Y-81311107D01*
X115170480Y-81332151D01*
X115180970Y-81354329D01*
X115189235Y-81377429D01*
X115195196Y-81401227D01*
X115198796Y-81425496D01*
X115200000Y-81450000D01*
X115200000Y-82550000D01*
X115198796Y-82574504D01*
X115195196Y-82598773D01*
X115189235Y-82622571D01*
X115180970Y-82645671D01*
X115170480Y-82667849D01*
X115157867Y-82688893D01*
X115143253Y-82708598D01*
X115126777Y-82726777D01*
X115108598Y-82743253D01*
X115088893Y-82757867D01*
X115067849Y-82770480D01*
X115045671Y-82780970D01*
X115022571Y-82789235D01*
X114998773Y-82795196D01*
X114974504Y-82798796D01*
X114950000Y-82800000D01*
X111950000Y-82800000D01*
X111925496Y-82798796D01*
X111901227Y-82795196D01*
X111877429Y-82789235D01*
X111854329Y-82780970D01*
X111832151Y-82770480D01*
X111811107Y-82757867D01*
X111791402Y-82743253D01*
X111773223Y-82726777D01*
X111756747Y-82708598D01*
X111742133Y-82688893D01*
X111729520Y-82667849D01*
X111719030Y-82645671D01*
X111710765Y-82622571D01*
X111704804Y-82598773D01*
X111701204Y-82574504D01*
X111700000Y-82550000D01*
X111700000Y-81450000D01*
X111701204Y-81425496D01*
X111704804Y-81401227D01*
X111710765Y-81377429D01*
X111719030Y-81354329D01*
X111729520Y-81332151D01*
X111742133Y-81311107D01*
X111756747Y-81291402D01*
X111773223Y-81273223D01*
X111791402Y-81256747D01*
X111811107Y-81242133D01*
X111832151Y-81229520D01*
X111854329Y-81219030D01*
X111877429Y-81210765D01*
X111901227Y-81204804D01*
X111925496Y-81201204D01*
X111950000Y-81200000D01*
X114950000Y-81200000D01*
X114974504Y-81201204D01*
G37*
G36*
X113824504Y-133251204D02*
G01*
X113848773Y-133254804D01*
X113872571Y-133260765D01*
X113895671Y-133269030D01*
X113917849Y-133279520D01*
X113938893Y-133292133D01*
X113958598Y-133306747D01*
X113976777Y-133323223D01*
X113993253Y-133341402D01*
X114007867Y-133361107D01*
X114020480Y-133382151D01*
X114030970Y-133404329D01*
X114039235Y-133427429D01*
X114045196Y-133451227D01*
X114048796Y-133475496D01*
X114050000Y-133500000D01*
X114050000Y-134600000D01*
X114048796Y-134624504D01*
X114045196Y-134648773D01*
X114039235Y-134672571D01*
X114030970Y-134695671D01*
X114020480Y-134717849D01*
X114007867Y-134738893D01*
X113993253Y-134758598D01*
X113976777Y-134776777D01*
X113958598Y-134793253D01*
X113938893Y-134807867D01*
X113917849Y-134820480D01*
X113895671Y-134830970D01*
X113872571Y-134839235D01*
X113848773Y-134845196D01*
X113824504Y-134848796D01*
X113800000Y-134850000D01*
X110800000Y-134850000D01*
X110775496Y-134848796D01*
X110751227Y-134845196D01*
X110727429Y-134839235D01*
X110704329Y-134830970D01*
X110682151Y-134820480D01*
X110661107Y-134807867D01*
X110641402Y-134793253D01*
X110623223Y-134776777D01*
X110606747Y-134758598D01*
X110592133Y-134738893D01*
X110579520Y-134717849D01*
X110569030Y-134695671D01*
X110560765Y-134672571D01*
X110554804Y-134648773D01*
X110551204Y-134624504D01*
X110550000Y-134600000D01*
X110550000Y-133500000D01*
X110551204Y-133475496D01*
X110554804Y-133451227D01*
X110560765Y-133427429D01*
X110569030Y-133404329D01*
X110579520Y-133382151D01*
X110592133Y-133361107D01*
X110606747Y-133341402D01*
X110623223Y-133323223D01*
X110641402Y-133306747D01*
X110661107Y-133292133D01*
X110682151Y-133279520D01*
X110704329Y-133269030D01*
X110727429Y-133260765D01*
X110751227Y-133254804D01*
X110775496Y-133251204D01*
X110800000Y-133250000D01*
X113800000Y-133250000D01*
X113824504Y-133251204D01*
G37*
G36*
X119424504Y-133251204D02*
G01*
X119448773Y-133254804D01*
X119472571Y-133260765D01*
X119495671Y-133269030D01*
X119517849Y-133279520D01*
X119538893Y-133292133D01*
X119558598Y-133306747D01*
X119576777Y-133323223D01*
X119593253Y-133341402D01*
X119607867Y-133361107D01*
X119620480Y-133382151D01*
X119630970Y-133404329D01*
X119639235Y-133427429D01*
X119645196Y-133451227D01*
X119648796Y-133475496D01*
X119650000Y-133500000D01*
X119650000Y-134600000D01*
X119648796Y-134624504D01*
X119645196Y-134648773D01*
X119639235Y-134672571D01*
X119630970Y-134695671D01*
X119620480Y-134717849D01*
X119607867Y-134738893D01*
X119593253Y-134758598D01*
X119576777Y-134776777D01*
X119558598Y-134793253D01*
X119538893Y-134807867D01*
X119517849Y-134820480D01*
X119495671Y-134830970D01*
X119472571Y-134839235D01*
X119448773Y-134845196D01*
X119424504Y-134848796D01*
X119400000Y-134850000D01*
X116400000Y-134850000D01*
X116375496Y-134848796D01*
X116351227Y-134845196D01*
X116327429Y-134839235D01*
X116304329Y-134830970D01*
X116282151Y-134820480D01*
X116261107Y-134807867D01*
X116241402Y-134793253D01*
X116223223Y-134776777D01*
X116206747Y-134758598D01*
X116192133Y-134738893D01*
X116179520Y-134717849D01*
X116169030Y-134695671D01*
X116160765Y-134672571D01*
X116154804Y-134648773D01*
X116151204Y-134624504D01*
X116150000Y-134600000D01*
X116150000Y-133500000D01*
X116151204Y-133475496D01*
X116154804Y-133451227D01*
X116160765Y-133427429D01*
X116169030Y-133404329D01*
X116179520Y-133382151D01*
X116192133Y-133361107D01*
X116206747Y-133341402D01*
X116223223Y-133323223D01*
X116241402Y-133306747D01*
X116261107Y-133292133D01*
X116282151Y-133279520D01*
X116304329Y-133269030D01*
X116327429Y-133260765D01*
X116351227Y-133254804D01*
X116375496Y-133251204D01*
X116400000Y-133250000D01*
X119400000Y-133250000D01*
X119424504Y-133251204D01*
G37*
G36*
X169324504Y-115451204D02*
G01*
X169348773Y-115454804D01*
X169372571Y-115460765D01*
X169395671Y-115469030D01*
X169417849Y-115479520D01*
X169438893Y-115492133D01*
X169458598Y-115506747D01*
X169476777Y-115523223D01*
X169493253Y-115541402D01*
X169507867Y-115561107D01*
X169520480Y-115582151D01*
X169530970Y-115604329D01*
X169539235Y-115627429D01*
X169545196Y-115651227D01*
X169548796Y-115675496D01*
X169550000Y-115700000D01*
X169550000Y-116800000D01*
X169548796Y-116824504D01*
X169545196Y-116848773D01*
X169539235Y-116872571D01*
X169530970Y-116895671D01*
X169520480Y-116917849D01*
X169507867Y-116938893D01*
X169493253Y-116958598D01*
X169476777Y-116976777D01*
X169458598Y-116993253D01*
X169438893Y-117007867D01*
X169417849Y-117020480D01*
X169395671Y-117030970D01*
X169372571Y-117039235D01*
X169348773Y-117045196D01*
X169324504Y-117048796D01*
X169300000Y-117050000D01*
X166300000Y-117050000D01*
X166275496Y-117048796D01*
X166251227Y-117045196D01*
X166227429Y-117039235D01*
X166204329Y-117030970D01*
X166182151Y-117020480D01*
X166161107Y-117007867D01*
X166141402Y-116993253D01*
X166123223Y-116976777D01*
X166106747Y-116958598D01*
X166092133Y-116938893D01*
X166079520Y-116917849D01*
X166069030Y-116895671D01*
X166060765Y-116872571D01*
X166054804Y-116848773D01*
X166051204Y-116824504D01*
X166050000Y-116800000D01*
X166050000Y-115700000D01*
X166051204Y-115675496D01*
X166054804Y-115651227D01*
X166060765Y-115627429D01*
X166069030Y-115604329D01*
X166079520Y-115582151D01*
X166092133Y-115561107D01*
X166106747Y-115541402D01*
X166123223Y-115523223D01*
X166141402Y-115506747D01*
X166161107Y-115492133D01*
X166182151Y-115479520D01*
X166204329Y-115469030D01*
X166227429Y-115460765D01*
X166251227Y-115454804D01*
X166275496Y-115451204D01*
X166300000Y-115450000D01*
X169300000Y-115450000D01*
X169324504Y-115451204D01*
G37*
G36*
X163724504Y-115451204D02*
G01*
X163748773Y-115454804D01*
X163772571Y-115460765D01*
X163795671Y-115469030D01*
X163817849Y-115479520D01*
X163838893Y-115492133D01*
X163858598Y-115506747D01*
X163876777Y-115523223D01*
X163893253Y-115541402D01*
X163907867Y-115561107D01*
X163920480Y-115582151D01*
X163930970Y-115604329D01*
X163939235Y-115627429D01*
X163945196Y-115651227D01*
X163948796Y-115675496D01*
X163950000Y-115700000D01*
X163950000Y-116800000D01*
X163948796Y-116824504D01*
X163945196Y-116848773D01*
X163939235Y-116872571D01*
X163930970Y-116895671D01*
X163920480Y-116917849D01*
X163907867Y-116938893D01*
X163893253Y-116958598D01*
X163876777Y-116976777D01*
X163858598Y-116993253D01*
X163838893Y-117007867D01*
X163817849Y-117020480D01*
X163795671Y-117030970D01*
X163772571Y-117039235D01*
X163748773Y-117045196D01*
X163724504Y-117048796D01*
X163700000Y-117050000D01*
X160700000Y-117050000D01*
X160675496Y-117048796D01*
X160651227Y-117045196D01*
X160627429Y-117039235D01*
X160604329Y-117030970D01*
X160582151Y-117020480D01*
X160561107Y-117007867D01*
X160541402Y-116993253D01*
X160523223Y-116976777D01*
X160506747Y-116958598D01*
X160492133Y-116938893D01*
X160479520Y-116917849D01*
X160469030Y-116895671D01*
X160460765Y-116872571D01*
X160454804Y-116848773D01*
X160451204Y-116824504D01*
X160450000Y-116800000D01*
X160450000Y-115700000D01*
X160451204Y-115675496D01*
X160454804Y-115651227D01*
X160460765Y-115627429D01*
X160469030Y-115604329D01*
X160479520Y-115582151D01*
X160492133Y-115561107D01*
X160506747Y-115541402D01*
X160523223Y-115523223D01*
X160541402Y-115506747D01*
X160561107Y-115492133D01*
X160582151Y-115479520D01*
X160604329Y-115469030D01*
X160627429Y-115460765D01*
X160651227Y-115454804D01*
X160675496Y-115451204D01*
X160700000Y-115450000D01*
X163700000Y-115450000D01*
X163724504Y-115451204D01*
G37*
G36*
X164574504Y-57051204D02*
G01*
X164598773Y-57054804D01*
X164622571Y-57060765D01*
X164645671Y-57069030D01*
X164667849Y-57079520D01*
X164688893Y-57092133D01*
X164708598Y-57106747D01*
X164726777Y-57123223D01*
X164743253Y-57141402D01*
X164757867Y-57161107D01*
X164770480Y-57182151D01*
X164780970Y-57204329D01*
X164789235Y-57227429D01*
X164795196Y-57251227D01*
X164798796Y-57275496D01*
X164800000Y-57300000D01*
X164800000Y-60300000D01*
X164798796Y-60324504D01*
X164795196Y-60348773D01*
X164789235Y-60372571D01*
X164780970Y-60395671D01*
X164770480Y-60417849D01*
X164757867Y-60438893D01*
X164743253Y-60458598D01*
X164726777Y-60476777D01*
X164708598Y-60493253D01*
X164688893Y-60507867D01*
X164667849Y-60520480D01*
X164645671Y-60530970D01*
X164622571Y-60539235D01*
X164598773Y-60545196D01*
X164574504Y-60548796D01*
X164550000Y-60550000D01*
X163450000Y-60550000D01*
X163425496Y-60548796D01*
X163401227Y-60545196D01*
X163377429Y-60539235D01*
X163354329Y-60530970D01*
X163332151Y-60520480D01*
X163311107Y-60507867D01*
X163291402Y-60493253D01*
X163273223Y-60476777D01*
X163256747Y-60458598D01*
X163242133Y-60438893D01*
X163229520Y-60417849D01*
X163219030Y-60395671D01*
X163210765Y-60372571D01*
X163204804Y-60348773D01*
X163201204Y-60324504D01*
X163200000Y-60300000D01*
X163200000Y-57300000D01*
X163201204Y-57275496D01*
X163204804Y-57251227D01*
X163210765Y-57227429D01*
X163219030Y-57204329D01*
X163229520Y-57182151D01*
X163242133Y-57161107D01*
X163256747Y-57141402D01*
X163273223Y-57123223D01*
X163291402Y-57106747D01*
X163311107Y-57092133D01*
X163332151Y-57079520D01*
X163354329Y-57069030D01*
X163377429Y-57060765D01*
X163401227Y-57054804D01*
X163425496Y-57051204D01*
X163450000Y-57050000D01*
X164550000Y-57050000D01*
X164574504Y-57051204D01*
G37*
G36*
X164574504Y-51451204D02*
G01*
X164598773Y-51454804D01*
X164622571Y-51460765D01*
X164645671Y-51469030D01*
X164667849Y-51479520D01*
X164688893Y-51492133D01*
X164708598Y-51506747D01*
X164726777Y-51523223D01*
X164743253Y-51541402D01*
X164757867Y-51561107D01*
X164770480Y-51582151D01*
X164780970Y-51604329D01*
X164789235Y-51627429D01*
X164795196Y-51651227D01*
X164798796Y-51675496D01*
X164800000Y-51700000D01*
X164800000Y-54700000D01*
X164798796Y-54724504D01*
X164795196Y-54748773D01*
X164789235Y-54772571D01*
X164780970Y-54795671D01*
X164770480Y-54817849D01*
X164757867Y-54838893D01*
X164743253Y-54858598D01*
X164726777Y-54876777D01*
X164708598Y-54893253D01*
X164688893Y-54907867D01*
X164667849Y-54920480D01*
X164645671Y-54930970D01*
X164622571Y-54939235D01*
X164598773Y-54945196D01*
X164574504Y-54948796D01*
X164550000Y-54950000D01*
X163450000Y-54950000D01*
X163425496Y-54948796D01*
X163401227Y-54945196D01*
X163377429Y-54939235D01*
X163354329Y-54930970D01*
X163332151Y-54920480D01*
X163311107Y-54907867D01*
X163291402Y-54893253D01*
X163273223Y-54876777D01*
X163256747Y-54858598D01*
X163242133Y-54838893D01*
X163229520Y-54817849D01*
X163219030Y-54795671D01*
X163210765Y-54772571D01*
X163204804Y-54748773D01*
X163201204Y-54724504D01*
X163200000Y-54700000D01*
X163200000Y-51700000D01*
X163201204Y-51675496D01*
X163204804Y-51651227D01*
X163210765Y-51627429D01*
X163219030Y-51604329D01*
X163229520Y-51582151D01*
X163242133Y-51561107D01*
X163256747Y-51541402D01*
X163273223Y-51523223D01*
X163291402Y-51506747D01*
X163311107Y-51492133D01*
X163332151Y-51479520D01*
X163354329Y-51469030D01*
X163377429Y-51460765D01*
X163401227Y-51454804D01*
X163425496Y-51451204D01*
X163450000Y-51450000D01*
X164550000Y-51450000D01*
X164574504Y-51451204D01*
G37*
G36*
X116030142Y-42063674D02*
G01*
X116053803Y-42067184D01*
X116077007Y-42072996D01*
X116099529Y-42081054D01*
X116121153Y-42091282D01*
X116141670Y-42103579D01*
X116160883Y-42117829D01*
X116178607Y-42133893D01*
X116194671Y-42151617D01*
X116208921Y-42170830D01*
X116221218Y-42191347D01*
X116231446Y-42212971D01*
X116239504Y-42235493D01*
X116245316Y-42258697D01*
X116248826Y-42282358D01*
X116250000Y-42306250D01*
X116250000Y-42793750D01*
X116248826Y-42817642D01*
X116245316Y-42841303D01*
X116239504Y-42864507D01*
X116231446Y-42887029D01*
X116221218Y-42908653D01*
X116208921Y-42929170D01*
X116194671Y-42948383D01*
X116178607Y-42966107D01*
X116160883Y-42982171D01*
X116141670Y-42996421D01*
X116121153Y-43008718D01*
X116099529Y-43018946D01*
X116077007Y-43027004D01*
X116053803Y-43032816D01*
X116030142Y-43036326D01*
X116006250Y-43037500D01*
X115093750Y-43037500D01*
X115069858Y-43036326D01*
X115046197Y-43032816D01*
X115022993Y-43027004D01*
X115000471Y-43018946D01*
X114978847Y-43008718D01*
X114958330Y-42996421D01*
X114939117Y-42982171D01*
X114921393Y-42966107D01*
X114905329Y-42948383D01*
X114891079Y-42929170D01*
X114878782Y-42908653D01*
X114868554Y-42887029D01*
X114860496Y-42864507D01*
X114854684Y-42841303D01*
X114851174Y-42817642D01*
X114850000Y-42793750D01*
X114850000Y-42306250D01*
X114851174Y-42282358D01*
X114854684Y-42258697D01*
X114860496Y-42235493D01*
X114868554Y-42212971D01*
X114878782Y-42191347D01*
X114891079Y-42170830D01*
X114905329Y-42151617D01*
X114921393Y-42133893D01*
X114939117Y-42117829D01*
X114958330Y-42103579D01*
X114978847Y-42091282D01*
X115000471Y-42081054D01*
X115022993Y-42072996D01*
X115046197Y-42067184D01*
X115069858Y-42063674D01*
X115093750Y-42062500D01*
X116006250Y-42062500D01*
X116030142Y-42063674D01*
G37*
G36*
X116030142Y-40188674D02*
G01*
X116053803Y-40192184D01*
X116077007Y-40197996D01*
X116099529Y-40206054D01*
X116121153Y-40216282D01*
X116141670Y-40228579D01*
X116160883Y-40242829D01*
X116178607Y-40258893D01*
X116194671Y-40276617D01*
X116208921Y-40295830D01*
X116221218Y-40316347D01*
X116231446Y-40337971D01*
X116239504Y-40360493D01*
X116245316Y-40383697D01*
X116248826Y-40407358D01*
X116250000Y-40431250D01*
X116250000Y-40918750D01*
X116248826Y-40942642D01*
X116245316Y-40966303D01*
X116239504Y-40989507D01*
X116231446Y-41012029D01*
X116221218Y-41033653D01*
X116208921Y-41054170D01*
X116194671Y-41073383D01*
X116178607Y-41091107D01*
X116160883Y-41107171D01*
X116141670Y-41121421D01*
X116121153Y-41133718D01*
X116099529Y-41143946D01*
X116077007Y-41152004D01*
X116053803Y-41157816D01*
X116030142Y-41161326D01*
X116006250Y-41162500D01*
X115093750Y-41162500D01*
X115069858Y-41161326D01*
X115046197Y-41157816D01*
X115022993Y-41152004D01*
X115000471Y-41143946D01*
X114978847Y-41133718D01*
X114958330Y-41121421D01*
X114939117Y-41107171D01*
X114921393Y-41091107D01*
X114905329Y-41073383D01*
X114891079Y-41054170D01*
X114878782Y-41033653D01*
X114868554Y-41012029D01*
X114860496Y-40989507D01*
X114854684Y-40966303D01*
X114851174Y-40942642D01*
X114850000Y-40918750D01*
X114850000Y-40431250D01*
X114851174Y-40407358D01*
X114854684Y-40383697D01*
X114860496Y-40360493D01*
X114868554Y-40337971D01*
X114878782Y-40316347D01*
X114891079Y-40295830D01*
X114905329Y-40276617D01*
X114921393Y-40258893D01*
X114939117Y-40242829D01*
X114958330Y-40228579D01*
X114978847Y-40216282D01*
X115000471Y-40206054D01*
X115022993Y-40197996D01*
X115046197Y-40192184D01*
X115069858Y-40188674D01*
X115093750Y-40187500D01*
X116006250Y-40187500D01*
X116030142Y-40188674D01*
G37*
G36*
X120030142Y-40188674D02*
G01*
X120053803Y-40192184D01*
X120077007Y-40197996D01*
X120099529Y-40206054D01*
X120121153Y-40216282D01*
X120141670Y-40228579D01*
X120160883Y-40242829D01*
X120178607Y-40258893D01*
X120194671Y-40276617D01*
X120208921Y-40295830D01*
X120221218Y-40316347D01*
X120231446Y-40337971D01*
X120239504Y-40360493D01*
X120245316Y-40383697D01*
X120248826Y-40407358D01*
X120250000Y-40431250D01*
X120250000Y-40918750D01*
X120248826Y-40942642D01*
X120245316Y-40966303D01*
X120239504Y-40989507D01*
X120231446Y-41012029D01*
X120221218Y-41033653D01*
X120208921Y-41054170D01*
X120194671Y-41073383D01*
X120178607Y-41091107D01*
X120160883Y-41107171D01*
X120141670Y-41121421D01*
X120121153Y-41133718D01*
X120099529Y-41143946D01*
X120077007Y-41152004D01*
X120053803Y-41157816D01*
X120030142Y-41161326D01*
X120006250Y-41162500D01*
X119093750Y-41162500D01*
X119069858Y-41161326D01*
X119046197Y-41157816D01*
X119022993Y-41152004D01*
X119000471Y-41143946D01*
X118978847Y-41133718D01*
X118958330Y-41121421D01*
X118939117Y-41107171D01*
X118921393Y-41091107D01*
X118905329Y-41073383D01*
X118891079Y-41054170D01*
X118878782Y-41033653D01*
X118868554Y-41012029D01*
X118860496Y-40989507D01*
X118854684Y-40966303D01*
X118851174Y-40942642D01*
X118850000Y-40918750D01*
X118850000Y-40431250D01*
X118851174Y-40407358D01*
X118854684Y-40383697D01*
X118860496Y-40360493D01*
X118868554Y-40337971D01*
X118878782Y-40316347D01*
X118891079Y-40295830D01*
X118905329Y-40276617D01*
X118921393Y-40258893D01*
X118939117Y-40242829D01*
X118958330Y-40228579D01*
X118978847Y-40216282D01*
X119000471Y-40206054D01*
X119022993Y-40197996D01*
X119046197Y-40192184D01*
X119069858Y-40188674D01*
X119093750Y-40187500D01*
X120006250Y-40187500D01*
X120030142Y-40188674D01*
G37*
G36*
X120030142Y-42063674D02*
G01*
X120053803Y-42067184D01*
X120077007Y-42072996D01*
X120099529Y-42081054D01*
X120121153Y-42091282D01*
X120141670Y-42103579D01*
X120160883Y-42117829D01*
X120178607Y-42133893D01*
X120194671Y-42151617D01*
X120208921Y-42170830D01*
X120221218Y-42191347D01*
X120231446Y-42212971D01*
X120239504Y-42235493D01*
X120245316Y-42258697D01*
X120248826Y-42282358D01*
X120250000Y-42306250D01*
X120250000Y-42793750D01*
X120248826Y-42817642D01*
X120245316Y-42841303D01*
X120239504Y-42864507D01*
X120231446Y-42887029D01*
X120221218Y-42908653D01*
X120208921Y-42929170D01*
X120194671Y-42948383D01*
X120178607Y-42966107D01*
X120160883Y-42982171D01*
X120141670Y-42996421D01*
X120121153Y-43008718D01*
X120099529Y-43018946D01*
X120077007Y-43027004D01*
X120053803Y-43032816D01*
X120030142Y-43036326D01*
X120006250Y-43037500D01*
X119093750Y-43037500D01*
X119069858Y-43036326D01*
X119046197Y-43032816D01*
X119022993Y-43027004D01*
X119000471Y-43018946D01*
X118978847Y-43008718D01*
X118958330Y-42996421D01*
X118939117Y-42982171D01*
X118921393Y-42966107D01*
X118905329Y-42948383D01*
X118891079Y-42929170D01*
X118878782Y-42908653D01*
X118868554Y-42887029D01*
X118860496Y-42864507D01*
X118854684Y-42841303D01*
X118851174Y-42817642D01*
X118850000Y-42793750D01*
X118850000Y-42306250D01*
X118851174Y-42282358D01*
X118854684Y-42258697D01*
X118860496Y-42235493D01*
X118868554Y-42212971D01*
X118878782Y-42191347D01*
X118891079Y-42170830D01*
X118905329Y-42151617D01*
X118921393Y-42133893D01*
X118939117Y-42117829D01*
X118958330Y-42103579D01*
X118978847Y-42091282D01*
X119000471Y-42081054D01*
X119022993Y-42072996D01*
X119046197Y-42067184D01*
X119069858Y-42063674D01*
X119093750Y-42062500D01*
X120006250Y-42062500D01*
X120030142Y-42063674D01*
G37*
D12*
X126964000Y-64280000D03*
X131536000Y-64280000D03*
D11*
G36*
X122180142Y-54963674D02*
G01*
X122203803Y-54967184D01*
X122227007Y-54972996D01*
X122249529Y-54981054D01*
X122271153Y-54991282D01*
X122291670Y-55003579D01*
X122310883Y-55017829D01*
X122328607Y-55033893D01*
X122344671Y-55051617D01*
X122358921Y-55070830D01*
X122371218Y-55091347D01*
X122381446Y-55112971D01*
X122389504Y-55135493D01*
X122395316Y-55158697D01*
X122398826Y-55182358D01*
X122400000Y-55206250D01*
X122400000Y-55693750D01*
X122398826Y-55717642D01*
X122395316Y-55741303D01*
X122389504Y-55764507D01*
X122381446Y-55787029D01*
X122371218Y-55808653D01*
X122358921Y-55829170D01*
X122344671Y-55848383D01*
X122328607Y-55866107D01*
X122310883Y-55882171D01*
X122291670Y-55896421D01*
X122271153Y-55908718D01*
X122249529Y-55918946D01*
X122227007Y-55927004D01*
X122203803Y-55932816D01*
X122180142Y-55936326D01*
X122156250Y-55937500D01*
X121243750Y-55937500D01*
X121219858Y-55936326D01*
X121196197Y-55932816D01*
X121172993Y-55927004D01*
X121150471Y-55918946D01*
X121128847Y-55908718D01*
X121108330Y-55896421D01*
X121089117Y-55882171D01*
X121071393Y-55866107D01*
X121055329Y-55848383D01*
X121041079Y-55829170D01*
X121028782Y-55808653D01*
X121018554Y-55787029D01*
X121010496Y-55764507D01*
X121004684Y-55741303D01*
X121001174Y-55717642D01*
X121000000Y-55693750D01*
X121000000Y-55206250D01*
X121001174Y-55182358D01*
X121004684Y-55158697D01*
X121010496Y-55135493D01*
X121018554Y-55112971D01*
X121028782Y-55091347D01*
X121041079Y-55070830D01*
X121055329Y-55051617D01*
X121071393Y-55033893D01*
X121089117Y-55017829D01*
X121108330Y-55003579D01*
X121128847Y-54991282D01*
X121150471Y-54981054D01*
X121172993Y-54972996D01*
X121196197Y-54967184D01*
X121219858Y-54963674D01*
X121243750Y-54962500D01*
X122156250Y-54962500D01*
X122180142Y-54963674D01*
G37*
G36*
X122180142Y-53088674D02*
G01*
X122203803Y-53092184D01*
X122227007Y-53097996D01*
X122249529Y-53106054D01*
X122271153Y-53116282D01*
X122291670Y-53128579D01*
X122310883Y-53142829D01*
X122328607Y-53158893D01*
X122344671Y-53176617D01*
X122358921Y-53195830D01*
X122371218Y-53216347D01*
X122381446Y-53237971D01*
X122389504Y-53260493D01*
X122395316Y-53283697D01*
X122398826Y-53307358D01*
X122400000Y-53331250D01*
X122400000Y-53818750D01*
X122398826Y-53842642D01*
X122395316Y-53866303D01*
X122389504Y-53889507D01*
X122381446Y-53912029D01*
X122371218Y-53933653D01*
X122358921Y-53954170D01*
X122344671Y-53973383D01*
X122328607Y-53991107D01*
X122310883Y-54007171D01*
X122291670Y-54021421D01*
X122271153Y-54033718D01*
X122249529Y-54043946D01*
X122227007Y-54052004D01*
X122203803Y-54057816D01*
X122180142Y-54061326D01*
X122156250Y-54062500D01*
X121243750Y-54062500D01*
X121219858Y-54061326D01*
X121196197Y-54057816D01*
X121172993Y-54052004D01*
X121150471Y-54043946D01*
X121128847Y-54033718D01*
X121108330Y-54021421D01*
X121089117Y-54007171D01*
X121071393Y-53991107D01*
X121055329Y-53973383D01*
X121041079Y-53954170D01*
X121028782Y-53933653D01*
X121018554Y-53912029D01*
X121010496Y-53889507D01*
X121004684Y-53866303D01*
X121001174Y-53842642D01*
X121000000Y-53818750D01*
X121000000Y-53331250D01*
X121001174Y-53307358D01*
X121004684Y-53283697D01*
X121010496Y-53260493D01*
X121018554Y-53237971D01*
X121028782Y-53216347D01*
X121041079Y-53195830D01*
X121055329Y-53176617D01*
X121071393Y-53158893D01*
X121089117Y-53142829D01*
X121108330Y-53128579D01*
X121128847Y-53116282D01*
X121150471Y-53106054D01*
X121172993Y-53097996D01*
X121196197Y-53092184D01*
X121219858Y-53088674D01*
X121243750Y-53087500D01*
X122156250Y-53087500D01*
X122180142Y-53088674D01*
G37*
G36*
X130130142Y-122951174D02*
G01*
X130153803Y-122954684D01*
X130177007Y-122960496D01*
X130199529Y-122968554D01*
X130221153Y-122978782D01*
X130241670Y-122991079D01*
X130260883Y-123005329D01*
X130278607Y-123021393D01*
X130294671Y-123039117D01*
X130308921Y-123058330D01*
X130321218Y-123078847D01*
X130331446Y-123100471D01*
X130339504Y-123122993D01*
X130345316Y-123146197D01*
X130348826Y-123169858D01*
X130350000Y-123193750D01*
X130350000Y-123681250D01*
X130348826Y-123705142D01*
X130345316Y-123728803D01*
X130339504Y-123752007D01*
X130331446Y-123774529D01*
X130321218Y-123796153D01*
X130308921Y-123816670D01*
X130294671Y-123835883D01*
X130278607Y-123853607D01*
X130260883Y-123869671D01*
X130241670Y-123883921D01*
X130221153Y-123896218D01*
X130199529Y-123906446D01*
X130177007Y-123914504D01*
X130153803Y-123920316D01*
X130130142Y-123923826D01*
X130106250Y-123925000D01*
X129193750Y-123925000D01*
X129169858Y-123923826D01*
X129146197Y-123920316D01*
X129122993Y-123914504D01*
X129100471Y-123906446D01*
X129078847Y-123896218D01*
X129058330Y-123883921D01*
X129039117Y-123869671D01*
X129021393Y-123853607D01*
X129005329Y-123835883D01*
X128991079Y-123816670D01*
X128978782Y-123796153D01*
X128968554Y-123774529D01*
X128960496Y-123752007D01*
X128954684Y-123728803D01*
X128951174Y-123705142D01*
X128950000Y-123681250D01*
X128950000Y-123193750D01*
X128951174Y-123169858D01*
X128954684Y-123146197D01*
X128960496Y-123122993D01*
X128968554Y-123100471D01*
X128978782Y-123078847D01*
X128991079Y-123058330D01*
X129005329Y-123039117D01*
X129021393Y-123021393D01*
X129039117Y-123005329D01*
X129058330Y-122991079D01*
X129078847Y-122978782D01*
X129100471Y-122968554D01*
X129122993Y-122960496D01*
X129146197Y-122954684D01*
X129169858Y-122951174D01*
X129193750Y-122950000D01*
X130106250Y-122950000D01*
X130130142Y-122951174D01*
G37*
G36*
X130130142Y-121076174D02*
G01*
X130153803Y-121079684D01*
X130177007Y-121085496D01*
X130199529Y-121093554D01*
X130221153Y-121103782D01*
X130241670Y-121116079D01*
X130260883Y-121130329D01*
X130278607Y-121146393D01*
X130294671Y-121164117D01*
X130308921Y-121183330D01*
X130321218Y-121203847D01*
X130331446Y-121225471D01*
X130339504Y-121247993D01*
X130345316Y-121271197D01*
X130348826Y-121294858D01*
X130350000Y-121318750D01*
X130350000Y-121806250D01*
X130348826Y-121830142D01*
X130345316Y-121853803D01*
X130339504Y-121877007D01*
X130331446Y-121899529D01*
X130321218Y-121921153D01*
X130308921Y-121941670D01*
X130294671Y-121960883D01*
X130278607Y-121978607D01*
X130260883Y-121994671D01*
X130241670Y-122008921D01*
X130221153Y-122021218D01*
X130199529Y-122031446D01*
X130177007Y-122039504D01*
X130153803Y-122045316D01*
X130130142Y-122048826D01*
X130106250Y-122050000D01*
X129193750Y-122050000D01*
X129169858Y-122048826D01*
X129146197Y-122045316D01*
X129122993Y-122039504D01*
X129100471Y-122031446D01*
X129078847Y-122021218D01*
X129058330Y-122008921D01*
X129039117Y-121994671D01*
X129021393Y-121978607D01*
X129005329Y-121960883D01*
X128991079Y-121941670D01*
X128978782Y-121921153D01*
X128968554Y-121899529D01*
X128960496Y-121877007D01*
X128954684Y-121853803D01*
X128951174Y-121830142D01*
X128950000Y-121806250D01*
X128950000Y-121318750D01*
X128951174Y-121294858D01*
X128954684Y-121271197D01*
X128960496Y-121247993D01*
X128968554Y-121225471D01*
X128978782Y-121203847D01*
X128991079Y-121183330D01*
X129005329Y-121164117D01*
X129021393Y-121146393D01*
X129039117Y-121130329D01*
X129058330Y-121116079D01*
X129078847Y-121103782D01*
X129100471Y-121093554D01*
X129122993Y-121085496D01*
X129146197Y-121079684D01*
X129169858Y-121076174D01*
X129193750Y-121075000D01*
X130106250Y-121075000D01*
X130130142Y-121076174D01*
G37*
G36*
X153017642Y-130551174D02*
G01*
X153041303Y-130554684D01*
X153064507Y-130560496D01*
X153087029Y-130568554D01*
X153108653Y-130578782D01*
X153129170Y-130591079D01*
X153148383Y-130605329D01*
X153166107Y-130621393D01*
X153182171Y-130639117D01*
X153196421Y-130658330D01*
X153208718Y-130678847D01*
X153218946Y-130700471D01*
X153227004Y-130722993D01*
X153232816Y-130746197D01*
X153236326Y-130769858D01*
X153237500Y-130793750D01*
X153237500Y-131706250D01*
X153236326Y-131730142D01*
X153232816Y-131753803D01*
X153227004Y-131777007D01*
X153218946Y-131799529D01*
X153208718Y-131821153D01*
X153196421Y-131841670D01*
X153182171Y-131860883D01*
X153166107Y-131878607D01*
X153148383Y-131894671D01*
X153129170Y-131908921D01*
X153108653Y-131921218D01*
X153087029Y-131931446D01*
X153064507Y-131939504D01*
X153041303Y-131945316D01*
X153017642Y-131948826D01*
X152993750Y-131950000D01*
X152506250Y-131950000D01*
X152482358Y-131948826D01*
X152458697Y-131945316D01*
X152435493Y-131939504D01*
X152412971Y-131931446D01*
X152391347Y-131921218D01*
X152370830Y-131908921D01*
X152351617Y-131894671D01*
X152333893Y-131878607D01*
X152317829Y-131860883D01*
X152303579Y-131841670D01*
X152291282Y-131821153D01*
X152281054Y-131799529D01*
X152272996Y-131777007D01*
X152267184Y-131753803D01*
X152263674Y-131730142D01*
X152262500Y-131706250D01*
X152262500Y-130793750D01*
X152263674Y-130769858D01*
X152267184Y-130746197D01*
X152272996Y-130722993D01*
X152281054Y-130700471D01*
X152291282Y-130678847D01*
X152303579Y-130658330D01*
X152317829Y-130639117D01*
X152333893Y-130621393D01*
X152351617Y-130605329D01*
X152370830Y-130591079D01*
X152391347Y-130578782D01*
X152412971Y-130568554D01*
X152435493Y-130560496D01*
X152458697Y-130554684D01*
X152482358Y-130551174D01*
X152506250Y-130550000D01*
X152993750Y-130550000D01*
X153017642Y-130551174D01*
G37*
G36*
X151142642Y-130551174D02*
G01*
X151166303Y-130554684D01*
X151189507Y-130560496D01*
X151212029Y-130568554D01*
X151233653Y-130578782D01*
X151254170Y-130591079D01*
X151273383Y-130605329D01*
X151291107Y-130621393D01*
X151307171Y-130639117D01*
X151321421Y-130658330D01*
X151333718Y-130678847D01*
X151343946Y-130700471D01*
X151352004Y-130722993D01*
X151357816Y-130746197D01*
X151361326Y-130769858D01*
X151362500Y-130793750D01*
X151362500Y-131706250D01*
X151361326Y-131730142D01*
X151357816Y-131753803D01*
X151352004Y-131777007D01*
X151343946Y-131799529D01*
X151333718Y-131821153D01*
X151321421Y-131841670D01*
X151307171Y-131860883D01*
X151291107Y-131878607D01*
X151273383Y-131894671D01*
X151254170Y-131908921D01*
X151233653Y-131921218D01*
X151212029Y-131931446D01*
X151189507Y-131939504D01*
X151166303Y-131945316D01*
X151142642Y-131948826D01*
X151118750Y-131950000D01*
X150631250Y-131950000D01*
X150607358Y-131948826D01*
X150583697Y-131945316D01*
X150560493Y-131939504D01*
X150537971Y-131931446D01*
X150516347Y-131921218D01*
X150495830Y-131908921D01*
X150476617Y-131894671D01*
X150458893Y-131878607D01*
X150442829Y-131860883D01*
X150428579Y-131841670D01*
X150416282Y-131821153D01*
X150406054Y-131799529D01*
X150397996Y-131777007D01*
X150392184Y-131753803D01*
X150388674Y-131730142D01*
X150387500Y-131706250D01*
X150387500Y-130793750D01*
X150388674Y-130769858D01*
X150392184Y-130746197D01*
X150397996Y-130722993D01*
X150406054Y-130700471D01*
X150416282Y-130678847D01*
X150428579Y-130658330D01*
X150442829Y-130639117D01*
X150458893Y-130621393D01*
X150476617Y-130605329D01*
X150495830Y-130591079D01*
X150516347Y-130578782D01*
X150537971Y-130568554D01*
X150560493Y-130560496D01*
X150583697Y-130554684D01*
X150607358Y-130551174D01*
X150631250Y-130550000D01*
X151118750Y-130550000D01*
X151142642Y-130551174D01*
G37*
G36*
X157980142Y-87326174D02*
G01*
X158003803Y-87329684D01*
X158027007Y-87335496D01*
X158049529Y-87343554D01*
X158071153Y-87353782D01*
X158091670Y-87366079D01*
X158110883Y-87380329D01*
X158128607Y-87396393D01*
X158144671Y-87414117D01*
X158158921Y-87433330D01*
X158171218Y-87453847D01*
X158181446Y-87475471D01*
X158189504Y-87497993D01*
X158195316Y-87521197D01*
X158198826Y-87544858D01*
X158200000Y-87568750D01*
X158200000Y-88056250D01*
X158198826Y-88080142D01*
X158195316Y-88103803D01*
X158189504Y-88127007D01*
X158181446Y-88149529D01*
X158171218Y-88171153D01*
X158158921Y-88191670D01*
X158144671Y-88210883D01*
X158128607Y-88228607D01*
X158110883Y-88244671D01*
X158091670Y-88258921D01*
X158071153Y-88271218D01*
X158049529Y-88281446D01*
X158027007Y-88289504D01*
X158003803Y-88295316D01*
X157980142Y-88298826D01*
X157956250Y-88300000D01*
X157043750Y-88300000D01*
X157019858Y-88298826D01*
X156996197Y-88295316D01*
X156972993Y-88289504D01*
X156950471Y-88281446D01*
X156928847Y-88271218D01*
X156908330Y-88258921D01*
X156889117Y-88244671D01*
X156871393Y-88228607D01*
X156855329Y-88210883D01*
X156841079Y-88191670D01*
X156828782Y-88171153D01*
X156818554Y-88149529D01*
X156810496Y-88127007D01*
X156804684Y-88103803D01*
X156801174Y-88080142D01*
X156800000Y-88056250D01*
X156800000Y-87568750D01*
X156801174Y-87544858D01*
X156804684Y-87521197D01*
X156810496Y-87497993D01*
X156818554Y-87475471D01*
X156828782Y-87453847D01*
X156841079Y-87433330D01*
X156855329Y-87414117D01*
X156871393Y-87396393D01*
X156889117Y-87380329D01*
X156908330Y-87366079D01*
X156928847Y-87353782D01*
X156950471Y-87343554D01*
X156972993Y-87335496D01*
X156996197Y-87329684D01*
X157019858Y-87326174D01*
X157043750Y-87325000D01*
X157956250Y-87325000D01*
X157980142Y-87326174D01*
G37*
G36*
X157980142Y-89201174D02*
G01*
X158003803Y-89204684D01*
X158027007Y-89210496D01*
X158049529Y-89218554D01*
X158071153Y-89228782D01*
X158091670Y-89241079D01*
X158110883Y-89255329D01*
X158128607Y-89271393D01*
X158144671Y-89289117D01*
X158158921Y-89308330D01*
X158171218Y-89328847D01*
X158181446Y-89350471D01*
X158189504Y-89372993D01*
X158195316Y-89396197D01*
X158198826Y-89419858D01*
X158200000Y-89443750D01*
X158200000Y-89931250D01*
X158198826Y-89955142D01*
X158195316Y-89978803D01*
X158189504Y-90002007D01*
X158181446Y-90024529D01*
X158171218Y-90046153D01*
X158158921Y-90066670D01*
X158144671Y-90085883D01*
X158128607Y-90103607D01*
X158110883Y-90119671D01*
X158091670Y-90133921D01*
X158071153Y-90146218D01*
X158049529Y-90156446D01*
X158027007Y-90164504D01*
X158003803Y-90170316D01*
X157980142Y-90173826D01*
X157956250Y-90175000D01*
X157043750Y-90175000D01*
X157019858Y-90173826D01*
X156996197Y-90170316D01*
X156972993Y-90164504D01*
X156950471Y-90156446D01*
X156928847Y-90146218D01*
X156908330Y-90133921D01*
X156889117Y-90119671D01*
X156871393Y-90103607D01*
X156855329Y-90085883D01*
X156841079Y-90066670D01*
X156828782Y-90046153D01*
X156818554Y-90024529D01*
X156810496Y-90002007D01*
X156804684Y-89978803D01*
X156801174Y-89955142D01*
X156800000Y-89931250D01*
X156800000Y-89443750D01*
X156801174Y-89419858D01*
X156804684Y-89396197D01*
X156810496Y-89372993D01*
X156818554Y-89350471D01*
X156828782Y-89328847D01*
X156841079Y-89308330D01*
X156855329Y-89289117D01*
X156871393Y-89271393D01*
X156889117Y-89255329D01*
X156908330Y-89241079D01*
X156928847Y-89228782D01*
X156950471Y-89218554D01*
X156972993Y-89210496D01*
X156996197Y-89204684D01*
X157019858Y-89201174D01*
X157043750Y-89200000D01*
X157956250Y-89200000D01*
X157980142Y-89201174D01*
G37*
G36*
X129130142Y-71151174D02*
G01*
X129153803Y-71154684D01*
X129177007Y-71160496D01*
X129199529Y-71168554D01*
X129221153Y-71178782D01*
X129241670Y-71191079D01*
X129260883Y-71205329D01*
X129278607Y-71221393D01*
X129294671Y-71239117D01*
X129308921Y-71258330D01*
X129321218Y-71278847D01*
X129331446Y-71300471D01*
X129339504Y-71322993D01*
X129345316Y-71346197D01*
X129348826Y-71369858D01*
X129350000Y-71393750D01*
X129350000Y-71881250D01*
X129348826Y-71905142D01*
X129345316Y-71928803D01*
X129339504Y-71952007D01*
X129331446Y-71974529D01*
X129321218Y-71996153D01*
X129308921Y-72016670D01*
X129294671Y-72035883D01*
X129278607Y-72053607D01*
X129260883Y-72069671D01*
X129241670Y-72083921D01*
X129221153Y-72096218D01*
X129199529Y-72106446D01*
X129177007Y-72114504D01*
X129153803Y-72120316D01*
X129130142Y-72123826D01*
X129106250Y-72125000D01*
X128193750Y-72125000D01*
X128169858Y-72123826D01*
X128146197Y-72120316D01*
X128122993Y-72114504D01*
X128100471Y-72106446D01*
X128078847Y-72096218D01*
X128058330Y-72083921D01*
X128039117Y-72069671D01*
X128021393Y-72053607D01*
X128005329Y-72035883D01*
X127991079Y-72016670D01*
X127978782Y-71996153D01*
X127968554Y-71974529D01*
X127960496Y-71952007D01*
X127954684Y-71928803D01*
X127951174Y-71905142D01*
X127950000Y-71881250D01*
X127950000Y-71393750D01*
X127951174Y-71369858D01*
X127954684Y-71346197D01*
X127960496Y-71322993D01*
X127968554Y-71300471D01*
X127978782Y-71278847D01*
X127991079Y-71258330D01*
X128005329Y-71239117D01*
X128021393Y-71221393D01*
X128039117Y-71205329D01*
X128058330Y-71191079D01*
X128078847Y-71178782D01*
X128100471Y-71168554D01*
X128122993Y-71160496D01*
X128146197Y-71154684D01*
X128169858Y-71151174D01*
X128193750Y-71150000D01*
X129106250Y-71150000D01*
X129130142Y-71151174D01*
G37*
G36*
X129130142Y-69276174D02*
G01*
X129153803Y-69279684D01*
X129177007Y-69285496D01*
X129199529Y-69293554D01*
X129221153Y-69303782D01*
X129241670Y-69316079D01*
X129260883Y-69330329D01*
X129278607Y-69346393D01*
X129294671Y-69364117D01*
X129308921Y-69383330D01*
X129321218Y-69403847D01*
X129331446Y-69425471D01*
X129339504Y-69447993D01*
X129345316Y-69471197D01*
X129348826Y-69494858D01*
X129350000Y-69518750D01*
X129350000Y-70006250D01*
X129348826Y-70030142D01*
X129345316Y-70053803D01*
X129339504Y-70077007D01*
X129331446Y-70099529D01*
X129321218Y-70121153D01*
X129308921Y-70141670D01*
X129294671Y-70160883D01*
X129278607Y-70178607D01*
X129260883Y-70194671D01*
X129241670Y-70208921D01*
X129221153Y-70221218D01*
X129199529Y-70231446D01*
X129177007Y-70239504D01*
X129153803Y-70245316D01*
X129130142Y-70248826D01*
X129106250Y-70250000D01*
X128193750Y-70250000D01*
X128169858Y-70248826D01*
X128146197Y-70245316D01*
X128122993Y-70239504D01*
X128100471Y-70231446D01*
X128078847Y-70221218D01*
X128058330Y-70208921D01*
X128039117Y-70194671D01*
X128021393Y-70178607D01*
X128005329Y-70160883D01*
X127991079Y-70141670D01*
X127978782Y-70121153D01*
X127968554Y-70099529D01*
X127960496Y-70077007D01*
X127954684Y-70053803D01*
X127951174Y-70030142D01*
X127950000Y-70006250D01*
X127950000Y-69518750D01*
X127951174Y-69494858D01*
X127954684Y-69471197D01*
X127960496Y-69447993D01*
X127968554Y-69425471D01*
X127978782Y-69403847D01*
X127991079Y-69383330D01*
X128005329Y-69364117D01*
X128021393Y-69346393D01*
X128039117Y-69330329D01*
X128058330Y-69316079D01*
X128078847Y-69303782D01*
X128100471Y-69293554D01*
X128122993Y-69285496D01*
X128146197Y-69279684D01*
X128169858Y-69276174D01*
X128193750Y-69275000D01*
X129106250Y-69275000D01*
X129130142Y-69276174D01*
G37*
G36*
X156980142Y-124826174D02*
G01*
X157003803Y-124829684D01*
X157027007Y-124835496D01*
X157049529Y-124843554D01*
X157071153Y-124853782D01*
X157091670Y-124866079D01*
X157110883Y-124880329D01*
X157128607Y-124896393D01*
X157144671Y-124914117D01*
X157158921Y-124933330D01*
X157171218Y-124953847D01*
X157181446Y-124975471D01*
X157189504Y-124997993D01*
X157195316Y-125021197D01*
X157198826Y-125044858D01*
X157200000Y-125068750D01*
X157200000Y-125556250D01*
X157198826Y-125580142D01*
X157195316Y-125603803D01*
X157189504Y-125627007D01*
X157181446Y-125649529D01*
X157171218Y-125671153D01*
X157158921Y-125691670D01*
X157144671Y-125710883D01*
X157128607Y-125728607D01*
X157110883Y-125744671D01*
X157091670Y-125758921D01*
X157071153Y-125771218D01*
X157049529Y-125781446D01*
X157027007Y-125789504D01*
X157003803Y-125795316D01*
X156980142Y-125798826D01*
X156956250Y-125800000D01*
X156043750Y-125800000D01*
X156019858Y-125798826D01*
X155996197Y-125795316D01*
X155972993Y-125789504D01*
X155950471Y-125781446D01*
X155928847Y-125771218D01*
X155908330Y-125758921D01*
X155889117Y-125744671D01*
X155871393Y-125728607D01*
X155855329Y-125710883D01*
X155841079Y-125691670D01*
X155828782Y-125671153D01*
X155818554Y-125649529D01*
X155810496Y-125627007D01*
X155804684Y-125603803D01*
X155801174Y-125580142D01*
X155800000Y-125556250D01*
X155800000Y-125068750D01*
X155801174Y-125044858D01*
X155804684Y-125021197D01*
X155810496Y-124997993D01*
X155818554Y-124975471D01*
X155828782Y-124953847D01*
X155841079Y-124933330D01*
X155855329Y-124914117D01*
X155871393Y-124896393D01*
X155889117Y-124880329D01*
X155908330Y-124866079D01*
X155928847Y-124853782D01*
X155950471Y-124843554D01*
X155972993Y-124835496D01*
X155996197Y-124829684D01*
X156019858Y-124826174D01*
X156043750Y-124825000D01*
X156956250Y-124825000D01*
X156980142Y-124826174D01*
G37*
G36*
X156980142Y-126701174D02*
G01*
X157003803Y-126704684D01*
X157027007Y-126710496D01*
X157049529Y-126718554D01*
X157071153Y-126728782D01*
X157091670Y-126741079D01*
X157110883Y-126755329D01*
X157128607Y-126771393D01*
X157144671Y-126789117D01*
X157158921Y-126808330D01*
X157171218Y-126828847D01*
X157181446Y-126850471D01*
X157189504Y-126872993D01*
X157195316Y-126896197D01*
X157198826Y-126919858D01*
X157200000Y-126943750D01*
X157200000Y-127431250D01*
X157198826Y-127455142D01*
X157195316Y-127478803D01*
X157189504Y-127502007D01*
X157181446Y-127524529D01*
X157171218Y-127546153D01*
X157158921Y-127566670D01*
X157144671Y-127585883D01*
X157128607Y-127603607D01*
X157110883Y-127619671D01*
X157091670Y-127633921D01*
X157071153Y-127646218D01*
X157049529Y-127656446D01*
X157027007Y-127664504D01*
X157003803Y-127670316D01*
X156980142Y-127673826D01*
X156956250Y-127675000D01*
X156043750Y-127675000D01*
X156019858Y-127673826D01*
X155996197Y-127670316D01*
X155972993Y-127664504D01*
X155950471Y-127656446D01*
X155928847Y-127646218D01*
X155908330Y-127633921D01*
X155889117Y-127619671D01*
X155871393Y-127603607D01*
X155855329Y-127585883D01*
X155841079Y-127566670D01*
X155828782Y-127546153D01*
X155818554Y-127524529D01*
X155810496Y-127502007D01*
X155804684Y-127478803D01*
X155801174Y-127455142D01*
X155800000Y-127431250D01*
X155800000Y-126943750D01*
X155801174Y-126919858D01*
X155804684Y-126896197D01*
X155810496Y-126872993D01*
X155818554Y-126850471D01*
X155828782Y-126828847D01*
X155841079Y-126808330D01*
X155855329Y-126789117D01*
X155871393Y-126771393D01*
X155889117Y-126755329D01*
X155908330Y-126741079D01*
X155928847Y-126728782D01*
X155950471Y-126718554D01*
X155972993Y-126710496D01*
X155996197Y-126704684D01*
X156019858Y-126701174D01*
X156043750Y-126700000D01*
X156956250Y-126700000D01*
X156980142Y-126701174D01*
G37*
G36*
X129330142Y-104526174D02*
G01*
X129353803Y-104529684D01*
X129377007Y-104535496D01*
X129399529Y-104543554D01*
X129421153Y-104553782D01*
X129441670Y-104566079D01*
X129460883Y-104580329D01*
X129478607Y-104596393D01*
X129494671Y-104614117D01*
X129508921Y-104633330D01*
X129521218Y-104653847D01*
X129531446Y-104675471D01*
X129539504Y-104697993D01*
X129545316Y-104721197D01*
X129548826Y-104744858D01*
X129550000Y-104768750D01*
X129550000Y-105256250D01*
X129548826Y-105280142D01*
X129545316Y-105303803D01*
X129539504Y-105327007D01*
X129531446Y-105349529D01*
X129521218Y-105371153D01*
X129508921Y-105391670D01*
X129494671Y-105410883D01*
X129478607Y-105428607D01*
X129460883Y-105444671D01*
X129441670Y-105458921D01*
X129421153Y-105471218D01*
X129399529Y-105481446D01*
X129377007Y-105489504D01*
X129353803Y-105495316D01*
X129330142Y-105498826D01*
X129306250Y-105500000D01*
X128393750Y-105500000D01*
X128369858Y-105498826D01*
X128346197Y-105495316D01*
X128322993Y-105489504D01*
X128300471Y-105481446D01*
X128278847Y-105471218D01*
X128258330Y-105458921D01*
X128239117Y-105444671D01*
X128221393Y-105428607D01*
X128205329Y-105410883D01*
X128191079Y-105391670D01*
X128178782Y-105371153D01*
X128168554Y-105349529D01*
X128160496Y-105327007D01*
X128154684Y-105303803D01*
X128151174Y-105280142D01*
X128150000Y-105256250D01*
X128150000Y-104768750D01*
X128151174Y-104744858D01*
X128154684Y-104721197D01*
X128160496Y-104697993D01*
X128168554Y-104675471D01*
X128178782Y-104653847D01*
X128191079Y-104633330D01*
X128205329Y-104614117D01*
X128221393Y-104596393D01*
X128239117Y-104580329D01*
X128258330Y-104566079D01*
X128278847Y-104553782D01*
X128300471Y-104543554D01*
X128322993Y-104535496D01*
X128346197Y-104529684D01*
X128369858Y-104526174D01*
X128393750Y-104525000D01*
X129306250Y-104525000D01*
X129330142Y-104526174D01*
G37*
G36*
X129330142Y-106401174D02*
G01*
X129353803Y-106404684D01*
X129377007Y-106410496D01*
X129399529Y-106418554D01*
X129421153Y-106428782D01*
X129441670Y-106441079D01*
X129460883Y-106455329D01*
X129478607Y-106471393D01*
X129494671Y-106489117D01*
X129508921Y-106508330D01*
X129521218Y-106528847D01*
X129531446Y-106550471D01*
X129539504Y-106572993D01*
X129545316Y-106596197D01*
X129548826Y-106619858D01*
X129550000Y-106643750D01*
X129550000Y-107131250D01*
X129548826Y-107155142D01*
X129545316Y-107178803D01*
X129539504Y-107202007D01*
X129531446Y-107224529D01*
X129521218Y-107246153D01*
X129508921Y-107266670D01*
X129494671Y-107285883D01*
X129478607Y-107303607D01*
X129460883Y-107319671D01*
X129441670Y-107333921D01*
X129421153Y-107346218D01*
X129399529Y-107356446D01*
X129377007Y-107364504D01*
X129353803Y-107370316D01*
X129330142Y-107373826D01*
X129306250Y-107375000D01*
X128393750Y-107375000D01*
X128369858Y-107373826D01*
X128346197Y-107370316D01*
X128322993Y-107364504D01*
X128300471Y-107356446D01*
X128278847Y-107346218D01*
X128258330Y-107333921D01*
X128239117Y-107319671D01*
X128221393Y-107303607D01*
X128205329Y-107285883D01*
X128191079Y-107266670D01*
X128178782Y-107246153D01*
X128168554Y-107224529D01*
X128160496Y-107202007D01*
X128154684Y-107178803D01*
X128151174Y-107155142D01*
X128150000Y-107131250D01*
X128150000Y-106643750D01*
X128151174Y-106619858D01*
X128154684Y-106596197D01*
X128160496Y-106572993D01*
X128168554Y-106550471D01*
X128178782Y-106528847D01*
X128191079Y-106508330D01*
X128205329Y-106489117D01*
X128221393Y-106471393D01*
X128239117Y-106455329D01*
X128258330Y-106441079D01*
X128278847Y-106428782D01*
X128300471Y-106418554D01*
X128322993Y-106410496D01*
X128346197Y-106404684D01*
X128369858Y-106401174D01*
X128393750Y-106400000D01*
X129306250Y-106400000D01*
X129330142Y-106401174D01*
G37*
G36*
X157930142Y-68913674D02*
G01*
X157953803Y-68917184D01*
X157977007Y-68922996D01*
X157999529Y-68931054D01*
X158021153Y-68941282D01*
X158041670Y-68953579D01*
X158060883Y-68967829D01*
X158078607Y-68983893D01*
X158094671Y-69001617D01*
X158108921Y-69020830D01*
X158121218Y-69041347D01*
X158131446Y-69062971D01*
X158139504Y-69085493D01*
X158145316Y-69108697D01*
X158148826Y-69132358D01*
X158150000Y-69156250D01*
X158150000Y-69643750D01*
X158148826Y-69667642D01*
X158145316Y-69691303D01*
X158139504Y-69714507D01*
X158131446Y-69737029D01*
X158121218Y-69758653D01*
X158108921Y-69779170D01*
X158094671Y-69798383D01*
X158078607Y-69816107D01*
X158060883Y-69832171D01*
X158041670Y-69846421D01*
X158021153Y-69858718D01*
X157999529Y-69868946D01*
X157977007Y-69877004D01*
X157953803Y-69882816D01*
X157930142Y-69886326D01*
X157906250Y-69887500D01*
X156993750Y-69887500D01*
X156969858Y-69886326D01*
X156946197Y-69882816D01*
X156922993Y-69877004D01*
X156900471Y-69868946D01*
X156878847Y-69858718D01*
X156858330Y-69846421D01*
X156839117Y-69832171D01*
X156821393Y-69816107D01*
X156805329Y-69798383D01*
X156791079Y-69779170D01*
X156778782Y-69758653D01*
X156768554Y-69737029D01*
X156760496Y-69714507D01*
X156754684Y-69691303D01*
X156751174Y-69667642D01*
X156750000Y-69643750D01*
X156750000Y-69156250D01*
X156751174Y-69132358D01*
X156754684Y-69108697D01*
X156760496Y-69085493D01*
X156768554Y-69062971D01*
X156778782Y-69041347D01*
X156791079Y-69020830D01*
X156805329Y-69001617D01*
X156821393Y-68983893D01*
X156839117Y-68967829D01*
X156858330Y-68953579D01*
X156878847Y-68941282D01*
X156900471Y-68931054D01*
X156922993Y-68922996D01*
X156946197Y-68917184D01*
X156969858Y-68913674D01*
X156993750Y-68912500D01*
X157906250Y-68912500D01*
X157930142Y-68913674D01*
G37*
G36*
X157930142Y-67038674D02*
G01*
X157953803Y-67042184D01*
X157977007Y-67047996D01*
X157999529Y-67056054D01*
X158021153Y-67066282D01*
X158041670Y-67078579D01*
X158060883Y-67092829D01*
X158078607Y-67108893D01*
X158094671Y-67126617D01*
X158108921Y-67145830D01*
X158121218Y-67166347D01*
X158131446Y-67187971D01*
X158139504Y-67210493D01*
X158145316Y-67233697D01*
X158148826Y-67257358D01*
X158150000Y-67281250D01*
X158150000Y-67768750D01*
X158148826Y-67792642D01*
X158145316Y-67816303D01*
X158139504Y-67839507D01*
X158131446Y-67862029D01*
X158121218Y-67883653D01*
X158108921Y-67904170D01*
X158094671Y-67923383D01*
X158078607Y-67941107D01*
X158060883Y-67957171D01*
X158041670Y-67971421D01*
X158021153Y-67983718D01*
X157999529Y-67993946D01*
X157977007Y-68002004D01*
X157953803Y-68007816D01*
X157930142Y-68011326D01*
X157906250Y-68012500D01*
X156993750Y-68012500D01*
X156969858Y-68011326D01*
X156946197Y-68007816D01*
X156922993Y-68002004D01*
X156900471Y-67993946D01*
X156878847Y-67983718D01*
X156858330Y-67971421D01*
X156839117Y-67957171D01*
X156821393Y-67941107D01*
X156805329Y-67923383D01*
X156791079Y-67904170D01*
X156778782Y-67883653D01*
X156768554Y-67862029D01*
X156760496Y-67839507D01*
X156754684Y-67816303D01*
X156751174Y-67792642D01*
X156750000Y-67768750D01*
X156750000Y-67281250D01*
X156751174Y-67257358D01*
X156754684Y-67233697D01*
X156760496Y-67210493D01*
X156768554Y-67187971D01*
X156778782Y-67166347D01*
X156791079Y-67145830D01*
X156805329Y-67126617D01*
X156821393Y-67108893D01*
X156839117Y-67092829D01*
X156858330Y-67078579D01*
X156878847Y-67066282D01*
X156900471Y-67056054D01*
X156922993Y-67047996D01*
X156946197Y-67042184D01*
X156969858Y-67038674D01*
X156993750Y-67037500D01*
X157906250Y-67037500D01*
X157930142Y-67038674D01*
G37*
G36*
X129030142Y-86238674D02*
G01*
X129053803Y-86242184D01*
X129077007Y-86247996D01*
X129099529Y-86256054D01*
X129121153Y-86266282D01*
X129141670Y-86278579D01*
X129160883Y-86292829D01*
X129178607Y-86308893D01*
X129194671Y-86326617D01*
X129208921Y-86345830D01*
X129221218Y-86366347D01*
X129231446Y-86387971D01*
X129239504Y-86410493D01*
X129245316Y-86433697D01*
X129248826Y-86457358D01*
X129250000Y-86481250D01*
X129250000Y-86968750D01*
X129248826Y-86992642D01*
X129245316Y-87016303D01*
X129239504Y-87039507D01*
X129231446Y-87062029D01*
X129221218Y-87083653D01*
X129208921Y-87104170D01*
X129194671Y-87123383D01*
X129178607Y-87141107D01*
X129160883Y-87157171D01*
X129141670Y-87171421D01*
X129121153Y-87183718D01*
X129099529Y-87193946D01*
X129077007Y-87202004D01*
X129053803Y-87207816D01*
X129030142Y-87211326D01*
X129006250Y-87212500D01*
X128093750Y-87212500D01*
X128069858Y-87211326D01*
X128046197Y-87207816D01*
X128022993Y-87202004D01*
X128000471Y-87193946D01*
X127978847Y-87183718D01*
X127958330Y-87171421D01*
X127939117Y-87157171D01*
X127921393Y-87141107D01*
X127905329Y-87123383D01*
X127891079Y-87104170D01*
X127878782Y-87083653D01*
X127868554Y-87062029D01*
X127860496Y-87039507D01*
X127854684Y-87016303D01*
X127851174Y-86992642D01*
X127850000Y-86968750D01*
X127850000Y-86481250D01*
X127851174Y-86457358D01*
X127854684Y-86433697D01*
X127860496Y-86410493D01*
X127868554Y-86387971D01*
X127878782Y-86366347D01*
X127891079Y-86345830D01*
X127905329Y-86326617D01*
X127921393Y-86308893D01*
X127939117Y-86292829D01*
X127958330Y-86278579D01*
X127978847Y-86266282D01*
X128000471Y-86256054D01*
X128022993Y-86247996D01*
X128046197Y-86242184D01*
X128069858Y-86238674D01*
X128093750Y-86237500D01*
X129006250Y-86237500D01*
X129030142Y-86238674D01*
G37*
G36*
X129030142Y-88113674D02*
G01*
X129053803Y-88117184D01*
X129077007Y-88122996D01*
X129099529Y-88131054D01*
X129121153Y-88141282D01*
X129141670Y-88153579D01*
X129160883Y-88167829D01*
X129178607Y-88183893D01*
X129194671Y-88201617D01*
X129208921Y-88220830D01*
X129221218Y-88241347D01*
X129231446Y-88262971D01*
X129239504Y-88285493D01*
X129245316Y-88308697D01*
X129248826Y-88332358D01*
X129250000Y-88356250D01*
X129250000Y-88843750D01*
X129248826Y-88867642D01*
X129245316Y-88891303D01*
X129239504Y-88914507D01*
X129231446Y-88937029D01*
X129221218Y-88958653D01*
X129208921Y-88979170D01*
X129194671Y-88998383D01*
X129178607Y-89016107D01*
X129160883Y-89032171D01*
X129141670Y-89046421D01*
X129121153Y-89058718D01*
X129099529Y-89068946D01*
X129077007Y-89077004D01*
X129053803Y-89082816D01*
X129030142Y-89086326D01*
X129006250Y-89087500D01*
X128093750Y-89087500D01*
X128069858Y-89086326D01*
X128046197Y-89082816D01*
X128022993Y-89077004D01*
X128000471Y-89068946D01*
X127978847Y-89058718D01*
X127958330Y-89046421D01*
X127939117Y-89032171D01*
X127921393Y-89016107D01*
X127905329Y-88998383D01*
X127891079Y-88979170D01*
X127878782Y-88958653D01*
X127868554Y-88937029D01*
X127860496Y-88914507D01*
X127854684Y-88891303D01*
X127851174Y-88867642D01*
X127850000Y-88843750D01*
X127850000Y-88356250D01*
X127851174Y-88332358D01*
X127854684Y-88308697D01*
X127860496Y-88285493D01*
X127868554Y-88262971D01*
X127878782Y-88241347D01*
X127891079Y-88220830D01*
X127905329Y-88201617D01*
X127921393Y-88183893D01*
X127939117Y-88167829D01*
X127958330Y-88153579D01*
X127978847Y-88141282D01*
X128000471Y-88131054D01*
X128022993Y-88122996D01*
X128046197Y-88117184D01*
X128069858Y-88113674D01*
X128093750Y-88112500D01*
X129006250Y-88112500D01*
X129030142Y-88113674D01*
G37*
G36*
X129180142Y-138488674D02*
G01*
X129203803Y-138492184D01*
X129227007Y-138497996D01*
X129249529Y-138506054D01*
X129271153Y-138516282D01*
X129291670Y-138528579D01*
X129310883Y-138542829D01*
X129328607Y-138558893D01*
X129344671Y-138576617D01*
X129358921Y-138595830D01*
X129371218Y-138616347D01*
X129381446Y-138637971D01*
X129389504Y-138660493D01*
X129395316Y-138683697D01*
X129398826Y-138707358D01*
X129400000Y-138731250D01*
X129400000Y-139218750D01*
X129398826Y-139242642D01*
X129395316Y-139266303D01*
X129389504Y-139289507D01*
X129381446Y-139312029D01*
X129371218Y-139333653D01*
X129358921Y-139354170D01*
X129344671Y-139373383D01*
X129328607Y-139391107D01*
X129310883Y-139407171D01*
X129291670Y-139421421D01*
X129271153Y-139433718D01*
X129249529Y-139443946D01*
X129227007Y-139452004D01*
X129203803Y-139457816D01*
X129180142Y-139461326D01*
X129156250Y-139462500D01*
X128243750Y-139462500D01*
X128219858Y-139461326D01*
X128196197Y-139457816D01*
X128172993Y-139452004D01*
X128150471Y-139443946D01*
X128128847Y-139433718D01*
X128108330Y-139421421D01*
X128089117Y-139407171D01*
X128071393Y-139391107D01*
X128055329Y-139373383D01*
X128041079Y-139354170D01*
X128028782Y-139333653D01*
X128018554Y-139312029D01*
X128010496Y-139289507D01*
X128004684Y-139266303D01*
X128001174Y-139242642D01*
X128000000Y-139218750D01*
X128000000Y-138731250D01*
X128001174Y-138707358D01*
X128004684Y-138683697D01*
X128010496Y-138660493D01*
X128018554Y-138637971D01*
X128028782Y-138616347D01*
X128041079Y-138595830D01*
X128055329Y-138576617D01*
X128071393Y-138558893D01*
X128089117Y-138542829D01*
X128108330Y-138528579D01*
X128128847Y-138516282D01*
X128150471Y-138506054D01*
X128172993Y-138497996D01*
X128196197Y-138492184D01*
X128219858Y-138488674D01*
X128243750Y-138487500D01*
X129156250Y-138487500D01*
X129180142Y-138488674D01*
G37*
G36*
X129180142Y-140363674D02*
G01*
X129203803Y-140367184D01*
X129227007Y-140372996D01*
X129249529Y-140381054D01*
X129271153Y-140391282D01*
X129291670Y-140403579D01*
X129310883Y-140417829D01*
X129328607Y-140433893D01*
X129344671Y-140451617D01*
X129358921Y-140470830D01*
X129371218Y-140491347D01*
X129381446Y-140512971D01*
X129389504Y-140535493D01*
X129395316Y-140558697D01*
X129398826Y-140582358D01*
X129400000Y-140606250D01*
X129400000Y-141093750D01*
X129398826Y-141117642D01*
X129395316Y-141141303D01*
X129389504Y-141164507D01*
X129381446Y-141187029D01*
X129371218Y-141208653D01*
X129358921Y-141229170D01*
X129344671Y-141248383D01*
X129328607Y-141266107D01*
X129310883Y-141282171D01*
X129291670Y-141296421D01*
X129271153Y-141308718D01*
X129249529Y-141318946D01*
X129227007Y-141327004D01*
X129203803Y-141332816D01*
X129180142Y-141336326D01*
X129156250Y-141337500D01*
X128243750Y-141337500D01*
X128219858Y-141336326D01*
X128196197Y-141332816D01*
X128172993Y-141327004D01*
X128150471Y-141318946D01*
X128128847Y-141308718D01*
X128108330Y-141296421D01*
X128089117Y-141282171D01*
X128071393Y-141266107D01*
X128055329Y-141248383D01*
X128041079Y-141229170D01*
X128028782Y-141208653D01*
X128018554Y-141187029D01*
X128010496Y-141164507D01*
X128004684Y-141141303D01*
X128001174Y-141117642D01*
X128000000Y-141093750D01*
X128000000Y-140606250D01*
X128001174Y-140582358D01*
X128004684Y-140558697D01*
X128010496Y-140535493D01*
X128018554Y-140512971D01*
X128028782Y-140491347D01*
X128041079Y-140470830D01*
X128055329Y-140451617D01*
X128071393Y-140433893D01*
X128089117Y-140417829D01*
X128108330Y-140403579D01*
X128128847Y-140391282D01*
X128150471Y-140381054D01*
X128172993Y-140372996D01*
X128196197Y-140367184D01*
X128219858Y-140363674D01*
X128243750Y-140362500D01*
X129156250Y-140362500D01*
X129180142Y-140363674D01*
G37*
G36*
X157980142Y-107038674D02*
G01*
X158003803Y-107042184D01*
X158027007Y-107047996D01*
X158049529Y-107056054D01*
X158071153Y-107066282D01*
X158091670Y-107078579D01*
X158110883Y-107092829D01*
X158128607Y-107108893D01*
X158144671Y-107126617D01*
X158158921Y-107145830D01*
X158171218Y-107166347D01*
X158181446Y-107187971D01*
X158189504Y-107210493D01*
X158195316Y-107233697D01*
X158198826Y-107257358D01*
X158200000Y-107281250D01*
X158200000Y-107768750D01*
X158198826Y-107792642D01*
X158195316Y-107816303D01*
X158189504Y-107839507D01*
X158181446Y-107862029D01*
X158171218Y-107883653D01*
X158158921Y-107904170D01*
X158144671Y-107923383D01*
X158128607Y-107941107D01*
X158110883Y-107957171D01*
X158091670Y-107971421D01*
X158071153Y-107983718D01*
X158049529Y-107993946D01*
X158027007Y-108002004D01*
X158003803Y-108007816D01*
X157980142Y-108011326D01*
X157956250Y-108012500D01*
X157043750Y-108012500D01*
X157019858Y-108011326D01*
X156996197Y-108007816D01*
X156972993Y-108002004D01*
X156950471Y-107993946D01*
X156928847Y-107983718D01*
X156908330Y-107971421D01*
X156889117Y-107957171D01*
X156871393Y-107941107D01*
X156855329Y-107923383D01*
X156841079Y-107904170D01*
X156828782Y-107883653D01*
X156818554Y-107862029D01*
X156810496Y-107839507D01*
X156804684Y-107816303D01*
X156801174Y-107792642D01*
X156800000Y-107768750D01*
X156800000Y-107281250D01*
X156801174Y-107257358D01*
X156804684Y-107233697D01*
X156810496Y-107210493D01*
X156818554Y-107187971D01*
X156828782Y-107166347D01*
X156841079Y-107145830D01*
X156855329Y-107126617D01*
X156871393Y-107108893D01*
X156889117Y-107092829D01*
X156908330Y-107078579D01*
X156928847Y-107066282D01*
X156950471Y-107056054D01*
X156972993Y-107047996D01*
X156996197Y-107042184D01*
X157019858Y-107038674D01*
X157043750Y-107037500D01*
X157956250Y-107037500D01*
X157980142Y-107038674D01*
G37*
G36*
X157980142Y-108913674D02*
G01*
X158003803Y-108917184D01*
X158027007Y-108922996D01*
X158049529Y-108931054D01*
X158071153Y-108941282D01*
X158091670Y-108953579D01*
X158110883Y-108967829D01*
X158128607Y-108983893D01*
X158144671Y-109001617D01*
X158158921Y-109020830D01*
X158171218Y-109041347D01*
X158181446Y-109062971D01*
X158189504Y-109085493D01*
X158195316Y-109108697D01*
X158198826Y-109132358D01*
X158200000Y-109156250D01*
X158200000Y-109643750D01*
X158198826Y-109667642D01*
X158195316Y-109691303D01*
X158189504Y-109714507D01*
X158181446Y-109737029D01*
X158171218Y-109758653D01*
X158158921Y-109779170D01*
X158144671Y-109798383D01*
X158128607Y-109816107D01*
X158110883Y-109832171D01*
X158091670Y-109846421D01*
X158071153Y-109858718D01*
X158049529Y-109868946D01*
X158027007Y-109877004D01*
X158003803Y-109882816D01*
X157980142Y-109886326D01*
X157956250Y-109887500D01*
X157043750Y-109887500D01*
X157019858Y-109886326D01*
X156996197Y-109882816D01*
X156972993Y-109877004D01*
X156950471Y-109868946D01*
X156928847Y-109858718D01*
X156908330Y-109846421D01*
X156889117Y-109832171D01*
X156871393Y-109816107D01*
X156855329Y-109798383D01*
X156841079Y-109779170D01*
X156828782Y-109758653D01*
X156818554Y-109737029D01*
X156810496Y-109714507D01*
X156804684Y-109691303D01*
X156801174Y-109667642D01*
X156800000Y-109643750D01*
X156800000Y-109156250D01*
X156801174Y-109132358D01*
X156804684Y-109108697D01*
X156810496Y-109085493D01*
X156818554Y-109062971D01*
X156828782Y-109041347D01*
X156841079Y-109020830D01*
X156855329Y-109001617D01*
X156871393Y-108983893D01*
X156889117Y-108967829D01*
X156908330Y-108953579D01*
X156928847Y-108941282D01*
X156950471Y-108931054D01*
X156972993Y-108922996D01*
X156996197Y-108917184D01*
X157019858Y-108913674D01*
X157043750Y-108912500D01*
X157956250Y-108912500D01*
X157980142Y-108913674D01*
G37*
G36*
X172067642Y-51101174D02*
G01*
X172091303Y-51104684D01*
X172114507Y-51110496D01*
X172137029Y-51118554D01*
X172158653Y-51128782D01*
X172179170Y-51141079D01*
X172198383Y-51155329D01*
X172216107Y-51171393D01*
X172232171Y-51189117D01*
X172246421Y-51208330D01*
X172258718Y-51228847D01*
X172268946Y-51250471D01*
X172277004Y-51272993D01*
X172282816Y-51296197D01*
X172286326Y-51319858D01*
X172287500Y-51343750D01*
X172287500Y-52256250D01*
X172286326Y-52280142D01*
X172282816Y-52303803D01*
X172277004Y-52327007D01*
X172268946Y-52349529D01*
X172258718Y-52371153D01*
X172246421Y-52391670D01*
X172232171Y-52410883D01*
X172216107Y-52428607D01*
X172198383Y-52444671D01*
X172179170Y-52458921D01*
X172158653Y-52471218D01*
X172137029Y-52481446D01*
X172114507Y-52489504D01*
X172091303Y-52495316D01*
X172067642Y-52498826D01*
X172043750Y-52500000D01*
X171556250Y-52500000D01*
X171532358Y-52498826D01*
X171508697Y-52495316D01*
X171485493Y-52489504D01*
X171462971Y-52481446D01*
X171441347Y-52471218D01*
X171420830Y-52458921D01*
X171401617Y-52444671D01*
X171383893Y-52428607D01*
X171367829Y-52410883D01*
X171353579Y-52391670D01*
X171341282Y-52371153D01*
X171331054Y-52349529D01*
X171322996Y-52327007D01*
X171317184Y-52303803D01*
X171313674Y-52280142D01*
X171312500Y-52256250D01*
X171312500Y-51343750D01*
X171313674Y-51319858D01*
X171317184Y-51296197D01*
X171322996Y-51272993D01*
X171331054Y-51250471D01*
X171341282Y-51228847D01*
X171353579Y-51208330D01*
X171367829Y-51189117D01*
X171383893Y-51171393D01*
X171401617Y-51155329D01*
X171420830Y-51141079D01*
X171441347Y-51128782D01*
X171462971Y-51118554D01*
X171485493Y-51110496D01*
X171508697Y-51104684D01*
X171532358Y-51101174D01*
X171556250Y-51100000D01*
X172043750Y-51100000D01*
X172067642Y-51101174D01*
G37*
G36*
X173942642Y-51101174D02*
G01*
X173966303Y-51104684D01*
X173989507Y-51110496D01*
X174012029Y-51118554D01*
X174033653Y-51128782D01*
X174054170Y-51141079D01*
X174073383Y-51155329D01*
X174091107Y-51171393D01*
X174107171Y-51189117D01*
X174121421Y-51208330D01*
X174133718Y-51228847D01*
X174143946Y-51250471D01*
X174152004Y-51272993D01*
X174157816Y-51296197D01*
X174161326Y-51319858D01*
X174162500Y-51343750D01*
X174162500Y-52256250D01*
X174161326Y-52280142D01*
X174157816Y-52303803D01*
X174152004Y-52327007D01*
X174143946Y-52349529D01*
X174133718Y-52371153D01*
X174121421Y-52391670D01*
X174107171Y-52410883D01*
X174091107Y-52428607D01*
X174073383Y-52444671D01*
X174054170Y-52458921D01*
X174033653Y-52471218D01*
X174012029Y-52481446D01*
X173989507Y-52489504D01*
X173966303Y-52495316D01*
X173942642Y-52498826D01*
X173918750Y-52500000D01*
X173431250Y-52500000D01*
X173407358Y-52498826D01*
X173383697Y-52495316D01*
X173360493Y-52489504D01*
X173337971Y-52481446D01*
X173316347Y-52471218D01*
X173295830Y-52458921D01*
X173276617Y-52444671D01*
X173258893Y-52428607D01*
X173242829Y-52410883D01*
X173228579Y-52391670D01*
X173216282Y-52371153D01*
X173206054Y-52349529D01*
X173197996Y-52327007D01*
X173192184Y-52303803D01*
X173188674Y-52280142D01*
X173187500Y-52256250D01*
X173187500Y-51343750D01*
X173188674Y-51319858D01*
X173192184Y-51296197D01*
X173197996Y-51272993D01*
X173206054Y-51250471D01*
X173216282Y-51228847D01*
X173228579Y-51208330D01*
X173242829Y-51189117D01*
X173258893Y-51171393D01*
X173276617Y-51155329D01*
X173295830Y-51141079D01*
X173316347Y-51128782D01*
X173337971Y-51118554D01*
X173360493Y-51110496D01*
X173383697Y-51104684D01*
X173407358Y-51101174D01*
X173431250Y-51100000D01*
X173918750Y-51100000D01*
X173942642Y-51101174D01*
G37*
G36*
X116105143Y-46538674D02*
G01*
X116128804Y-46542184D01*
X116152008Y-46547996D01*
X116174530Y-46556054D01*
X116196154Y-46566282D01*
X116216671Y-46578579D01*
X116235884Y-46592829D01*
X116253608Y-46608893D01*
X116269672Y-46626617D01*
X116283922Y-46645830D01*
X116296219Y-46666347D01*
X116306447Y-46687971D01*
X116314505Y-46710493D01*
X116320317Y-46733697D01*
X116323827Y-46757358D01*
X116325001Y-46781250D01*
X116325001Y-47268750D01*
X116323827Y-47292642D01*
X116320317Y-47316303D01*
X116314505Y-47339507D01*
X116306447Y-47362029D01*
X116296219Y-47383653D01*
X116283922Y-47404170D01*
X116269672Y-47423383D01*
X116253608Y-47441107D01*
X116235884Y-47457171D01*
X116216671Y-47471421D01*
X116196154Y-47483718D01*
X116174530Y-47493946D01*
X116152008Y-47502004D01*
X116128804Y-47507816D01*
X116105143Y-47511326D01*
X116081251Y-47512500D01*
X115168751Y-47512500D01*
X115144859Y-47511326D01*
X115121198Y-47507816D01*
X115097994Y-47502004D01*
X115075472Y-47493946D01*
X115053848Y-47483718D01*
X115033331Y-47471421D01*
X115014118Y-47457171D01*
X114996394Y-47441107D01*
X114980330Y-47423383D01*
X114966080Y-47404170D01*
X114953783Y-47383653D01*
X114943555Y-47362029D01*
X114935497Y-47339507D01*
X114929685Y-47316303D01*
X114926175Y-47292642D01*
X114925001Y-47268750D01*
X114925001Y-46781250D01*
X114926175Y-46757358D01*
X114929685Y-46733697D01*
X114935497Y-46710493D01*
X114943555Y-46687971D01*
X114953783Y-46666347D01*
X114966080Y-46645830D01*
X114980330Y-46626617D01*
X114996394Y-46608893D01*
X115014118Y-46592829D01*
X115033331Y-46578579D01*
X115053848Y-46566282D01*
X115075472Y-46556054D01*
X115097994Y-46547996D01*
X115121198Y-46542184D01*
X115144859Y-46538674D01*
X115168751Y-46537500D01*
X116081251Y-46537500D01*
X116105143Y-46538674D01*
G37*
G36*
X116105143Y-44663674D02*
G01*
X116128804Y-44667184D01*
X116152008Y-44672996D01*
X116174530Y-44681054D01*
X116196154Y-44691282D01*
X116216671Y-44703579D01*
X116235884Y-44717829D01*
X116253608Y-44733893D01*
X116269672Y-44751617D01*
X116283922Y-44770830D01*
X116296219Y-44791347D01*
X116306447Y-44812971D01*
X116314505Y-44835493D01*
X116320317Y-44858697D01*
X116323827Y-44882358D01*
X116325001Y-44906250D01*
X116325001Y-45393750D01*
X116323827Y-45417642D01*
X116320317Y-45441303D01*
X116314505Y-45464507D01*
X116306447Y-45487029D01*
X116296219Y-45508653D01*
X116283922Y-45529170D01*
X116269672Y-45548383D01*
X116253608Y-45566107D01*
X116235884Y-45582171D01*
X116216671Y-45596421D01*
X116196154Y-45608718D01*
X116174530Y-45618946D01*
X116152008Y-45627004D01*
X116128804Y-45632816D01*
X116105143Y-45636326D01*
X116081251Y-45637500D01*
X115168751Y-45637500D01*
X115144859Y-45636326D01*
X115121198Y-45632816D01*
X115097994Y-45627004D01*
X115075472Y-45618946D01*
X115053848Y-45608718D01*
X115033331Y-45596421D01*
X115014118Y-45582171D01*
X114996394Y-45566107D01*
X114980330Y-45548383D01*
X114966080Y-45529170D01*
X114953783Y-45508653D01*
X114943555Y-45487029D01*
X114935497Y-45464507D01*
X114929685Y-45441303D01*
X114926175Y-45417642D01*
X114925001Y-45393750D01*
X114925001Y-44906250D01*
X114926175Y-44882358D01*
X114929685Y-44858697D01*
X114935497Y-44835493D01*
X114943555Y-44812971D01*
X114953783Y-44791347D01*
X114966080Y-44770830D01*
X114980330Y-44751617D01*
X114996394Y-44733893D01*
X115014118Y-44717829D01*
X115033331Y-44703579D01*
X115053848Y-44691282D01*
X115075472Y-44681054D01*
X115097994Y-44672996D01*
X115121198Y-44667184D01*
X115144859Y-44663674D01*
X115168751Y-44662500D01*
X116081251Y-44662500D01*
X116105143Y-44663674D01*
G37*
G36*
X120030142Y-44663674D02*
G01*
X120053803Y-44667184D01*
X120077007Y-44672996D01*
X120099529Y-44681054D01*
X120121153Y-44691282D01*
X120141670Y-44703579D01*
X120160883Y-44717829D01*
X120178607Y-44733893D01*
X120194671Y-44751617D01*
X120208921Y-44770830D01*
X120221218Y-44791347D01*
X120231446Y-44812971D01*
X120239504Y-44835493D01*
X120245316Y-44858697D01*
X120248826Y-44882358D01*
X120250000Y-44906250D01*
X120250000Y-45393750D01*
X120248826Y-45417642D01*
X120245316Y-45441303D01*
X120239504Y-45464507D01*
X120231446Y-45487029D01*
X120221218Y-45508653D01*
X120208921Y-45529170D01*
X120194671Y-45548383D01*
X120178607Y-45566107D01*
X120160883Y-45582171D01*
X120141670Y-45596421D01*
X120121153Y-45608718D01*
X120099529Y-45618946D01*
X120077007Y-45627004D01*
X120053803Y-45632816D01*
X120030142Y-45636326D01*
X120006250Y-45637500D01*
X119093750Y-45637500D01*
X119069858Y-45636326D01*
X119046197Y-45632816D01*
X119022993Y-45627004D01*
X119000471Y-45618946D01*
X118978847Y-45608718D01*
X118958330Y-45596421D01*
X118939117Y-45582171D01*
X118921393Y-45566107D01*
X118905329Y-45548383D01*
X118891079Y-45529170D01*
X118878782Y-45508653D01*
X118868554Y-45487029D01*
X118860496Y-45464507D01*
X118854684Y-45441303D01*
X118851174Y-45417642D01*
X118850000Y-45393750D01*
X118850000Y-44906250D01*
X118851174Y-44882358D01*
X118854684Y-44858697D01*
X118860496Y-44835493D01*
X118868554Y-44812971D01*
X118878782Y-44791347D01*
X118891079Y-44770830D01*
X118905329Y-44751617D01*
X118921393Y-44733893D01*
X118939117Y-44717829D01*
X118958330Y-44703579D01*
X118978847Y-44691282D01*
X119000471Y-44681054D01*
X119022993Y-44672996D01*
X119046197Y-44667184D01*
X119069858Y-44663674D01*
X119093750Y-44662500D01*
X120006250Y-44662500D01*
X120030142Y-44663674D01*
G37*
G36*
X120030142Y-46538674D02*
G01*
X120053803Y-46542184D01*
X120077007Y-46547996D01*
X120099529Y-46556054D01*
X120121153Y-46566282D01*
X120141670Y-46578579D01*
X120160883Y-46592829D01*
X120178607Y-46608893D01*
X120194671Y-46626617D01*
X120208921Y-46645830D01*
X120221218Y-46666347D01*
X120231446Y-46687971D01*
X120239504Y-46710493D01*
X120245316Y-46733697D01*
X120248826Y-46757358D01*
X120250000Y-46781250D01*
X120250000Y-47268750D01*
X120248826Y-47292642D01*
X120245316Y-47316303D01*
X120239504Y-47339507D01*
X120231446Y-47362029D01*
X120221218Y-47383653D01*
X120208921Y-47404170D01*
X120194671Y-47423383D01*
X120178607Y-47441107D01*
X120160883Y-47457171D01*
X120141670Y-47471421D01*
X120121153Y-47483718D01*
X120099529Y-47493946D01*
X120077007Y-47502004D01*
X120053803Y-47507816D01*
X120030142Y-47511326D01*
X120006250Y-47512500D01*
X119093750Y-47512500D01*
X119069858Y-47511326D01*
X119046197Y-47507816D01*
X119022993Y-47502004D01*
X119000471Y-47493946D01*
X118978847Y-47483718D01*
X118958330Y-47471421D01*
X118939117Y-47457171D01*
X118921393Y-47441107D01*
X118905329Y-47423383D01*
X118891079Y-47404170D01*
X118878782Y-47383653D01*
X118868554Y-47362029D01*
X118860496Y-47339507D01*
X118854684Y-47316303D01*
X118851174Y-47292642D01*
X118850000Y-47268750D01*
X118850000Y-46781250D01*
X118851174Y-46757358D01*
X118854684Y-46733697D01*
X118860496Y-46710493D01*
X118868554Y-46687971D01*
X118878782Y-46666347D01*
X118891079Y-46645830D01*
X118905329Y-46626617D01*
X118921393Y-46608893D01*
X118939117Y-46592829D01*
X118958330Y-46578579D01*
X118978847Y-46566282D01*
X119000471Y-46556054D01*
X119022993Y-46547996D01*
X119046197Y-46542184D01*
X119069858Y-46538674D01*
X119093750Y-46537500D01*
X120006250Y-46537500D01*
X120030142Y-46538674D01*
G37*
D13*
X115100000Y-57450000D03*
D14*
X117975000Y-59355000D03*
X117975000Y-58085000D03*
X117975000Y-56815000D03*
X117975000Y-55545000D03*
X112225000Y-55545000D03*
X112225000Y-56815000D03*
X112225000Y-58085000D03*
X112225000Y-59355000D03*
D13*
X122300000Y-125300000D03*
D14*
X125175000Y-127205000D03*
X125175000Y-125935000D03*
X125175000Y-124665000D03*
X125175000Y-123395000D03*
X119425000Y-123395000D03*
X119425000Y-124665000D03*
X119425000Y-125935000D03*
X119425000Y-127205000D03*
D15*
X154750000Y-137750000D03*
D16*
X156655000Y-134875000D03*
X155385000Y-134875000D03*
X154115000Y-134875000D03*
X152845000Y-134875000D03*
X152845000Y-140625000D03*
X154115000Y-140625000D03*
X155385000Y-140625000D03*
X156655000Y-140625000D03*
D14*
X166875000Y-83895000D03*
X166875000Y-85165000D03*
X166875000Y-86435000D03*
X166875000Y-87705000D03*
X161125000Y-87705000D03*
X161125000Y-86435000D03*
X161125000Y-85165000D03*
X161125000Y-83895000D03*
D13*
X164000000Y-85800000D03*
D14*
X118975000Y-75605000D03*
X118975000Y-74335000D03*
X118975000Y-73065000D03*
X118975000Y-71795000D03*
X124725000Y-71795000D03*
X124725000Y-73065000D03*
X124725000Y-74335000D03*
X124725000Y-75605000D03*
D13*
X121850000Y-73700000D03*
X164000000Y-125100000D03*
D14*
X161125000Y-123195000D03*
X161125000Y-124465000D03*
X161125000Y-125735000D03*
X161125000Y-127005000D03*
X166875000Y-127005000D03*
X166875000Y-125735000D03*
X166875000Y-124465000D03*
X166875000Y-123195000D03*
X118975000Y-110855000D03*
X118975000Y-109585000D03*
X118975000Y-108315000D03*
X118975000Y-107045000D03*
X124725000Y-107045000D03*
X124725000Y-108315000D03*
X124725000Y-109585000D03*
X124725000Y-110855000D03*
D13*
X121850000Y-108950000D03*
X164050000Y-65600000D03*
D14*
X161175000Y-63695000D03*
X161175000Y-64965000D03*
X161175000Y-66235000D03*
X161175000Y-67505000D03*
X166925000Y-67505000D03*
X166925000Y-66235000D03*
X166925000Y-64965000D03*
X166925000Y-63695000D03*
X119075000Y-92505000D03*
X119075000Y-91235000D03*
X119075000Y-89965000D03*
X119075000Y-88695000D03*
X124825000Y-88695000D03*
X124825000Y-89965000D03*
X124825000Y-91235000D03*
X124825000Y-92505000D03*
D13*
X121950000Y-90600000D03*
D14*
X118625000Y-144955000D03*
X118625000Y-143685000D03*
X118625000Y-142415000D03*
X118625000Y-141145000D03*
X124375000Y-141145000D03*
X124375000Y-142415000D03*
X124375000Y-143685000D03*
X124375000Y-144955000D03*
D13*
X121500000Y-143050000D03*
X164000000Y-105600000D03*
D14*
X161125000Y-103695000D03*
X161125000Y-104965000D03*
X161125000Y-106235000D03*
X161125000Y-107505000D03*
X166875000Y-107505000D03*
X166875000Y-106235000D03*
X166875000Y-104965000D03*
X166875000Y-103695000D03*
D16*
X177505000Y-61275000D03*
X176235000Y-61275000D03*
X174965000Y-61275000D03*
X173695000Y-61275000D03*
X173695000Y-55525000D03*
X174965000Y-55525000D03*
X176235000Y-55525000D03*
X177505000Y-55525000D03*
D15*
X175600000Y-58400000D03*
M02*
