G04 Layer: TopPasteMaskLayer*
G04 EasyEDA v6.4.7, 2020-10-21T08:40:06+11:00*
G04 167876914e964c2ea181e253bf9821b7,8b00c40d607e4de580d566db1ee26a9b,10*
G04 Gerber Generator version 0.2*
G04 Scale: 100 percent, Rotated: No, Reflected: No *
G04 Dimensions in millimeters *
G04 leading zeros omitted , absolute positions ,3 integer and 3 decimal *
%FSLAX33Y33*%
%MOMM*%
G90*
D02*

%ADD11R,0.999998X1.550010*%

%LPD*%
G54D11*
G01X8398Y9906D03*
G01X10398Y9906D03*
G36*
G01X13644Y8747D02*
G01X14944Y8747D01*
G01X14944Y8147D01*
G01X13644Y8147D01*
G01X13644Y8747D01*
G37*
G36*
G01X16044Y9697D02*
G01X17344Y9697D01*
G01X17344Y9098D01*
G01X16044Y9098D01*
G01X16044Y9697D01*
G37*
G36*
G01X13644Y10648D02*
G01X14944Y10648D01*
G01X14944Y10048D01*
G01X13644Y10048D01*
G01X13644Y10648D01*
G37*
G36*
G01X13390Y13954D02*
G01X14690Y13954D01*
G01X14690Y13354D01*
G01X13390Y13354D01*
G01X13390Y13954D01*
G37*
G36*
G01X15790Y14904D02*
G01X17090Y14904D01*
G01X17090Y14305D01*
G01X15790Y14305D01*
G01X15790Y14904D01*
G37*
G36*
G01X13390Y15855D02*
G01X14690Y15855D01*
G01X14690Y15255D01*
G01X13390Y15255D01*
G01X13390Y15855D01*
G37*
G36*
G01X13390Y3921D02*
G01X14690Y3921D01*
G01X14690Y3321D01*
G01X13390Y3321D01*
G01X13390Y3921D01*
G37*
G36*
G01X15790Y4871D02*
G01X17090Y4871D01*
G01X17090Y4272D01*
G01X15790Y4272D01*
G01X15790Y4871D01*
G37*
G36*
G01X13390Y5822D02*
G01X14690Y5822D01*
G01X14690Y5222D01*
G01X13390Y5222D01*
G01X13390Y5822D01*
G37*
G01X8271Y14097D03*
G01X10270Y14097D03*
G01X8525Y4953D03*
G01X10524Y4953D03*
M00*
M02*
