G04 Layer: BottomLayer*
G04 EasyEDA v6.3.22, 2020-03-24T12:14:19+11:00*
G04 be55d0e875064f4eac6341afbdbda93d,8b00c40d607e4de580d566db1ee26a9b,10*
G04 Gerber Generator version 0.2*
G04 Scale: 100 percent, Rotated: No, Reflected: No *
G04 Dimensions in millimeters *
G04 leading zeros omitted , absolute positions ,3 integer and 3 decimal *
%FSLAX33Y33*%
%MOMM*%
G90*
G71D02*

%ADD10C,0.254000*%
%ADD11C,1.253998*%
%ADD12C,0.609600*%
%ADD18R,1.699997X1.699997*%
%ADD19C,1.699997*%
%ADD20C,1.524000*%
%ADD22R,1.599997X1.599997*%
%ADD23C,1.599997*%
%ADD24C,1.574800*%
%ADD25R,1.574800X1.574800*%
%ADD26C,1.999996*%
%ADD27C,1.499997*%

%LPD*%
G36*
G01X61722Y47876D02*
G01X1524Y47876D01*
G01X1473Y47875D01*
G01X1421Y47872D01*
G01X1371Y47867D01*
G01X1320Y47860D01*
G01X1270Y47851D01*
G01X1220Y47839D01*
G01X1171Y47826D01*
G01X1122Y47811D01*
G01X1074Y47794D01*
G01X980Y47754D01*
G01X935Y47731D01*
G01X890Y47706D01*
G01X846Y47680D01*
G01X762Y47622D01*
G01X722Y47590D01*
G01X683Y47557D01*
G01X646Y47522D01*
G01X610Y47486D01*
G01X575Y47449D01*
G01X542Y47410D01*
G01X510Y47370D01*
G01X452Y47286D01*
G01X426Y47242D01*
G01X401Y47197D01*
G01X378Y47152D01*
G01X338Y47058D01*
G01X321Y47010D01*
G01X306Y46961D01*
G01X293Y46912D01*
G01X281Y46862D01*
G01X272Y46812D01*
G01X265Y46761D01*
G01X260Y46711D01*
G01X257Y46659D01*
G01X256Y46609D01*
G01X256Y1651D01*
G01X257Y1597D01*
G01X260Y1544D01*
G01X265Y1490D01*
G01X272Y1438D01*
G01X281Y1385D01*
G01X293Y1333D01*
G01X306Y1281D01*
G01X321Y1230D01*
G01X338Y1179D01*
G01X357Y1129D01*
G01X378Y1080D01*
G01X401Y1032D01*
G01X425Y985D01*
G01X452Y938D01*
G01X480Y893D01*
G01X510Y848D01*
G01X542Y805D01*
G01X575Y764D01*
G01X610Y723D01*
G01X646Y684D01*
G01X684Y646D01*
G01X723Y610D01*
G01X764Y575D01*
G01X805Y542D01*
G01X848Y510D01*
G01X893Y480D01*
G01X938Y452D01*
G01X985Y425D01*
G01X1032Y401D01*
G01X1080Y378D01*
G01X1129Y357D01*
G01X1179Y338D01*
G01X1230Y321D01*
G01X1281Y306D01*
G01X1333Y293D01*
G01X1385Y281D01*
G01X1438Y272D01*
G01X1490Y265D01*
G01X1544Y260D01*
G01X1597Y257D01*
G01X1651Y256D01*
G01X61849Y256D01*
G01X61905Y257D01*
G01X61962Y260D01*
G01X62019Y266D01*
G01X62075Y273D01*
G01X62131Y282D01*
G01X62187Y294D01*
G01X62242Y308D01*
G01X62297Y324D01*
G01X62351Y341D01*
G01X62404Y361D01*
G01X62457Y383D01*
G01X62508Y407D01*
G01X62559Y432D01*
G01X62609Y460D01*
G01X62658Y489D01*
G01X62705Y520D01*
G01X62752Y553D01*
G01X62797Y588D01*
G01X62841Y624D01*
G01X62883Y662D01*
G01X62924Y702D01*
G01X62964Y743D01*
G01X63002Y785D01*
G01X63038Y829D01*
G01X63073Y874D01*
G01X63106Y921D01*
G01X63137Y968D01*
G01X63166Y1017D01*
G01X63194Y1067D01*
G01X63219Y1118D01*
G01X63243Y1169D01*
G01X63265Y1222D01*
G01X63285Y1275D01*
G01X63302Y1329D01*
G01X63318Y1384D01*
G01X63332Y1439D01*
G01X63344Y1495D01*
G01X63353Y1551D01*
G01X63360Y1607D01*
G01X63366Y1664D01*
G01X63369Y1721D01*
G01X63370Y1778D01*
G01X63370Y46228D01*
G01X63369Y46286D01*
G01X63366Y46345D01*
G01X63360Y46404D01*
G01X63353Y46462D01*
G01X63344Y46520D01*
G01X63332Y46578D01*
G01X63319Y46635D01*
G01X63303Y46692D01*
G01X63286Y46748D01*
G01X63266Y46804D01*
G01X63244Y46858D01*
G01X63221Y46912D01*
G01X63196Y46966D01*
G01X63168Y47017D01*
G01X63139Y47069D01*
G01X63108Y47119D01*
G01X63076Y47168D01*
G01X63041Y47216D01*
G01X63005Y47262D01*
G01X62967Y47307D01*
G01X62928Y47351D01*
G01X62887Y47393D01*
G01X62845Y47434D01*
G01X62801Y47473D01*
G01X62756Y47511D01*
G01X62710Y47547D01*
G01X62662Y47582D01*
G01X62613Y47614D01*
G01X62563Y47645D01*
G01X62511Y47674D01*
G01X62460Y47702D01*
G01X62406Y47727D01*
G01X62352Y47750D01*
G01X62298Y47772D01*
G01X62242Y47792D01*
G01X62186Y47809D01*
G01X62129Y47825D01*
G01X62072Y47838D01*
G01X62014Y47850D01*
G01X61956Y47859D01*
G01X61898Y47866D01*
G01X61839Y47872D01*
G01X61780Y47875D01*
G01X61722Y47876D01*
G37*

%LPC*%
G36*
G01X49199Y2209D02*
G01X48718Y2209D01*
G01X48739Y2168D01*
G01X48762Y2128D01*
G01X48787Y2089D01*
G01X48813Y2051D01*
G01X48841Y2014D01*
G01X48871Y1979D01*
G01X48902Y1945D01*
G01X48935Y1912D01*
G01X48969Y1881D01*
G01X49004Y1851D01*
G01X49041Y1823D01*
G01X49079Y1797D01*
G01X49118Y1772D01*
G01X49158Y1749D01*
G01X49199Y1728D01*
G01X49199Y2209D01*
G37*
G36*
G01X50595Y2209D02*
G01X50114Y2209D01*
G01X50114Y1728D01*
G01X50155Y1749D01*
G01X50195Y1772D01*
G01X50234Y1797D01*
G01X50272Y1823D01*
G01X50309Y1851D01*
G01X50344Y1881D01*
G01X50378Y1912D01*
G01X50411Y1945D01*
G01X50442Y1979D01*
G01X50472Y2014D01*
G01X50500Y2051D01*
G01X50526Y2089D01*
G01X50551Y2128D01*
G01X50574Y2168D01*
G01X50595Y2209D01*
G37*
G36*
G01X61134Y4738D02*
G01X61087Y4739D01*
G01X61039Y4738D01*
G01X60992Y4735D01*
G01X60945Y4729D01*
G01X60898Y4722D01*
G01X60851Y4713D01*
G01X60806Y4701D01*
G01X60760Y4687D01*
G01X60715Y4672D01*
G01X60671Y4654D01*
G01X60628Y4634D01*
G01X60586Y4613D01*
G01X60544Y4589D01*
G01X60504Y4564D01*
G01X60466Y4537D01*
G01X60428Y4509D01*
G01X60392Y4478D01*
G01X60357Y4446D01*
G01X60323Y4412D01*
G01X60291Y4377D01*
G01X60260Y4341D01*
G01X60232Y4303D01*
G01X60205Y4265D01*
G01X60180Y4225D01*
G01X60156Y4183D01*
G01X60135Y4141D01*
G01X60115Y4098D01*
G01X60097Y4054D01*
G01X60082Y4009D01*
G01X60068Y3963D01*
G01X60056Y3918D01*
G01X60047Y3871D01*
G01X60040Y3824D01*
G01X60034Y3777D01*
G01X60031Y3730D01*
G01X60030Y3683D01*
G01X60031Y3635D01*
G01X60034Y3588D01*
G01X60040Y3541D01*
G01X60047Y3494D01*
G01X60056Y3447D01*
G01X60068Y3402D01*
G01X60082Y3356D01*
G01X60097Y3311D01*
G01X60115Y3267D01*
G01X60135Y3224D01*
G01X60156Y3182D01*
G01X60180Y3140D01*
G01X60205Y3100D01*
G01X60232Y3062D01*
G01X60260Y3024D01*
G01X60291Y2988D01*
G01X60323Y2953D01*
G01X60357Y2919D01*
G01X60392Y2887D01*
G01X60428Y2856D01*
G01X60466Y2828D01*
G01X60504Y2801D01*
G01X60544Y2776D01*
G01X60586Y2752D01*
G01X60628Y2731D01*
G01X60671Y2711D01*
G01X60715Y2693D01*
G01X60760Y2678D01*
G01X60806Y2664D01*
G01X60851Y2652D01*
G01X60898Y2643D01*
G01X60945Y2636D01*
G01X60992Y2630D01*
G01X61039Y2627D01*
G01X61087Y2626D01*
G01X61134Y2627D01*
G01X61181Y2630D01*
G01X61228Y2636D01*
G01X61275Y2643D01*
G01X61322Y2652D01*
G01X61367Y2664D01*
G01X61413Y2678D01*
G01X61458Y2693D01*
G01X61502Y2711D01*
G01X61545Y2731D01*
G01X61587Y2752D01*
G01X61629Y2776D01*
G01X61669Y2801D01*
G01X61707Y2828D01*
G01X61745Y2856D01*
G01X61781Y2887D01*
G01X61816Y2919D01*
G01X61850Y2953D01*
G01X61882Y2988D01*
G01X61913Y3024D01*
G01X61941Y3062D01*
G01X61968Y3100D01*
G01X61993Y3140D01*
G01X62017Y3182D01*
G01X62038Y3224D01*
G01X62058Y3267D01*
G01X62076Y3311D01*
G01X62091Y3356D01*
G01X62105Y3402D01*
G01X62117Y3447D01*
G01X62126Y3494D01*
G01X62133Y3541D01*
G01X62139Y3588D01*
G01X62142Y3635D01*
G01X62143Y3683D01*
G01X62142Y3730D01*
G01X62139Y3777D01*
G01X62133Y3824D01*
G01X62126Y3871D01*
G01X62117Y3918D01*
G01X62105Y3963D01*
G01X62091Y4009D01*
G01X62076Y4054D01*
G01X62058Y4098D01*
G01X62038Y4141D01*
G01X62017Y4183D01*
G01X61993Y4225D01*
G01X61968Y4265D01*
G01X61941Y4303D01*
G01X61913Y4341D01*
G01X61882Y4377D01*
G01X61850Y4412D01*
G01X61816Y4446D01*
G01X61781Y4478D01*
G01X61745Y4509D01*
G01X61707Y4537D01*
G01X61669Y4564D01*
G01X61629Y4589D01*
G01X61587Y4613D01*
G01X61545Y4634D01*
G01X61502Y4654D01*
G01X61458Y4672D01*
G01X61413Y4687D01*
G01X61367Y4701D01*
G01X61322Y4713D01*
G01X61275Y4722D01*
G01X61228Y4729D01*
G01X61181Y4735D01*
G01X61134Y4738D01*
G37*
G36*
G01X59347Y4739D02*
G01X57746Y4739D01*
G01X57723Y4738D01*
G01X57699Y4735D01*
G01X57676Y4729D01*
G01X57654Y4722D01*
G01X57632Y4712D01*
G01X57611Y4701D01*
G01X57592Y4687D01*
G01X57574Y4672D01*
G01X57557Y4655D01*
G01X57542Y4637D01*
G01X57528Y4618D01*
G01X57517Y4597D01*
G01X57507Y4575D01*
G01X57500Y4553D01*
G01X57494Y4530D01*
G01X57491Y4506D01*
G01X57490Y4483D01*
G01X57490Y2882D01*
G01X57491Y2859D01*
G01X57494Y2835D01*
G01X57500Y2812D01*
G01X57507Y2790D01*
G01X57517Y2768D01*
G01X57528Y2747D01*
G01X57542Y2728D01*
G01X57557Y2710D01*
G01X57574Y2693D01*
G01X57592Y2678D01*
G01X57611Y2664D01*
G01X57632Y2653D01*
G01X57654Y2643D01*
G01X57676Y2636D01*
G01X57699Y2630D01*
G01X57723Y2627D01*
G01X57746Y2626D01*
G01X59347Y2626D01*
G01X59370Y2627D01*
G01X59394Y2630D01*
G01X59417Y2636D01*
G01X59439Y2643D01*
G01X59461Y2653D01*
G01X59482Y2664D01*
G01X59501Y2678D01*
G01X59519Y2693D01*
G01X59536Y2710D01*
G01X59551Y2728D01*
G01X59565Y2747D01*
G01X59576Y2768D01*
G01X59586Y2790D01*
G01X59593Y2812D01*
G01X59599Y2835D01*
G01X59602Y2859D01*
G01X59603Y2882D01*
G01X59603Y4483D01*
G01X59602Y4506D01*
G01X59599Y4530D01*
G01X59593Y4553D01*
G01X59586Y4575D01*
G01X59576Y4597D01*
G01X59565Y4618D01*
G01X59551Y4637D01*
G01X59536Y4655D01*
G01X59519Y4672D01*
G01X59501Y4687D01*
G01X59482Y4701D01*
G01X59461Y4712D01*
G01X59439Y4722D01*
G01X59417Y4729D01*
G01X59394Y4735D01*
G01X59370Y4738D01*
G01X59347Y4739D01*
G37*
G36*
G01X50155Y3584D02*
G01X50114Y3605D01*
G01X50114Y3124D01*
G01X50595Y3124D01*
G01X50574Y3165D01*
G01X50551Y3205D01*
G01X50526Y3244D01*
G01X50500Y3282D01*
G01X50472Y3319D01*
G01X50442Y3354D01*
G01X50411Y3388D01*
G01X50378Y3421D01*
G01X50344Y3452D01*
G01X50309Y3482D01*
G01X50272Y3510D01*
G01X50234Y3536D01*
G01X50195Y3561D01*
G01X50155Y3584D01*
G37*
G36*
G01X49199Y3124D02*
G01X49199Y3605D01*
G01X49158Y3584D01*
G01X49118Y3561D01*
G01X49079Y3536D01*
G01X49041Y3510D01*
G01X49004Y3482D01*
G01X48969Y3452D01*
G01X48935Y3421D01*
G01X48902Y3388D01*
G01X48871Y3354D01*
G01X48841Y3319D01*
G01X48813Y3282D01*
G01X48787Y3244D01*
G01X48762Y3205D01*
G01X48739Y3165D01*
G01X48718Y3124D01*
G01X49199Y3124D01*
G37*
G36*
G01X33190Y11169D02*
G01X33147Y11170D01*
G01X33103Y11169D01*
G01X33060Y11166D01*
G01X33017Y11160D01*
G01X32974Y11153D01*
G01X32932Y11143D01*
G01X32890Y11132D01*
G01X32849Y11119D01*
G01X32808Y11103D01*
G01X32769Y11085D01*
G01X32730Y11066D01*
G01X32692Y11044D01*
G01X32656Y11021D01*
G01X32620Y10996D01*
G01X32586Y10969D01*
G01X32553Y10941D01*
G01X32522Y10911D01*
G01X26841Y5231D01*
G01X26829Y5220D01*
G01X26816Y5212D01*
G01X26801Y5206D01*
G01X26785Y5202D01*
G01X26770Y5201D01*
G01X7202Y5201D01*
G01X7187Y5202D01*
G01X7172Y5205D01*
G01X7159Y5211D01*
G01X7146Y5218D01*
G01X7134Y5227D01*
G01X7124Y5238D01*
G01X7115Y5250D01*
G01X7102Y5270D01*
G01X7087Y5289D01*
G01X7070Y5306D01*
G01X7052Y5321D01*
G01X7032Y5335D01*
G01X7011Y5347D01*
G01X6989Y5356D01*
G01X6966Y5364D01*
G01X6943Y5370D01*
G01X6919Y5373D01*
G01X6896Y5374D01*
G01X5295Y5374D01*
G01X5272Y5373D01*
G01X5248Y5370D01*
G01X5225Y5364D01*
G01X5203Y5357D01*
G01X5181Y5347D01*
G01X5160Y5336D01*
G01X5141Y5322D01*
G01X5123Y5307D01*
G01X5106Y5290D01*
G01X5091Y5272D01*
G01X5077Y5253D01*
G01X5066Y5232D01*
G01X5056Y5210D01*
G01X5049Y5188D01*
G01X5043Y5165D01*
G01X5040Y5141D01*
G01X5039Y5118D01*
G01X5039Y3517D01*
G01X5040Y3494D01*
G01X5043Y3470D01*
G01X5049Y3447D01*
G01X5056Y3425D01*
G01X5066Y3403D01*
G01X5077Y3382D01*
G01X5091Y3363D01*
G01X5106Y3345D01*
G01X5123Y3328D01*
G01X5141Y3313D01*
G01X5160Y3299D01*
G01X5181Y3288D01*
G01X5203Y3278D01*
G01X5225Y3271D01*
G01X5248Y3265D01*
G01X5272Y3262D01*
G01X5295Y3261D01*
G01X6896Y3261D01*
G01X6919Y3262D01*
G01X6943Y3265D01*
G01X6966Y3271D01*
G01X6989Y3279D01*
G01X7011Y3288D01*
G01X7032Y3300D01*
G01X7052Y3314D01*
G01X7070Y3329D01*
G01X7087Y3346D01*
G01X7102Y3365D01*
G01X7115Y3385D01*
G01X7124Y3397D01*
G01X7134Y3408D01*
G01X7146Y3417D01*
G01X7159Y3424D01*
G01X7172Y3430D01*
G01X7187Y3433D01*
G01X7202Y3434D01*
G01X27178Y3434D01*
G01X27221Y3435D01*
G01X27264Y3438D01*
G01X27307Y3444D01*
G01X27350Y3451D01*
G01X27392Y3461D01*
G01X27434Y3472D01*
G01X27475Y3485D01*
G01X27516Y3501D01*
G01X27555Y3519D01*
G01X27594Y3538D01*
G01X27632Y3560D01*
G01X27668Y3583D01*
G01X27704Y3608D01*
G01X27738Y3635D01*
G01X27771Y3663D01*
G01X27802Y3693D01*
G01X33771Y9662D01*
G01X33801Y9693D01*
G01X33829Y9726D01*
G01X33856Y9760D01*
G01X33881Y9796D01*
G01X33904Y9832D01*
G01X33926Y9870D01*
G01X33945Y9909D01*
G01X33963Y9948D01*
G01X33979Y9989D01*
G01X33992Y10030D01*
G01X34003Y10072D01*
G01X34013Y10114D01*
G01X34020Y10157D01*
G01X34026Y10200D01*
G01X34029Y10243D01*
G01X34030Y10287D01*
G01X34029Y10330D01*
G01X34026Y10373D01*
G01X34020Y10416D01*
G01X34013Y10459D01*
G01X34003Y10501D01*
G01X33992Y10543D01*
G01X33979Y10584D01*
G01X33963Y10625D01*
G01X33945Y10664D01*
G01X33926Y10703D01*
G01X33904Y10741D01*
G01X33881Y10777D01*
G01X33856Y10813D01*
G01X33829Y10847D01*
G01X33801Y10880D01*
G01X33771Y10911D01*
G01X33740Y10941D01*
G01X33707Y10969D01*
G01X33673Y10996D01*
G01X33637Y11021D01*
G01X33601Y11044D01*
G01X33563Y11066D01*
G01X33524Y11085D01*
G01X33485Y11103D01*
G01X33444Y11119D01*
G01X33403Y11132D01*
G01X33361Y11143D01*
G01X33319Y11153D01*
G01X33276Y11160D01*
G01X33233Y11166D01*
G01X33190Y11169D01*
G37*
G36*
G01X49703Y6249D02*
G01X49657Y6250D01*
G01X49610Y6249D01*
G01X49563Y6246D01*
G01X49516Y6241D01*
G01X49470Y6234D01*
G01X49424Y6224D01*
G01X49379Y6213D01*
G01X49334Y6199D01*
G01X49290Y6184D01*
G01X49246Y6167D01*
G01X49203Y6147D01*
G01X49162Y6126D01*
G01X49121Y6103D01*
G01X49081Y6078D01*
G01X49043Y6051D01*
G01X49006Y6023D01*
G01X48970Y5993D01*
G01X48935Y5961D01*
G01X48902Y5928D01*
G01X48870Y5893D01*
G01X48840Y5857D01*
G01X48812Y5820D01*
G01X48785Y5782D01*
G01X48760Y5742D01*
G01X48737Y5701D01*
G01X48716Y5660D01*
G01X48696Y5617D01*
G01X48679Y5573D01*
G01X48664Y5529D01*
G01X48650Y5484D01*
G01X48639Y5439D01*
G01X48629Y5393D01*
G01X48622Y5347D01*
G01X48617Y5300D01*
G01X48614Y5253D01*
G01X48613Y5207D01*
G01X48614Y5160D01*
G01X48617Y5113D01*
G01X48622Y5066D01*
G01X48629Y5020D01*
G01X48639Y4974D01*
G01X48650Y4929D01*
G01X48664Y4884D01*
G01X48679Y4840D01*
G01X48696Y4796D01*
G01X48716Y4753D01*
G01X48737Y4712D01*
G01X48760Y4671D01*
G01X48785Y4631D01*
G01X48812Y4593D01*
G01X48840Y4556D01*
G01X48870Y4520D01*
G01X48902Y4485D01*
G01X48935Y4452D01*
G01X48970Y4420D01*
G01X49006Y4390D01*
G01X49043Y4362D01*
G01X49081Y4335D01*
G01X49121Y4310D01*
G01X49162Y4287D01*
G01X49203Y4266D01*
G01X49246Y4246D01*
G01X49290Y4229D01*
G01X49334Y4214D01*
G01X49379Y4200D01*
G01X49424Y4189D01*
G01X49470Y4179D01*
G01X49516Y4172D01*
G01X49563Y4167D01*
G01X49610Y4164D01*
G01X49657Y4163D01*
G01X49703Y4164D01*
G01X49750Y4167D01*
G01X49797Y4172D01*
G01X49843Y4179D01*
G01X49889Y4189D01*
G01X49934Y4200D01*
G01X49979Y4214D01*
G01X50023Y4229D01*
G01X50067Y4246D01*
G01X50110Y4266D01*
G01X50151Y4287D01*
G01X50192Y4310D01*
G01X50232Y4335D01*
G01X50270Y4362D01*
G01X50307Y4390D01*
G01X50343Y4420D01*
G01X50378Y4452D01*
G01X50411Y4485D01*
G01X50443Y4520D01*
G01X50473Y4556D01*
G01X50501Y4593D01*
G01X50528Y4631D01*
G01X50553Y4671D01*
G01X50576Y4712D01*
G01X50597Y4753D01*
G01X50617Y4796D01*
G01X50634Y4840D01*
G01X50649Y4884D01*
G01X50663Y4929D01*
G01X50674Y4974D01*
G01X50684Y5020D01*
G01X50691Y5066D01*
G01X50696Y5113D01*
G01X50699Y5160D01*
G01X50700Y5207D01*
G01X50699Y5253D01*
G01X50696Y5300D01*
G01X50691Y5347D01*
G01X50684Y5393D01*
G01X50674Y5439D01*
G01X50663Y5484D01*
G01X50649Y5529D01*
G01X50634Y5573D01*
G01X50617Y5617D01*
G01X50597Y5660D01*
G01X50576Y5701D01*
G01X50553Y5742D01*
G01X50528Y5782D01*
G01X50501Y5820D01*
G01X50473Y5857D01*
G01X50443Y5893D01*
G01X50411Y5928D01*
G01X50378Y5961D01*
G01X50343Y5993D01*
G01X50307Y6023D01*
G01X50270Y6051D01*
G01X50232Y6078D01*
G01X50192Y6103D01*
G01X50151Y6126D01*
G01X50110Y6147D01*
G01X50067Y6167D01*
G01X50023Y6184D01*
G01X49979Y6199D01*
G01X49934Y6213D01*
G01X49889Y6224D01*
G01X49843Y6234D01*
G01X49797Y6241D01*
G01X49750Y6246D01*
G01X49703Y6249D01*
G37*
G36*
G01X31158Y13074D02*
G01X31115Y13075D01*
G01X31071Y13074D01*
G01X31028Y13071D01*
G01X30985Y13065D01*
G01X30942Y13058D01*
G01X30900Y13048D01*
G01X30858Y13037D01*
G01X30817Y13024D01*
G01X30776Y13008D01*
G01X30737Y12990D01*
G01X30698Y12971D01*
G01X30660Y12949D01*
G01X30624Y12926D01*
G01X30588Y12901D01*
G01X30554Y12874D01*
G01X30521Y12846D01*
G01X30490Y12816D01*
G01X25444Y7771D01*
G01X25432Y7760D01*
G01X25419Y7752D01*
G01X25404Y7746D01*
G01X25388Y7742D01*
G01X25373Y7741D01*
G01X6705Y7741D01*
G01X6686Y7743D01*
G01X6668Y7748D01*
G01X6651Y7756D01*
G01X6609Y7781D01*
G01X6566Y7803D01*
G01X6522Y7824D01*
G01X6477Y7843D01*
G01X6431Y7859D01*
G01X6384Y7874D01*
G01X6337Y7886D01*
G01X6290Y7896D01*
G01X6241Y7904D01*
G01X6193Y7910D01*
G01X6144Y7913D01*
G01X6096Y7914D01*
G01X6048Y7913D01*
G01X6001Y7910D01*
G01X5954Y7904D01*
G01X5907Y7897D01*
G01X5860Y7888D01*
G01X5815Y7876D01*
G01X5769Y7862D01*
G01X5724Y7847D01*
G01X5680Y7829D01*
G01X5637Y7809D01*
G01X5595Y7788D01*
G01X5553Y7764D01*
G01X5513Y7739D01*
G01X5475Y7712D01*
G01X5437Y7684D01*
G01X5401Y7653D01*
G01X5366Y7621D01*
G01X5332Y7587D01*
G01X5300Y7552D01*
G01X5269Y7516D01*
G01X5241Y7478D01*
G01X5214Y7440D01*
G01X5189Y7400D01*
G01X5165Y7358D01*
G01X5144Y7316D01*
G01X5124Y7273D01*
G01X5106Y7229D01*
G01X5091Y7184D01*
G01X5077Y7138D01*
G01X5065Y7093D01*
G01X5056Y7046D01*
G01X5049Y6999D01*
G01X5043Y6952D01*
G01X5040Y6905D01*
G01X5039Y6858D01*
G01X5040Y6810D01*
G01X5043Y6763D01*
G01X5049Y6716D01*
G01X5056Y6669D01*
G01X5065Y6622D01*
G01X5077Y6577D01*
G01X5091Y6531D01*
G01X5106Y6486D01*
G01X5124Y6442D01*
G01X5144Y6399D01*
G01X5165Y6357D01*
G01X5189Y6315D01*
G01X5214Y6275D01*
G01X5241Y6237D01*
G01X5269Y6199D01*
G01X5300Y6163D01*
G01X5332Y6128D01*
G01X5366Y6094D01*
G01X5401Y6062D01*
G01X5437Y6031D01*
G01X5475Y6003D01*
G01X5513Y5976D01*
G01X5553Y5951D01*
G01X5595Y5927D01*
G01X5637Y5906D01*
G01X5680Y5886D01*
G01X5724Y5868D01*
G01X5769Y5853D01*
G01X5815Y5839D01*
G01X5860Y5827D01*
G01X5907Y5818D01*
G01X5954Y5811D01*
G01X6001Y5805D01*
G01X6048Y5802D01*
G01X6096Y5801D01*
G01X6144Y5802D01*
G01X6193Y5805D01*
G01X6241Y5811D01*
G01X6290Y5819D01*
G01X6337Y5829D01*
G01X6384Y5841D01*
G01X6431Y5856D01*
G01X6477Y5872D01*
G01X6522Y5891D01*
G01X6566Y5912D01*
G01X6609Y5934D01*
G01X6651Y5959D01*
G01X6668Y5967D01*
G01X6686Y5972D01*
G01X6705Y5974D01*
G01X25781Y5974D01*
G01X25824Y5975D01*
G01X25867Y5978D01*
G01X25910Y5984D01*
G01X25953Y5991D01*
G01X25995Y6001D01*
G01X26037Y6012D01*
G01X26078Y6025D01*
G01X26119Y6041D01*
G01X26158Y6059D01*
G01X26197Y6078D01*
G01X26235Y6100D01*
G01X26271Y6123D01*
G01X26307Y6148D01*
G01X26341Y6175D01*
G01X26374Y6203D01*
G01X26405Y6233D01*
G01X31739Y11567D01*
G01X31769Y11598D01*
G01X31797Y11631D01*
G01X31824Y11665D01*
G01X31849Y11701D01*
G01X31872Y11737D01*
G01X31894Y11775D01*
G01X31913Y11814D01*
G01X31931Y11853D01*
G01X31947Y11894D01*
G01X31960Y11935D01*
G01X31971Y11977D01*
G01X31981Y12019D01*
G01X31988Y12062D01*
G01X31994Y12105D01*
G01X31997Y12148D01*
G01X31998Y12192D01*
G01X31997Y12235D01*
G01X31994Y12278D01*
G01X31988Y12321D01*
G01X31981Y12364D01*
G01X31971Y12406D01*
G01X31960Y12448D01*
G01X31947Y12489D01*
G01X31931Y12530D01*
G01X31913Y12569D01*
G01X31894Y12608D01*
G01X31872Y12646D01*
G01X31849Y12682D01*
G01X31824Y12718D01*
G01X31797Y12752D01*
G01X31769Y12785D01*
G01X31739Y12816D01*
G01X31708Y12846D01*
G01X31675Y12874D01*
G01X31641Y12901D01*
G01X31605Y12926D01*
G01X31569Y12949D01*
G01X31531Y12971D01*
G01X31492Y12990D01*
G01X31453Y13008D01*
G01X31412Y13024D01*
G01X31371Y13037D01*
G01X31329Y13048D01*
G01X31287Y13058D01*
G01X31244Y13065D01*
G01X31201Y13071D01*
G01X31158Y13074D01*
G37*
G36*
G01X45511Y32132D02*
G01X45466Y32133D01*
G01X45420Y32132D01*
G01X45374Y32129D01*
G01X45329Y32124D01*
G01X45284Y32117D01*
G01X45239Y32108D01*
G01X45195Y32096D01*
G01X45151Y32083D01*
G01X45107Y32068D01*
G01X45065Y32051D01*
G01X45024Y32032D01*
G01X44983Y32012D01*
G01X44943Y31989D01*
G01X44904Y31964D01*
G01X44867Y31938D01*
G01X44831Y31911D01*
G01X44795Y31882D01*
G01X44761Y31851D01*
G01X44729Y31819D01*
G01X44698Y31785D01*
G01X44669Y31750D01*
G01X44642Y31713D01*
G01X44616Y31676D01*
G01X44591Y31637D01*
G01X44568Y31597D01*
G01X44548Y31556D01*
G01X44529Y31515D01*
G01X44512Y31473D01*
G01X44497Y31429D01*
G01X44484Y31385D01*
G01X44472Y31341D01*
G01X44463Y31296D01*
G01X44456Y31251D01*
G01X44451Y31206D01*
G01X44448Y31160D01*
G01X44447Y31115D01*
G01X44448Y31069D01*
G01X44451Y31023D01*
G01X44456Y30978D01*
G01X44463Y30933D01*
G01X44472Y30888D01*
G01X44484Y30844D01*
G01X44497Y30800D01*
G01X44512Y30756D01*
G01X44529Y30714D01*
G01X44548Y30673D01*
G01X44568Y30632D01*
G01X44591Y30592D01*
G01X44616Y30553D01*
G01X44642Y30516D01*
G01X44669Y30480D01*
G01X44698Y30444D01*
G01X44729Y30410D01*
G01X44761Y30378D01*
G01X44795Y30347D01*
G01X44831Y30318D01*
G01X44867Y30291D01*
G01X44904Y30265D01*
G01X44943Y30240D01*
G01X44983Y30217D01*
G01X45024Y30197D01*
G01X45065Y30178D01*
G01X45107Y30161D01*
G01X45151Y30146D01*
G01X45195Y30133D01*
G01X45239Y30121D01*
G01X45284Y30112D01*
G01X45329Y30105D01*
G01X45374Y30100D01*
G01X45420Y30097D01*
G01X45466Y30096D01*
G01X45515Y30097D01*
G01X45564Y30101D01*
G01X45612Y30107D01*
G01X45661Y30115D01*
G01X45709Y30125D01*
G01X45756Y30138D01*
G01X45803Y30153D01*
G01X45819Y30158D01*
G01X45836Y30159D01*
G01X45852Y30158D01*
G01X45868Y30154D01*
G01X45883Y30148D01*
G01X45896Y30140D01*
G01X45908Y30129D01*
G01X51656Y24381D01*
G01X51667Y24369D01*
G01X51675Y24356D01*
G01X51681Y24341D01*
G01X51685Y24326D01*
G01X51686Y24309D01*
G01X51686Y9218D01*
G01X51685Y9201D01*
G01X51681Y9186D01*
G01X51675Y9171D01*
G01X51667Y9158D01*
G01X51656Y9146D01*
G01X50874Y8363D01*
G01X50862Y8353D01*
G01X50848Y8344D01*
G01X50834Y8338D01*
G01X50818Y8335D01*
G01X50802Y8334D01*
G01X50788Y8335D01*
G01X50774Y8338D01*
G01X50760Y8343D01*
G01X50747Y8349D01*
G01X50735Y8358D01*
G01X50725Y8369D01*
G01X50717Y8380D01*
G01X50710Y8393D01*
G01X50705Y8406D01*
G01X50701Y8421D01*
G01X50700Y8435D01*
G01X50700Y8534D01*
G01X50699Y8558D01*
G01X50696Y8581D01*
G01X50691Y8604D01*
G01X50683Y8626D01*
G01X50674Y8648D01*
G01X50662Y8669D01*
G01X50649Y8688D01*
G01X50633Y8707D01*
G01X50617Y8723D01*
G01X50598Y8739D01*
G01X50579Y8752D01*
G01X50558Y8764D01*
G01X50536Y8773D01*
G01X50514Y8781D01*
G01X50491Y8786D01*
G01X50468Y8789D01*
G01X50444Y8790D01*
G01X48869Y8790D01*
G01X48845Y8789D01*
G01X48822Y8786D01*
G01X48799Y8781D01*
G01X48777Y8773D01*
G01X48755Y8764D01*
G01X48734Y8752D01*
G01X48715Y8739D01*
G01X48696Y8723D01*
G01X48680Y8707D01*
G01X48664Y8688D01*
G01X48651Y8669D01*
G01X48639Y8648D01*
G01X48630Y8626D01*
G01X48622Y8604D01*
G01X48617Y8581D01*
G01X48614Y8558D01*
G01X48613Y8534D01*
G01X48613Y6959D01*
G01X48614Y6935D01*
G01X48617Y6912D01*
G01X48622Y6889D01*
G01X48630Y6867D01*
G01X48639Y6845D01*
G01X48651Y6824D01*
G01X48664Y6805D01*
G01X48680Y6786D01*
G01X48696Y6770D01*
G01X48715Y6754D01*
G01X48734Y6741D01*
G01X48755Y6729D01*
G01X48777Y6720D01*
G01X48799Y6712D01*
G01X48822Y6707D01*
G01X48845Y6704D01*
G01X48869Y6703D01*
G01X50444Y6703D01*
G01X50468Y6704D01*
G01X50491Y6707D01*
G01X50514Y6712D01*
G01X50536Y6720D01*
G01X50558Y6729D01*
G01X50579Y6741D01*
G01X50598Y6754D01*
G01X50617Y6770D01*
G01X50633Y6786D01*
G01X50649Y6805D01*
G01X50662Y6824D01*
G01X50674Y6845D01*
G01X50683Y6867D01*
G01X50691Y6889D01*
G01X50696Y6912D01*
G01X50699Y6935D01*
G01X50700Y6959D01*
G01X50700Y7261D01*
G01X50701Y7276D01*
G01X50705Y7290D01*
G01X50710Y7304D01*
G01X50717Y7316D01*
G01X50725Y7328D01*
G01X50735Y7338D01*
G01X50747Y7347D01*
G01X50759Y7354D01*
G01X50773Y7359D01*
G01X50787Y7362D01*
G01X50802Y7363D01*
G01X50832Y7364D01*
G01X50861Y7368D01*
G01X50890Y7374D01*
G01X50919Y7382D01*
G01X50947Y7392D01*
G01X50974Y7405D01*
G01X51000Y7420D01*
G01X51025Y7437D01*
G01X51049Y7455D01*
G01X51071Y7475D01*
G01X52341Y8745D01*
G01X52361Y8768D01*
G01X52380Y8791D01*
G01X52397Y8816D01*
G01X52411Y8842D01*
G01X52424Y8870D01*
G01X52434Y8898D01*
G01X52442Y8927D01*
G01X52448Y8957D01*
G01X52452Y8987D01*
G01X52453Y9017D01*
G01X52453Y24511D01*
G01X52452Y24540D01*
G01X52448Y24570D01*
G01X52442Y24600D01*
G01X52434Y24629D01*
G01X52424Y24657D01*
G01X52411Y24685D01*
G01X52397Y24711D01*
G01X52380Y24736D01*
G01X52361Y24759D01*
G01X52341Y24782D01*
G01X46451Y30672D01*
G01X46440Y30684D01*
G01X46432Y30697D01*
G01X46426Y30712D01*
G01X46422Y30728D01*
G01X46421Y30744D01*
G01X46422Y30761D01*
G01X46427Y30777D01*
G01X46442Y30824D01*
G01X46455Y30871D01*
G01X46465Y30919D01*
G01X46473Y30968D01*
G01X46479Y31016D01*
G01X46483Y31065D01*
G01X46484Y31115D01*
G01X46483Y31160D01*
G01X46480Y31206D01*
G01X46475Y31251D01*
G01X46468Y31296D01*
G01X46459Y31341D01*
G01X46447Y31385D01*
G01X46434Y31429D01*
G01X46419Y31473D01*
G01X46402Y31515D01*
G01X46383Y31556D01*
G01X46363Y31597D01*
G01X46340Y31637D01*
G01X46315Y31676D01*
G01X46289Y31713D01*
G01X46262Y31750D01*
G01X46233Y31785D01*
G01X46202Y31819D01*
G01X46170Y31851D01*
G01X46136Y31882D01*
G01X46101Y31911D01*
G01X46064Y31938D01*
G01X46027Y31964D01*
G01X45988Y31989D01*
G01X45948Y32012D01*
G01X45907Y32032D01*
G01X45866Y32051D01*
G01X45824Y32068D01*
G01X45780Y32083D01*
G01X45736Y32096D01*
G01X45692Y32108D01*
G01X45647Y32117D01*
G01X45602Y32124D01*
G01X45557Y32129D01*
G01X45511Y32132D01*
G37*
G36*
G01X15045Y11915D02*
G01X14986Y11916D01*
G01X14926Y11915D01*
G01X14866Y11912D01*
G01X14806Y11907D01*
G01X14746Y11900D01*
G01X14687Y11890D01*
G01X14628Y11879D01*
G01X14569Y11866D01*
G01X14512Y11851D01*
G01X14454Y11834D01*
G01X14397Y11815D01*
G01X14341Y11794D01*
G01X14285Y11770D01*
G01X14231Y11746D01*
G01X14177Y11719D01*
G01X14124Y11691D01*
G01X14073Y11660D01*
G01X14022Y11628D01*
G01X13973Y11595D01*
G01X13924Y11559D01*
G01X13877Y11522D01*
G01X13831Y11483D01*
G01X13787Y11443D01*
G01X13743Y11402D01*
G01X13702Y11358D01*
G01X13662Y11314D01*
G01X13623Y11268D01*
G01X13586Y11221D01*
G01X13550Y11172D01*
G01X13517Y11123D01*
G01X13485Y11072D01*
G01X13454Y11021D01*
G01X13426Y10968D01*
G01X13399Y10914D01*
G01X13375Y10860D01*
G01X13351Y10804D01*
G01X13330Y10748D01*
G01X13311Y10691D01*
G01X13294Y10633D01*
G01X13279Y10576D01*
G01X13266Y10517D01*
G01X13255Y10458D01*
G01X13245Y10399D01*
G01X13238Y10339D01*
G01X13233Y10279D01*
G01X13230Y10219D01*
G01X13229Y10160D01*
G01X13230Y10100D01*
G01X13233Y10040D01*
G01X13238Y9980D01*
G01X13245Y9920D01*
G01X13255Y9861D01*
G01X13266Y9802D01*
G01X13279Y9743D01*
G01X13294Y9686D01*
G01X13311Y9628D01*
G01X13330Y9571D01*
G01X13351Y9515D01*
G01X13375Y9459D01*
G01X13399Y9405D01*
G01X13426Y9351D01*
G01X13454Y9298D01*
G01X13485Y9247D01*
G01X13517Y9196D01*
G01X13550Y9147D01*
G01X13586Y9098D01*
G01X13623Y9051D01*
G01X13662Y9005D01*
G01X13702Y8961D01*
G01X13743Y8917D01*
G01X13787Y8876D01*
G01X13831Y8836D01*
G01X13877Y8797D01*
G01X13924Y8760D01*
G01X13973Y8724D01*
G01X14022Y8691D01*
G01X14073Y8659D01*
G01X14124Y8628D01*
G01X14177Y8600D01*
G01X14231Y8573D01*
G01X14285Y8549D01*
G01X14341Y8525D01*
G01X14397Y8504D01*
G01X14454Y8485D01*
G01X14512Y8468D01*
G01X14569Y8453D01*
G01X14628Y8440D01*
G01X14687Y8429D01*
G01X14746Y8419D01*
G01X14806Y8412D01*
G01X14866Y8407D01*
G01X14926Y8404D01*
G01X14986Y8403D01*
G01X15045Y8404D01*
G01X15105Y8407D01*
G01X15165Y8412D01*
G01X15225Y8419D01*
G01X15284Y8429D01*
G01X15343Y8440D01*
G01X15402Y8453D01*
G01X15459Y8468D01*
G01X15517Y8485D01*
G01X15574Y8504D01*
G01X15630Y8525D01*
G01X15686Y8549D01*
G01X15740Y8573D01*
G01X15794Y8600D01*
G01X15847Y8628D01*
G01X15898Y8659D01*
G01X15949Y8691D01*
G01X15998Y8724D01*
G01X16047Y8760D01*
G01X16094Y8797D01*
G01X16140Y8836D01*
G01X16184Y8876D01*
G01X16228Y8917D01*
G01X16269Y8961D01*
G01X16309Y9005D01*
G01X16348Y9051D01*
G01X16385Y9098D01*
G01X16421Y9147D01*
G01X16454Y9196D01*
G01X16486Y9247D01*
G01X16517Y9298D01*
G01X16545Y9351D01*
G01X16572Y9405D01*
G01X16596Y9459D01*
G01X16620Y9515D01*
G01X16641Y9571D01*
G01X16660Y9628D01*
G01X16677Y9686D01*
G01X16692Y9743D01*
G01X16705Y9802D01*
G01X16716Y9861D01*
G01X16726Y9920D01*
G01X16733Y9980D01*
G01X16738Y10040D01*
G01X16741Y10100D01*
G01X16742Y10160D01*
G01X16741Y10219D01*
G01X16738Y10279D01*
G01X16733Y10339D01*
G01X16726Y10399D01*
G01X16716Y10458D01*
G01X16705Y10517D01*
G01X16692Y10576D01*
G01X16677Y10633D01*
G01X16660Y10691D01*
G01X16641Y10748D01*
G01X16620Y10804D01*
G01X16596Y10860D01*
G01X16572Y10914D01*
G01X16545Y10968D01*
G01X16517Y11021D01*
G01X16486Y11072D01*
G01X16454Y11123D01*
G01X16421Y11172D01*
G01X16385Y11221D01*
G01X16348Y11268D01*
G01X16309Y11314D01*
G01X16269Y11358D01*
G01X16228Y11402D01*
G01X16184Y11443D01*
G01X16140Y11483D01*
G01X16094Y11522D01*
G01X16047Y11559D01*
G01X15998Y11595D01*
G01X15949Y11628D01*
G01X15898Y11660D01*
G01X15847Y11691D01*
G01X15794Y11719D01*
G01X15740Y11746D01*
G01X15686Y11770D01*
G01X15630Y11794D01*
G01X15574Y11815D01*
G01X15517Y11834D01*
G01X15459Y11851D01*
G01X15402Y11866D01*
G01X15343Y11879D01*
G01X15284Y11890D01*
G01X15225Y11900D01*
G01X15165Y11907D01*
G01X15105Y11912D01*
G01X15045Y11915D01*
G37*
G36*
G01X59474Y11978D02*
G01X57873Y11978D01*
G01X57850Y11977D01*
G01X57826Y11974D01*
G01X57803Y11968D01*
G01X57781Y11961D01*
G01X57759Y11951D01*
G01X57738Y11940D01*
G01X57719Y11926D01*
G01X57701Y11911D01*
G01X57684Y11894D01*
G01X57669Y11876D01*
G01X57655Y11857D01*
G01X57644Y11836D01*
G01X57634Y11814D01*
G01X57627Y11792D01*
G01X57621Y11769D01*
G01X57618Y11745D01*
G01X57617Y11722D01*
G01X57617Y10121D01*
G01X57618Y10098D01*
G01X57621Y10074D01*
G01X57627Y10051D01*
G01X57634Y10029D01*
G01X57644Y10007D01*
G01X57655Y9986D01*
G01X57669Y9967D01*
G01X57684Y9949D01*
G01X57701Y9932D01*
G01X57719Y9917D01*
G01X57738Y9903D01*
G01X57759Y9892D01*
G01X57781Y9882D01*
G01X57803Y9875D01*
G01X57826Y9869D01*
G01X57850Y9866D01*
G01X57873Y9865D01*
G01X59474Y9865D01*
G01X59497Y9866D01*
G01X59521Y9869D01*
G01X59544Y9875D01*
G01X59566Y9882D01*
G01X59588Y9892D01*
G01X59609Y9903D01*
G01X59628Y9917D01*
G01X59646Y9932D01*
G01X59663Y9949D01*
G01X59678Y9967D01*
G01X59692Y9986D01*
G01X59703Y10007D01*
G01X59713Y10029D01*
G01X59720Y10051D01*
G01X59726Y10074D01*
G01X59729Y10098D01*
G01X59730Y10121D01*
G01X59730Y11722D01*
G01X59729Y11745D01*
G01X59726Y11769D01*
G01X59720Y11792D01*
G01X59713Y11814D01*
G01X59703Y11836D01*
G01X59692Y11857D01*
G01X59678Y11876D01*
G01X59663Y11894D01*
G01X59646Y11911D01*
G01X59628Y11926D01*
G01X59609Y11940D01*
G01X59588Y11951D01*
G01X59566Y11961D01*
G01X59544Y11968D01*
G01X59521Y11974D01*
G01X59497Y11977D01*
G01X59474Y11978D01*
G37*
G36*
G01X60750Y10458D02*
G01X60264Y10458D01*
G01X60285Y10417D01*
G01X60309Y10376D01*
G01X60334Y10337D01*
G01X60360Y10298D01*
G01X60389Y10261D01*
G01X60418Y10226D01*
G01X60450Y10191D01*
G01X60483Y10158D01*
G01X60518Y10126D01*
G01X60553Y10097D01*
G01X60590Y10068D01*
G01X60629Y10042D01*
G01X60668Y10017D01*
G01X60709Y9993D01*
G01X60750Y9972D01*
G01X60750Y10458D01*
G37*
G36*
G01X62163Y10458D02*
G01X61677Y10458D01*
G01X61677Y9972D01*
G01X61718Y9993D01*
G01X61759Y10017D01*
G01X61798Y10042D01*
G01X61837Y10068D01*
G01X61874Y10097D01*
G01X61909Y10126D01*
G01X61944Y10158D01*
G01X61977Y10191D01*
G01X62009Y10226D01*
G01X62038Y10261D01*
G01X62067Y10298D01*
G01X62093Y10337D01*
G01X62118Y10376D01*
G01X62142Y10417D01*
G01X62163Y10458D01*
G37*
G36*
G01X60750Y11385D02*
G01X60750Y11871D01*
G01X60709Y11850D01*
G01X60668Y11826D01*
G01X60629Y11801D01*
G01X60590Y11775D01*
G01X60553Y11746D01*
G01X60518Y11717D01*
G01X60483Y11685D01*
G01X60450Y11652D01*
G01X60418Y11617D01*
G01X60389Y11582D01*
G01X60360Y11545D01*
G01X60334Y11506D01*
G01X60309Y11467D01*
G01X60285Y11426D01*
G01X60264Y11385D01*
G01X60750Y11385D01*
G37*
G36*
G01X61718Y11850D02*
G01X61677Y11871D01*
G01X61677Y11385D01*
G01X62163Y11385D01*
G01X62142Y11426D01*
G01X62118Y11467D01*
G01X62093Y11506D01*
G01X62067Y11545D01*
G01X62038Y11582D01*
G01X62009Y11617D01*
G01X61977Y11652D01*
G01X61944Y11685D01*
G01X61909Y11717D01*
G01X61874Y11746D01*
G01X61837Y11775D01*
G01X61798Y11801D01*
G01X61759Y11826D01*
G01X61718Y11850D01*
G37*
G36*
G01X16681Y14522D02*
G01X16088Y14522D01*
G01X16088Y14185D01*
G01X16089Y14162D01*
G01X16092Y14138D01*
G01X16098Y14115D01*
G01X16105Y14093D01*
G01X16115Y14071D01*
G01X16126Y14050D01*
G01X16140Y14031D01*
G01X16155Y14013D01*
G01X16172Y13996D01*
G01X16190Y13981D01*
G01X16209Y13967D01*
G01X16230Y13956D01*
G01X16252Y13946D01*
G01X16274Y13939D01*
G01X16297Y13933D01*
G01X16321Y13930D01*
G01X16344Y13929D01*
G01X16681Y13929D01*
G01X16681Y14522D01*
G37*
G36*
G01X18201Y14522D02*
G01X17608Y14522D01*
G01X17608Y13929D01*
G01X17945Y13929D01*
G01X17968Y13930D01*
G01X17992Y13933D01*
G01X18015Y13939D01*
G01X18037Y13946D01*
G01X18059Y13956D01*
G01X18080Y13967D01*
G01X18099Y13981D01*
G01X18117Y13996D01*
G01X18134Y14013D01*
G01X18149Y14031D01*
G01X18163Y14050D01*
G01X18174Y14071D01*
G01X18184Y14093D01*
G01X18191Y14115D01*
G01X18197Y14138D01*
G01X18200Y14162D01*
G01X18201Y14185D01*
G01X18201Y14522D01*
G37*
G36*
G01X16681Y16042D02*
G01X16344Y16042D01*
G01X16321Y16041D01*
G01X16297Y16038D01*
G01X16274Y16032D01*
G01X16252Y16025D01*
G01X16230Y16015D01*
G01X16209Y16004D01*
G01X16190Y15990D01*
G01X16172Y15975D01*
G01X16155Y15958D01*
G01X16140Y15940D01*
G01X16126Y15921D01*
G01X16115Y15900D01*
G01X16105Y15878D01*
G01X16098Y15856D01*
G01X16092Y15833D01*
G01X16089Y15809D01*
G01X16088Y15786D01*
G01X16088Y15449D01*
G01X16681Y15449D01*
G01X16681Y16042D01*
G37*
G36*
G01X17945Y16042D02*
G01X17608Y16042D01*
G01X17608Y15449D01*
G01X18201Y15449D01*
G01X18201Y15786D01*
G01X18200Y15809D01*
G01X18197Y15833D01*
G01X18191Y15856D01*
G01X18184Y15878D01*
G01X18174Y15900D01*
G01X18163Y15921D01*
G01X18149Y15940D01*
G01X18134Y15958D01*
G01X18117Y15975D01*
G01X18099Y15990D01*
G01X18080Y16004D01*
G01X18059Y16015D01*
G01X18037Y16025D01*
G01X18015Y16032D01*
G01X17992Y16038D01*
G01X17968Y16041D01*
G01X17945Y16042D01*
G37*
G36*
G01X17192Y18581D02*
G01X17145Y18582D01*
G01X17097Y18581D01*
G01X17050Y18578D01*
G01X17003Y18572D01*
G01X16956Y18565D01*
G01X16909Y18556D01*
G01X16864Y18544D01*
G01X16818Y18530D01*
G01X16773Y18515D01*
G01X16729Y18497D01*
G01X16686Y18477D01*
G01X16644Y18456D01*
G01X16602Y18432D01*
G01X16562Y18407D01*
G01X16524Y18380D01*
G01X16486Y18352D01*
G01X16450Y18321D01*
G01X16415Y18289D01*
G01X16381Y18255D01*
G01X16349Y18220D01*
G01X16318Y18184D01*
G01X16290Y18146D01*
G01X16263Y18108D01*
G01X16238Y18068D01*
G01X16214Y18026D01*
G01X16193Y17984D01*
G01X16173Y17941D01*
G01X16155Y17897D01*
G01X16140Y17852D01*
G01X16126Y17806D01*
G01X16114Y17761D01*
G01X16105Y17714D01*
G01X16098Y17667D01*
G01X16092Y17620D01*
G01X16089Y17573D01*
G01X16088Y17526D01*
G01X16089Y17478D01*
G01X16092Y17431D01*
G01X16098Y17384D01*
G01X16105Y17337D01*
G01X16114Y17290D01*
G01X16126Y17245D01*
G01X16140Y17199D01*
G01X16155Y17154D01*
G01X16173Y17110D01*
G01X16193Y17067D01*
G01X16214Y17025D01*
G01X16238Y16983D01*
G01X16263Y16943D01*
G01X16290Y16905D01*
G01X16318Y16867D01*
G01X16349Y16831D01*
G01X16381Y16796D01*
G01X16415Y16762D01*
G01X16450Y16730D01*
G01X16486Y16699D01*
G01X16524Y16671D01*
G01X16562Y16644D01*
G01X16602Y16619D01*
G01X16644Y16595D01*
G01X16686Y16574D01*
G01X16729Y16554D01*
G01X16773Y16536D01*
G01X16818Y16521D01*
G01X16864Y16507D01*
G01X16909Y16495D01*
G01X16956Y16486D01*
G01X17003Y16479D01*
G01X17050Y16473D01*
G01X17097Y16470D01*
G01X17145Y16469D01*
G01X17192Y16470D01*
G01X17239Y16473D01*
G01X17286Y16479D01*
G01X17333Y16486D01*
G01X17380Y16495D01*
G01X17425Y16507D01*
G01X17471Y16521D01*
G01X17516Y16536D01*
G01X17560Y16554D01*
G01X17603Y16574D01*
G01X17645Y16595D01*
G01X17687Y16619D01*
G01X17727Y16644D01*
G01X17765Y16671D01*
G01X17803Y16699D01*
G01X17839Y16730D01*
G01X17874Y16762D01*
G01X17908Y16796D01*
G01X17940Y16831D01*
G01X17971Y16867D01*
G01X17999Y16905D01*
G01X18026Y16943D01*
G01X18051Y16983D01*
G01X18075Y17025D01*
G01X18096Y17067D01*
G01X18116Y17110D01*
G01X18134Y17154D01*
G01X18149Y17199D01*
G01X18163Y17245D01*
G01X18175Y17290D01*
G01X18184Y17337D01*
G01X18191Y17384D01*
G01X18197Y17431D01*
G01X18200Y17478D01*
G01X18201Y17526D01*
G01X18200Y17573D01*
G01X18197Y17620D01*
G01X18191Y17667D01*
G01X18184Y17714D01*
G01X18175Y17761D01*
G01X18163Y17806D01*
G01X18149Y17852D01*
G01X18134Y17897D01*
G01X18116Y17941D01*
G01X18096Y17984D01*
G01X18075Y18026D01*
G01X18051Y18068D01*
G01X18026Y18108D01*
G01X17999Y18146D01*
G01X17971Y18184D01*
G01X17940Y18220D01*
G01X17908Y18255D01*
G01X17874Y18289D01*
G01X17839Y18321D01*
G01X17803Y18352D01*
G01X17765Y18380D01*
G01X17727Y18407D01*
G01X17687Y18432D01*
G01X17645Y18456D01*
G01X17603Y18477D01*
G01X17560Y18497D01*
G01X17516Y18515D01*
G01X17471Y18530D01*
G01X17425Y18544D01*
G01X17380Y18556D01*
G01X17333Y18565D01*
G01X17286Y18572D01*
G01X17239Y18578D01*
G01X17192Y18581D01*
G37*
G36*
G01X53131Y32132D02*
G01X53086Y32133D01*
G01X53040Y32132D01*
G01X52994Y32129D01*
G01X52949Y32124D01*
G01X52904Y32117D01*
G01X52859Y32108D01*
G01X52815Y32096D01*
G01X52771Y32083D01*
G01X52727Y32068D01*
G01X52685Y32051D01*
G01X52644Y32032D01*
G01X52603Y32012D01*
G01X52563Y31989D01*
G01X52524Y31964D01*
G01X52487Y31938D01*
G01X52451Y31911D01*
G01X52415Y31882D01*
G01X52381Y31851D01*
G01X52349Y31819D01*
G01X52318Y31785D01*
G01X52289Y31750D01*
G01X52262Y31713D01*
G01X52236Y31676D01*
G01X52211Y31637D01*
G01X52188Y31597D01*
G01X52168Y31556D01*
G01X52149Y31515D01*
G01X52132Y31473D01*
G01X52117Y31429D01*
G01X52104Y31385D01*
G01X52092Y31341D01*
G01X52083Y31296D01*
G01X52076Y31251D01*
G01X52071Y31206D01*
G01X52068Y31160D01*
G01X52067Y31115D01*
G01X52068Y31069D01*
G01X52071Y31023D01*
G01X52076Y30978D01*
G01X52083Y30933D01*
G01X52092Y30888D01*
G01X52104Y30844D01*
G01X52117Y30800D01*
G01X52132Y30756D01*
G01X52149Y30714D01*
G01X52168Y30673D01*
G01X52188Y30632D01*
G01X52211Y30592D01*
G01X52236Y30553D01*
G01X52262Y30516D01*
G01X52289Y30480D01*
G01X52318Y30444D01*
G01X52349Y30410D01*
G01X52381Y30378D01*
G01X52415Y30347D01*
G01X52451Y30318D01*
G01X52487Y30291D01*
G01X52524Y30265D01*
G01X52563Y30240D01*
G01X52603Y30217D01*
G01X52644Y30197D01*
G01X52685Y30178D01*
G01X52727Y30161D01*
G01X52771Y30146D01*
G01X52815Y30133D01*
G01X52859Y30121D01*
G01X52904Y30112D01*
G01X52949Y30105D01*
G01X52994Y30100D01*
G01X53040Y30097D01*
G01X53086Y30096D01*
G01X53135Y30097D01*
G01X53184Y30101D01*
G01X53232Y30107D01*
G01X53281Y30115D01*
G01X53329Y30125D01*
G01X53376Y30138D01*
G01X53423Y30153D01*
G01X53439Y30158D01*
G01X53456Y30159D01*
G01X53472Y30158D01*
G01X53488Y30154D01*
G01X53503Y30148D01*
G01X53516Y30140D01*
G01X53528Y30129D01*
G01X58514Y25143D01*
G01X58525Y25131D01*
G01X58533Y25118D01*
G01X58539Y25103D01*
G01X58543Y25088D01*
G01X58544Y25071D01*
G01X58544Y17977D01*
G01X58543Y17962D01*
G01X58539Y17947D01*
G01X58534Y17933D01*
G01X58526Y17920D01*
G01X58517Y17908D01*
G01X58494Y17882D01*
G01X58472Y17854D01*
G01X58453Y17825D01*
G01X58435Y17795D01*
G01X58419Y17763D01*
G01X58405Y17731D01*
G01X58393Y17698D01*
G01X58383Y17664D01*
G01X58376Y17630D01*
G01X58371Y17596D01*
G01X58367Y17561D01*
G01X58366Y17526D01*
G01X58367Y17491D01*
G01X58370Y17458D01*
G01X58375Y17424D01*
G01X58382Y17391D01*
G01X58392Y17358D01*
G01X58403Y17326D01*
G01X58415Y17295D01*
G01X58431Y17264D01*
G01X58447Y17235D01*
G01X58466Y17206D01*
G01X58486Y17180D01*
G01X58507Y17153D01*
G01X58555Y17105D01*
G01X58582Y17084D01*
G01X58608Y17064D01*
G01X58637Y17045D01*
G01X58666Y17029D01*
G01X58697Y17013D01*
G01X58728Y17001D01*
G01X58760Y16990D01*
G01X58793Y16980D01*
G01X58826Y16973D01*
G01X58860Y16968D01*
G01X58893Y16965D01*
G01X58928Y16964D01*
G01X58962Y16965D01*
G01X58995Y16968D01*
G01X59029Y16973D01*
G01X59062Y16980D01*
G01X59095Y16990D01*
G01X59127Y17001D01*
G01X59158Y17013D01*
G01X59189Y17029D01*
G01X59218Y17045D01*
G01X59247Y17064D01*
G01X59273Y17084D01*
G01X59300Y17105D01*
G01X59348Y17153D01*
G01X59369Y17180D01*
G01X59389Y17206D01*
G01X59408Y17235D01*
G01X59424Y17264D01*
G01X59440Y17295D01*
G01X59452Y17326D01*
G01X59463Y17358D01*
G01X59473Y17391D01*
G01X59480Y17424D01*
G01X59485Y17458D01*
G01X59488Y17491D01*
G01X59489Y17526D01*
G01X59488Y17561D01*
G01X59484Y17596D01*
G01X59479Y17630D01*
G01X59472Y17664D01*
G01X59462Y17698D01*
G01X59450Y17731D01*
G01X59436Y17763D01*
G01X59420Y17795D01*
G01X59402Y17825D01*
G01X59383Y17854D01*
G01X59361Y17882D01*
G01X59338Y17908D01*
G01X59329Y17920D01*
G01X59321Y17933D01*
G01X59316Y17947D01*
G01X59312Y17962D01*
G01X59311Y17977D01*
G01X59311Y25273D01*
G01X59310Y25302D01*
G01X59306Y25332D01*
G01X59300Y25362D01*
G01X59292Y25391D01*
G01X59282Y25419D01*
G01X59269Y25447D01*
G01X59255Y25473D01*
G01X59238Y25498D01*
G01X59219Y25521D01*
G01X59199Y25544D01*
G01X54071Y30672D01*
G01X54060Y30684D01*
G01X54052Y30697D01*
G01X54046Y30712D01*
G01X54042Y30728D01*
G01X54041Y30744D01*
G01X54042Y30761D01*
G01X54047Y30777D01*
G01X54062Y30824D01*
G01X54075Y30871D01*
G01X54085Y30919D01*
G01X54093Y30968D01*
G01X54099Y31016D01*
G01X54103Y31065D01*
G01X54104Y31115D01*
G01X54103Y31160D01*
G01X54100Y31206D01*
G01X54095Y31251D01*
G01X54088Y31296D01*
G01X54079Y31341D01*
G01X54067Y31385D01*
G01X54054Y31429D01*
G01X54039Y31473D01*
G01X54022Y31515D01*
G01X54003Y31556D01*
G01X53983Y31597D01*
G01X53960Y31637D01*
G01X53935Y31676D01*
G01X53909Y31713D01*
G01X53882Y31750D01*
G01X53853Y31785D01*
G01X53822Y31819D01*
G01X53790Y31851D01*
G01X53756Y31882D01*
G01X53721Y31911D01*
G01X53684Y31938D01*
G01X53647Y31964D01*
G01X53608Y31989D01*
G01X53568Y32012D01*
G01X53527Y32032D01*
G01X53486Y32051D01*
G01X53444Y32068D01*
G01X53400Y32083D01*
G01X53356Y32096D01*
G01X53312Y32108D01*
G01X53267Y32117D01*
G01X53222Y32124D01*
G01X53177Y32129D01*
G01X53131Y32132D01*
G37*
G36*
G01X42921Y21703D02*
G01X42422Y21703D01*
G01X42369Y21702D01*
G01X42316Y21699D01*
G01X42265Y21693D01*
G01X42212Y21686D01*
G01X42161Y21676D01*
G01X42110Y21664D01*
G01X42085Y21661D01*
G01X42066Y21662D01*
G01X42049Y21667D01*
G01X42033Y21675D01*
G01X42025Y21661D01*
G01X42016Y21648D01*
G01X42004Y21637D01*
G01X41991Y21628D01*
G01X41976Y21622D01*
G01X41929Y21603D01*
G01X41883Y21582D01*
G01X41838Y21559D01*
G01X41794Y21535D01*
G01X41750Y21509D01*
G01X41708Y21481D01*
G01X41667Y21451D01*
G01X41627Y21420D01*
G01X41588Y21387D01*
G01X41551Y21353D01*
G01X41515Y21317D01*
G01X41481Y21280D01*
G01X41448Y21242D01*
G01X41417Y21201D01*
G01X41387Y21160D01*
G01X41359Y21118D01*
G01X41333Y21075D01*
G01X41309Y21031D01*
G01X41286Y20985D01*
G01X41265Y20939D01*
G01X41247Y20892D01*
G01X41230Y20844D01*
G01X41215Y20796D01*
G01X41201Y20747D01*
G01X41190Y20698D01*
G01X41181Y20648D01*
G01X41174Y20598D01*
G01X41169Y20548D01*
G01X41166Y20497D01*
G01X41165Y20447D01*
G01X41166Y20396D01*
G01X41169Y20345D01*
G01X41174Y20295D01*
G01X41181Y20245D01*
G01X41190Y20195D01*
G01X41201Y20146D01*
G01X41215Y20097D01*
G01X41230Y20049D01*
G01X41247Y20001D01*
G01X41265Y19954D01*
G01X41286Y19908D01*
G01X41309Y19863D01*
G01X41333Y19818D01*
G01X41359Y19775D01*
G01X41387Y19733D01*
G01X41417Y19692D01*
G01X41448Y19652D01*
G01X41481Y19613D01*
G01X41515Y19576D01*
G01X41551Y19540D01*
G01X41588Y19506D01*
G01X41627Y19473D01*
G01X41667Y19442D01*
G01X41708Y19412D01*
G01X41750Y19384D01*
G01X41793Y19358D01*
G01X41837Y19334D01*
G01X41883Y19311D01*
G01X41929Y19290D01*
G01X41976Y19271D01*
G01X42072Y19239D01*
G01X42121Y19226D01*
G01X42170Y19215D01*
G01X42220Y19206D01*
G01X42270Y19199D01*
G01X42320Y19194D01*
G01X42371Y19191D01*
G01X42422Y19190D01*
G01X42921Y19190D01*
G01X42972Y19191D01*
G01X43023Y19194D01*
G01X43073Y19199D01*
G01X43123Y19206D01*
G01X43173Y19215D01*
G01X43222Y19226D01*
G01X43271Y19239D01*
G01X43367Y19271D01*
G01X43414Y19290D01*
G01X43460Y19311D01*
G01X43506Y19334D01*
G01X43550Y19358D01*
G01X43593Y19384D01*
G01X43635Y19412D01*
G01X43676Y19442D01*
G01X43716Y19473D01*
G01X43755Y19506D01*
G01X43792Y19540D01*
G01X43828Y19576D01*
G01X43862Y19613D01*
G01X43895Y19652D01*
G01X43926Y19692D01*
G01X43956Y19733D01*
G01X43984Y19775D01*
G01X44010Y19818D01*
G01X44034Y19863D01*
G01X44057Y19908D01*
G01X44078Y19954D01*
G01X44096Y20001D01*
G01X44113Y20049D01*
G01X44128Y20097D01*
G01X44142Y20146D01*
G01X44153Y20195D01*
G01X44162Y20245D01*
G01X44169Y20295D01*
G01X44174Y20345D01*
G01X44177Y20396D01*
G01X44178Y20447D01*
G01X44177Y20497D01*
G01X44174Y20548D01*
G01X44169Y20598D01*
G01X44162Y20648D01*
G01X44153Y20698D01*
G01X44142Y20747D01*
G01X44128Y20796D01*
G01X44113Y20844D01*
G01X44096Y20892D01*
G01X44078Y20939D01*
G01X44057Y20985D01*
G01X44034Y21031D01*
G01X44010Y21075D01*
G01X43984Y21118D01*
G01X43956Y21160D01*
G01X43926Y21201D01*
G01X43895Y21242D01*
G01X43862Y21280D01*
G01X43828Y21317D01*
G01X43792Y21353D01*
G01X43755Y21387D01*
G01X43716Y21420D01*
G01X43676Y21451D01*
G01X43635Y21481D01*
G01X43593Y21509D01*
G01X43549Y21535D01*
G01X43505Y21559D01*
G01X43460Y21582D01*
G01X43414Y21603D01*
G01X43367Y21622D01*
G01X43352Y21628D01*
G01X43339Y21637D01*
G01X43327Y21648D01*
G01X43318Y21661D01*
G01X43310Y21675D01*
G01X43294Y21667D01*
G01X43277Y21662D01*
G01X43258Y21661D01*
G01X43233Y21664D01*
G01X43182Y21676D01*
G01X43131Y21686D01*
G01X43078Y21693D01*
G01X43027Y21699D01*
G01X42974Y21702D01*
G01X42921Y21703D01*
G37*
G36*
G01X37047Y20085D02*
G01X36429Y20085D01*
G01X36429Y19467D01*
G01X36790Y19467D01*
G01X36814Y19468D01*
G01X36838Y19472D01*
G01X36860Y19477D01*
G01X36883Y19484D01*
G01X36905Y19494D01*
G01X36926Y19506D01*
G01X36945Y19519D01*
G01X36963Y19534D01*
G01X36980Y19551D01*
G01X36995Y19569D01*
G01X37008Y19588D01*
G01X37020Y19609D01*
G01X37030Y19631D01*
G01X37037Y19654D01*
G01X37042Y19676D01*
G01X37046Y19700D01*
G01X37047Y19724D01*
G01X37047Y20085D01*
G37*
G36*
G01X35452Y20085D02*
G01X34834Y20085D01*
G01X34834Y19724D01*
G01X34835Y19700D01*
G01X34839Y19676D01*
G01X34844Y19654D01*
G01X34851Y19631D01*
G01X34861Y19609D01*
G01X34873Y19588D01*
G01X34886Y19569D01*
G01X34901Y19551D01*
G01X34918Y19534D01*
G01X34936Y19519D01*
G01X34955Y19506D01*
G01X34976Y19494D01*
G01X34998Y19484D01*
G01X35021Y19477D01*
G01X35043Y19472D01*
G01X35067Y19468D01*
G01X35091Y19467D01*
G01X35452Y19467D01*
G01X35452Y20085D01*
G37*
G36*
G01X36790Y21680D02*
G01X36429Y21680D01*
G01X36429Y21062D01*
G01X37047Y21062D01*
G01X37047Y21423D01*
G01X37046Y21447D01*
G01X37042Y21471D01*
G01X37037Y21493D01*
G01X37030Y21516D01*
G01X37020Y21538D01*
G01X37008Y21559D01*
G01X36995Y21578D01*
G01X36980Y21596D01*
G01X36963Y21613D01*
G01X36945Y21628D01*
G01X36926Y21641D01*
G01X36905Y21653D01*
G01X36883Y21663D01*
G01X36860Y21670D01*
G01X36838Y21675D01*
G01X36814Y21679D01*
G01X36790Y21680D01*
G37*
G36*
G01X35452Y21680D02*
G01X35091Y21680D01*
G01X35067Y21679D01*
G01X35043Y21675D01*
G01X35021Y21670D01*
G01X34998Y21663D01*
G01X34976Y21653D01*
G01X34955Y21641D01*
G01X34936Y21628D01*
G01X34918Y21613D01*
G01X34901Y21596D01*
G01X34886Y21578D01*
G01X34873Y21559D01*
G01X34861Y21538D01*
G01X34851Y21516D01*
G01X34844Y21493D01*
G01X34839Y21471D01*
G01X34835Y21447D01*
G01X34834Y21423D01*
G01X34834Y21062D01*
G01X35452Y21062D01*
G01X35452Y21680D01*
G37*
G36*
G01X48762Y25563D02*
G01X48716Y25564D01*
G01X48669Y25563D01*
G01X48623Y25560D01*
G01X48576Y25554D01*
G01X48531Y25547D01*
G01X48485Y25537D01*
G01X48440Y25525D01*
G01X48396Y25512D01*
G01X48352Y25496D01*
G01X48309Y25478D01*
G01X48267Y25458D01*
G01X48226Y25437D01*
G01X48186Y25413D01*
G01X48147Y25388D01*
G01X48109Y25360D01*
G01X48073Y25331D01*
G01X48038Y25301D01*
G01X48004Y25269D01*
G01X47971Y25235D01*
G01X47941Y25200D01*
G01X47912Y25164D01*
G01X47885Y25126D01*
G01X47860Y25087D01*
G01X47836Y25047D01*
G01X47814Y25006D01*
G01X47795Y24964D01*
G01X47777Y24921D01*
G01X47761Y24877D01*
G01X47747Y24833D01*
G01X47736Y24788D01*
G01X47726Y24742D01*
G01X47718Y24696D01*
G01X47713Y24650D01*
G01X47710Y24604D01*
G01X47709Y24557D01*
G01X47709Y22558D01*
G01X47710Y22512D01*
G01X47713Y22465D01*
G01X47718Y22419D01*
G01X47726Y22373D01*
G01X47736Y22328D01*
G01X47747Y22282D01*
G01X47761Y22238D01*
G01X47777Y22195D01*
G01X47795Y22151D01*
G01X47814Y22110D01*
G01X47836Y22069D01*
G01X47860Y22028D01*
G01X47885Y21989D01*
G01X47912Y21952D01*
G01X47941Y21915D01*
G01X47971Y21880D01*
G01X48004Y21847D01*
G01X48038Y21814D01*
G01X48073Y21784D01*
G01X48109Y21755D01*
G01X48147Y21728D01*
G01X48186Y21702D01*
G01X48226Y21679D01*
G01X48267Y21657D01*
G01X48309Y21637D01*
G01X48352Y21619D01*
G01X48396Y21604D01*
G01X48440Y21590D01*
G01X48485Y21578D01*
G01X48531Y21569D01*
G01X48576Y21561D01*
G01X48623Y21556D01*
G01X48669Y21552D01*
G01X48716Y21551D01*
G01X48762Y21552D01*
G01X48808Y21556D01*
G01X48854Y21561D01*
G01X48901Y21569D01*
G01X48946Y21578D01*
G01X48991Y21590D01*
G01X49035Y21604D01*
G01X49079Y21619D01*
G01X49122Y21637D01*
G01X49164Y21657D01*
G01X49205Y21679D01*
G01X49246Y21702D01*
G01X49284Y21728D01*
G01X49322Y21755D01*
G01X49358Y21784D01*
G01X49393Y21814D01*
G01X49427Y21847D01*
G01X49459Y21880D01*
G01X49490Y21915D01*
G01X49519Y21952D01*
G01X49546Y21989D01*
G01X49571Y22028D01*
G01X49595Y22069D01*
G01X49616Y22110D01*
G01X49636Y22151D01*
G01X49654Y22195D01*
G01X49670Y22238D01*
G01X49683Y22282D01*
G01X49695Y22328D01*
G01X49705Y22373D01*
G01X49712Y22419D01*
G01X49718Y22465D01*
G01X49721Y22512D01*
G01X49722Y22558D01*
G01X49722Y24557D01*
G01X49721Y24604D01*
G01X49718Y24650D01*
G01X49712Y24696D01*
G01X49705Y24742D01*
G01X49695Y24788D01*
G01X49683Y24833D01*
G01X49670Y24877D01*
G01X49654Y24921D01*
G01X49636Y24964D01*
G01X49616Y25006D01*
G01X49595Y25047D01*
G01X49571Y25087D01*
G01X49546Y25126D01*
G01X49519Y25164D01*
G01X49490Y25200D01*
G01X49459Y25235D01*
G01X49427Y25269D01*
G01X49393Y25301D01*
G01X49358Y25331D01*
G01X49322Y25360D01*
G01X49284Y25388D01*
G01X49246Y25413D01*
G01X49205Y25437D01*
G01X49164Y25458D01*
G01X49122Y25478D01*
G01X49079Y25496D01*
G01X49035Y25512D01*
G01X48991Y25525D01*
G01X48946Y25537D01*
G01X48901Y25547D01*
G01X48854Y25554D01*
G01X48808Y25560D01*
G01X48762Y25563D01*
G37*
G36*
G01X55922Y22619D02*
G01X55354Y22619D01*
G01X55354Y21652D01*
G01X55396Y21673D01*
G01X55437Y21697D01*
G01X55476Y21722D01*
G01X55515Y21749D01*
G01X55552Y21778D01*
G01X55587Y21808D01*
G01X55621Y21840D01*
G01X55654Y21874D01*
G01X55685Y21910D01*
G01X55715Y21946D01*
G01X55742Y21984D01*
G01X55768Y22023D01*
G01X55792Y22063D01*
G01X55814Y22105D01*
G01X55835Y22147D01*
G01X55853Y22191D01*
G01X55869Y22235D01*
G01X55883Y22280D01*
G01X55895Y22325D01*
G01X55904Y22371D01*
G01X55912Y22418D01*
G01X55918Y22464D01*
G01X55921Y22511D01*
G01X55922Y22558D01*
G01X55922Y22619D01*
G37*
G36*
G01X54477Y22619D02*
G01X53909Y22619D01*
G01X53909Y22558D01*
G01X53910Y22511D01*
G01X53914Y22464D01*
G01X53919Y22418D01*
G01X53926Y22371D01*
G01X53936Y22325D01*
G01X53948Y22280D01*
G01X53962Y22235D01*
G01X53996Y22147D01*
G01X54017Y22105D01*
G01X54039Y22063D01*
G01X54063Y22023D01*
G01X54089Y21984D01*
G01X54116Y21946D01*
G01X54146Y21910D01*
G01X54177Y21874D01*
G01X54210Y21840D01*
G01X54244Y21808D01*
G01X54279Y21778D01*
G01X54316Y21749D01*
G01X54355Y21722D01*
G01X54395Y21697D01*
G01X54435Y21673D01*
G01X54477Y21652D01*
G01X54477Y22619D01*
G37*
G36*
G01X4225Y24817D02*
G01X4191Y24818D01*
G01X4156Y24817D01*
G01X4123Y24814D01*
G01X4089Y24809D01*
G01X4056Y24802D01*
G01X4023Y24792D01*
G01X3991Y24781D01*
G01X3960Y24769D01*
G01X3929Y24753D01*
G01X3900Y24737D01*
G01X3871Y24718D01*
G01X3845Y24698D01*
G01X3818Y24677D01*
G01X3770Y24629D01*
G01X3749Y24602D01*
G01X3729Y24576D01*
G01X3710Y24547D01*
G01X3694Y24518D01*
G01X3678Y24487D01*
G01X3666Y24456D01*
G01X3655Y24424D01*
G01X3645Y24391D01*
G01X3638Y24358D01*
G01X3633Y24324D01*
G01X3630Y24291D01*
G01X3629Y24257D01*
G01X3630Y24222D01*
G01X3633Y24188D01*
G01X3639Y24154D01*
G01X3646Y24120D01*
G01X3656Y24087D01*
G01X3667Y24054D01*
G01X3680Y24022D01*
G01X3696Y23992D01*
G01X3713Y23962D01*
G01X3732Y23933D01*
G01X3753Y23905D01*
G01X3775Y23879D01*
G01X3799Y23855D01*
G01X3824Y23831D01*
G01X3851Y23809D01*
G01X3879Y23790D01*
G01X3908Y23771D01*
G01X3939Y23755D01*
G01X3970Y23740D01*
G01X4002Y23728D01*
G01X4035Y23717D01*
G01X4068Y23709D01*
G01X4102Y23702D01*
G01X4136Y23698D01*
G01X4171Y23696D01*
G01X4185Y23694D01*
G01X4200Y23690D01*
G01X4214Y23684D01*
G01X4227Y23676D01*
G01X4239Y23666D01*
G01X5632Y22273D01*
G01X5642Y22261D01*
G01X5650Y22248D01*
G01X5656Y22234D01*
G01X5660Y22219D01*
G01X5662Y22205D01*
G01X5664Y22170D01*
G01X5668Y22136D01*
G01X5675Y22102D01*
G01X5683Y22069D01*
G01X5694Y22036D01*
G01X5706Y22004D01*
G01X5721Y21973D01*
G01X5737Y21942D01*
G01X5756Y21913D01*
G01X5775Y21885D01*
G01X5797Y21858D01*
G01X5821Y21833D01*
G01X5845Y21809D01*
G01X5871Y21787D01*
G01X5899Y21766D01*
G01X5928Y21747D01*
G01X5958Y21730D01*
G01X5988Y21714D01*
G01X6020Y21701D01*
G01X6053Y21690D01*
G01X6086Y21680D01*
G01X6120Y21673D01*
G01X6154Y21667D01*
G01X6188Y21664D01*
G01X6223Y21663D01*
G01X6257Y21664D01*
G01X6290Y21667D01*
G01X6324Y21672D01*
G01X6357Y21679D01*
G01X6390Y21689D01*
G01X6422Y21700D01*
G01X6453Y21712D01*
G01X6484Y21728D01*
G01X6513Y21744D01*
G01X6542Y21763D01*
G01X6568Y21783D01*
G01X6595Y21804D01*
G01X6643Y21852D01*
G01X6664Y21879D01*
G01X6684Y21905D01*
G01X6703Y21934D01*
G01X6719Y21963D01*
G01X6735Y21994D01*
G01X6747Y22025D01*
G01X6758Y22057D01*
G01X6768Y22090D01*
G01X6775Y22123D01*
G01X6780Y22157D01*
G01X6783Y22190D01*
G01X6784Y22225D01*
G01X6783Y22259D01*
G01X6780Y22293D01*
G01X6774Y22327D01*
G01X6767Y22361D01*
G01X6757Y22394D01*
G01X6746Y22427D01*
G01X6733Y22459D01*
G01X6717Y22489D01*
G01X6700Y22519D01*
G01X6681Y22548D01*
G01X6660Y22576D01*
G01X6638Y22602D01*
G01X6614Y22626D01*
G01X6589Y22650D01*
G01X6562Y22672D01*
G01X6534Y22691D01*
G01X6505Y22710D01*
G01X6474Y22726D01*
G01X6443Y22741D01*
G01X6411Y22753D01*
G01X6378Y22764D01*
G01X6345Y22772D01*
G01X6311Y22779D01*
G01X6277Y22783D01*
G01X6242Y22785D01*
G01X6228Y22787D01*
G01X6213Y22791D01*
G01X6199Y22797D01*
G01X6186Y22805D01*
G01X6174Y22815D01*
G01X4781Y24208D01*
G01X4771Y24220D01*
G01X4763Y24233D01*
G01X4757Y24247D01*
G01X4753Y24262D01*
G01X4751Y24276D01*
G01X4749Y24311D01*
G01X4745Y24345D01*
G01X4738Y24379D01*
G01X4730Y24412D01*
G01X4719Y24445D01*
G01X4707Y24477D01*
G01X4692Y24508D01*
G01X4676Y24539D01*
G01X4657Y24568D01*
G01X4638Y24596D01*
G01X4616Y24623D01*
G01X4592Y24648D01*
G01X4568Y24672D01*
G01X4542Y24694D01*
G01X4514Y24715D01*
G01X4485Y24734D01*
G01X4455Y24751D01*
G01X4425Y24767D01*
G01X4393Y24780D01*
G01X4360Y24791D01*
G01X4327Y24801D01*
G01X4293Y24808D01*
G01X4259Y24814D01*
G01X4225Y24817D01*
G37*
G36*
G01X41983Y22423D02*
G01X41298Y22423D01*
G01X41323Y22377D01*
G01X41349Y22332D01*
G01X41377Y22289D01*
G01X41407Y22246D01*
G01X41438Y22205D01*
G01X41471Y22165D01*
G01X41506Y22126D01*
G01X41542Y22089D01*
G01X41580Y22053D01*
G01X41619Y22020D01*
G01X41660Y21987D01*
G01X41702Y21957D01*
G01X41745Y21928D01*
G01X41789Y21901D01*
G01X41834Y21876D01*
G01X41881Y21852D01*
G01X41928Y21831D01*
G01X41976Y21811D01*
G01X41983Y21808D01*
G01X41983Y22423D01*
G37*
G36*
G01X44045Y22423D02*
G01X43360Y22423D01*
G01X43360Y21808D01*
G01X43367Y21811D01*
G01X43415Y21831D01*
G01X43462Y21852D01*
G01X43509Y21876D01*
G01X43554Y21901D01*
G01X43598Y21928D01*
G01X43641Y21957D01*
G01X43683Y21987D01*
G01X43724Y22020D01*
G01X43763Y22053D01*
G01X43801Y22089D01*
G01X43837Y22126D01*
G01X43872Y22165D01*
G01X43905Y22205D01*
G01X43936Y22246D01*
G01X43966Y22289D01*
G01X43994Y22332D01*
G01X44020Y22377D01*
G01X44045Y22423D01*
G37*
G36*
G01X35989Y24219D02*
G01X35941Y24220D01*
G01X35892Y24219D01*
G01X35844Y24216D01*
G01X35796Y24211D01*
G01X35748Y24203D01*
G01X35701Y24194D01*
G01X35654Y24182D01*
G01X35608Y24169D01*
G01X35562Y24153D01*
G01X35517Y24136D01*
G01X35473Y24116D01*
G01X35429Y24095D01*
G01X35387Y24072D01*
G01X35346Y24047D01*
G01X35306Y24020D01*
G01X35267Y23991D01*
G01X35229Y23961D01*
G01X35193Y23929D01*
G01X35158Y23896D01*
G01X35125Y23861D01*
G01X35093Y23825D01*
G01X35063Y23787D01*
G01X35034Y23748D01*
G01X35007Y23708D01*
G01X34982Y23667D01*
G01X34959Y23625D01*
G01X34938Y23581D01*
G01X34918Y23537D01*
G01X34901Y23492D01*
G01X34885Y23446D01*
G01X34872Y23400D01*
G01X34860Y23353D01*
G01X34851Y23306D01*
G01X34843Y23258D01*
G01X34838Y23210D01*
G01X34835Y23162D01*
G01X34834Y23114D01*
G01X34835Y23065D01*
G01X34838Y23017D01*
G01X34843Y22969D01*
G01X34851Y22921D01*
G01X34860Y22874D01*
G01X34872Y22827D01*
G01X34885Y22781D01*
G01X34901Y22735D01*
G01X34918Y22690D01*
G01X34938Y22646D01*
G01X34959Y22602D01*
G01X34982Y22560D01*
G01X35007Y22519D01*
G01X35034Y22479D01*
G01X35063Y22440D01*
G01X35093Y22402D01*
G01X35125Y22366D01*
G01X35158Y22331D01*
G01X35193Y22298D01*
G01X35229Y22266D01*
G01X35267Y22236D01*
G01X35306Y22207D01*
G01X35346Y22180D01*
G01X35387Y22155D01*
G01X35429Y22132D01*
G01X35473Y22111D01*
G01X35517Y22091D01*
G01X35562Y22074D01*
G01X35608Y22058D01*
G01X35654Y22045D01*
G01X35701Y22033D01*
G01X35748Y22024D01*
G01X35796Y22016D01*
G01X35844Y22011D01*
G01X35892Y22008D01*
G01X35941Y22007D01*
G01X35989Y22008D01*
G01X36037Y22011D01*
G01X36085Y22016D01*
G01X36133Y22024D01*
G01X36180Y22033D01*
G01X36227Y22045D01*
G01X36273Y22058D01*
G01X36319Y22074D01*
G01X36364Y22091D01*
G01X36408Y22111D01*
G01X36452Y22132D01*
G01X36494Y22155D01*
G01X36535Y22180D01*
G01X36575Y22207D01*
G01X36614Y22236D01*
G01X36652Y22266D01*
G01X36688Y22298D01*
G01X36723Y22331D01*
G01X36756Y22366D01*
G01X36788Y22402D01*
G01X36818Y22440D01*
G01X36847Y22479D01*
G01X36874Y22519D01*
G01X36899Y22560D01*
G01X36922Y22602D01*
G01X36943Y22646D01*
G01X36963Y22690D01*
G01X36980Y22735D01*
G01X36996Y22781D01*
G01X37009Y22827D01*
G01X37021Y22874D01*
G01X37030Y22921D01*
G01X37038Y22969D01*
G01X37043Y23017D01*
G01X37046Y23065D01*
G01X37047Y23114D01*
G01X37046Y23162D01*
G01X37043Y23210D01*
G01X37038Y23258D01*
G01X37030Y23306D01*
G01X37021Y23353D01*
G01X37009Y23400D01*
G01X36996Y23446D01*
G01X36980Y23492D01*
G01X36963Y23537D01*
G01X36943Y23581D01*
G01X36922Y23625D01*
G01X36899Y23667D01*
G01X36874Y23708D01*
G01X36847Y23748D01*
G01X36818Y23787D01*
G01X36788Y23825D01*
G01X36756Y23861D01*
G01X36723Y23896D01*
G01X36688Y23929D01*
G01X36652Y23961D01*
G01X36614Y23991D01*
G01X36575Y24020D01*
G01X36535Y24047D01*
G01X36494Y24072D01*
G01X36452Y24095D01*
G01X36408Y24116D01*
G01X36364Y24136D01*
G01X36319Y24153D01*
G01X36273Y24169D01*
G01X36227Y24182D01*
G01X36180Y24194D01*
G01X36133Y24203D01*
G01X36085Y24211D01*
G01X36037Y24216D01*
G01X35989Y24219D01*
G37*
G36*
G01X43921Y26784D02*
G01X41422Y26784D01*
G01X41398Y26783D01*
G01X41375Y26779D01*
G01X41352Y26774D01*
G01X41329Y26767D01*
G01X41308Y26757D01*
G01X41287Y26745D01*
G01X41267Y26732D01*
G01X41249Y26717D01*
G01X41232Y26700D01*
G01X41217Y26682D01*
G01X41204Y26662D01*
G01X41192Y26642D01*
G01X41183Y26620D01*
G01X41175Y26597D01*
G01X41170Y26575D01*
G01X41166Y26551D01*
G01X41165Y26527D01*
G01X41165Y24526D01*
G01X41166Y24502D01*
G01X41170Y24478D01*
G01X41175Y24456D01*
G01X41183Y24433D01*
G01X41192Y24411D01*
G01X41204Y24391D01*
G01X41217Y24371D01*
G01X41232Y24353D01*
G01X41249Y24336D01*
G01X41267Y24321D01*
G01X41287Y24308D01*
G01X41308Y24296D01*
G01X41329Y24286D01*
G01X41352Y24279D01*
G01X41375Y24274D01*
G01X41398Y24270D01*
G01X41422Y24269D01*
G01X41751Y24269D01*
G01X41766Y24268D01*
G01X41779Y24265D01*
G01X41793Y24260D01*
G01X41806Y24253D01*
G01X41818Y24244D01*
G01X41828Y24234D01*
G01X41836Y24222D01*
G01X41843Y24210D01*
G01X41849Y24196D01*
G01X41852Y24182D01*
G01X41853Y24168D01*
G01X41852Y24152D01*
G01X41848Y24138D01*
G01X41842Y24123D01*
G01X41835Y24110D01*
G01X41825Y24098D01*
G01X41814Y24088D01*
G01X41801Y24079D01*
G01X41756Y24052D01*
G01X41711Y24023D01*
G01X41669Y23992D01*
G01X41627Y23960D01*
G01X41586Y23925D01*
G01X41548Y23890D01*
G01X41511Y23852D01*
G01X41475Y23813D01*
G01X41441Y23772D01*
G01X41409Y23730D01*
G01X41378Y23687D01*
G01X41350Y23642D01*
G01X41323Y23597D01*
G01X41298Y23550D01*
G01X41983Y23550D01*
G01X41983Y24168D01*
G01X41984Y24182D01*
G01X41987Y24196D01*
G01X41992Y24210D01*
G01X41999Y24222D01*
G01X42008Y24234D01*
G01X42018Y24244D01*
G01X42030Y24253D01*
G01X42043Y24260D01*
G01X42056Y24265D01*
G01X42070Y24268D01*
G01X42085Y24269D01*
G01X43258Y24269D01*
G01X43273Y24268D01*
G01X43287Y24265D01*
G01X43300Y24260D01*
G01X43313Y24253D01*
G01X43325Y24244D01*
G01X43335Y24234D01*
G01X43344Y24222D01*
G01X43351Y24210D01*
G01X43356Y24196D01*
G01X43359Y24182D01*
G01X43360Y24168D01*
G01X43360Y23550D01*
G01X44045Y23550D01*
G01X44020Y23597D01*
G01X43993Y23642D01*
G01X43965Y23687D01*
G01X43934Y23730D01*
G01X43902Y23772D01*
G01X43868Y23813D01*
G01X43832Y23852D01*
G01X43795Y23890D01*
G01X43757Y23925D01*
G01X43716Y23960D01*
G01X43674Y23992D01*
G01X43632Y24023D01*
G01X43587Y24052D01*
G01X43542Y24079D01*
G01X43529Y24088D01*
G01X43518Y24098D01*
G01X43508Y24110D01*
G01X43501Y24123D01*
G01X43495Y24138D01*
G01X43491Y24152D01*
G01X43490Y24168D01*
G01X43491Y24182D01*
G01X43494Y24196D01*
G01X43500Y24210D01*
G01X43507Y24222D01*
G01X43515Y24234D01*
G01X43525Y24244D01*
G01X43537Y24253D01*
G01X43550Y24260D01*
G01X43564Y24265D01*
G01X43577Y24268D01*
G01X43592Y24269D01*
G01X43921Y24269D01*
G01X43945Y24270D01*
G01X43968Y24274D01*
G01X43991Y24279D01*
G01X44014Y24286D01*
G01X44035Y24296D01*
G01X44056Y24308D01*
G01X44076Y24321D01*
G01X44094Y24336D01*
G01X44111Y24353D01*
G01X44126Y24371D01*
G01X44139Y24391D01*
G01X44151Y24411D01*
G01X44160Y24433D01*
G01X44168Y24456D01*
G01X44173Y24478D01*
G01X44177Y24502D01*
G01X44178Y24526D01*
G01X44178Y26527D01*
G01X44177Y26551D01*
G01X44173Y26575D01*
G01X44168Y26597D01*
G01X44160Y26620D01*
G01X44151Y26642D01*
G01X44139Y26662D01*
G01X44126Y26682D01*
G01X44111Y26700D01*
G01X44094Y26717D01*
G01X44076Y26732D01*
G01X44056Y26745D01*
G01X44035Y26757D01*
G01X44014Y26767D01*
G01X43991Y26774D01*
G01X43968Y26779D01*
G01X43945Y26783D01*
G01X43921Y26784D01*
G37*
G36*
G01X54477Y24496D02*
G01X54477Y25463D01*
G01X54435Y25442D01*
G01X54395Y25418D01*
G01X54355Y25393D01*
G01X54316Y25366D01*
G01X54279Y25337D01*
G01X54244Y25307D01*
G01X54210Y25275D01*
G01X54177Y25241D01*
G01X54146Y25205D01*
G01X54116Y25169D01*
G01X54089Y25131D01*
G01X54063Y25092D01*
G01X54039Y25052D01*
G01X54017Y25010D01*
G01X53996Y24968D01*
G01X53962Y24880D01*
G01X53948Y24835D01*
G01X53936Y24790D01*
G01X53926Y24744D01*
G01X53919Y24697D01*
G01X53914Y24651D01*
G01X53910Y24604D01*
G01X53909Y24557D01*
G01X53909Y24496D01*
G01X54477Y24496D01*
G37*
G36*
G01X55396Y25442D02*
G01X55354Y25463D01*
G01X55354Y24496D01*
G01X55922Y24496D01*
G01X55922Y24557D01*
G01X55921Y24604D01*
G01X55918Y24651D01*
G01X55912Y24697D01*
G01X55904Y24744D01*
G01X55895Y24790D01*
G01X55883Y24835D01*
G01X55869Y24880D01*
G01X55853Y24924D01*
G01X55835Y24968D01*
G01X55814Y25010D01*
G01X55792Y25052D01*
G01X55768Y25092D01*
G01X55742Y25131D01*
G01X55715Y25169D01*
G01X55685Y25205D01*
G01X55654Y25241D01*
G01X55621Y25275D01*
G01X55587Y25307D01*
G01X55552Y25337D01*
G01X55515Y25366D01*
G01X55476Y25393D01*
G01X55437Y25418D01*
G01X55396Y25442D01*
G37*
G36*
G01X35989Y26759D02*
G01X35941Y26760D01*
G01X35892Y26759D01*
G01X35844Y26756D01*
G01X35796Y26751D01*
G01X35748Y26743D01*
G01X35701Y26734D01*
G01X35654Y26722D01*
G01X35608Y26709D01*
G01X35562Y26693D01*
G01X35517Y26676D01*
G01X35473Y26656D01*
G01X35429Y26635D01*
G01X35387Y26612D01*
G01X35346Y26587D01*
G01X35306Y26560D01*
G01X35267Y26531D01*
G01X35229Y26501D01*
G01X35193Y26469D01*
G01X35158Y26436D01*
G01X35125Y26401D01*
G01X35093Y26365D01*
G01X35063Y26327D01*
G01X35034Y26288D01*
G01X35007Y26248D01*
G01X34982Y26207D01*
G01X34959Y26165D01*
G01X34938Y26121D01*
G01X34918Y26077D01*
G01X34901Y26032D01*
G01X34885Y25986D01*
G01X34872Y25940D01*
G01X34860Y25893D01*
G01X34851Y25846D01*
G01X34843Y25798D01*
G01X34838Y25750D01*
G01X34835Y25702D01*
G01X34834Y25654D01*
G01X34835Y25605D01*
G01X34838Y25557D01*
G01X34843Y25509D01*
G01X34851Y25461D01*
G01X34860Y25414D01*
G01X34872Y25367D01*
G01X34885Y25321D01*
G01X34901Y25275D01*
G01X34918Y25230D01*
G01X34938Y25186D01*
G01X34959Y25142D01*
G01X34982Y25100D01*
G01X35007Y25059D01*
G01X35034Y25019D01*
G01X35063Y24980D01*
G01X35093Y24942D01*
G01X35125Y24906D01*
G01X35158Y24871D01*
G01X35193Y24838D01*
G01X35229Y24806D01*
G01X35267Y24776D01*
G01X35306Y24747D01*
G01X35346Y24720D01*
G01X35387Y24695D01*
G01X35429Y24672D01*
G01X35473Y24651D01*
G01X35517Y24631D01*
G01X35562Y24614D01*
G01X35608Y24598D01*
G01X35654Y24585D01*
G01X35701Y24573D01*
G01X35748Y24564D01*
G01X35796Y24556D01*
G01X35844Y24551D01*
G01X35892Y24548D01*
G01X35941Y24547D01*
G01X35989Y24548D01*
G01X36037Y24551D01*
G01X36085Y24556D01*
G01X36133Y24564D01*
G01X36180Y24573D01*
G01X36227Y24585D01*
G01X36273Y24598D01*
G01X36319Y24614D01*
G01X36364Y24631D01*
G01X36408Y24651D01*
G01X36452Y24672D01*
G01X36494Y24695D01*
G01X36535Y24720D01*
G01X36575Y24747D01*
G01X36614Y24776D01*
G01X36652Y24806D01*
G01X36688Y24838D01*
G01X36723Y24871D01*
G01X36756Y24906D01*
G01X36788Y24942D01*
G01X36818Y24980D01*
G01X36847Y25019D01*
G01X36874Y25059D01*
G01X36899Y25100D01*
G01X36922Y25142D01*
G01X36943Y25186D01*
G01X36963Y25230D01*
G01X36980Y25275D01*
G01X36996Y25321D01*
G01X37009Y25367D01*
G01X37021Y25414D01*
G01X37030Y25461D01*
G01X37038Y25509D01*
G01X37043Y25557D01*
G01X37046Y25605D01*
G01X37047Y25654D01*
G01X37046Y25702D01*
G01X37043Y25750D01*
G01X37038Y25798D01*
G01X37030Y25846D01*
G01X37021Y25893D01*
G01X37009Y25940D01*
G01X36996Y25986D01*
G01X36980Y26032D01*
G01X36963Y26077D01*
G01X36943Y26121D01*
G01X36922Y26165D01*
G01X36899Y26207D01*
G01X36874Y26248D01*
G01X36847Y26288D01*
G01X36818Y26327D01*
G01X36788Y26365D01*
G01X36756Y26401D01*
G01X36723Y26436D01*
G01X36688Y26469D01*
G01X36652Y26501D01*
G01X36614Y26531D01*
G01X36575Y26560D01*
G01X36535Y26587D01*
G01X36494Y26612D01*
G01X36452Y26635D01*
G01X36408Y26656D01*
G01X36364Y26676D01*
G01X36319Y26693D01*
G01X36273Y26709D01*
G01X36227Y26722D01*
G01X36180Y26734D01*
G01X36133Y26743D01*
G01X36085Y26751D01*
G01X36037Y26756D01*
G01X35989Y26759D01*
G37*
G36*
G01X22606Y33530D02*
G01X14097Y33530D01*
G01X14067Y33529D01*
G01X14037Y33525D01*
G01X14007Y33519D01*
G01X13978Y33511D01*
G01X13950Y33501D01*
G01X13922Y33488D01*
G01X13896Y33474D01*
G01X13871Y33457D01*
G01X13848Y33438D01*
G01X13825Y33418D01*
G01X12569Y32161D01*
G01X12557Y32151D01*
G01X12544Y32143D01*
G01X12529Y32137D01*
G01X12513Y32133D01*
G01X12497Y32132D01*
G01X12493Y32132D01*
G01X12446Y32133D01*
G01X12400Y32132D01*
G01X12354Y32129D01*
G01X12309Y32124D01*
G01X12264Y32117D01*
G01X12219Y32108D01*
G01X12175Y32096D01*
G01X12131Y32083D01*
G01X12087Y32068D01*
G01X12045Y32051D01*
G01X12004Y32032D01*
G01X11963Y32012D01*
G01X11923Y31989D01*
G01X11884Y31964D01*
G01X11847Y31938D01*
G01X11811Y31911D01*
G01X11775Y31882D01*
G01X11741Y31851D01*
G01X11709Y31819D01*
G01X11678Y31785D01*
G01X11649Y31750D01*
G01X11622Y31713D01*
G01X11596Y31676D01*
G01X11571Y31637D01*
G01X11548Y31597D01*
G01X11528Y31556D01*
G01X11509Y31515D01*
G01X11492Y31473D01*
G01X11477Y31429D01*
G01X11464Y31385D01*
G01X11452Y31341D01*
G01X11443Y31296D01*
G01X11436Y31251D01*
G01X11431Y31206D01*
G01X11428Y31160D01*
G01X11427Y31115D01*
G01X11428Y31068D01*
G01X11431Y31023D01*
G01X11436Y30976D01*
G01X11444Y30931D01*
G01X11453Y30886D01*
G01X11465Y30841D01*
G01X11478Y30797D01*
G01X11493Y30753D01*
G01X11510Y30711D01*
G01X11530Y30669D01*
G01X11551Y30628D01*
G01X11574Y30588D01*
G01X11599Y30549D01*
G01X11625Y30511D01*
G01X11653Y30474D01*
G01X11683Y30439D01*
G01X11714Y30405D01*
G01X11747Y30373D01*
G01X11782Y30342D01*
G01X11817Y30313D01*
G01X11854Y30285D01*
G01X11866Y30275D01*
G01X11877Y30263D01*
G01X11885Y30249D01*
G01X11891Y30234D01*
G01X11895Y30219D01*
G01X11896Y30203D01*
G01X11895Y30188D01*
G01X11892Y30174D01*
G01X11887Y30160D01*
G01X11881Y30148D01*
G01X11872Y30136D01*
G01X11861Y30126D01*
G01X11850Y30117D01*
G01X11837Y30110D01*
G01X11824Y30105D01*
G01X11809Y30102D01*
G01X11795Y30101D01*
G01X11123Y30101D01*
G01X11106Y30102D01*
G01X11091Y30106D01*
G01X11076Y30112D01*
G01X11063Y30120D01*
G01X11051Y30131D01*
G01X10764Y30418D01*
G01X10753Y30430D01*
G01X10745Y30444D01*
G01X10739Y30459D01*
G01X10735Y30474D01*
G01X10734Y30490D01*
G01X10735Y30505D01*
G01X10738Y30520D01*
G01X10744Y30533D01*
G01X10751Y30547D01*
G01X10776Y30586D01*
G01X10799Y30626D01*
G01X10820Y30667D01*
G01X10840Y30709D01*
G01X10857Y30752D01*
G01X10873Y30795D01*
G01X10886Y30840D01*
G01X10898Y30885D01*
G01X10907Y30930D01*
G01X10914Y30976D01*
G01X10920Y31022D01*
G01X10923Y31068D01*
G01X10924Y31115D01*
G01X10923Y31160D01*
G01X10920Y31206D01*
G01X10915Y31251D01*
G01X10908Y31296D01*
G01X10899Y31341D01*
G01X10887Y31385D01*
G01X10874Y31429D01*
G01X10859Y31473D01*
G01X10842Y31515D01*
G01X10823Y31556D01*
G01X10803Y31597D01*
G01X10780Y31637D01*
G01X10755Y31676D01*
G01X10729Y31713D01*
G01X10702Y31750D01*
G01X10673Y31785D01*
G01X10642Y31819D01*
G01X10610Y31851D01*
G01X10576Y31882D01*
G01X10541Y31911D01*
G01X10504Y31938D01*
G01X10467Y31964D01*
G01X10428Y31989D01*
G01X10388Y32012D01*
G01X10347Y32032D01*
G01X10306Y32051D01*
G01X10264Y32068D01*
G01X10220Y32083D01*
G01X10176Y32096D01*
G01X10132Y32108D01*
G01X10087Y32117D01*
G01X10042Y32124D01*
G01X9997Y32129D01*
G01X9951Y32132D01*
G01X9906Y32133D01*
G01X9860Y32132D01*
G01X9814Y32129D01*
G01X9769Y32124D01*
G01X9724Y32117D01*
G01X9679Y32108D01*
G01X9635Y32096D01*
G01X9591Y32083D01*
G01X9547Y32068D01*
G01X9505Y32051D01*
G01X9464Y32032D01*
G01X9423Y32012D01*
G01X9383Y31989D01*
G01X9344Y31964D01*
G01X9307Y31938D01*
G01X9271Y31911D01*
G01X9235Y31882D01*
G01X9201Y31851D01*
G01X9169Y31819D01*
G01X9138Y31785D01*
G01X9109Y31750D01*
G01X9082Y31713D01*
G01X9056Y31676D01*
G01X9031Y31637D01*
G01X9008Y31597D01*
G01X8988Y31556D01*
G01X8969Y31515D01*
G01X8952Y31473D01*
G01X8937Y31429D01*
G01X8924Y31385D01*
G01X8912Y31341D01*
G01X8903Y31296D01*
G01X8896Y31251D01*
G01X8891Y31206D01*
G01X8888Y31160D01*
G01X8887Y31115D01*
G01X8888Y31069D01*
G01X8891Y31023D01*
G01X8896Y30978D01*
G01X8903Y30933D01*
G01X8912Y30888D01*
G01X8924Y30844D01*
G01X8937Y30800D01*
G01X8952Y30756D01*
G01X8969Y30714D01*
G01X8988Y30673D01*
G01X9008Y30632D01*
G01X9031Y30592D01*
G01X9056Y30553D01*
G01X9082Y30516D01*
G01X9109Y30480D01*
G01X9138Y30444D01*
G01X9169Y30410D01*
G01X9201Y30378D01*
G01X9235Y30347D01*
G01X9271Y30318D01*
G01X9307Y30291D01*
G01X9344Y30265D01*
G01X9383Y30240D01*
G01X9423Y30217D01*
G01X9464Y30197D01*
G01X9505Y30178D01*
G01X9547Y30161D01*
G01X9591Y30146D01*
G01X9635Y30133D01*
G01X9679Y30121D01*
G01X9724Y30112D01*
G01X9769Y30105D01*
G01X9814Y30100D01*
G01X9860Y30097D01*
G01X9906Y30096D01*
G01X9953Y30097D01*
G01X9957Y30097D01*
G01X9973Y30096D01*
G01X9989Y30092D01*
G01X10004Y30086D01*
G01X10017Y30078D01*
G01X10029Y30068D01*
G01X10650Y29446D01*
G01X10673Y29426D01*
G01X10696Y29407D01*
G01X10721Y29390D01*
G01X10747Y29376D01*
G01X10775Y29363D01*
G01X10803Y29353D01*
G01X10832Y29345D01*
G01X10862Y29339D01*
G01X10892Y29335D01*
G01X10922Y29334D01*
G01X14971Y29334D01*
G01X14985Y29333D01*
G01X14999Y29330D01*
G01X15013Y29325D01*
G01X15026Y29318D01*
G01X15037Y29309D01*
G01X15047Y29299D01*
G01X15056Y29287D01*
G01X15063Y29275D01*
G01X15068Y29261D01*
G01X15071Y29247D01*
G01X15072Y29232D01*
G01X15071Y29216D01*
G01X15067Y29200D01*
G01X15060Y29185D01*
G01X15051Y29170D01*
G01X15040Y29158D01*
G01X15027Y29148D01*
G01X14997Y29125D01*
G01X14968Y29100D01*
G01X12621Y26752D01*
G01X12609Y26742D01*
G01X12596Y26734D01*
G01X12582Y26728D01*
G01X12567Y26724D01*
G01X12553Y26722D01*
G01X12518Y26720D01*
G01X12484Y26716D01*
G01X12450Y26709D01*
G01X12417Y26701D01*
G01X12384Y26690D01*
G01X12352Y26678D01*
G01X12321Y26663D01*
G01X12290Y26647D01*
G01X12261Y26628D01*
G01X12233Y26609D01*
G01X12206Y26587D01*
G01X12181Y26563D01*
G01X12157Y26539D01*
G01X12135Y26513D01*
G01X12114Y26485D01*
G01X12095Y26456D01*
G01X12078Y26426D01*
G01X12062Y26396D01*
G01X12049Y26364D01*
G01X12038Y26331D01*
G01X12028Y26298D01*
G01X12021Y26264D01*
G01X12015Y26230D01*
G01X12012Y26196D01*
G01X12011Y26162D01*
G01X12012Y26127D01*
G01X12015Y26094D01*
G01X12020Y26060D01*
G01X12027Y26027D01*
G01X12037Y25994D01*
G01X12048Y25962D01*
G01X12060Y25931D01*
G01X12076Y25900D01*
G01X12092Y25871D01*
G01X12111Y25842D01*
G01X12131Y25816D01*
G01X12152Y25789D01*
G01X12200Y25741D01*
G01X12227Y25720D01*
G01X12253Y25700D01*
G01X12282Y25681D01*
G01X12311Y25665D01*
G01X12342Y25649D01*
G01X12373Y25637D01*
G01X12405Y25626D01*
G01X12438Y25616D01*
G01X12471Y25609D01*
G01X12505Y25604D01*
G01X12538Y25601D01*
G01X12573Y25600D01*
G01X12607Y25601D01*
G01X12641Y25604D01*
G01X12675Y25610D01*
G01X12709Y25617D01*
G01X12742Y25627D01*
G01X12775Y25638D01*
G01X12807Y25651D01*
G01X12837Y25667D01*
G01X12867Y25684D01*
G01X12896Y25703D01*
G01X12924Y25724D01*
G01X12950Y25746D01*
G01X12974Y25770D01*
G01X12998Y25795D01*
G01X13020Y25822D01*
G01X13039Y25850D01*
G01X13058Y25879D01*
G01X13074Y25910D01*
G01X13089Y25941D01*
G01X13101Y25973D01*
G01X13112Y26006D01*
G01X13120Y26039D01*
G01X13127Y26073D01*
G01X13131Y26107D01*
G01X13133Y26142D01*
G01X13135Y26156D01*
G01X13139Y26171D01*
G01X13145Y26185D01*
G01X13153Y26198D01*
G01X13163Y26210D01*
G01X15369Y28415D01*
G01X15381Y28426D01*
G01X15394Y28434D01*
G01X15409Y28440D01*
G01X15424Y28444D01*
G01X15441Y28445D01*
G01X19106Y28445D01*
G01X19121Y28444D01*
G01X19136Y28440D01*
G01X19150Y28435D01*
G01X19163Y28427D01*
G01X19175Y28418D01*
G01X19201Y28395D01*
G01X19229Y28373D01*
G01X19258Y28354D01*
G01X19288Y28336D01*
G01X19320Y28320D01*
G01X19352Y28306D01*
G01X19385Y28294D01*
G01X19419Y28284D01*
G01X19453Y28277D01*
G01X19487Y28272D01*
G01X19522Y28268D01*
G01X19558Y28267D01*
G01X19592Y28268D01*
G01X19625Y28271D01*
G01X19659Y28276D01*
G01X19692Y28283D01*
G01X19725Y28293D01*
G01X19757Y28304D01*
G01X19788Y28316D01*
G01X19819Y28332D01*
G01X19848Y28348D01*
G01X19877Y28367D01*
G01X19903Y28387D01*
G01X19930Y28408D01*
G01X19978Y28456D01*
G01X19999Y28483D01*
G01X20019Y28509D01*
G01X20038Y28538D01*
G01X20054Y28567D01*
G01X20070Y28598D01*
G01X20082Y28629D01*
G01X20093Y28661D01*
G01X20103Y28694D01*
G01X20110Y28727D01*
G01X20115Y28761D01*
G01X20118Y28794D01*
G01X20119Y28829D01*
G01X20118Y28865D01*
G01X20114Y28902D01*
G01X20108Y28938D01*
G01X20100Y28974D01*
G01X20089Y29009D01*
G01X20076Y29043D01*
G01X20061Y29077D01*
G01X20044Y29109D01*
G01X20024Y29140D01*
G01X20003Y29170D01*
G01X19994Y29185D01*
G01X19987Y29200D01*
G01X19983Y29216D01*
G01X19982Y29232D01*
G01X19983Y29247D01*
G01X19986Y29261D01*
G01X19991Y29275D01*
G01X19998Y29287D01*
G01X20007Y29299D01*
G01X20017Y29309D01*
G01X20028Y29318D01*
G01X20041Y29325D01*
G01X20055Y29330D01*
G01X20069Y29333D01*
G01X20083Y29334D01*
G01X22785Y29334D01*
G01X22802Y29333D01*
G01X22817Y29329D01*
G01X22832Y29323D01*
G01X22845Y29315D01*
G01X22857Y29304D01*
G01X25190Y26972D01*
G01X25200Y26960D01*
G01X25208Y26947D01*
G01X25214Y26933D01*
G01X25218Y26918D01*
G01X25220Y26904D01*
G01X25222Y26869D01*
G01X25226Y26835D01*
G01X25233Y26801D01*
G01X25241Y26768D01*
G01X25252Y26735D01*
G01X25264Y26703D01*
G01X25279Y26672D01*
G01X25295Y26641D01*
G01X25314Y26612D01*
G01X25333Y26584D01*
G01X25355Y26557D01*
G01X25379Y26532D01*
G01X25403Y26508D01*
G01X25429Y26486D01*
G01X25457Y26465D01*
G01X25486Y26446D01*
G01X25516Y26429D01*
G01X25546Y26413D01*
G01X25578Y26400D01*
G01X25611Y26389D01*
G01X25644Y26379D01*
G01X25678Y26372D01*
G01X25712Y26366D01*
G01X25746Y26363D01*
G01X25781Y26362D01*
G01X25815Y26363D01*
G01X25848Y26366D01*
G01X25882Y26371D01*
G01X25915Y26378D01*
G01X25948Y26388D01*
G01X25980Y26399D01*
G01X26011Y26411D01*
G01X26042Y26427D01*
G01X26071Y26443D01*
G01X26100Y26462D01*
G01X26126Y26482D01*
G01X26153Y26503D01*
G01X26201Y26551D01*
G01X26222Y26578D01*
G01X26242Y26604D01*
G01X26261Y26633D01*
G01X26277Y26662D01*
G01X26293Y26693D01*
G01X26305Y26724D01*
G01X26316Y26756D01*
G01X26326Y26789D01*
G01X26333Y26822D01*
G01X26338Y26856D01*
G01X26341Y26889D01*
G01X26342Y26924D01*
G01X26341Y26958D01*
G01X26338Y26991D01*
G01X26333Y27025D01*
G01X26326Y27058D01*
G01X26316Y27091D01*
G01X26305Y27123D01*
G01X26292Y27154D01*
G01X26277Y27185D01*
G01X26261Y27214D01*
G01X26242Y27243D01*
G01X26222Y27270D01*
G01X26213Y27284D01*
G01X26206Y27300D01*
G01X26202Y27316D01*
G01X26200Y27333D01*
G01X26202Y27348D01*
G01X26205Y27362D01*
G01X26210Y27376D01*
G01X26217Y27388D01*
G01X26226Y27400D01*
G01X26236Y27410D01*
G01X26248Y27419D01*
G01X26261Y27426D01*
G01X26292Y27441D01*
G01X26322Y27457D01*
G01X26350Y27476D01*
G01X26378Y27496D01*
G01X26404Y27517D01*
G01X26429Y27541D01*
G01X26453Y27565D01*
G01X26475Y27592D01*
G01X26495Y27619D01*
G01X26514Y27647D01*
G01X26531Y27677D01*
G01X26546Y27708D01*
G01X26559Y27739D01*
G01X26570Y27771D01*
G01X26579Y27804D01*
G01X26587Y27837D01*
G01X26592Y27871D01*
G01X26595Y27905D01*
G01X26596Y27940D01*
G01X26595Y27974D01*
G01X26592Y28008D01*
G01X26586Y28042D01*
G01X26579Y28076D01*
G01X26569Y28109D01*
G01X26558Y28142D01*
G01X26545Y28174D01*
G01X26529Y28204D01*
G01X26512Y28234D01*
G01X26493Y28263D01*
G01X26472Y28291D01*
G01X26450Y28317D01*
G01X26426Y28341D01*
G01X26401Y28365D01*
G01X26374Y28387D01*
G01X26346Y28406D01*
G01X26317Y28425D01*
G01X26286Y28441D01*
G01X26255Y28456D01*
G01X26223Y28468D01*
G01X26190Y28479D01*
G01X26157Y28487D01*
G01X26123Y28494D01*
G01X26089Y28498D01*
G01X26054Y28500D01*
G01X26040Y28502D01*
G01X26025Y28506D01*
G01X26011Y28512D01*
G01X25998Y28520D01*
G01X25986Y28530D01*
G01X24162Y30355D01*
G01X24151Y30367D01*
G01X24143Y30380D01*
G01X24137Y30395D01*
G01X24133Y30410D01*
G01X24132Y30427D01*
G01X24132Y30464D01*
G01X24133Y30478D01*
G01X24136Y30493D01*
G01X24141Y30506D01*
G01X24148Y30519D01*
G01X24157Y30530D01*
G01X24167Y30541D01*
G01X24179Y30550D01*
G01X24191Y30556D01*
G01X24205Y30561D01*
G01X24219Y30564D01*
G01X24234Y30565D01*
G01X24250Y30564D01*
G01X24265Y30560D01*
G01X24280Y30554D01*
G01X24294Y30546D01*
G01X24306Y30535D01*
G01X24316Y30523D01*
G01X24344Y30486D01*
G01X24373Y30450D01*
G01X24404Y30416D01*
G01X24437Y30383D01*
G01X24471Y30351D01*
G01X24506Y30322D01*
G01X24543Y30294D01*
G01X24581Y30267D01*
G01X24620Y30242D01*
G01X24660Y30219D01*
G01X24701Y30198D01*
G01X24701Y30670D01*
G01X24234Y30670D01*
G01X24219Y30671D01*
G01X24205Y30674D01*
G01X24191Y30679D01*
G01X24179Y30686D01*
G01X24167Y30695D01*
G01X24157Y30705D01*
G01X24148Y30717D01*
G01X24141Y30729D01*
G01X24136Y30743D01*
G01X24133Y30757D01*
G01X24132Y30772D01*
G01X24132Y31457D01*
G01X24133Y31472D01*
G01X24136Y31486D01*
G01X24141Y31500D01*
G01X24148Y31512D01*
G01X24157Y31524D01*
G01X24167Y31534D01*
G01X24179Y31543D01*
G01X24191Y31550D01*
G01X24205Y31555D01*
G01X24219Y31558D01*
G01X24234Y31559D01*
G01X24701Y31559D01*
G01X24701Y32031D01*
G01X24660Y32010D01*
G01X24620Y31987D01*
G01X24581Y31962D01*
G01X24543Y31935D01*
G01X24506Y31907D01*
G01X24471Y31878D01*
G01X24437Y31846D01*
G01X24404Y31813D01*
G01X24373Y31779D01*
G01X24344Y31743D01*
G01X24316Y31706D01*
G01X24306Y31694D01*
G01X24294Y31683D01*
G01X24280Y31675D01*
G01X24265Y31669D01*
G01X24250Y31665D01*
G01X24234Y31664D01*
G01X24219Y31665D01*
G01X24205Y31668D01*
G01X24191Y31673D01*
G01X24179Y31679D01*
G01X24167Y31688D01*
G01X24157Y31699D01*
G01X24148Y31710D01*
G01X24141Y31723D01*
G01X24136Y31736D01*
G01X24133Y31751D01*
G01X24132Y31765D01*
G01X24132Y32004D01*
G01X24131Y32033D01*
G01X24127Y32063D01*
G01X24121Y32093D01*
G01X24113Y32122D01*
G01X24103Y32150D01*
G01X24090Y32178D01*
G01X24076Y32204D01*
G01X24059Y32229D01*
G01X24040Y32252D01*
G01X24020Y32275D01*
G01X22877Y33418D01*
G01X22854Y33438D01*
G01X22831Y33457D01*
G01X22806Y33474D01*
G01X22780Y33488D01*
G01X22752Y33501D01*
G01X22724Y33511D01*
G01X22695Y33519D01*
G01X22665Y33525D01*
G01X22635Y33529D01*
G01X22606Y33530D01*
G37*
G36*
G01X53621Y27819D02*
G01X52654Y27819D01*
G01X52654Y27251D01*
G01X52715Y27251D01*
G01X52762Y27252D01*
G01X52809Y27255D01*
G01X52855Y27261D01*
G01X52902Y27268D01*
G01X52948Y27278D01*
G01X52993Y27290D01*
G01X53038Y27304D01*
G01X53082Y27320D01*
G01X53126Y27338D01*
G01X53168Y27358D01*
G01X53209Y27381D01*
G01X53250Y27405D01*
G01X53289Y27430D01*
G01X53327Y27458D01*
G01X53363Y27487D01*
G01X53399Y27518D01*
G01X53432Y27551D01*
G01X53464Y27585D01*
G01X53495Y27621D01*
G01X53524Y27658D01*
G01X53551Y27697D01*
G01X53576Y27736D01*
G01X53600Y27777D01*
G01X53621Y27819D01*
G37*
G36*
G01X50777Y27819D02*
G01X49810Y27819D01*
G01X49831Y27777D01*
G01X49855Y27736D01*
G01X49880Y27697D01*
G01X49907Y27658D01*
G01X49936Y27621D01*
G01X49966Y27585D01*
G01X49998Y27551D01*
G01X50032Y27518D01*
G01X50067Y27487D01*
G01X50104Y27458D01*
G01X50142Y27430D01*
G01X50181Y27405D01*
G01X50221Y27381D01*
G01X50263Y27358D01*
G01X50306Y27338D01*
G01X50349Y27320D01*
G01X50393Y27304D01*
G01X50438Y27290D01*
G01X50483Y27278D01*
G01X50529Y27268D01*
G01X50575Y27261D01*
G01X50622Y27255D01*
G01X50669Y27252D01*
G01X50716Y27251D01*
G01X50777Y27251D01*
G01X50777Y27819D01*
G37*
G36*
G01X52715Y29264D02*
G01X52654Y29264D01*
G01X52654Y28696D01*
G01X53621Y28696D01*
G01X53600Y28738D01*
G01X53576Y28778D01*
G01X53551Y28818D01*
G01X53524Y28856D01*
G01X53495Y28894D01*
G01X53464Y28929D01*
G01X53432Y28963D01*
G01X53399Y28996D01*
G01X53363Y29027D01*
G01X53327Y29057D01*
G01X53289Y29084D01*
G01X53250Y29110D01*
G01X53209Y29134D01*
G01X53168Y29156D01*
G01X53126Y29176D01*
G01X53082Y29195D01*
G01X53038Y29211D01*
G01X52993Y29225D01*
G01X52948Y29236D01*
G01X52902Y29247D01*
G01X52855Y29254D01*
G01X52809Y29259D01*
G01X52762Y29263D01*
G01X52715Y29264D01*
G37*
G36*
G01X50777Y29264D02*
G01X50716Y29264D01*
G01X50669Y29263D01*
G01X50622Y29259D01*
G01X50575Y29254D01*
G01X50529Y29247D01*
G01X50483Y29236D01*
G01X50438Y29225D01*
G01X50393Y29211D01*
G01X50349Y29195D01*
G01X50306Y29176D01*
G01X50263Y29156D01*
G01X50221Y29134D01*
G01X50181Y29110D01*
G01X50142Y29084D01*
G01X50104Y29057D01*
G01X50067Y29027D01*
G01X50032Y28996D01*
G01X49998Y28963D01*
G01X49966Y28929D01*
G01X49936Y28894D01*
G01X49907Y28856D01*
G01X49880Y28818D01*
G01X49855Y28778D01*
G01X49831Y28738D01*
G01X49810Y28696D01*
G01X50777Y28696D01*
G01X50777Y29264D01*
G37*
G36*
G01X35351Y32132D02*
G01X35306Y32133D01*
G01X35260Y32132D01*
G01X35214Y32129D01*
G01X35169Y32124D01*
G01X35124Y32117D01*
G01X35079Y32108D01*
G01X35035Y32096D01*
G01X34991Y32083D01*
G01X34947Y32068D01*
G01X34905Y32051D01*
G01X34864Y32032D01*
G01X34823Y32012D01*
G01X34783Y31989D01*
G01X34744Y31964D01*
G01X34707Y31938D01*
G01X34671Y31911D01*
G01X34635Y31882D01*
G01X34601Y31851D01*
G01X34569Y31819D01*
G01X34538Y31785D01*
G01X34509Y31750D01*
G01X34482Y31713D01*
G01X34456Y31676D01*
G01X34431Y31637D01*
G01X34408Y31597D01*
G01X34388Y31556D01*
G01X34369Y31515D01*
G01X34352Y31473D01*
G01X34337Y31429D01*
G01X34324Y31385D01*
G01X34312Y31341D01*
G01X34303Y31296D01*
G01X34296Y31251D01*
G01X34291Y31206D01*
G01X34288Y31160D01*
G01X34287Y31115D01*
G01X34288Y31069D01*
G01X34291Y31023D01*
G01X34296Y30978D01*
G01X34303Y30933D01*
G01X34312Y30888D01*
G01X34324Y30844D01*
G01X34337Y30800D01*
G01X34352Y30756D01*
G01X34369Y30714D01*
G01X34388Y30673D01*
G01X34408Y30632D01*
G01X34431Y30592D01*
G01X34456Y30553D01*
G01X34482Y30516D01*
G01X34509Y30480D01*
G01X34538Y30444D01*
G01X34569Y30410D01*
G01X34601Y30378D01*
G01X34635Y30347D01*
G01X34671Y30318D01*
G01X34707Y30291D01*
G01X34744Y30265D01*
G01X34783Y30240D01*
G01X34823Y30217D01*
G01X34864Y30197D01*
G01X34905Y30178D01*
G01X34947Y30161D01*
G01X34991Y30146D01*
G01X35035Y30133D01*
G01X35079Y30121D01*
G01X35124Y30112D01*
G01X35169Y30105D01*
G01X35214Y30100D01*
G01X35260Y30097D01*
G01X35306Y30096D01*
G01X35351Y30097D01*
G01X35397Y30100D01*
G01X35442Y30105D01*
G01X35487Y30112D01*
G01X35532Y30121D01*
G01X35576Y30133D01*
G01X35620Y30146D01*
G01X35664Y30161D01*
G01X35706Y30178D01*
G01X35747Y30197D01*
G01X35788Y30217D01*
G01X35828Y30240D01*
G01X35867Y30265D01*
G01X35904Y30291D01*
G01X35941Y30318D01*
G01X35976Y30347D01*
G01X36010Y30378D01*
G01X36042Y30410D01*
G01X36073Y30444D01*
G01X36102Y30480D01*
G01X36129Y30516D01*
G01X36155Y30553D01*
G01X36180Y30592D01*
G01X36203Y30632D01*
G01X36223Y30673D01*
G01X36242Y30714D01*
G01X36259Y30756D01*
G01X36274Y30800D01*
G01X36287Y30844D01*
G01X36299Y30888D01*
G01X36308Y30933D01*
G01X36315Y30978D01*
G01X36320Y31023D01*
G01X36323Y31069D01*
G01X36324Y31115D01*
G01X36323Y31160D01*
G01X36320Y31206D01*
G01X36315Y31251D01*
G01X36308Y31296D01*
G01X36299Y31341D01*
G01X36287Y31385D01*
G01X36274Y31429D01*
G01X36259Y31473D01*
G01X36242Y31515D01*
G01X36223Y31556D01*
G01X36203Y31597D01*
G01X36180Y31637D01*
G01X36155Y31676D01*
G01X36129Y31713D01*
G01X36102Y31750D01*
G01X36073Y31785D01*
G01X36042Y31819D01*
G01X36010Y31851D01*
G01X35976Y31882D01*
G01X35941Y31911D01*
G01X35904Y31938D01*
G01X35867Y31964D01*
G01X35828Y31989D01*
G01X35788Y32012D01*
G01X35747Y32032D01*
G01X35706Y32051D01*
G01X35664Y32068D01*
G01X35620Y32083D01*
G01X35576Y32096D01*
G01X35532Y32108D01*
G01X35487Y32117D01*
G01X35442Y32124D01*
G01X35397Y32129D01*
G01X35351Y32132D01*
G37*
G36*
G01X32811Y32132D02*
G01X32766Y32133D01*
G01X32720Y32132D01*
G01X32674Y32129D01*
G01X32629Y32124D01*
G01X32584Y32117D01*
G01X32539Y32108D01*
G01X32495Y32096D01*
G01X32451Y32083D01*
G01X32407Y32068D01*
G01X32365Y32051D01*
G01X32324Y32032D01*
G01X32283Y32012D01*
G01X32243Y31989D01*
G01X32204Y31964D01*
G01X32167Y31938D01*
G01X32131Y31911D01*
G01X32095Y31882D01*
G01X32061Y31851D01*
G01X32029Y31819D01*
G01X31998Y31785D01*
G01X31969Y31750D01*
G01X31942Y31713D01*
G01X31916Y31676D01*
G01X31891Y31637D01*
G01X31868Y31597D01*
G01X31848Y31556D01*
G01X31829Y31515D01*
G01X31812Y31473D01*
G01X31797Y31429D01*
G01X31784Y31385D01*
G01X31772Y31341D01*
G01X31763Y31296D01*
G01X31756Y31251D01*
G01X31751Y31206D01*
G01X31748Y31160D01*
G01X31747Y31115D01*
G01X31748Y31069D01*
G01X31751Y31023D01*
G01X31756Y30978D01*
G01X31763Y30933D01*
G01X31772Y30888D01*
G01X31784Y30844D01*
G01X31797Y30800D01*
G01X31812Y30756D01*
G01X31829Y30714D01*
G01X31848Y30673D01*
G01X31868Y30632D01*
G01X31891Y30592D01*
G01X31916Y30553D01*
G01X31942Y30516D01*
G01X31969Y30480D01*
G01X31998Y30444D01*
G01X32029Y30410D01*
G01X32061Y30378D01*
G01X32095Y30347D01*
G01X32131Y30318D01*
G01X32167Y30291D01*
G01X32204Y30265D01*
G01X32243Y30240D01*
G01X32283Y30217D01*
G01X32324Y30197D01*
G01X32365Y30178D01*
G01X32407Y30161D01*
G01X32451Y30146D01*
G01X32495Y30133D01*
G01X32539Y30121D01*
G01X32584Y30112D01*
G01X32629Y30105D01*
G01X32674Y30100D01*
G01X32720Y30097D01*
G01X32766Y30096D01*
G01X32811Y30097D01*
G01X32857Y30100D01*
G01X32902Y30105D01*
G01X32947Y30112D01*
G01X32992Y30121D01*
G01X33036Y30133D01*
G01X33080Y30146D01*
G01X33124Y30161D01*
G01X33166Y30178D01*
G01X33207Y30197D01*
G01X33248Y30217D01*
G01X33288Y30240D01*
G01X33327Y30265D01*
G01X33364Y30291D01*
G01X33401Y30318D01*
G01X33436Y30347D01*
G01X33470Y30378D01*
G01X33502Y30410D01*
G01X33533Y30444D01*
G01X33562Y30480D01*
G01X33589Y30516D01*
G01X33615Y30553D01*
G01X33640Y30592D01*
G01X33663Y30632D01*
G01X33683Y30673D01*
G01X33702Y30714D01*
G01X33719Y30756D01*
G01X33734Y30800D01*
G01X33747Y30844D01*
G01X33759Y30888D01*
G01X33768Y30933D01*
G01X33775Y30978D01*
G01X33780Y31023D01*
G01X33783Y31069D01*
G01X33784Y31115D01*
G01X33783Y31160D01*
G01X33780Y31206D01*
G01X33775Y31251D01*
G01X33768Y31296D01*
G01X33759Y31341D01*
G01X33747Y31385D01*
G01X33734Y31429D01*
G01X33719Y31473D01*
G01X33702Y31515D01*
G01X33683Y31556D01*
G01X33663Y31597D01*
G01X33640Y31637D01*
G01X33615Y31676D01*
G01X33589Y31713D01*
G01X33562Y31750D01*
G01X33533Y31785D01*
G01X33502Y31819D01*
G01X33470Y31851D01*
G01X33436Y31882D01*
G01X33401Y31911D01*
G01X33364Y31938D01*
G01X33327Y31964D01*
G01X33288Y31989D01*
G01X33248Y32012D01*
G01X33207Y32032D01*
G01X33166Y32051D01*
G01X33124Y32068D01*
G01X33080Y32083D01*
G01X33036Y32096D01*
G01X32992Y32108D01*
G01X32947Y32117D01*
G01X32902Y32124D01*
G01X32857Y32129D01*
G01X32811Y32132D01*
G37*
G36*
G01X37891Y32132D02*
G01X37846Y32133D01*
G01X37800Y32132D01*
G01X37754Y32129D01*
G01X37709Y32124D01*
G01X37664Y32117D01*
G01X37619Y32108D01*
G01X37575Y32096D01*
G01X37531Y32083D01*
G01X37487Y32068D01*
G01X37445Y32051D01*
G01X37404Y32032D01*
G01X37363Y32012D01*
G01X37323Y31989D01*
G01X37284Y31964D01*
G01X37247Y31938D01*
G01X37211Y31911D01*
G01X37175Y31882D01*
G01X37141Y31851D01*
G01X37109Y31819D01*
G01X37078Y31785D01*
G01X37049Y31750D01*
G01X37022Y31713D01*
G01X36996Y31676D01*
G01X36971Y31637D01*
G01X36948Y31597D01*
G01X36928Y31556D01*
G01X36909Y31515D01*
G01X36892Y31473D01*
G01X36877Y31429D01*
G01X36864Y31385D01*
G01X36852Y31341D01*
G01X36843Y31296D01*
G01X36836Y31251D01*
G01X36831Y31206D01*
G01X36828Y31160D01*
G01X36827Y31115D01*
G01X36828Y31069D01*
G01X36831Y31023D01*
G01X36836Y30978D01*
G01X36843Y30933D01*
G01X36852Y30888D01*
G01X36864Y30844D01*
G01X36877Y30800D01*
G01X36892Y30756D01*
G01X36909Y30714D01*
G01X36928Y30673D01*
G01X36948Y30632D01*
G01X36971Y30592D01*
G01X36996Y30553D01*
G01X37022Y30516D01*
G01X37049Y30480D01*
G01X37078Y30444D01*
G01X37109Y30410D01*
G01X37141Y30378D01*
G01X37175Y30347D01*
G01X37211Y30318D01*
G01X37247Y30291D01*
G01X37284Y30265D01*
G01X37323Y30240D01*
G01X37363Y30217D01*
G01X37404Y30197D01*
G01X37445Y30178D01*
G01X37487Y30161D01*
G01X37531Y30146D01*
G01X37575Y30133D01*
G01X37619Y30121D01*
G01X37664Y30112D01*
G01X37709Y30105D01*
G01X37754Y30100D01*
G01X37800Y30097D01*
G01X37846Y30096D01*
G01X37891Y30097D01*
G01X37937Y30100D01*
G01X37982Y30105D01*
G01X38027Y30112D01*
G01X38072Y30121D01*
G01X38116Y30133D01*
G01X38160Y30146D01*
G01X38204Y30161D01*
G01X38246Y30178D01*
G01X38287Y30197D01*
G01X38328Y30217D01*
G01X38368Y30240D01*
G01X38407Y30265D01*
G01X38444Y30291D01*
G01X38481Y30318D01*
G01X38516Y30347D01*
G01X38550Y30378D01*
G01X38582Y30410D01*
G01X38613Y30444D01*
G01X38642Y30480D01*
G01X38669Y30516D01*
G01X38695Y30553D01*
G01X38720Y30592D01*
G01X38743Y30632D01*
G01X38763Y30673D01*
G01X38782Y30714D01*
G01X38799Y30756D01*
G01X38814Y30800D01*
G01X38827Y30844D01*
G01X38839Y30888D01*
G01X38848Y30933D01*
G01X38855Y30978D01*
G01X38860Y31023D01*
G01X38863Y31069D01*
G01X38864Y31115D01*
G01X38863Y31160D01*
G01X38860Y31206D01*
G01X38855Y31251D01*
G01X38848Y31296D01*
G01X38839Y31341D01*
G01X38827Y31385D01*
G01X38814Y31429D01*
G01X38799Y31473D01*
G01X38782Y31515D01*
G01X38763Y31556D01*
G01X38743Y31597D01*
G01X38720Y31637D01*
G01X38695Y31676D01*
G01X38669Y31713D01*
G01X38642Y31750D01*
G01X38613Y31785D01*
G01X38582Y31819D01*
G01X38550Y31851D01*
G01X38516Y31882D01*
G01X38481Y31911D01*
G01X38444Y31938D01*
G01X38407Y31964D01*
G01X38368Y31989D01*
G01X38328Y32012D01*
G01X38287Y32032D01*
G01X38246Y32051D01*
G01X38204Y32068D01*
G01X38160Y32083D01*
G01X38116Y32096D01*
G01X38072Y32108D01*
G01X38027Y32117D01*
G01X37982Y32124D01*
G01X37937Y32129D01*
G01X37891Y32132D01*
G37*
G36*
G01X30271Y32132D02*
G01X30226Y32133D01*
G01X30180Y32132D01*
G01X30134Y32129D01*
G01X30089Y32124D01*
G01X30044Y32117D01*
G01X29999Y32108D01*
G01X29955Y32096D01*
G01X29911Y32083D01*
G01X29867Y32068D01*
G01X29825Y32051D01*
G01X29784Y32032D01*
G01X29743Y32012D01*
G01X29703Y31989D01*
G01X29664Y31964D01*
G01X29627Y31938D01*
G01X29591Y31911D01*
G01X29555Y31882D01*
G01X29521Y31851D01*
G01X29489Y31819D01*
G01X29458Y31785D01*
G01X29429Y31750D01*
G01X29402Y31713D01*
G01X29376Y31676D01*
G01X29351Y31637D01*
G01X29328Y31597D01*
G01X29308Y31556D01*
G01X29289Y31515D01*
G01X29272Y31473D01*
G01X29257Y31429D01*
G01X29244Y31385D01*
G01X29232Y31341D01*
G01X29223Y31296D01*
G01X29216Y31251D01*
G01X29211Y31206D01*
G01X29208Y31160D01*
G01X29207Y31115D01*
G01X29208Y31069D01*
G01X29211Y31023D01*
G01X29216Y30978D01*
G01X29223Y30933D01*
G01X29232Y30888D01*
G01X29244Y30844D01*
G01X29257Y30800D01*
G01X29272Y30756D01*
G01X29289Y30714D01*
G01X29308Y30673D01*
G01X29328Y30632D01*
G01X29351Y30592D01*
G01X29376Y30553D01*
G01X29402Y30516D01*
G01X29429Y30480D01*
G01X29458Y30444D01*
G01X29489Y30410D01*
G01X29521Y30378D01*
G01X29555Y30347D01*
G01X29591Y30318D01*
G01X29627Y30291D01*
G01X29664Y30265D01*
G01X29703Y30240D01*
G01X29743Y30217D01*
G01X29784Y30197D01*
G01X29825Y30178D01*
G01X29867Y30161D01*
G01X29911Y30146D01*
G01X29955Y30133D01*
G01X29999Y30121D01*
G01X30044Y30112D01*
G01X30089Y30105D01*
G01X30134Y30100D01*
G01X30180Y30097D01*
G01X30226Y30096D01*
G01X30271Y30097D01*
G01X30317Y30100D01*
G01X30362Y30105D01*
G01X30407Y30112D01*
G01X30452Y30121D01*
G01X30496Y30133D01*
G01X30540Y30146D01*
G01X30584Y30161D01*
G01X30626Y30178D01*
G01X30667Y30197D01*
G01X30708Y30217D01*
G01X30748Y30240D01*
G01X30787Y30265D01*
G01X30824Y30291D01*
G01X30861Y30318D01*
G01X30896Y30347D01*
G01X30930Y30378D01*
G01X30962Y30410D01*
G01X30993Y30444D01*
G01X31022Y30480D01*
G01X31049Y30516D01*
G01X31075Y30553D01*
G01X31100Y30592D01*
G01X31123Y30632D01*
G01X31143Y30673D01*
G01X31162Y30714D01*
G01X31179Y30756D01*
G01X31194Y30800D01*
G01X31207Y30844D01*
G01X31219Y30888D01*
G01X31228Y30933D01*
G01X31235Y30978D01*
G01X31240Y31023D01*
G01X31243Y31069D01*
G01X31244Y31115D01*
G01X31243Y31160D01*
G01X31240Y31206D01*
G01X31235Y31251D01*
G01X31228Y31296D01*
G01X31219Y31341D01*
G01X31207Y31385D01*
G01X31194Y31429D01*
G01X31179Y31473D01*
G01X31162Y31515D01*
G01X31143Y31556D01*
G01X31123Y31597D01*
G01X31100Y31637D01*
G01X31075Y31676D01*
G01X31049Y31713D01*
G01X31022Y31750D01*
G01X30993Y31785D01*
G01X30962Y31819D01*
G01X30930Y31851D01*
G01X30896Y31882D01*
G01X30861Y31911D01*
G01X30824Y31938D01*
G01X30787Y31964D01*
G01X30748Y31989D01*
G01X30708Y32012D01*
G01X30667Y32032D01*
G01X30626Y32051D01*
G01X30584Y32068D01*
G01X30540Y32083D01*
G01X30496Y32096D01*
G01X30452Y32108D01*
G01X30407Y32117D01*
G01X30362Y32124D01*
G01X30317Y32129D01*
G01X30271Y32132D01*
G37*
G36*
G01X40431Y32132D02*
G01X40386Y32133D01*
G01X40340Y32132D01*
G01X40294Y32129D01*
G01X40249Y32124D01*
G01X40204Y32117D01*
G01X40159Y32108D01*
G01X40115Y32096D01*
G01X40071Y32083D01*
G01X40027Y32068D01*
G01X39985Y32051D01*
G01X39944Y32032D01*
G01X39903Y32012D01*
G01X39863Y31989D01*
G01X39824Y31964D01*
G01X39787Y31938D01*
G01X39751Y31911D01*
G01X39715Y31882D01*
G01X39681Y31851D01*
G01X39649Y31819D01*
G01X39618Y31785D01*
G01X39589Y31750D01*
G01X39562Y31713D01*
G01X39536Y31676D01*
G01X39511Y31637D01*
G01X39488Y31597D01*
G01X39468Y31556D01*
G01X39449Y31515D01*
G01X39432Y31473D01*
G01X39417Y31429D01*
G01X39404Y31385D01*
G01X39392Y31341D01*
G01X39383Y31296D01*
G01X39376Y31251D01*
G01X39371Y31206D01*
G01X39368Y31160D01*
G01X39367Y31115D01*
G01X39368Y31069D01*
G01X39371Y31023D01*
G01X39376Y30978D01*
G01X39383Y30933D01*
G01X39392Y30888D01*
G01X39404Y30844D01*
G01X39417Y30800D01*
G01X39432Y30756D01*
G01X39449Y30714D01*
G01X39468Y30673D01*
G01X39488Y30632D01*
G01X39511Y30592D01*
G01X39536Y30553D01*
G01X39562Y30516D01*
G01X39589Y30480D01*
G01X39618Y30444D01*
G01X39649Y30410D01*
G01X39681Y30378D01*
G01X39715Y30347D01*
G01X39751Y30318D01*
G01X39787Y30291D01*
G01X39824Y30265D01*
G01X39863Y30240D01*
G01X39903Y30217D01*
G01X39944Y30197D01*
G01X39985Y30178D01*
G01X40027Y30161D01*
G01X40071Y30146D01*
G01X40115Y30133D01*
G01X40159Y30121D01*
G01X40204Y30112D01*
G01X40249Y30105D01*
G01X40294Y30100D01*
G01X40340Y30097D01*
G01X40386Y30096D01*
G01X40431Y30097D01*
G01X40477Y30100D01*
G01X40522Y30105D01*
G01X40567Y30112D01*
G01X40612Y30121D01*
G01X40656Y30133D01*
G01X40700Y30146D01*
G01X40744Y30161D01*
G01X40786Y30178D01*
G01X40827Y30197D01*
G01X40868Y30217D01*
G01X40908Y30240D01*
G01X40947Y30265D01*
G01X40984Y30291D01*
G01X41021Y30318D01*
G01X41056Y30347D01*
G01X41090Y30378D01*
G01X41122Y30410D01*
G01X41153Y30444D01*
G01X41182Y30480D01*
G01X41209Y30516D01*
G01X41235Y30553D01*
G01X41260Y30592D01*
G01X41283Y30632D01*
G01X41303Y30673D01*
G01X41322Y30714D01*
G01X41339Y30756D01*
G01X41354Y30800D01*
G01X41367Y30844D01*
G01X41379Y30888D01*
G01X41388Y30933D01*
G01X41395Y30978D01*
G01X41400Y31023D01*
G01X41403Y31069D01*
G01X41404Y31115D01*
G01X41403Y31160D01*
G01X41400Y31206D01*
G01X41395Y31251D01*
G01X41388Y31296D01*
G01X41379Y31341D01*
G01X41367Y31385D01*
G01X41354Y31429D01*
G01X41339Y31473D01*
G01X41322Y31515D01*
G01X41303Y31556D01*
G01X41283Y31597D01*
G01X41260Y31637D01*
G01X41235Y31676D01*
G01X41209Y31713D01*
G01X41182Y31750D01*
G01X41153Y31785D01*
G01X41122Y31819D01*
G01X41090Y31851D01*
G01X41056Y31882D01*
G01X41021Y31911D01*
G01X40984Y31938D01*
G01X40947Y31964D01*
G01X40908Y31989D01*
G01X40868Y32012D01*
G01X40827Y32032D01*
G01X40786Y32051D01*
G01X40744Y32068D01*
G01X40700Y32083D01*
G01X40656Y32096D01*
G01X40612Y32108D01*
G01X40567Y32117D01*
G01X40522Y32124D01*
G01X40477Y32129D01*
G01X40431Y32132D01*
G37*
G36*
G01X4871Y32132D02*
G01X4826Y32133D01*
G01X4780Y32132D01*
G01X4734Y32129D01*
G01X4689Y32124D01*
G01X4644Y32117D01*
G01X4599Y32108D01*
G01X4555Y32096D01*
G01X4511Y32083D01*
G01X4467Y32068D01*
G01X4425Y32051D01*
G01X4384Y32032D01*
G01X4343Y32012D01*
G01X4303Y31989D01*
G01X4264Y31964D01*
G01X4227Y31938D01*
G01X4191Y31911D01*
G01X4155Y31882D01*
G01X4121Y31851D01*
G01X4089Y31819D01*
G01X4058Y31785D01*
G01X4029Y31750D01*
G01X4002Y31713D01*
G01X3976Y31676D01*
G01X3951Y31637D01*
G01X3928Y31597D01*
G01X3908Y31556D01*
G01X3889Y31515D01*
G01X3872Y31473D01*
G01X3857Y31429D01*
G01X3844Y31385D01*
G01X3832Y31341D01*
G01X3823Y31296D01*
G01X3816Y31251D01*
G01X3811Y31206D01*
G01X3808Y31160D01*
G01X3807Y31115D01*
G01X3808Y31069D01*
G01X3811Y31023D01*
G01X3816Y30978D01*
G01X3823Y30933D01*
G01X3832Y30888D01*
G01X3844Y30844D01*
G01X3857Y30800D01*
G01X3872Y30756D01*
G01X3889Y30714D01*
G01X3908Y30673D01*
G01X3928Y30632D01*
G01X3951Y30592D01*
G01X3976Y30553D01*
G01X4002Y30516D01*
G01X4029Y30480D01*
G01X4058Y30444D01*
G01X4089Y30410D01*
G01X4121Y30378D01*
G01X4155Y30347D01*
G01X4191Y30318D01*
G01X4227Y30291D01*
G01X4264Y30265D01*
G01X4303Y30240D01*
G01X4343Y30217D01*
G01X4384Y30197D01*
G01X4425Y30178D01*
G01X4467Y30161D01*
G01X4511Y30146D01*
G01X4555Y30133D01*
G01X4599Y30121D01*
G01X4644Y30112D01*
G01X4689Y30105D01*
G01X4734Y30100D01*
G01X4780Y30097D01*
G01X4826Y30096D01*
G01X4871Y30097D01*
G01X4917Y30100D01*
G01X4962Y30105D01*
G01X5007Y30112D01*
G01X5052Y30121D01*
G01X5096Y30133D01*
G01X5140Y30146D01*
G01X5184Y30161D01*
G01X5226Y30178D01*
G01X5267Y30197D01*
G01X5308Y30217D01*
G01X5348Y30240D01*
G01X5387Y30265D01*
G01X5424Y30291D01*
G01X5461Y30318D01*
G01X5496Y30347D01*
G01X5530Y30378D01*
G01X5562Y30410D01*
G01X5593Y30444D01*
G01X5622Y30480D01*
G01X5649Y30516D01*
G01X5675Y30553D01*
G01X5700Y30592D01*
G01X5723Y30632D01*
G01X5743Y30673D01*
G01X5762Y30714D01*
G01X5779Y30756D01*
G01X5794Y30800D01*
G01X5807Y30844D01*
G01X5819Y30888D01*
G01X5828Y30933D01*
G01X5835Y30978D01*
G01X5840Y31023D01*
G01X5843Y31069D01*
G01X5844Y31115D01*
G01X5843Y31160D01*
G01X5840Y31206D01*
G01X5835Y31251D01*
G01X5828Y31296D01*
G01X5819Y31341D01*
G01X5807Y31385D01*
G01X5794Y31429D01*
G01X5779Y31473D01*
G01X5762Y31515D01*
G01X5743Y31556D01*
G01X5723Y31597D01*
G01X5700Y31637D01*
G01X5675Y31676D01*
G01X5649Y31713D01*
G01X5622Y31750D01*
G01X5593Y31785D01*
G01X5562Y31819D01*
G01X5530Y31851D01*
G01X5496Y31882D01*
G01X5461Y31911D01*
G01X5424Y31938D01*
G01X5387Y31964D01*
G01X5348Y31989D01*
G01X5308Y32012D01*
G01X5267Y32032D01*
G01X5226Y32051D01*
G01X5184Y32068D01*
G01X5140Y32083D01*
G01X5096Y32096D01*
G01X5052Y32108D01*
G01X5007Y32117D01*
G01X4962Y32124D01*
G01X4917Y32129D01*
G01X4871Y32132D01*
G37*
G36*
G01X58211Y32132D02*
G01X58166Y32133D01*
G01X58120Y32132D01*
G01X58074Y32129D01*
G01X58029Y32124D01*
G01X57984Y32117D01*
G01X57939Y32108D01*
G01X57895Y32096D01*
G01X57851Y32083D01*
G01X57807Y32068D01*
G01X57765Y32051D01*
G01X57724Y32032D01*
G01X57683Y32012D01*
G01X57643Y31989D01*
G01X57604Y31964D01*
G01X57567Y31938D01*
G01X57531Y31911D01*
G01X57495Y31882D01*
G01X57461Y31851D01*
G01X57429Y31819D01*
G01X57398Y31785D01*
G01X57369Y31750D01*
G01X57342Y31713D01*
G01X57316Y31676D01*
G01X57291Y31637D01*
G01X57268Y31597D01*
G01X57248Y31556D01*
G01X57229Y31515D01*
G01X57212Y31473D01*
G01X57197Y31429D01*
G01X57184Y31385D01*
G01X57172Y31341D01*
G01X57163Y31296D01*
G01X57156Y31251D01*
G01X57151Y31206D01*
G01X57148Y31160D01*
G01X57147Y31115D01*
G01X57148Y31069D01*
G01X57151Y31023D01*
G01X57156Y30978D01*
G01X57163Y30933D01*
G01X57172Y30888D01*
G01X57184Y30844D01*
G01X57197Y30800D01*
G01X57212Y30756D01*
G01X57229Y30714D01*
G01X57248Y30673D01*
G01X57268Y30632D01*
G01X57291Y30592D01*
G01X57316Y30553D01*
G01X57342Y30516D01*
G01X57369Y30480D01*
G01X57398Y30444D01*
G01X57429Y30410D01*
G01X57461Y30378D01*
G01X57495Y30347D01*
G01X57531Y30318D01*
G01X57567Y30291D01*
G01X57604Y30265D01*
G01X57643Y30240D01*
G01X57683Y30217D01*
G01X57724Y30197D01*
G01X57765Y30178D01*
G01X57807Y30161D01*
G01X57851Y30146D01*
G01X57895Y30133D01*
G01X57939Y30121D01*
G01X57984Y30112D01*
G01X58029Y30105D01*
G01X58074Y30100D01*
G01X58120Y30097D01*
G01X58166Y30096D01*
G01X58211Y30097D01*
G01X58257Y30100D01*
G01X58302Y30105D01*
G01X58347Y30112D01*
G01X58392Y30121D01*
G01X58436Y30133D01*
G01X58480Y30146D01*
G01X58524Y30161D01*
G01X58566Y30178D01*
G01X58607Y30197D01*
G01X58648Y30217D01*
G01X58688Y30240D01*
G01X58727Y30265D01*
G01X58764Y30291D01*
G01X58801Y30318D01*
G01X58836Y30347D01*
G01X58870Y30378D01*
G01X58902Y30410D01*
G01X58933Y30444D01*
G01X58962Y30480D01*
G01X58989Y30516D01*
G01X59015Y30553D01*
G01X59040Y30592D01*
G01X59063Y30632D01*
G01X59083Y30673D01*
G01X59102Y30714D01*
G01X59119Y30756D01*
G01X59134Y30800D01*
G01X59147Y30844D01*
G01X59159Y30888D01*
G01X59168Y30933D01*
G01X59175Y30978D01*
G01X59180Y31023D01*
G01X59183Y31069D01*
G01X59184Y31115D01*
G01X59183Y31160D01*
G01X59180Y31206D01*
G01X59175Y31251D01*
G01X59168Y31296D01*
G01X59159Y31341D01*
G01X59147Y31385D01*
G01X59134Y31429D01*
G01X59119Y31473D01*
G01X59102Y31515D01*
G01X59083Y31556D01*
G01X59063Y31597D01*
G01X59040Y31637D01*
G01X59015Y31676D01*
G01X58989Y31713D01*
G01X58962Y31750D01*
G01X58933Y31785D01*
G01X58902Y31819D01*
G01X58870Y31851D01*
G01X58836Y31882D01*
G01X58801Y31911D01*
G01X58764Y31938D01*
G01X58727Y31964D01*
G01X58688Y31989D01*
G01X58648Y32012D01*
G01X58607Y32032D01*
G01X58566Y32051D01*
G01X58524Y32068D01*
G01X58480Y32083D01*
G01X58436Y32096D01*
G01X58392Y32108D01*
G01X58347Y32117D01*
G01X58302Y32124D01*
G01X58257Y32129D01*
G01X58211Y32132D01*
G37*
G36*
G01X7411Y32132D02*
G01X7366Y32133D01*
G01X7320Y32132D01*
G01X7274Y32129D01*
G01X7229Y32124D01*
G01X7184Y32117D01*
G01X7139Y32108D01*
G01X7095Y32096D01*
G01X7051Y32083D01*
G01X7007Y32068D01*
G01X6965Y32051D01*
G01X6924Y32032D01*
G01X6883Y32012D01*
G01X6843Y31989D01*
G01X6804Y31964D01*
G01X6767Y31938D01*
G01X6731Y31911D01*
G01X6695Y31882D01*
G01X6661Y31851D01*
G01X6629Y31819D01*
G01X6598Y31785D01*
G01X6569Y31750D01*
G01X6542Y31713D01*
G01X6516Y31676D01*
G01X6491Y31637D01*
G01X6468Y31597D01*
G01X6448Y31556D01*
G01X6429Y31515D01*
G01X6412Y31473D01*
G01X6397Y31429D01*
G01X6384Y31385D01*
G01X6372Y31341D01*
G01X6363Y31296D01*
G01X6356Y31251D01*
G01X6351Y31206D01*
G01X6348Y31160D01*
G01X6347Y31115D01*
G01X6348Y31069D01*
G01X6351Y31023D01*
G01X6356Y30978D01*
G01X6363Y30933D01*
G01X6372Y30888D01*
G01X6384Y30844D01*
G01X6397Y30800D01*
G01X6412Y30756D01*
G01X6429Y30714D01*
G01X6448Y30673D01*
G01X6468Y30632D01*
G01X6491Y30592D01*
G01X6516Y30553D01*
G01X6542Y30516D01*
G01X6569Y30480D01*
G01X6598Y30444D01*
G01X6629Y30410D01*
G01X6661Y30378D01*
G01X6695Y30347D01*
G01X6731Y30318D01*
G01X6767Y30291D01*
G01X6804Y30265D01*
G01X6843Y30240D01*
G01X6883Y30217D01*
G01X6924Y30197D01*
G01X6965Y30178D01*
G01X7007Y30161D01*
G01X7051Y30146D01*
G01X7095Y30133D01*
G01X7139Y30121D01*
G01X7184Y30112D01*
G01X7229Y30105D01*
G01X7274Y30100D01*
G01X7320Y30097D01*
G01X7366Y30096D01*
G01X7411Y30097D01*
G01X7457Y30100D01*
G01X7502Y30105D01*
G01X7547Y30112D01*
G01X7592Y30121D01*
G01X7636Y30133D01*
G01X7680Y30146D01*
G01X7724Y30161D01*
G01X7766Y30178D01*
G01X7807Y30197D01*
G01X7848Y30217D01*
G01X7888Y30240D01*
G01X7927Y30265D01*
G01X7964Y30291D01*
G01X8001Y30318D01*
G01X8036Y30347D01*
G01X8070Y30378D01*
G01X8102Y30410D01*
G01X8133Y30444D01*
G01X8162Y30480D01*
G01X8189Y30516D01*
G01X8215Y30553D01*
G01X8240Y30592D01*
G01X8263Y30632D01*
G01X8283Y30673D01*
G01X8302Y30714D01*
G01X8319Y30756D01*
G01X8334Y30800D01*
G01X8347Y30844D01*
G01X8359Y30888D01*
G01X8368Y30933D01*
G01X8375Y30978D01*
G01X8380Y31023D01*
G01X8383Y31069D01*
G01X8384Y31115D01*
G01X8383Y31160D01*
G01X8380Y31206D01*
G01X8375Y31251D01*
G01X8368Y31296D01*
G01X8359Y31341D01*
G01X8347Y31385D01*
G01X8334Y31429D01*
G01X8319Y31473D01*
G01X8302Y31515D01*
G01X8283Y31556D01*
G01X8263Y31597D01*
G01X8240Y31637D01*
G01X8215Y31676D01*
G01X8189Y31713D01*
G01X8162Y31750D01*
G01X8133Y31785D01*
G01X8102Y31819D01*
G01X8070Y31851D01*
G01X8036Y31882D01*
G01X8001Y31911D01*
G01X7964Y31938D01*
G01X7927Y31964D01*
G01X7888Y31989D01*
G01X7848Y32012D01*
G01X7807Y32032D01*
G01X7766Y32051D01*
G01X7724Y32068D01*
G01X7680Y32083D01*
G01X7636Y32096D01*
G01X7592Y32108D01*
G01X7547Y32117D01*
G01X7502Y32124D01*
G01X7457Y32129D01*
G01X7411Y32132D01*
G37*
G36*
G01X27731Y32132D02*
G01X27686Y32133D01*
G01X27640Y32132D01*
G01X27594Y32129D01*
G01X27549Y32124D01*
G01X27504Y32117D01*
G01X27459Y32108D01*
G01X27415Y32096D01*
G01X27371Y32083D01*
G01X27327Y32068D01*
G01X27285Y32051D01*
G01X27244Y32032D01*
G01X27203Y32012D01*
G01X27163Y31989D01*
G01X27124Y31964D01*
G01X27087Y31938D01*
G01X27051Y31911D01*
G01X27015Y31882D01*
G01X26981Y31851D01*
G01X26949Y31819D01*
G01X26918Y31785D01*
G01X26889Y31750D01*
G01X26862Y31713D01*
G01X26836Y31676D01*
G01X26811Y31637D01*
G01X26788Y31597D01*
G01X26768Y31556D01*
G01X26749Y31515D01*
G01X26732Y31473D01*
G01X26717Y31429D01*
G01X26704Y31385D01*
G01X26692Y31341D01*
G01X26683Y31296D01*
G01X26676Y31251D01*
G01X26671Y31206D01*
G01X26668Y31160D01*
G01X26667Y31115D01*
G01X26668Y31069D01*
G01X26671Y31023D01*
G01X26676Y30978D01*
G01X26683Y30933D01*
G01X26692Y30888D01*
G01X26704Y30844D01*
G01X26717Y30800D01*
G01X26732Y30756D01*
G01X26749Y30714D01*
G01X26768Y30673D01*
G01X26788Y30632D01*
G01X26811Y30592D01*
G01X26836Y30553D01*
G01X26862Y30516D01*
G01X26889Y30480D01*
G01X26918Y30444D01*
G01X26949Y30410D01*
G01X26981Y30378D01*
G01X27015Y30347D01*
G01X27051Y30318D01*
G01X27087Y30291D01*
G01X27124Y30265D01*
G01X27163Y30240D01*
G01X27203Y30217D01*
G01X27244Y30197D01*
G01X27285Y30178D01*
G01X27327Y30161D01*
G01X27371Y30146D01*
G01X27415Y30133D01*
G01X27459Y30121D01*
G01X27504Y30112D01*
G01X27549Y30105D01*
G01X27594Y30100D01*
G01X27640Y30097D01*
G01X27686Y30096D01*
G01X27731Y30097D01*
G01X27777Y30100D01*
G01X27822Y30105D01*
G01X27867Y30112D01*
G01X27912Y30121D01*
G01X27956Y30133D01*
G01X28000Y30146D01*
G01X28044Y30161D01*
G01X28086Y30178D01*
G01X28127Y30197D01*
G01X28168Y30217D01*
G01X28208Y30240D01*
G01X28247Y30265D01*
G01X28284Y30291D01*
G01X28321Y30318D01*
G01X28356Y30347D01*
G01X28390Y30378D01*
G01X28422Y30410D01*
G01X28453Y30444D01*
G01X28482Y30480D01*
G01X28509Y30516D01*
G01X28535Y30553D01*
G01X28560Y30592D01*
G01X28583Y30632D01*
G01X28603Y30673D01*
G01X28622Y30714D01*
G01X28639Y30756D01*
G01X28654Y30800D01*
G01X28667Y30844D01*
G01X28679Y30888D01*
G01X28688Y30933D01*
G01X28695Y30978D01*
G01X28700Y31023D01*
G01X28703Y31069D01*
G01X28704Y31115D01*
G01X28703Y31160D01*
G01X28700Y31206D01*
G01X28695Y31251D01*
G01X28688Y31296D01*
G01X28679Y31341D01*
G01X28667Y31385D01*
G01X28654Y31429D01*
G01X28639Y31473D01*
G01X28622Y31515D01*
G01X28603Y31556D01*
G01X28583Y31597D01*
G01X28560Y31637D01*
G01X28535Y31676D01*
G01X28509Y31713D01*
G01X28482Y31750D01*
G01X28453Y31785D01*
G01X28422Y31819D01*
G01X28390Y31851D01*
G01X28356Y31882D01*
G01X28321Y31911D01*
G01X28284Y31938D01*
G01X28247Y31964D01*
G01X28208Y31989D01*
G01X28168Y32012D01*
G01X28127Y32032D01*
G01X28086Y32051D01*
G01X28044Y32068D01*
G01X28000Y32083D01*
G01X27956Y32096D01*
G01X27912Y32108D01*
G01X27867Y32117D01*
G01X27822Y32124D01*
G01X27777Y32129D01*
G01X27731Y32132D01*
G37*
G36*
G01X60751Y32132D02*
G01X60706Y32133D01*
G01X60660Y32132D01*
G01X60614Y32129D01*
G01X60569Y32124D01*
G01X60524Y32117D01*
G01X60479Y32108D01*
G01X60435Y32096D01*
G01X60391Y32083D01*
G01X60347Y32068D01*
G01X60305Y32051D01*
G01X60264Y32032D01*
G01X60223Y32012D01*
G01X60183Y31989D01*
G01X60144Y31964D01*
G01X60107Y31938D01*
G01X60071Y31911D01*
G01X60035Y31882D01*
G01X60001Y31851D01*
G01X59969Y31819D01*
G01X59938Y31785D01*
G01X59909Y31750D01*
G01X59882Y31713D01*
G01X59856Y31676D01*
G01X59831Y31637D01*
G01X59808Y31597D01*
G01X59788Y31556D01*
G01X59769Y31515D01*
G01X59752Y31473D01*
G01X59737Y31429D01*
G01X59724Y31385D01*
G01X59712Y31341D01*
G01X59703Y31296D01*
G01X59696Y31251D01*
G01X59691Y31206D01*
G01X59688Y31160D01*
G01X59687Y31115D01*
G01X59688Y31069D01*
G01X59691Y31023D01*
G01X59696Y30978D01*
G01X59703Y30933D01*
G01X59712Y30888D01*
G01X59724Y30844D01*
G01X59737Y30800D01*
G01X59752Y30756D01*
G01X59769Y30714D01*
G01X59788Y30673D01*
G01X59808Y30632D01*
G01X59831Y30592D01*
G01X59856Y30553D01*
G01X59882Y30516D01*
G01X59909Y30480D01*
G01X59938Y30444D01*
G01X59969Y30410D01*
G01X60001Y30378D01*
G01X60035Y30347D01*
G01X60071Y30318D01*
G01X60107Y30291D01*
G01X60144Y30265D01*
G01X60183Y30240D01*
G01X60223Y30217D01*
G01X60264Y30197D01*
G01X60305Y30178D01*
G01X60347Y30161D01*
G01X60391Y30146D01*
G01X60435Y30133D01*
G01X60479Y30121D01*
G01X60524Y30112D01*
G01X60569Y30105D01*
G01X60614Y30100D01*
G01X60660Y30097D01*
G01X60706Y30096D01*
G01X60751Y30097D01*
G01X60797Y30100D01*
G01X60842Y30105D01*
G01X60887Y30112D01*
G01X60932Y30121D01*
G01X60976Y30133D01*
G01X61020Y30146D01*
G01X61064Y30161D01*
G01X61106Y30178D01*
G01X61147Y30197D01*
G01X61188Y30217D01*
G01X61228Y30240D01*
G01X61267Y30265D01*
G01X61304Y30291D01*
G01X61341Y30318D01*
G01X61376Y30347D01*
G01X61410Y30378D01*
G01X61442Y30410D01*
G01X61473Y30444D01*
G01X61502Y30480D01*
G01X61529Y30516D01*
G01X61555Y30553D01*
G01X61580Y30592D01*
G01X61603Y30632D01*
G01X61623Y30673D01*
G01X61642Y30714D01*
G01X61659Y30756D01*
G01X61674Y30800D01*
G01X61687Y30844D01*
G01X61699Y30888D01*
G01X61708Y30933D01*
G01X61715Y30978D01*
G01X61720Y31023D01*
G01X61723Y31069D01*
G01X61724Y31115D01*
G01X61723Y31160D01*
G01X61720Y31206D01*
G01X61715Y31251D01*
G01X61708Y31296D01*
G01X61699Y31341D01*
G01X61687Y31385D01*
G01X61674Y31429D01*
G01X61659Y31473D01*
G01X61642Y31515D01*
G01X61623Y31556D01*
G01X61603Y31597D01*
G01X61580Y31637D01*
G01X61555Y31676D01*
G01X61529Y31713D01*
G01X61502Y31750D01*
G01X61473Y31785D01*
G01X61442Y31819D01*
G01X61410Y31851D01*
G01X61376Y31882D01*
G01X61341Y31911D01*
G01X61304Y31938D01*
G01X61267Y31964D01*
G01X61228Y31989D01*
G01X61188Y32012D01*
G01X61147Y32032D01*
G01X61106Y32051D01*
G01X61064Y32068D01*
G01X61020Y32083D01*
G01X60976Y32096D01*
G01X60932Y32108D01*
G01X60887Y32117D01*
G01X60842Y32124D01*
G01X60797Y32129D01*
G01X60751Y32132D01*
G37*
G36*
G01X50591Y32132D02*
G01X50546Y32133D01*
G01X50500Y32132D01*
G01X50454Y32129D01*
G01X50409Y32124D01*
G01X50364Y32117D01*
G01X50319Y32108D01*
G01X50275Y32096D01*
G01X50231Y32083D01*
G01X50187Y32068D01*
G01X50145Y32051D01*
G01X50104Y32032D01*
G01X50063Y32012D01*
G01X50023Y31989D01*
G01X49984Y31964D01*
G01X49947Y31938D01*
G01X49911Y31911D01*
G01X49875Y31882D01*
G01X49841Y31851D01*
G01X49809Y31819D01*
G01X49778Y31785D01*
G01X49749Y31750D01*
G01X49722Y31713D01*
G01X49696Y31676D01*
G01X49671Y31637D01*
G01X49648Y31597D01*
G01X49628Y31556D01*
G01X49609Y31515D01*
G01X49592Y31473D01*
G01X49577Y31429D01*
G01X49564Y31385D01*
G01X49552Y31341D01*
G01X49543Y31296D01*
G01X49536Y31251D01*
G01X49531Y31206D01*
G01X49528Y31160D01*
G01X49527Y31115D01*
G01X49528Y31069D01*
G01X49531Y31023D01*
G01X49536Y30978D01*
G01X49543Y30933D01*
G01X49552Y30888D01*
G01X49564Y30844D01*
G01X49577Y30800D01*
G01X49592Y30756D01*
G01X49609Y30714D01*
G01X49628Y30673D01*
G01X49648Y30632D01*
G01X49671Y30592D01*
G01X49696Y30553D01*
G01X49722Y30516D01*
G01X49749Y30480D01*
G01X49778Y30444D01*
G01X49809Y30410D01*
G01X49841Y30378D01*
G01X49875Y30347D01*
G01X49911Y30318D01*
G01X49947Y30291D01*
G01X49984Y30265D01*
G01X50023Y30240D01*
G01X50063Y30217D01*
G01X50104Y30197D01*
G01X50145Y30178D01*
G01X50187Y30161D01*
G01X50231Y30146D01*
G01X50275Y30133D01*
G01X50319Y30121D01*
G01X50364Y30112D01*
G01X50409Y30105D01*
G01X50454Y30100D01*
G01X50500Y30097D01*
G01X50546Y30096D01*
G01X50591Y30097D01*
G01X50637Y30100D01*
G01X50682Y30105D01*
G01X50727Y30112D01*
G01X50772Y30121D01*
G01X50816Y30133D01*
G01X50860Y30146D01*
G01X50904Y30161D01*
G01X50946Y30178D01*
G01X50987Y30197D01*
G01X51028Y30217D01*
G01X51068Y30240D01*
G01X51107Y30265D01*
G01X51144Y30291D01*
G01X51181Y30318D01*
G01X51216Y30347D01*
G01X51250Y30378D01*
G01X51282Y30410D01*
G01X51313Y30444D01*
G01X51342Y30480D01*
G01X51369Y30516D01*
G01X51395Y30553D01*
G01X51420Y30592D01*
G01X51443Y30632D01*
G01X51463Y30673D01*
G01X51482Y30714D01*
G01X51499Y30756D01*
G01X51514Y30800D01*
G01X51527Y30844D01*
G01X51539Y30888D01*
G01X51548Y30933D01*
G01X51555Y30978D01*
G01X51560Y31023D01*
G01X51563Y31069D01*
G01X51564Y31115D01*
G01X51563Y31160D01*
G01X51560Y31206D01*
G01X51555Y31251D01*
G01X51548Y31296D01*
G01X51539Y31341D01*
G01X51527Y31385D01*
G01X51514Y31429D01*
G01X51499Y31473D01*
G01X51482Y31515D01*
G01X51463Y31556D01*
G01X51443Y31597D01*
G01X51420Y31637D01*
G01X51395Y31676D01*
G01X51369Y31713D01*
G01X51342Y31750D01*
G01X51313Y31785D01*
G01X51282Y31819D01*
G01X51250Y31851D01*
G01X51216Y31882D01*
G01X51181Y31911D01*
G01X51144Y31938D01*
G01X51107Y31964D01*
G01X51068Y31989D01*
G01X51028Y32012D01*
G01X50987Y32032D01*
G01X50946Y32051D01*
G01X50904Y32068D01*
G01X50860Y32083D01*
G01X50816Y32096D01*
G01X50772Y32108D01*
G01X50727Y32117D01*
G01X50682Y32124D01*
G01X50637Y32129D01*
G01X50591Y32132D01*
G37*
G36*
G01X2331Y32132D02*
G01X2286Y32133D01*
G01X2240Y32132D01*
G01X2194Y32129D01*
G01X2149Y32124D01*
G01X2104Y32117D01*
G01X2059Y32108D01*
G01X2015Y32096D01*
G01X1971Y32083D01*
G01X1927Y32068D01*
G01X1885Y32051D01*
G01X1844Y32032D01*
G01X1803Y32012D01*
G01X1763Y31989D01*
G01X1724Y31964D01*
G01X1687Y31938D01*
G01X1651Y31911D01*
G01X1615Y31882D01*
G01X1581Y31851D01*
G01X1549Y31819D01*
G01X1518Y31785D01*
G01X1489Y31750D01*
G01X1462Y31713D01*
G01X1436Y31676D01*
G01X1411Y31637D01*
G01X1388Y31597D01*
G01X1368Y31556D01*
G01X1349Y31515D01*
G01X1332Y31473D01*
G01X1317Y31429D01*
G01X1304Y31385D01*
G01X1292Y31341D01*
G01X1283Y31296D01*
G01X1276Y31251D01*
G01X1271Y31206D01*
G01X1268Y31160D01*
G01X1267Y31115D01*
G01X1268Y31069D01*
G01X1271Y31023D01*
G01X1276Y30978D01*
G01X1283Y30933D01*
G01X1292Y30888D01*
G01X1304Y30844D01*
G01X1317Y30800D01*
G01X1332Y30756D01*
G01X1349Y30714D01*
G01X1368Y30673D01*
G01X1388Y30632D01*
G01X1411Y30592D01*
G01X1436Y30553D01*
G01X1462Y30516D01*
G01X1489Y30480D01*
G01X1518Y30444D01*
G01X1549Y30410D01*
G01X1581Y30378D01*
G01X1615Y30347D01*
G01X1651Y30318D01*
G01X1687Y30291D01*
G01X1724Y30265D01*
G01X1763Y30240D01*
G01X1803Y30217D01*
G01X1844Y30197D01*
G01X1885Y30178D01*
G01X1927Y30161D01*
G01X1971Y30146D01*
G01X2015Y30133D01*
G01X2059Y30121D01*
G01X2104Y30112D01*
G01X2149Y30105D01*
G01X2194Y30100D01*
G01X2240Y30097D01*
G01X2286Y30096D01*
G01X2331Y30097D01*
G01X2377Y30100D01*
G01X2422Y30105D01*
G01X2467Y30112D01*
G01X2512Y30121D01*
G01X2556Y30133D01*
G01X2600Y30146D01*
G01X2644Y30161D01*
G01X2686Y30178D01*
G01X2727Y30197D01*
G01X2768Y30217D01*
G01X2808Y30240D01*
G01X2847Y30265D01*
G01X2884Y30291D01*
G01X2921Y30318D01*
G01X2956Y30347D01*
G01X2990Y30378D01*
G01X3022Y30410D01*
G01X3053Y30444D01*
G01X3082Y30480D01*
G01X3109Y30516D01*
G01X3135Y30553D01*
G01X3160Y30592D01*
G01X3183Y30632D01*
G01X3203Y30673D01*
G01X3222Y30714D01*
G01X3239Y30756D01*
G01X3254Y30800D01*
G01X3267Y30844D01*
G01X3279Y30888D01*
G01X3288Y30933D01*
G01X3295Y30978D01*
G01X3300Y31023D01*
G01X3303Y31069D01*
G01X3304Y31115D01*
G01X3303Y31160D01*
G01X3300Y31206D01*
G01X3295Y31251D01*
G01X3288Y31296D01*
G01X3279Y31341D01*
G01X3267Y31385D01*
G01X3254Y31429D01*
G01X3239Y31473D01*
G01X3222Y31515D01*
G01X3203Y31556D01*
G01X3183Y31597D01*
G01X3160Y31637D01*
G01X3135Y31676D01*
G01X3109Y31713D01*
G01X3082Y31750D01*
G01X3053Y31785D01*
G01X3022Y31819D01*
G01X2990Y31851D01*
G01X2956Y31882D01*
G01X2921Y31911D01*
G01X2884Y31938D01*
G01X2847Y31964D01*
G01X2808Y31989D01*
G01X2768Y32012D01*
G01X2727Y32032D01*
G01X2686Y32051D01*
G01X2644Y32068D01*
G01X2600Y32083D01*
G01X2556Y32096D01*
G01X2512Y32108D01*
G01X2467Y32117D01*
G01X2422Y32124D01*
G01X2377Y32129D01*
G01X2331Y32132D01*
G37*
G36*
G01X55671Y32132D02*
G01X55626Y32133D01*
G01X55580Y32132D01*
G01X55534Y32129D01*
G01X55489Y32124D01*
G01X55444Y32117D01*
G01X55399Y32108D01*
G01X55355Y32096D01*
G01X55311Y32083D01*
G01X55267Y32068D01*
G01X55225Y32051D01*
G01X55184Y32032D01*
G01X55143Y32012D01*
G01X55103Y31989D01*
G01X55064Y31964D01*
G01X55027Y31938D01*
G01X54991Y31911D01*
G01X54955Y31882D01*
G01X54921Y31851D01*
G01X54889Y31819D01*
G01X54858Y31785D01*
G01X54829Y31750D01*
G01X54802Y31713D01*
G01X54776Y31676D01*
G01X54751Y31637D01*
G01X54728Y31597D01*
G01X54708Y31556D01*
G01X54689Y31515D01*
G01X54672Y31473D01*
G01X54657Y31429D01*
G01X54644Y31385D01*
G01X54632Y31341D01*
G01X54623Y31296D01*
G01X54616Y31251D01*
G01X54611Y31206D01*
G01X54608Y31160D01*
G01X54607Y31115D01*
G01X54608Y31069D01*
G01X54611Y31023D01*
G01X54616Y30978D01*
G01X54623Y30933D01*
G01X54632Y30888D01*
G01X54644Y30844D01*
G01X54657Y30800D01*
G01X54672Y30756D01*
G01X54689Y30714D01*
G01X54708Y30673D01*
G01X54728Y30632D01*
G01X54751Y30592D01*
G01X54776Y30553D01*
G01X54802Y30516D01*
G01X54829Y30480D01*
G01X54858Y30444D01*
G01X54889Y30410D01*
G01X54921Y30378D01*
G01X54955Y30347D01*
G01X54991Y30318D01*
G01X55027Y30291D01*
G01X55064Y30265D01*
G01X55103Y30240D01*
G01X55143Y30217D01*
G01X55184Y30197D01*
G01X55225Y30178D01*
G01X55267Y30161D01*
G01X55311Y30146D01*
G01X55355Y30133D01*
G01X55399Y30121D01*
G01X55444Y30112D01*
G01X55489Y30105D01*
G01X55534Y30100D01*
G01X55580Y30097D01*
G01X55626Y30096D01*
G01X55671Y30097D01*
G01X55717Y30100D01*
G01X55762Y30105D01*
G01X55807Y30112D01*
G01X55852Y30121D01*
G01X55896Y30133D01*
G01X55940Y30146D01*
G01X55984Y30161D01*
G01X56026Y30178D01*
G01X56067Y30197D01*
G01X56108Y30217D01*
G01X56148Y30240D01*
G01X56187Y30265D01*
G01X56224Y30291D01*
G01X56261Y30318D01*
G01X56296Y30347D01*
G01X56330Y30378D01*
G01X56362Y30410D01*
G01X56393Y30444D01*
G01X56422Y30480D01*
G01X56449Y30516D01*
G01X56475Y30553D01*
G01X56500Y30592D01*
G01X56523Y30632D01*
G01X56543Y30673D01*
G01X56562Y30714D01*
G01X56579Y30756D01*
G01X56594Y30800D01*
G01X56607Y30844D01*
G01X56619Y30888D01*
G01X56628Y30933D01*
G01X56635Y30978D01*
G01X56640Y31023D01*
G01X56643Y31069D01*
G01X56644Y31115D01*
G01X56643Y31160D01*
G01X56640Y31206D01*
G01X56635Y31251D01*
G01X56628Y31296D01*
G01X56619Y31341D01*
G01X56607Y31385D01*
G01X56594Y31429D01*
G01X56579Y31473D01*
G01X56562Y31515D01*
G01X56543Y31556D01*
G01X56523Y31597D01*
G01X56500Y31637D01*
G01X56475Y31676D01*
G01X56449Y31713D01*
G01X56422Y31750D01*
G01X56393Y31785D01*
G01X56362Y31819D01*
G01X56330Y31851D01*
G01X56296Y31882D01*
G01X56261Y31911D01*
G01X56224Y31938D01*
G01X56187Y31964D01*
G01X56148Y31989D01*
G01X56108Y32012D01*
G01X56067Y32032D01*
G01X56026Y32051D01*
G01X55984Y32068D01*
G01X55940Y32083D01*
G01X55896Y32096D01*
G01X55852Y32108D01*
G01X55807Y32117D01*
G01X55762Y32124D01*
G01X55717Y32129D01*
G01X55671Y32132D01*
G37*
G36*
G01X48051Y32132D02*
G01X48006Y32133D01*
G01X47960Y32132D01*
G01X47914Y32129D01*
G01X47869Y32124D01*
G01X47824Y32117D01*
G01X47779Y32108D01*
G01X47735Y32096D01*
G01X47691Y32083D01*
G01X47647Y32068D01*
G01X47605Y32051D01*
G01X47564Y32032D01*
G01X47523Y32012D01*
G01X47483Y31989D01*
G01X47444Y31964D01*
G01X47407Y31938D01*
G01X47371Y31911D01*
G01X47335Y31882D01*
G01X47301Y31851D01*
G01X47269Y31819D01*
G01X47238Y31785D01*
G01X47209Y31750D01*
G01X47182Y31713D01*
G01X47156Y31676D01*
G01X47131Y31637D01*
G01X47108Y31597D01*
G01X47088Y31556D01*
G01X47069Y31515D01*
G01X47052Y31473D01*
G01X47037Y31429D01*
G01X47024Y31385D01*
G01X47012Y31341D01*
G01X47003Y31296D01*
G01X46996Y31251D01*
G01X46991Y31206D01*
G01X46988Y31160D01*
G01X46987Y31115D01*
G01X46988Y31069D01*
G01X46991Y31023D01*
G01X46996Y30978D01*
G01X47003Y30933D01*
G01X47012Y30888D01*
G01X47024Y30844D01*
G01X47037Y30800D01*
G01X47052Y30756D01*
G01X47069Y30714D01*
G01X47088Y30673D01*
G01X47108Y30632D01*
G01X47131Y30592D01*
G01X47156Y30553D01*
G01X47182Y30516D01*
G01X47209Y30480D01*
G01X47238Y30444D01*
G01X47269Y30410D01*
G01X47301Y30378D01*
G01X47335Y30347D01*
G01X47371Y30318D01*
G01X47407Y30291D01*
G01X47444Y30265D01*
G01X47483Y30240D01*
G01X47523Y30217D01*
G01X47564Y30197D01*
G01X47605Y30178D01*
G01X47647Y30161D01*
G01X47691Y30146D01*
G01X47735Y30133D01*
G01X47779Y30121D01*
G01X47824Y30112D01*
G01X47869Y30105D01*
G01X47914Y30100D01*
G01X47960Y30097D01*
G01X48006Y30096D01*
G01X48051Y30097D01*
G01X48097Y30100D01*
G01X48142Y30105D01*
G01X48187Y30112D01*
G01X48232Y30121D01*
G01X48276Y30133D01*
G01X48320Y30146D01*
G01X48364Y30161D01*
G01X48406Y30178D01*
G01X48447Y30197D01*
G01X48488Y30217D01*
G01X48528Y30240D01*
G01X48567Y30265D01*
G01X48604Y30291D01*
G01X48641Y30318D01*
G01X48676Y30347D01*
G01X48710Y30378D01*
G01X48742Y30410D01*
G01X48773Y30444D01*
G01X48802Y30480D01*
G01X48829Y30516D01*
G01X48855Y30553D01*
G01X48880Y30592D01*
G01X48903Y30632D01*
G01X48923Y30673D01*
G01X48942Y30714D01*
G01X48959Y30756D01*
G01X48974Y30800D01*
G01X48987Y30844D01*
G01X48999Y30888D01*
G01X49008Y30933D01*
G01X49015Y30978D01*
G01X49020Y31023D01*
G01X49023Y31069D01*
G01X49024Y31115D01*
G01X49023Y31160D01*
G01X49020Y31206D01*
G01X49015Y31251D01*
G01X49008Y31296D01*
G01X48999Y31341D01*
G01X48987Y31385D01*
G01X48974Y31429D01*
G01X48959Y31473D01*
G01X48942Y31515D01*
G01X48923Y31556D01*
G01X48903Y31597D01*
G01X48880Y31637D01*
G01X48855Y31676D01*
G01X48829Y31713D01*
G01X48802Y31750D01*
G01X48773Y31785D01*
G01X48742Y31819D01*
G01X48710Y31851D01*
G01X48676Y31882D01*
G01X48641Y31911D01*
G01X48604Y31938D01*
G01X48567Y31964D01*
G01X48528Y31989D01*
G01X48488Y32012D01*
G01X48447Y32032D01*
G01X48406Y32051D01*
G01X48364Y32068D01*
G01X48320Y32083D01*
G01X48276Y32096D01*
G01X48232Y32108D01*
G01X48187Y32117D01*
G01X48142Y32124D01*
G01X48097Y32129D01*
G01X48051Y32132D01*
G37*
G36*
G01X42971Y32132D02*
G01X42926Y32133D01*
G01X42880Y32132D01*
G01X42834Y32129D01*
G01X42789Y32124D01*
G01X42744Y32117D01*
G01X42699Y32108D01*
G01X42655Y32096D01*
G01X42611Y32083D01*
G01X42567Y32068D01*
G01X42525Y32051D01*
G01X42484Y32032D01*
G01X42443Y32012D01*
G01X42403Y31989D01*
G01X42364Y31964D01*
G01X42327Y31938D01*
G01X42291Y31911D01*
G01X42255Y31882D01*
G01X42221Y31851D01*
G01X42189Y31819D01*
G01X42158Y31785D01*
G01X42129Y31750D01*
G01X42102Y31713D01*
G01X42076Y31676D01*
G01X42051Y31637D01*
G01X42028Y31597D01*
G01X42008Y31556D01*
G01X41989Y31515D01*
G01X41972Y31473D01*
G01X41957Y31429D01*
G01X41944Y31385D01*
G01X41932Y31341D01*
G01X41923Y31296D01*
G01X41916Y31251D01*
G01X41911Y31206D01*
G01X41908Y31160D01*
G01X41907Y31115D01*
G01X41908Y31069D01*
G01X41911Y31023D01*
G01X41916Y30978D01*
G01X41923Y30933D01*
G01X41932Y30888D01*
G01X41944Y30844D01*
G01X41957Y30800D01*
G01X41972Y30756D01*
G01X41989Y30714D01*
G01X42008Y30673D01*
G01X42028Y30632D01*
G01X42051Y30592D01*
G01X42076Y30553D01*
G01X42102Y30516D01*
G01X42129Y30480D01*
G01X42158Y30444D01*
G01X42189Y30410D01*
G01X42221Y30378D01*
G01X42255Y30347D01*
G01X42291Y30318D01*
G01X42327Y30291D01*
G01X42364Y30265D01*
G01X42403Y30240D01*
G01X42443Y30217D01*
G01X42484Y30197D01*
G01X42525Y30178D01*
G01X42567Y30161D01*
G01X42611Y30146D01*
G01X42655Y30133D01*
G01X42699Y30121D01*
G01X42744Y30112D01*
G01X42789Y30105D01*
G01X42834Y30100D01*
G01X42880Y30097D01*
G01X42926Y30096D01*
G01X42971Y30097D01*
G01X43017Y30100D01*
G01X43062Y30105D01*
G01X43107Y30112D01*
G01X43152Y30121D01*
G01X43196Y30133D01*
G01X43240Y30146D01*
G01X43284Y30161D01*
G01X43326Y30178D01*
G01X43367Y30197D01*
G01X43408Y30217D01*
G01X43448Y30240D01*
G01X43487Y30265D01*
G01X43524Y30291D01*
G01X43561Y30318D01*
G01X43596Y30347D01*
G01X43630Y30378D01*
G01X43662Y30410D01*
G01X43693Y30444D01*
G01X43722Y30480D01*
G01X43749Y30516D01*
G01X43775Y30553D01*
G01X43800Y30592D01*
G01X43823Y30632D01*
G01X43843Y30673D01*
G01X43862Y30714D01*
G01X43879Y30756D01*
G01X43894Y30800D01*
G01X43907Y30844D01*
G01X43919Y30888D01*
G01X43928Y30933D01*
G01X43935Y30978D01*
G01X43940Y31023D01*
G01X43943Y31069D01*
G01X43944Y31115D01*
G01X43943Y31160D01*
G01X43940Y31206D01*
G01X43935Y31251D01*
G01X43928Y31296D01*
G01X43919Y31341D01*
G01X43907Y31385D01*
G01X43894Y31429D01*
G01X43879Y31473D01*
G01X43862Y31515D01*
G01X43843Y31556D01*
G01X43823Y31597D01*
G01X43800Y31637D01*
G01X43775Y31676D01*
G01X43749Y31713D01*
G01X43722Y31750D01*
G01X43693Y31785D01*
G01X43662Y31819D01*
G01X43630Y31851D01*
G01X43596Y31882D01*
G01X43561Y31911D01*
G01X43524Y31938D01*
G01X43487Y31964D01*
G01X43448Y31989D01*
G01X43408Y32012D01*
G01X43367Y32032D01*
G01X43326Y32051D01*
G01X43284Y32068D01*
G01X43240Y32083D01*
G01X43196Y32096D01*
G01X43152Y32108D01*
G01X43107Y32117D01*
G01X43062Y32124D01*
G01X43017Y32129D01*
G01X42971Y32132D01*
G37*
G36*
G01X26062Y30670D02*
G01X25590Y30670D01*
G01X25590Y30198D01*
G01X25633Y30220D01*
G01X25675Y30245D01*
G01X25716Y30271D01*
G01X25756Y30299D01*
G01X25794Y30329D01*
G01X25831Y30361D01*
G01X25866Y30394D01*
G01X25899Y30429D01*
G01X25931Y30466D01*
G01X25961Y30504D01*
G01X25989Y30544D01*
G01X26015Y30585D01*
G01X26040Y30627D01*
G01X26062Y30670D01*
G37*
G36*
G01X25633Y32009D02*
G01X25590Y32031D01*
G01X25590Y31559D01*
G01X26062Y31559D01*
G01X26040Y31602D01*
G01X26015Y31644D01*
G01X25989Y31685D01*
G01X25961Y31725D01*
G01X25931Y31763D01*
G01X25899Y31800D01*
G01X25866Y31835D01*
G01X25831Y31868D01*
G01X25794Y31900D01*
G01X25756Y31930D01*
G01X25716Y31958D01*
G01X25675Y31984D01*
G01X25633Y32009D01*
G37*
G36*
G01X17712Y40363D02*
G01X17653Y40364D01*
G01X17593Y40363D01*
G01X17533Y40360D01*
G01X17473Y40355D01*
G01X17413Y40348D01*
G01X17354Y40338D01*
G01X17295Y40327D01*
G01X17236Y40314D01*
G01X17179Y40299D01*
G01X17121Y40282D01*
G01X17064Y40263D01*
G01X17008Y40242D01*
G01X16952Y40218D01*
G01X16898Y40194D01*
G01X16844Y40167D01*
G01X16791Y40139D01*
G01X16740Y40108D01*
G01X16689Y40076D01*
G01X16640Y40043D01*
G01X16591Y40007D01*
G01X16544Y39970D01*
G01X16498Y39931D01*
G01X16454Y39891D01*
G01X16410Y39850D01*
G01X16369Y39806D01*
G01X16329Y39762D01*
G01X16290Y39716D01*
G01X16253Y39669D01*
G01X16217Y39620D01*
G01X16184Y39571D01*
G01X16152Y39520D01*
G01X16121Y39469D01*
G01X16093Y39416D01*
G01X16066Y39362D01*
G01X16042Y39308D01*
G01X16018Y39252D01*
G01X15997Y39196D01*
G01X15978Y39139D01*
G01X15961Y39081D01*
G01X15946Y39024D01*
G01X15933Y38965D01*
G01X15922Y38906D01*
G01X15912Y38847D01*
G01X15905Y38787D01*
G01X15900Y38727D01*
G01X15897Y38667D01*
G01X15896Y38608D01*
G01X15897Y38548D01*
G01X15900Y38488D01*
G01X15905Y38428D01*
G01X15912Y38368D01*
G01X15922Y38309D01*
G01X15933Y38250D01*
G01X15946Y38191D01*
G01X15961Y38134D01*
G01X15978Y38076D01*
G01X15997Y38019D01*
G01X16018Y37963D01*
G01X16042Y37907D01*
G01X16066Y37853D01*
G01X16093Y37799D01*
G01X16121Y37746D01*
G01X16152Y37695D01*
G01X16184Y37644D01*
G01X16217Y37595D01*
G01X16253Y37546D01*
G01X16290Y37499D01*
G01X16329Y37453D01*
G01X16369Y37409D01*
G01X16410Y37365D01*
G01X16454Y37324D01*
G01X16498Y37284D01*
G01X16544Y37245D01*
G01X16591Y37208D01*
G01X16640Y37172D01*
G01X16689Y37139D01*
G01X16740Y37107D01*
G01X16791Y37076D01*
G01X16844Y37048D01*
G01X16898Y37021D01*
G01X16952Y36997D01*
G01X17008Y36973D01*
G01X17064Y36952D01*
G01X17121Y36933D01*
G01X17179Y36916D01*
G01X17236Y36901D01*
G01X17295Y36888D01*
G01X17354Y36877D01*
G01X17413Y36867D01*
G01X17473Y36860D01*
G01X17533Y36855D01*
G01X17593Y36852D01*
G01X17653Y36851D01*
G01X17712Y36852D01*
G01X17772Y36855D01*
G01X17832Y36860D01*
G01X17892Y36867D01*
G01X17951Y36877D01*
G01X18010Y36888D01*
G01X18069Y36901D01*
G01X18126Y36916D01*
G01X18184Y36933D01*
G01X18241Y36952D01*
G01X18297Y36973D01*
G01X18353Y36997D01*
G01X18407Y37021D01*
G01X18461Y37048D01*
G01X18514Y37076D01*
G01X18565Y37107D01*
G01X18616Y37139D01*
G01X18665Y37172D01*
G01X18714Y37208D01*
G01X18761Y37245D01*
G01X18807Y37284D01*
G01X18851Y37324D01*
G01X18895Y37365D01*
G01X18936Y37409D01*
G01X18976Y37453D01*
G01X19015Y37499D01*
G01X19052Y37546D01*
G01X19088Y37595D01*
G01X19121Y37644D01*
G01X19153Y37695D01*
G01X19184Y37746D01*
G01X19212Y37799D01*
G01X19239Y37853D01*
G01X19263Y37907D01*
G01X19287Y37963D01*
G01X19308Y38019D01*
G01X19327Y38076D01*
G01X19344Y38134D01*
G01X19359Y38191D01*
G01X19372Y38250D01*
G01X19383Y38309D01*
G01X19393Y38368D01*
G01X19400Y38428D01*
G01X19405Y38488D01*
G01X19408Y38548D01*
G01X19409Y38608D01*
G01X19408Y38667D01*
G01X19405Y38727D01*
G01X19400Y38787D01*
G01X19393Y38847D01*
G01X19383Y38906D01*
G01X19372Y38965D01*
G01X19359Y39024D01*
G01X19344Y39081D01*
G01X19327Y39139D01*
G01X19308Y39196D01*
G01X19287Y39252D01*
G01X19263Y39308D01*
G01X19239Y39362D01*
G01X19212Y39416D01*
G01X19184Y39469D01*
G01X19153Y39520D01*
G01X19121Y39571D01*
G01X19088Y39620D01*
G01X19052Y39669D01*
G01X19015Y39716D01*
G01X18976Y39762D01*
G01X18936Y39806D01*
G01X18895Y39850D01*
G01X18851Y39891D01*
G01X18807Y39931D01*
G01X18761Y39970D01*
G01X18714Y40007D01*
G01X18665Y40043D01*
G01X18616Y40076D01*
G01X18565Y40108D01*
G01X18514Y40139D01*
G01X18461Y40167D01*
G01X18407Y40194D01*
G01X18353Y40218D01*
G01X18297Y40242D01*
G01X18241Y40263D01*
G01X18184Y40282D01*
G01X18126Y40299D01*
G01X18069Y40314D01*
G01X18010Y40327D01*
G01X17951Y40338D01*
G01X17892Y40348D01*
G01X17832Y40355D01*
G01X17772Y40360D01*
G01X17712Y40363D01*
G37*
G36*
G01X9457Y40363D02*
G01X9398Y40364D01*
G01X9338Y40363D01*
G01X9278Y40360D01*
G01X9218Y40355D01*
G01X9158Y40348D01*
G01X9099Y40338D01*
G01X9040Y40327D01*
G01X8981Y40314D01*
G01X8924Y40299D01*
G01X8866Y40282D01*
G01X8809Y40263D01*
G01X8753Y40242D01*
G01X8697Y40218D01*
G01X8643Y40194D01*
G01X8589Y40167D01*
G01X8536Y40139D01*
G01X8485Y40108D01*
G01X8434Y40076D01*
G01X8385Y40043D01*
G01X8336Y40007D01*
G01X8289Y39970D01*
G01X8243Y39931D01*
G01X8199Y39891D01*
G01X8155Y39850D01*
G01X8114Y39806D01*
G01X8074Y39762D01*
G01X8035Y39716D01*
G01X7998Y39669D01*
G01X7962Y39620D01*
G01X7929Y39571D01*
G01X7897Y39520D01*
G01X7866Y39469D01*
G01X7838Y39416D01*
G01X7811Y39362D01*
G01X7787Y39308D01*
G01X7763Y39252D01*
G01X7742Y39196D01*
G01X7723Y39139D01*
G01X7706Y39081D01*
G01X7691Y39024D01*
G01X7678Y38965D01*
G01X7667Y38906D01*
G01X7657Y38847D01*
G01X7650Y38787D01*
G01X7645Y38727D01*
G01X7642Y38667D01*
G01X7641Y38608D01*
G01X7642Y38548D01*
G01X7645Y38488D01*
G01X7650Y38428D01*
G01X7657Y38368D01*
G01X7667Y38309D01*
G01X7678Y38250D01*
G01X7691Y38191D01*
G01X7706Y38134D01*
G01X7723Y38076D01*
G01X7742Y38019D01*
G01X7763Y37963D01*
G01X7787Y37907D01*
G01X7811Y37853D01*
G01X7838Y37799D01*
G01X7866Y37746D01*
G01X7897Y37695D01*
G01X7929Y37644D01*
G01X7962Y37595D01*
G01X7998Y37546D01*
G01X8035Y37499D01*
G01X8074Y37453D01*
G01X8114Y37409D01*
G01X8155Y37365D01*
G01X8199Y37324D01*
G01X8243Y37284D01*
G01X8289Y37245D01*
G01X8336Y37208D01*
G01X8385Y37172D01*
G01X8434Y37139D01*
G01X8485Y37107D01*
G01X8536Y37076D01*
G01X8589Y37048D01*
G01X8643Y37021D01*
G01X8697Y36997D01*
G01X8753Y36973D01*
G01X8809Y36952D01*
G01X8866Y36933D01*
G01X8924Y36916D01*
G01X8981Y36901D01*
G01X9040Y36888D01*
G01X9099Y36877D01*
G01X9158Y36867D01*
G01X9218Y36860D01*
G01X9278Y36855D01*
G01X9338Y36852D01*
G01X9398Y36851D01*
G01X9457Y36852D01*
G01X9517Y36855D01*
G01X9577Y36860D01*
G01X9637Y36867D01*
G01X9696Y36877D01*
G01X9755Y36888D01*
G01X9814Y36901D01*
G01X9871Y36916D01*
G01X9929Y36933D01*
G01X9986Y36952D01*
G01X10042Y36973D01*
G01X10098Y36997D01*
G01X10152Y37021D01*
G01X10206Y37048D01*
G01X10259Y37076D01*
G01X10310Y37107D01*
G01X10361Y37139D01*
G01X10410Y37172D01*
G01X10459Y37208D01*
G01X10506Y37245D01*
G01X10552Y37284D01*
G01X10596Y37324D01*
G01X10640Y37365D01*
G01X10681Y37409D01*
G01X10721Y37453D01*
G01X10760Y37499D01*
G01X10797Y37546D01*
G01X10833Y37595D01*
G01X10866Y37644D01*
G01X10898Y37695D01*
G01X10929Y37746D01*
G01X10957Y37799D01*
G01X10984Y37853D01*
G01X11008Y37907D01*
G01X11032Y37963D01*
G01X11053Y38019D01*
G01X11072Y38076D01*
G01X11089Y38134D01*
G01X11104Y38191D01*
G01X11117Y38250D01*
G01X11128Y38309D01*
G01X11138Y38368D01*
G01X11145Y38428D01*
G01X11150Y38488D01*
G01X11153Y38548D01*
G01X11154Y38608D01*
G01X11153Y38667D01*
G01X11150Y38727D01*
G01X11145Y38787D01*
G01X11138Y38847D01*
G01X11128Y38906D01*
G01X11117Y38965D01*
G01X11104Y39024D01*
G01X11089Y39081D01*
G01X11072Y39139D01*
G01X11053Y39196D01*
G01X11032Y39252D01*
G01X11008Y39308D01*
G01X10984Y39362D01*
G01X10957Y39416D01*
G01X10929Y39469D01*
G01X10898Y39520D01*
G01X10866Y39571D01*
G01X10833Y39620D01*
G01X10797Y39669D01*
G01X10760Y39716D01*
G01X10721Y39762D01*
G01X10681Y39806D01*
G01X10640Y39850D01*
G01X10596Y39891D01*
G01X10552Y39931D01*
G01X10506Y39970D01*
G01X10459Y40007D01*
G01X10410Y40043D01*
G01X10361Y40076D01*
G01X10310Y40108D01*
G01X10259Y40139D01*
G01X10206Y40167D01*
G01X10152Y40194D01*
G01X10098Y40218D01*
G01X10042Y40242D01*
G01X9986Y40263D01*
G01X9929Y40282D01*
G01X9871Y40299D01*
G01X9814Y40314D01*
G01X9755Y40327D01*
G01X9696Y40338D01*
G01X9637Y40348D01*
G01X9577Y40355D01*
G01X9517Y40360D01*
G01X9457Y40363D01*
G37*
G36*
G01X45511Y47372D02*
G01X45466Y47373D01*
G01X45420Y47372D01*
G01X45374Y47369D01*
G01X45329Y47364D01*
G01X45284Y47357D01*
G01X45239Y47348D01*
G01X45195Y47336D01*
G01X45151Y47323D01*
G01X45107Y47308D01*
G01X45065Y47291D01*
G01X45024Y47272D01*
G01X44983Y47252D01*
G01X44943Y47229D01*
G01X44904Y47204D01*
G01X44867Y47178D01*
G01X44831Y47151D01*
G01X44795Y47122D01*
G01X44761Y47091D01*
G01X44729Y47059D01*
G01X44698Y47025D01*
G01X44669Y46990D01*
G01X44642Y46953D01*
G01X44616Y46916D01*
G01X44591Y46877D01*
G01X44568Y46837D01*
G01X44548Y46796D01*
G01X44529Y46755D01*
G01X44512Y46713D01*
G01X44497Y46669D01*
G01X44484Y46625D01*
G01X44472Y46581D01*
G01X44463Y46536D01*
G01X44456Y46491D01*
G01X44451Y46446D01*
G01X44448Y46400D01*
G01X44447Y46355D01*
G01X44448Y46309D01*
G01X44451Y46263D01*
G01X44456Y46218D01*
G01X44463Y46173D01*
G01X44472Y46128D01*
G01X44484Y46084D01*
G01X44497Y46040D01*
G01X44512Y45996D01*
G01X44529Y45954D01*
G01X44548Y45913D01*
G01X44568Y45872D01*
G01X44591Y45832D01*
G01X44616Y45793D01*
G01X44642Y45756D01*
G01X44669Y45720D01*
G01X44698Y45684D01*
G01X44729Y45650D01*
G01X44761Y45618D01*
G01X44795Y45587D01*
G01X44831Y45558D01*
G01X44867Y45531D01*
G01X44904Y45505D01*
G01X44943Y45480D01*
G01X44983Y45457D01*
G01X45024Y45437D01*
G01X45065Y45418D01*
G01X45107Y45401D01*
G01X45151Y45386D01*
G01X45195Y45373D01*
G01X45239Y45361D01*
G01X45284Y45352D01*
G01X45329Y45345D01*
G01X45374Y45340D01*
G01X45420Y45337D01*
G01X45466Y45336D01*
G01X45511Y45337D01*
G01X45557Y45340D01*
G01X45602Y45345D01*
G01X45647Y45352D01*
G01X45692Y45361D01*
G01X45736Y45373D01*
G01X45780Y45386D01*
G01X45824Y45401D01*
G01X45866Y45418D01*
G01X45907Y45437D01*
G01X45948Y45457D01*
G01X45988Y45480D01*
G01X46027Y45505D01*
G01X46064Y45531D01*
G01X46101Y45558D01*
G01X46136Y45587D01*
G01X46170Y45618D01*
G01X46202Y45650D01*
G01X46233Y45684D01*
G01X46262Y45720D01*
G01X46289Y45756D01*
G01X46315Y45793D01*
G01X46340Y45832D01*
G01X46363Y45872D01*
G01X46383Y45913D01*
G01X46402Y45954D01*
G01X46419Y45996D01*
G01X46434Y46040D01*
G01X46447Y46084D01*
G01X46459Y46128D01*
G01X46468Y46173D01*
G01X46475Y46218D01*
G01X46480Y46263D01*
G01X46483Y46309D01*
G01X46484Y46355D01*
G01X46483Y46400D01*
G01X46480Y46446D01*
G01X46475Y46491D01*
G01X46468Y46536D01*
G01X46459Y46581D01*
G01X46447Y46625D01*
G01X46434Y46669D01*
G01X46419Y46713D01*
G01X46402Y46755D01*
G01X46383Y46796D01*
G01X46363Y46837D01*
G01X46340Y46877D01*
G01X46315Y46916D01*
G01X46289Y46953D01*
G01X46262Y46990D01*
G01X46233Y47025D01*
G01X46202Y47059D01*
G01X46170Y47091D01*
G01X46136Y47122D01*
G01X46101Y47151D01*
G01X46064Y47178D01*
G01X46027Y47204D01*
G01X45988Y47229D01*
G01X45948Y47252D01*
G01X45907Y47272D01*
G01X45866Y47291D01*
G01X45824Y47308D01*
G01X45780Y47323D01*
G01X45736Y47336D01*
G01X45692Y47348D01*
G01X45647Y47357D01*
G01X45602Y47364D01*
G01X45557Y47369D01*
G01X45511Y47372D01*
G37*
G36*
G01X17571Y47372D02*
G01X17526Y47373D01*
G01X17480Y47372D01*
G01X17434Y47369D01*
G01X17389Y47364D01*
G01X17344Y47357D01*
G01X17299Y47348D01*
G01X17255Y47336D01*
G01X17211Y47323D01*
G01X17167Y47308D01*
G01X17125Y47291D01*
G01X17084Y47272D01*
G01X17043Y47252D01*
G01X17003Y47229D01*
G01X16964Y47204D01*
G01X16927Y47178D01*
G01X16891Y47151D01*
G01X16855Y47122D01*
G01X16821Y47091D01*
G01X16789Y47059D01*
G01X16758Y47025D01*
G01X16729Y46990D01*
G01X16702Y46953D01*
G01X16676Y46916D01*
G01X16651Y46877D01*
G01X16628Y46837D01*
G01X16608Y46796D01*
G01X16589Y46755D01*
G01X16572Y46713D01*
G01X16557Y46669D01*
G01X16544Y46625D01*
G01X16532Y46581D01*
G01X16523Y46536D01*
G01X16516Y46491D01*
G01X16511Y46446D01*
G01X16508Y46400D01*
G01X16507Y46355D01*
G01X16508Y46309D01*
G01X16511Y46263D01*
G01X16516Y46218D01*
G01X16523Y46173D01*
G01X16532Y46128D01*
G01X16544Y46084D01*
G01X16557Y46040D01*
G01X16572Y45996D01*
G01X16589Y45954D01*
G01X16608Y45913D01*
G01X16628Y45872D01*
G01X16651Y45832D01*
G01X16676Y45793D01*
G01X16702Y45756D01*
G01X16729Y45720D01*
G01X16758Y45684D01*
G01X16789Y45650D01*
G01X16821Y45618D01*
G01X16855Y45587D01*
G01X16891Y45558D01*
G01X16927Y45531D01*
G01X16964Y45505D01*
G01X17003Y45480D01*
G01X17043Y45457D01*
G01X17084Y45437D01*
G01X17125Y45418D01*
G01X17167Y45401D01*
G01X17211Y45386D01*
G01X17255Y45373D01*
G01X17299Y45361D01*
G01X17344Y45352D01*
G01X17389Y45345D01*
G01X17434Y45340D01*
G01X17480Y45337D01*
G01X17526Y45336D01*
G01X17571Y45337D01*
G01X17617Y45340D01*
G01X17662Y45345D01*
G01X17707Y45352D01*
G01X17752Y45361D01*
G01X17796Y45373D01*
G01X17840Y45386D01*
G01X17884Y45401D01*
G01X17926Y45418D01*
G01X17967Y45437D01*
G01X18008Y45457D01*
G01X18048Y45480D01*
G01X18087Y45505D01*
G01X18124Y45531D01*
G01X18161Y45558D01*
G01X18196Y45587D01*
G01X18230Y45618D01*
G01X18262Y45650D01*
G01X18293Y45684D01*
G01X18322Y45720D01*
G01X18349Y45756D01*
G01X18375Y45793D01*
G01X18400Y45832D01*
G01X18423Y45872D01*
G01X18443Y45913D01*
G01X18462Y45954D01*
G01X18479Y45996D01*
G01X18494Y46040D01*
G01X18507Y46084D01*
G01X18519Y46128D01*
G01X18528Y46173D01*
G01X18535Y46218D01*
G01X18540Y46263D01*
G01X18543Y46309D01*
G01X18544Y46355D01*
G01X18543Y46400D01*
G01X18540Y46446D01*
G01X18535Y46491D01*
G01X18528Y46536D01*
G01X18519Y46581D01*
G01X18507Y46625D01*
G01X18494Y46669D01*
G01X18479Y46713D01*
G01X18462Y46755D01*
G01X18443Y46796D01*
G01X18423Y46837D01*
G01X18400Y46877D01*
G01X18375Y46916D01*
G01X18349Y46953D01*
G01X18322Y46990D01*
G01X18293Y47025D01*
G01X18262Y47059D01*
G01X18230Y47091D01*
G01X18196Y47122D01*
G01X18161Y47151D01*
G01X18124Y47178D01*
G01X18087Y47204D01*
G01X18048Y47229D01*
G01X18008Y47252D01*
G01X17967Y47272D01*
G01X17926Y47291D01*
G01X17884Y47308D01*
G01X17840Y47323D01*
G01X17796Y47336D01*
G01X17752Y47348D01*
G01X17707Y47357D01*
G01X17662Y47364D01*
G01X17617Y47369D01*
G01X17571Y47372D01*
G37*
G36*
G01X48051Y47372D02*
G01X48006Y47373D01*
G01X47960Y47372D01*
G01X47914Y47369D01*
G01X47869Y47364D01*
G01X47824Y47357D01*
G01X47779Y47348D01*
G01X47735Y47336D01*
G01X47691Y47323D01*
G01X47647Y47308D01*
G01X47605Y47291D01*
G01X47564Y47272D01*
G01X47523Y47252D01*
G01X47483Y47229D01*
G01X47444Y47204D01*
G01X47407Y47178D01*
G01X47371Y47151D01*
G01X47335Y47122D01*
G01X47301Y47091D01*
G01X47269Y47059D01*
G01X47238Y47025D01*
G01X47209Y46990D01*
G01X47182Y46953D01*
G01X47156Y46916D01*
G01X47131Y46877D01*
G01X47108Y46837D01*
G01X47088Y46796D01*
G01X47069Y46755D01*
G01X47052Y46713D01*
G01X47037Y46669D01*
G01X47024Y46625D01*
G01X47012Y46581D01*
G01X47003Y46536D01*
G01X46996Y46491D01*
G01X46991Y46446D01*
G01X46988Y46400D01*
G01X46987Y46355D01*
G01X46988Y46309D01*
G01X46991Y46263D01*
G01X46996Y46218D01*
G01X47003Y46173D01*
G01X47012Y46128D01*
G01X47024Y46084D01*
G01X47037Y46040D01*
G01X47052Y45996D01*
G01X47069Y45954D01*
G01X47088Y45913D01*
G01X47108Y45872D01*
G01X47131Y45832D01*
G01X47156Y45793D01*
G01X47182Y45756D01*
G01X47209Y45720D01*
G01X47238Y45684D01*
G01X47269Y45650D01*
G01X47301Y45618D01*
G01X47335Y45587D01*
G01X47371Y45558D01*
G01X47407Y45531D01*
G01X47444Y45505D01*
G01X47483Y45480D01*
G01X47523Y45457D01*
G01X47564Y45437D01*
G01X47605Y45418D01*
G01X47647Y45401D01*
G01X47691Y45386D01*
G01X47735Y45373D01*
G01X47779Y45361D01*
G01X47824Y45352D01*
G01X47869Y45345D01*
G01X47914Y45340D01*
G01X47960Y45337D01*
G01X48006Y45336D01*
G01X48051Y45337D01*
G01X48097Y45340D01*
G01X48142Y45345D01*
G01X48187Y45352D01*
G01X48232Y45361D01*
G01X48276Y45373D01*
G01X48320Y45386D01*
G01X48364Y45401D01*
G01X48406Y45418D01*
G01X48447Y45437D01*
G01X48488Y45457D01*
G01X48528Y45480D01*
G01X48567Y45505D01*
G01X48604Y45531D01*
G01X48641Y45558D01*
G01X48676Y45587D01*
G01X48710Y45618D01*
G01X48742Y45650D01*
G01X48773Y45684D01*
G01X48802Y45720D01*
G01X48829Y45756D01*
G01X48855Y45793D01*
G01X48880Y45832D01*
G01X48903Y45872D01*
G01X48923Y45913D01*
G01X48942Y45954D01*
G01X48959Y45996D01*
G01X48974Y46040D01*
G01X48987Y46084D01*
G01X48999Y46128D01*
G01X49008Y46173D01*
G01X49015Y46218D01*
G01X49020Y46263D01*
G01X49023Y46309D01*
G01X49024Y46355D01*
G01X49023Y46400D01*
G01X49020Y46446D01*
G01X49015Y46491D01*
G01X49008Y46536D01*
G01X48999Y46581D01*
G01X48987Y46625D01*
G01X48974Y46669D01*
G01X48959Y46713D01*
G01X48942Y46755D01*
G01X48923Y46796D01*
G01X48903Y46837D01*
G01X48880Y46877D01*
G01X48855Y46916D01*
G01X48829Y46953D01*
G01X48802Y46990D01*
G01X48773Y47025D01*
G01X48742Y47059D01*
G01X48710Y47091D01*
G01X48676Y47122D01*
G01X48641Y47151D01*
G01X48604Y47178D01*
G01X48567Y47204D01*
G01X48528Y47229D01*
G01X48488Y47252D01*
G01X48447Y47272D01*
G01X48406Y47291D01*
G01X48364Y47308D01*
G01X48320Y47323D01*
G01X48276Y47336D01*
G01X48232Y47348D01*
G01X48187Y47357D01*
G01X48142Y47364D01*
G01X48097Y47369D01*
G01X48051Y47372D01*
G37*
G36*
G01X15031Y47372D02*
G01X14986Y47373D01*
G01X14940Y47372D01*
G01X14894Y47369D01*
G01X14849Y47364D01*
G01X14804Y47357D01*
G01X14759Y47348D01*
G01X14715Y47336D01*
G01X14671Y47323D01*
G01X14627Y47308D01*
G01X14585Y47291D01*
G01X14544Y47272D01*
G01X14503Y47252D01*
G01X14463Y47229D01*
G01X14424Y47204D01*
G01X14387Y47178D01*
G01X14351Y47151D01*
G01X14315Y47122D01*
G01X14281Y47091D01*
G01X14249Y47059D01*
G01X14218Y47025D01*
G01X14189Y46990D01*
G01X14162Y46953D01*
G01X14136Y46916D01*
G01X14111Y46877D01*
G01X14088Y46837D01*
G01X14068Y46796D01*
G01X14049Y46755D01*
G01X14032Y46713D01*
G01X14017Y46669D01*
G01X14004Y46625D01*
G01X13992Y46581D01*
G01X13983Y46536D01*
G01X13976Y46491D01*
G01X13971Y46446D01*
G01X13968Y46400D01*
G01X13967Y46355D01*
G01X13968Y46309D01*
G01X13971Y46263D01*
G01X13976Y46218D01*
G01X13983Y46173D01*
G01X13992Y46128D01*
G01X14004Y46084D01*
G01X14017Y46040D01*
G01X14032Y45996D01*
G01X14049Y45954D01*
G01X14068Y45913D01*
G01X14088Y45872D01*
G01X14111Y45832D01*
G01X14136Y45793D01*
G01X14162Y45756D01*
G01X14189Y45720D01*
G01X14218Y45684D01*
G01X14249Y45650D01*
G01X14281Y45618D01*
G01X14315Y45587D01*
G01X14351Y45558D01*
G01X14387Y45531D01*
G01X14424Y45505D01*
G01X14463Y45480D01*
G01X14503Y45457D01*
G01X14544Y45437D01*
G01X14585Y45418D01*
G01X14627Y45401D01*
G01X14671Y45386D01*
G01X14715Y45373D01*
G01X14759Y45361D01*
G01X14804Y45352D01*
G01X14849Y45345D01*
G01X14894Y45340D01*
G01X14940Y45337D01*
G01X14986Y45336D01*
G01X15031Y45337D01*
G01X15077Y45340D01*
G01X15122Y45345D01*
G01X15167Y45352D01*
G01X15212Y45361D01*
G01X15256Y45373D01*
G01X15300Y45386D01*
G01X15344Y45401D01*
G01X15386Y45418D01*
G01X15427Y45437D01*
G01X15468Y45457D01*
G01X15508Y45480D01*
G01X15547Y45505D01*
G01X15584Y45531D01*
G01X15621Y45558D01*
G01X15656Y45587D01*
G01X15690Y45618D01*
G01X15722Y45650D01*
G01X15753Y45684D01*
G01X15782Y45720D01*
G01X15809Y45756D01*
G01X15835Y45793D01*
G01X15860Y45832D01*
G01X15883Y45872D01*
G01X15903Y45913D01*
G01X15922Y45954D01*
G01X15939Y45996D01*
G01X15954Y46040D01*
G01X15967Y46084D01*
G01X15979Y46128D01*
G01X15988Y46173D01*
G01X15995Y46218D01*
G01X16000Y46263D01*
G01X16003Y46309D01*
G01X16004Y46355D01*
G01X16003Y46400D01*
G01X16000Y46446D01*
G01X15995Y46491D01*
G01X15988Y46536D01*
G01X15979Y46581D01*
G01X15967Y46625D01*
G01X15954Y46669D01*
G01X15939Y46713D01*
G01X15922Y46755D01*
G01X15903Y46796D01*
G01X15883Y46837D01*
G01X15860Y46877D01*
G01X15835Y46916D01*
G01X15809Y46953D01*
G01X15782Y46990D01*
G01X15753Y47025D01*
G01X15722Y47059D01*
G01X15690Y47091D01*
G01X15656Y47122D01*
G01X15621Y47151D01*
G01X15584Y47178D01*
G01X15547Y47204D01*
G01X15508Y47229D01*
G01X15468Y47252D01*
G01X15427Y47272D01*
G01X15386Y47291D01*
G01X15344Y47308D01*
G01X15300Y47323D01*
G01X15256Y47336D01*
G01X15212Y47348D01*
G01X15167Y47357D01*
G01X15122Y47364D01*
G01X15077Y47369D01*
G01X15031Y47372D01*
G37*
G36*
G01X50591Y47372D02*
G01X50546Y47373D01*
G01X50500Y47372D01*
G01X50454Y47369D01*
G01X50409Y47364D01*
G01X50364Y47357D01*
G01X50319Y47348D01*
G01X50275Y47336D01*
G01X50231Y47323D01*
G01X50187Y47308D01*
G01X50145Y47291D01*
G01X50104Y47272D01*
G01X50063Y47252D01*
G01X50023Y47229D01*
G01X49984Y47204D01*
G01X49947Y47178D01*
G01X49911Y47151D01*
G01X49875Y47122D01*
G01X49841Y47091D01*
G01X49809Y47059D01*
G01X49778Y47025D01*
G01X49749Y46990D01*
G01X49722Y46953D01*
G01X49696Y46916D01*
G01X49671Y46877D01*
G01X49648Y46837D01*
G01X49628Y46796D01*
G01X49609Y46755D01*
G01X49592Y46713D01*
G01X49577Y46669D01*
G01X49564Y46625D01*
G01X49552Y46581D01*
G01X49543Y46536D01*
G01X49536Y46491D01*
G01X49531Y46446D01*
G01X49528Y46400D01*
G01X49527Y46355D01*
G01X49528Y46309D01*
G01X49531Y46263D01*
G01X49536Y46218D01*
G01X49543Y46173D01*
G01X49552Y46128D01*
G01X49564Y46084D01*
G01X49577Y46040D01*
G01X49592Y45996D01*
G01X49609Y45954D01*
G01X49628Y45913D01*
G01X49648Y45872D01*
G01X49671Y45832D01*
G01X49696Y45793D01*
G01X49722Y45756D01*
G01X49749Y45720D01*
G01X49778Y45684D01*
G01X49809Y45650D01*
G01X49841Y45618D01*
G01X49875Y45587D01*
G01X49911Y45558D01*
G01X49947Y45531D01*
G01X49984Y45505D01*
G01X50023Y45480D01*
G01X50063Y45457D01*
G01X50104Y45437D01*
G01X50145Y45418D01*
G01X50187Y45401D01*
G01X50231Y45386D01*
G01X50275Y45373D01*
G01X50319Y45361D01*
G01X50364Y45352D01*
G01X50409Y45345D01*
G01X50454Y45340D01*
G01X50500Y45337D01*
G01X50546Y45336D01*
G01X50591Y45337D01*
G01X50637Y45340D01*
G01X50682Y45345D01*
G01X50727Y45352D01*
G01X50772Y45361D01*
G01X50816Y45373D01*
G01X50860Y45386D01*
G01X50904Y45401D01*
G01X50946Y45418D01*
G01X50987Y45437D01*
G01X51028Y45457D01*
G01X51068Y45480D01*
G01X51107Y45505D01*
G01X51144Y45531D01*
G01X51181Y45558D01*
G01X51216Y45587D01*
G01X51250Y45618D01*
G01X51282Y45650D01*
G01X51313Y45684D01*
G01X51342Y45720D01*
G01X51369Y45756D01*
G01X51395Y45793D01*
G01X51420Y45832D01*
G01X51443Y45872D01*
G01X51463Y45913D01*
G01X51482Y45954D01*
G01X51499Y45996D01*
G01X51514Y46040D01*
G01X51527Y46084D01*
G01X51539Y46128D01*
G01X51548Y46173D01*
G01X51555Y46218D01*
G01X51560Y46263D01*
G01X51563Y46309D01*
G01X51564Y46355D01*
G01X51563Y46400D01*
G01X51560Y46446D01*
G01X51555Y46491D01*
G01X51548Y46536D01*
G01X51539Y46581D01*
G01X51527Y46625D01*
G01X51514Y46669D01*
G01X51499Y46713D01*
G01X51482Y46755D01*
G01X51463Y46796D01*
G01X51443Y46837D01*
G01X51420Y46877D01*
G01X51395Y46916D01*
G01X51369Y46953D01*
G01X51342Y46990D01*
G01X51313Y47025D01*
G01X51282Y47059D01*
G01X51250Y47091D01*
G01X51216Y47122D01*
G01X51181Y47151D01*
G01X51144Y47178D01*
G01X51107Y47204D01*
G01X51068Y47229D01*
G01X51028Y47252D01*
G01X50987Y47272D01*
G01X50946Y47291D01*
G01X50904Y47308D01*
G01X50860Y47323D01*
G01X50816Y47336D01*
G01X50772Y47348D01*
G01X50727Y47357D01*
G01X50682Y47364D01*
G01X50637Y47369D01*
G01X50591Y47372D01*
G37*
G36*
G01X12491Y47372D02*
G01X12446Y47373D01*
G01X12400Y47372D01*
G01X12354Y47369D01*
G01X12309Y47364D01*
G01X12264Y47357D01*
G01X12219Y47348D01*
G01X12175Y47336D01*
G01X12131Y47323D01*
G01X12087Y47308D01*
G01X12045Y47291D01*
G01X12004Y47272D01*
G01X11963Y47252D01*
G01X11923Y47229D01*
G01X11884Y47204D01*
G01X11847Y47178D01*
G01X11811Y47151D01*
G01X11775Y47122D01*
G01X11741Y47091D01*
G01X11709Y47059D01*
G01X11678Y47025D01*
G01X11649Y46990D01*
G01X11622Y46953D01*
G01X11596Y46916D01*
G01X11571Y46877D01*
G01X11548Y46837D01*
G01X11528Y46796D01*
G01X11509Y46755D01*
G01X11492Y46713D01*
G01X11477Y46669D01*
G01X11464Y46625D01*
G01X11452Y46581D01*
G01X11443Y46536D01*
G01X11436Y46491D01*
G01X11431Y46446D01*
G01X11428Y46400D01*
G01X11427Y46355D01*
G01X11428Y46309D01*
G01X11431Y46263D01*
G01X11436Y46218D01*
G01X11443Y46173D01*
G01X11452Y46128D01*
G01X11464Y46084D01*
G01X11477Y46040D01*
G01X11492Y45996D01*
G01X11509Y45954D01*
G01X11528Y45913D01*
G01X11548Y45872D01*
G01X11571Y45832D01*
G01X11596Y45793D01*
G01X11622Y45756D01*
G01X11649Y45720D01*
G01X11678Y45684D01*
G01X11709Y45650D01*
G01X11741Y45618D01*
G01X11775Y45587D01*
G01X11811Y45558D01*
G01X11847Y45531D01*
G01X11884Y45505D01*
G01X11923Y45480D01*
G01X11963Y45457D01*
G01X12004Y45437D01*
G01X12045Y45418D01*
G01X12087Y45401D01*
G01X12131Y45386D01*
G01X12175Y45373D01*
G01X12219Y45361D01*
G01X12264Y45352D01*
G01X12309Y45345D01*
G01X12354Y45340D01*
G01X12400Y45337D01*
G01X12446Y45336D01*
G01X12491Y45337D01*
G01X12537Y45340D01*
G01X12582Y45345D01*
G01X12627Y45352D01*
G01X12672Y45361D01*
G01X12716Y45373D01*
G01X12760Y45386D01*
G01X12804Y45401D01*
G01X12846Y45418D01*
G01X12887Y45437D01*
G01X12928Y45457D01*
G01X12968Y45480D01*
G01X13007Y45505D01*
G01X13044Y45531D01*
G01X13081Y45558D01*
G01X13116Y45587D01*
G01X13150Y45618D01*
G01X13182Y45650D01*
G01X13213Y45684D01*
G01X13242Y45720D01*
G01X13269Y45756D01*
G01X13295Y45793D01*
G01X13320Y45832D01*
G01X13343Y45872D01*
G01X13363Y45913D01*
G01X13382Y45954D01*
G01X13399Y45996D01*
G01X13414Y46040D01*
G01X13427Y46084D01*
G01X13439Y46128D01*
G01X13448Y46173D01*
G01X13455Y46218D01*
G01X13460Y46263D01*
G01X13463Y46309D01*
G01X13464Y46355D01*
G01X13463Y46400D01*
G01X13460Y46446D01*
G01X13455Y46491D01*
G01X13448Y46536D01*
G01X13439Y46581D01*
G01X13427Y46625D01*
G01X13414Y46669D01*
G01X13399Y46713D01*
G01X13382Y46755D01*
G01X13363Y46796D01*
G01X13343Y46837D01*
G01X13320Y46877D01*
G01X13295Y46916D01*
G01X13269Y46953D01*
G01X13242Y46990D01*
G01X13213Y47025D01*
G01X13182Y47059D01*
G01X13150Y47091D01*
G01X13116Y47122D01*
G01X13081Y47151D01*
G01X13044Y47178D01*
G01X13007Y47204D01*
G01X12968Y47229D01*
G01X12928Y47252D01*
G01X12887Y47272D01*
G01X12846Y47291D01*
G01X12804Y47308D01*
G01X12760Y47323D01*
G01X12716Y47336D01*
G01X12672Y47348D01*
G01X12627Y47357D01*
G01X12582Y47364D01*
G01X12537Y47369D01*
G01X12491Y47372D01*
G37*
G36*
G01X53131Y47372D02*
G01X53086Y47373D01*
G01X53040Y47372D01*
G01X52994Y47369D01*
G01X52949Y47364D01*
G01X52904Y47357D01*
G01X52859Y47348D01*
G01X52815Y47336D01*
G01X52771Y47323D01*
G01X52727Y47308D01*
G01X52685Y47291D01*
G01X52644Y47272D01*
G01X52603Y47252D01*
G01X52563Y47229D01*
G01X52524Y47204D01*
G01X52487Y47178D01*
G01X52451Y47151D01*
G01X52415Y47122D01*
G01X52381Y47091D01*
G01X52349Y47059D01*
G01X52318Y47025D01*
G01X52289Y46990D01*
G01X52262Y46953D01*
G01X52236Y46916D01*
G01X52211Y46877D01*
G01X52188Y46837D01*
G01X52168Y46796D01*
G01X52149Y46755D01*
G01X52132Y46713D01*
G01X52117Y46669D01*
G01X52104Y46625D01*
G01X52092Y46581D01*
G01X52083Y46536D01*
G01X52076Y46491D01*
G01X52071Y46446D01*
G01X52068Y46400D01*
G01X52067Y46355D01*
G01X52068Y46309D01*
G01X52071Y46263D01*
G01X52076Y46218D01*
G01X52083Y46173D01*
G01X52092Y46128D01*
G01X52104Y46084D01*
G01X52117Y46040D01*
G01X52132Y45996D01*
G01X52149Y45954D01*
G01X52168Y45913D01*
G01X52188Y45872D01*
G01X52211Y45832D01*
G01X52236Y45793D01*
G01X52262Y45756D01*
G01X52289Y45720D01*
G01X52318Y45684D01*
G01X52349Y45650D01*
G01X52381Y45618D01*
G01X52415Y45587D01*
G01X52451Y45558D01*
G01X52487Y45531D01*
G01X52524Y45505D01*
G01X52563Y45480D01*
G01X52603Y45457D01*
G01X52644Y45437D01*
G01X52685Y45418D01*
G01X52727Y45401D01*
G01X52771Y45386D01*
G01X52815Y45373D01*
G01X52859Y45361D01*
G01X52904Y45352D01*
G01X52949Y45345D01*
G01X52994Y45340D01*
G01X53040Y45337D01*
G01X53086Y45336D01*
G01X53131Y45337D01*
G01X53177Y45340D01*
G01X53222Y45345D01*
G01X53267Y45352D01*
G01X53312Y45361D01*
G01X53356Y45373D01*
G01X53400Y45386D01*
G01X53444Y45401D01*
G01X53486Y45418D01*
G01X53527Y45437D01*
G01X53568Y45457D01*
G01X53608Y45480D01*
G01X53647Y45505D01*
G01X53684Y45531D01*
G01X53721Y45558D01*
G01X53756Y45587D01*
G01X53790Y45618D01*
G01X53822Y45650D01*
G01X53853Y45684D01*
G01X53882Y45720D01*
G01X53909Y45756D01*
G01X53935Y45793D01*
G01X53960Y45832D01*
G01X53983Y45872D01*
G01X54003Y45913D01*
G01X54022Y45954D01*
G01X54039Y45996D01*
G01X54054Y46040D01*
G01X54067Y46084D01*
G01X54079Y46128D01*
G01X54088Y46173D01*
G01X54095Y46218D01*
G01X54100Y46263D01*
G01X54103Y46309D01*
G01X54104Y46355D01*
G01X54103Y46400D01*
G01X54100Y46446D01*
G01X54095Y46491D01*
G01X54088Y46536D01*
G01X54079Y46581D01*
G01X54067Y46625D01*
G01X54054Y46669D01*
G01X54039Y46713D01*
G01X54022Y46755D01*
G01X54003Y46796D01*
G01X53983Y46837D01*
G01X53960Y46877D01*
G01X53935Y46916D01*
G01X53909Y46953D01*
G01X53882Y46990D01*
G01X53853Y47025D01*
G01X53822Y47059D01*
G01X53790Y47091D01*
G01X53756Y47122D01*
G01X53721Y47151D01*
G01X53684Y47178D01*
G01X53647Y47204D01*
G01X53608Y47229D01*
G01X53568Y47252D01*
G01X53527Y47272D01*
G01X53486Y47291D01*
G01X53444Y47308D01*
G01X53400Y47323D01*
G01X53356Y47336D01*
G01X53312Y47348D01*
G01X53267Y47357D01*
G01X53222Y47364D01*
G01X53177Y47369D01*
G01X53131Y47372D01*
G37*
G36*
G01X9951Y47372D02*
G01X9906Y47373D01*
G01X9860Y47372D01*
G01X9814Y47369D01*
G01X9769Y47364D01*
G01X9724Y47357D01*
G01X9679Y47348D01*
G01X9635Y47336D01*
G01X9591Y47323D01*
G01X9547Y47308D01*
G01X9505Y47291D01*
G01X9464Y47272D01*
G01X9423Y47252D01*
G01X9383Y47229D01*
G01X9344Y47204D01*
G01X9307Y47178D01*
G01X9271Y47151D01*
G01X9235Y47122D01*
G01X9201Y47091D01*
G01X9169Y47059D01*
G01X9138Y47025D01*
G01X9109Y46990D01*
G01X9082Y46953D01*
G01X9056Y46916D01*
G01X9031Y46877D01*
G01X9008Y46837D01*
G01X8988Y46796D01*
G01X8969Y46755D01*
G01X8952Y46713D01*
G01X8937Y46669D01*
G01X8924Y46625D01*
G01X8912Y46581D01*
G01X8903Y46536D01*
G01X8896Y46491D01*
G01X8891Y46446D01*
G01X8888Y46400D01*
G01X8887Y46355D01*
G01X8888Y46309D01*
G01X8891Y46263D01*
G01X8896Y46218D01*
G01X8903Y46173D01*
G01X8912Y46128D01*
G01X8924Y46084D01*
G01X8937Y46040D01*
G01X8952Y45996D01*
G01X8969Y45954D01*
G01X8988Y45913D01*
G01X9008Y45872D01*
G01X9031Y45832D01*
G01X9056Y45793D01*
G01X9082Y45756D01*
G01X9109Y45720D01*
G01X9138Y45684D01*
G01X9169Y45650D01*
G01X9201Y45618D01*
G01X9235Y45587D01*
G01X9271Y45558D01*
G01X9307Y45531D01*
G01X9344Y45505D01*
G01X9383Y45480D01*
G01X9423Y45457D01*
G01X9464Y45437D01*
G01X9505Y45418D01*
G01X9547Y45401D01*
G01X9591Y45386D01*
G01X9635Y45373D01*
G01X9679Y45361D01*
G01X9724Y45352D01*
G01X9769Y45345D01*
G01X9814Y45340D01*
G01X9860Y45337D01*
G01X9906Y45336D01*
G01X9951Y45337D01*
G01X9997Y45340D01*
G01X10042Y45345D01*
G01X10087Y45352D01*
G01X10132Y45361D01*
G01X10176Y45373D01*
G01X10220Y45386D01*
G01X10264Y45401D01*
G01X10306Y45418D01*
G01X10347Y45437D01*
G01X10388Y45457D01*
G01X10428Y45480D01*
G01X10467Y45505D01*
G01X10504Y45531D01*
G01X10541Y45558D01*
G01X10576Y45587D01*
G01X10610Y45618D01*
G01X10642Y45650D01*
G01X10673Y45684D01*
G01X10702Y45720D01*
G01X10729Y45756D01*
G01X10755Y45793D01*
G01X10780Y45832D01*
G01X10803Y45872D01*
G01X10823Y45913D01*
G01X10842Y45954D01*
G01X10859Y45996D01*
G01X10874Y46040D01*
G01X10887Y46084D01*
G01X10899Y46128D01*
G01X10908Y46173D01*
G01X10915Y46218D01*
G01X10920Y46263D01*
G01X10923Y46309D01*
G01X10924Y46355D01*
G01X10923Y46400D01*
G01X10920Y46446D01*
G01X10915Y46491D01*
G01X10908Y46536D01*
G01X10899Y46581D01*
G01X10887Y46625D01*
G01X10874Y46669D01*
G01X10859Y46713D01*
G01X10842Y46755D01*
G01X10823Y46796D01*
G01X10803Y46837D01*
G01X10780Y46877D01*
G01X10755Y46916D01*
G01X10729Y46953D01*
G01X10702Y46990D01*
G01X10673Y47025D01*
G01X10642Y47059D01*
G01X10610Y47091D01*
G01X10576Y47122D01*
G01X10541Y47151D01*
G01X10504Y47178D01*
G01X10467Y47204D01*
G01X10428Y47229D01*
G01X10388Y47252D01*
G01X10347Y47272D01*
G01X10306Y47291D01*
G01X10264Y47308D01*
G01X10220Y47323D01*
G01X10176Y47336D01*
G01X10132Y47348D01*
G01X10087Y47357D01*
G01X10042Y47364D01*
G01X9997Y47369D01*
G01X9951Y47372D01*
G37*
G36*
G01X55671Y47372D02*
G01X55626Y47373D01*
G01X55580Y47372D01*
G01X55534Y47369D01*
G01X55489Y47364D01*
G01X55444Y47357D01*
G01X55399Y47348D01*
G01X55355Y47336D01*
G01X55311Y47323D01*
G01X55267Y47308D01*
G01X55225Y47291D01*
G01X55184Y47272D01*
G01X55143Y47252D01*
G01X55103Y47229D01*
G01X55064Y47204D01*
G01X55027Y47178D01*
G01X54991Y47151D01*
G01X54955Y47122D01*
G01X54921Y47091D01*
G01X54889Y47059D01*
G01X54858Y47025D01*
G01X54829Y46990D01*
G01X54802Y46953D01*
G01X54776Y46916D01*
G01X54751Y46877D01*
G01X54728Y46837D01*
G01X54708Y46796D01*
G01X54689Y46755D01*
G01X54672Y46713D01*
G01X54657Y46669D01*
G01X54644Y46625D01*
G01X54632Y46581D01*
G01X54623Y46536D01*
G01X54616Y46491D01*
G01X54611Y46446D01*
G01X54608Y46400D01*
G01X54607Y46355D01*
G01X54608Y46309D01*
G01X54611Y46263D01*
G01X54616Y46218D01*
G01X54623Y46173D01*
G01X54632Y46128D01*
G01X54644Y46084D01*
G01X54657Y46040D01*
G01X54672Y45996D01*
G01X54689Y45954D01*
G01X54708Y45913D01*
G01X54728Y45872D01*
G01X54751Y45832D01*
G01X54776Y45793D01*
G01X54802Y45756D01*
G01X54829Y45720D01*
G01X54858Y45684D01*
G01X54889Y45650D01*
G01X54921Y45618D01*
G01X54955Y45587D01*
G01X54991Y45558D01*
G01X55027Y45531D01*
G01X55064Y45505D01*
G01X55103Y45480D01*
G01X55143Y45457D01*
G01X55184Y45437D01*
G01X55225Y45418D01*
G01X55267Y45401D01*
G01X55311Y45386D01*
G01X55355Y45373D01*
G01X55399Y45361D01*
G01X55444Y45352D01*
G01X55489Y45345D01*
G01X55534Y45340D01*
G01X55580Y45337D01*
G01X55626Y45336D01*
G01X55671Y45337D01*
G01X55717Y45340D01*
G01X55762Y45345D01*
G01X55807Y45352D01*
G01X55852Y45361D01*
G01X55896Y45373D01*
G01X55940Y45386D01*
G01X55984Y45401D01*
G01X56026Y45418D01*
G01X56067Y45437D01*
G01X56108Y45457D01*
G01X56148Y45480D01*
G01X56187Y45505D01*
G01X56224Y45531D01*
G01X56261Y45558D01*
G01X56296Y45587D01*
G01X56330Y45618D01*
G01X56362Y45650D01*
G01X56393Y45684D01*
G01X56422Y45720D01*
G01X56449Y45756D01*
G01X56475Y45793D01*
G01X56500Y45832D01*
G01X56523Y45872D01*
G01X56543Y45913D01*
G01X56562Y45954D01*
G01X56579Y45996D01*
G01X56594Y46040D01*
G01X56607Y46084D01*
G01X56619Y46128D01*
G01X56628Y46173D01*
G01X56635Y46218D01*
G01X56640Y46263D01*
G01X56643Y46309D01*
G01X56644Y46355D01*
G01X56643Y46400D01*
G01X56640Y46446D01*
G01X56635Y46491D01*
G01X56628Y46536D01*
G01X56619Y46581D01*
G01X56607Y46625D01*
G01X56594Y46669D01*
G01X56579Y46713D01*
G01X56562Y46755D01*
G01X56543Y46796D01*
G01X56523Y46837D01*
G01X56500Y46877D01*
G01X56475Y46916D01*
G01X56449Y46953D01*
G01X56422Y46990D01*
G01X56393Y47025D01*
G01X56362Y47059D01*
G01X56330Y47091D01*
G01X56296Y47122D01*
G01X56261Y47151D01*
G01X56224Y47178D01*
G01X56187Y47204D01*
G01X56148Y47229D01*
G01X56108Y47252D01*
G01X56067Y47272D01*
G01X56026Y47291D01*
G01X55984Y47308D01*
G01X55940Y47323D01*
G01X55896Y47336D01*
G01X55852Y47348D01*
G01X55807Y47357D01*
G01X55762Y47364D01*
G01X55717Y47369D01*
G01X55671Y47372D01*
G37*
G36*
G01X7411Y47372D02*
G01X7366Y47373D01*
G01X7320Y47372D01*
G01X7274Y47369D01*
G01X7229Y47364D01*
G01X7184Y47357D01*
G01X7139Y47348D01*
G01X7095Y47336D01*
G01X7051Y47323D01*
G01X7007Y47308D01*
G01X6965Y47291D01*
G01X6924Y47272D01*
G01X6883Y47252D01*
G01X6843Y47229D01*
G01X6804Y47204D01*
G01X6767Y47178D01*
G01X6731Y47151D01*
G01X6695Y47122D01*
G01X6661Y47091D01*
G01X6629Y47059D01*
G01X6598Y47025D01*
G01X6569Y46990D01*
G01X6542Y46953D01*
G01X6516Y46916D01*
G01X6491Y46877D01*
G01X6468Y46837D01*
G01X6448Y46796D01*
G01X6429Y46755D01*
G01X6412Y46713D01*
G01X6397Y46669D01*
G01X6384Y46625D01*
G01X6372Y46581D01*
G01X6363Y46536D01*
G01X6356Y46491D01*
G01X6351Y46446D01*
G01X6348Y46400D01*
G01X6347Y46355D01*
G01X6348Y46309D01*
G01X6351Y46263D01*
G01X6356Y46218D01*
G01X6363Y46173D01*
G01X6372Y46128D01*
G01X6384Y46084D01*
G01X6397Y46040D01*
G01X6412Y45996D01*
G01X6429Y45954D01*
G01X6448Y45913D01*
G01X6468Y45872D01*
G01X6491Y45832D01*
G01X6516Y45793D01*
G01X6542Y45756D01*
G01X6569Y45720D01*
G01X6598Y45684D01*
G01X6629Y45650D01*
G01X6661Y45618D01*
G01X6695Y45587D01*
G01X6731Y45558D01*
G01X6767Y45531D01*
G01X6804Y45505D01*
G01X6843Y45480D01*
G01X6883Y45457D01*
G01X6924Y45437D01*
G01X6965Y45418D01*
G01X7007Y45401D01*
G01X7051Y45386D01*
G01X7095Y45373D01*
G01X7139Y45361D01*
G01X7184Y45352D01*
G01X7229Y45345D01*
G01X7274Y45340D01*
G01X7320Y45337D01*
G01X7366Y45336D01*
G01X7411Y45337D01*
G01X7457Y45340D01*
G01X7502Y45345D01*
G01X7547Y45352D01*
G01X7592Y45361D01*
G01X7636Y45373D01*
G01X7680Y45386D01*
G01X7724Y45401D01*
G01X7766Y45418D01*
G01X7807Y45437D01*
G01X7848Y45457D01*
G01X7888Y45480D01*
G01X7927Y45505D01*
G01X7964Y45531D01*
G01X8001Y45558D01*
G01X8036Y45587D01*
G01X8070Y45618D01*
G01X8102Y45650D01*
G01X8133Y45684D01*
G01X8162Y45720D01*
G01X8189Y45756D01*
G01X8215Y45793D01*
G01X8240Y45832D01*
G01X8263Y45872D01*
G01X8283Y45913D01*
G01X8302Y45954D01*
G01X8319Y45996D01*
G01X8334Y46040D01*
G01X8347Y46084D01*
G01X8359Y46128D01*
G01X8368Y46173D01*
G01X8375Y46218D01*
G01X8380Y46263D01*
G01X8383Y46309D01*
G01X8384Y46355D01*
G01X8383Y46400D01*
G01X8380Y46446D01*
G01X8375Y46491D01*
G01X8368Y46536D01*
G01X8359Y46581D01*
G01X8347Y46625D01*
G01X8334Y46669D01*
G01X8319Y46713D01*
G01X8302Y46755D01*
G01X8283Y46796D01*
G01X8263Y46837D01*
G01X8240Y46877D01*
G01X8215Y46916D01*
G01X8189Y46953D01*
G01X8162Y46990D01*
G01X8133Y47025D01*
G01X8102Y47059D01*
G01X8070Y47091D01*
G01X8036Y47122D01*
G01X8001Y47151D01*
G01X7964Y47178D01*
G01X7927Y47204D01*
G01X7888Y47229D01*
G01X7848Y47252D01*
G01X7807Y47272D01*
G01X7766Y47291D01*
G01X7724Y47308D01*
G01X7680Y47323D01*
G01X7636Y47336D01*
G01X7592Y47348D01*
G01X7547Y47357D01*
G01X7502Y47364D01*
G01X7457Y47369D01*
G01X7411Y47372D01*
G37*
G36*
G01X40431Y47372D02*
G01X40386Y47373D01*
G01X40340Y47372D01*
G01X40294Y47369D01*
G01X40249Y47364D01*
G01X40204Y47357D01*
G01X40159Y47348D01*
G01X40115Y47336D01*
G01X40071Y47323D01*
G01X40027Y47308D01*
G01X39985Y47291D01*
G01X39944Y47272D01*
G01X39903Y47252D01*
G01X39863Y47229D01*
G01X39824Y47204D01*
G01X39787Y47178D01*
G01X39751Y47151D01*
G01X39715Y47122D01*
G01X39681Y47091D01*
G01X39649Y47059D01*
G01X39618Y47025D01*
G01X39589Y46990D01*
G01X39562Y46953D01*
G01X39536Y46916D01*
G01X39511Y46877D01*
G01X39488Y46837D01*
G01X39468Y46796D01*
G01X39449Y46755D01*
G01X39432Y46713D01*
G01X39417Y46669D01*
G01X39404Y46625D01*
G01X39392Y46581D01*
G01X39383Y46536D01*
G01X39376Y46491D01*
G01X39371Y46446D01*
G01X39368Y46400D01*
G01X39367Y46355D01*
G01X39368Y46309D01*
G01X39371Y46263D01*
G01X39376Y46218D01*
G01X39383Y46173D01*
G01X39392Y46128D01*
G01X39404Y46084D01*
G01X39417Y46040D01*
G01X39432Y45996D01*
G01X39449Y45954D01*
G01X39468Y45913D01*
G01X39488Y45872D01*
G01X39511Y45832D01*
G01X39536Y45793D01*
G01X39562Y45756D01*
G01X39589Y45720D01*
G01X39618Y45684D01*
G01X39649Y45650D01*
G01X39681Y45618D01*
G01X39715Y45587D01*
G01X39751Y45558D01*
G01X39787Y45531D01*
G01X39824Y45505D01*
G01X39863Y45480D01*
G01X39903Y45457D01*
G01X39944Y45437D01*
G01X39985Y45418D01*
G01X40027Y45401D01*
G01X40071Y45386D01*
G01X40115Y45373D01*
G01X40159Y45361D01*
G01X40204Y45352D01*
G01X40249Y45345D01*
G01X40294Y45340D01*
G01X40340Y45337D01*
G01X40386Y45336D01*
G01X40431Y45337D01*
G01X40477Y45340D01*
G01X40522Y45345D01*
G01X40567Y45352D01*
G01X40612Y45361D01*
G01X40656Y45373D01*
G01X40700Y45386D01*
G01X40744Y45401D01*
G01X40786Y45418D01*
G01X40827Y45437D01*
G01X40868Y45457D01*
G01X40908Y45480D01*
G01X40947Y45505D01*
G01X40984Y45531D01*
G01X41021Y45558D01*
G01X41056Y45587D01*
G01X41090Y45618D01*
G01X41122Y45650D01*
G01X41153Y45684D01*
G01X41182Y45720D01*
G01X41209Y45756D01*
G01X41235Y45793D01*
G01X41260Y45832D01*
G01X41283Y45872D01*
G01X41303Y45913D01*
G01X41322Y45954D01*
G01X41339Y45996D01*
G01X41354Y46040D01*
G01X41367Y46084D01*
G01X41379Y46128D01*
G01X41388Y46173D01*
G01X41395Y46218D01*
G01X41400Y46263D01*
G01X41403Y46309D01*
G01X41404Y46355D01*
G01X41403Y46400D01*
G01X41400Y46446D01*
G01X41395Y46491D01*
G01X41388Y46536D01*
G01X41379Y46581D01*
G01X41367Y46625D01*
G01X41354Y46669D01*
G01X41339Y46713D01*
G01X41322Y46755D01*
G01X41303Y46796D01*
G01X41283Y46837D01*
G01X41260Y46877D01*
G01X41235Y46916D01*
G01X41209Y46953D01*
G01X41182Y46990D01*
G01X41153Y47025D01*
G01X41122Y47059D01*
G01X41090Y47091D01*
G01X41056Y47122D01*
G01X41021Y47151D01*
G01X40984Y47178D01*
G01X40947Y47204D01*
G01X40908Y47229D01*
G01X40868Y47252D01*
G01X40827Y47272D01*
G01X40786Y47291D01*
G01X40744Y47308D01*
G01X40700Y47323D01*
G01X40656Y47336D01*
G01X40612Y47348D01*
G01X40567Y47357D01*
G01X40522Y47364D01*
G01X40477Y47369D01*
G01X40431Y47372D01*
G37*
G36*
G01X58211Y47372D02*
G01X58166Y47373D01*
G01X58120Y47372D01*
G01X58074Y47369D01*
G01X58029Y47364D01*
G01X57984Y47357D01*
G01X57939Y47348D01*
G01X57895Y47336D01*
G01X57851Y47323D01*
G01X57807Y47308D01*
G01X57765Y47291D01*
G01X57724Y47272D01*
G01X57683Y47252D01*
G01X57643Y47229D01*
G01X57604Y47204D01*
G01X57567Y47178D01*
G01X57531Y47151D01*
G01X57495Y47122D01*
G01X57461Y47091D01*
G01X57429Y47059D01*
G01X57398Y47025D01*
G01X57369Y46990D01*
G01X57342Y46953D01*
G01X57316Y46916D01*
G01X57291Y46877D01*
G01X57268Y46837D01*
G01X57248Y46796D01*
G01X57229Y46755D01*
G01X57212Y46713D01*
G01X57197Y46669D01*
G01X57184Y46625D01*
G01X57172Y46581D01*
G01X57163Y46536D01*
G01X57156Y46491D01*
G01X57151Y46446D01*
G01X57148Y46400D01*
G01X57147Y46355D01*
G01X57148Y46309D01*
G01X57151Y46263D01*
G01X57156Y46218D01*
G01X57163Y46173D01*
G01X57172Y46128D01*
G01X57184Y46084D01*
G01X57197Y46040D01*
G01X57212Y45996D01*
G01X57229Y45954D01*
G01X57248Y45913D01*
G01X57268Y45872D01*
G01X57291Y45832D01*
G01X57316Y45793D01*
G01X57342Y45756D01*
G01X57369Y45720D01*
G01X57398Y45684D01*
G01X57429Y45650D01*
G01X57461Y45618D01*
G01X57495Y45587D01*
G01X57531Y45558D01*
G01X57567Y45531D01*
G01X57604Y45505D01*
G01X57643Y45480D01*
G01X57683Y45457D01*
G01X57724Y45437D01*
G01X57765Y45418D01*
G01X57807Y45401D01*
G01X57851Y45386D01*
G01X57895Y45373D01*
G01X57939Y45361D01*
G01X57984Y45352D01*
G01X58029Y45345D01*
G01X58074Y45340D01*
G01X58120Y45337D01*
G01X58166Y45336D01*
G01X58211Y45337D01*
G01X58257Y45340D01*
G01X58302Y45345D01*
G01X58347Y45352D01*
G01X58392Y45361D01*
G01X58436Y45373D01*
G01X58480Y45386D01*
G01X58524Y45401D01*
G01X58566Y45418D01*
G01X58607Y45437D01*
G01X58648Y45457D01*
G01X58688Y45480D01*
G01X58727Y45505D01*
G01X58764Y45531D01*
G01X58801Y45558D01*
G01X58836Y45587D01*
G01X58870Y45618D01*
G01X58902Y45650D01*
G01X58933Y45684D01*
G01X58962Y45720D01*
G01X58989Y45756D01*
G01X59015Y45793D01*
G01X59040Y45832D01*
G01X59063Y45872D01*
G01X59083Y45913D01*
G01X59102Y45954D01*
G01X59119Y45996D01*
G01X59134Y46040D01*
G01X59147Y46084D01*
G01X59159Y46128D01*
G01X59168Y46173D01*
G01X59175Y46218D01*
G01X59180Y46263D01*
G01X59183Y46309D01*
G01X59184Y46355D01*
G01X59183Y46400D01*
G01X59180Y46446D01*
G01X59175Y46491D01*
G01X59168Y46536D01*
G01X59159Y46581D01*
G01X59147Y46625D01*
G01X59134Y46669D01*
G01X59119Y46713D01*
G01X59102Y46755D01*
G01X59083Y46796D01*
G01X59063Y46837D01*
G01X59040Y46877D01*
G01X59015Y46916D01*
G01X58989Y46953D01*
G01X58962Y46990D01*
G01X58933Y47025D01*
G01X58902Y47059D01*
G01X58870Y47091D01*
G01X58836Y47122D01*
G01X58801Y47151D01*
G01X58764Y47178D01*
G01X58727Y47204D01*
G01X58688Y47229D01*
G01X58648Y47252D01*
G01X58607Y47272D01*
G01X58566Y47291D01*
G01X58524Y47308D01*
G01X58480Y47323D01*
G01X58436Y47336D01*
G01X58392Y47348D01*
G01X58347Y47357D01*
G01X58302Y47364D01*
G01X58257Y47369D01*
G01X58211Y47372D01*
G37*
G36*
G01X4871Y47372D02*
G01X4826Y47373D01*
G01X4780Y47372D01*
G01X4734Y47369D01*
G01X4689Y47364D01*
G01X4644Y47357D01*
G01X4599Y47348D01*
G01X4555Y47336D01*
G01X4511Y47323D01*
G01X4467Y47308D01*
G01X4425Y47291D01*
G01X4384Y47272D01*
G01X4343Y47252D01*
G01X4303Y47229D01*
G01X4264Y47204D01*
G01X4227Y47178D01*
G01X4191Y47151D01*
G01X4155Y47122D01*
G01X4121Y47091D01*
G01X4089Y47059D01*
G01X4058Y47025D01*
G01X4029Y46990D01*
G01X4002Y46953D01*
G01X3976Y46916D01*
G01X3951Y46877D01*
G01X3928Y46837D01*
G01X3908Y46796D01*
G01X3889Y46755D01*
G01X3872Y46713D01*
G01X3857Y46669D01*
G01X3844Y46625D01*
G01X3832Y46581D01*
G01X3823Y46536D01*
G01X3816Y46491D01*
G01X3811Y46446D01*
G01X3808Y46400D01*
G01X3807Y46355D01*
G01X3808Y46309D01*
G01X3811Y46263D01*
G01X3816Y46218D01*
G01X3823Y46173D01*
G01X3832Y46128D01*
G01X3844Y46084D01*
G01X3857Y46040D01*
G01X3872Y45996D01*
G01X3889Y45954D01*
G01X3908Y45913D01*
G01X3928Y45872D01*
G01X3951Y45832D01*
G01X3976Y45793D01*
G01X4002Y45756D01*
G01X4029Y45720D01*
G01X4058Y45684D01*
G01X4089Y45650D01*
G01X4121Y45618D01*
G01X4155Y45587D01*
G01X4191Y45558D01*
G01X4227Y45531D01*
G01X4264Y45505D01*
G01X4303Y45480D01*
G01X4343Y45457D01*
G01X4384Y45437D01*
G01X4425Y45418D01*
G01X4467Y45401D01*
G01X4511Y45386D01*
G01X4555Y45373D01*
G01X4599Y45361D01*
G01X4644Y45352D01*
G01X4689Y45345D01*
G01X4734Y45340D01*
G01X4780Y45337D01*
G01X4826Y45336D01*
G01X4871Y45337D01*
G01X4917Y45340D01*
G01X4962Y45345D01*
G01X5007Y45352D01*
G01X5052Y45361D01*
G01X5096Y45373D01*
G01X5140Y45386D01*
G01X5184Y45401D01*
G01X5226Y45418D01*
G01X5267Y45437D01*
G01X5308Y45457D01*
G01X5348Y45480D01*
G01X5387Y45505D01*
G01X5424Y45531D01*
G01X5461Y45558D01*
G01X5496Y45587D01*
G01X5530Y45618D01*
G01X5562Y45650D01*
G01X5593Y45684D01*
G01X5622Y45720D01*
G01X5649Y45756D01*
G01X5675Y45793D01*
G01X5700Y45832D01*
G01X5723Y45872D01*
G01X5743Y45913D01*
G01X5762Y45954D01*
G01X5779Y45996D01*
G01X5794Y46040D01*
G01X5807Y46084D01*
G01X5819Y46128D01*
G01X5828Y46173D01*
G01X5835Y46218D01*
G01X5840Y46263D01*
G01X5843Y46309D01*
G01X5844Y46355D01*
G01X5843Y46400D01*
G01X5840Y46446D01*
G01X5835Y46491D01*
G01X5828Y46536D01*
G01X5819Y46581D01*
G01X5807Y46625D01*
G01X5794Y46669D01*
G01X5779Y46713D01*
G01X5762Y46755D01*
G01X5743Y46796D01*
G01X5723Y46837D01*
G01X5700Y46877D01*
G01X5675Y46916D01*
G01X5649Y46953D01*
G01X5622Y46990D01*
G01X5593Y47025D01*
G01X5562Y47059D01*
G01X5530Y47091D01*
G01X5496Y47122D01*
G01X5461Y47151D01*
G01X5424Y47178D01*
G01X5387Y47204D01*
G01X5348Y47229D01*
G01X5308Y47252D01*
G01X5267Y47272D01*
G01X5226Y47291D01*
G01X5184Y47308D01*
G01X5140Y47323D01*
G01X5096Y47336D01*
G01X5052Y47348D01*
G01X5007Y47357D01*
G01X4962Y47364D01*
G01X4917Y47369D01*
G01X4871Y47372D01*
G37*
G36*
G01X25191Y47372D02*
G01X25146Y47373D01*
G01X25100Y47372D01*
G01X25054Y47369D01*
G01X25009Y47364D01*
G01X24964Y47357D01*
G01X24919Y47348D01*
G01X24875Y47336D01*
G01X24831Y47323D01*
G01X24787Y47308D01*
G01X24745Y47291D01*
G01X24704Y47272D01*
G01X24663Y47252D01*
G01X24623Y47229D01*
G01X24584Y47204D01*
G01X24547Y47178D01*
G01X24511Y47151D01*
G01X24475Y47122D01*
G01X24441Y47091D01*
G01X24409Y47059D01*
G01X24378Y47025D01*
G01X24349Y46990D01*
G01X24322Y46953D01*
G01X24296Y46916D01*
G01X24271Y46877D01*
G01X24248Y46837D01*
G01X24228Y46796D01*
G01X24209Y46755D01*
G01X24192Y46713D01*
G01X24177Y46669D01*
G01X24164Y46625D01*
G01X24152Y46581D01*
G01X24143Y46536D01*
G01X24136Y46491D01*
G01X24131Y46446D01*
G01X24128Y46400D01*
G01X24127Y46355D01*
G01X24128Y46309D01*
G01X24131Y46263D01*
G01X24136Y46218D01*
G01X24143Y46173D01*
G01X24152Y46128D01*
G01X24164Y46084D01*
G01X24177Y46040D01*
G01X24192Y45996D01*
G01X24209Y45954D01*
G01X24228Y45913D01*
G01X24248Y45872D01*
G01X24271Y45832D01*
G01X24296Y45793D01*
G01X24322Y45756D01*
G01X24349Y45720D01*
G01X24378Y45684D01*
G01X24409Y45650D01*
G01X24441Y45618D01*
G01X24475Y45587D01*
G01X24511Y45558D01*
G01X24547Y45531D01*
G01X24584Y45505D01*
G01X24623Y45480D01*
G01X24663Y45457D01*
G01X24704Y45437D01*
G01X24745Y45418D01*
G01X24787Y45401D01*
G01X24831Y45386D01*
G01X24875Y45373D01*
G01X24919Y45361D01*
G01X24964Y45352D01*
G01X25009Y45345D01*
G01X25054Y45340D01*
G01X25100Y45337D01*
G01X25146Y45336D01*
G01X25191Y45337D01*
G01X25237Y45340D01*
G01X25282Y45345D01*
G01X25327Y45352D01*
G01X25372Y45361D01*
G01X25416Y45373D01*
G01X25460Y45386D01*
G01X25504Y45401D01*
G01X25546Y45418D01*
G01X25587Y45437D01*
G01X25628Y45457D01*
G01X25668Y45480D01*
G01X25707Y45505D01*
G01X25744Y45531D01*
G01X25781Y45558D01*
G01X25816Y45587D01*
G01X25850Y45618D01*
G01X25882Y45650D01*
G01X25913Y45684D01*
G01X25942Y45720D01*
G01X25969Y45756D01*
G01X25995Y45793D01*
G01X26020Y45832D01*
G01X26043Y45872D01*
G01X26063Y45913D01*
G01X26082Y45954D01*
G01X26099Y45996D01*
G01X26114Y46040D01*
G01X26127Y46084D01*
G01X26139Y46128D01*
G01X26148Y46173D01*
G01X26155Y46218D01*
G01X26160Y46263D01*
G01X26163Y46309D01*
G01X26164Y46355D01*
G01X26163Y46400D01*
G01X26160Y46446D01*
G01X26155Y46491D01*
G01X26148Y46536D01*
G01X26139Y46581D01*
G01X26127Y46625D01*
G01X26114Y46669D01*
G01X26099Y46713D01*
G01X26082Y46755D01*
G01X26063Y46796D01*
G01X26043Y46837D01*
G01X26020Y46877D01*
G01X25995Y46916D01*
G01X25969Y46953D01*
G01X25942Y46990D01*
G01X25913Y47025D01*
G01X25882Y47059D01*
G01X25850Y47091D01*
G01X25816Y47122D01*
G01X25781Y47151D01*
G01X25744Y47178D01*
G01X25707Y47204D01*
G01X25668Y47229D01*
G01X25628Y47252D01*
G01X25587Y47272D01*
G01X25546Y47291D01*
G01X25504Y47308D01*
G01X25460Y47323D01*
G01X25416Y47336D01*
G01X25372Y47348D01*
G01X25327Y47357D01*
G01X25282Y47364D01*
G01X25237Y47369D01*
G01X25191Y47372D01*
G37*
G36*
G01X37891Y47372D02*
G01X37846Y47373D01*
G01X37800Y47372D01*
G01X37754Y47369D01*
G01X37709Y47364D01*
G01X37664Y47357D01*
G01X37619Y47348D01*
G01X37575Y47336D01*
G01X37531Y47323D01*
G01X37487Y47308D01*
G01X37445Y47291D01*
G01X37404Y47272D01*
G01X37363Y47252D01*
G01X37323Y47229D01*
G01X37284Y47204D01*
G01X37247Y47178D01*
G01X37211Y47151D01*
G01X37175Y47122D01*
G01X37141Y47091D01*
G01X37109Y47059D01*
G01X37078Y47025D01*
G01X37049Y46990D01*
G01X37022Y46953D01*
G01X36996Y46916D01*
G01X36971Y46877D01*
G01X36948Y46837D01*
G01X36928Y46796D01*
G01X36909Y46755D01*
G01X36892Y46713D01*
G01X36877Y46669D01*
G01X36864Y46625D01*
G01X36852Y46581D01*
G01X36843Y46536D01*
G01X36836Y46491D01*
G01X36831Y46446D01*
G01X36828Y46400D01*
G01X36827Y46355D01*
G01X36828Y46309D01*
G01X36831Y46263D01*
G01X36836Y46218D01*
G01X36843Y46173D01*
G01X36852Y46128D01*
G01X36864Y46084D01*
G01X36877Y46040D01*
G01X36892Y45996D01*
G01X36909Y45954D01*
G01X36928Y45913D01*
G01X36948Y45872D01*
G01X36971Y45832D01*
G01X36996Y45793D01*
G01X37022Y45756D01*
G01X37049Y45720D01*
G01X37078Y45684D01*
G01X37109Y45650D01*
G01X37141Y45618D01*
G01X37175Y45587D01*
G01X37211Y45558D01*
G01X37247Y45531D01*
G01X37284Y45505D01*
G01X37323Y45480D01*
G01X37363Y45457D01*
G01X37404Y45437D01*
G01X37445Y45418D01*
G01X37487Y45401D01*
G01X37531Y45386D01*
G01X37575Y45373D01*
G01X37619Y45361D01*
G01X37664Y45352D01*
G01X37709Y45345D01*
G01X37754Y45340D01*
G01X37800Y45337D01*
G01X37846Y45336D01*
G01X37891Y45337D01*
G01X37937Y45340D01*
G01X37982Y45345D01*
G01X38027Y45352D01*
G01X38072Y45361D01*
G01X38116Y45373D01*
G01X38160Y45386D01*
G01X38204Y45401D01*
G01X38246Y45418D01*
G01X38287Y45437D01*
G01X38328Y45457D01*
G01X38368Y45480D01*
G01X38407Y45505D01*
G01X38444Y45531D01*
G01X38481Y45558D01*
G01X38516Y45587D01*
G01X38550Y45618D01*
G01X38582Y45650D01*
G01X38613Y45684D01*
G01X38642Y45720D01*
G01X38669Y45756D01*
G01X38695Y45793D01*
G01X38720Y45832D01*
G01X38743Y45872D01*
G01X38763Y45913D01*
G01X38782Y45954D01*
G01X38799Y45996D01*
G01X38814Y46040D01*
G01X38827Y46084D01*
G01X38839Y46128D01*
G01X38848Y46173D01*
G01X38855Y46218D01*
G01X38860Y46263D01*
G01X38863Y46309D01*
G01X38864Y46355D01*
G01X38863Y46400D01*
G01X38860Y46446D01*
G01X38855Y46491D01*
G01X38848Y46536D01*
G01X38839Y46581D01*
G01X38827Y46625D01*
G01X38814Y46669D01*
G01X38799Y46713D01*
G01X38782Y46755D01*
G01X38763Y46796D01*
G01X38743Y46837D01*
G01X38720Y46877D01*
G01X38695Y46916D01*
G01X38669Y46953D01*
G01X38642Y46990D01*
G01X38613Y47025D01*
G01X38582Y47059D01*
G01X38550Y47091D01*
G01X38516Y47122D01*
G01X38481Y47151D01*
G01X38444Y47178D01*
G01X38407Y47204D01*
G01X38368Y47229D01*
G01X38328Y47252D01*
G01X38287Y47272D01*
G01X38246Y47291D01*
G01X38204Y47308D01*
G01X38160Y47323D01*
G01X38116Y47336D01*
G01X38072Y47348D01*
G01X38027Y47357D01*
G01X37982Y47364D01*
G01X37937Y47369D01*
G01X37891Y47372D01*
G37*
G36*
G01X42971Y47372D02*
G01X42926Y47373D01*
G01X42880Y47372D01*
G01X42834Y47369D01*
G01X42789Y47364D01*
G01X42744Y47357D01*
G01X42699Y47348D01*
G01X42655Y47336D01*
G01X42611Y47323D01*
G01X42567Y47308D01*
G01X42525Y47291D01*
G01X42484Y47272D01*
G01X42443Y47252D01*
G01X42403Y47229D01*
G01X42364Y47204D01*
G01X42327Y47178D01*
G01X42291Y47151D01*
G01X42255Y47122D01*
G01X42221Y47091D01*
G01X42189Y47059D01*
G01X42158Y47025D01*
G01X42129Y46990D01*
G01X42102Y46953D01*
G01X42076Y46916D01*
G01X42051Y46877D01*
G01X42028Y46837D01*
G01X42008Y46796D01*
G01X41989Y46755D01*
G01X41972Y46713D01*
G01X41957Y46669D01*
G01X41944Y46625D01*
G01X41932Y46581D01*
G01X41923Y46536D01*
G01X41916Y46491D01*
G01X41911Y46446D01*
G01X41908Y46400D01*
G01X41907Y46355D01*
G01X41908Y46309D01*
G01X41911Y46263D01*
G01X41916Y46218D01*
G01X41923Y46173D01*
G01X41932Y46128D01*
G01X41944Y46084D01*
G01X41957Y46040D01*
G01X41972Y45996D01*
G01X41989Y45954D01*
G01X42008Y45913D01*
G01X42028Y45872D01*
G01X42051Y45832D01*
G01X42076Y45793D01*
G01X42102Y45756D01*
G01X42129Y45720D01*
G01X42158Y45684D01*
G01X42189Y45650D01*
G01X42221Y45618D01*
G01X42255Y45587D01*
G01X42291Y45558D01*
G01X42327Y45531D01*
G01X42364Y45505D01*
G01X42403Y45480D01*
G01X42443Y45457D01*
G01X42484Y45437D01*
G01X42525Y45418D01*
G01X42567Y45401D01*
G01X42611Y45386D01*
G01X42655Y45373D01*
G01X42699Y45361D01*
G01X42744Y45352D01*
G01X42789Y45345D01*
G01X42834Y45340D01*
G01X42880Y45337D01*
G01X42926Y45336D01*
G01X42971Y45337D01*
G01X43017Y45340D01*
G01X43062Y45345D01*
G01X43107Y45352D01*
G01X43152Y45361D01*
G01X43196Y45373D01*
G01X43240Y45386D01*
G01X43284Y45401D01*
G01X43326Y45418D01*
G01X43367Y45437D01*
G01X43408Y45457D01*
G01X43448Y45480D01*
G01X43487Y45505D01*
G01X43524Y45531D01*
G01X43561Y45558D01*
G01X43596Y45587D01*
G01X43630Y45618D01*
G01X43662Y45650D01*
G01X43693Y45684D01*
G01X43722Y45720D01*
G01X43749Y45756D01*
G01X43775Y45793D01*
G01X43800Y45832D01*
G01X43823Y45872D01*
G01X43843Y45913D01*
G01X43862Y45954D01*
G01X43879Y45996D01*
G01X43894Y46040D01*
G01X43907Y46084D01*
G01X43919Y46128D01*
G01X43928Y46173D01*
G01X43935Y46218D01*
G01X43940Y46263D01*
G01X43943Y46309D01*
G01X43944Y46355D01*
G01X43943Y46400D01*
G01X43940Y46446D01*
G01X43935Y46491D01*
G01X43928Y46536D01*
G01X43919Y46581D01*
G01X43907Y46625D01*
G01X43894Y46669D01*
G01X43879Y46713D01*
G01X43862Y46755D01*
G01X43843Y46796D01*
G01X43823Y46837D01*
G01X43800Y46877D01*
G01X43775Y46916D01*
G01X43749Y46953D01*
G01X43722Y46990D01*
G01X43693Y47025D01*
G01X43662Y47059D01*
G01X43630Y47091D01*
G01X43596Y47122D01*
G01X43561Y47151D01*
G01X43524Y47178D01*
G01X43487Y47204D01*
G01X43448Y47229D01*
G01X43408Y47252D01*
G01X43367Y47272D01*
G01X43326Y47291D01*
G01X43284Y47308D01*
G01X43240Y47323D01*
G01X43196Y47336D01*
G01X43152Y47348D01*
G01X43107Y47357D01*
G01X43062Y47364D01*
G01X43017Y47369D01*
G01X42971Y47372D01*
G37*
G36*
G01X27731Y47372D02*
G01X27686Y47373D01*
G01X27640Y47372D01*
G01X27594Y47369D01*
G01X27549Y47364D01*
G01X27504Y47357D01*
G01X27459Y47348D01*
G01X27415Y47336D01*
G01X27371Y47323D01*
G01X27327Y47308D01*
G01X27285Y47291D01*
G01X27244Y47272D01*
G01X27203Y47252D01*
G01X27163Y47229D01*
G01X27124Y47204D01*
G01X27087Y47178D01*
G01X27051Y47151D01*
G01X27015Y47122D01*
G01X26981Y47091D01*
G01X26949Y47059D01*
G01X26918Y47025D01*
G01X26889Y46990D01*
G01X26862Y46953D01*
G01X26836Y46916D01*
G01X26811Y46877D01*
G01X26788Y46837D01*
G01X26768Y46796D01*
G01X26749Y46755D01*
G01X26732Y46713D01*
G01X26717Y46669D01*
G01X26704Y46625D01*
G01X26692Y46581D01*
G01X26683Y46536D01*
G01X26676Y46491D01*
G01X26671Y46446D01*
G01X26668Y46400D01*
G01X26667Y46355D01*
G01X26668Y46309D01*
G01X26671Y46263D01*
G01X26676Y46218D01*
G01X26683Y46173D01*
G01X26692Y46128D01*
G01X26704Y46084D01*
G01X26717Y46040D01*
G01X26732Y45996D01*
G01X26749Y45954D01*
G01X26768Y45913D01*
G01X26788Y45872D01*
G01X26811Y45832D01*
G01X26836Y45793D01*
G01X26862Y45756D01*
G01X26889Y45720D01*
G01X26918Y45684D01*
G01X26949Y45650D01*
G01X26981Y45618D01*
G01X27015Y45587D01*
G01X27051Y45558D01*
G01X27087Y45531D01*
G01X27124Y45505D01*
G01X27163Y45480D01*
G01X27203Y45457D01*
G01X27244Y45437D01*
G01X27285Y45418D01*
G01X27327Y45401D01*
G01X27371Y45386D01*
G01X27415Y45373D01*
G01X27459Y45361D01*
G01X27504Y45352D01*
G01X27549Y45345D01*
G01X27594Y45340D01*
G01X27640Y45337D01*
G01X27686Y45336D01*
G01X27731Y45337D01*
G01X27777Y45340D01*
G01X27822Y45345D01*
G01X27867Y45352D01*
G01X27912Y45361D01*
G01X27956Y45373D01*
G01X28000Y45386D01*
G01X28044Y45401D01*
G01X28086Y45418D01*
G01X28127Y45437D01*
G01X28168Y45457D01*
G01X28208Y45480D01*
G01X28247Y45505D01*
G01X28284Y45531D01*
G01X28321Y45558D01*
G01X28356Y45587D01*
G01X28390Y45618D01*
G01X28422Y45650D01*
G01X28453Y45684D01*
G01X28482Y45720D01*
G01X28509Y45756D01*
G01X28535Y45793D01*
G01X28560Y45832D01*
G01X28583Y45872D01*
G01X28603Y45913D01*
G01X28622Y45954D01*
G01X28639Y45996D01*
G01X28654Y46040D01*
G01X28667Y46084D01*
G01X28679Y46128D01*
G01X28688Y46173D01*
G01X28695Y46218D01*
G01X28700Y46263D01*
G01X28703Y46309D01*
G01X28704Y46355D01*
G01X28703Y46400D01*
G01X28700Y46446D01*
G01X28695Y46491D01*
G01X28688Y46536D01*
G01X28679Y46581D01*
G01X28667Y46625D01*
G01X28654Y46669D01*
G01X28639Y46713D01*
G01X28622Y46755D01*
G01X28603Y46796D01*
G01X28583Y46837D01*
G01X28560Y46877D01*
G01X28535Y46916D01*
G01X28509Y46953D01*
G01X28482Y46990D01*
G01X28453Y47025D01*
G01X28422Y47059D01*
G01X28390Y47091D01*
G01X28356Y47122D01*
G01X28321Y47151D01*
G01X28284Y47178D01*
G01X28247Y47204D01*
G01X28208Y47229D01*
G01X28168Y47252D01*
G01X28127Y47272D01*
G01X28086Y47291D01*
G01X28044Y47308D01*
G01X28000Y47323D01*
G01X27956Y47336D01*
G01X27912Y47348D01*
G01X27867Y47357D01*
G01X27822Y47364D01*
G01X27777Y47369D01*
G01X27731Y47372D01*
G37*
G36*
G01X35351Y47372D02*
G01X35306Y47373D01*
G01X35260Y47372D01*
G01X35214Y47369D01*
G01X35169Y47364D01*
G01X35124Y47357D01*
G01X35079Y47348D01*
G01X35035Y47336D01*
G01X34991Y47323D01*
G01X34947Y47308D01*
G01X34905Y47291D01*
G01X34864Y47272D01*
G01X34823Y47252D01*
G01X34783Y47229D01*
G01X34744Y47204D01*
G01X34707Y47178D01*
G01X34671Y47151D01*
G01X34635Y47122D01*
G01X34601Y47091D01*
G01X34569Y47059D01*
G01X34538Y47025D01*
G01X34509Y46990D01*
G01X34482Y46953D01*
G01X34456Y46916D01*
G01X34431Y46877D01*
G01X34408Y46837D01*
G01X34388Y46796D01*
G01X34369Y46755D01*
G01X34352Y46713D01*
G01X34337Y46669D01*
G01X34324Y46625D01*
G01X34312Y46581D01*
G01X34303Y46536D01*
G01X34296Y46491D01*
G01X34291Y46446D01*
G01X34288Y46400D01*
G01X34287Y46355D01*
G01X34288Y46309D01*
G01X34291Y46263D01*
G01X34296Y46218D01*
G01X34303Y46173D01*
G01X34312Y46128D01*
G01X34324Y46084D01*
G01X34337Y46040D01*
G01X34352Y45996D01*
G01X34369Y45954D01*
G01X34388Y45913D01*
G01X34408Y45872D01*
G01X34431Y45832D01*
G01X34456Y45793D01*
G01X34482Y45756D01*
G01X34509Y45720D01*
G01X34538Y45684D01*
G01X34569Y45650D01*
G01X34601Y45618D01*
G01X34635Y45587D01*
G01X34671Y45558D01*
G01X34707Y45531D01*
G01X34744Y45505D01*
G01X34783Y45480D01*
G01X34823Y45457D01*
G01X34864Y45437D01*
G01X34905Y45418D01*
G01X34947Y45401D01*
G01X34991Y45386D01*
G01X35035Y45373D01*
G01X35079Y45361D01*
G01X35124Y45352D01*
G01X35169Y45345D01*
G01X35214Y45340D01*
G01X35260Y45337D01*
G01X35306Y45336D01*
G01X35351Y45337D01*
G01X35397Y45340D01*
G01X35442Y45345D01*
G01X35487Y45352D01*
G01X35532Y45361D01*
G01X35576Y45373D01*
G01X35620Y45386D01*
G01X35664Y45401D01*
G01X35706Y45418D01*
G01X35747Y45437D01*
G01X35788Y45457D01*
G01X35828Y45480D01*
G01X35867Y45505D01*
G01X35904Y45531D01*
G01X35941Y45558D01*
G01X35976Y45587D01*
G01X36010Y45618D01*
G01X36042Y45650D01*
G01X36073Y45684D01*
G01X36102Y45720D01*
G01X36129Y45756D01*
G01X36155Y45793D01*
G01X36180Y45832D01*
G01X36203Y45872D01*
G01X36223Y45913D01*
G01X36242Y45954D01*
G01X36259Y45996D01*
G01X36274Y46040D01*
G01X36287Y46084D01*
G01X36299Y46128D01*
G01X36308Y46173D01*
G01X36315Y46218D01*
G01X36320Y46263D01*
G01X36323Y46309D01*
G01X36324Y46355D01*
G01X36323Y46400D01*
G01X36320Y46446D01*
G01X36315Y46491D01*
G01X36308Y46536D01*
G01X36299Y46581D01*
G01X36287Y46625D01*
G01X36274Y46669D01*
G01X36259Y46713D01*
G01X36242Y46755D01*
G01X36223Y46796D01*
G01X36203Y46837D01*
G01X36180Y46877D01*
G01X36155Y46916D01*
G01X36129Y46953D01*
G01X36102Y46990D01*
G01X36073Y47025D01*
G01X36042Y47059D01*
G01X36010Y47091D01*
G01X35976Y47122D01*
G01X35941Y47151D01*
G01X35904Y47178D01*
G01X35867Y47204D01*
G01X35828Y47229D01*
G01X35788Y47252D01*
G01X35747Y47272D01*
G01X35706Y47291D01*
G01X35664Y47308D01*
G01X35620Y47323D01*
G01X35576Y47336D01*
G01X35532Y47348D01*
G01X35487Y47357D01*
G01X35442Y47364D01*
G01X35397Y47369D01*
G01X35351Y47372D01*
G37*
G36*
G01X30271Y47372D02*
G01X30226Y47373D01*
G01X30180Y47372D01*
G01X30134Y47369D01*
G01X30089Y47364D01*
G01X30044Y47357D01*
G01X29999Y47348D01*
G01X29955Y47336D01*
G01X29911Y47323D01*
G01X29867Y47308D01*
G01X29825Y47291D01*
G01X29784Y47272D01*
G01X29743Y47252D01*
G01X29703Y47229D01*
G01X29664Y47204D01*
G01X29627Y47178D01*
G01X29591Y47151D01*
G01X29555Y47122D01*
G01X29521Y47091D01*
G01X29489Y47059D01*
G01X29458Y47025D01*
G01X29429Y46990D01*
G01X29402Y46953D01*
G01X29376Y46916D01*
G01X29351Y46877D01*
G01X29328Y46837D01*
G01X29308Y46796D01*
G01X29289Y46755D01*
G01X29272Y46713D01*
G01X29257Y46669D01*
G01X29244Y46625D01*
G01X29232Y46581D01*
G01X29223Y46536D01*
G01X29216Y46491D01*
G01X29211Y46446D01*
G01X29208Y46400D01*
G01X29207Y46355D01*
G01X29208Y46309D01*
G01X29211Y46263D01*
G01X29216Y46218D01*
G01X29223Y46173D01*
G01X29232Y46128D01*
G01X29244Y46084D01*
G01X29257Y46040D01*
G01X29272Y45996D01*
G01X29289Y45954D01*
G01X29308Y45913D01*
G01X29328Y45872D01*
G01X29351Y45832D01*
G01X29376Y45793D01*
G01X29402Y45756D01*
G01X29429Y45720D01*
G01X29458Y45684D01*
G01X29489Y45650D01*
G01X29521Y45618D01*
G01X29555Y45587D01*
G01X29591Y45558D01*
G01X29627Y45531D01*
G01X29664Y45505D01*
G01X29703Y45480D01*
G01X29743Y45457D01*
G01X29784Y45437D01*
G01X29825Y45418D01*
G01X29867Y45401D01*
G01X29911Y45386D01*
G01X29955Y45373D01*
G01X29999Y45361D01*
G01X30044Y45352D01*
G01X30089Y45345D01*
G01X30134Y45340D01*
G01X30180Y45337D01*
G01X30226Y45336D01*
G01X30271Y45337D01*
G01X30317Y45340D01*
G01X30362Y45345D01*
G01X30407Y45352D01*
G01X30452Y45361D01*
G01X30496Y45373D01*
G01X30540Y45386D01*
G01X30584Y45401D01*
G01X30626Y45418D01*
G01X30667Y45437D01*
G01X30708Y45457D01*
G01X30748Y45480D01*
G01X30787Y45505D01*
G01X30824Y45531D01*
G01X30861Y45558D01*
G01X30896Y45587D01*
G01X30930Y45618D01*
G01X30962Y45650D01*
G01X30993Y45684D01*
G01X31022Y45720D01*
G01X31049Y45756D01*
G01X31075Y45793D01*
G01X31100Y45832D01*
G01X31123Y45872D01*
G01X31143Y45913D01*
G01X31162Y45954D01*
G01X31179Y45996D01*
G01X31194Y46040D01*
G01X31207Y46084D01*
G01X31219Y46128D01*
G01X31228Y46173D01*
G01X31235Y46218D01*
G01X31240Y46263D01*
G01X31243Y46309D01*
G01X31244Y46355D01*
G01X31243Y46400D01*
G01X31240Y46446D01*
G01X31235Y46491D01*
G01X31228Y46536D01*
G01X31219Y46581D01*
G01X31207Y46625D01*
G01X31194Y46669D01*
G01X31179Y46713D01*
G01X31162Y46755D01*
G01X31143Y46796D01*
G01X31123Y46837D01*
G01X31100Y46877D01*
G01X31075Y46916D01*
G01X31049Y46953D01*
G01X31022Y46990D01*
G01X30993Y47025D01*
G01X30962Y47059D01*
G01X30930Y47091D01*
G01X30896Y47122D01*
G01X30861Y47151D01*
G01X30824Y47178D01*
G01X30787Y47204D01*
G01X30748Y47229D01*
G01X30708Y47252D01*
G01X30667Y47272D01*
G01X30626Y47291D01*
G01X30584Y47308D01*
G01X30540Y47323D01*
G01X30496Y47336D01*
G01X30452Y47348D01*
G01X30407Y47357D01*
G01X30362Y47364D01*
G01X30317Y47369D01*
G01X30271Y47372D01*
G37*
G36*
G01X2331Y47372D02*
G01X2286Y47373D01*
G01X2240Y47372D01*
G01X2194Y47369D01*
G01X2149Y47364D01*
G01X2104Y47357D01*
G01X2059Y47348D01*
G01X2015Y47336D01*
G01X1971Y47323D01*
G01X1927Y47308D01*
G01X1885Y47291D01*
G01X1844Y47272D01*
G01X1803Y47252D01*
G01X1763Y47229D01*
G01X1724Y47204D01*
G01X1687Y47178D01*
G01X1651Y47151D01*
G01X1615Y47122D01*
G01X1581Y47091D01*
G01X1549Y47059D01*
G01X1518Y47025D01*
G01X1489Y46990D01*
G01X1462Y46953D01*
G01X1436Y46916D01*
G01X1411Y46877D01*
G01X1388Y46837D01*
G01X1368Y46796D01*
G01X1349Y46755D01*
G01X1332Y46713D01*
G01X1317Y46669D01*
G01X1304Y46625D01*
G01X1292Y46581D01*
G01X1283Y46536D01*
G01X1276Y46491D01*
G01X1271Y46446D01*
G01X1268Y46400D01*
G01X1267Y46355D01*
G01X1268Y46309D01*
G01X1271Y46263D01*
G01X1276Y46218D01*
G01X1283Y46173D01*
G01X1292Y46128D01*
G01X1304Y46084D01*
G01X1317Y46040D01*
G01X1332Y45996D01*
G01X1349Y45954D01*
G01X1368Y45913D01*
G01X1388Y45872D01*
G01X1411Y45832D01*
G01X1436Y45793D01*
G01X1462Y45756D01*
G01X1489Y45720D01*
G01X1518Y45684D01*
G01X1549Y45650D01*
G01X1581Y45618D01*
G01X1615Y45587D01*
G01X1651Y45558D01*
G01X1687Y45531D01*
G01X1724Y45505D01*
G01X1763Y45480D01*
G01X1803Y45457D01*
G01X1844Y45437D01*
G01X1885Y45418D01*
G01X1927Y45401D01*
G01X1971Y45386D01*
G01X2015Y45373D01*
G01X2059Y45361D01*
G01X2104Y45352D01*
G01X2149Y45345D01*
G01X2194Y45340D01*
G01X2240Y45337D01*
G01X2286Y45336D01*
G01X2331Y45337D01*
G01X2377Y45340D01*
G01X2422Y45345D01*
G01X2467Y45352D01*
G01X2512Y45361D01*
G01X2556Y45373D01*
G01X2600Y45386D01*
G01X2644Y45401D01*
G01X2686Y45418D01*
G01X2727Y45437D01*
G01X2768Y45457D01*
G01X2808Y45480D01*
G01X2847Y45505D01*
G01X2884Y45531D01*
G01X2921Y45558D01*
G01X2956Y45587D01*
G01X2990Y45618D01*
G01X3022Y45650D01*
G01X3053Y45684D01*
G01X3082Y45720D01*
G01X3109Y45756D01*
G01X3135Y45793D01*
G01X3160Y45832D01*
G01X3183Y45872D01*
G01X3203Y45913D01*
G01X3222Y45954D01*
G01X3239Y45996D01*
G01X3254Y46040D01*
G01X3267Y46084D01*
G01X3279Y46128D01*
G01X3288Y46173D01*
G01X3295Y46218D01*
G01X3300Y46263D01*
G01X3303Y46309D01*
G01X3304Y46355D01*
G01X3303Y46400D01*
G01X3300Y46446D01*
G01X3295Y46491D01*
G01X3288Y46536D01*
G01X3279Y46581D01*
G01X3267Y46625D01*
G01X3254Y46669D01*
G01X3239Y46713D01*
G01X3222Y46755D01*
G01X3203Y46796D01*
G01X3183Y46837D01*
G01X3160Y46877D01*
G01X3135Y46916D01*
G01X3109Y46953D01*
G01X3082Y46990D01*
G01X3053Y47025D01*
G01X3022Y47059D01*
G01X2990Y47091D01*
G01X2956Y47122D01*
G01X2921Y47151D01*
G01X2884Y47178D01*
G01X2847Y47204D01*
G01X2808Y47229D01*
G01X2768Y47252D01*
G01X2727Y47272D01*
G01X2686Y47291D01*
G01X2644Y47308D01*
G01X2600Y47323D01*
G01X2556Y47336D01*
G01X2512Y47348D01*
G01X2467Y47357D01*
G01X2422Y47364D01*
G01X2377Y47369D01*
G01X2331Y47372D01*
G37*
G36*
G01X20111Y47372D02*
G01X20066Y47373D01*
G01X20020Y47372D01*
G01X19974Y47369D01*
G01X19929Y47364D01*
G01X19884Y47357D01*
G01X19839Y47348D01*
G01X19795Y47336D01*
G01X19751Y47323D01*
G01X19707Y47308D01*
G01X19665Y47291D01*
G01X19624Y47272D01*
G01X19583Y47252D01*
G01X19543Y47229D01*
G01X19504Y47204D01*
G01X19467Y47178D01*
G01X19431Y47151D01*
G01X19395Y47122D01*
G01X19361Y47091D01*
G01X19329Y47059D01*
G01X19298Y47025D01*
G01X19269Y46990D01*
G01X19242Y46953D01*
G01X19216Y46916D01*
G01X19191Y46877D01*
G01X19168Y46837D01*
G01X19148Y46796D01*
G01X19129Y46755D01*
G01X19112Y46713D01*
G01X19097Y46669D01*
G01X19084Y46625D01*
G01X19072Y46581D01*
G01X19063Y46536D01*
G01X19056Y46491D01*
G01X19051Y46446D01*
G01X19048Y46400D01*
G01X19047Y46355D01*
G01X19048Y46309D01*
G01X19051Y46263D01*
G01X19056Y46218D01*
G01X19063Y46173D01*
G01X19072Y46128D01*
G01X19084Y46084D01*
G01X19097Y46040D01*
G01X19112Y45996D01*
G01X19129Y45954D01*
G01X19148Y45913D01*
G01X19168Y45872D01*
G01X19191Y45832D01*
G01X19216Y45793D01*
G01X19242Y45756D01*
G01X19269Y45720D01*
G01X19298Y45684D01*
G01X19329Y45650D01*
G01X19361Y45618D01*
G01X19395Y45587D01*
G01X19431Y45558D01*
G01X19467Y45531D01*
G01X19504Y45505D01*
G01X19543Y45480D01*
G01X19583Y45457D01*
G01X19624Y45437D01*
G01X19665Y45418D01*
G01X19707Y45401D01*
G01X19751Y45386D01*
G01X19795Y45373D01*
G01X19839Y45361D01*
G01X19884Y45352D01*
G01X19929Y45345D01*
G01X19974Y45340D01*
G01X20020Y45337D01*
G01X20066Y45336D01*
G01X20111Y45337D01*
G01X20157Y45340D01*
G01X20202Y45345D01*
G01X20247Y45352D01*
G01X20292Y45361D01*
G01X20336Y45373D01*
G01X20380Y45386D01*
G01X20424Y45401D01*
G01X20466Y45418D01*
G01X20507Y45437D01*
G01X20548Y45457D01*
G01X20588Y45480D01*
G01X20627Y45505D01*
G01X20664Y45531D01*
G01X20701Y45558D01*
G01X20736Y45587D01*
G01X20770Y45618D01*
G01X20802Y45650D01*
G01X20833Y45684D01*
G01X20862Y45720D01*
G01X20889Y45756D01*
G01X20915Y45793D01*
G01X20940Y45832D01*
G01X20963Y45872D01*
G01X20983Y45913D01*
G01X21002Y45954D01*
G01X21019Y45996D01*
G01X21034Y46040D01*
G01X21047Y46084D01*
G01X21059Y46128D01*
G01X21068Y46173D01*
G01X21075Y46218D01*
G01X21080Y46263D01*
G01X21083Y46309D01*
G01X21084Y46355D01*
G01X21083Y46400D01*
G01X21080Y46446D01*
G01X21075Y46491D01*
G01X21068Y46536D01*
G01X21059Y46581D01*
G01X21047Y46625D01*
G01X21034Y46669D01*
G01X21019Y46713D01*
G01X21002Y46755D01*
G01X20983Y46796D01*
G01X20963Y46837D01*
G01X20940Y46877D01*
G01X20915Y46916D01*
G01X20889Y46953D01*
G01X20862Y46990D01*
G01X20833Y47025D01*
G01X20802Y47059D01*
G01X20770Y47091D01*
G01X20736Y47122D01*
G01X20701Y47151D01*
G01X20664Y47178D01*
G01X20627Y47204D01*
G01X20588Y47229D01*
G01X20548Y47252D01*
G01X20507Y47272D01*
G01X20466Y47291D01*
G01X20424Y47308D01*
G01X20380Y47323D01*
G01X20336Y47336D01*
G01X20292Y47348D01*
G01X20247Y47357D01*
G01X20202Y47364D01*
G01X20157Y47369D01*
G01X20111Y47372D01*
G37*
G36*
G01X60751Y47372D02*
G01X60706Y47373D01*
G01X60660Y47372D01*
G01X60614Y47369D01*
G01X60569Y47364D01*
G01X60524Y47357D01*
G01X60479Y47348D01*
G01X60435Y47336D01*
G01X60391Y47323D01*
G01X60347Y47308D01*
G01X60305Y47291D01*
G01X60264Y47272D01*
G01X60223Y47252D01*
G01X60183Y47229D01*
G01X60144Y47204D01*
G01X60107Y47178D01*
G01X60071Y47151D01*
G01X60035Y47122D01*
G01X60001Y47091D01*
G01X59969Y47059D01*
G01X59938Y47025D01*
G01X59909Y46990D01*
G01X59882Y46953D01*
G01X59856Y46916D01*
G01X59831Y46877D01*
G01X59808Y46837D01*
G01X59788Y46796D01*
G01X59769Y46755D01*
G01X59752Y46713D01*
G01X59737Y46669D01*
G01X59724Y46625D01*
G01X59712Y46581D01*
G01X59703Y46536D01*
G01X59696Y46491D01*
G01X59691Y46446D01*
G01X59688Y46400D01*
G01X59687Y46355D01*
G01X59688Y46309D01*
G01X59691Y46263D01*
G01X59696Y46218D01*
G01X59703Y46173D01*
G01X59712Y46128D01*
G01X59724Y46084D01*
G01X59737Y46040D01*
G01X59752Y45996D01*
G01X59769Y45954D01*
G01X59788Y45913D01*
G01X59808Y45872D01*
G01X59831Y45832D01*
G01X59856Y45793D01*
G01X59882Y45756D01*
G01X59909Y45720D01*
G01X59938Y45684D01*
G01X59969Y45650D01*
G01X60001Y45618D01*
G01X60035Y45587D01*
G01X60071Y45558D01*
G01X60107Y45531D01*
G01X60144Y45505D01*
G01X60183Y45480D01*
G01X60223Y45457D01*
G01X60264Y45437D01*
G01X60305Y45418D01*
G01X60347Y45401D01*
G01X60391Y45386D01*
G01X60435Y45373D01*
G01X60479Y45361D01*
G01X60524Y45352D01*
G01X60569Y45345D01*
G01X60614Y45340D01*
G01X60660Y45337D01*
G01X60706Y45336D01*
G01X60751Y45337D01*
G01X60797Y45340D01*
G01X60842Y45345D01*
G01X60887Y45352D01*
G01X60932Y45361D01*
G01X60976Y45373D01*
G01X61020Y45386D01*
G01X61064Y45401D01*
G01X61106Y45418D01*
G01X61147Y45437D01*
G01X61188Y45457D01*
G01X61228Y45480D01*
G01X61267Y45505D01*
G01X61304Y45531D01*
G01X61341Y45558D01*
G01X61376Y45587D01*
G01X61410Y45618D01*
G01X61442Y45650D01*
G01X61473Y45684D01*
G01X61502Y45720D01*
G01X61529Y45756D01*
G01X61555Y45793D01*
G01X61580Y45832D01*
G01X61603Y45872D01*
G01X61623Y45913D01*
G01X61642Y45954D01*
G01X61659Y45996D01*
G01X61674Y46040D01*
G01X61687Y46084D01*
G01X61699Y46128D01*
G01X61708Y46173D01*
G01X61715Y46218D01*
G01X61720Y46263D01*
G01X61723Y46309D01*
G01X61724Y46355D01*
G01X61723Y46400D01*
G01X61720Y46446D01*
G01X61715Y46491D01*
G01X61708Y46536D01*
G01X61699Y46581D01*
G01X61687Y46625D01*
G01X61674Y46669D01*
G01X61659Y46713D01*
G01X61642Y46755D01*
G01X61623Y46796D01*
G01X61603Y46837D01*
G01X61580Y46877D01*
G01X61555Y46916D01*
G01X61529Y46953D01*
G01X61502Y46990D01*
G01X61473Y47025D01*
G01X61442Y47059D01*
G01X61410Y47091D01*
G01X61376Y47122D01*
G01X61341Y47151D01*
G01X61304Y47178D01*
G01X61267Y47204D01*
G01X61228Y47229D01*
G01X61188Y47252D01*
G01X61147Y47272D01*
G01X61106Y47291D01*
G01X61064Y47308D01*
G01X61020Y47323D01*
G01X60976Y47336D01*
G01X60932Y47348D01*
G01X60887Y47357D01*
G01X60842Y47364D01*
G01X60797Y47369D01*
G01X60751Y47372D01*
G37*
G36*
G01X22651Y47372D02*
G01X22606Y47373D01*
G01X22560Y47372D01*
G01X22514Y47369D01*
G01X22469Y47364D01*
G01X22424Y47357D01*
G01X22379Y47348D01*
G01X22335Y47336D01*
G01X22291Y47323D01*
G01X22247Y47308D01*
G01X22205Y47291D01*
G01X22164Y47272D01*
G01X22123Y47252D01*
G01X22083Y47229D01*
G01X22044Y47204D01*
G01X22007Y47178D01*
G01X21971Y47151D01*
G01X21935Y47122D01*
G01X21901Y47091D01*
G01X21869Y47059D01*
G01X21838Y47025D01*
G01X21809Y46990D01*
G01X21782Y46953D01*
G01X21756Y46916D01*
G01X21731Y46877D01*
G01X21708Y46837D01*
G01X21688Y46796D01*
G01X21669Y46755D01*
G01X21652Y46713D01*
G01X21637Y46669D01*
G01X21624Y46625D01*
G01X21612Y46581D01*
G01X21603Y46536D01*
G01X21596Y46491D01*
G01X21591Y46446D01*
G01X21588Y46400D01*
G01X21587Y46355D01*
G01X21588Y46309D01*
G01X21591Y46263D01*
G01X21596Y46218D01*
G01X21603Y46173D01*
G01X21612Y46128D01*
G01X21624Y46084D01*
G01X21637Y46040D01*
G01X21652Y45996D01*
G01X21669Y45954D01*
G01X21688Y45913D01*
G01X21708Y45872D01*
G01X21731Y45832D01*
G01X21756Y45793D01*
G01X21782Y45756D01*
G01X21809Y45720D01*
G01X21838Y45684D01*
G01X21869Y45650D01*
G01X21901Y45618D01*
G01X21935Y45587D01*
G01X21971Y45558D01*
G01X22007Y45531D01*
G01X22044Y45505D01*
G01X22083Y45480D01*
G01X22123Y45457D01*
G01X22164Y45437D01*
G01X22205Y45418D01*
G01X22247Y45401D01*
G01X22291Y45386D01*
G01X22335Y45373D01*
G01X22379Y45361D01*
G01X22424Y45352D01*
G01X22469Y45345D01*
G01X22514Y45340D01*
G01X22560Y45337D01*
G01X22606Y45336D01*
G01X22651Y45337D01*
G01X22697Y45340D01*
G01X22742Y45345D01*
G01X22787Y45352D01*
G01X22832Y45361D01*
G01X22876Y45373D01*
G01X22920Y45386D01*
G01X22964Y45401D01*
G01X23006Y45418D01*
G01X23047Y45437D01*
G01X23088Y45457D01*
G01X23128Y45480D01*
G01X23167Y45505D01*
G01X23204Y45531D01*
G01X23241Y45558D01*
G01X23276Y45587D01*
G01X23310Y45618D01*
G01X23342Y45650D01*
G01X23373Y45684D01*
G01X23402Y45720D01*
G01X23429Y45756D01*
G01X23455Y45793D01*
G01X23480Y45832D01*
G01X23503Y45872D01*
G01X23523Y45913D01*
G01X23542Y45954D01*
G01X23559Y45996D01*
G01X23574Y46040D01*
G01X23587Y46084D01*
G01X23599Y46128D01*
G01X23608Y46173D01*
G01X23615Y46218D01*
G01X23620Y46263D01*
G01X23623Y46309D01*
G01X23624Y46355D01*
G01X23623Y46400D01*
G01X23620Y46446D01*
G01X23615Y46491D01*
G01X23608Y46536D01*
G01X23599Y46581D01*
G01X23587Y46625D01*
G01X23574Y46669D01*
G01X23559Y46713D01*
G01X23542Y46755D01*
G01X23523Y46796D01*
G01X23503Y46837D01*
G01X23480Y46877D01*
G01X23455Y46916D01*
G01X23429Y46953D01*
G01X23402Y46990D01*
G01X23373Y47025D01*
G01X23342Y47059D01*
G01X23310Y47091D01*
G01X23276Y47122D01*
G01X23241Y47151D01*
G01X23204Y47178D01*
G01X23167Y47204D01*
G01X23128Y47229D01*
G01X23088Y47252D01*
G01X23047Y47272D01*
G01X23006Y47291D01*
G01X22964Y47308D01*
G01X22920Y47323D01*
G01X22876Y47336D01*
G01X22832Y47348D01*
G01X22787Y47357D01*
G01X22742Y47364D01*
G01X22697Y47369D01*
G01X22651Y47372D01*
G37*
G36*
G01X32811Y47372D02*
G01X32766Y47373D01*
G01X32720Y47372D01*
G01X32674Y47369D01*
G01X32629Y47364D01*
G01X32584Y47357D01*
G01X32539Y47348D01*
G01X32495Y47336D01*
G01X32451Y47323D01*
G01X32407Y47308D01*
G01X32365Y47291D01*
G01X32324Y47272D01*
G01X32283Y47252D01*
G01X32243Y47229D01*
G01X32204Y47204D01*
G01X32167Y47178D01*
G01X32131Y47151D01*
G01X32095Y47122D01*
G01X32061Y47091D01*
G01X32029Y47059D01*
G01X31998Y47025D01*
G01X31969Y46990D01*
G01X31942Y46953D01*
G01X31916Y46916D01*
G01X31891Y46877D01*
G01X31868Y46837D01*
G01X31848Y46796D01*
G01X31829Y46755D01*
G01X31812Y46713D01*
G01X31797Y46669D01*
G01X31784Y46625D01*
G01X31772Y46581D01*
G01X31763Y46536D01*
G01X31756Y46491D01*
G01X31751Y46446D01*
G01X31748Y46400D01*
G01X31747Y46355D01*
G01X31748Y46309D01*
G01X31751Y46263D01*
G01X31756Y46218D01*
G01X31763Y46173D01*
G01X31772Y46128D01*
G01X31784Y46084D01*
G01X31797Y46040D01*
G01X31812Y45996D01*
G01X31829Y45954D01*
G01X31848Y45913D01*
G01X31868Y45872D01*
G01X31891Y45832D01*
G01X31916Y45793D01*
G01X31942Y45756D01*
G01X31969Y45720D01*
G01X31998Y45684D01*
G01X32029Y45650D01*
G01X32061Y45618D01*
G01X32095Y45587D01*
G01X32131Y45558D01*
G01X32167Y45531D01*
G01X32204Y45505D01*
G01X32243Y45480D01*
G01X32283Y45457D01*
G01X32324Y45437D01*
G01X32365Y45418D01*
G01X32407Y45401D01*
G01X32451Y45386D01*
G01X32495Y45373D01*
G01X32539Y45361D01*
G01X32584Y45352D01*
G01X32629Y45345D01*
G01X32674Y45340D01*
G01X32720Y45337D01*
G01X32766Y45336D01*
G01X32811Y45337D01*
G01X32857Y45340D01*
G01X32902Y45345D01*
G01X32947Y45352D01*
G01X32992Y45361D01*
G01X33036Y45373D01*
G01X33080Y45386D01*
G01X33124Y45401D01*
G01X33166Y45418D01*
G01X33207Y45437D01*
G01X33248Y45457D01*
G01X33288Y45480D01*
G01X33327Y45505D01*
G01X33364Y45531D01*
G01X33401Y45558D01*
G01X33436Y45587D01*
G01X33470Y45618D01*
G01X33502Y45650D01*
G01X33533Y45684D01*
G01X33562Y45720D01*
G01X33589Y45756D01*
G01X33615Y45793D01*
G01X33640Y45832D01*
G01X33663Y45872D01*
G01X33683Y45913D01*
G01X33702Y45954D01*
G01X33719Y45996D01*
G01X33734Y46040D01*
G01X33747Y46084D01*
G01X33759Y46128D01*
G01X33768Y46173D01*
G01X33775Y46218D01*
G01X33780Y46263D01*
G01X33783Y46309D01*
G01X33784Y46355D01*
G01X33783Y46400D01*
G01X33780Y46446D01*
G01X33775Y46491D01*
G01X33768Y46536D01*
G01X33759Y46581D01*
G01X33747Y46625D01*
G01X33734Y46669D01*
G01X33719Y46713D01*
G01X33702Y46755D01*
G01X33683Y46796D01*
G01X33663Y46837D01*
G01X33640Y46877D01*
G01X33615Y46916D01*
G01X33589Y46953D01*
G01X33562Y46990D01*
G01X33533Y47025D01*
G01X33502Y47059D01*
G01X33470Y47091D01*
G01X33436Y47122D01*
G01X33401Y47151D01*
G01X33364Y47178D01*
G01X33327Y47204D01*
G01X33288Y47229D01*
G01X33248Y47252D01*
G01X33207Y47272D01*
G01X33166Y47291D01*
G01X33124Y47308D01*
G01X33080Y47323D01*
G01X33036Y47336D01*
G01X32992Y47348D01*
G01X32947Y47357D01*
G01X32902Y47364D01*
G01X32857Y47369D01*
G01X32811Y47372D01*
G37*

%LPD*%
G54D10*
G01X6223Y22225D02*
G01X4191Y24257D01*
G01X26035Y27940D02*
G01X23749Y30226D01*
G01X23749Y32004D01*
G01X22606Y33147D01*
G01X14097Y33147D01*
G01X12446Y31496D01*
G01X12446Y31115D01*
G01X25781Y26924D02*
G01X22987Y29718D01*
G01X10922Y29718D01*
G01X9906Y30734D01*
G01X9906Y31115D01*
G01X12573Y26162D02*
G01X15240Y28829D01*
G01X19558Y28829D01*
G01X58928Y17526D02*
G01X58928Y25273D01*
G01X53086Y31115D01*
G01X45466Y31115D02*
G01X52070Y24511D01*
G01X52070Y9017D01*
G01X50800Y7747D01*
G01X49657Y7747D01*
G54D11*
G01X33147Y10287D02*
G01X27178Y4318D01*
G01X6096Y4318D01*
G01X6096Y6858D02*
G01X25781Y6858D01*
G01X31115Y12192D01*
G54D18*
G01X35941Y20574D03*
G54D19*
G01X35941Y23114D03*
G01X35941Y25654D03*
G54D20*
G01X60706Y46355D03*
G01X58166Y46355D03*
G01X55626Y46355D03*
G01X53086Y46355D03*
G01X50546Y46355D03*
G01X48006Y46355D03*
G01X45466Y46355D03*
G01X42926Y46355D03*
G01X40386Y46355D03*
G01X37846Y46355D03*
G01X35306Y46355D03*
G01X32766Y46355D03*
G01X30226Y46355D03*
G01X27686Y46355D03*
G01X25146Y46355D03*
G01X22606Y46355D03*
G01X20066Y46355D03*
G01X17526Y46355D03*
G01X14986Y46355D03*
G01X12446Y46355D03*
G01X9906Y46355D03*
G01X7366Y46355D03*
G01X4826Y46355D03*
G01X2286Y46355D03*
G01X2286Y31115D03*
G01X4826Y31115D03*
G01X7366Y31115D03*
G01X9906Y31115D03*
G01X12446Y31115D03*
G01X14986Y31115D03*
G01X17526Y31115D03*
G01X20066Y31115D03*
G01X22606Y31115D03*
G01X25146Y31115D03*
G01X27686Y31115D03*
G01X30226Y31115D03*
G01X32766Y31115D03*
G01X35306Y31115D03*
G01X37846Y31115D03*
G01X40386Y31115D03*
G01X42926Y31115D03*
G01X45466Y31115D03*
G01X48006Y31115D03*
G01X50546Y31115D03*
G01X53086Y31115D03*
G01X55626Y31115D03*
G01X58166Y31115D03*
G01X60706Y31115D03*
G36*
G01X43921Y26527D02*
G01X43921Y24526D01*
G01X41422Y24526D01*
G01X41422Y26527D01*
G01X43921Y26527D01*
G37*
G54D22*
G01X6096Y4318D03*
G54D23*
G01X6096Y6858D03*
G54D22*
G01X58674Y10922D03*
G54D23*
G01X61214Y10922D03*
G54D22*
G01X58547Y3683D03*
G54D23*
G01X61087Y3683D03*
G54D22*
G01X17145Y14986D03*
G54D23*
G01X17145Y17526D03*
G54D24*
G01X49657Y2667D03*
G01X49657Y5207D03*
G54D25*
G01X49657Y7747D03*
G54D12*
G01X6223Y22225D03*
G01X4191Y24257D03*
G01X26035Y27940D03*
G01X25781Y26924D03*
G01X12573Y26162D03*
G01X19558Y28829D03*
G01X58928Y17526D03*
G01X33147Y10287D03*
G01X31115Y12192D03*
G01X18288Y24384D03*
G54D26*
G01X42921Y20447D02*
G01X42422Y20447D01*
G01X42921Y22987D02*
G01X42422Y22987D01*
G54D27*
G01X54916Y22557D02*
G01X54916Y24557D01*
G01X52716Y28258D02*
G01X50716Y28258D01*
G01X48716Y22557D02*
G01X48716Y24557D01*
M00*
M02*
