;Layer: Drill PTH
;EasyEDA v6.3.22, 2020-03-24T12:14:19+11:00
;be55d0e875064f4eac6341afbdbda93d,8b00c40d607e4de580d566db1ee26a9b,10
;Gerber Generator version 0.2
M48
METRIC,LZ,000.000
;Holesize 1 = 0.305 METRIC
T01C0.305
;Holesize 2 = 0.889 METRIC
T02C0.889
;Holesize 3 = 0.915 METRIC
T03C0.915
;Holesize 4 = 1.000 METRIC
T04C1.000
;Holesize 5 = 1.101 METRIC
T05C1.101
;Holesize 6 = 1.400 METRIC
T06C1.400
%
G05
G90
T01
X+006223Y+022225
X+004191Y+024257
X+026035Y+027940
X+025781Y+026924
X+012573Y+026162
X+019558Y+028829
X+058928Y+017526
X+033147Y+010287
X+031115Y+012192
X+018288Y+024384
T02
X+049657Y+002667
X+049657Y+005207
X+049657Y+007747
T03
X+060706Y+046355
X+058166Y+046355
X+055626Y+046355
X+053086Y+046355
X+050546Y+046355
X+048006Y+046355
X+045466Y+046355
X+042926Y+046355
X+040386Y+046355
X+037846Y+046355
X+035306Y+046355
X+032766Y+046355
X+030226Y+046355
X+027686Y+046355
X+025146Y+046355
X+022606Y+046355
X+020066Y+046355
X+017526Y+046355
X+014986Y+046355
X+012446Y+046355
X+009906Y+046355
X+007366Y+046355
X+004826Y+046355
X+002286Y+046355
X+002286Y+031115
X+004826Y+031115
X+007366Y+031115
X+009906Y+031115
X+012446Y+031115
X+014986Y+031115
X+017526Y+031115
X+020066Y+031115
X+022606Y+031115
X+025146Y+031115
X+027686Y+031115
X+030226Y+031115
X+032766Y+031115
X+035306Y+031115
X+037846Y+031115
X+040386Y+031115
X+042926Y+031115
X+045466Y+031115
X+048006Y+031115
X+050546Y+031115
X+053086Y+031115
X+055626Y+031115
X+058166Y+031115
X+060706Y+031115
T04
X+006096Y+004318
X+006096Y+006858
X+058674Y+010922
X+061214Y+010922
X+058547Y+003683
X+061087Y+003683
X+017145Y+014986
X+017145Y+017526
X+054916Y+024557G85X+054916Y+022557
X+050716Y+028258G85X+052715Y+028258
X+048716Y+024557G85X+048716Y+022557
T05
X+035941Y+020574
X+035941Y+023114
X+035941Y+025654
T06
X+042672Y+025527
X+042672Y+020447
X+042672Y+022987
M30
