G04 Layer: TopLayer*
G04 EasyEDA v6.4.7, 2020-10-21T08:40:06+11:00*
G04 167876914e964c2ea181e253bf9821b7,8b00c40d607e4de580d566db1ee26a9b,10*
G04 Gerber Generator version 0.2*
G04 Scale: 100 percent, Rotated: No, Reflected: No *
G04 Dimensions in millimeters *
G04 leading zeros omitted , absolute positions ,3 integer and 3 decimal *
%FSLAX33Y33*%
%MOMM*%
G90*
D02*

%ADD10C,0.999998*%
%ADD11R,0.999998X1.550010*%
%ADD13C,1.750060*%
%ADD14R,1.750060X1.750060*%
%ADD15C,1.999996*%

%LPD*%
G36*
G01X29997Y18669D02*
G01X1117Y18669D01*
G01X1103Y18667D01*
G01X1089Y18664D01*
G01X1075Y18659D01*
G01X1062Y18652D01*
G01X1051Y18644D01*
G01X1040Y18633D01*
G01X1032Y18622D01*
G01X1025Y18609D01*
G01X1020Y18595D01*
G01X1017Y18581D01*
G01X1016Y18567D01*
G01X1016Y1117D01*
G01X1017Y1103D01*
G01X1020Y1089D01*
G01X1025Y1075D01*
G01X1032Y1062D01*
G01X1040Y1051D01*
G01X1051Y1040D01*
G01X1062Y1032D01*
G01X1075Y1025D01*
G01X1089Y1020D01*
G01X1103Y1017D01*
G01X1117Y1016D01*
G01X29997Y1016D01*
G01X30011Y1017D01*
G01X30025Y1020D01*
G01X30039Y1025D01*
G01X30052Y1032D01*
G01X30063Y1040D01*
G01X30074Y1051D01*
G01X30082Y1062D01*
G01X30089Y1075D01*
G01X30094Y1089D01*
G01X30097Y1103D01*
G01X30099Y1117D01*
G01X30099Y18567D01*
G01X30097Y18581D01*
G01X30094Y18595D01*
G01X30089Y18609D01*
G01X30082Y18622D01*
G01X30074Y18633D01*
G01X30063Y18644D01*
G01X30052Y18652D01*
G01X30039Y18659D01*
G01X30025Y18664D01*
G01X30011Y18667D01*
G01X29997Y18669D01*
G37*

%LPC*%
G36*
G01X13652Y3408D02*
G01X13134Y3408D01*
G01X13134Y3321D01*
G01X13135Y3298D01*
G01X13138Y3275D01*
G01X13143Y3251D01*
G01X13151Y3229D01*
G01X13161Y3207D01*
G01X13172Y3187D01*
G01X13186Y3167D01*
G01X13201Y3149D01*
G01X13218Y3132D01*
G01X13235Y3117D01*
G01X13255Y3103D01*
G01X13276Y3092D01*
G01X13297Y3082D01*
G01X13320Y3075D01*
G01X13343Y3069D01*
G01X13367Y3066D01*
G01X13390Y3065D01*
G01X13652Y3065D01*
G01X13652Y3408D01*
G37*
G36*
G01X14947Y3408D02*
G01X14429Y3408D01*
G01X14429Y3065D01*
G01X14690Y3065D01*
G01X14714Y3066D01*
G01X14738Y3069D01*
G01X14760Y3075D01*
G01X14783Y3082D01*
G01X14805Y3092D01*
G01X14825Y3103D01*
G01X14845Y3117D01*
G01X14863Y3132D01*
G01X14880Y3149D01*
G01X14895Y3167D01*
G01X14908Y3187D01*
G01X14920Y3207D01*
G01X14930Y3229D01*
G01X14937Y3251D01*
G01X14942Y3275D01*
G01X14946Y3298D01*
G01X14947Y3321D01*
G01X14947Y3408D01*
G37*
G36*
G01X23419Y5912D02*
G01X23368Y5913D01*
G01X23318Y5912D01*
G01X23267Y5909D01*
G01X23217Y5904D01*
G01X23167Y5897D01*
G01X23117Y5888D01*
G01X23068Y5877D01*
G01X23019Y5864D01*
G01X22971Y5849D01*
G01X22924Y5832D01*
G01X22876Y5813D01*
G01X22831Y5792D01*
G01X22785Y5769D01*
G01X22741Y5745D01*
G01X22697Y5719D01*
G01X22655Y5691D01*
G01X22614Y5662D01*
G01X22575Y5631D01*
G01X22536Y5598D01*
G01X22499Y5564D01*
G01X22463Y5528D01*
G01X22429Y5491D01*
G01X22396Y5452D01*
G01X22365Y5413D01*
G01X22335Y5372D01*
G01X22325Y5359D01*
G01X22312Y5348D01*
G01X22299Y5340D01*
G01X22284Y5333D01*
G01X22268Y5329D01*
G01X22251Y5328D01*
G01X16440Y5328D01*
G01X16400Y5327D01*
G01X16359Y5324D01*
G01X16319Y5318D01*
G01X16279Y5311D01*
G01X16240Y5301D01*
G01X16201Y5289D01*
G01X16163Y5276D01*
G01X16089Y5242D01*
G01X16054Y5222D01*
G01X16020Y5200D01*
G01X15987Y5177D01*
G01X15955Y5152D01*
G01X15941Y5141D01*
G01X15924Y5134D01*
G01X15908Y5130D01*
G01X15890Y5128D01*
G01X15790Y5128D01*
G01X15767Y5127D01*
G01X15743Y5124D01*
G01X15720Y5118D01*
G01X15698Y5110D01*
G01X15676Y5101D01*
G01X15655Y5090D01*
G01X15636Y5076D01*
G01X15617Y5061D01*
G01X15601Y5044D01*
G01X15585Y5026D01*
G01X15572Y5006D01*
G01X15561Y4986D01*
G01X15551Y4964D01*
G01X15543Y4942D01*
G01X15538Y4918D01*
G01X15535Y4895D01*
G01X15534Y4872D01*
G01X15534Y4271D01*
G01X15535Y4248D01*
G01X15538Y4225D01*
G01X15543Y4201D01*
G01X15551Y4179D01*
G01X15561Y4157D01*
G01X15572Y4137D01*
G01X15585Y4117D01*
G01X15601Y4099D01*
G01X15617Y4082D01*
G01X15636Y4067D01*
G01X15655Y4053D01*
G01X15676Y4042D01*
G01X15698Y4033D01*
G01X15720Y4025D01*
G01X15743Y4019D01*
G01X15767Y4016D01*
G01X15790Y4015D01*
G01X15890Y4015D01*
G01X15907Y4013D01*
G01X15924Y4009D01*
G01X15940Y4002D01*
G01X15955Y3991D01*
G01X15987Y3966D01*
G01X16020Y3943D01*
G01X16054Y3921D01*
G01X16089Y3901D01*
G01X16126Y3883D01*
G01X16163Y3867D01*
G01X16201Y3854D01*
G01X16240Y3842D01*
G01X16279Y3832D01*
G01X16319Y3825D01*
G01X16359Y3819D01*
G01X16400Y3816D01*
G01X16440Y3815D01*
G01X22391Y3815D01*
G01X22407Y3814D01*
G01X22423Y3810D01*
G01X22438Y3803D01*
G01X22452Y3795D01*
G01X22464Y3784D01*
G01X22502Y3747D01*
G01X22541Y3710D01*
G01X22582Y3676D01*
G01X22624Y3644D01*
G01X22667Y3613D01*
G01X22712Y3585D01*
G01X22758Y3558D01*
G01X22805Y3533D01*
G01X22853Y3511D01*
G01X22902Y3490D01*
G01X22951Y3471D01*
G01X23002Y3454D01*
G01X23053Y3440D01*
G01X23105Y3428D01*
G01X23157Y3418D01*
G01X23210Y3410D01*
G01X23262Y3405D01*
G01X23315Y3401D01*
G01X23368Y3400D01*
G01X23419Y3401D01*
G01X23470Y3404D01*
G01X23520Y3409D01*
G01X23570Y3416D01*
G01X23619Y3425D01*
G01X23669Y3437D01*
G01X23718Y3450D01*
G01X23766Y3465D01*
G01X23814Y3482D01*
G01X23861Y3501D01*
G01X23907Y3521D01*
G01X23952Y3544D01*
G01X23996Y3568D01*
G01X24040Y3595D01*
G01X24082Y3623D01*
G01X24123Y3652D01*
G01X24163Y3683D01*
G01X24202Y3716D01*
G01X24239Y3751D01*
G01X24274Y3786D01*
G01X24309Y3823D01*
G01X24341Y3862D01*
G01X24373Y3902D01*
G01X24402Y3943D01*
G01X24430Y3985D01*
G01X24457Y4028D01*
G01X24481Y4073D01*
G01X24503Y4118D01*
G01X24524Y4164D01*
G01X24543Y4211D01*
G01X24560Y4259D01*
G01X24575Y4307D01*
G01X24588Y4356D01*
G01X24599Y4405D01*
G01X24609Y4455D01*
G01X24616Y4505D01*
G01X24621Y4555D01*
G01X24624Y4606D01*
G01X24625Y4656D01*
G01X24624Y4707D01*
G01X24621Y4757D01*
G01X24616Y4808D01*
G01X24609Y4858D01*
G01X24599Y4908D01*
G01X24588Y4957D01*
G01X24575Y5006D01*
G01X24560Y5055D01*
G01X24543Y5102D01*
G01X24524Y5149D01*
G01X24503Y5195D01*
G01X24481Y5241D01*
G01X24457Y5285D01*
G01X24430Y5328D01*
G01X24402Y5371D01*
G01X24373Y5411D01*
G01X24341Y5451D01*
G01X24309Y5490D01*
G01X24274Y5527D01*
G01X24239Y5563D01*
G01X24202Y5597D01*
G01X24163Y5630D01*
G01X24123Y5661D01*
G01X24082Y5691D01*
G01X24040Y5719D01*
G01X23996Y5745D01*
G01X23952Y5769D01*
G01X23907Y5792D01*
G01X23861Y5813D01*
G01X23814Y5831D01*
G01X23766Y5849D01*
G01X23718Y5863D01*
G01X23669Y5877D01*
G01X23619Y5888D01*
G01X23570Y5897D01*
G01X23520Y5904D01*
G01X23470Y5909D01*
G01X23419Y5912D01*
G37*
G36*
G01X13652Y4178D02*
G01X13390Y4178D01*
G01X13367Y4177D01*
G01X13343Y4174D01*
G01X13320Y4168D01*
G01X13297Y4161D01*
G01X13276Y4151D01*
G01X13255Y4140D01*
G01X13235Y4126D01*
G01X13218Y4111D01*
G01X13201Y4094D01*
G01X13186Y4076D01*
G01X13172Y4056D01*
G01X13161Y4036D01*
G01X13151Y4014D01*
G01X13143Y3992D01*
G01X13138Y3969D01*
G01X13135Y3945D01*
G01X13134Y3921D01*
G01X13134Y3835D01*
G01X13652Y3835D01*
G01X13652Y4178D01*
G37*
G36*
G01X14690Y4178D02*
G01X14429Y4178D01*
G01X14429Y3835D01*
G01X14947Y3835D01*
G01X14947Y3921D01*
G01X14946Y3945D01*
G01X14942Y3969D01*
G01X14937Y3992D01*
G01X14930Y4014D01*
G01X14920Y4036D01*
G01X14908Y4056D01*
G01X14895Y4076D01*
G01X14880Y4094D01*
G01X14863Y4111D01*
G01X14845Y4126D01*
G01X14825Y4140D01*
G01X14805Y4151D01*
G01X14783Y4161D01*
G01X14760Y4168D01*
G01X14738Y4174D01*
G01X14714Y4177D01*
G01X14690Y4178D01*
G37*
G36*
G01X14040Y6278D02*
G01X11094Y6278D01*
G01X11055Y6277D01*
G01X11015Y6274D01*
G01X10976Y6269D01*
G01X10937Y6262D01*
G01X10898Y6252D01*
G01X10861Y6241D01*
G01X10823Y6228D01*
G01X10786Y6212D01*
G01X10751Y6196D01*
G01X10716Y6177D01*
G01X10682Y6156D01*
G01X10650Y6134D01*
G01X10618Y6109D01*
G01X10588Y6084D01*
G01X10559Y6056D01*
G01X10517Y6014D01*
G01X10504Y6004D01*
G01X10491Y5995D01*
G01X10476Y5989D01*
G01X10461Y5985D01*
G01X10445Y5984D01*
G01X10024Y5984D01*
G01X10001Y5983D01*
G01X9977Y5980D01*
G01X9954Y5974D01*
G01X9932Y5966D01*
G01X9910Y5957D01*
G01X9889Y5946D01*
G01X9870Y5932D01*
G01X9852Y5917D01*
G01X9835Y5900D01*
G01X9820Y5882D01*
G01X9806Y5862D01*
G01X9795Y5842D01*
G01X9785Y5820D01*
G01X9778Y5798D01*
G01X9772Y5774D01*
G01X9769Y5751D01*
G01X9768Y5728D01*
G01X9768Y4177D01*
G01X9769Y4154D01*
G01X9772Y4131D01*
G01X9778Y4107D01*
G01X9785Y4085D01*
G01X9795Y4063D01*
G01X9806Y4043D01*
G01X9820Y4023D01*
G01X9835Y4005D01*
G01X9852Y3988D01*
G01X9870Y3973D01*
G01X9889Y3959D01*
G01X9910Y3948D01*
G01X9932Y3939D01*
G01X9954Y3931D01*
G01X9977Y3925D01*
G01X10001Y3922D01*
G01X10024Y3921D01*
G01X11025Y3921D01*
G01X11048Y3922D01*
G01X11072Y3925D01*
G01X11095Y3931D01*
G01X11117Y3939D01*
G01X11139Y3948D01*
G01X11160Y3959D01*
G01X11179Y3973D01*
G01X11197Y3988D01*
G01X11214Y4005D01*
G01X11229Y4023D01*
G01X11243Y4043D01*
G01X11254Y4063D01*
G01X11264Y4085D01*
G01X11271Y4107D01*
G01X11277Y4131D01*
G01X11280Y4154D01*
G01X11281Y4177D01*
G01X11281Y4596D01*
G01X11282Y4612D01*
G01X11286Y4628D01*
G01X11292Y4643D01*
G01X11300Y4656D01*
G01X11311Y4668D01*
G01X11378Y4735D01*
G01X11390Y4745D01*
G01X11404Y4754D01*
G01X11418Y4760D01*
G01X11434Y4764D01*
G01X11450Y4765D01*
G01X14040Y4765D01*
G01X14081Y4766D01*
G01X14121Y4769D01*
G01X14162Y4775D01*
G01X14201Y4782D01*
G01X14241Y4792D01*
G01X14279Y4804D01*
G01X14317Y4817D01*
G01X14355Y4833D01*
G01X14391Y4851D01*
G01X14427Y4871D01*
G01X14461Y4893D01*
G01X14494Y4916D01*
G01X14526Y4941D01*
G01X14540Y4951D01*
G01X14556Y4959D01*
G01X14574Y4963D01*
G01X14591Y4965D01*
G01X14690Y4965D01*
G01X14714Y4966D01*
G01X14738Y4969D01*
G01X14760Y4975D01*
G01X14783Y4982D01*
G01X14805Y4992D01*
G01X14825Y5003D01*
G01X14845Y5017D01*
G01X14863Y5032D01*
G01X14880Y5049D01*
G01X14895Y5067D01*
G01X14908Y5087D01*
G01X14920Y5107D01*
G01X14930Y5129D01*
G01X14937Y5151D01*
G01X14942Y5174D01*
G01X14946Y5198D01*
G01X14947Y5222D01*
G01X14947Y5822D01*
G01X14946Y5845D01*
G01X14942Y5868D01*
G01X14937Y5892D01*
G01X14930Y5914D01*
G01X14920Y5936D01*
G01X14908Y5956D01*
G01X14895Y5976D01*
G01X14880Y5994D01*
G01X14863Y6011D01*
G01X14845Y6026D01*
G01X14825Y6040D01*
G01X14805Y6051D01*
G01X14783Y6061D01*
G01X14760Y6068D01*
G01X14738Y6074D01*
G01X14714Y6077D01*
G01X14690Y6078D01*
G01X14591Y6078D01*
G01X14573Y6080D01*
G01X14556Y6084D01*
G01X14540Y6091D01*
G01X14526Y6102D01*
G01X14494Y6127D01*
G01X14461Y6150D01*
G01X14426Y6172D01*
G01X14391Y6192D01*
G01X14355Y6209D01*
G01X14317Y6226D01*
G01X14279Y6239D01*
G01X14240Y6251D01*
G01X14201Y6261D01*
G01X14162Y6268D01*
G01X14121Y6274D01*
G01X14081Y6277D01*
G01X14040Y6278D01*
G37*
G36*
G01X4112Y11798D02*
G01X4065Y11799D01*
G01X4016Y11798D01*
G01X3969Y11795D01*
G01X3921Y11790D01*
G01X3873Y11783D01*
G01X3826Y11774D01*
G01X3779Y11763D01*
G01X3733Y11750D01*
G01X3687Y11734D01*
G01X3642Y11718D01*
G01X3598Y11699D01*
G01X3555Y11678D01*
G01X3512Y11656D01*
G01X3471Y11631D01*
G01X3431Y11605D01*
G01X3391Y11577D01*
G01X3353Y11548D01*
G01X3317Y11517D01*
G01X3281Y11484D01*
G01X3247Y11450D01*
G01X3215Y11415D01*
G01X3184Y11378D01*
G01X3155Y11341D01*
G01X3127Y11301D01*
G01X3101Y11261D01*
G01X3076Y11219D01*
G01X3054Y11177D01*
G01X3033Y11134D01*
G01X3014Y11090D01*
G01X2997Y11044D01*
G01X2982Y10999D01*
G01X2969Y10952D01*
G01X2958Y10906D01*
G01X2949Y10859D01*
G01X2942Y10811D01*
G01X2937Y10764D01*
G01X2934Y10716D01*
G01X2933Y10668D01*
G01X2934Y10619D01*
G01X2937Y10571D01*
G01X2942Y10524D01*
G01X2949Y10476D01*
G01X2958Y10429D01*
G01X2969Y10383D01*
G01X2982Y10336D01*
G01X2997Y10291D01*
G01X3014Y10245D01*
G01X3033Y10201D01*
G01X3054Y10158D01*
G01X3076Y10116D01*
G01X3101Y10074D01*
G01X3127Y10034D01*
G01X3155Y9994D01*
G01X3184Y9957D01*
G01X3215Y9920D01*
G01X3247Y9885D01*
G01X3281Y9851D01*
G01X3317Y9818D01*
G01X3353Y9787D01*
G01X3391Y9758D01*
G01X3431Y9730D01*
G01X3471Y9704D01*
G01X3512Y9679D01*
G01X3555Y9657D01*
G01X3598Y9636D01*
G01X3642Y9617D01*
G01X3687Y9601D01*
G01X3733Y9585D01*
G01X3779Y9572D01*
G01X3826Y9561D01*
G01X3873Y9552D01*
G01X3921Y9545D01*
G01X3969Y9540D01*
G01X4016Y9537D01*
G01X4065Y9536D01*
G01X4084Y9536D01*
G01X4100Y9535D01*
G01X4115Y9531D01*
G01X4130Y9525D01*
G01X4143Y9517D01*
G01X4155Y9506D01*
G01X4233Y9428D01*
G01X4243Y9417D01*
G01X4252Y9403D01*
G01X4258Y9388D01*
G01X4262Y9373D01*
G01X4263Y9357D01*
G01X4262Y9343D01*
G01X4259Y9328D01*
G01X4247Y9302D01*
G01X4238Y9290D01*
G01X4228Y9280D01*
G01X4204Y9264D01*
G01X4190Y9259D01*
G01X4176Y9256D01*
G01X4162Y9255D01*
G01X4153Y9256D01*
G01X4065Y9259D01*
G01X4016Y9258D01*
G01X3969Y9255D01*
G01X3921Y9250D01*
G01X3873Y9243D01*
G01X3826Y9234D01*
G01X3779Y9223D01*
G01X3733Y9210D01*
G01X3687Y9194D01*
G01X3642Y9178D01*
G01X3598Y9159D01*
G01X3555Y9138D01*
G01X3512Y9116D01*
G01X3471Y9091D01*
G01X3431Y9065D01*
G01X3391Y9037D01*
G01X3353Y9008D01*
G01X3317Y8977D01*
G01X3281Y8944D01*
G01X3247Y8910D01*
G01X3215Y8875D01*
G01X3184Y8838D01*
G01X3155Y8801D01*
G01X3127Y8761D01*
G01X3101Y8721D01*
G01X3076Y8679D01*
G01X3054Y8637D01*
G01X3033Y8594D01*
G01X3014Y8550D01*
G01X2997Y8504D01*
G01X2982Y8459D01*
G01X2969Y8412D01*
G01X2958Y8366D01*
G01X2949Y8319D01*
G01X2942Y8271D01*
G01X2937Y8224D01*
G01X2934Y8176D01*
G01X2933Y8128D01*
G01X2934Y8079D01*
G01X2937Y8031D01*
G01X2942Y7984D01*
G01X2949Y7936D01*
G01X2958Y7889D01*
G01X2969Y7843D01*
G01X2982Y7796D01*
G01X2997Y7751D01*
G01X3014Y7705D01*
G01X3033Y7661D01*
G01X3054Y7618D01*
G01X3076Y7576D01*
G01X3101Y7534D01*
G01X3127Y7494D01*
G01X3155Y7454D01*
G01X3184Y7417D01*
G01X3215Y7380D01*
G01X3247Y7345D01*
G01X3281Y7311D01*
G01X3317Y7278D01*
G01X3353Y7247D01*
G01X3391Y7218D01*
G01X3431Y7190D01*
G01X3471Y7164D01*
G01X3512Y7139D01*
G01X3555Y7117D01*
G01X3598Y7096D01*
G01X3642Y7077D01*
G01X3687Y7061D01*
G01X3733Y7045D01*
G01X3779Y7032D01*
G01X3826Y7021D01*
G01X3873Y7012D01*
G01X3921Y7005D01*
G01X3969Y7000D01*
G01X4016Y6997D01*
G01X4065Y6996D01*
G01X4115Y6997D01*
G01X4165Y7000D01*
G01X4215Y7006D01*
G01X4265Y7014D01*
G01X4314Y7024D01*
G01X4363Y7036D01*
G01X4411Y7051D01*
G01X4459Y7067D01*
G01X4505Y7086D01*
G01X4552Y7106D01*
G01X4596Y7129D01*
G01X4640Y7154D01*
G01X4683Y7180D01*
G01X4724Y7209D01*
G01X4765Y7239D01*
G01X4804Y7271D01*
G01X4841Y7305D01*
G01X4877Y7340D01*
G01X4889Y7351D01*
G01X4903Y7359D01*
G01X4918Y7366D01*
G01X4934Y7370D01*
G01X4950Y7371D01*
G01X4995Y7371D01*
G01X5011Y7370D01*
G01X5026Y7366D01*
G01X5041Y7360D01*
G01X5055Y7352D01*
G01X5067Y7341D01*
G01X7738Y4670D01*
G01X7749Y4657D01*
G01X7757Y4644D01*
G01X7763Y4629D01*
G01X7767Y4614D01*
G01X7768Y4598D01*
G01X7768Y4177D01*
G01X7769Y4154D01*
G01X7772Y4131D01*
G01X7778Y4107D01*
G01X7785Y4085D01*
G01X7795Y4063D01*
G01X7806Y4043D01*
G01X7820Y4023D01*
G01X7835Y4005D01*
G01X7852Y3988D01*
G01X7870Y3973D01*
G01X7889Y3959D01*
G01X7910Y3948D01*
G01X7932Y3939D01*
G01X7954Y3931D01*
G01X7977Y3925D01*
G01X8001Y3922D01*
G01X8024Y3921D01*
G01X9025Y3921D01*
G01X9048Y3922D01*
G01X9072Y3925D01*
G01X9095Y3931D01*
G01X9117Y3939D01*
G01X9139Y3948D01*
G01X9160Y3959D01*
G01X9179Y3973D01*
G01X9197Y3988D01*
G01X9214Y4005D01*
G01X9229Y4023D01*
G01X9243Y4043D01*
G01X9254Y4063D01*
G01X9264Y4085D01*
G01X9271Y4107D01*
G01X9277Y4131D01*
G01X9280Y4154D01*
G01X9281Y4177D01*
G01X9281Y4920D01*
G01X9282Y4953D01*
G01X9281Y4985D01*
G01X9281Y5728D01*
G01X9280Y5751D01*
G01X9277Y5774D01*
G01X9271Y5798D01*
G01X9264Y5820D01*
G01X9254Y5842D01*
G01X9243Y5862D01*
G01X9229Y5882D01*
G01X9214Y5900D01*
G01X9197Y5917D01*
G01X9179Y5932D01*
G01X9160Y5946D01*
G01X9139Y5957D01*
G01X9117Y5966D01*
G01X9095Y5974D01*
G01X9072Y5980D01*
G01X9048Y5983D01*
G01X9025Y5984D01*
G01X8606Y5984D01*
G01X8590Y5985D01*
G01X8575Y5989D01*
G01X8560Y5995D01*
G01X8546Y6004D01*
G01X8534Y6014D01*
G01X5885Y8662D01*
G01X5857Y8690D01*
G01X5795Y8740D01*
G01X5762Y8762D01*
G01X5729Y8783D01*
G01X5694Y8802D01*
G01X5622Y8834D01*
G01X5584Y8847D01*
G01X5546Y8859D01*
G01X5508Y8868D01*
G01X5469Y8875D01*
G01X5430Y8880D01*
G01X5390Y8883D01*
G01X5350Y8884D01*
G01X4950Y8884D01*
G01X4934Y8885D01*
G01X4918Y8889D01*
G01X4903Y8896D01*
G01X4889Y8904D01*
G01X4877Y8915D01*
G01X4818Y8972D01*
G01X4806Y8984D01*
G01X4797Y8998D01*
G01X4790Y9014D01*
G01X4785Y9030D01*
G01X4784Y9047D01*
G01X4785Y9062D01*
G01X4788Y9076D01*
G01X4793Y9090D01*
G01X4800Y9102D01*
G01X4809Y9114D01*
G01X4819Y9124D01*
G01X4831Y9133D01*
G01X4843Y9140D01*
G01X4857Y9145D01*
G01X4871Y9148D01*
G01X4885Y9149D01*
G01X7550Y9149D01*
G01X7565Y9148D01*
G01X7580Y9145D01*
G01X7594Y9139D01*
G01X7607Y9131D01*
G01X7618Y9122D01*
G01X7629Y9111D01*
G01X7637Y9099D01*
G01X7644Y9085D01*
G01X7649Y9071D01*
G01X7655Y9049D01*
G01X7663Y9028D01*
G01X7673Y9007D01*
G01X7685Y8988D01*
G01X7699Y8969D01*
G01X7714Y8952D01*
G01X7730Y8936D01*
G01X7749Y8922D01*
G01X7767Y8910D01*
G01X7788Y8899D01*
G01X7809Y8890D01*
G01X7830Y8883D01*
G01X7853Y8878D01*
G01X7876Y8875D01*
G01X7898Y8874D01*
G01X8898Y8874D01*
G01X8922Y8875D01*
G01X8945Y8878D01*
G01X8968Y8884D01*
G01X8991Y8892D01*
G01X9012Y8901D01*
G01X9033Y8912D01*
G01X9053Y8926D01*
G01X9071Y8941D01*
G01X9088Y8958D01*
G01X9103Y8976D01*
G01X9117Y8996D01*
G01X9128Y9016D01*
G01X9137Y9038D01*
G01X9145Y9060D01*
G01X9151Y9084D01*
G01X9154Y9107D01*
G01X9155Y9130D01*
G01X9155Y10681D01*
G01X9154Y10704D01*
G01X9151Y10727D01*
G01X9145Y10751D01*
G01X9137Y10773D01*
G01X9128Y10795D01*
G01X9117Y10815D01*
G01X9103Y10835D01*
G01X9088Y10853D01*
G01X9071Y10870D01*
G01X9053Y10885D01*
G01X9033Y10899D01*
G01X9012Y10910D01*
G01X8991Y10919D01*
G01X8968Y10927D01*
G01X8945Y10933D01*
G01X8922Y10936D01*
G01X8898Y10937D01*
G01X7898Y10937D01*
G01X7876Y10936D01*
G01X7853Y10933D01*
G01X7830Y10928D01*
G01X7809Y10921D01*
G01X7788Y10912D01*
G01X7767Y10901D01*
G01X7749Y10889D01*
G01X7730Y10875D01*
G01X7714Y10859D01*
G01X7699Y10842D01*
G01X7685Y10823D01*
G01X7673Y10804D01*
G01X7663Y10783D01*
G01X7655Y10762D01*
G01X7649Y10740D01*
G01X7644Y10726D01*
G01X7637Y10712D01*
G01X7629Y10700D01*
G01X7618Y10689D01*
G01X7607Y10680D01*
G01X7594Y10672D01*
G01X7580Y10666D01*
G01X7565Y10663D01*
G01X7550Y10662D01*
G01X5294Y10662D01*
G01X5279Y10663D01*
G01X5264Y10666D01*
G01X5250Y10672D01*
G01X5236Y10680D01*
G01X5225Y10689D01*
G01X5214Y10700D01*
G01X5206Y10713D01*
G01X5199Y10726D01*
G01X5195Y10741D01*
G01X5192Y10756D01*
G01X5188Y10804D01*
G01X5181Y10851D01*
G01X5172Y10899D01*
G01X5161Y10946D01*
G01X5148Y10993D01*
G01X5133Y11038D01*
G01X5117Y11084D01*
G01X5098Y11128D01*
G01X5077Y11172D01*
G01X5055Y11215D01*
G01X5031Y11256D01*
G01X5005Y11297D01*
G01X4977Y11337D01*
G01X4947Y11375D01*
G01X4916Y11412D01*
G01X4884Y11447D01*
G01X4850Y11482D01*
G01X4815Y11514D01*
G01X4778Y11546D01*
G01X4740Y11575D01*
G01X4701Y11603D01*
G01X4660Y11630D01*
G01X4618Y11654D01*
G01X4576Y11677D01*
G01X4532Y11698D01*
G01X4488Y11717D01*
G01X4443Y11734D01*
G01X4397Y11749D01*
G01X4351Y11762D01*
G01X4304Y11773D01*
G01X4257Y11783D01*
G01X4209Y11790D01*
G01X4161Y11795D01*
G01X4112Y11798D01*
G37*
G36*
G01X5195Y5085D02*
G01X4564Y5085D01*
G01X4564Y4455D01*
G01X4938Y4455D01*
G01X4962Y4456D01*
G01X4985Y4459D01*
G01X5008Y4464D01*
G01X5031Y4472D01*
G01X5053Y4482D01*
G01X5073Y4493D01*
G01X5093Y4506D01*
G01X5111Y4522D01*
G01X5128Y4538D01*
G01X5156Y4576D01*
G01X5168Y4597D01*
G01X5177Y4619D01*
G01X5185Y4641D01*
G01X5190Y4664D01*
G01X5193Y4687D01*
G01X5195Y4711D01*
G01X5195Y5085D01*
G37*
G36*
G01X3562Y5085D02*
G01X2932Y5085D01*
G01X2932Y4711D01*
G01X2931Y4711D01*
G01X2933Y4687D01*
G01X2936Y4664D01*
G01X2941Y4641D01*
G01X2949Y4619D01*
G01X2958Y4597D01*
G01X2970Y4576D01*
G01X2983Y4557D01*
G01X2998Y4538D01*
G01X3015Y4522D01*
G01X3033Y4506D01*
G01X3053Y4493D01*
G01X3073Y4482D01*
G01X3095Y4472D01*
G01X3118Y4464D01*
G01X3141Y4459D01*
G01X3164Y4456D01*
G01X3188Y4455D01*
G01X3562Y4455D01*
G01X3562Y5085D01*
G37*
G36*
G01X4938Y6718D02*
G01X4564Y6718D01*
G01X4564Y6087D01*
G01X5195Y6087D01*
G01X5195Y6461D01*
G01X5193Y6485D01*
G01X5190Y6509D01*
G01X5185Y6531D01*
G01X5177Y6554D01*
G01X5168Y6576D01*
G01X5156Y6596D01*
G01X5142Y6616D01*
G01X5128Y6634D01*
G01X5111Y6651D01*
G01X5093Y6666D01*
G01X5073Y6679D01*
G01X5053Y6691D01*
G01X5031Y6701D01*
G01X5008Y6708D01*
G01X4985Y6713D01*
G01X4962Y6717D01*
G01X4938Y6718D01*
G37*
G36*
G01X3562Y6718D02*
G01X3188Y6718D01*
G01X3164Y6717D01*
G01X3141Y6713D01*
G01X3118Y6708D01*
G01X3095Y6701D01*
G01X3073Y6691D01*
G01X3053Y6679D01*
G01X3033Y6666D01*
G01X3015Y6651D01*
G01X2998Y6634D01*
G01X2983Y6616D01*
G01X2970Y6596D01*
G01X2958Y6576D01*
G01X2949Y6554D01*
G01X2941Y6531D01*
G01X2936Y6509D01*
G01X2933Y6485D01*
G01X2931Y6461D01*
G01X2932Y6461D01*
G01X2932Y6087D01*
G01X3562Y6087D01*
G01X3562Y6718D01*
G37*
G36*
G01X13906Y8234D02*
G01X13388Y8234D01*
G01X13388Y8147D01*
G01X13389Y8124D01*
G01X13392Y8101D01*
G01X13397Y8077D01*
G01X13405Y8055D01*
G01X13415Y8033D01*
G01X13426Y8013D01*
G01X13440Y7993D01*
G01X13455Y7975D01*
G01X13472Y7958D01*
G01X13489Y7943D01*
G01X13509Y7929D01*
G01X13530Y7918D01*
G01X13551Y7908D01*
G01X13574Y7901D01*
G01X13597Y7895D01*
G01X13621Y7892D01*
G01X13644Y7891D01*
G01X13906Y7891D01*
G01X13906Y8234D01*
G37*
G36*
G01X15201Y8234D02*
G01X14683Y8234D01*
G01X14683Y7891D01*
G01X14944Y7891D01*
G01X14968Y7892D01*
G01X14992Y7895D01*
G01X15014Y7901D01*
G01X15037Y7908D01*
G01X15059Y7918D01*
G01X15079Y7929D01*
G01X15099Y7943D01*
G01X15117Y7958D01*
G01X15134Y7975D01*
G01X15149Y7993D01*
G01X15162Y8013D01*
G01X15174Y8033D01*
G01X15184Y8055D01*
G01X15191Y8077D01*
G01X15196Y8101D01*
G01X15200Y8124D01*
G01X15201Y8147D01*
G01X15201Y8234D01*
G37*
G36*
G01X23419Y10912D02*
G01X23368Y10913D01*
G01X23316Y10912D01*
G01X23265Y10909D01*
G01X23213Y10904D01*
G01X23162Y10896D01*
G01X23111Y10886D01*
G01X23060Y10875D01*
G01X23010Y10861D01*
G01X22961Y10845D01*
G01X22912Y10828D01*
G01X22865Y10808D01*
G01X22817Y10786D01*
G01X22771Y10762D01*
G01X22726Y10737D01*
G01X22682Y10709D01*
G01X22640Y10680D01*
G01X22598Y10649D01*
G01X22557Y10617D01*
G01X22481Y10547D01*
G01X22445Y10509D01*
G01X22411Y10470D01*
G01X22378Y10430D01*
G01X22347Y10389D01*
G01X22317Y10346D01*
G01X22290Y10302D01*
G01X22264Y10257D01*
G01X22241Y10211D01*
G01X22232Y10197D01*
G01X22222Y10184D01*
G01X22210Y10174D01*
G01X22196Y10166D01*
G01X22181Y10159D01*
G01X22166Y10155D01*
G01X22149Y10154D01*
G01X16694Y10154D01*
G01X16654Y10153D01*
G01X16613Y10150D01*
G01X16573Y10144D01*
G01X16533Y10137D01*
G01X16494Y10127D01*
G01X16455Y10115D01*
G01X16417Y10102D01*
G01X16343Y10068D01*
G01X16308Y10048D01*
G01X16274Y10026D01*
G01X16241Y10003D01*
G01X16209Y9978D01*
G01X16195Y9967D01*
G01X16178Y9960D01*
G01X16162Y9956D01*
G01X16144Y9954D01*
G01X16044Y9954D01*
G01X16021Y9953D01*
G01X15997Y9950D01*
G01X15974Y9944D01*
G01X15952Y9936D01*
G01X15930Y9927D01*
G01X15909Y9916D01*
G01X15890Y9902D01*
G01X15871Y9887D01*
G01X15855Y9870D01*
G01X15839Y9852D01*
G01X15826Y9832D01*
G01X15815Y9812D01*
G01X15805Y9790D01*
G01X15797Y9768D01*
G01X15792Y9744D01*
G01X15789Y9721D01*
G01X15788Y9698D01*
G01X15788Y9097D01*
G01X15789Y9074D01*
G01X15792Y9051D01*
G01X15797Y9027D01*
G01X15805Y9005D01*
G01X15815Y8983D01*
G01X15826Y8963D01*
G01X15839Y8943D01*
G01X15855Y8925D01*
G01X15871Y8908D01*
G01X15890Y8893D01*
G01X15909Y8879D01*
G01X15930Y8868D01*
G01X15952Y8859D01*
G01X15974Y8851D01*
G01X15997Y8845D01*
G01X16021Y8842D01*
G01X16044Y8841D01*
G01X16144Y8841D01*
G01X16161Y8839D01*
G01X16178Y8835D01*
G01X16194Y8828D01*
G01X16209Y8817D01*
G01X16241Y8792D01*
G01X16274Y8769D01*
G01X16308Y8747D01*
G01X16343Y8727D01*
G01X16380Y8709D01*
G01X16417Y8693D01*
G01X16455Y8680D01*
G01X16494Y8668D01*
G01X16533Y8658D01*
G01X16573Y8651D01*
G01X16613Y8645D01*
G01X16654Y8642D01*
G01X16694Y8641D01*
G01X22596Y8641D01*
G01X22612Y8640D01*
G01X22626Y8637D01*
G01X22641Y8630D01*
G01X22654Y8623D01*
G01X22696Y8595D01*
G01X22740Y8569D01*
G01X22784Y8544D01*
G01X22829Y8522D01*
G01X22875Y8501D01*
G01X22922Y8482D01*
G01X22970Y8465D01*
G01X23019Y8450D01*
G01X23067Y8437D01*
G01X23117Y8426D01*
G01X23166Y8417D01*
G01X23217Y8409D01*
G01X23267Y8404D01*
G01X23318Y8401D01*
G01X23369Y8400D01*
G01X23419Y8401D01*
G01X23470Y8404D01*
G01X23520Y8409D01*
G01X23570Y8417D01*
G01X23619Y8425D01*
G01X23669Y8436D01*
G01X23718Y8450D01*
G01X23766Y8465D01*
G01X23814Y8482D01*
G01X23861Y8500D01*
G01X23907Y8521D01*
G01X23952Y8544D01*
G01X23996Y8568D01*
G01X24040Y8594D01*
G01X24082Y8622D01*
G01X24123Y8652D01*
G01X24163Y8683D01*
G01X24202Y8716D01*
G01X24239Y8750D01*
G01X24274Y8786D01*
G01X24309Y8823D01*
G01X24341Y8862D01*
G01X24373Y8902D01*
G01X24402Y8943D01*
G01X24430Y8985D01*
G01X24457Y9028D01*
G01X24481Y9073D01*
G01X24503Y9118D01*
G01X24524Y9164D01*
G01X24543Y9211D01*
G01X24560Y9259D01*
G01X24575Y9307D01*
G01X24588Y9356D01*
G01X24599Y9405D01*
G01X24609Y9455D01*
G01X24616Y9505D01*
G01X24621Y9555D01*
G01X24624Y9606D01*
G01X24625Y9657D01*
G01X24624Y9707D01*
G01X24621Y9758D01*
G01X24616Y9808D01*
G01X24609Y9858D01*
G01X24599Y9908D01*
G01X24588Y9957D01*
G01X24575Y10006D01*
G01X24560Y10054D01*
G01X24543Y10102D01*
G01X24524Y10149D01*
G01X24503Y10195D01*
G01X24481Y10240D01*
G01X24457Y10285D01*
G01X24430Y10328D01*
G01X24402Y10370D01*
G01X24373Y10411D01*
G01X24341Y10451D01*
G01X24309Y10490D01*
G01X24274Y10527D01*
G01X24239Y10563D01*
G01X24202Y10597D01*
G01X24163Y10630D01*
G01X24123Y10661D01*
G01X24082Y10691D01*
G01X24040Y10719D01*
G01X23996Y10745D01*
G01X23952Y10769D01*
G01X23907Y10792D01*
G01X23861Y10813D01*
G01X23814Y10832D01*
G01X23718Y10864D01*
G01X23669Y10877D01*
G01X23619Y10888D01*
G01X23570Y10897D01*
G01X23520Y10904D01*
G01X23470Y10909D01*
G01X23419Y10912D01*
G37*
G36*
G01X14944Y9004D02*
G01X14683Y9004D01*
G01X14683Y8661D01*
G01X15201Y8661D01*
G01X15201Y8747D01*
G01X15200Y8771D01*
G01X15196Y8795D01*
G01X15191Y8818D01*
G01X15184Y8840D01*
G01X15174Y8862D01*
G01X15162Y8882D01*
G01X15149Y8902D01*
G01X15134Y8920D01*
G01X15117Y8937D01*
G01X15099Y8952D01*
G01X15079Y8966D01*
G01X15059Y8977D01*
G01X15037Y8987D01*
G01X15014Y8994D01*
G01X14992Y9000D01*
G01X14968Y9003D01*
G01X14944Y9004D01*
G37*
G36*
G01X13906Y9004D02*
G01X13644Y9004D01*
G01X13621Y9003D01*
G01X13597Y9000D01*
G01X13574Y8994D01*
G01X13551Y8987D01*
G01X13530Y8977D01*
G01X13509Y8966D01*
G01X13489Y8952D01*
G01X13472Y8937D01*
G01X13455Y8920D01*
G01X13440Y8902D01*
G01X13426Y8882D01*
G01X13415Y8862D01*
G01X13405Y8840D01*
G01X13397Y8818D01*
G01X13392Y8795D01*
G01X13389Y8771D01*
G01X13388Y8747D01*
G01X13388Y8661D01*
G01X13906Y8661D01*
G01X13906Y9004D01*
G37*
G36*
G01X14294Y11104D02*
G01X10840Y11104D01*
G01X10800Y11103D01*
G01X10760Y11100D01*
G01X10721Y11094D01*
G01X10681Y11087D01*
G01X10643Y11077D01*
G01X10605Y11066D01*
G01X10566Y11053D01*
G01X10530Y11037D01*
G01X10494Y11020D01*
G01X10459Y11001D01*
G01X10425Y10979D01*
G01X10392Y10957D01*
G01X10378Y10948D01*
G01X10363Y10942D01*
G01X10348Y10938D01*
G01X10332Y10937D01*
G01X9898Y10937D01*
G01X9875Y10936D01*
G01X9851Y10933D01*
G01X9828Y10927D01*
G01X9805Y10919D01*
G01X9784Y10910D01*
G01X9763Y10899D01*
G01X9743Y10885D01*
G01X9726Y10870D01*
G01X9709Y10853D01*
G01X9694Y10835D01*
G01X9680Y10815D01*
G01X9669Y10795D01*
G01X9659Y10773D01*
G01X9652Y10751D01*
G01X9646Y10727D01*
G01X9643Y10704D01*
G01X9642Y10681D01*
G01X9642Y9130D01*
G01X9643Y9107D01*
G01X9646Y9084D01*
G01X9652Y9060D01*
G01X9659Y9038D01*
G01X9669Y9016D01*
G01X9680Y8996D01*
G01X9694Y8976D01*
G01X9709Y8958D01*
G01X9726Y8941D01*
G01X9743Y8926D01*
G01X9763Y8912D01*
G01X9784Y8901D01*
G01X9805Y8892D01*
G01X9828Y8884D01*
G01X9851Y8878D01*
G01X9875Y8875D01*
G01X9898Y8874D01*
G01X10898Y8874D01*
G01X10922Y8875D01*
G01X10945Y8878D01*
G01X10968Y8884D01*
G01X10991Y8892D01*
G01X11012Y8901D01*
G01X11033Y8912D01*
G01X11053Y8926D01*
G01X11071Y8941D01*
G01X11088Y8958D01*
G01X11103Y8976D01*
G01X11117Y8996D01*
G01X11128Y9016D01*
G01X11137Y9038D01*
G01X11145Y9060D01*
G01X11151Y9084D01*
G01X11154Y9107D01*
G01X11155Y9130D01*
G01X11155Y9489D01*
G01X11156Y9504D01*
G01X11159Y9518D01*
G01X11164Y9532D01*
G01X11171Y9544D01*
G01X11180Y9556D01*
G01X11190Y9566D01*
G01X11201Y9575D01*
G01X11214Y9582D01*
G01X11242Y9590D01*
G01X11256Y9591D01*
G01X14294Y9591D01*
G01X14335Y9592D01*
G01X14375Y9595D01*
G01X14416Y9601D01*
G01X14455Y9608D01*
G01X14495Y9618D01*
G01X14533Y9630D01*
G01X14571Y9643D01*
G01X14609Y9659D01*
G01X14645Y9677D01*
G01X14681Y9697D01*
G01X14715Y9719D01*
G01X14748Y9742D01*
G01X14780Y9767D01*
G01X14794Y9777D01*
G01X14810Y9785D01*
G01X14828Y9789D01*
G01X14845Y9791D01*
G01X14944Y9791D01*
G01X14968Y9792D01*
G01X14992Y9795D01*
G01X15014Y9801D01*
G01X15037Y9808D01*
G01X15059Y9818D01*
G01X15079Y9829D01*
G01X15099Y9843D01*
G01X15117Y9858D01*
G01X15134Y9875D01*
G01X15149Y9893D01*
G01X15162Y9913D01*
G01X15174Y9933D01*
G01X15184Y9955D01*
G01X15191Y9977D01*
G01X15196Y10000D01*
G01X15200Y10024D01*
G01X15201Y10048D01*
G01X15201Y10648D01*
G01X15200Y10671D01*
G01X15196Y10694D01*
G01X15191Y10718D01*
G01X15184Y10740D01*
G01X15174Y10762D01*
G01X15162Y10782D01*
G01X15149Y10802D01*
G01X15134Y10820D01*
G01X15117Y10837D01*
G01X15099Y10852D01*
G01X15079Y10866D01*
G01X15059Y10877D01*
G01X15037Y10887D01*
G01X15014Y10894D01*
G01X14992Y10900D01*
G01X14968Y10903D01*
G01X14944Y10904D01*
G01X14845Y10904D01*
G01X14827Y10906D01*
G01X14810Y10910D01*
G01X14794Y10917D01*
G01X14780Y10928D01*
G01X14748Y10953D01*
G01X14715Y10976D01*
G01X14680Y10998D01*
G01X14645Y11018D01*
G01X14609Y11035D01*
G01X14571Y11052D01*
G01X14533Y11065D01*
G01X14494Y11077D01*
G01X14455Y11087D01*
G01X14416Y11094D01*
G01X14375Y11100D01*
G01X14335Y11103D01*
G01X14294Y11104D01*
G37*
G36*
G01X8771Y15128D02*
G01X7770Y15128D01*
G01X7748Y15127D01*
G01X7725Y15124D01*
G01X7703Y15119D01*
G01X7681Y15112D01*
G01X7660Y15103D01*
G01X7640Y15092D01*
G01X7621Y15080D01*
G01X7603Y15066D01*
G01X7586Y15050D01*
G01X7571Y15033D01*
G01X7545Y14995D01*
G01X7527Y14953D01*
G01X7521Y14931D01*
G01X7516Y14917D01*
G01X7510Y14903D01*
G01X7501Y14891D01*
G01X7491Y14880D01*
G01X7479Y14871D01*
G01X7466Y14863D01*
G01X7452Y14857D01*
G01X7437Y14854D01*
G01X7422Y14853D01*
G01X4954Y14853D01*
G01X4914Y14852D01*
G01X4874Y14849D01*
G01X4835Y14844D01*
G01X4796Y14837D01*
G01X4757Y14828D01*
G01X4719Y14816D01*
G01X4682Y14803D01*
G01X4610Y14771D01*
G01X4575Y14752D01*
G01X4541Y14731D01*
G01X4509Y14709D01*
G01X4477Y14684D01*
G01X4447Y14659D01*
G01X4418Y14631D01*
G01X4155Y14369D01*
G01X4143Y14358D01*
G01X4130Y14350D01*
G01X4115Y14344D01*
G01X4100Y14340D01*
G01X4084Y14339D01*
G01X4065Y14339D01*
G01X4016Y14338D01*
G01X3969Y14335D01*
G01X3921Y14330D01*
G01X3873Y14323D01*
G01X3826Y14314D01*
G01X3779Y14303D01*
G01X3733Y14290D01*
G01X3687Y14274D01*
G01X3642Y14258D01*
G01X3598Y14239D01*
G01X3555Y14218D01*
G01X3512Y14196D01*
G01X3471Y14171D01*
G01X3431Y14145D01*
G01X3391Y14117D01*
G01X3353Y14088D01*
G01X3317Y14057D01*
G01X3281Y14024D01*
G01X3247Y13990D01*
G01X3215Y13955D01*
G01X3184Y13918D01*
G01X3155Y13881D01*
G01X3127Y13841D01*
G01X3101Y13801D01*
G01X3076Y13759D01*
G01X3054Y13717D01*
G01X3033Y13674D01*
G01X3014Y13630D01*
G01X2997Y13584D01*
G01X2982Y13539D01*
G01X2969Y13492D01*
G01X2958Y13446D01*
G01X2949Y13399D01*
G01X2942Y13351D01*
G01X2937Y13304D01*
G01X2934Y13256D01*
G01X2933Y13208D01*
G01X2934Y13159D01*
G01X2937Y13111D01*
G01X2942Y13064D01*
G01X2949Y13016D01*
G01X2958Y12969D01*
G01X2969Y12923D01*
G01X2982Y12876D01*
G01X2997Y12831D01*
G01X3014Y12785D01*
G01X3033Y12741D01*
G01X3054Y12698D01*
G01X3076Y12656D01*
G01X3101Y12614D01*
G01X3127Y12574D01*
G01X3155Y12534D01*
G01X3184Y12497D01*
G01X3215Y12460D01*
G01X3247Y12425D01*
G01X3281Y12391D01*
G01X3317Y12358D01*
G01X3353Y12327D01*
G01X3391Y12298D01*
G01X3431Y12270D01*
G01X3471Y12244D01*
G01X3512Y12219D01*
G01X3555Y12197D01*
G01X3598Y12176D01*
G01X3642Y12157D01*
G01X3687Y12141D01*
G01X3733Y12125D01*
G01X3779Y12112D01*
G01X3826Y12101D01*
G01X3873Y12092D01*
G01X3921Y12085D01*
G01X3969Y12080D01*
G01X4016Y12077D01*
G01X4065Y12076D01*
G01X4112Y12077D01*
G01X4160Y12080D01*
G01X4208Y12085D01*
G01X4256Y12092D01*
G01X4303Y12101D01*
G01X4350Y12112D01*
G01X4396Y12125D01*
G01X4486Y12157D01*
G01X4530Y12176D01*
G01X4574Y12197D01*
G01X4616Y12219D01*
G01X4657Y12244D01*
G01X4698Y12270D01*
G01X4737Y12298D01*
G01X4775Y12327D01*
G01X4812Y12358D01*
G01X4847Y12391D01*
G01X4881Y12425D01*
G01X4914Y12460D01*
G01X4945Y12497D01*
G01X4974Y12534D01*
G01X5002Y12574D01*
G01X5028Y12614D01*
G01X5052Y12656D01*
G01X5074Y12698D01*
G01X5095Y12741D01*
G01X5114Y12785D01*
G01X5131Y12831D01*
G01X5146Y12876D01*
G01X5159Y12923D01*
G01X5170Y12969D01*
G01X5180Y13016D01*
G01X5187Y13064D01*
G01X5192Y13111D01*
G01X5195Y13159D01*
G01X5196Y13208D01*
G01X5196Y13227D01*
G01X5197Y13243D01*
G01X5200Y13258D01*
G01X5207Y13273D01*
G01X5215Y13287D01*
G01X5225Y13299D01*
G01X5249Y13321D01*
G01X5262Y13329D01*
G01X5277Y13335D01*
G01X5293Y13339D01*
G01X5309Y13340D01*
G01X7422Y13340D01*
G01X7437Y13339D01*
G01X7452Y13336D01*
G01X7466Y13330D01*
G01X7479Y13322D01*
G01X7491Y13313D01*
G01X7501Y13302D01*
G01X7510Y13290D01*
G01X7516Y13276D01*
G01X7521Y13262D01*
G01X7527Y13240D01*
G01X7545Y13198D01*
G01X7571Y13160D01*
G01X7586Y13143D01*
G01X7603Y13127D01*
G01X7621Y13113D01*
G01X7640Y13101D01*
G01X7660Y13090D01*
G01X7681Y13081D01*
G01X7703Y13074D01*
G01X7725Y13069D01*
G01X7748Y13066D01*
G01X7770Y13065D01*
G01X8771Y13065D01*
G01X8794Y13066D01*
G01X8818Y13069D01*
G01X8841Y13075D01*
G01X8863Y13083D01*
G01X8885Y13092D01*
G01X8906Y13103D01*
G01X8925Y13117D01*
G01X8943Y13132D01*
G01X8960Y13149D01*
G01X8975Y13167D01*
G01X8989Y13187D01*
G01X9000Y13207D01*
G01X9010Y13229D01*
G01X9017Y13251D01*
G01X9023Y13275D01*
G01X9026Y13298D01*
G01X9027Y13321D01*
G01X9027Y14064D01*
G01X9028Y14097D01*
G01X9027Y14129D01*
G01X9027Y14872D01*
G01X9026Y14895D01*
G01X9023Y14918D01*
G01X9017Y14942D01*
G01X9010Y14964D01*
G01X9000Y14986D01*
G01X8989Y15006D01*
G01X8975Y15026D01*
G01X8960Y15044D01*
G01X8943Y15061D01*
G01X8925Y15076D01*
G01X8906Y15090D01*
G01X8885Y15101D01*
G01X8863Y15110D01*
G01X8841Y15118D01*
G01X8818Y15124D01*
G01X8794Y15127D01*
G01X8771Y15128D01*
G37*
G36*
G01X14040Y16311D02*
G01X11729Y16311D01*
G01X11690Y16310D01*
G01X11650Y16307D01*
G01X11611Y16302D01*
G01X11572Y16295D01*
G01X11533Y16285D01*
G01X11496Y16274D01*
G01X11458Y16261D01*
G01X11421Y16245D01*
G01X11386Y16229D01*
G01X11351Y16210D01*
G01X11317Y16189D01*
G01X11285Y16167D01*
G01X11253Y16142D01*
G01X11223Y16117D01*
G01X11194Y16089D01*
G01X10263Y15158D01*
G01X10250Y15148D01*
G01X10237Y15139D01*
G01X10222Y15133D01*
G01X10207Y15129D01*
G01X10191Y15128D01*
G01X9770Y15128D01*
G01X9747Y15127D01*
G01X9723Y15124D01*
G01X9700Y15118D01*
G01X9678Y15110D01*
G01X9656Y15101D01*
G01X9635Y15090D01*
G01X9616Y15076D01*
G01X9598Y15061D01*
G01X9581Y15044D01*
G01X9566Y15026D01*
G01X9552Y15006D01*
G01X9541Y14986D01*
G01X9531Y14964D01*
G01X9524Y14942D01*
G01X9518Y14918D01*
G01X9515Y14895D01*
G01X9514Y14872D01*
G01X9514Y13321D01*
G01X9515Y13298D01*
G01X9518Y13275D01*
G01X9524Y13251D01*
G01X9531Y13229D01*
G01X9541Y13207D01*
G01X9552Y13187D01*
G01X9566Y13167D01*
G01X9581Y13149D01*
G01X9598Y13132D01*
G01X9616Y13117D01*
G01X9635Y13103D01*
G01X9656Y13092D01*
G01X9678Y13083D01*
G01X9700Y13075D01*
G01X9723Y13069D01*
G01X9747Y13066D01*
G01X9770Y13065D01*
G01X10771Y13065D01*
G01X10794Y13066D01*
G01X10818Y13069D01*
G01X10841Y13075D01*
G01X10863Y13083D01*
G01X10885Y13092D01*
G01X10906Y13103D01*
G01X10925Y13117D01*
G01X10943Y13132D01*
G01X10960Y13149D01*
G01X10975Y13167D01*
G01X10989Y13187D01*
G01X11000Y13207D01*
G01X11010Y13229D01*
G01X11017Y13251D01*
G01X11023Y13275D01*
G01X11026Y13298D01*
G01X11027Y13321D01*
G01X11027Y13740D01*
G01X11028Y13756D01*
G01X11032Y13772D01*
G01X11038Y13787D01*
G01X11046Y13800D01*
G01X11057Y13812D01*
G01X12013Y14768D01*
G01X12025Y14778D01*
G01X12039Y14787D01*
G01X12053Y14793D01*
G01X12069Y14797D01*
G01X12085Y14798D01*
G01X14040Y14798D01*
G01X14081Y14799D01*
G01X14121Y14802D01*
G01X14162Y14808D01*
G01X14201Y14815D01*
G01X14241Y14825D01*
G01X14279Y14837D01*
G01X14317Y14850D01*
G01X14355Y14866D01*
G01X14391Y14884D01*
G01X14427Y14904D01*
G01X14461Y14926D01*
G01X14494Y14949D01*
G01X14526Y14974D01*
G01X14540Y14984D01*
G01X14556Y14992D01*
G01X14574Y14996D01*
G01X14591Y14998D01*
G01X14690Y14998D01*
G01X14714Y14999D01*
G01X14738Y15002D01*
G01X14760Y15008D01*
G01X14783Y15015D01*
G01X14805Y15025D01*
G01X14825Y15036D01*
G01X14845Y15050D01*
G01X14863Y15065D01*
G01X14880Y15082D01*
G01X14895Y15100D01*
G01X14908Y15120D01*
G01X14920Y15140D01*
G01X14930Y15162D01*
G01X14937Y15184D01*
G01X14942Y15207D01*
G01X14946Y15231D01*
G01X14947Y15255D01*
G01X14947Y15855D01*
G01X14946Y15878D01*
G01X14942Y15901D01*
G01X14937Y15925D01*
G01X14930Y15947D01*
G01X14920Y15969D01*
G01X14908Y15989D01*
G01X14895Y16009D01*
G01X14880Y16027D01*
G01X14863Y16044D01*
G01X14845Y16059D01*
G01X14825Y16073D01*
G01X14805Y16084D01*
G01X14783Y16094D01*
G01X14760Y16101D01*
G01X14738Y16107D01*
G01X14714Y16110D01*
G01X14690Y16111D01*
G01X14591Y16111D01*
G01X14573Y16113D01*
G01X14556Y16117D01*
G01X14540Y16124D01*
G01X14526Y16135D01*
G01X14494Y16160D01*
G01X14461Y16183D01*
G01X14426Y16205D01*
G01X14391Y16225D01*
G01X14355Y16242D01*
G01X14317Y16259D01*
G01X14279Y16272D01*
G01X14240Y16284D01*
G01X14201Y16294D01*
G01X14162Y16301D01*
G01X14121Y16307D01*
G01X14081Y16310D01*
G01X14040Y16311D01*
G37*
G36*
G01X13652Y13441D02*
G01X13134Y13441D01*
G01X13134Y13354D01*
G01X13135Y13331D01*
G01X13138Y13308D01*
G01X13143Y13284D01*
G01X13151Y13262D01*
G01X13161Y13240D01*
G01X13172Y13220D01*
G01X13186Y13200D01*
G01X13201Y13182D01*
G01X13218Y13165D01*
G01X13235Y13150D01*
G01X13255Y13136D01*
G01X13276Y13125D01*
G01X13297Y13115D01*
G01X13320Y13108D01*
G01X13343Y13102D01*
G01X13367Y13099D01*
G01X13390Y13098D01*
G01X13652Y13098D01*
G01X13652Y13441D01*
G37*
G36*
G01X14947Y13441D02*
G01X14429Y13441D01*
G01X14429Y13098D01*
G01X14690Y13098D01*
G01X14714Y13099D01*
G01X14738Y13102D01*
G01X14760Y13108D01*
G01X14783Y13115D01*
G01X14805Y13125D01*
G01X14825Y13136D01*
G01X14845Y13150D01*
G01X14863Y13165D01*
G01X14880Y13182D01*
G01X14895Y13200D01*
G01X14908Y13220D01*
G01X14920Y13240D01*
G01X14930Y13262D01*
G01X14937Y13284D01*
G01X14942Y13308D01*
G01X14946Y13331D01*
G01X14947Y13354D01*
G01X14947Y13441D01*
G37*
G36*
G01X23419Y15912D02*
G01X23368Y15913D01*
G01X23317Y15912D01*
G01X23266Y15909D01*
G01X23215Y15904D01*
G01X23165Y15896D01*
G01X23115Y15887D01*
G01X23065Y15876D01*
G01X23015Y15862D01*
G01X22967Y15847D01*
G01X22918Y15830D01*
G01X22824Y15790D01*
G01X22779Y15766D01*
G01X22735Y15741D01*
G01X22691Y15715D01*
G01X22648Y15687D01*
G01X22607Y15657D01*
G01X22567Y15625D01*
G01X22528Y15591D01*
G01X22491Y15556D01*
G01X22455Y15520D01*
G01X22421Y15482D01*
G01X22388Y15443D01*
G01X22357Y15402D01*
G01X22346Y15390D01*
G01X22335Y15380D01*
G01X22321Y15372D01*
G01X22306Y15366D01*
G01X22291Y15362D01*
G01X22275Y15361D01*
G01X16440Y15361D01*
G01X16400Y15360D01*
G01X16359Y15357D01*
G01X16319Y15351D01*
G01X16279Y15344D01*
G01X16240Y15334D01*
G01X16201Y15322D01*
G01X16163Y15309D01*
G01X16089Y15275D01*
G01X16054Y15255D01*
G01X16020Y15233D01*
G01X15987Y15210D01*
G01X15955Y15185D01*
G01X15941Y15174D01*
G01X15924Y15167D01*
G01X15908Y15163D01*
G01X15890Y15161D01*
G01X15790Y15161D01*
G01X15767Y15160D01*
G01X15743Y15157D01*
G01X15720Y15151D01*
G01X15698Y15143D01*
G01X15676Y15134D01*
G01X15655Y15123D01*
G01X15636Y15109D01*
G01X15617Y15094D01*
G01X15601Y15077D01*
G01X15585Y15059D01*
G01X15572Y15039D01*
G01X15561Y15019D01*
G01X15551Y14997D01*
G01X15543Y14975D01*
G01X15538Y14951D01*
G01X15535Y14928D01*
G01X15534Y14905D01*
G01X15534Y14304D01*
G01X15535Y14281D01*
G01X15538Y14258D01*
G01X15543Y14234D01*
G01X15551Y14212D01*
G01X15561Y14190D01*
G01X15572Y14170D01*
G01X15585Y14150D01*
G01X15601Y14132D01*
G01X15617Y14115D01*
G01X15636Y14100D01*
G01X15655Y14086D01*
G01X15676Y14075D01*
G01X15698Y14066D01*
G01X15720Y14058D01*
G01X15743Y14052D01*
G01X15767Y14049D01*
G01X15790Y14048D01*
G01X15890Y14048D01*
G01X15907Y14046D01*
G01X15924Y14042D01*
G01X15940Y14035D01*
G01X15955Y14024D01*
G01X15987Y13999D01*
G01X16020Y13976D01*
G01X16054Y13954D01*
G01X16089Y13934D01*
G01X16126Y13916D01*
G01X16163Y13900D01*
G01X16201Y13887D01*
G01X16240Y13875D01*
G01X16279Y13865D01*
G01X16319Y13858D01*
G01X16359Y13852D01*
G01X16400Y13849D01*
G01X16440Y13848D01*
G01X22360Y13848D01*
G01X22377Y13847D01*
G01X22394Y13843D01*
G01X22409Y13835D01*
G01X22423Y13826D01*
G01X22436Y13815D01*
G01X22472Y13776D01*
G01X22509Y13739D01*
G01X22549Y13704D01*
G01X22589Y13671D01*
G01X22631Y13639D01*
G01X22674Y13609D01*
G01X22718Y13581D01*
G01X22764Y13555D01*
G01X22810Y13531D01*
G01X22858Y13508D01*
G01X22906Y13488D01*
G01X22956Y13470D01*
G01X23006Y13453D01*
G01X23056Y13439D01*
G01X23107Y13427D01*
G01X23159Y13418D01*
G01X23211Y13410D01*
G01X23263Y13405D01*
G01X23316Y13401D01*
G01X23368Y13400D01*
G01X23419Y13401D01*
G01X23470Y13404D01*
G01X23520Y13409D01*
G01X23570Y13416D01*
G01X23619Y13425D01*
G01X23669Y13437D01*
G01X23718Y13450D01*
G01X23766Y13465D01*
G01X23814Y13482D01*
G01X23861Y13501D01*
G01X23907Y13521D01*
G01X23952Y13544D01*
G01X23996Y13568D01*
G01X24040Y13595D01*
G01X24082Y13623D01*
G01X24123Y13652D01*
G01X24163Y13683D01*
G01X24202Y13716D01*
G01X24239Y13751D01*
G01X24274Y13786D01*
G01X24309Y13823D01*
G01X24341Y13862D01*
G01X24373Y13902D01*
G01X24402Y13943D01*
G01X24430Y13985D01*
G01X24457Y14028D01*
G01X24481Y14073D01*
G01X24503Y14118D01*
G01X24524Y14164D01*
G01X24543Y14211D01*
G01X24560Y14259D01*
G01X24575Y14307D01*
G01X24588Y14356D01*
G01X24599Y14405D01*
G01X24609Y14455D01*
G01X24616Y14505D01*
G01X24621Y14555D01*
G01X24624Y14606D01*
G01X24625Y14656D01*
G01X24624Y14707D01*
G01X24621Y14758D01*
G01X24616Y14808D01*
G01X24609Y14858D01*
G01X24599Y14908D01*
G01X24588Y14957D01*
G01X24575Y15006D01*
G01X24560Y15055D01*
G01X24543Y15102D01*
G01X24524Y15149D01*
G01X24503Y15195D01*
G01X24481Y15241D01*
G01X24457Y15285D01*
G01X24430Y15328D01*
G01X24402Y15371D01*
G01X24373Y15411D01*
G01X24341Y15451D01*
G01X24309Y15490D01*
G01X24274Y15527D01*
G01X24239Y15563D01*
G01X24202Y15597D01*
G01X24163Y15630D01*
G01X24123Y15661D01*
G01X24082Y15691D01*
G01X24040Y15719D01*
G01X23996Y15745D01*
G01X23952Y15769D01*
G01X23907Y15792D01*
G01X23861Y15813D01*
G01X23814Y15831D01*
G01X23766Y15849D01*
G01X23718Y15863D01*
G01X23669Y15877D01*
G01X23619Y15888D01*
G01X23570Y15897D01*
G01X23520Y15904D01*
G01X23470Y15909D01*
G01X23419Y15912D01*
G37*
G36*
G01X14690Y14211D02*
G01X14429Y14211D01*
G01X14429Y13868D01*
G01X14947Y13868D01*
G01X14947Y13954D01*
G01X14946Y13978D01*
G01X14942Y14002D01*
G01X14937Y14025D01*
G01X14930Y14047D01*
G01X14920Y14069D01*
G01X14908Y14089D01*
G01X14895Y14109D01*
G01X14880Y14127D01*
G01X14863Y14144D01*
G01X14845Y14159D01*
G01X14825Y14173D01*
G01X14805Y14184D01*
G01X14783Y14194D01*
G01X14760Y14201D01*
G01X14738Y14207D01*
G01X14714Y14210D01*
G01X14690Y14211D01*
G37*
G36*
G01X13652Y14211D02*
G01X13390Y14211D01*
G01X13367Y14210D01*
G01X13343Y14207D01*
G01X13320Y14201D01*
G01X13297Y14194D01*
G01X13276Y14184D01*
G01X13255Y14173D01*
G01X13235Y14159D01*
G01X13218Y14144D01*
G01X13201Y14127D01*
G01X13186Y14109D01*
G01X13172Y14089D01*
G01X13161Y14069D01*
G01X13151Y14047D01*
G01X13143Y14025D01*
G01X13138Y14002D01*
G01X13135Y13978D01*
G01X13134Y13954D01*
G01X13134Y13868D01*
G01X13652Y13868D01*
G01X13652Y14211D01*
G37*

%LPD*%
G54D10*
G01X16694Y9397D02*
G01X23109Y9397D01*
G01X23368Y9657D01*
G01X16440Y14604D02*
G01X23316Y14604D01*
G01X23368Y14657D01*
G01X16440Y4571D02*
G01X23283Y4571D01*
G01X23368Y4657D01*
G01X10525Y4953D02*
G01X11094Y5521D01*
G01X14040Y5521D01*
G01X8525Y4953D02*
G01X5350Y8128D01*
G01X4064Y8128D01*
G01X10271Y14097D02*
G01X11729Y15554D01*
G01X14040Y15554D01*
G01X10398Y9906D02*
G01X10840Y10347D01*
G01X14294Y10347D01*
G01X4064Y10668D02*
G01X4826Y9906D01*
G01X8398Y9906D01*
G01X4064Y13208D02*
G01X4953Y14097D01*
G01X8271Y14097D01*
G54D11*
G01X8398Y9906D03*
G01X10398Y9906D03*
G36*
G01X13644Y8747D02*
G01X14944Y8747D01*
G01X14944Y8147D01*
G01X13644Y8147D01*
G01X13644Y8747D01*
G37*
G36*
G01X16044Y9697D02*
G01X17344Y9697D01*
G01X17344Y9098D01*
G01X16044Y9098D01*
G01X16044Y9697D01*
G37*
G36*
G01X13644Y10648D02*
G01X14944Y10648D01*
G01X14944Y10048D01*
G01X13644Y10048D01*
G01X13644Y10648D01*
G37*
G36*
G01X13390Y13954D02*
G01X14690Y13954D01*
G01X14690Y13354D01*
G01X13390Y13354D01*
G01X13390Y13954D01*
G37*
G36*
G01X15790Y14904D02*
G01X17090Y14904D01*
G01X17090Y14305D01*
G01X15790Y14305D01*
G01X15790Y14904D01*
G37*
G36*
G01X13390Y15855D02*
G01X14690Y15855D01*
G01X14690Y15255D01*
G01X13390Y15255D01*
G01X13390Y15855D01*
G37*
G36*
G01X13390Y3921D02*
G01X14690Y3921D01*
G01X14690Y3321D01*
G01X13390Y3321D01*
G01X13390Y3921D01*
G37*
G36*
G01X15790Y4871D02*
G01X17090Y4871D01*
G01X17090Y4272D01*
G01X15790Y4272D01*
G01X15790Y4871D01*
G37*
G36*
G01X13390Y5822D02*
G01X14690Y5822D01*
G01X14690Y5222D01*
G01X13390Y5222D01*
G01X13390Y5822D01*
G37*
G01X8271Y14097D03*
G01X10270Y14097D03*
G01X8525Y4953D03*
G01X10524Y4953D03*
G54D13*
G01X4064Y13208D03*
G01X4064Y10668D03*
G01X4064Y8128D03*
G54D14*
G01X4063Y5586D03*
G54D15*
G01X23368Y14657D03*
G01X23368Y9657D03*
G01X23368Y4657D03*
M00*
M02*
