M48
; DRILL file {KiCad (5.1.8-0-10_14)} date Thursday, March 11, 2021 at 10:09:48 AM
; FORMAT={-:-/ absolute / inch / decimal}
; #@! TF.CreationDate,2021-03-11T10:09:48+11:00
; #@! TF.GenerationSoftware,Kicad,Pcbnew,(5.1.8-0-10_14)
; #@! TF.FileFunction,Plated,1,2,PTH
FMAT,2
INCH
T1C0.0157
T2C0.0315
T3C0.0551
%
G90
G05
T1
X5.374Y-3.0906
X5.374Y-3.7992
X5.374Y-4.5079
X5.374Y-5.1969
X5.374Y-5.8858
X5.374Y-6.5748
X5.374Y-7.2441
X5.374Y-7.9724
X5.374Y-8.7008
X5.4724Y-3.189
X5.4724Y-3.8976
X5.4724Y-4.5669
X5.4724Y-5.2559
X5.4724Y-5.9252
X5.4724Y-6.6535
X5.4724Y-7.3228
X5.4724Y-8.0315
X5.4724Y-8.6614
X5.5709Y-3.2677
X5.5709Y-3.9567
X5.5709Y-4.6457
X5.5709Y-5.3346
X5.5709Y-6.0236
X5.5709Y-6.7126
X5.5709Y-7.3819
X5.5709Y-8.1102
X5.5709Y-8.563
X5.6102Y-8.7795
X5.6339Y-3.0906
X5.6339Y-3.2087
X5.6339Y-3.8386
X5.6339Y-3.8976
X5.6339Y-4.5079
X5.6339Y-4.5669
X5.6339Y-5.1969
X5.6339Y-5.2756
X5.6339Y-5.8858
X5.6339Y-5.9646
X5.6339Y-6.5748
X5.6339Y-6.6535
X5.6339Y-7.2638
X5.6339Y-7.3425
X5.6339Y-7.9724
X5.6339Y-8.0315
X5.6496Y-8.5039
X6.4764Y-3.9173
X6.5354Y-3.9173
X7.0472Y-3.4646
X7.0472Y-3.7402
X7.3819Y-3.4646
X7.3819Y-3.7402
X7.7362Y-3.4646
X7.7362Y-3.7402
X8.1575Y-3.5748
X8.248Y-3.1102
X8.248Y-3.7992
X8.248Y-4.4882
X8.248Y-5.1772
X8.248Y-5.8661
X8.248Y-6.5748
X8.248Y-7.2441
X8.248Y-7.9331
X8.248Y-8.5827
X8.3465Y-3.1693
X8.3465Y-3.878
X8.3465Y-4.5669
X8.3465Y-5.2559
X8.3465Y-5.9449
X8.3465Y-6.6339
X8.3465Y-7.3228
X8.3465Y-8.0118
X8.3465Y-8.6811
X8.5236Y-3.1299
X8.5236Y-3.2087
X8.5236Y-3.8189
X8.5236Y-3.8976
X8.5236Y-4.5079
X8.5433Y-4.5866
X8.5433Y-5.1772
X8.5433Y-5.2559
X8.5433Y-5.8858
X8.5433Y-5.9449
X8.5433Y-6.5748
X8.5433Y-6.6535
X8.5433Y-7.2638
X8.5433Y-7.3228
X8.5433Y-7.9528
X8.5433Y-8.0118
X8.5433Y-8.6417
X8.5433Y-8.7205
X8.5551Y-3.5039
T2
X5.374Y-4.0748
X5.4724Y-3.6417
X5.5709Y-3.3858
X5.6614Y-8.3661
X5.6693Y-7.8425
X5.6772Y-3.7205
X5.6772Y-4.3031
X5.6772Y-5.0315
X5.6772Y-7.1063
X5.685Y-5.7244
X5.685Y-6.4055
X6.0551Y-8.4606
X8.248Y-4.0354
X8.3465Y-3.6614
X8.4449Y-3.3858
X8.5551Y-7.0394
X8.5591Y-3.5984
X8.563Y-4.122
X8.563Y-5.7008
X8.563Y-6.3346
X8.5669Y-4.9291
X8.5748Y-2.8346
X8.5748Y-7.6772
X8.5906Y-8.4134
T3
X6.2756Y-3.4071
X6.2756Y-3.6071
X6.2756Y-3.8071
X6.2756Y-4.0071
X6.2756Y-4.2071
T0
M30
