G04 Layer: TopPasteMaskLayer*
G04 EasyEDA v6.3.22, 2020-03-24T12:14:19+11:00*
G04 be55d0e875064f4eac6341afbdbda93d,8b00c40d607e4de580d566db1ee26a9b,10*
G04 Gerber Generator version 0.2*
G04 Scale: 100 percent, Rotated: No, Reflected: No *
G04 Dimensions in millimeters *
G04 leading zeros omitted , absolute positions ,3 integer and 3 decimal *
%FSLAX33Y33*%
%MOMM*%
G90*
G71D02*

%ADD13R,0.999998X1.550010*%
%ADD14R,1.160018X1.450010*%
%ADD15R,1.998980X3.200400*%
%ADD17R,0.799998X1.799996*%

%LPD*%
G54D13*
G01X23859Y22055D03*
G01X21860Y22055D03*
G54D14*
G01X50800Y11557D03*
G01X52832Y11557D03*
G54D13*
G01X9688Y20764D03*
G01X7688Y20764D03*
G01X57768Y15438D03*
G01X55769Y15438D03*
G01X23859Y26289D03*
G01X21860Y26289D03*
G01X29574Y22182D03*
G01X27575Y22182D03*
G54D15*
G01X46812Y13970D03*
G01X40309Y13970D03*
G54D14*
G01X50800Y15437D03*
G01X52832Y15437D03*
G01X14351Y26162D03*
G01X16383Y26162D03*
G01X9144Y26162D03*
G01X11176Y26162D03*
G01X7683Y15875D03*
G01X9715Y15875D03*
G01X7683Y11119D03*
G01X9715Y11119D03*
G54D13*
G01X29574Y26416D03*
G01X27575Y26416D03*
G01X4736Y11120D03*
G01X2736Y11120D03*
G01X4736Y20764D03*
G01X2736Y20764D03*
G54D14*
G01X14351Y21844D03*
G01X16383Y21844D03*
G01X2731Y15875D03*
G01X4763Y15875D03*
G36*
G01X2922Y27437D02*
G01X3983Y27437D01*
G01X3983Y26786D01*
G01X2922Y26786D01*
G01X2922Y27437D01*
G37*
G36*
G01X2922Y26487D02*
G01X3983Y26487D01*
G01X3983Y25836D01*
G01X2922Y25836D01*
G01X2922Y26487D01*
G37*
G36*
G01X2922Y25537D02*
G01X3983Y25537D01*
G01X3983Y24886D01*
G01X2922Y24886D01*
G01X2922Y25537D01*
G37*
G36*
G01X5921Y25537D02*
G01X6983Y25537D01*
G01X6983Y24886D01*
G01X5921Y24886D01*
G01X5921Y25537D01*
G37*
G36*
G01X5921Y27437D02*
G01X6983Y27437D01*
G01X6983Y26786D01*
G01X5921Y26786D01*
G01X5921Y27437D01*
G37*
G54D17*
G01X34925Y12224D03*
G01X34925Y16223D03*
M00*
M02*
