G04 #@! TF.GenerationSoftware,KiCad,Pcbnew,(5.1.5)-3*
G04 #@! TF.CreationDate,2020-10-29T12:26:40+11:00*
G04 #@! TF.ProjectId,MotorControlsV2,4d6f746f-7243-46f6-9e74-726f6c735632,rev?*
G04 #@! TF.SameCoordinates,Original*
G04 #@! TF.FileFunction,Legend,Top*
G04 #@! TF.FilePolarity,Positive*
%FSLAX46Y46*%
G04 Gerber Fmt 4.6, Leading zero omitted, Abs format (unit mm)*
G04 Created by KiCad (PCBNEW (5.1.5)-3) date 2020-10-29 12:26:40*
%MOMM*%
%LPD*%
G04 APERTURE LIST*
%ADD10C,0.150000*%
%ADD11C,0.010000*%
%ADD12C,0.120000*%
%ADD13C,0.127000*%
%ADD14C,0.400000*%
%ADD15C,0.200000*%
%ADD16C,0.100000*%
%ADD17C,0.015000*%
G04 APERTURE END LIST*
D10*
X93547619Y-70428571D02*
X94023809Y-70095238D01*
X93547619Y-69857142D02*
X94547619Y-69857142D01*
X94547619Y-70238095D01*
X94500000Y-70333333D01*
X94452380Y-70380952D01*
X94357142Y-70428571D01*
X94214285Y-70428571D01*
X94119047Y-70380952D01*
X94071428Y-70333333D01*
X94023809Y-70238095D01*
X94023809Y-69857142D01*
X93595238Y-71238095D02*
X93547619Y-71142857D01*
X93547619Y-70952380D01*
X93595238Y-70857142D01*
X93690476Y-70809523D01*
X94071428Y-70809523D01*
X94166666Y-70857142D01*
X94214285Y-70952380D01*
X94214285Y-71142857D01*
X94166666Y-71238095D01*
X94071428Y-71285714D01*
X93976190Y-71285714D01*
X93880952Y-70809523D01*
X93547619Y-72142857D02*
X94547619Y-72142857D01*
X93595238Y-72142857D02*
X93547619Y-72047619D01*
X93547619Y-71857142D01*
X93595238Y-71761904D01*
X93642857Y-71714285D01*
X93738095Y-71666666D01*
X94023809Y-71666666D01*
X94119047Y-71714285D01*
X94166666Y-71761904D01*
X94214285Y-71857142D01*
X94214285Y-72047619D01*
X94166666Y-72142857D01*
X94500000Y-79642857D02*
X94547619Y-79547619D01*
X94547619Y-79404761D01*
X94500000Y-79261904D01*
X94404761Y-79166666D01*
X94309523Y-79119047D01*
X94119047Y-79071428D01*
X93976190Y-79071428D01*
X93785714Y-79119047D01*
X93690476Y-79166666D01*
X93595238Y-79261904D01*
X93547619Y-79404761D01*
X93547619Y-79500000D01*
X93595238Y-79642857D01*
X93642857Y-79690476D01*
X93976190Y-79690476D01*
X93976190Y-79500000D01*
X93547619Y-80119047D02*
X94214285Y-80119047D01*
X94023809Y-80119047D02*
X94119047Y-80166666D01*
X94166666Y-80214285D01*
X94214285Y-80309523D01*
X94214285Y-80404761D01*
X93595238Y-81119047D02*
X93547619Y-81023809D01*
X93547619Y-80833333D01*
X93595238Y-80738095D01*
X93690476Y-80690476D01*
X94071428Y-80690476D01*
X94166666Y-80738095D01*
X94214285Y-80833333D01*
X94214285Y-81023809D01*
X94166666Y-81119047D01*
X94071428Y-81166666D01*
X93976190Y-81166666D01*
X93880952Y-80690476D01*
X93595238Y-81976190D02*
X93547619Y-81880952D01*
X93547619Y-81690476D01*
X93595238Y-81595238D01*
X93690476Y-81547619D01*
X94071428Y-81547619D01*
X94166666Y-81595238D01*
X94214285Y-81690476D01*
X94214285Y-81880952D01*
X94166666Y-81976190D01*
X94071428Y-82023809D01*
X93976190Y-82023809D01*
X93880952Y-81547619D01*
X94214285Y-82452380D02*
X93547619Y-82452380D01*
X94119047Y-82452380D02*
X94166666Y-82500000D01*
X94214285Y-82595238D01*
X94214285Y-82738095D01*
X94166666Y-82833333D01*
X94071428Y-82880952D01*
X93547619Y-82880952D01*
X94071428Y-89928571D02*
X94023809Y-90071428D01*
X93976190Y-90119047D01*
X93880952Y-90166666D01*
X93738095Y-90166666D01*
X93642857Y-90119047D01*
X93595238Y-90071428D01*
X93547619Y-89976190D01*
X93547619Y-89595238D01*
X94547619Y-89595238D01*
X94547619Y-89928571D01*
X94500000Y-90023809D01*
X94452380Y-90071428D01*
X94357142Y-90119047D01*
X94261904Y-90119047D01*
X94166666Y-90071428D01*
X94119047Y-90023809D01*
X94071428Y-89928571D01*
X94071428Y-89595238D01*
X93547619Y-90738095D02*
X93595238Y-90642857D01*
X93690476Y-90595238D01*
X94547619Y-90595238D01*
X94214285Y-91547619D02*
X93547619Y-91547619D01*
X94214285Y-91119047D02*
X93690476Y-91119047D01*
X93595238Y-91166666D01*
X93547619Y-91261904D01*
X93547619Y-91404761D01*
X93595238Y-91500000D01*
X93642857Y-91547619D01*
X93595238Y-92404761D02*
X93547619Y-92309523D01*
X93547619Y-92119047D01*
X93595238Y-92023809D01*
X93690476Y-91976190D01*
X94071428Y-91976190D01*
X94166666Y-92023809D01*
X94214285Y-92119047D01*
X94214285Y-92309523D01*
X94166666Y-92404761D01*
X94071428Y-92452380D01*
X93976190Y-92452380D01*
X93880952Y-91976190D01*
X93547619Y-98809523D02*
X94547619Y-98809523D01*
X94547619Y-99190476D01*
X94500000Y-99285714D01*
X94452380Y-99333333D01*
X94357142Y-99380952D01*
X94214285Y-99380952D01*
X94119047Y-99333333D01*
X94071428Y-99285714D01*
X94023809Y-99190476D01*
X94023809Y-98809523D01*
X94214285Y-100238095D02*
X93547619Y-100238095D01*
X94214285Y-99809523D02*
X93690476Y-99809523D01*
X93595238Y-99857142D01*
X93547619Y-99952380D01*
X93547619Y-100095238D01*
X93595238Y-100190476D01*
X93642857Y-100238095D01*
X93547619Y-100714285D02*
X94214285Y-100714285D01*
X94119047Y-100714285D02*
X94166666Y-100761904D01*
X94214285Y-100857142D01*
X94214285Y-101000000D01*
X94166666Y-101095238D01*
X94071428Y-101142857D01*
X93547619Y-101142857D01*
X94071428Y-101142857D02*
X94166666Y-101190476D01*
X94214285Y-101285714D01*
X94214285Y-101428571D01*
X94166666Y-101523809D01*
X94071428Y-101571428D01*
X93547619Y-101571428D01*
X94214285Y-102047619D02*
X93214285Y-102047619D01*
X94166666Y-102047619D02*
X94214285Y-102142857D01*
X94214285Y-102333333D01*
X94166666Y-102428571D01*
X94119047Y-102476190D01*
X94023809Y-102523809D01*
X93738095Y-102523809D01*
X93642857Y-102476190D01*
X93595238Y-102428571D01*
X93547619Y-102333333D01*
X93547619Y-102142857D01*
X93595238Y-102047619D01*
X93547619Y-104238095D02*
X93547619Y-103666666D01*
X93547619Y-103952380D02*
X94547619Y-103952380D01*
X94404761Y-103857142D01*
X94309523Y-103761904D01*
X94261904Y-103666666D01*
X93547619Y-108702380D02*
X94547619Y-108702380D01*
X94071428Y-108702380D02*
X94071428Y-109273809D01*
X93547619Y-109273809D02*
X94547619Y-109273809D01*
X93595238Y-110130952D02*
X93547619Y-110035714D01*
X93547619Y-109845238D01*
X93595238Y-109750000D01*
X93690476Y-109702380D01*
X94071428Y-109702380D01*
X94166666Y-109750000D01*
X94214285Y-109845238D01*
X94214285Y-110035714D01*
X94166666Y-110130952D01*
X94071428Y-110178571D01*
X93976190Y-110178571D01*
X93880952Y-109702380D01*
X93547619Y-111035714D02*
X94071428Y-111035714D01*
X94166666Y-110988095D01*
X94214285Y-110892857D01*
X94214285Y-110702380D01*
X94166666Y-110607142D01*
X93595238Y-111035714D02*
X93547619Y-110940476D01*
X93547619Y-110702380D01*
X93595238Y-110607142D01*
X93690476Y-110559523D01*
X93785714Y-110559523D01*
X93880952Y-110607142D01*
X93928571Y-110702380D01*
X93928571Y-110940476D01*
X93976190Y-111035714D01*
X94214285Y-111369047D02*
X94214285Y-111750000D01*
X94547619Y-111511904D02*
X93690476Y-111511904D01*
X93595238Y-111559523D01*
X93547619Y-111654761D01*
X93547619Y-111750000D01*
X93595238Y-112464285D02*
X93547619Y-112369047D01*
X93547619Y-112178571D01*
X93595238Y-112083333D01*
X93690476Y-112035714D01*
X94071428Y-112035714D01*
X94166666Y-112083333D01*
X94214285Y-112178571D01*
X94214285Y-112369047D01*
X94166666Y-112464285D01*
X94071428Y-112511904D01*
X93976190Y-112511904D01*
X93880952Y-112035714D01*
X93547619Y-112940476D02*
X94214285Y-112940476D01*
X94023809Y-112940476D02*
X94119047Y-112988095D01*
X94166666Y-113035714D01*
X94214285Y-113130952D01*
X94214285Y-113226190D01*
X93547619Y-114845238D02*
X93547619Y-114273809D01*
X93547619Y-114559523D02*
X94547619Y-114559523D01*
X94404761Y-114464285D01*
X94309523Y-114369047D01*
X94261904Y-114273809D01*
X94071428Y-120130952D02*
X94071428Y-119797619D01*
X93547619Y-119797619D02*
X94547619Y-119797619D01*
X94547619Y-120273809D01*
X93547619Y-121083333D02*
X94071428Y-121083333D01*
X94166666Y-121035714D01*
X94214285Y-120940476D01*
X94214285Y-120750000D01*
X94166666Y-120654761D01*
X93595238Y-121083333D02*
X93547619Y-120988095D01*
X93547619Y-120750000D01*
X93595238Y-120654761D01*
X93690476Y-120607142D01*
X93785714Y-120607142D01*
X93880952Y-120654761D01*
X93928571Y-120750000D01*
X93928571Y-120988095D01*
X93976190Y-121083333D01*
X94214285Y-121559523D02*
X93547619Y-121559523D01*
X94119047Y-121559523D02*
X94166666Y-121607142D01*
X94214285Y-121702380D01*
X94214285Y-121845238D01*
X94166666Y-121940476D01*
X94071428Y-121988095D01*
X93547619Y-121988095D01*
X93547619Y-123750000D02*
X93547619Y-123178571D01*
X93547619Y-123464285D02*
X94547619Y-123464285D01*
X94404761Y-123369047D01*
X94309523Y-123273809D01*
X94261904Y-123178571D01*
X189452380Y-73369047D02*
X188452380Y-73369047D01*
X189166666Y-73035714D01*
X188452380Y-72702380D01*
X189452380Y-72702380D01*
X189452380Y-72226190D02*
X188785714Y-72226190D01*
X188452380Y-72226190D02*
X188500000Y-72273809D01*
X188547619Y-72226190D01*
X188500000Y-72178571D01*
X188452380Y-72226190D01*
X188547619Y-72226190D01*
X189452380Y-71845238D02*
X188785714Y-71321428D01*
X188785714Y-71845238D02*
X189452380Y-71321428D01*
X189452380Y-70940476D02*
X188785714Y-70940476D01*
X188452380Y-70940476D02*
X188500000Y-70988095D01*
X188547619Y-70940476D01*
X188500000Y-70892857D01*
X188452380Y-70940476D01*
X188547619Y-70940476D01*
X188785714Y-70464285D02*
X189452380Y-70464285D01*
X188880952Y-70464285D02*
X188833333Y-70416666D01*
X188785714Y-70321428D01*
X188785714Y-70178571D01*
X188833333Y-70083333D01*
X188928571Y-70035714D01*
X189452380Y-70035714D01*
X188785714Y-69130952D02*
X189595238Y-69130952D01*
X189690476Y-69178571D01*
X189738095Y-69226190D01*
X189785714Y-69321428D01*
X189785714Y-69464285D01*
X189738095Y-69559523D01*
X189404761Y-69130952D02*
X189452380Y-69226190D01*
X189452380Y-69416666D01*
X189404761Y-69511904D01*
X189357142Y-69559523D01*
X189261904Y-69607142D01*
X188976190Y-69607142D01*
X188880952Y-69559523D01*
X188833333Y-69511904D01*
X188785714Y-69416666D01*
X188785714Y-69226190D01*
X188833333Y-69130952D01*
X189166666Y-85130952D02*
X189166666Y-84654761D01*
X189452380Y-85226190D02*
X188452380Y-84892857D01*
X189452380Y-84559523D01*
X189452380Y-84226190D02*
X188785714Y-84226190D01*
X188452380Y-84226190D02*
X188500000Y-84273809D01*
X188547619Y-84226190D01*
X188500000Y-84178571D01*
X188452380Y-84226190D01*
X188547619Y-84226190D01*
X189452380Y-83750000D02*
X188785714Y-83750000D01*
X188976190Y-83750000D02*
X188880952Y-83702380D01*
X188833333Y-83654761D01*
X188785714Y-83559523D01*
X188785714Y-83464285D01*
X189357142Y-81797619D02*
X189404761Y-81845238D01*
X189452380Y-81988095D01*
X189452380Y-82083333D01*
X189404761Y-82226190D01*
X189309523Y-82321428D01*
X189214285Y-82369047D01*
X189023809Y-82416666D01*
X188880952Y-82416666D01*
X188690476Y-82369047D01*
X188595238Y-82321428D01*
X188500000Y-82226190D01*
X188452380Y-82083333D01*
X188452380Y-81988095D01*
X188500000Y-81845238D01*
X188547619Y-81797619D01*
X189452380Y-81226190D02*
X189404761Y-81321428D01*
X189357142Y-81369047D01*
X189261904Y-81416666D01*
X188976190Y-81416666D01*
X188880952Y-81369047D01*
X188833333Y-81321428D01*
X188785714Y-81226190D01*
X188785714Y-81083333D01*
X188833333Y-80988095D01*
X188880952Y-80940476D01*
X188976190Y-80892857D01*
X189261904Y-80892857D01*
X189357142Y-80940476D01*
X189404761Y-80988095D01*
X189452380Y-81083333D01*
X189452380Y-81226190D01*
X188785714Y-80464285D02*
X189452380Y-80464285D01*
X188880952Y-80464285D02*
X188833333Y-80416666D01*
X188785714Y-80321428D01*
X188785714Y-80178571D01*
X188833333Y-80083333D01*
X188928571Y-80035714D01*
X189452380Y-80035714D01*
X188785714Y-79702380D02*
X188785714Y-79321428D01*
X188452380Y-79559523D02*
X189309523Y-79559523D01*
X189404761Y-79511904D01*
X189452380Y-79416666D01*
X189452380Y-79321428D01*
X189452380Y-78988095D02*
X188785714Y-78988095D01*
X188976190Y-78988095D02*
X188880952Y-78940476D01*
X188833333Y-78892857D01*
X188785714Y-78797619D01*
X188785714Y-78702380D01*
X189452380Y-78226190D02*
X189404761Y-78321428D01*
X189357142Y-78369047D01*
X189261904Y-78416666D01*
X188976190Y-78416666D01*
X188880952Y-78369047D01*
X188833333Y-78321428D01*
X188785714Y-78226190D01*
X188785714Y-78083333D01*
X188833333Y-77988095D01*
X188880952Y-77940476D01*
X188976190Y-77892857D01*
X189261904Y-77892857D01*
X189357142Y-77940476D01*
X189404761Y-77988095D01*
X189452380Y-78083333D01*
X189452380Y-78226190D01*
X189452380Y-77321428D02*
X189404761Y-77416666D01*
X189309523Y-77464285D01*
X188452380Y-77464285D01*
X189452380Y-94440476D02*
X188452380Y-94440476D01*
X188452380Y-94059523D01*
X188500000Y-93964285D01*
X188547619Y-93916666D01*
X188642857Y-93869047D01*
X188785714Y-93869047D01*
X188880952Y-93916666D01*
X188928571Y-93964285D01*
X188976190Y-94059523D01*
X188976190Y-94440476D01*
X188785714Y-93011904D02*
X189452380Y-93011904D01*
X188785714Y-93440476D02*
X189309523Y-93440476D01*
X189404761Y-93392857D01*
X189452380Y-93297619D01*
X189452380Y-93154761D01*
X189404761Y-93059523D01*
X189357142Y-93011904D01*
X189452380Y-92535714D02*
X188785714Y-92535714D01*
X188880952Y-92535714D02*
X188833333Y-92488095D01*
X188785714Y-92392857D01*
X188785714Y-92250000D01*
X188833333Y-92154761D01*
X188928571Y-92107142D01*
X189452380Y-92107142D01*
X188928571Y-92107142D02*
X188833333Y-92059523D01*
X188785714Y-91964285D01*
X188785714Y-91821428D01*
X188833333Y-91726190D01*
X188928571Y-91678571D01*
X189452380Y-91678571D01*
X188785714Y-91202380D02*
X189785714Y-91202380D01*
X188833333Y-91202380D02*
X188785714Y-91107142D01*
X188785714Y-90916666D01*
X188833333Y-90821428D01*
X188880952Y-90773809D01*
X188976190Y-90726190D01*
X189261904Y-90726190D01*
X189357142Y-90773809D01*
X189404761Y-90821428D01*
X189452380Y-90916666D01*
X189452380Y-91107142D01*
X189404761Y-91202380D01*
X188452380Y-89630952D02*
X188452380Y-89011904D01*
X188833333Y-89345238D01*
X188833333Y-89202380D01*
X188880952Y-89107142D01*
X188928571Y-89059523D01*
X189023809Y-89011904D01*
X189261904Y-89011904D01*
X189357142Y-89059523D01*
X189404761Y-89107142D01*
X189452380Y-89202380D01*
X189452380Y-89488095D01*
X189404761Y-89583333D01*
X189357142Y-89630952D01*
X189452380Y-104690476D02*
X188452380Y-104690476D01*
X188452380Y-104309523D01*
X188500000Y-104214285D01*
X188547619Y-104166666D01*
X188642857Y-104119047D01*
X188785714Y-104119047D01*
X188880952Y-104166666D01*
X188928571Y-104214285D01*
X188976190Y-104309523D01*
X188976190Y-104690476D01*
X188785714Y-103261904D02*
X189452380Y-103261904D01*
X188785714Y-103690476D02*
X189309523Y-103690476D01*
X189404761Y-103642857D01*
X189452380Y-103547619D01*
X189452380Y-103404761D01*
X189404761Y-103309523D01*
X189357142Y-103261904D01*
X189452380Y-102785714D02*
X188785714Y-102785714D01*
X188880952Y-102785714D02*
X188833333Y-102738095D01*
X188785714Y-102642857D01*
X188785714Y-102500000D01*
X188833333Y-102404761D01*
X188928571Y-102357142D01*
X189452380Y-102357142D01*
X188928571Y-102357142D02*
X188833333Y-102309523D01*
X188785714Y-102214285D01*
X188785714Y-102071428D01*
X188833333Y-101976190D01*
X188928571Y-101928571D01*
X189452380Y-101928571D01*
X188785714Y-101452380D02*
X189785714Y-101452380D01*
X188833333Y-101452380D02*
X188785714Y-101357142D01*
X188785714Y-101166666D01*
X188833333Y-101071428D01*
X188880952Y-101023809D01*
X188976190Y-100976190D01*
X189261904Y-100976190D01*
X189357142Y-101023809D01*
X189404761Y-101071428D01*
X189452380Y-101166666D01*
X189452380Y-101357142D01*
X189404761Y-101452380D01*
X188547619Y-99833333D02*
X188500000Y-99785714D01*
X188452380Y-99690476D01*
X188452380Y-99452380D01*
X188500000Y-99357142D01*
X188547619Y-99309523D01*
X188642857Y-99261904D01*
X188738095Y-99261904D01*
X188880952Y-99309523D01*
X189452380Y-99880952D01*
X189452380Y-99261904D01*
X189702380Y-115047619D02*
X188702380Y-115047619D01*
X189178571Y-115047619D02*
X189178571Y-114476190D01*
X189702380Y-114476190D02*
X188702380Y-114476190D01*
X189654761Y-113619047D02*
X189702380Y-113714285D01*
X189702380Y-113904761D01*
X189654761Y-114000000D01*
X189559523Y-114047619D01*
X189178571Y-114047619D01*
X189083333Y-114000000D01*
X189035714Y-113904761D01*
X189035714Y-113714285D01*
X189083333Y-113619047D01*
X189178571Y-113571428D01*
X189273809Y-113571428D01*
X189369047Y-114047619D01*
X189702380Y-112714285D02*
X189178571Y-112714285D01*
X189083333Y-112761904D01*
X189035714Y-112857142D01*
X189035714Y-113047619D01*
X189083333Y-113142857D01*
X189654761Y-112714285D02*
X189702380Y-112809523D01*
X189702380Y-113047619D01*
X189654761Y-113142857D01*
X189559523Y-113190476D01*
X189464285Y-113190476D01*
X189369047Y-113142857D01*
X189321428Y-113047619D01*
X189321428Y-112809523D01*
X189273809Y-112714285D01*
X189035714Y-112380952D02*
X189035714Y-112000000D01*
X188702380Y-112238095D02*
X189559523Y-112238095D01*
X189654761Y-112190476D01*
X189702380Y-112095238D01*
X189702380Y-112000000D01*
X189654761Y-111285714D02*
X189702380Y-111380952D01*
X189702380Y-111571428D01*
X189654761Y-111666666D01*
X189559523Y-111714285D01*
X189178571Y-111714285D01*
X189083333Y-111666666D01*
X189035714Y-111571428D01*
X189035714Y-111380952D01*
X189083333Y-111285714D01*
X189178571Y-111238095D01*
X189273809Y-111238095D01*
X189369047Y-111714285D01*
X189702380Y-110809523D02*
X189035714Y-110809523D01*
X189226190Y-110809523D02*
X189130952Y-110761904D01*
X189083333Y-110714285D01*
X189035714Y-110619047D01*
X189035714Y-110523809D01*
X188797619Y-109476190D02*
X188750000Y-109428571D01*
X188702380Y-109333333D01*
X188702380Y-109095238D01*
X188750000Y-109000000D01*
X188797619Y-108952380D01*
X188892857Y-108904761D01*
X188988095Y-108904761D01*
X189130952Y-108952380D01*
X189702380Y-109523809D01*
X189702380Y-108904761D01*
X188928571Y-124619047D02*
X188928571Y-124952380D01*
X189452380Y-124952380D02*
X188452380Y-124952380D01*
X188452380Y-124476190D01*
X189452380Y-123666666D02*
X188928571Y-123666666D01*
X188833333Y-123714285D01*
X188785714Y-123809523D01*
X188785714Y-124000000D01*
X188833333Y-124095238D01*
X189404761Y-123666666D02*
X189452380Y-123761904D01*
X189452380Y-124000000D01*
X189404761Y-124095238D01*
X189309523Y-124142857D01*
X189214285Y-124142857D01*
X189119047Y-124095238D01*
X189071428Y-124000000D01*
X189071428Y-123761904D01*
X189023809Y-123666666D01*
X188785714Y-123190476D02*
X189452380Y-123190476D01*
X188880952Y-123190476D02*
X188833333Y-123142857D01*
X188785714Y-123047619D01*
X188785714Y-122904761D01*
X188833333Y-122809523D01*
X188928571Y-122761904D01*
X189452380Y-122761904D01*
X188547619Y-121571428D02*
X188500000Y-121523809D01*
X188452380Y-121428571D01*
X188452380Y-121190476D01*
X188500000Y-121095238D01*
X188547619Y-121047619D01*
X188642857Y-121000000D01*
X188738095Y-121000000D01*
X188880952Y-121047619D01*
X189452380Y-121619047D01*
X189452380Y-121000000D01*
D11*
G36*
X150008922Y-42781254D02*
G01*
X150438947Y-42802263D01*
X150761056Y-42838935D01*
X150994061Y-42898673D01*
X151156778Y-42988881D01*
X151268021Y-43116963D01*
X151346604Y-43290323D01*
X151353352Y-43310318D01*
X151386436Y-43549609D01*
X151344634Y-43785612D01*
X151240163Y-43973649D01*
X151152476Y-44044864D01*
X151083232Y-44091408D01*
X151082467Y-44143491D01*
X151161243Y-44230011D01*
X151255599Y-44314251D01*
X151454759Y-44558347D01*
X151530627Y-44832746D01*
X151482831Y-45135833D01*
X151458293Y-45200006D01*
X151368906Y-45374613D01*
X151254874Y-45503153D01*
X151096871Y-45592282D01*
X150875572Y-45648661D01*
X150571651Y-45678947D01*
X150165780Y-45689800D01*
X150035375Y-45690262D01*
X149130500Y-45690500D01*
X149130500Y-45182500D01*
X149702000Y-45182500D01*
X150233974Y-45182500D01*
X150533720Y-45174677D01*
X150725993Y-45149343D01*
X150829468Y-45103697D01*
X150841557Y-45091398D01*
X150888680Y-44967461D01*
X150897316Y-44795081D01*
X150896957Y-44791221D01*
X150846654Y-44622956D01*
X150723580Y-44510439D01*
X150511877Y-44446018D01*
X150195686Y-44422040D01*
X150130625Y-44421436D01*
X149702000Y-44420500D01*
X149702000Y-45182500D01*
X149130500Y-45182500D01*
X149130500Y-43277500D01*
X149702000Y-43277500D01*
X149702000Y-43976000D01*
X150041774Y-43976000D01*
X150279371Y-43962777D01*
X150497860Y-43929202D01*
X150578929Y-43907192D01*
X150758129Y-43797471D01*
X150822547Y-43641700D01*
X150766830Y-43454410D01*
X150753552Y-43433140D01*
X150689598Y-43352802D01*
X150606844Y-43306077D01*
X150472136Y-43284018D01*
X150252318Y-43277677D01*
X150176786Y-43277500D01*
X149702000Y-43277500D01*
X149130500Y-43277500D01*
X149130500Y-42753220D01*
X150008922Y-42781254D01*
G37*
X150008922Y-42781254D02*
X150438947Y-42802263D01*
X150761056Y-42838935D01*
X150994061Y-42898673D01*
X151156778Y-42988881D01*
X151268021Y-43116963D01*
X151346604Y-43290323D01*
X151353352Y-43310318D01*
X151386436Y-43549609D01*
X151344634Y-43785612D01*
X151240163Y-43973649D01*
X151152476Y-44044864D01*
X151083232Y-44091408D01*
X151082467Y-44143491D01*
X151161243Y-44230011D01*
X151255599Y-44314251D01*
X151454759Y-44558347D01*
X151530627Y-44832746D01*
X151482831Y-45135833D01*
X151458293Y-45200006D01*
X151368906Y-45374613D01*
X151254874Y-45503153D01*
X151096871Y-45592282D01*
X150875572Y-45648661D01*
X150571651Y-45678947D01*
X150165780Y-45689800D01*
X150035375Y-45690262D01*
X149130500Y-45690500D01*
X149130500Y-45182500D01*
X149702000Y-45182500D01*
X150233974Y-45182500D01*
X150533720Y-45174677D01*
X150725993Y-45149343D01*
X150829468Y-45103697D01*
X150841557Y-45091398D01*
X150888680Y-44967461D01*
X150897316Y-44795081D01*
X150896957Y-44791221D01*
X150846654Y-44622956D01*
X150723580Y-44510439D01*
X150511877Y-44446018D01*
X150195686Y-44422040D01*
X150130625Y-44421436D01*
X149702000Y-44420500D01*
X149702000Y-45182500D01*
X149130500Y-45182500D01*
X149130500Y-43277500D01*
X149702000Y-43277500D01*
X149702000Y-43976000D01*
X150041774Y-43976000D01*
X150279371Y-43962777D01*
X150497860Y-43929202D01*
X150578929Y-43907192D01*
X150758129Y-43797471D01*
X150822547Y-43641700D01*
X150766830Y-43454410D01*
X150753552Y-43433140D01*
X150689598Y-43352802D01*
X150606844Y-43306077D01*
X150472136Y-43284018D01*
X150252318Y-43277677D01*
X150176786Y-43277500D01*
X149702000Y-43277500D01*
X149130500Y-43277500D01*
X149130500Y-42753220D01*
X150008922Y-42781254D01*
G36*
X148003375Y-42781723D02*
G01*
X148273250Y-42801250D01*
X148307384Y-45690500D01*
X147733500Y-45690500D01*
X147732801Y-45293625D01*
X147725774Y-45034468D01*
X147708416Y-44786828D01*
X147692362Y-44656279D01*
X147652621Y-44415808D01*
X147105685Y-44434029D01*
X146558750Y-44452250D01*
X146540575Y-45071375D01*
X146522401Y-45690500D01*
X145955500Y-45690500D01*
X145955500Y-42769500D01*
X146527000Y-42769500D01*
X146527000Y-43912500D01*
X147733500Y-43912500D01*
X147733500Y-42762197D01*
X148003375Y-42781723D01*
G37*
X148003375Y-42781723D02*
X148273250Y-42801250D01*
X148307384Y-45690500D01*
X147733500Y-45690500D01*
X147732801Y-45293625D01*
X147725774Y-45034468D01*
X147708416Y-44786828D01*
X147692362Y-44656279D01*
X147652621Y-44415808D01*
X147105685Y-44434029D01*
X146558750Y-44452250D01*
X146540575Y-45071375D01*
X146522401Y-45690500D01*
X145955500Y-45690500D01*
X145955500Y-42769500D01*
X146527000Y-42769500D01*
X146527000Y-43912500D01*
X147733500Y-43912500D01*
X147733500Y-42762197D01*
X148003375Y-42781723D01*
G36*
X144450761Y-44405678D02*
G01*
X144676913Y-44529303D01*
X144840395Y-44688266D01*
X144903157Y-44841126D01*
X144937376Y-45047505D01*
X144939500Y-45107729D01*
X144921684Y-45306321D01*
X144849897Y-45458855D01*
X144723600Y-45601600D01*
X144476737Y-45777339D01*
X144217938Y-45827365D01*
X143954232Y-45751538D01*
X143766959Y-45620421D01*
X143633094Y-45485273D01*
X143552797Y-45370209D01*
X143542500Y-45334671D01*
X143504861Y-45280865D01*
X143378671Y-45252973D01*
X143179885Y-45246000D01*
X142925796Y-45228580D01*
X142692382Y-45165456D01*
X142645180Y-45143813D01*
X143796261Y-45143813D01*
X143858874Y-45339204D01*
X143996258Y-45489368D01*
X144196381Y-45561372D01*
X144241000Y-45563500D01*
X144427452Y-45520440D01*
X144558500Y-45436500D01*
X144669994Y-45244657D01*
X144681451Y-45024516D01*
X144595535Y-44821952D01*
X144518186Y-44742608D01*
X144306447Y-44628533D01*
X144110855Y-44638453D01*
X143943467Y-44749068D01*
X143820449Y-44936123D01*
X143796261Y-45143813D01*
X142645180Y-45143813D01*
X142419472Y-45040323D01*
X142418120Y-45039625D01*
X142220802Y-44927670D01*
X142078045Y-44827731D01*
X142018982Y-44760376D01*
X142018734Y-44757622D01*
X142055005Y-44662003D01*
X142168769Y-44651836D01*
X142366171Y-44727622D01*
X142495745Y-44796542D01*
X142760925Y-44924493D01*
X143001035Y-44982666D01*
X143178366Y-44992000D01*
X143377123Y-44986266D01*
X143488123Y-44957058D01*
X143550491Y-44886366D01*
X143585376Y-44804642D01*
X143706665Y-44626211D01*
X143901981Y-44470350D01*
X144119788Y-44372924D01*
X144228278Y-44357237D01*
X144450761Y-44405678D01*
G37*
X144450761Y-44405678D02*
X144676913Y-44529303D01*
X144840395Y-44688266D01*
X144903157Y-44841126D01*
X144937376Y-45047505D01*
X144939500Y-45107729D01*
X144921684Y-45306321D01*
X144849897Y-45458855D01*
X144723600Y-45601600D01*
X144476737Y-45777339D01*
X144217938Y-45827365D01*
X143954232Y-45751538D01*
X143766959Y-45620421D01*
X143633094Y-45485273D01*
X143552797Y-45370209D01*
X143542500Y-45334671D01*
X143504861Y-45280865D01*
X143378671Y-45252973D01*
X143179885Y-45246000D01*
X142925796Y-45228580D01*
X142692382Y-45165456D01*
X142645180Y-45143813D01*
X143796261Y-45143813D01*
X143858874Y-45339204D01*
X143996258Y-45489368D01*
X144196381Y-45561372D01*
X144241000Y-45563500D01*
X144427452Y-45520440D01*
X144558500Y-45436500D01*
X144669994Y-45244657D01*
X144681451Y-45024516D01*
X144595535Y-44821952D01*
X144518186Y-44742608D01*
X144306447Y-44628533D01*
X144110855Y-44638453D01*
X143943467Y-44749068D01*
X143820449Y-44936123D01*
X143796261Y-45143813D01*
X142645180Y-45143813D01*
X142419472Y-45040323D01*
X142418120Y-45039625D01*
X142220802Y-44927670D01*
X142078045Y-44827731D01*
X142018982Y-44760376D01*
X142018734Y-44757622D01*
X142055005Y-44662003D01*
X142168769Y-44651836D01*
X142366171Y-44727622D01*
X142495745Y-44796542D01*
X142760925Y-44924493D01*
X143001035Y-44982666D01*
X143178366Y-44992000D01*
X143377123Y-44986266D01*
X143488123Y-44957058D01*
X143550491Y-44886366D01*
X143585376Y-44804642D01*
X143706665Y-44626211D01*
X143901981Y-44470350D01*
X144119788Y-44372924D01*
X144228278Y-44357237D01*
X144450761Y-44405678D01*
G36*
X141014670Y-46498946D02*
G01*
X141179014Y-46565929D01*
X141409632Y-46675288D01*
X141684391Y-46816945D01*
X141767398Y-46861666D01*
X142074999Y-47027803D01*
X142300143Y-47142561D01*
X142471827Y-47215446D01*
X142619048Y-47255960D01*
X142770806Y-47273609D01*
X142956097Y-47277897D01*
X143037664Y-47278000D01*
X143303713Y-47272471D01*
X143462588Y-47253662D01*
X143533724Y-47218234D01*
X143542500Y-47191313D01*
X143596762Y-47039731D01*
X143736051Y-46881515D01*
X143925121Y-46750817D01*
X144050618Y-46698962D01*
X144342520Y-46668254D01*
X144597136Y-46747665D01*
X144794167Y-46921455D01*
X144913311Y-47173885D01*
X144939500Y-47388163D01*
X144922441Y-47588914D01*
X144852906Y-47740847D01*
X144723600Y-47887600D01*
X144476737Y-48063339D01*
X144217938Y-48113365D01*
X143954232Y-48037538D01*
X143766959Y-47906421D01*
X143633094Y-47771273D01*
X143552797Y-47656209D01*
X143542500Y-47620671D01*
X143513314Y-47575114D01*
X143412254Y-47547485D01*
X143219062Y-47534370D01*
X143015995Y-47532000D01*
X142489490Y-47532000D01*
X142247486Y-47403284D01*
X143792070Y-47403284D01*
X143842859Y-47599468D01*
X143969734Y-47757062D01*
X144161428Y-47842700D01*
X144241000Y-47849500D01*
X144427452Y-47806440D01*
X144558500Y-47722500D01*
X144669994Y-47530657D01*
X144681451Y-47310516D01*
X144595535Y-47107952D01*
X144518186Y-47028608D01*
X144370142Y-46936803D01*
X144243927Y-46897044D01*
X144241000Y-46897000D01*
X144116644Y-46934530D01*
X143968221Y-47025170D01*
X143963813Y-47028608D01*
X143828632Y-47201875D01*
X143792070Y-47403284D01*
X142247486Y-47403284D01*
X141683612Y-47103375D01*
X141337103Y-46914393D01*
X141095675Y-46769881D01*
X140949014Y-46661266D01*
X140886806Y-46579980D01*
X140898738Y-46517451D01*
X140938734Y-46484414D01*
X141014670Y-46498946D01*
G37*
X141014670Y-46498946D02*
X141179014Y-46565929D01*
X141409632Y-46675288D01*
X141684391Y-46816945D01*
X141767398Y-46861666D01*
X142074999Y-47027803D01*
X142300143Y-47142561D01*
X142471827Y-47215446D01*
X142619048Y-47255960D01*
X142770806Y-47273609D01*
X142956097Y-47277897D01*
X143037664Y-47278000D01*
X143303713Y-47272471D01*
X143462588Y-47253662D01*
X143533724Y-47218234D01*
X143542500Y-47191313D01*
X143596762Y-47039731D01*
X143736051Y-46881515D01*
X143925121Y-46750817D01*
X144050618Y-46698962D01*
X144342520Y-46668254D01*
X144597136Y-46747665D01*
X144794167Y-46921455D01*
X144913311Y-47173885D01*
X144939500Y-47388163D01*
X144922441Y-47588914D01*
X144852906Y-47740847D01*
X144723600Y-47887600D01*
X144476737Y-48063339D01*
X144217938Y-48113365D01*
X143954232Y-48037538D01*
X143766959Y-47906421D01*
X143633094Y-47771273D01*
X143552797Y-47656209D01*
X143542500Y-47620671D01*
X143513314Y-47575114D01*
X143412254Y-47547485D01*
X143219062Y-47534370D01*
X143015995Y-47532000D01*
X142489490Y-47532000D01*
X142247486Y-47403284D01*
X143792070Y-47403284D01*
X143842859Y-47599468D01*
X143969734Y-47757062D01*
X144161428Y-47842700D01*
X144241000Y-47849500D01*
X144427452Y-47806440D01*
X144558500Y-47722500D01*
X144669994Y-47530657D01*
X144681451Y-47310516D01*
X144595535Y-47107952D01*
X144518186Y-47028608D01*
X144370142Y-46936803D01*
X144243927Y-46897044D01*
X144241000Y-46897000D01*
X144116644Y-46934530D01*
X143968221Y-47025170D01*
X143963813Y-47028608D01*
X143828632Y-47201875D01*
X143792070Y-47403284D01*
X142247486Y-47403284D01*
X141683612Y-47103375D01*
X141337103Y-46914393D01*
X141095675Y-46769881D01*
X140949014Y-46661266D01*
X140886806Y-46579980D01*
X140898738Y-46517451D01*
X140938734Y-46484414D01*
X141014670Y-46498946D01*
G36*
X142896697Y-40554211D02*
G01*
X142899707Y-40753679D01*
X142868567Y-41041652D01*
X142807222Y-41402461D01*
X142719612Y-41820437D01*
X142609682Y-42279911D01*
X142481373Y-42765216D01*
X142338628Y-43260681D01*
X142185391Y-43750640D01*
X142025603Y-44219422D01*
X141863208Y-44651359D01*
X141708948Y-45015857D01*
X141513750Y-45402099D01*
X141265397Y-45828400D01*
X140985811Y-46261946D01*
X140696914Y-46669925D01*
X140420628Y-47019522D01*
X140232073Y-47226482D01*
X140009753Y-47436544D01*
X139793180Y-47607493D01*
X139545447Y-47764348D01*
X139229645Y-47932126D01*
X139087707Y-48002201D01*
X138690988Y-48180635D01*
X138269021Y-48345690D01*
X137877802Y-48476079D01*
X137741173Y-48514094D01*
X137416938Y-48587113D01*
X137103936Y-48639411D01*
X136825621Y-48669139D01*
X136605447Y-48674451D01*
X136466866Y-48653499D01*
X136430500Y-48617320D01*
X136467819Y-48542170D01*
X136565710Y-48400322D01*
X136703068Y-48222333D01*
X136704593Y-48220445D01*
X136788015Y-48115385D01*
X136942583Y-47918829D01*
X137161464Y-47639524D01*
X137437828Y-47286218D01*
X137764844Y-46867658D01*
X138135680Y-46392591D01*
X138543505Y-45869765D01*
X138981489Y-45307927D01*
X139442800Y-44715825D01*
X139883804Y-44149479D01*
X140375521Y-43519508D01*
X140838878Y-42929138D01*
X141268306Y-42385284D01*
X141658234Y-41894865D01*
X142003094Y-41464796D01*
X142297315Y-41101995D01*
X142535328Y-40813378D01*
X142711563Y-40605862D01*
X142820451Y-40486364D01*
X142855596Y-40458917D01*
X142896697Y-40554211D01*
G37*
X142896697Y-40554211D02*
X142899707Y-40753679D01*
X142868567Y-41041652D01*
X142807222Y-41402461D01*
X142719612Y-41820437D01*
X142609682Y-42279911D01*
X142481373Y-42765216D01*
X142338628Y-43260681D01*
X142185391Y-43750640D01*
X142025603Y-44219422D01*
X141863208Y-44651359D01*
X141708948Y-45015857D01*
X141513750Y-45402099D01*
X141265397Y-45828400D01*
X140985811Y-46261946D01*
X140696914Y-46669925D01*
X140420628Y-47019522D01*
X140232073Y-47226482D01*
X140009753Y-47436544D01*
X139793180Y-47607493D01*
X139545447Y-47764348D01*
X139229645Y-47932126D01*
X139087707Y-48002201D01*
X138690988Y-48180635D01*
X138269021Y-48345690D01*
X137877802Y-48476079D01*
X137741173Y-48514094D01*
X137416938Y-48587113D01*
X137103936Y-48639411D01*
X136825621Y-48669139D01*
X136605447Y-48674451D01*
X136466866Y-48653499D01*
X136430500Y-48617320D01*
X136467819Y-48542170D01*
X136565710Y-48400322D01*
X136703068Y-48222333D01*
X136704593Y-48220445D01*
X136788015Y-48115385D01*
X136942583Y-47918829D01*
X137161464Y-47639524D01*
X137437828Y-47286218D01*
X137764844Y-46867658D01*
X138135680Y-46392591D01*
X138543505Y-45869765D01*
X138981489Y-45307927D01*
X139442800Y-44715825D01*
X139883804Y-44149479D01*
X140375521Y-43519508D01*
X140838878Y-42929138D01*
X141268306Y-42385284D01*
X141658234Y-41894865D01*
X142003094Y-41464796D01*
X142297315Y-41101995D01*
X142535328Y-40813378D01*
X142711563Y-40605862D01*
X142820451Y-40486364D01*
X142855596Y-40458917D01*
X142896697Y-40554211D01*
G36*
X142565906Y-40187857D02*
G01*
X142581080Y-40224507D01*
X142538516Y-40288584D01*
X142425831Y-40443514D01*
X142249867Y-40680355D01*
X142017466Y-40990166D01*
X141735469Y-41364005D01*
X141410720Y-41792931D01*
X141050058Y-42268002D01*
X140660327Y-42780277D01*
X140248368Y-43320815D01*
X139821023Y-43880673D01*
X139385133Y-44450911D01*
X138947541Y-45022586D01*
X138515088Y-45586758D01*
X138094616Y-46134486D01*
X137692966Y-46656827D01*
X137316982Y-47144840D01*
X136973504Y-47589583D01*
X136669374Y-47982116D01*
X136411435Y-48313497D01*
X136206527Y-48574783D01*
X136061493Y-48757035D01*
X135983175Y-48851310D01*
X135971334Y-48862687D01*
X135922965Y-48811114D01*
X135876084Y-48690875D01*
X135852682Y-48530819D01*
X135838932Y-48272930D01*
X135834322Y-47945965D01*
X135838337Y-47578685D01*
X135850464Y-47199847D01*
X135870191Y-46838211D01*
X135897003Y-46522534D01*
X135917742Y-46357250D01*
X136071013Y-45551950D01*
X136279808Y-44840889D01*
X136554073Y-44199766D01*
X136903754Y-43604280D01*
X137220593Y-43174119D01*
X137853269Y-42468114D01*
X138550780Y-41854881D01*
X139324361Y-41326861D01*
X140185243Y-40876496D01*
X141144660Y-40496226D01*
X141256500Y-40458416D01*
X141634646Y-40340909D01*
X141971136Y-40252190D01*
X142249494Y-40195168D01*
X142453243Y-40172754D01*
X142565906Y-40187857D01*
G37*
X142565906Y-40187857D02*
X142581080Y-40224507D01*
X142538516Y-40288584D01*
X142425831Y-40443514D01*
X142249867Y-40680355D01*
X142017466Y-40990166D01*
X141735469Y-41364005D01*
X141410720Y-41792931D01*
X141050058Y-42268002D01*
X140660327Y-42780277D01*
X140248368Y-43320815D01*
X139821023Y-43880673D01*
X139385133Y-44450911D01*
X138947541Y-45022586D01*
X138515088Y-45586758D01*
X138094616Y-46134486D01*
X137692966Y-46656827D01*
X137316982Y-47144840D01*
X136973504Y-47589583D01*
X136669374Y-47982116D01*
X136411435Y-48313497D01*
X136206527Y-48574783D01*
X136061493Y-48757035D01*
X135983175Y-48851310D01*
X135971334Y-48862687D01*
X135922965Y-48811114D01*
X135876084Y-48690875D01*
X135852682Y-48530819D01*
X135838932Y-48272930D01*
X135834322Y-47945965D01*
X135838337Y-47578685D01*
X135850464Y-47199847D01*
X135870191Y-46838211D01*
X135897003Y-46522534D01*
X135917742Y-46357250D01*
X136071013Y-45551950D01*
X136279808Y-44840889D01*
X136554073Y-44199766D01*
X136903754Y-43604280D01*
X137220593Y-43174119D01*
X137853269Y-42468114D01*
X138550780Y-41854881D01*
X139324361Y-41326861D01*
X140185243Y-40876496D01*
X141144660Y-40496226D01*
X141256500Y-40458416D01*
X141634646Y-40340909D01*
X141971136Y-40252190D01*
X142249494Y-40195168D01*
X142453243Y-40172754D01*
X142565906Y-40187857D01*
G36*
X166656500Y-50389500D02*
G01*
X166085000Y-50389500D01*
X166085000Y-47468500D01*
X166656500Y-47468500D01*
X166656500Y-50389500D01*
G37*
X166656500Y-50389500D02*
X166085000Y-50389500D01*
X166085000Y-47468500D01*
X166656500Y-47468500D01*
X166656500Y-50389500D01*
G36*
X165457666Y-47976500D02*
G01*
X164070262Y-47976500D01*
X164030195Y-48268821D01*
X164013259Y-48455156D01*
X164016749Y-48588393D01*
X164025311Y-48618071D01*
X164100151Y-48642676D01*
X164272207Y-48661931D01*
X164511724Y-48673183D01*
X164663830Y-48675000D01*
X165267166Y-48675000D01*
X165227750Y-49151250D01*
X164648313Y-49169402D01*
X164068877Y-49187555D01*
X164029887Y-49423402D01*
X164007367Y-49625518D01*
X163992941Y-49881005D01*
X163990198Y-50024375D01*
X163989500Y-50389500D01*
X163415615Y-50389500D01*
X163432682Y-48944875D01*
X163449750Y-47500250D01*
X165418250Y-47500250D01*
X165457666Y-47976500D01*
G37*
X165457666Y-47976500D02*
X164070262Y-47976500D01*
X164030195Y-48268821D01*
X164013259Y-48455156D01*
X164016749Y-48588393D01*
X164025311Y-48618071D01*
X164100151Y-48642676D01*
X164272207Y-48661931D01*
X164511724Y-48673183D01*
X164663830Y-48675000D01*
X165267166Y-48675000D01*
X165227750Y-49151250D01*
X164648313Y-49169402D01*
X164068877Y-49187555D01*
X164029887Y-49423402D01*
X164007367Y-49625518D01*
X163992941Y-49881005D01*
X163990198Y-50024375D01*
X163989500Y-50389500D01*
X163415615Y-50389500D01*
X163432682Y-48944875D01*
X163449750Y-47500250D01*
X165418250Y-47500250D01*
X165457666Y-47976500D01*
G36*
X162656000Y-50389500D02*
G01*
X162084500Y-50389500D01*
X162084500Y-47468500D01*
X162656000Y-47468500D01*
X162656000Y-50389500D01*
G37*
X162656000Y-50389500D02*
X162084500Y-50389500D01*
X162084500Y-47468500D01*
X162656000Y-47468500D01*
X162656000Y-50389500D01*
G36*
X161513000Y-47976500D02*
G01*
X160624000Y-47976500D01*
X160624000Y-50389500D01*
X160052500Y-50389500D01*
X160052500Y-47976500D01*
X159227000Y-47976500D01*
X159227000Y-47468500D01*
X161513000Y-47468500D01*
X161513000Y-47976500D01*
G37*
X161513000Y-47976500D02*
X160624000Y-47976500D01*
X160624000Y-50389500D01*
X160052500Y-50389500D01*
X160052500Y-47976500D01*
X159227000Y-47976500D01*
X159227000Y-47468500D01*
X161513000Y-47468500D01*
X161513000Y-47976500D01*
G36*
X156575280Y-47480723D02*
G01*
X156844560Y-47500250D01*
X157988750Y-49367116D01*
X158052250Y-47500250D01*
X158560250Y-47500250D01*
X158594384Y-50389500D01*
X157978899Y-50389500D01*
X157412324Y-49469359D01*
X156845750Y-48549218D01*
X156810604Y-50389500D01*
X156306000Y-50389500D01*
X156306000Y-47461197D01*
X156575280Y-47480723D01*
G37*
X156575280Y-47480723D02*
X156844560Y-47500250D01*
X157988750Y-49367116D01*
X158052250Y-47500250D01*
X158560250Y-47500250D01*
X158594384Y-50389500D01*
X157978899Y-50389500D01*
X157412324Y-49469359D01*
X156845750Y-48549218D01*
X156810604Y-50389500D01*
X156306000Y-50389500D01*
X156306000Y-47461197D01*
X156575280Y-47480723D01*
G36*
X155480500Y-47976500D02*
G01*
X153956500Y-47976500D01*
X153956500Y-48607340D01*
X155385250Y-48643250D01*
X155424666Y-49119500D01*
X153956500Y-49119500D01*
X153956500Y-49881500D01*
X155544000Y-49881500D01*
X155544000Y-50389500D01*
X153385000Y-50389500D01*
X153385000Y-47468500D01*
X155480500Y-47468500D01*
X155480500Y-47976500D01*
G37*
X155480500Y-47976500D02*
X153956500Y-47976500D01*
X153956500Y-48607340D01*
X155385250Y-48643250D01*
X155424666Y-49119500D01*
X153956500Y-49119500D01*
X153956500Y-49881500D01*
X155544000Y-49881500D01*
X155544000Y-50389500D01*
X153385000Y-50389500D01*
X153385000Y-47468500D01*
X155480500Y-47468500D01*
X155480500Y-47976500D01*
G36*
X152559500Y-50389500D02*
G01*
X151988000Y-50389500D01*
X151988000Y-47468500D01*
X152559500Y-47468500D01*
X152559500Y-50389500D01*
G37*
X152559500Y-50389500D02*
X151988000Y-50389500D01*
X151988000Y-47468500D01*
X152559500Y-47468500D01*
X152559500Y-50389500D01*
G36*
X138967664Y-48286670D02*
G01*
X139131554Y-48358723D01*
X139373128Y-48475605D01*
X139675604Y-48629093D01*
X140022204Y-48810966D01*
X140184110Y-48897728D01*
X141415250Y-49561618D01*
X143514656Y-49564000D01*
X143585376Y-49376642D01*
X143706665Y-49198211D01*
X143901981Y-49042350D01*
X144119788Y-48944924D01*
X144228278Y-48929237D01*
X144450761Y-48977678D01*
X144676913Y-49101303D01*
X144840395Y-49260266D01*
X144903157Y-49413126D01*
X144937376Y-49619505D01*
X144939500Y-49679729D01*
X144921684Y-49878321D01*
X144849897Y-50030855D01*
X144723600Y-50173600D01*
X144476737Y-50349339D01*
X144217938Y-50399365D01*
X143954232Y-50323538D01*
X143766959Y-50192421D01*
X143633094Y-50057273D01*
X143552797Y-49942209D01*
X143542500Y-49906671D01*
X143521533Y-49873550D01*
X143448084Y-49849495D01*
X143306326Y-49833216D01*
X143080432Y-49823422D01*
X142754578Y-49818821D01*
X142455587Y-49818000D01*
X141368674Y-49818000D01*
X141129752Y-49689284D01*
X143792070Y-49689284D01*
X143842859Y-49885468D01*
X143969734Y-50043062D01*
X144161428Y-50128700D01*
X144241000Y-50135500D01*
X144427452Y-50092440D01*
X144558500Y-50008500D01*
X144669994Y-49816657D01*
X144681451Y-49596516D01*
X144595535Y-49393952D01*
X144518186Y-49314608D01*
X144370142Y-49222803D01*
X144243927Y-49183044D01*
X144241000Y-49183000D01*
X144116644Y-49220530D01*
X143968221Y-49311170D01*
X143963813Y-49314608D01*
X143828632Y-49487875D01*
X143792070Y-49689284D01*
X141129752Y-49689284D01*
X140106087Y-49137800D01*
X139670788Y-48900703D01*
X139339296Y-48713164D01*
X139101756Y-48568082D01*
X138948312Y-48458359D01*
X138869111Y-48376895D01*
X138854296Y-48316591D01*
X138894014Y-48270346D01*
X138898235Y-48267666D01*
X138967664Y-48286670D01*
G37*
X138967664Y-48286670D02*
X139131554Y-48358723D01*
X139373128Y-48475605D01*
X139675604Y-48629093D01*
X140022204Y-48810966D01*
X140184110Y-48897728D01*
X141415250Y-49561618D01*
X143514656Y-49564000D01*
X143585376Y-49376642D01*
X143706665Y-49198211D01*
X143901981Y-49042350D01*
X144119788Y-48944924D01*
X144228278Y-48929237D01*
X144450761Y-48977678D01*
X144676913Y-49101303D01*
X144840395Y-49260266D01*
X144903157Y-49413126D01*
X144937376Y-49619505D01*
X144939500Y-49679729D01*
X144921684Y-49878321D01*
X144849897Y-50030855D01*
X144723600Y-50173600D01*
X144476737Y-50349339D01*
X144217938Y-50399365D01*
X143954232Y-50323538D01*
X143766959Y-50192421D01*
X143633094Y-50057273D01*
X143552797Y-49942209D01*
X143542500Y-49906671D01*
X143521533Y-49873550D01*
X143448084Y-49849495D01*
X143306326Y-49833216D01*
X143080432Y-49823422D01*
X142754578Y-49818821D01*
X142455587Y-49818000D01*
X141368674Y-49818000D01*
X141129752Y-49689284D01*
X143792070Y-49689284D01*
X143842859Y-49885468D01*
X143969734Y-50043062D01*
X144161428Y-50128700D01*
X144241000Y-50135500D01*
X144427452Y-50092440D01*
X144558500Y-50008500D01*
X144669994Y-49816657D01*
X144681451Y-49596516D01*
X144595535Y-49393952D01*
X144518186Y-49314608D01*
X144370142Y-49222803D01*
X144243927Y-49183044D01*
X144241000Y-49183000D01*
X144116644Y-49220530D01*
X143968221Y-49311170D01*
X143963813Y-49314608D01*
X143828632Y-49487875D01*
X143792070Y-49689284D01*
X141129752Y-49689284D01*
X140106087Y-49137800D01*
X139670788Y-48900703D01*
X139339296Y-48713164D01*
X139101756Y-48568082D01*
X138948312Y-48458359D01*
X138869111Y-48376895D01*
X138854296Y-48316591D01*
X138894014Y-48270346D01*
X138898235Y-48267666D01*
X138967664Y-48286670D01*
G36*
X169204465Y-47531222D02*
G01*
X169323500Y-47582393D01*
X169496523Y-47708914D01*
X169659763Y-47880088D01*
X169781861Y-48057441D01*
X169831459Y-48202497D01*
X169831500Y-48205693D01*
X169778648Y-48271647D01*
X169650710Y-48334144D01*
X169493605Y-48380127D01*
X169353257Y-48396537D01*
X169275587Y-48370319D01*
X169272922Y-48364518D01*
X169147063Y-48164400D01*
X168947307Y-48031323D01*
X168708399Y-47970240D01*
X168465085Y-47986102D01*
X168252111Y-48083860D01*
X168140080Y-48203069D01*
X168024715Y-48468487D01*
X167964212Y-48806266D01*
X167966177Y-49170889D01*
X167971028Y-49214750D01*
X168052475Y-49508631D01*
X168202909Y-49736198D01*
X168400736Y-49886464D01*
X168624358Y-49948445D01*
X168852179Y-49911155D01*
X169058509Y-49767915D01*
X169189844Y-49617982D01*
X169288201Y-49483740D01*
X169296469Y-49469780D01*
X169361699Y-49392544D01*
X169460947Y-49382075D01*
X169582219Y-49410858D01*
X169755888Y-49498191D01*
X169816338Y-49632719D01*
X169764880Y-49820926D01*
X169690779Y-49947526D01*
X169449141Y-50202684D01*
X169136981Y-50367944D01*
X168778466Y-50438043D01*
X168397762Y-50407716D01*
X168075399Y-50299342D01*
X167831836Y-50158345D01*
X167656517Y-49976897D01*
X167567399Y-49839587D01*
X167478884Y-49676022D01*
X167425033Y-49527784D01*
X167397488Y-49354105D01*
X167387890Y-49114219D01*
X167387205Y-48960750D01*
X167412193Y-48533636D01*
X167493095Y-48201489D01*
X167639964Y-47940841D01*
X167862858Y-47728228D01*
X167937901Y-47675667D01*
X168216951Y-47548257D01*
X168552234Y-47479614D01*
X168896992Y-47472886D01*
X169204465Y-47531222D01*
G37*
X169204465Y-47531222D02*
X169323500Y-47582393D01*
X169496523Y-47708914D01*
X169659763Y-47880088D01*
X169781861Y-48057441D01*
X169831459Y-48202497D01*
X169831500Y-48205693D01*
X169778648Y-48271647D01*
X169650710Y-48334144D01*
X169493605Y-48380127D01*
X169353257Y-48396537D01*
X169275587Y-48370319D01*
X169272922Y-48364518D01*
X169147063Y-48164400D01*
X168947307Y-48031323D01*
X168708399Y-47970240D01*
X168465085Y-47986102D01*
X168252111Y-48083860D01*
X168140080Y-48203069D01*
X168024715Y-48468487D01*
X167964212Y-48806266D01*
X167966177Y-49170889D01*
X167971028Y-49214750D01*
X168052475Y-49508631D01*
X168202909Y-49736198D01*
X168400736Y-49886464D01*
X168624358Y-49948445D01*
X168852179Y-49911155D01*
X169058509Y-49767915D01*
X169189844Y-49617982D01*
X169288201Y-49483740D01*
X169296469Y-49469780D01*
X169361699Y-49392544D01*
X169460947Y-49382075D01*
X169582219Y-49410858D01*
X169755888Y-49498191D01*
X169816338Y-49632719D01*
X169764880Y-49820926D01*
X169690779Y-49947526D01*
X169449141Y-50202684D01*
X169136981Y-50367944D01*
X168778466Y-50438043D01*
X168397762Y-50407716D01*
X168075399Y-50299342D01*
X167831836Y-50158345D01*
X167656517Y-49976897D01*
X167567399Y-49839587D01*
X167478884Y-49676022D01*
X167425033Y-49527784D01*
X167397488Y-49354105D01*
X167387890Y-49114219D01*
X167387205Y-48960750D01*
X167412193Y-48533636D01*
X167493095Y-48201489D01*
X167639964Y-47940841D01*
X167862858Y-47728228D01*
X167937901Y-47675667D01*
X168216951Y-47548257D01*
X168552234Y-47479614D01*
X168896992Y-47472886D01*
X169204465Y-47531222D01*
G36*
X150512425Y-47486843D02*
G01*
X150646050Y-47528626D01*
X150777304Y-47605731D01*
X150779988Y-47607549D01*
X150933442Y-47735839D01*
X151088161Y-47902500D01*
X151214844Y-48071307D01*
X151284190Y-48206034D01*
X151289500Y-48237443D01*
X151234227Y-48283735D01*
X151095059Y-48339532D01*
X151023020Y-48360860D01*
X150849630Y-48399680D01*
X150751791Y-48390621D01*
X150685236Y-48327909D01*
X150676688Y-48315683D01*
X150478765Y-48084125D01*
X150271087Y-47970324D01*
X150031865Y-47965608D01*
X149890085Y-48002616D01*
X149678119Y-48106570D01*
X149535424Y-48265608D01*
X149452102Y-48499751D01*
X149418251Y-48829017D01*
X149416250Y-48960750D01*
X149421931Y-49243295D01*
X149443401Y-49434569D01*
X149487296Y-49569973D01*
X149549334Y-49670468D01*
X149740004Y-49832143D01*
X149993955Y-49924204D01*
X150258631Y-49929104D01*
X150298506Y-49920616D01*
X150442726Y-49835323D01*
X150592443Y-49672729D01*
X150711179Y-49475397D01*
X150738110Y-49407662D01*
X150803629Y-49385685D01*
X150937803Y-49404012D01*
X151094299Y-49449026D01*
X151226788Y-49507113D01*
X151288937Y-49564655D01*
X151289500Y-49569702D01*
X151247347Y-49712240D01*
X151138528Y-49898794D01*
X150989495Y-50087025D01*
X150925263Y-50152625D01*
X150642140Y-50339224D01*
X150299307Y-50436963D01*
X149932089Y-50441233D01*
X149575807Y-50347422D01*
X149543250Y-50332982D01*
X149219314Y-50125163D01*
X148988766Y-49840664D01*
X148848173Y-49473169D01*
X148794103Y-49016363D01*
X148793258Y-48952855D01*
X148843102Y-48486353D01*
X148996370Y-48092791D01*
X149253908Y-47770230D01*
X149342503Y-47694208D01*
X149485833Y-47591860D01*
X149624555Y-47530508D01*
X149802021Y-47497392D01*
X150061588Y-47479750D01*
X150072753Y-47479253D01*
X150335101Y-47472884D01*
X150512425Y-47486843D01*
G37*
X150512425Y-47486843D02*
X150646050Y-47528626D01*
X150777304Y-47605731D01*
X150779988Y-47607549D01*
X150933442Y-47735839D01*
X151088161Y-47902500D01*
X151214844Y-48071307D01*
X151284190Y-48206034D01*
X151289500Y-48237443D01*
X151234227Y-48283735D01*
X151095059Y-48339532D01*
X151023020Y-48360860D01*
X150849630Y-48399680D01*
X150751791Y-48390621D01*
X150685236Y-48327909D01*
X150676688Y-48315683D01*
X150478765Y-48084125D01*
X150271087Y-47970324D01*
X150031865Y-47965608D01*
X149890085Y-48002616D01*
X149678119Y-48106570D01*
X149535424Y-48265608D01*
X149452102Y-48499751D01*
X149418251Y-48829017D01*
X149416250Y-48960750D01*
X149421931Y-49243295D01*
X149443401Y-49434569D01*
X149487296Y-49569973D01*
X149549334Y-49670468D01*
X149740004Y-49832143D01*
X149993955Y-49924204D01*
X150258631Y-49929104D01*
X150298506Y-49920616D01*
X150442726Y-49835323D01*
X150592443Y-49672729D01*
X150711179Y-49475397D01*
X150738110Y-49407662D01*
X150803629Y-49385685D01*
X150937803Y-49404012D01*
X151094299Y-49449026D01*
X151226788Y-49507113D01*
X151288937Y-49564655D01*
X151289500Y-49569702D01*
X151247347Y-49712240D01*
X151138528Y-49898794D01*
X150989495Y-50087025D01*
X150925263Y-50152625D01*
X150642140Y-50339224D01*
X150299307Y-50436963D01*
X149932089Y-50441233D01*
X149575807Y-50347422D01*
X149543250Y-50332982D01*
X149219314Y-50125163D01*
X148988766Y-49840664D01*
X148848173Y-49473169D01*
X148794103Y-49016363D01*
X148793258Y-48952855D01*
X148843102Y-48486353D01*
X148996370Y-48092791D01*
X149253908Y-47770230D01*
X149342503Y-47694208D01*
X149485833Y-47591860D01*
X149624555Y-47530508D01*
X149802021Y-47497392D01*
X150061588Y-47479750D01*
X150072753Y-47479253D01*
X150335101Y-47472884D01*
X150512425Y-47486843D01*
G36*
X147395183Y-47502861D02*
G01*
X147680805Y-47612600D01*
X147894837Y-47807699D01*
X148011885Y-48000080D01*
X148079699Y-48182488D01*
X148056053Y-48292283D01*
X147929446Y-48345006D01*
X147748013Y-48356527D01*
X147580453Y-48329947D01*
X147483518Y-48230658D01*
X147469901Y-48203041D01*
X147330785Y-48039841D01*
X147113464Y-47945164D01*
X146854800Y-47933797D01*
X146814579Y-47940217D01*
X146640974Y-48007940D01*
X146519680Y-48118762D01*
X146478771Y-48241315D01*
X146496340Y-48295763D01*
X146609160Y-48390721D01*
X146819710Y-48490555D01*
X147099919Y-48582733D01*
X147193750Y-48607114D01*
X147606706Y-48748521D01*
X147907941Y-48942269D01*
X148095406Y-49186168D01*
X148167053Y-49478028D01*
X148159142Y-49638761D01*
X148108887Y-49848212D01*
X148030127Y-50031689D01*
X148020017Y-50047990D01*
X147826485Y-50236494D01*
X147549534Y-50368372D01*
X147221913Y-50438320D01*
X146876369Y-50441034D01*
X146545651Y-50371213D01*
X146401297Y-50310125D01*
X146106785Y-50109484D01*
X145922943Y-49859766D01*
X145853045Y-49643375D01*
X145812625Y-49437000D01*
X146098608Y-49437000D01*
X146281880Y-49446535D01*
X146383358Y-49490159D01*
X146447721Y-49590400D01*
X146460088Y-49619262D01*
X146598102Y-49802460D01*
X146807231Y-49914546D01*
X147049217Y-49948958D01*
X147285803Y-49899135D01*
X147450636Y-49789136D01*
X147575224Y-49625893D01*
X147591503Y-49486275D01*
X147494713Y-49363975D01*
X147280100Y-49252683D01*
X146971500Y-49153777D01*
X146564207Y-49023425D01*
X146270905Y-48879697D01*
X146078603Y-48711466D01*
X145974311Y-48507600D01*
X145944916Y-48274241D01*
X145990825Y-47963255D01*
X146130896Y-47730080D01*
X146368648Y-47572078D01*
X146707601Y-47486608D01*
X147019331Y-47468499D01*
X147395183Y-47502861D01*
G37*
X147395183Y-47502861D02*
X147680805Y-47612600D01*
X147894837Y-47807699D01*
X148011885Y-48000080D01*
X148079699Y-48182488D01*
X148056053Y-48292283D01*
X147929446Y-48345006D01*
X147748013Y-48356527D01*
X147580453Y-48329947D01*
X147483518Y-48230658D01*
X147469901Y-48203041D01*
X147330785Y-48039841D01*
X147113464Y-47945164D01*
X146854800Y-47933797D01*
X146814579Y-47940217D01*
X146640974Y-48007940D01*
X146519680Y-48118762D01*
X146478771Y-48241315D01*
X146496340Y-48295763D01*
X146609160Y-48390721D01*
X146819710Y-48490555D01*
X147099919Y-48582733D01*
X147193750Y-48607114D01*
X147606706Y-48748521D01*
X147907941Y-48942269D01*
X148095406Y-49186168D01*
X148167053Y-49478028D01*
X148159142Y-49638761D01*
X148108887Y-49848212D01*
X148030127Y-50031689D01*
X148020017Y-50047990D01*
X147826485Y-50236494D01*
X147549534Y-50368372D01*
X147221913Y-50438320D01*
X146876369Y-50441034D01*
X146545651Y-50371213D01*
X146401297Y-50310125D01*
X146106785Y-50109484D01*
X145922943Y-49859766D01*
X145853045Y-49643375D01*
X145812625Y-49437000D01*
X146098608Y-49437000D01*
X146281880Y-49446535D01*
X146383358Y-49490159D01*
X146447721Y-49590400D01*
X146460088Y-49619262D01*
X146598102Y-49802460D01*
X146807231Y-49914546D01*
X147049217Y-49948958D01*
X147285803Y-49899135D01*
X147450636Y-49789136D01*
X147575224Y-49625893D01*
X147591503Y-49486275D01*
X147494713Y-49363975D01*
X147280100Y-49252683D01*
X146971500Y-49153777D01*
X146564207Y-49023425D01*
X146270905Y-48879697D01*
X146078603Y-48711466D01*
X145974311Y-48507600D01*
X145944916Y-48274241D01*
X145990825Y-47963255D01*
X146130896Y-47730080D01*
X146368648Y-47572078D01*
X146707601Y-47486608D01*
X147019331Y-47468499D01*
X147395183Y-47502861D01*
D12*
X112978922Y-52740000D02*
X113496078Y-52740000D01*
X112978922Y-54160000D02*
X113496078Y-54160000D01*
X120778922Y-120590000D02*
X121296078Y-120590000D01*
X120778922Y-122010000D02*
X121296078Y-122010000D01*
X150960000Y-139696078D02*
X150960000Y-139178922D01*
X149540000Y-139696078D02*
X149540000Y-139178922D01*
X166796078Y-89690000D02*
X166278922Y-89690000D01*
X166796078Y-91110000D02*
X166278922Y-91110000D01*
X100090000Y-52090000D02*
X100090000Y-54440000D01*
X100090000Y-58910000D02*
X100090000Y-56560000D01*
X105845563Y-58910000D02*
X100090000Y-58910000D01*
X105845563Y-52090000D02*
X100090000Y-52090000D01*
X106910000Y-53154437D02*
X106910000Y-54440000D01*
X106910000Y-57845563D02*
X106910000Y-56560000D01*
X106910000Y-57845563D02*
X105845563Y-58910000D01*
X106910000Y-53154437D02*
X105845563Y-52090000D01*
X107937500Y-57347500D02*
X107150000Y-57347500D01*
X107543750Y-57741250D02*
X107543750Y-56953750D01*
X112490000Y-113890000D02*
X112490000Y-116240000D01*
X112490000Y-120710000D02*
X112490000Y-118360000D01*
X118245563Y-120710000D02*
X112490000Y-120710000D01*
X118245563Y-113890000D02*
X112490000Y-113890000D01*
X119310000Y-114954437D02*
X119310000Y-116240000D01*
X119310000Y-119645563D02*
X119310000Y-118360000D01*
X119310000Y-119645563D02*
X118245563Y-120710000D01*
X119310000Y-114954437D02*
X118245563Y-113890000D01*
X120337500Y-119147500D02*
X119550000Y-119147500D01*
X119943750Y-119541250D02*
X119943750Y-118753750D01*
X142008750Y-143293750D02*
X142796250Y-143293750D01*
X142402500Y-143687500D02*
X142402500Y-142900000D01*
X146595563Y-142660000D02*
X147660000Y-141595563D01*
X141904437Y-142660000D02*
X140840000Y-141595563D01*
X141904437Y-142660000D02*
X143190000Y-142660000D01*
X146595563Y-142660000D02*
X145310000Y-142660000D01*
X147660000Y-141595563D02*
X147660000Y-135840000D01*
X140840000Y-141595563D02*
X140840000Y-135840000D01*
X140840000Y-135840000D02*
X143190000Y-135840000D01*
X147660000Y-135840000D02*
X145310000Y-135840000D01*
X161590000Y-93090000D02*
X161590000Y-95440000D01*
X161590000Y-99910000D02*
X161590000Y-97560000D01*
X167345563Y-99910000D02*
X161590000Y-99910000D01*
X167345563Y-93090000D02*
X161590000Y-93090000D01*
X168410000Y-94154437D02*
X168410000Y-95440000D01*
X168410000Y-98845563D02*
X168410000Y-97560000D01*
X168410000Y-98845563D02*
X167345563Y-99910000D01*
X168410000Y-94154437D02*
X167345563Y-93090000D01*
X169437500Y-98347500D02*
X168650000Y-98347500D01*
X169043750Y-98741250D02*
X169043750Y-97953750D01*
X121528922Y-68990000D02*
X122046078Y-68990000D01*
X121528922Y-70410000D02*
X122046078Y-70410000D01*
X166258578Y-128790000D02*
X165741422Y-128790000D01*
X166258578Y-130210000D02*
X165741422Y-130210000D01*
X120591422Y-104860000D02*
X121108578Y-104860000D01*
X120591422Y-103440000D02*
X121108578Y-103440000D01*
X165571078Y-69690000D02*
X165053922Y-69690000D01*
X165571078Y-71110000D02*
X165053922Y-71110000D01*
X120493750Y-67341250D02*
X120493750Y-66553750D01*
X120887500Y-66947500D02*
X120100000Y-66947500D01*
X119860000Y-62754437D02*
X118795563Y-61690000D01*
X119860000Y-67445563D02*
X118795563Y-68510000D01*
X119860000Y-67445563D02*
X119860000Y-66160000D01*
X119860000Y-62754437D02*
X119860000Y-64040000D01*
X118795563Y-61690000D02*
X113040000Y-61690000D01*
X118795563Y-68510000D02*
X113040000Y-68510000D01*
X113040000Y-68510000D02*
X113040000Y-66160000D01*
X113040000Y-61690000D02*
X113040000Y-64040000D01*
X169043750Y-137741250D02*
X169043750Y-136953750D01*
X169437500Y-137347500D02*
X168650000Y-137347500D01*
X168410000Y-133154437D02*
X167345563Y-132090000D01*
X168410000Y-137845563D02*
X167345563Y-138910000D01*
X168410000Y-137845563D02*
X168410000Y-136560000D01*
X168410000Y-133154437D02*
X168410000Y-134440000D01*
X167345563Y-132090000D02*
X161590000Y-132090000D01*
X167345563Y-138910000D02*
X161590000Y-138910000D01*
X161590000Y-138910000D02*
X161590000Y-136560000D01*
X161590000Y-132090000D02*
X161590000Y-134440000D01*
X120493750Y-101191250D02*
X120493750Y-100403750D01*
X120887500Y-100797500D02*
X120100000Y-100797500D01*
X119860000Y-96604437D02*
X118795563Y-95540000D01*
X119860000Y-101295563D02*
X118795563Y-102360000D01*
X119860000Y-101295563D02*
X119860000Y-100010000D01*
X119860000Y-96604437D02*
X119860000Y-97890000D01*
X118795563Y-95540000D02*
X113040000Y-95540000D01*
X118795563Y-102360000D02*
X113040000Y-102360000D01*
X113040000Y-102360000D02*
X113040000Y-100010000D01*
X113040000Y-95540000D02*
X113040000Y-97890000D01*
X169043750Y-78741250D02*
X169043750Y-77953750D01*
X169437500Y-78347500D02*
X168650000Y-78347500D01*
X168410000Y-74154437D02*
X167345563Y-73090000D01*
X168410000Y-78845563D02*
X167345563Y-79910000D01*
X168410000Y-78845563D02*
X168410000Y-77560000D01*
X168410000Y-74154437D02*
X168410000Y-75440000D01*
X167345563Y-73090000D02*
X161590000Y-73090000D01*
X167345563Y-79910000D02*
X161590000Y-79910000D01*
X161590000Y-79910000D02*
X161590000Y-77560000D01*
X161590000Y-73090000D02*
X161590000Y-75440000D01*
X120428922Y-85890000D02*
X120946078Y-85890000D01*
X120428922Y-87310000D02*
X120946078Y-87310000D01*
X120041422Y-139360000D02*
X120558578Y-139360000D01*
X120041422Y-137940000D02*
X120558578Y-137940000D01*
X166821078Y-110910000D02*
X166303922Y-110910000D01*
X166821078Y-109490000D02*
X166303922Y-109490000D01*
X169890000Y-59921078D02*
X169890000Y-59403922D01*
X171310000Y-59921078D02*
X171310000Y-59403922D01*
X112840000Y-78590000D02*
X112840000Y-80940000D01*
X112840000Y-85410000D02*
X112840000Y-83060000D01*
X118595563Y-85410000D02*
X112840000Y-85410000D01*
X118595563Y-78590000D02*
X112840000Y-78590000D01*
X119660000Y-79654437D02*
X119660000Y-80940000D01*
X119660000Y-84345563D02*
X119660000Y-83060000D01*
X119660000Y-84345563D02*
X118595563Y-85410000D01*
X119660000Y-79654437D02*
X118595563Y-78590000D01*
X120687500Y-83847500D02*
X119900000Y-83847500D01*
X120293750Y-84241250D02*
X120293750Y-83453750D01*
X119143750Y-136291250D02*
X119143750Y-135503750D01*
X119537500Y-135897500D02*
X118750000Y-135897500D01*
X118510000Y-131704437D02*
X117445563Y-130640000D01*
X118510000Y-136395563D02*
X117445563Y-137460000D01*
X118510000Y-136395563D02*
X118510000Y-135110000D01*
X118510000Y-131704437D02*
X118510000Y-132990000D01*
X117445563Y-130640000D02*
X111690000Y-130640000D01*
X117445563Y-137460000D02*
X111690000Y-137460000D01*
X111690000Y-137460000D02*
X111690000Y-135110000D01*
X111690000Y-130640000D02*
X111690000Y-132990000D01*
X161590000Y-112840000D02*
X161590000Y-115190000D01*
X161590000Y-119660000D02*
X161590000Y-117310000D01*
X167345563Y-119660000D02*
X161590000Y-119660000D01*
X167345563Y-112840000D02*
X161590000Y-112840000D01*
X168410000Y-113904437D02*
X168410000Y-115190000D01*
X168410000Y-118595563D02*
X168410000Y-117310000D01*
X168410000Y-118595563D02*
X167345563Y-119660000D01*
X168410000Y-113904437D02*
X167345563Y-112840000D01*
X169437500Y-118097500D02*
X168650000Y-118097500D01*
X169043750Y-118491250D02*
X169043750Y-117703750D01*
X167410000Y-52590000D02*
X165060000Y-52590000D01*
X160590000Y-52590000D02*
X162940000Y-52590000D01*
X160590000Y-58345563D02*
X160590000Y-52590000D01*
X167410000Y-58345563D02*
X167410000Y-52590000D01*
X166345563Y-59410000D02*
X165060000Y-59410000D01*
X161654437Y-59410000D02*
X162940000Y-59410000D01*
X161654437Y-59410000D02*
X160590000Y-58345563D01*
X166345563Y-59410000D02*
X167410000Y-58345563D01*
X162152500Y-60437500D02*
X162152500Y-59650000D01*
X161758750Y-60043750D02*
X162546250Y-60043750D01*
X114590000Y-39927500D02*
X114590000Y-42612500D01*
X116510000Y-39927500D02*
X114590000Y-39927500D01*
X116510000Y-42612500D02*
X116510000Y-39927500D01*
X120510000Y-42612500D02*
X120510000Y-39927500D01*
X120510000Y-39927500D02*
X118590000Y-39927500D01*
X118590000Y-39927500D02*
X118590000Y-42612500D01*
X100215244Y-69183318D02*
G75*
G02X100070000Y-68500000I1534756J683318D01*
G01*
X102433042Y-70035426D02*
G75*
G02X101066000Y-70035000I-683042J1535426D01*
G01*
X103285426Y-67816958D02*
G75*
G02X103285000Y-69184000I-1535426J-683042D01*
G01*
X101066958Y-66964574D02*
G75*
G02X102434000Y-66965000I683042J-1535426D01*
G01*
X100069747Y-68528805D02*
G75*
G02X100215000Y-67816000I1680253J28805D01*
G01*
X103430000Y-73580000D02*
G75*
G03X103430000Y-73580000I-1680000J0D01*
G01*
X103430000Y-78660000D02*
G75*
G03X103430000Y-78660000I-1680000J0D01*
G01*
X103430000Y-83740000D02*
G75*
G03X103430000Y-83740000I-1680000J0D01*
G01*
X103430000Y-88820000D02*
G75*
G03X103430000Y-88820000I-1680000J0D01*
G01*
X103430000Y-93900000D02*
G75*
G03X103430000Y-93900000I-1680000J0D01*
G01*
X103430000Y-98980000D02*
G75*
G03X103430000Y-98980000I-1680000J0D01*
G01*
X103430000Y-104060000D02*
G75*
G03X103430000Y-104060000I-1680000J0D01*
G01*
X103430000Y-109140000D02*
G75*
G03X103430000Y-109140000I-1680000J0D01*
G01*
X103430000Y-114220000D02*
G75*
G03X103430000Y-114220000I-1680000J0D01*
G01*
X103430000Y-119300000D02*
G75*
G03X103430000Y-119300000I-1680000J0D01*
G01*
X103430000Y-124380000D02*
G75*
G03X103430000Y-124380000I-1680000J0D01*
G01*
X97650000Y-65900000D02*
X97650000Y-126980000D01*
X99150000Y-65900000D02*
X99150000Y-126980000D01*
X104051000Y-65900000D02*
X104051000Y-126980000D01*
X107011000Y-65900000D02*
X107011000Y-126980000D01*
X97090000Y-65900000D02*
X97090000Y-126980000D01*
X107011000Y-65900000D02*
X97090000Y-65900000D01*
X107011000Y-126980000D02*
X97090000Y-126980000D01*
X102819000Y-74855000D02*
X102773000Y-74808000D01*
X100511000Y-72546000D02*
X100476000Y-72511000D01*
X103025000Y-74650000D02*
X102989000Y-74615000D01*
X100727000Y-72353000D02*
X100681000Y-72306000D01*
X102819000Y-79935000D02*
X102773000Y-79888000D01*
X100511000Y-77626000D02*
X100476000Y-77591000D01*
X103025000Y-79730000D02*
X102989000Y-79695000D01*
X100727000Y-77433000D02*
X100681000Y-77386000D01*
X102819000Y-85015000D02*
X102773000Y-84968000D01*
X100511000Y-82706000D02*
X100476000Y-82671000D01*
X103025000Y-84810000D02*
X102989000Y-84775000D01*
X100727000Y-82513000D02*
X100681000Y-82466000D01*
X102819000Y-90095000D02*
X102773000Y-90048000D01*
X100511000Y-87786000D02*
X100476000Y-87751000D01*
X103025000Y-89890000D02*
X102989000Y-89855000D01*
X100727000Y-87593000D02*
X100681000Y-87546000D01*
X102819000Y-95175000D02*
X102773000Y-95128000D01*
X100511000Y-92866000D02*
X100476000Y-92831000D01*
X103025000Y-94970000D02*
X102989000Y-94935000D01*
X100727000Y-92673000D02*
X100681000Y-92626000D01*
X102819000Y-100255000D02*
X102773000Y-100208000D01*
X100511000Y-97946000D02*
X100476000Y-97911000D01*
X103025000Y-100050000D02*
X102989000Y-100015000D01*
X100727000Y-97753000D02*
X100681000Y-97706000D01*
X102819000Y-105335000D02*
X102773000Y-105288000D01*
X100511000Y-103026000D02*
X100476000Y-102991000D01*
X103025000Y-105130000D02*
X102989000Y-105095000D01*
X100727000Y-102833000D02*
X100681000Y-102786000D01*
X102819000Y-110415000D02*
X102773000Y-110368000D01*
X100511000Y-108106000D02*
X100476000Y-108071000D01*
X103025000Y-110210000D02*
X102989000Y-110175000D01*
X100727000Y-107913000D02*
X100681000Y-107866000D01*
X102819000Y-115495000D02*
X102773000Y-115448000D01*
X100511000Y-113186000D02*
X100476000Y-113151000D01*
X103025000Y-115290000D02*
X102989000Y-115255000D01*
X100727000Y-112993000D02*
X100681000Y-112946000D01*
X102819000Y-120575000D02*
X102773000Y-120528000D01*
X100511000Y-118266000D02*
X100476000Y-118231000D01*
X103025000Y-120370000D02*
X102989000Y-120335000D01*
X100727000Y-118073000D02*
X100681000Y-118026000D01*
X102819000Y-125655000D02*
X102773000Y-125608000D01*
X100511000Y-123346000D02*
X100476000Y-123311000D01*
X103025000Y-125450000D02*
X102989000Y-125415000D01*
X100727000Y-123153000D02*
X100681000Y-123106000D01*
X97590000Y-65660000D02*
X96850000Y-65660000D01*
X96850000Y-65660000D02*
X96850000Y-66160000D01*
X186150000Y-127590000D02*
X186150000Y-127090000D01*
X185410000Y-127590000D02*
X186150000Y-127590000D01*
X182273000Y-70097000D02*
X182319000Y-70144000D01*
X179975000Y-67800000D02*
X180011000Y-67835000D01*
X182489000Y-69904000D02*
X182524000Y-69939000D01*
X180181000Y-67595000D02*
X180227000Y-67642000D01*
X182273000Y-75177000D02*
X182319000Y-75224000D01*
X179975000Y-72880000D02*
X180011000Y-72915000D01*
X182489000Y-74984000D02*
X182524000Y-75019000D01*
X180181000Y-72675000D02*
X180227000Y-72722000D01*
X182273000Y-80257000D02*
X182319000Y-80304000D01*
X179975000Y-77960000D02*
X180011000Y-77995000D01*
X182489000Y-80064000D02*
X182524000Y-80099000D01*
X180181000Y-77755000D02*
X180227000Y-77802000D01*
X182273000Y-85337000D02*
X182319000Y-85384000D01*
X179975000Y-83040000D02*
X180011000Y-83075000D01*
X182489000Y-85144000D02*
X182524000Y-85179000D01*
X180181000Y-82835000D02*
X180227000Y-82882000D01*
X182273000Y-90417000D02*
X182319000Y-90464000D01*
X179975000Y-88120000D02*
X180011000Y-88155000D01*
X182489000Y-90224000D02*
X182524000Y-90259000D01*
X180181000Y-87915000D02*
X180227000Y-87962000D01*
X182273000Y-95497000D02*
X182319000Y-95544000D01*
X179975000Y-93200000D02*
X180011000Y-93235000D01*
X182489000Y-95304000D02*
X182524000Y-95339000D01*
X180181000Y-92995000D02*
X180227000Y-93042000D01*
X182273000Y-100577000D02*
X182319000Y-100624000D01*
X179975000Y-98280000D02*
X180011000Y-98315000D01*
X182489000Y-100384000D02*
X182524000Y-100419000D01*
X180181000Y-98075000D02*
X180227000Y-98122000D01*
X182273000Y-105657000D02*
X182319000Y-105704000D01*
X179975000Y-103360000D02*
X180011000Y-103395000D01*
X182489000Y-105464000D02*
X182524000Y-105499000D01*
X180181000Y-103155000D02*
X180227000Y-103202000D01*
X182273000Y-110737000D02*
X182319000Y-110784000D01*
X179975000Y-108440000D02*
X180011000Y-108475000D01*
X182489000Y-110544000D02*
X182524000Y-110579000D01*
X180181000Y-108235000D02*
X180227000Y-108282000D01*
X182273000Y-115817000D02*
X182319000Y-115864000D01*
X179975000Y-113520000D02*
X180011000Y-113555000D01*
X182489000Y-115624000D02*
X182524000Y-115659000D01*
X180181000Y-113315000D02*
X180227000Y-113362000D01*
X182273000Y-120897000D02*
X182319000Y-120944000D01*
X179975000Y-118600000D02*
X180011000Y-118635000D01*
X182489000Y-120704000D02*
X182524000Y-120739000D01*
X180181000Y-118395000D02*
X180227000Y-118442000D01*
X175989000Y-66270000D02*
X185910000Y-66270000D01*
X175989000Y-127350000D02*
X185910000Y-127350000D01*
X185910000Y-127350000D02*
X185910000Y-66270000D01*
X175989000Y-127350000D02*
X175989000Y-66270000D01*
X178949000Y-127350000D02*
X178949000Y-66270000D01*
X183850000Y-127350000D02*
X183850000Y-66270000D01*
X185350000Y-127350000D02*
X185350000Y-66270000D01*
X182930000Y-68870000D02*
G75*
G03X182930000Y-68870000I-1680000J0D01*
G01*
X182930000Y-73950000D02*
G75*
G03X182930000Y-73950000I-1680000J0D01*
G01*
X182930000Y-79030000D02*
G75*
G03X182930000Y-79030000I-1680000J0D01*
G01*
X182930000Y-84110000D02*
G75*
G03X182930000Y-84110000I-1680000J0D01*
G01*
X182930000Y-89190000D02*
G75*
G03X182930000Y-89190000I-1680000J0D01*
G01*
X182930000Y-94270000D02*
G75*
G03X182930000Y-94270000I-1680000J0D01*
G01*
X182930000Y-99350000D02*
G75*
G03X182930000Y-99350000I-1680000J0D01*
G01*
X182930000Y-104430000D02*
G75*
G03X182930000Y-104430000I-1680000J0D01*
G01*
X182930000Y-109510000D02*
G75*
G03X182930000Y-109510000I-1680000J0D01*
G01*
X182930000Y-114590000D02*
G75*
G03X182930000Y-114590000I-1680000J0D01*
G01*
X182930000Y-119670000D02*
G75*
G03X182930000Y-119670000I-1680000J0D01*
G01*
X182930253Y-124721195D02*
G75*
G02X182785000Y-125434000I-1680253J-28805D01*
G01*
X181933042Y-126285426D02*
G75*
G02X180566000Y-126285000I-683042J1535426D01*
G01*
X179714574Y-125433042D02*
G75*
G02X179715000Y-124066000I1535426J683042D01*
G01*
X180566958Y-123214574D02*
G75*
G02X181934000Y-123215000I683042J-1535426D01*
G01*
X182784756Y-124066682D02*
G75*
G02X182930000Y-124750000I-1534756J-683318D01*
G01*
D13*
X124750000Y-37550000D02*
X133750000Y-37550000D01*
X133750000Y-37550000D02*
X133750000Y-51950000D01*
X124750000Y-51950000D02*
X124750000Y-50800000D01*
X133750000Y-51950000D02*
X131900000Y-51950000D01*
X124750000Y-45700000D02*
X124750000Y-37550000D01*
X126700000Y-51950000D02*
X124750000Y-51950000D01*
D14*
X129450000Y-53250000D02*
G75*
G03X129450000Y-53250000I-200000J0D01*
G01*
D13*
X139450000Y-129625000D02*
X139450000Y-135375000D01*
X139450000Y-135375000D02*
X132050000Y-135375000D01*
X132050000Y-135375000D02*
X132050000Y-129625000D01*
X132050000Y-129625000D02*
X139450000Y-129625000D01*
D15*
X137100000Y-129000000D02*
G75*
G03X137100000Y-129000000I-100000J0D01*
G01*
X125564000Y-64051000D02*
G75*
G03X125564000Y-64051000I-100000J0D01*
G01*
D13*
X126404000Y-56014000D02*
X125850000Y-56014000D01*
X125850000Y-56014000D02*
X125850000Y-62234000D01*
X132096000Y-56014000D02*
X132650000Y-56014000D01*
X132650000Y-56014000D02*
X132650000Y-62234000D01*
X132650000Y-62234000D02*
X125850000Y-62234000D01*
D12*
X120990000Y-54771078D02*
X120990000Y-54253922D01*
X122410000Y-54771078D02*
X122410000Y-54253922D01*
X128940000Y-122758578D02*
X128940000Y-122241422D01*
X130360000Y-122758578D02*
X130360000Y-122241422D01*
X152071078Y-131960000D02*
X151553922Y-131960000D01*
X152071078Y-130540000D02*
X151553922Y-130540000D01*
X158210000Y-88491422D02*
X158210000Y-89008578D01*
X156790000Y-88491422D02*
X156790000Y-89008578D01*
X127940000Y-70958578D02*
X127940000Y-70441422D01*
X129360000Y-70958578D02*
X129360000Y-70441422D01*
X157210000Y-126508578D02*
X157210000Y-125991422D01*
X155790000Y-126508578D02*
X155790000Y-125991422D01*
X129560000Y-106208578D02*
X129560000Y-105691422D01*
X128140000Y-106208578D02*
X128140000Y-105691422D01*
X156740000Y-68203922D02*
X156740000Y-68721078D01*
X158160000Y-68203922D02*
X158160000Y-68721078D01*
X129260000Y-87921078D02*
X129260000Y-87403922D01*
X127840000Y-87921078D02*
X127840000Y-87403922D01*
X129410000Y-140171078D02*
X129410000Y-139653922D01*
X127990000Y-140171078D02*
X127990000Y-139653922D01*
X158210000Y-108203922D02*
X158210000Y-108721078D01*
X156790000Y-108203922D02*
X156790000Y-108721078D01*
X172996078Y-51090000D02*
X172478922Y-51090000D01*
X172996078Y-52510000D02*
X172478922Y-52510000D01*
X114915001Y-46346078D02*
X114915001Y-45828922D01*
X116335001Y-46346078D02*
X116335001Y-45828922D01*
X120260000Y-46346078D02*
X120260000Y-45828922D01*
X118840000Y-46346078D02*
X118840000Y-45828922D01*
D10*
X117175000Y-60025000D02*
X117175000Y-59975000D01*
X113025000Y-60025000D02*
X113025000Y-59880000D01*
X113025000Y-54875000D02*
X113025000Y-55020000D01*
X117175000Y-54875000D02*
X117175000Y-55020000D01*
X117175000Y-60025000D02*
X113025000Y-60025000D01*
X117175000Y-54875000D02*
X113025000Y-54875000D01*
X117175000Y-59975000D02*
X118575000Y-59975000D01*
X124375000Y-127875000D02*
X124375000Y-127825000D01*
X120225000Y-127875000D02*
X120225000Y-127730000D01*
X120225000Y-122725000D02*
X120225000Y-122870000D01*
X124375000Y-122725000D02*
X124375000Y-122870000D01*
X124375000Y-127875000D02*
X120225000Y-127875000D01*
X124375000Y-122725000D02*
X120225000Y-122725000D01*
X124375000Y-127825000D02*
X125775000Y-127825000D01*
X157325000Y-135675000D02*
X157275000Y-135675000D01*
X157325000Y-139825000D02*
X157180000Y-139825000D01*
X152175000Y-139825000D02*
X152320000Y-139825000D01*
X152175000Y-135675000D02*
X152320000Y-135675000D01*
X157325000Y-135675000D02*
X157325000Y-139825000D01*
X152175000Y-135675000D02*
X152175000Y-139825000D01*
X157275000Y-135675000D02*
X157275000Y-134275000D01*
X161925000Y-83275000D02*
X160525000Y-83275000D01*
X161925000Y-88375000D02*
X166075000Y-88375000D01*
X161925000Y-83225000D02*
X166075000Y-83225000D01*
X161925000Y-88375000D02*
X161925000Y-88230000D01*
X166075000Y-88375000D02*
X166075000Y-88230000D01*
X166075000Y-83225000D02*
X166075000Y-83370000D01*
X161925000Y-83225000D02*
X161925000Y-83275000D01*
X123925000Y-76225000D02*
X125325000Y-76225000D01*
X123925000Y-71125000D02*
X119775000Y-71125000D01*
X123925000Y-76275000D02*
X119775000Y-76275000D01*
X123925000Y-71125000D02*
X123925000Y-71270000D01*
X119775000Y-71125000D02*
X119775000Y-71270000D01*
X119775000Y-76275000D02*
X119775000Y-76130000D01*
X123925000Y-76275000D02*
X123925000Y-76225000D01*
X161925000Y-122525000D02*
X161925000Y-122575000D01*
X166075000Y-122525000D02*
X166075000Y-122670000D01*
X166075000Y-127675000D02*
X166075000Y-127530000D01*
X161925000Y-127675000D02*
X161925000Y-127530000D01*
X161925000Y-122525000D02*
X166075000Y-122525000D01*
X161925000Y-127675000D02*
X166075000Y-127675000D01*
X161925000Y-122575000D02*
X160525000Y-122575000D01*
X123925000Y-111475000D02*
X125325000Y-111475000D01*
X123925000Y-106375000D02*
X119775000Y-106375000D01*
X123925000Y-111525000D02*
X119775000Y-111525000D01*
X123925000Y-106375000D02*
X123925000Y-106520000D01*
X119775000Y-106375000D02*
X119775000Y-106520000D01*
X119775000Y-111525000D02*
X119775000Y-111380000D01*
X123925000Y-111525000D02*
X123925000Y-111475000D01*
X161975000Y-63025000D02*
X161975000Y-63075000D01*
X166125000Y-63025000D02*
X166125000Y-63170000D01*
X166125000Y-68175000D02*
X166125000Y-68030000D01*
X161975000Y-68175000D02*
X161975000Y-68030000D01*
X161975000Y-63025000D02*
X166125000Y-63025000D01*
X161975000Y-68175000D02*
X166125000Y-68175000D01*
X161975000Y-63075000D02*
X160575000Y-63075000D01*
X124025000Y-93125000D02*
X125425000Y-93125000D01*
X124025000Y-88025000D02*
X119875000Y-88025000D01*
X124025000Y-93175000D02*
X119875000Y-93175000D01*
X124025000Y-88025000D02*
X124025000Y-88170000D01*
X119875000Y-88025000D02*
X119875000Y-88170000D01*
X119875000Y-93175000D02*
X119875000Y-93030000D01*
X124025000Y-93175000D02*
X124025000Y-93125000D01*
X123575000Y-145575000D02*
X124975000Y-145575000D01*
X123575000Y-140475000D02*
X119425000Y-140475000D01*
X123575000Y-145625000D02*
X119425000Y-145625000D01*
X123575000Y-140475000D02*
X123575000Y-140620000D01*
X119425000Y-140475000D02*
X119425000Y-140620000D01*
X119425000Y-145625000D02*
X119425000Y-145480000D01*
X123575000Y-145625000D02*
X123575000Y-145575000D01*
X161925000Y-103025000D02*
X161925000Y-103075000D01*
X166075000Y-103025000D02*
X166075000Y-103170000D01*
X166075000Y-108175000D02*
X166075000Y-108030000D01*
X161925000Y-108175000D02*
X161925000Y-108030000D01*
X161925000Y-103025000D02*
X166075000Y-103025000D01*
X161925000Y-108175000D02*
X166075000Y-108175000D01*
X161925000Y-103075000D02*
X160525000Y-103075000D01*
X178125000Y-56325000D02*
X178125000Y-54925000D01*
X173025000Y-56325000D02*
X173025000Y-60475000D01*
X178175000Y-56325000D02*
X178175000Y-60475000D01*
X173025000Y-56325000D02*
X173170000Y-56325000D01*
X173025000Y-60475000D02*
X173170000Y-60475000D01*
X178175000Y-60475000D02*
X178030000Y-60475000D01*
X178175000Y-56325000D02*
X178125000Y-56325000D01*
D16*
G36*
X144607000Y-96347000D02*
G01*
X144353000Y-96093000D01*
X144734000Y-95839000D01*
X144988000Y-96093000D01*
X144607000Y-96347000D01*
G37*
X144607000Y-96347000D02*
X144353000Y-96093000D01*
X144734000Y-95839000D01*
X144988000Y-96093000D01*
X144607000Y-96347000D01*
G36*
X144226000Y-95966000D02*
G01*
X143972000Y-95712000D01*
X144353000Y-95458000D01*
X144607000Y-95712000D01*
X144226000Y-95966000D01*
G37*
X144226000Y-95966000D02*
X143972000Y-95712000D01*
X144353000Y-95458000D01*
X144607000Y-95712000D01*
X144226000Y-95966000D01*
G36*
X144988000Y-94061000D02*
G01*
X144734000Y-93807000D01*
X145115000Y-93553000D01*
X145369000Y-93807000D01*
X144988000Y-94061000D01*
G37*
X144988000Y-94061000D02*
X144734000Y-93807000D01*
X145115000Y-93553000D01*
X145369000Y-93807000D01*
X144988000Y-94061000D01*
G36*
X144480000Y-94442000D02*
G01*
X144226000Y-94188000D01*
X144607000Y-93934000D01*
X144861000Y-94188000D01*
X144480000Y-94442000D01*
G37*
X144480000Y-94442000D02*
X144226000Y-94188000D01*
X144607000Y-93934000D01*
X144861000Y-94188000D01*
X144480000Y-94442000D01*
G36*
X143972000Y-94823000D02*
G01*
X143718000Y-94569000D01*
X144099000Y-94315000D01*
X144353000Y-94569000D01*
X143972000Y-94823000D01*
G37*
X143972000Y-94823000D02*
X143718000Y-94569000D01*
X144099000Y-94315000D01*
X144353000Y-94569000D01*
X143972000Y-94823000D01*
G36*
X144861000Y-94823000D02*
G01*
X144607000Y-94569000D01*
X144988000Y-94315000D01*
X145242000Y-94569000D01*
X144861000Y-94823000D01*
G37*
X144861000Y-94823000D02*
X144607000Y-94569000D01*
X144988000Y-94315000D01*
X145242000Y-94569000D01*
X144861000Y-94823000D01*
G36*
X144353000Y-95204000D02*
G01*
X144099000Y-94950000D01*
X144480000Y-94696000D01*
X144734000Y-94950000D01*
X144353000Y-95204000D01*
G37*
X144353000Y-95204000D02*
X144099000Y-94950000D01*
X144480000Y-94696000D01*
X144734000Y-94950000D01*
X144353000Y-95204000D01*
G36*
X143845000Y-95585000D02*
G01*
X143591000Y-95331000D01*
X143972000Y-95077000D01*
X144226000Y-95331000D01*
X143845000Y-95585000D01*
G37*
X143845000Y-95585000D02*
X143591000Y-95331000D01*
X143972000Y-95077000D01*
X144226000Y-95331000D01*
X143845000Y-95585000D01*
D10*
X135410000Y-62670000D02*
X153190000Y-62670000D01*
X135410000Y-123630000D02*
X135410000Y-62670000D01*
X153190000Y-123630000D02*
X135410000Y-123630000D01*
X153190000Y-62670000D02*
X153190000Y-123630000D01*
X140490000Y-67750000D02*
X140490000Y-62670000D01*
X148110000Y-67750000D02*
X148110000Y-62670000D01*
X140490000Y-67750000D02*
X148110000Y-67750000D01*
X148110000Y-61400000D02*
X148110000Y-62670000D01*
X140490000Y-61400000D02*
X148110000Y-61400000D01*
X140490000Y-62670000D02*
X140490000Y-61400000D01*
X150650000Y-123630000D02*
X150650000Y-110930000D01*
X150650000Y-110930000D02*
X137950000Y-110930000D01*
X137950000Y-110930000D02*
X137950000Y-123630000D01*
X149380000Y-123630000D02*
X149380000Y-122360000D01*
X149380000Y-122360000D02*
X139220000Y-122360000D01*
X139220000Y-122360000D02*
X139220000Y-123630000D01*
X145570000Y-107120000D02*
X143030000Y-107120000D01*
X143030000Y-107120000D02*
X143030000Y-103310000D01*
X143030000Y-103310000D02*
X145570000Y-103310000D01*
X145570000Y-103310000D02*
X145570000Y-107120000D01*
X141000800Y-68969200D02*
X141000800Y-81669200D01*
X141000800Y-81669200D02*
X138460800Y-81669200D01*
X138460800Y-81669200D02*
X138460800Y-68969200D01*
X138460800Y-68969200D02*
X141000800Y-68969200D01*
X141000800Y-68969200D02*
X141000800Y-71509200D01*
X141000800Y-71509200D02*
X138460800Y-71509200D01*
X150401600Y-75900000D02*
X144401600Y-75900000D01*
X144401600Y-75900000D02*
X144401600Y-79900000D01*
X144401600Y-79900000D02*
X150651600Y-79900000D01*
X150651600Y-79900000D02*
X150651600Y-75900000D01*
X150651600Y-75900000D02*
X150401600Y-75900000D01*
X137950000Y-85530000D02*
X137950000Y-98230000D01*
X137950000Y-98230000D02*
X150650000Y-98230000D01*
X150650000Y-98230000D02*
X150650000Y-85530000D01*
X150650000Y-85530000D02*
X137950000Y-85530000D01*
X145198026Y-105215000D02*
G75*
G03X145198026Y-105215000I-898026J0D01*
G01*
X95666666Y-138002380D02*
X95333333Y-137526190D01*
X95095238Y-138002380D02*
X95095238Y-137002380D01*
X95476190Y-137002380D01*
X95571428Y-137050000D01*
X95619047Y-137097619D01*
X95666666Y-137192857D01*
X95666666Y-137335714D01*
X95619047Y-137430952D01*
X95571428Y-137478571D01*
X95476190Y-137526190D01*
X95095238Y-137526190D01*
X96095238Y-137478571D02*
X96428571Y-137478571D01*
X96571428Y-138002380D02*
X96095238Y-138002380D01*
X96095238Y-137002380D01*
X96571428Y-137002380D01*
X97333333Y-137478571D02*
X97000000Y-137478571D01*
X97000000Y-138002380D02*
X97000000Y-137002380D01*
X97476190Y-137002380D01*
X98000000Y-137002380D02*
X98000000Y-137240476D01*
X97761904Y-137145238D02*
X98000000Y-137240476D01*
X98238095Y-137145238D01*
X97857142Y-137430952D02*
X98000000Y-137240476D01*
X98142857Y-137430952D01*
X98761904Y-137002380D02*
X98761904Y-137240476D01*
X98523809Y-137145238D02*
X98761904Y-137240476D01*
X99000000Y-137145238D01*
X98619047Y-137430952D02*
X98761904Y-137240476D01*
X98904761Y-137430952D01*
X95666666Y-40752380D02*
X95333333Y-40276190D01*
X95095238Y-40752380D02*
X95095238Y-39752380D01*
X95476190Y-39752380D01*
X95571428Y-39800000D01*
X95619047Y-39847619D01*
X95666666Y-39942857D01*
X95666666Y-40085714D01*
X95619047Y-40180952D01*
X95571428Y-40228571D01*
X95476190Y-40276190D01*
X95095238Y-40276190D01*
X96095238Y-40228571D02*
X96428571Y-40228571D01*
X96571428Y-40752380D02*
X96095238Y-40752380D01*
X96095238Y-39752380D01*
X96571428Y-39752380D01*
X97333333Y-40228571D02*
X97000000Y-40228571D01*
X97000000Y-40752380D02*
X97000000Y-39752380D01*
X97476190Y-39752380D01*
X98000000Y-39752380D02*
X98000000Y-39990476D01*
X97761904Y-39895238D02*
X98000000Y-39990476D01*
X98238095Y-39895238D01*
X97857142Y-40180952D02*
X98000000Y-39990476D01*
X98142857Y-40180952D01*
X98761904Y-39752380D02*
X98761904Y-39990476D01*
X98523809Y-39895238D02*
X98761904Y-39990476D01*
X99000000Y-39895238D01*
X98619047Y-40180952D02*
X98761904Y-39990476D01*
X98904761Y-40180952D01*
X184416666Y-40752380D02*
X184083333Y-40276190D01*
X183845238Y-40752380D02*
X183845238Y-39752380D01*
X184226190Y-39752380D01*
X184321428Y-39800000D01*
X184369047Y-39847619D01*
X184416666Y-39942857D01*
X184416666Y-40085714D01*
X184369047Y-40180952D01*
X184321428Y-40228571D01*
X184226190Y-40276190D01*
X183845238Y-40276190D01*
X184845238Y-40228571D02*
X185178571Y-40228571D01*
X185321428Y-40752380D02*
X184845238Y-40752380D01*
X184845238Y-39752380D01*
X185321428Y-39752380D01*
X186083333Y-40228571D02*
X185750000Y-40228571D01*
X185750000Y-40752380D02*
X185750000Y-39752380D01*
X186226190Y-39752380D01*
X186750000Y-39752380D02*
X186750000Y-39990476D01*
X186511904Y-39895238D02*
X186750000Y-39990476D01*
X186988095Y-39895238D01*
X186607142Y-40180952D02*
X186750000Y-39990476D01*
X186892857Y-40180952D01*
X187511904Y-39752380D02*
X187511904Y-39990476D01*
X187273809Y-39895238D02*
X187511904Y-39990476D01*
X187750000Y-39895238D01*
X187369047Y-40180952D02*
X187511904Y-39990476D01*
X187654761Y-40180952D01*
X184416666Y-138002380D02*
X184083333Y-137526190D01*
X183845238Y-138002380D02*
X183845238Y-137002380D01*
X184226190Y-137002380D01*
X184321428Y-137050000D01*
X184369047Y-137097619D01*
X184416666Y-137192857D01*
X184416666Y-137335714D01*
X184369047Y-137430952D01*
X184321428Y-137478571D01*
X184226190Y-137526190D01*
X183845238Y-137526190D01*
X184845238Y-137478571D02*
X185178571Y-137478571D01*
X185321428Y-138002380D02*
X184845238Y-138002380D01*
X184845238Y-137002380D01*
X185321428Y-137002380D01*
X186083333Y-137478571D02*
X185750000Y-137478571D01*
X185750000Y-138002380D02*
X185750000Y-137002380D01*
X186226190Y-137002380D01*
X186750000Y-137002380D02*
X186750000Y-137240476D01*
X186511904Y-137145238D02*
X186750000Y-137240476D01*
X186988095Y-137145238D01*
X186607142Y-137430952D02*
X186750000Y-137240476D01*
X186892857Y-137430952D01*
X187511904Y-137002380D02*
X187511904Y-137240476D01*
X187273809Y-137145238D02*
X187511904Y-137240476D01*
X187750000Y-137145238D01*
X187369047Y-137430952D02*
X187511904Y-137240476D01*
X187654761Y-137430952D01*
X113070833Y-52157142D02*
X113023214Y-52204761D01*
X112880357Y-52252380D01*
X112785119Y-52252380D01*
X112642261Y-52204761D01*
X112547023Y-52109523D01*
X112499404Y-52014285D01*
X112451785Y-51823809D01*
X112451785Y-51680952D01*
X112499404Y-51490476D01*
X112547023Y-51395238D01*
X112642261Y-51300000D01*
X112785119Y-51252380D01*
X112880357Y-51252380D01*
X113023214Y-51300000D01*
X113070833Y-51347619D01*
X114023214Y-52252380D02*
X113451785Y-52252380D01*
X113737500Y-52252380D02*
X113737500Y-51252380D01*
X113642261Y-51395238D01*
X113547023Y-51490476D01*
X113451785Y-51538095D01*
X120870833Y-120007142D02*
X120823214Y-120054761D01*
X120680357Y-120102380D01*
X120585119Y-120102380D01*
X120442261Y-120054761D01*
X120347023Y-119959523D01*
X120299404Y-119864285D01*
X120251785Y-119673809D01*
X120251785Y-119530952D01*
X120299404Y-119340476D01*
X120347023Y-119245238D01*
X120442261Y-119150000D01*
X120585119Y-119102380D01*
X120680357Y-119102380D01*
X120823214Y-119150000D01*
X120870833Y-119197619D01*
X121251785Y-119197619D02*
X121299404Y-119150000D01*
X121394642Y-119102380D01*
X121632738Y-119102380D01*
X121727976Y-119150000D01*
X121775595Y-119197619D01*
X121823214Y-119292857D01*
X121823214Y-119388095D01*
X121775595Y-119530952D01*
X121204166Y-120102380D01*
X121823214Y-120102380D01*
X148957142Y-139604166D02*
X149004761Y-139651785D01*
X149052380Y-139794642D01*
X149052380Y-139889880D01*
X149004761Y-140032738D01*
X148909523Y-140127976D01*
X148814285Y-140175595D01*
X148623809Y-140223214D01*
X148480952Y-140223214D01*
X148290476Y-140175595D01*
X148195238Y-140127976D01*
X148100000Y-140032738D01*
X148052380Y-139889880D01*
X148052380Y-139794642D01*
X148100000Y-139651785D01*
X148147619Y-139604166D01*
X148052380Y-139270833D02*
X148052380Y-138651785D01*
X148433333Y-138985119D01*
X148433333Y-138842261D01*
X148480952Y-138747023D01*
X148528571Y-138699404D01*
X148623809Y-138651785D01*
X148861904Y-138651785D01*
X148957142Y-138699404D01*
X149004761Y-138747023D01*
X149052380Y-138842261D01*
X149052380Y-139127976D01*
X149004761Y-139223214D01*
X148957142Y-139270833D01*
X166370833Y-92407142D02*
X166323214Y-92454761D01*
X166180357Y-92502380D01*
X166085119Y-92502380D01*
X165942261Y-92454761D01*
X165847023Y-92359523D01*
X165799404Y-92264285D01*
X165751785Y-92073809D01*
X165751785Y-91930952D01*
X165799404Y-91740476D01*
X165847023Y-91645238D01*
X165942261Y-91550000D01*
X166085119Y-91502380D01*
X166180357Y-91502380D01*
X166323214Y-91550000D01*
X166370833Y-91597619D01*
X167227976Y-91835714D02*
X167227976Y-92502380D01*
X166989880Y-91454761D02*
X166751785Y-92169047D01*
X167370833Y-92169047D01*
X103333333Y-60207142D02*
X103285714Y-60254761D01*
X103142857Y-60302380D01*
X103047619Y-60302380D01*
X102904761Y-60254761D01*
X102809523Y-60159523D01*
X102761904Y-60064285D01*
X102714285Y-59873809D01*
X102714285Y-59730952D01*
X102761904Y-59540476D01*
X102809523Y-59445238D01*
X102904761Y-59350000D01*
X103047619Y-59302380D01*
X103142857Y-59302380D01*
X103285714Y-59350000D01*
X103333333Y-59397619D01*
X104238095Y-59302380D02*
X103761904Y-59302380D01*
X103714285Y-59778571D01*
X103761904Y-59730952D01*
X103857142Y-59683333D01*
X104095238Y-59683333D01*
X104190476Y-59730952D01*
X104238095Y-59778571D01*
X104285714Y-59873809D01*
X104285714Y-60111904D01*
X104238095Y-60207142D01*
X104190476Y-60254761D01*
X104095238Y-60302380D01*
X103857142Y-60302380D01*
X103761904Y-60254761D01*
X103714285Y-60207142D01*
X115733333Y-122007142D02*
X115685714Y-122054761D01*
X115542857Y-122102380D01*
X115447619Y-122102380D01*
X115304761Y-122054761D01*
X115209523Y-121959523D01*
X115161904Y-121864285D01*
X115114285Y-121673809D01*
X115114285Y-121530952D01*
X115161904Y-121340476D01*
X115209523Y-121245238D01*
X115304761Y-121150000D01*
X115447619Y-121102380D01*
X115542857Y-121102380D01*
X115685714Y-121150000D01*
X115733333Y-121197619D01*
X116590476Y-121102380D02*
X116400000Y-121102380D01*
X116304761Y-121150000D01*
X116257142Y-121197619D01*
X116161904Y-121340476D01*
X116114285Y-121530952D01*
X116114285Y-121911904D01*
X116161904Y-122007142D01*
X116209523Y-122054761D01*
X116304761Y-122102380D01*
X116495238Y-122102380D01*
X116590476Y-122054761D01*
X116638095Y-122007142D01*
X116685714Y-121911904D01*
X116685714Y-121673809D01*
X116638095Y-121578571D01*
X116590476Y-121530952D01*
X116495238Y-121483333D01*
X116304761Y-121483333D01*
X116209523Y-121530952D01*
X116161904Y-121578571D01*
X116114285Y-121673809D01*
X140257142Y-139416666D02*
X140304761Y-139464285D01*
X140352380Y-139607142D01*
X140352380Y-139702380D01*
X140304761Y-139845238D01*
X140209523Y-139940476D01*
X140114285Y-139988095D01*
X139923809Y-140035714D01*
X139780952Y-140035714D01*
X139590476Y-139988095D01*
X139495238Y-139940476D01*
X139400000Y-139845238D01*
X139352380Y-139702380D01*
X139352380Y-139607142D01*
X139400000Y-139464285D01*
X139447619Y-139416666D01*
X139352380Y-139083333D02*
X139352380Y-138416666D01*
X140352380Y-138845238D01*
X164833333Y-101207142D02*
X164785714Y-101254761D01*
X164642857Y-101302380D01*
X164547619Y-101302380D01*
X164404761Y-101254761D01*
X164309523Y-101159523D01*
X164261904Y-101064285D01*
X164214285Y-100873809D01*
X164214285Y-100730952D01*
X164261904Y-100540476D01*
X164309523Y-100445238D01*
X164404761Y-100350000D01*
X164547619Y-100302380D01*
X164642857Y-100302380D01*
X164785714Y-100350000D01*
X164833333Y-100397619D01*
X165404761Y-100730952D02*
X165309523Y-100683333D01*
X165261904Y-100635714D01*
X165214285Y-100540476D01*
X165214285Y-100492857D01*
X165261904Y-100397619D01*
X165309523Y-100350000D01*
X165404761Y-100302380D01*
X165595238Y-100302380D01*
X165690476Y-100350000D01*
X165738095Y-100397619D01*
X165785714Y-100492857D01*
X165785714Y-100540476D01*
X165738095Y-100635714D01*
X165690476Y-100683333D01*
X165595238Y-100730952D01*
X165404761Y-100730952D01*
X165309523Y-100778571D01*
X165261904Y-100826190D01*
X165214285Y-100921428D01*
X165214285Y-101111904D01*
X165261904Y-101207142D01*
X165309523Y-101254761D01*
X165404761Y-101302380D01*
X165595238Y-101302380D01*
X165690476Y-101254761D01*
X165738095Y-101207142D01*
X165785714Y-101111904D01*
X165785714Y-100921428D01*
X165738095Y-100826190D01*
X165690476Y-100778571D01*
X165595238Y-100730952D01*
X121620833Y-68407142D02*
X121573214Y-68454761D01*
X121430357Y-68502380D01*
X121335119Y-68502380D01*
X121192261Y-68454761D01*
X121097023Y-68359523D01*
X121049404Y-68264285D01*
X121001785Y-68073809D01*
X121001785Y-67930952D01*
X121049404Y-67740476D01*
X121097023Y-67645238D01*
X121192261Y-67550000D01*
X121335119Y-67502380D01*
X121430357Y-67502380D01*
X121573214Y-67550000D01*
X121620833Y-67597619D01*
X122097023Y-68502380D02*
X122287500Y-68502380D01*
X122382738Y-68454761D01*
X122430357Y-68407142D01*
X122525595Y-68264285D01*
X122573214Y-68073809D01*
X122573214Y-67692857D01*
X122525595Y-67597619D01*
X122477976Y-67550000D01*
X122382738Y-67502380D01*
X122192261Y-67502380D01*
X122097023Y-67550000D01*
X122049404Y-67597619D01*
X122001785Y-67692857D01*
X122001785Y-67930952D01*
X122049404Y-68026190D01*
X122097023Y-68073809D01*
X122192261Y-68121428D01*
X122382738Y-68121428D01*
X122477976Y-68073809D01*
X122525595Y-68026190D01*
X122573214Y-67930952D01*
X165357142Y-131507142D02*
X165309523Y-131554761D01*
X165166666Y-131602380D01*
X165071428Y-131602380D01*
X164928571Y-131554761D01*
X164833333Y-131459523D01*
X164785714Y-131364285D01*
X164738095Y-131173809D01*
X164738095Y-131030952D01*
X164785714Y-130840476D01*
X164833333Y-130745238D01*
X164928571Y-130650000D01*
X165071428Y-130602380D01*
X165166666Y-130602380D01*
X165309523Y-130650000D01*
X165357142Y-130697619D01*
X166309523Y-131602380D02*
X165738095Y-131602380D01*
X166023809Y-131602380D02*
X166023809Y-130602380D01*
X165928571Y-130745238D01*
X165833333Y-130840476D01*
X165738095Y-130888095D01*
X166928571Y-130602380D02*
X167023809Y-130602380D01*
X167119047Y-130650000D01*
X167166666Y-130697619D01*
X167214285Y-130792857D01*
X167261904Y-130983333D01*
X167261904Y-131221428D01*
X167214285Y-131411904D01*
X167166666Y-131507142D01*
X167119047Y-131554761D01*
X167023809Y-131602380D01*
X166928571Y-131602380D01*
X166833333Y-131554761D01*
X166785714Y-131507142D01*
X166738095Y-131411904D01*
X166690476Y-131221428D01*
X166690476Y-130983333D01*
X166738095Y-130792857D01*
X166785714Y-130697619D01*
X166833333Y-130650000D01*
X166928571Y-130602380D01*
X120207142Y-102857142D02*
X120159523Y-102904761D01*
X120016666Y-102952380D01*
X119921428Y-102952380D01*
X119778571Y-102904761D01*
X119683333Y-102809523D01*
X119635714Y-102714285D01*
X119588095Y-102523809D01*
X119588095Y-102380952D01*
X119635714Y-102190476D01*
X119683333Y-102095238D01*
X119778571Y-102000000D01*
X119921428Y-101952380D01*
X120016666Y-101952380D01*
X120159523Y-102000000D01*
X120207142Y-102047619D01*
X121159523Y-102952380D02*
X120588095Y-102952380D01*
X120873809Y-102952380D02*
X120873809Y-101952380D01*
X120778571Y-102095238D01*
X120683333Y-102190476D01*
X120588095Y-102238095D01*
X122111904Y-102952380D02*
X121540476Y-102952380D01*
X121826190Y-102952380D02*
X121826190Y-101952380D01*
X121730952Y-102095238D01*
X121635714Y-102190476D01*
X121540476Y-102238095D01*
X164669642Y-72407142D02*
X164622023Y-72454761D01*
X164479166Y-72502380D01*
X164383928Y-72502380D01*
X164241071Y-72454761D01*
X164145833Y-72359523D01*
X164098214Y-72264285D01*
X164050595Y-72073809D01*
X164050595Y-71930952D01*
X164098214Y-71740476D01*
X164145833Y-71645238D01*
X164241071Y-71550000D01*
X164383928Y-71502380D01*
X164479166Y-71502380D01*
X164622023Y-71550000D01*
X164669642Y-71597619D01*
X165622023Y-72502380D02*
X165050595Y-72502380D01*
X165336309Y-72502380D02*
X165336309Y-71502380D01*
X165241071Y-71645238D01*
X165145833Y-71740476D01*
X165050595Y-71788095D01*
X166002976Y-71597619D02*
X166050595Y-71550000D01*
X166145833Y-71502380D01*
X166383928Y-71502380D01*
X166479166Y-71550000D01*
X166526785Y-71597619D01*
X166574404Y-71692857D01*
X166574404Y-71788095D01*
X166526785Y-71930952D01*
X165955357Y-72502380D01*
X166574404Y-72502380D01*
X115807142Y-69807142D02*
X115759523Y-69854761D01*
X115616666Y-69902380D01*
X115521428Y-69902380D01*
X115378571Y-69854761D01*
X115283333Y-69759523D01*
X115235714Y-69664285D01*
X115188095Y-69473809D01*
X115188095Y-69330952D01*
X115235714Y-69140476D01*
X115283333Y-69045238D01*
X115378571Y-68950000D01*
X115521428Y-68902380D01*
X115616666Y-68902380D01*
X115759523Y-68950000D01*
X115807142Y-68997619D01*
X116759523Y-69902380D02*
X116188095Y-69902380D01*
X116473809Y-69902380D02*
X116473809Y-68902380D01*
X116378571Y-69045238D01*
X116283333Y-69140476D01*
X116188095Y-69188095D01*
X117092857Y-68902380D02*
X117711904Y-68902380D01*
X117378571Y-69283333D01*
X117521428Y-69283333D01*
X117616666Y-69330952D01*
X117664285Y-69378571D01*
X117711904Y-69473809D01*
X117711904Y-69711904D01*
X117664285Y-69807142D01*
X117616666Y-69854761D01*
X117521428Y-69902380D01*
X117235714Y-69902380D01*
X117140476Y-69854761D01*
X117092857Y-69807142D01*
X164357142Y-140207142D02*
X164309523Y-140254761D01*
X164166666Y-140302380D01*
X164071428Y-140302380D01*
X163928571Y-140254761D01*
X163833333Y-140159523D01*
X163785714Y-140064285D01*
X163738095Y-139873809D01*
X163738095Y-139730952D01*
X163785714Y-139540476D01*
X163833333Y-139445238D01*
X163928571Y-139350000D01*
X164071428Y-139302380D01*
X164166666Y-139302380D01*
X164309523Y-139350000D01*
X164357142Y-139397619D01*
X165309523Y-140302380D02*
X164738095Y-140302380D01*
X165023809Y-140302380D02*
X165023809Y-139302380D01*
X164928571Y-139445238D01*
X164833333Y-139540476D01*
X164738095Y-139588095D01*
X166166666Y-139635714D02*
X166166666Y-140302380D01*
X165928571Y-139254761D02*
X165690476Y-139969047D01*
X166309523Y-139969047D01*
X115807142Y-103657142D02*
X115759523Y-103704761D01*
X115616666Y-103752380D01*
X115521428Y-103752380D01*
X115378571Y-103704761D01*
X115283333Y-103609523D01*
X115235714Y-103514285D01*
X115188095Y-103323809D01*
X115188095Y-103180952D01*
X115235714Y-102990476D01*
X115283333Y-102895238D01*
X115378571Y-102800000D01*
X115521428Y-102752380D01*
X115616666Y-102752380D01*
X115759523Y-102800000D01*
X115807142Y-102847619D01*
X116759523Y-103752380D02*
X116188095Y-103752380D01*
X116473809Y-103752380D02*
X116473809Y-102752380D01*
X116378571Y-102895238D01*
X116283333Y-102990476D01*
X116188095Y-103038095D01*
X117664285Y-102752380D02*
X117188095Y-102752380D01*
X117140476Y-103228571D01*
X117188095Y-103180952D01*
X117283333Y-103133333D01*
X117521428Y-103133333D01*
X117616666Y-103180952D01*
X117664285Y-103228571D01*
X117711904Y-103323809D01*
X117711904Y-103561904D01*
X117664285Y-103657142D01*
X117616666Y-103704761D01*
X117521428Y-103752380D01*
X117283333Y-103752380D01*
X117188095Y-103704761D01*
X117140476Y-103657142D01*
X164357142Y-81207142D02*
X164309523Y-81254761D01*
X164166666Y-81302380D01*
X164071428Y-81302380D01*
X163928571Y-81254761D01*
X163833333Y-81159523D01*
X163785714Y-81064285D01*
X163738095Y-80873809D01*
X163738095Y-80730952D01*
X163785714Y-80540476D01*
X163833333Y-80445238D01*
X163928571Y-80350000D01*
X164071428Y-80302380D01*
X164166666Y-80302380D01*
X164309523Y-80350000D01*
X164357142Y-80397619D01*
X165309523Y-81302380D02*
X164738095Y-81302380D01*
X165023809Y-81302380D02*
X165023809Y-80302380D01*
X164928571Y-80445238D01*
X164833333Y-80540476D01*
X164738095Y-80588095D01*
X166166666Y-80302380D02*
X165976190Y-80302380D01*
X165880952Y-80350000D01*
X165833333Y-80397619D01*
X165738095Y-80540476D01*
X165690476Y-80730952D01*
X165690476Y-81111904D01*
X165738095Y-81207142D01*
X165785714Y-81254761D01*
X165880952Y-81302380D01*
X166071428Y-81302380D01*
X166166666Y-81254761D01*
X166214285Y-81207142D01*
X166261904Y-81111904D01*
X166261904Y-80873809D01*
X166214285Y-80778571D01*
X166166666Y-80730952D01*
X166071428Y-80683333D01*
X165880952Y-80683333D01*
X165785714Y-80730952D01*
X165738095Y-80778571D01*
X165690476Y-80873809D01*
X120044642Y-85307142D02*
X119997023Y-85354761D01*
X119854166Y-85402380D01*
X119758928Y-85402380D01*
X119616071Y-85354761D01*
X119520833Y-85259523D01*
X119473214Y-85164285D01*
X119425595Y-84973809D01*
X119425595Y-84830952D01*
X119473214Y-84640476D01*
X119520833Y-84545238D01*
X119616071Y-84450000D01*
X119758928Y-84402380D01*
X119854166Y-84402380D01*
X119997023Y-84450000D01*
X120044642Y-84497619D01*
X120997023Y-85402380D02*
X120425595Y-85402380D01*
X120711309Y-85402380D02*
X120711309Y-84402380D01*
X120616071Y-84545238D01*
X120520833Y-84640476D01*
X120425595Y-84688095D01*
X121330357Y-84402380D02*
X121997023Y-84402380D01*
X121568452Y-85402380D01*
X119657142Y-137357142D02*
X119609523Y-137404761D01*
X119466666Y-137452380D01*
X119371428Y-137452380D01*
X119228571Y-137404761D01*
X119133333Y-137309523D01*
X119085714Y-137214285D01*
X119038095Y-137023809D01*
X119038095Y-136880952D01*
X119085714Y-136690476D01*
X119133333Y-136595238D01*
X119228571Y-136500000D01*
X119371428Y-136452380D01*
X119466666Y-136452380D01*
X119609523Y-136500000D01*
X119657142Y-136547619D01*
X120609523Y-137452380D02*
X120038095Y-137452380D01*
X120323809Y-137452380D02*
X120323809Y-136452380D01*
X120228571Y-136595238D01*
X120133333Y-136690476D01*
X120038095Y-136738095D01*
X121180952Y-136880952D02*
X121085714Y-136833333D01*
X121038095Y-136785714D01*
X120990476Y-136690476D01*
X120990476Y-136642857D01*
X121038095Y-136547619D01*
X121085714Y-136500000D01*
X121180952Y-136452380D01*
X121371428Y-136452380D01*
X121466666Y-136500000D01*
X121514285Y-136547619D01*
X121561904Y-136642857D01*
X121561904Y-136690476D01*
X121514285Y-136785714D01*
X121466666Y-136833333D01*
X121371428Y-136880952D01*
X121180952Y-136880952D01*
X121085714Y-136928571D01*
X121038095Y-136976190D01*
X120990476Y-137071428D01*
X120990476Y-137261904D01*
X121038095Y-137357142D01*
X121085714Y-137404761D01*
X121180952Y-137452380D01*
X121371428Y-137452380D01*
X121466666Y-137404761D01*
X121514285Y-137357142D01*
X121561904Y-137261904D01*
X121561904Y-137071428D01*
X121514285Y-136976190D01*
X121466666Y-136928571D01*
X121371428Y-136880952D01*
X165919642Y-112207142D02*
X165872023Y-112254761D01*
X165729166Y-112302380D01*
X165633928Y-112302380D01*
X165491071Y-112254761D01*
X165395833Y-112159523D01*
X165348214Y-112064285D01*
X165300595Y-111873809D01*
X165300595Y-111730952D01*
X165348214Y-111540476D01*
X165395833Y-111445238D01*
X165491071Y-111350000D01*
X165633928Y-111302380D01*
X165729166Y-111302380D01*
X165872023Y-111350000D01*
X165919642Y-111397619D01*
X166872023Y-112302380D02*
X166300595Y-112302380D01*
X166586309Y-112302380D02*
X166586309Y-111302380D01*
X166491071Y-111445238D01*
X166395833Y-111540476D01*
X166300595Y-111588095D01*
X167348214Y-112302380D02*
X167538690Y-112302380D01*
X167633928Y-112254761D01*
X167681547Y-112207142D01*
X167776785Y-112064285D01*
X167824404Y-111873809D01*
X167824404Y-111492857D01*
X167776785Y-111397619D01*
X167729166Y-111350000D01*
X167633928Y-111302380D01*
X167443452Y-111302380D01*
X167348214Y-111350000D01*
X167300595Y-111397619D01*
X167252976Y-111492857D01*
X167252976Y-111730952D01*
X167300595Y-111826190D01*
X167348214Y-111873809D01*
X167443452Y-111921428D01*
X167633928Y-111921428D01*
X167729166Y-111873809D01*
X167776785Y-111826190D01*
X167824404Y-111730952D01*
X169307142Y-60305357D02*
X169354761Y-60352976D01*
X169402380Y-60495833D01*
X169402380Y-60591071D01*
X169354761Y-60733928D01*
X169259523Y-60829166D01*
X169164285Y-60876785D01*
X168973809Y-60924404D01*
X168830952Y-60924404D01*
X168640476Y-60876785D01*
X168545238Y-60829166D01*
X168450000Y-60733928D01*
X168402380Y-60591071D01*
X168402380Y-60495833D01*
X168450000Y-60352976D01*
X168497619Y-60305357D01*
X168497619Y-59924404D02*
X168450000Y-59876785D01*
X168402380Y-59781547D01*
X168402380Y-59543452D01*
X168450000Y-59448214D01*
X168497619Y-59400595D01*
X168592857Y-59352976D01*
X168688095Y-59352976D01*
X168830952Y-59400595D01*
X169402380Y-59972023D01*
X169402380Y-59352976D01*
X168402380Y-58733928D02*
X168402380Y-58638690D01*
X168450000Y-58543452D01*
X168497619Y-58495833D01*
X168592857Y-58448214D01*
X168783333Y-58400595D01*
X169021428Y-58400595D01*
X169211904Y-58448214D01*
X169307142Y-58495833D01*
X169354761Y-58543452D01*
X169402380Y-58638690D01*
X169402380Y-58733928D01*
X169354761Y-58829166D01*
X169307142Y-58876785D01*
X169211904Y-58924404D01*
X169021428Y-58972023D01*
X168783333Y-58972023D01*
X168592857Y-58924404D01*
X168497619Y-58876785D01*
X168450000Y-58829166D01*
X168402380Y-58733928D01*
X115607142Y-86707142D02*
X115559523Y-86754761D01*
X115416666Y-86802380D01*
X115321428Y-86802380D01*
X115178571Y-86754761D01*
X115083333Y-86659523D01*
X115035714Y-86564285D01*
X114988095Y-86373809D01*
X114988095Y-86230952D01*
X115035714Y-86040476D01*
X115083333Y-85945238D01*
X115178571Y-85850000D01*
X115321428Y-85802380D01*
X115416666Y-85802380D01*
X115559523Y-85850000D01*
X115607142Y-85897619D01*
X115988095Y-85897619D02*
X116035714Y-85850000D01*
X116130952Y-85802380D01*
X116369047Y-85802380D01*
X116464285Y-85850000D01*
X116511904Y-85897619D01*
X116559523Y-85992857D01*
X116559523Y-86088095D01*
X116511904Y-86230952D01*
X115940476Y-86802380D01*
X116559523Y-86802380D01*
X117511904Y-86802380D02*
X116940476Y-86802380D01*
X117226190Y-86802380D02*
X117226190Y-85802380D01*
X117130952Y-85945238D01*
X117035714Y-86040476D01*
X116940476Y-86088095D01*
X114457142Y-138757142D02*
X114409523Y-138804761D01*
X114266666Y-138852380D01*
X114171428Y-138852380D01*
X114028571Y-138804761D01*
X113933333Y-138709523D01*
X113885714Y-138614285D01*
X113838095Y-138423809D01*
X113838095Y-138280952D01*
X113885714Y-138090476D01*
X113933333Y-137995238D01*
X114028571Y-137900000D01*
X114171428Y-137852380D01*
X114266666Y-137852380D01*
X114409523Y-137900000D01*
X114457142Y-137947619D01*
X114838095Y-137947619D02*
X114885714Y-137900000D01*
X114980952Y-137852380D01*
X115219047Y-137852380D01*
X115314285Y-137900000D01*
X115361904Y-137947619D01*
X115409523Y-138042857D01*
X115409523Y-138138095D01*
X115361904Y-138280952D01*
X114790476Y-138852380D01*
X115409523Y-138852380D01*
X115790476Y-137947619D02*
X115838095Y-137900000D01*
X115933333Y-137852380D01*
X116171428Y-137852380D01*
X116266666Y-137900000D01*
X116314285Y-137947619D01*
X116361904Y-138042857D01*
X116361904Y-138138095D01*
X116314285Y-138280952D01*
X115742857Y-138852380D01*
X116361904Y-138852380D01*
X164357142Y-120957142D02*
X164309523Y-121004761D01*
X164166666Y-121052380D01*
X164071428Y-121052380D01*
X163928571Y-121004761D01*
X163833333Y-120909523D01*
X163785714Y-120814285D01*
X163738095Y-120623809D01*
X163738095Y-120480952D01*
X163785714Y-120290476D01*
X163833333Y-120195238D01*
X163928571Y-120100000D01*
X164071428Y-120052380D01*
X164166666Y-120052380D01*
X164309523Y-120100000D01*
X164357142Y-120147619D01*
X164738095Y-120147619D02*
X164785714Y-120100000D01*
X164880952Y-120052380D01*
X165119047Y-120052380D01*
X165214285Y-120100000D01*
X165261904Y-120147619D01*
X165309523Y-120242857D01*
X165309523Y-120338095D01*
X165261904Y-120480952D01*
X164690476Y-121052380D01*
X165309523Y-121052380D01*
X165642857Y-120052380D02*
X166261904Y-120052380D01*
X165928571Y-120433333D01*
X166071428Y-120433333D01*
X166166666Y-120480952D01*
X166214285Y-120528571D01*
X166261904Y-120623809D01*
X166261904Y-120861904D01*
X166214285Y-120957142D01*
X166166666Y-121004761D01*
X166071428Y-121052380D01*
X165785714Y-121052380D01*
X165690476Y-121004761D01*
X165642857Y-120957142D01*
X160007142Y-56642857D02*
X160054761Y-56690476D01*
X160102380Y-56833333D01*
X160102380Y-56928571D01*
X160054761Y-57071428D01*
X159959523Y-57166666D01*
X159864285Y-57214285D01*
X159673809Y-57261904D01*
X159530952Y-57261904D01*
X159340476Y-57214285D01*
X159245238Y-57166666D01*
X159150000Y-57071428D01*
X159102380Y-56928571D01*
X159102380Y-56833333D01*
X159150000Y-56690476D01*
X159197619Y-56642857D01*
X159197619Y-56261904D02*
X159150000Y-56214285D01*
X159102380Y-56119047D01*
X159102380Y-55880952D01*
X159150000Y-55785714D01*
X159197619Y-55738095D01*
X159292857Y-55690476D01*
X159388095Y-55690476D01*
X159530952Y-55738095D01*
X160102380Y-56309523D01*
X160102380Y-55690476D01*
X159435714Y-54833333D02*
X160102380Y-54833333D01*
X159054761Y-55071428D02*
X159769047Y-55309523D01*
X159769047Y-54690476D01*
X117652380Y-42350595D02*
X116652380Y-42350595D01*
X116652380Y-42112500D01*
X116700000Y-41969642D01*
X116795238Y-41874404D01*
X116890476Y-41826785D01*
X117080952Y-41779166D01*
X117223809Y-41779166D01*
X117414285Y-41826785D01*
X117509523Y-41874404D01*
X117604761Y-41969642D01*
X117652380Y-42112500D01*
X117652380Y-42350595D01*
X117652380Y-40826785D02*
X117652380Y-41398214D01*
X117652380Y-41112500D02*
X116652380Y-41112500D01*
X116795238Y-41207738D01*
X116890476Y-41302976D01*
X116938095Y-41398214D01*
X121652380Y-42350595D02*
X120652380Y-42350595D01*
X120652380Y-42112500D01*
X120700000Y-41969642D01*
X120795238Y-41874404D01*
X120890476Y-41826785D01*
X121080952Y-41779166D01*
X121223809Y-41779166D01*
X121414285Y-41826785D01*
X121509523Y-41874404D01*
X121604761Y-41969642D01*
X121652380Y-42112500D01*
X121652380Y-42350595D01*
X120747619Y-41398214D02*
X120700000Y-41350595D01*
X120652380Y-41255357D01*
X120652380Y-41017261D01*
X120700000Y-40922023D01*
X120747619Y-40874404D01*
X120842857Y-40826785D01*
X120938095Y-40826785D01*
X121080952Y-40874404D01*
X121652380Y-41445833D01*
X121652380Y-40826785D01*
X107462380Y-96773333D02*
X108176666Y-96773333D01*
X108319523Y-96820952D01*
X108414761Y-96916190D01*
X108462380Y-97059047D01*
X108462380Y-97154285D01*
X108462380Y-95773333D02*
X108462380Y-96344761D01*
X108462380Y-96059047D02*
X107462380Y-96059047D01*
X107605238Y-96154285D01*
X107700476Y-96249523D01*
X107748095Y-96344761D01*
X174442380Y-97143333D02*
X175156666Y-97143333D01*
X175299523Y-97190952D01*
X175394761Y-97286190D01*
X175442380Y-97429047D01*
X175442380Y-97524285D01*
X174537619Y-96714761D02*
X174490000Y-96667142D01*
X174442380Y-96571904D01*
X174442380Y-96333809D01*
X174490000Y-96238571D01*
X174537619Y-96190952D01*
X174632857Y-96143333D01*
X174728095Y-96143333D01*
X174870952Y-96190952D01*
X175442380Y-96762380D01*
X175442380Y-96143333D01*
D17*
X121932845Y-49573480D02*
X122647575Y-49573480D01*
X122790521Y-49621129D01*
X122885818Y-49716426D01*
X122933467Y-49859372D01*
X122933467Y-49954669D01*
X122933467Y-48572858D02*
X122933467Y-49144642D01*
X122933467Y-48858750D02*
X121932845Y-48858750D01*
X122075791Y-48954047D01*
X122171088Y-49049345D01*
X122218737Y-49144642D01*
X121932845Y-48239317D02*
X121932845Y-47619885D01*
X122314034Y-47953425D01*
X122314034Y-47810479D01*
X122361683Y-47715182D01*
X122409332Y-47667533D01*
X122504629Y-47619885D01*
X122742872Y-47619885D01*
X122838170Y-47667533D01*
X122885818Y-47715182D01*
X122933467Y-47810479D01*
X122933467Y-48096371D01*
X122885818Y-48191669D01*
X122838170Y-48239317D01*
X135715476Y-135787380D02*
X135715476Y-136501666D01*
X135667857Y-136644523D01*
X135572619Y-136739761D01*
X135429761Y-136787380D01*
X135334523Y-136787380D01*
X136715476Y-136787380D02*
X136144047Y-136787380D01*
X136429761Y-136787380D02*
X136429761Y-135787380D01*
X136334523Y-135930238D01*
X136239285Y-136025476D01*
X136144047Y-136073095D01*
X137572619Y-136120714D02*
X137572619Y-136787380D01*
X137334523Y-135739761D02*
X137096428Y-136454047D01*
X137715476Y-136454047D01*
X128622981Y-53845179D02*
X128527743Y-53797560D01*
X128432505Y-53702321D01*
X128289648Y-53559464D01*
X128194410Y-53511845D01*
X128099172Y-53511845D01*
X128146791Y-53749940D02*
X128051553Y-53702321D01*
X127956315Y-53607083D01*
X127908696Y-53416607D01*
X127908696Y-53083274D01*
X127956315Y-52892798D01*
X128051553Y-52797560D01*
X128146791Y-52749940D01*
X128337267Y-52749940D01*
X128432505Y-52797560D01*
X128527743Y-52892798D01*
X128575362Y-53083274D01*
X128575362Y-53416607D01*
X128527743Y-53607083D01*
X128432505Y-53702321D01*
X128337267Y-53749940D01*
X128146791Y-53749940D01*
X129527743Y-53749940D02*
X128956315Y-53749940D01*
X129242029Y-53749940D02*
X129242029Y-52749940D01*
X129146791Y-52892798D01*
X129051553Y-52988036D01*
X128956315Y-53035655D01*
D10*
X120502380Y-54679166D02*
X120026190Y-55012500D01*
X120502380Y-55250595D02*
X119502380Y-55250595D01*
X119502380Y-54869642D01*
X119550000Y-54774404D01*
X119597619Y-54726785D01*
X119692857Y-54679166D01*
X119835714Y-54679166D01*
X119930952Y-54726785D01*
X119978571Y-54774404D01*
X120026190Y-54869642D01*
X120026190Y-55250595D01*
X120502380Y-53726785D02*
X120502380Y-54298214D01*
X120502380Y-54012500D02*
X119502380Y-54012500D01*
X119645238Y-54107738D01*
X119740476Y-54202976D01*
X119788095Y-54298214D01*
X128452380Y-122666666D02*
X127976190Y-123000000D01*
X128452380Y-123238095D02*
X127452380Y-123238095D01*
X127452380Y-122857142D01*
X127500000Y-122761904D01*
X127547619Y-122714285D01*
X127642857Y-122666666D01*
X127785714Y-122666666D01*
X127880952Y-122714285D01*
X127928571Y-122761904D01*
X127976190Y-122857142D01*
X127976190Y-123238095D01*
X127547619Y-122285714D02*
X127500000Y-122238095D01*
X127452380Y-122142857D01*
X127452380Y-121904761D01*
X127500000Y-121809523D01*
X127547619Y-121761904D01*
X127642857Y-121714285D01*
X127738095Y-121714285D01*
X127880952Y-121761904D01*
X128452380Y-122333333D01*
X128452380Y-121714285D01*
X151645833Y-133352380D02*
X151312500Y-132876190D01*
X151074404Y-133352380D02*
X151074404Y-132352380D01*
X151455357Y-132352380D01*
X151550595Y-132400000D01*
X151598214Y-132447619D01*
X151645833Y-132542857D01*
X151645833Y-132685714D01*
X151598214Y-132780952D01*
X151550595Y-132828571D01*
X151455357Y-132876190D01*
X151074404Y-132876190D01*
X151979166Y-132352380D02*
X152598214Y-132352380D01*
X152264880Y-132733333D01*
X152407738Y-132733333D01*
X152502976Y-132780952D01*
X152550595Y-132828571D01*
X152598214Y-132923809D01*
X152598214Y-133161904D01*
X152550595Y-133257142D01*
X152502976Y-133304761D01*
X152407738Y-133352380D01*
X152122023Y-133352380D01*
X152026785Y-133304761D01*
X151979166Y-133257142D01*
X159602380Y-88916666D02*
X159126190Y-89250000D01*
X159602380Y-89488095D02*
X158602380Y-89488095D01*
X158602380Y-89107142D01*
X158650000Y-89011904D01*
X158697619Y-88964285D01*
X158792857Y-88916666D01*
X158935714Y-88916666D01*
X159030952Y-88964285D01*
X159078571Y-89011904D01*
X159126190Y-89107142D01*
X159126190Y-89488095D01*
X158935714Y-88059523D02*
X159602380Y-88059523D01*
X158554761Y-88297619D02*
X159269047Y-88535714D01*
X159269047Y-87916666D01*
X127452380Y-70866666D02*
X126976190Y-71200000D01*
X127452380Y-71438095D02*
X126452380Y-71438095D01*
X126452380Y-71057142D01*
X126500000Y-70961904D01*
X126547619Y-70914285D01*
X126642857Y-70866666D01*
X126785714Y-70866666D01*
X126880952Y-70914285D01*
X126928571Y-70961904D01*
X126976190Y-71057142D01*
X126976190Y-71438095D01*
X126452380Y-69961904D02*
X126452380Y-70438095D01*
X126928571Y-70485714D01*
X126880952Y-70438095D01*
X126833333Y-70342857D01*
X126833333Y-70104761D01*
X126880952Y-70009523D01*
X126928571Y-69961904D01*
X127023809Y-69914285D01*
X127261904Y-69914285D01*
X127357142Y-69961904D01*
X127404761Y-70009523D01*
X127452380Y-70104761D01*
X127452380Y-70342857D01*
X127404761Y-70438095D01*
X127357142Y-70485714D01*
X155302380Y-126416666D02*
X154826190Y-126750000D01*
X155302380Y-126988095D02*
X154302380Y-126988095D01*
X154302380Y-126607142D01*
X154350000Y-126511904D01*
X154397619Y-126464285D01*
X154492857Y-126416666D01*
X154635714Y-126416666D01*
X154730952Y-126464285D01*
X154778571Y-126511904D01*
X154826190Y-126607142D01*
X154826190Y-126988095D01*
X154302380Y-125559523D02*
X154302380Y-125750000D01*
X154350000Y-125845238D01*
X154397619Y-125892857D01*
X154540476Y-125988095D01*
X154730952Y-126035714D01*
X155111904Y-126035714D01*
X155207142Y-125988095D01*
X155254761Y-125940476D01*
X155302380Y-125845238D01*
X155302380Y-125654761D01*
X155254761Y-125559523D01*
X155207142Y-125511904D01*
X155111904Y-125464285D01*
X154873809Y-125464285D01*
X154778571Y-125511904D01*
X154730952Y-125559523D01*
X154683333Y-125654761D01*
X154683333Y-125845238D01*
X154730952Y-125940476D01*
X154778571Y-125988095D01*
X154873809Y-126035714D01*
X127652380Y-106116666D02*
X127176190Y-106450000D01*
X127652380Y-106688095D02*
X126652380Y-106688095D01*
X126652380Y-106307142D01*
X126700000Y-106211904D01*
X126747619Y-106164285D01*
X126842857Y-106116666D01*
X126985714Y-106116666D01*
X127080952Y-106164285D01*
X127128571Y-106211904D01*
X127176190Y-106307142D01*
X127176190Y-106688095D01*
X126652380Y-105783333D02*
X126652380Y-105116666D01*
X127652380Y-105545238D01*
X159552380Y-68629166D02*
X159076190Y-68962500D01*
X159552380Y-69200595D02*
X158552380Y-69200595D01*
X158552380Y-68819642D01*
X158600000Y-68724404D01*
X158647619Y-68676785D01*
X158742857Y-68629166D01*
X158885714Y-68629166D01*
X158980952Y-68676785D01*
X159028571Y-68724404D01*
X159076190Y-68819642D01*
X159076190Y-69200595D01*
X158980952Y-68057738D02*
X158933333Y-68152976D01*
X158885714Y-68200595D01*
X158790476Y-68248214D01*
X158742857Y-68248214D01*
X158647619Y-68200595D01*
X158600000Y-68152976D01*
X158552380Y-68057738D01*
X158552380Y-67867261D01*
X158600000Y-67772023D01*
X158647619Y-67724404D01*
X158742857Y-67676785D01*
X158790476Y-67676785D01*
X158885714Y-67724404D01*
X158933333Y-67772023D01*
X158980952Y-67867261D01*
X158980952Y-68057738D01*
X159028571Y-68152976D01*
X159076190Y-68200595D01*
X159171428Y-68248214D01*
X159361904Y-68248214D01*
X159457142Y-68200595D01*
X159504761Y-68152976D01*
X159552380Y-68057738D01*
X159552380Y-67867261D01*
X159504761Y-67772023D01*
X159457142Y-67724404D01*
X159361904Y-67676785D01*
X159171428Y-67676785D01*
X159076190Y-67724404D01*
X159028571Y-67772023D01*
X158980952Y-67867261D01*
X127352380Y-87829166D02*
X126876190Y-88162500D01*
X127352380Y-88400595D02*
X126352380Y-88400595D01*
X126352380Y-88019642D01*
X126400000Y-87924404D01*
X126447619Y-87876785D01*
X126542857Y-87829166D01*
X126685714Y-87829166D01*
X126780952Y-87876785D01*
X126828571Y-87924404D01*
X126876190Y-88019642D01*
X126876190Y-88400595D01*
X127352380Y-87352976D02*
X127352380Y-87162500D01*
X127304761Y-87067261D01*
X127257142Y-87019642D01*
X127114285Y-86924404D01*
X126923809Y-86876785D01*
X126542857Y-86876785D01*
X126447619Y-86924404D01*
X126400000Y-86972023D01*
X126352380Y-87067261D01*
X126352380Y-87257738D01*
X126400000Y-87352976D01*
X126447619Y-87400595D01*
X126542857Y-87448214D01*
X126780952Y-87448214D01*
X126876190Y-87400595D01*
X126923809Y-87352976D01*
X126971428Y-87257738D01*
X126971428Y-87067261D01*
X126923809Y-86972023D01*
X126876190Y-86924404D01*
X126780952Y-86876785D01*
X127502380Y-140555357D02*
X127026190Y-140888690D01*
X127502380Y-141126785D02*
X126502380Y-141126785D01*
X126502380Y-140745833D01*
X126550000Y-140650595D01*
X126597619Y-140602976D01*
X126692857Y-140555357D01*
X126835714Y-140555357D01*
X126930952Y-140602976D01*
X126978571Y-140650595D01*
X127026190Y-140745833D01*
X127026190Y-141126785D01*
X127502380Y-139602976D02*
X127502380Y-140174404D01*
X127502380Y-139888690D02*
X126502380Y-139888690D01*
X126645238Y-139983928D01*
X126740476Y-140079166D01*
X126788095Y-140174404D01*
X126502380Y-138983928D02*
X126502380Y-138888690D01*
X126550000Y-138793452D01*
X126597619Y-138745833D01*
X126692857Y-138698214D01*
X126883333Y-138650595D01*
X127121428Y-138650595D01*
X127311904Y-138698214D01*
X127407142Y-138745833D01*
X127454761Y-138793452D01*
X127502380Y-138888690D01*
X127502380Y-138983928D01*
X127454761Y-139079166D01*
X127407142Y-139126785D01*
X127311904Y-139174404D01*
X127121428Y-139222023D01*
X126883333Y-139222023D01*
X126692857Y-139174404D01*
X126597619Y-139126785D01*
X126550000Y-139079166D01*
X126502380Y-138983928D01*
X159602380Y-109105357D02*
X159126190Y-109438690D01*
X159602380Y-109676785D02*
X158602380Y-109676785D01*
X158602380Y-109295833D01*
X158650000Y-109200595D01*
X158697619Y-109152976D01*
X158792857Y-109105357D01*
X158935714Y-109105357D01*
X159030952Y-109152976D01*
X159078571Y-109200595D01*
X159126190Y-109295833D01*
X159126190Y-109676785D01*
X159602380Y-108152976D02*
X159602380Y-108724404D01*
X159602380Y-108438690D02*
X158602380Y-108438690D01*
X158745238Y-108533928D01*
X158840476Y-108629166D01*
X158888095Y-108724404D01*
X159602380Y-107200595D02*
X159602380Y-107772023D01*
X159602380Y-107486309D02*
X158602380Y-107486309D01*
X158745238Y-107581547D01*
X158840476Y-107676785D01*
X158888095Y-107772023D01*
X172094642Y-53902380D02*
X171761309Y-53426190D01*
X171523214Y-53902380D02*
X171523214Y-52902380D01*
X171904166Y-52902380D01*
X171999404Y-52950000D01*
X172047023Y-52997619D01*
X172094642Y-53092857D01*
X172094642Y-53235714D01*
X172047023Y-53330952D01*
X171999404Y-53378571D01*
X171904166Y-53426190D01*
X171523214Y-53426190D01*
X173047023Y-53902380D02*
X172475595Y-53902380D01*
X172761309Y-53902380D02*
X172761309Y-52902380D01*
X172666071Y-53045238D01*
X172570833Y-53140476D01*
X172475595Y-53188095D01*
X173427976Y-52997619D02*
X173475595Y-52950000D01*
X173570833Y-52902380D01*
X173808928Y-52902380D01*
X173904166Y-52950000D01*
X173951785Y-52997619D01*
X173999404Y-53092857D01*
X173999404Y-53188095D01*
X173951785Y-53330952D01*
X173380357Y-53902380D01*
X173999404Y-53902380D01*
X114427381Y-46730357D02*
X113951191Y-47063690D01*
X114427381Y-47301785D02*
X113427381Y-47301785D01*
X113427381Y-46920833D01*
X113475001Y-46825595D01*
X113522620Y-46777976D01*
X113617858Y-46730357D01*
X113760715Y-46730357D01*
X113855953Y-46777976D01*
X113903572Y-46825595D01*
X113951191Y-46920833D01*
X113951191Y-47301785D01*
X114427381Y-45777976D02*
X114427381Y-46349404D01*
X114427381Y-46063690D02*
X113427381Y-46063690D01*
X113570239Y-46158928D01*
X113665477Y-46254166D01*
X113713096Y-46349404D01*
X113427381Y-45444642D02*
X113427381Y-44825595D01*
X113808334Y-45158928D01*
X113808334Y-45016071D01*
X113855953Y-44920833D01*
X113903572Y-44873214D01*
X113998810Y-44825595D01*
X114236905Y-44825595D01*
X114332143Y-44873214D01*
X114379762Y-44920833D01*
X114427381Y-45016071D01*
X114427381Y-45301785D01*
X114379762Y-45397023D01*
X114332143Y-45444642D01*
X118352380Y-46730357D02*
X117876190Y-47063690D01*
X118352380Y-47301785D02*
X117352380Y-47301785D01*
X117352380Y-46920833D01*
X117400000Y-46825595D01*
X117447619Y-46777976D01*
X117542857Y-46730357D01*
X117685714Y-46730357D01*
X117780952Y-46777976D01*
X117828571Y-46825595D01*
X117876190Y-46920833D01*
X117876190Y-47301785D01*
X118352380Y-45777976D02*
X118352380Y-46349404D01*
X118352380Y-46063690D02*
X117352380Y-46063690D01*
X117495238Y-46158928D01*
X117590476Y-46254166D01*
X117638095Y-46349404D01*
X117685714Y-44920833D02*
X118352380Y-44920833D01*
X117304761Y-45158928D02*
X118019047Y-45397023D01*
X118019047Y-44777976D01*
X114338095Y-60402380D02*
X114338095Y-61211904D01*
X114385714Y-61307142D01*
X114433333Y-61354761D01*
X114528571Y-61402380D01*
X114719047Y-61402380D01*
X114814285Y-61354761D01*
X114861904Y-61307142D01*
X114909523Y-61211904D01*
X114909523Y-60402380D01*
X115909523Y-61402380D02*
X115338095Y-61402380D01*
X115623809Y-61402380D02*
X115623809Y-60402380D01*
X115528571Y-60545238D01*
X115433333Y-60640476D01*
X115338095Y-60688095D01*
X121538095Y-128252380D02*
X121538095Y-129061904D01*
X121585714Y-129157142D01*
X121633333Y-129204761D01*
X121728571Y-129252380D01*
X121919047Y-129252380D01*
X122014285Y-129204761D01*
X122061904Y-129157142D01*
X122109523Y-129061904D01*
X122109523Y-128252380D01*
X122538095Y-128347619D02*
X122585714Y-128300000D01*
X122680952Y-128252380D01*
X122919047Y-128252380D01*
X123014285Y-128300000D01*
X123061904Y-128347619D01*
X123109523Y-128442857D01*
X123109523Y-128538095D01*
X123061904Y-128680952D01*
X122490476Y-129252380D01*
X123109523Y-129252380D01*
X157702380Y-138511904D02*
X158511904Y-138511904D01*
X158607142Y-138464285D01*
X158654761Y-138416666D01*
X158702380Y-138321428D01*
X158702380Y-138130952D01*
X158654761Y-138035714D01*
X158607142Y-137988095D01*
X158511904Y-137940476D01*
X157702380Y-137940476D01*
X157702380Y-137559523D02*
X157702380Y-136940476D01*
X158083333Y-137273809D01*
X158083333Y-137130952D01*
X158130952Y-137035714D01*
X158178571Y-136988095D01*
X158273809Y-136940476D01*
X158511904Y-136940476D01*
X158607142Y-136988095D01*
X158654761Y-137035714D01*
X158702380Y-137130952D01*
X158702380Y-137416666D01*
X158654761Y-137511904D01*
X158607142Y-137559523D01*
X163238095Y-81752380D02*
X163238095Y-82561904D01*
X163285714Y-82657142D01*
X163333333Y-82704761D01*
X163428571Y-82752380D01*
X163619047Y-82752380D01*
X163714285Y-82704761D01*
X163761904Y-82657142D01*
X163809523Y-82561904D01*
X163809523Y-81752380D01*
X164714285Y-82085714D02*
X164714285Y-82752380D01*
X164476190Y-81704761D02*
X164238095Y-82419047D01*
X164857142Y-82419047D01*
X121088095Y-76652380D02*
X121088095Y-77461904D01*
X121135714Y-77557142D01*
X121183333Y-77604761D01*
X121278571Y-77652380D01*
X121469047Y-77652380D01*
X121564285Y-77604761D01*
X121611904Y-77557142D01*
X121659523Y-77461904D01*
X121659523Y-76652380D01*
X122611904Y-76652380D02*
X122135714Y-76652380D01*
X122088095Y-77128571D01*
X122135714Y-77080952D01*
X122230952Y-77033333D01*
X122469047Y-77033333D01*
X122564285Y-77080952D01*
X122611904Y-77128571D01*
X122659523Y-77223809D01*
X122659523Y-77461904D01*
X122611904Y-77557142D01*
X122564285Y-77604761D01*
X122469047Y-77652380D01*
X122230952Y-77652380D01*
X122135714Y-77604761D01*
X122088095Y-77557142D01*
X163238095Y-121052380D02*
X163238095Y-121861904D01*
X163285714Y-121957142D01*
X163333333Y-122004761D01*
X163428571Y-122052380D01*
X163619047Y-122052380D01*
X163714285Y-122004761D01*
X163761904Y-121957142D01*
X163809523Y-121861904D01*
X163809523Y-121052380D01*
X164714285Y-121052380D02*
X164523809Y-121052380D01*
X164428571Y-121100000D01*
X164380952Y-121147619D01*
X164285714Y-121290476D01*
X164238095Y-121480952D01*
X164238095Y-121861904D01*
X164285714Y-121957142D01*
X164333333Y-122004761D01*
X164428571Y-122052380D01*
X164619047Y-122052380D01*
X164714285Y-122004761D01*
X164761904Y-121957142D01*
X164809523Y-121861904D01*
X164809523Y-121623809D01*
X164761904Y-121528571D01*
X164714285Y-121480952D01*
X164619047Y-121433333D01*
X164428571Y-121433333D01*
X164333333Y-121480952D01*
X164285714Y-121528571D01*
X164238095Y-121623809D01*
X121088095Y-111902380D02*
X121088095Y-112711904D01*
X121135714Y-112807142D01*
X121183333Y-112854761D01*
X121278571Y-112902380D01*
X121469047Y-112902380D01*
X121564285Y-112854761D01*
X121611904Y-112807142D01*
X121659523Y-112711904D01*
X121659523Y-111902380D01*
X122040476Y-111902380D02*
X122707142Y-111902380D01*
X122278571Y-112902380D01*
X163288095Y-61552380D02*
X163288095Y-62361904D01*
X163335714Y-62457142D01*
X163383333Y-62504761D01*
X163478571Y-62552380D01*
X163669047Y-62552380D01*
X163764285Y-62504761D01*
X163811904Y-62457142D01*
X163859523Y-62361904D01*
X163859523Y-61552380D01*
X164478571Y-61980952D02*
X164383333Y-61933333D01*
X164335714Y-61885714D01*
X164288095Y-61790476D01*
X164288095Y-61742857D01*
X164335714Y-61647619D01*
X164383333Y-61600000D01*
X164478571Y-61552380D01*
X164669047Y-61552380D01*
X164764285Y-61600000D01*
X164811904Y-61647619D01*
X164859523Y-61742857D01*
X164859523Y-61790476D01*
X164811904Y-61885714D01*
X164764285Y-61933333D01*
X164669047Y-61980952D01*
X164478571Y-61980952D01*
X164383333Y-62028571D01*
X164335714Y-62076190D01*
X164288095Y-62171428D01*
X164288095Y-62361904D01*
X164335714Y-62457142D01*
X164383333Y-62504761D01*
X164478571Y-62552380D01*
X164669047Y-62552380D01*
X164764285Y-62504761D01*
X164811904Y-62457142D01*
X164859523Y-62361904D01*
X164859523Y-62171428D01*
X164811904Y-62076190D01*
X164764285Y-62028571D01*
X164669047Y-61980952D01*
X121188095Y-93552380D02*
X121188095Y-94361904D01*
X121235714Y-94457142D01*
X121283333Y-94504761D01*
X121378571Y-94552380D01*
X121569047Y-94552380D01*
X121664285Y-94504761D01*
X121711904Y-94457142D01*
X121759523Y-94361904D01*
X121759523Y-93552380D01*
X122283333Y-94552380D02*
X122473809Y-94552380D01*
X122569047Y-94504761D01*
X122616666Y-94457142D01*
X122711904Y-94314285D01*
X122759523Y-94123809D01*
X122759523Y-93742857D01*
X122711904Y-93647619D01*
X122664285Y-93600000D01*
X122569047Y-93552380D01*
X122378571Y-93552380D01*
X122283333Y-93600000D01*
X122235714Y-93647619D01*
X122188095Y-93742857D01*
X122188095Y-93980952D01*
X122235714Y-94076190D01*
X122283333Y-94123809D01*
X122378571Y-94171428D01*
X122569047Y-94171428D01*
X122664285Y-94123809D01*
X122711904Y-94076190D01*
X122759523Y-93980952D01*
X120261904Y-146002380D02*
X120261904Y-146811904D01*
X120309523Y-146907142D01*
X120357142Y-146954761D01*
X120452380Y-147002380D01*
X120642857Y-147002380D01*
X120738095Y-146954761D01*
X120785714Y-146907142D01*
X120833333Y-146811904D01*
X120833333Y-146002380D01*
X121833333Y-147002380D02*
X121261904Y-147002380D01*
X121547619Y-147002380D02*
X121547619Y-146002380D01*
X121452380Y-146145238D01*
X121357142Y-146240476D01*
X121261904Y-146288095D01*
X122452380Y-146002380D02*
X122547619Y-146002380D01*
X122642857Y-146050000D01*
X122690476Y-146097619D01*
X122738095Y-146192857D01*
X122785714Y-146383333D01*
X122785714Y-146621428D01*
X122738095Y-146811904D01*
X122690476Y-146907142D01*
X122642857Y-146954761D01*
X122547619Y-147002380D01*
X122452380Y-147002380D01*
X122357142Y-146954761D01*
X122309523Y-146907142D01*
X122261904Y-146811904D01*
X122214285Y-146621428D01*
X122214285Y-146383333D01*
X122261904Y-146192857D01*
X122309523Y-146097619D01*
X122357142Y-146050000D01*
X122452380Y-146002380D01*
X162761904Y-101552380D02*
X162761904Y-102361904D01*
X162809523Y-102457142D01*
X162857142Y-102504761D01*
X162952380Y-102552380D01*
X163142857Y-102552380D01*
X163238095Y-102504761D01*
X163285714Y-102457142D01*
X163333333Y-102361904D01*
X163333333Y-101552380D01*
X164333333Y-102552380D02*
X163761904Y-102552380D01*
X164047619Y-102552380D02*
X164047619Y-101552380D01*
X163952380Y-101695238D01*
X163857142Y-101790476D01*
X163761904Y-101838095D01*
X165285714Y-102552380D02*
X164714285Y-102552380D01*
X165000000Y-102552380D02*
X165000000Y-101552380D01*
X164904761Y-101695238D01*
X164809523Y-101790476D01*
X164714285Y-101838095D01*
X178552380Y-59638095D02*
X179361904Y-59638095D01*
X179457142Y-59590476D01*
X179504761Y-59542857D01*
X179552380Y-59447619D01*
X179552380Y-59257142D01*
X179504761Y-59161904D01*
X179457142Y-59114285D01*
X179361904Y-59066666D01*
X178552380Y-59066666D01*
X179552380Y-58066666D02*
X179552380Y-58638095D01*
X179552380Y-58352380D02*
X178552380Y-58352380D01*
X178695238Y-58447619D01*
X178790476Y-58542857D01*
X178838095Y-58638095D01*
X178647619Y-57685714D02*
X178600000Y-57638095D01*
X178552380Y-57542857D01*
X178552380Y-57304761D01*
X178600000Y-57209523D01*
X178647619Y-57161904D01*
X178742857Y-57114285D01*
X178838095Y-57114285D01*
X178980952Y-57161904D01*
X179552380Y-57733333D01*
X179552380Y-57114285D01*
X153912380Y-94388095D02*
X154721904Y-94388095D01*
X154817142Y-94340476D01*
X154864761Y-94292857D01*
X154912380Y-94197619D01*
X154912380Y-94007142D01*
X154864761Y-93911904D01*
X154817142Y-93864285D01*
X154721904Y-93816666D01*
X153912380Y-93816666D01*
X154912380Y-92816666D02*
X154912380Y-93388095D01*
X154912380Y-93102380D02*
X153912380Y-93102380D01*
X154055238Y-93197619D01*
X154150476Y-93292857D01*
X154198095Y-93388095D01*
X153912380Y-92483333D02*
X153912380Y-91864285D01*
X154293333Y-92197619D01*
X154293333Y-92054761D01*
X154340952Y-91959523D01*
X154388571Y-91911904D01*
X154483809Y-91864285D01*
X154721904Y-91864285D01*
X154817142Y-91911904D01*
X154864761Y-91959523D01*
X154912380Y-92054761D01*
X154912380Y-92340476D01*
X154864761Y-92435714D01*
X154817142Y-92483333D01*
X143096666Y-90926666D02*
X143096666Y-90226666D01*
X143263333Y-90226666D01*
X143363333Y-90260000D01*
X143430000Y-90326666D01*
X143463333Y-90393333D01*
X143496666Y-90526666D01*
X143496666Y-90626666D01*
X143463333Y-90760000D01*
X143430000Y-90826666D01*
X143363333Y-90893333D01*
X143263333Y-90926666D01*
X143096666Y-90926666D01*
X143696666Y-90226666D02*
X143930000Y-90926666D01*
X144163333Y-90226666D01*
X144596666Y-90226666D02*
X144596666Y-90726666D01*
X144563333Y-90826666D01*
X144496666Y-90893333D01*
X144396666Y-90926666D01*
X144330000Y-90926666D01*
X145230000Y-90226666D02*
X145096666Y-90226666D01*
X145030000Y-90260000D01*
X144996666Y-90293333D01*
X144930000Y-90393333D01*
X144896666Y-90526666D01*
X144896666Y-90793333D01*
X144930000Y-90860000D01*
X144963333Y-90893333D01*
X145030000Y-90926666D01*
X145163333Y-90926666D01*
X145230000Y-90893333D01*
X145263333Y-90860000D01*
X145296666Y-90793333D01*
X145296666Y-90626666D01*
X145263333Y-90560000D01*
X145230000Y-90526666D01*
X145163333Y-90493333D01*
X145030000Y-90493333D01*
X144963333Y-90526666D01*
X144930000Y-90560000D01*
X144896666Y-90626666D01*
X145563333Y-90726666D02*
X145896666Y-90726666D01*
X145496666Y-90926666D02*
X145730000Y-90226666D01*
X145963333Y-90926666D01*
X141216666Y-92196666D02*
X141216666Y-91496666D01*
X141450000Y-91996666D01*
X141683333Y-91496666D01*
X141683333Y-92196666D01*
X142016666Y-92196666D02*
X142016666Y-91496666D01*
X142350000Y-92196666D02*
X142350000Y-91496666D01*
X142583333Y-91996666D01*
X142816666Y-91496666D01*
X142816666Y-92196666D01*
X143083333Y-91496666D02*
X143550000Y-92196666D01*
X143550000Y-91496666D02*
X143083333Y-92196666D01*
X144216666Y-92196666D02*
X143983333Y-91863333D01*
X143816666Y-92196666D02*
X143816666Y-91496666D01*
X144083333Y-91496666D01*
X144150000Y-91530000D01*
X144183333Y-91563333D01*
X144216666Y-91630000D01*
X144216666Y-91730000D01*
X144183333Y-91796666D01*
X144150000Y-91830000D01*
X144083333Y-91863333D01*
X143816666Y-91863333D01*
X144416666Y-91496666D02*
X144816666Y-91496666D01*
X144616666Y-92196666D02*
X144616666Y-91496666D01*
X145416666Y-92196666D02*
X145016666Y-92196666D01*
X145216666Y-92196666D02*
X145216666Y-91496666D01*
X145150000Y-91596666D01*
X145083333Y-91663333D01*
X145016666Y-91696666D01*
X145850000Y-91496666D02*
X145916666Y-91496666D01*
X145983333Y-91530000D01*
X146016666Y-91563333D01*
X146050000Y-91630000D01*
X146083333Y-91763333D01*
X146083333Y-91930000D01*
X146050000Y-92063333D01*
X146016666Y-92130000D01*
X145983333Y-92163333D01*
X145916666Y-92196666D01*
X145850000Y-92196666D01*
X145783333Y-92163333D01*
X145750000Y-92130000D01*
X145716666Y-92063333D01*
X145683333Y-91930000D01*
X145683333Y-91763333D01*
X145716666Y-91630000D01*
X145750000Y-91563333D01*
X145783333Y-91530000D01*
X145850000Y-91496666D01*
X146683333Y-91496666D02*
X146550000Y-91496666D01*
X146483333Y-91530000D01*
X146450000Y-91563333D01*
X146383333Y-91663333D01*
X146350000Y-91796666D01*
X146350000Y-92063333D01*
X146383333Y-92130000D01*
X146416666Y-92163333D01*
X146483333Y-92196666D01*
X146616666Y-92196666D01*
X146683333Y-92163333D01*
X146716666Y-92130000D01*
X146750000Y-92063333D01*
X146750000Y-91896666D01*
X146716666Y-91830000D01*
X146683333Y-91796666D01*
X146616666Y-91763333D01*
X146483333Y-91763333D01*
X146416666Y-91796666D01*
X146383333Y-91830000D01*
X146350000Y-91896666D01*
X147016666Y-91563333D02*
X147050000Y-91530000D01*
X147116666Y-91496666D01*
X147283333Y-91496666D01*
X147350000Y-91530000D01*
X147383333Y-91563333D01*
X147416666Y-91630000D01*
X147416666Y-91696666D01*
X147383333Y-91796666D01*
X146983333Y-92196666D01*
X147416666Y-92196666D01*
X144752380Y-120399047D02*
X143752380Y-120399047D01*
X144466666Y-120065714D01*
X143752380Y-119732380D01*
X144752380Y-119732380D01*
X144752380Y-119256190D02*
X144085714Y-119256190D01*
X143752380Y-119256190D02*
X143800000Y-119303809D01*
X143847619Y-119256190D01*
X143800000Y-119208571D01*
X143752380Y-119256190D01*
X143847619Y-119256190D01*
X144704761Y-118351428D02*
X144752380Y-118446666D01*
X144752380Y-118637142D01*
X144704761Y-118732380D01*
X144657142Y-118780000D01*
X144561904Y-118827619D01*
X144276190Y-118827619D01*
X144180952Y-118780000D01*
X144133333Y-118732380D01*
X144085714Y-118637142D01*
X144085714Y-118446666D01*
X144133333Y-118351428D01*
X144752380Y-117922857D02*
X144085714Y-117922857D01*
X144276190Y-117922857D02*
X144180952Y-117875238D01*
X144133333Y-117827619D01*
X144085714Y-117732380D01*
X144085714Y-117637142D01*
X144752380Y-117160952D02*
X144704761Y-117256190D01*
X144657142Y-117303809D01*
X144561904Y-117351428D01*
X144276190Y-117351428D01*
X144180952Y-117303809D01*
X144133333Y-117256190D01*
X144085714Y-117160952D01*
X144085714Y-117018095D01*
X144133333Y-116922857D01*
X144180952Y-116875238D01*
X144276190Y-116827619D01*
X144561904Y-116827619D01*
X144657142Y-116875238D01*
X144704761Y-116922857D01*
X144752380Y-117018095D01*
X144752380Y-117160952D01*
X144704761Y-115684761D02*
X144752380Y-115541904D01*
X144752380Y-115303809D01*
X144704761Y-115208571D01*
X144657142Y-115160952D01*
X144561904Y-115113333D01*
X144466666Y-115113333D01*
X144371428Y-115160952D01*
X144323809Y-115208571D01*
X144276190Y-115303809D01*
X144228571Y-115494285D01*
X144180952Y-115589523D01*
X144133333Y-115637142D01*
X144038095Y-115684761D01*
X143942857Y-115684761D01*
X143847619Y-115637142D01*
X143800000Y-115589523D01*
X143752380Y-115494285D01*
X143752380Y-115256190D01*
X143800000Y-115113333D01*
X144752380Y-114684761D02*
X143752380Y-114684761D01*
X143752380Y-114446666D01*
X143800000Y-114303809D01*
X143895238Y-114208571D01*
X143990476Y-114160952D01*
X144180952Y-114113333D01*
X144323809Y-114113333D01*
X144514285Y-114160952D01*
X144609523Y-114208571D01*
X144704761Y-114303809D01*
X144752380Y-114446666D01*
X144752380Y-114684761D01*
X143038095Y-65932380D02*
X143038095Y-66741904D01*
X143085714Y-66837142D01*
X143133333Y-66884761D01*
X143228571Y-66932380D01*
X143419047Y-66932380D01*
X143514285Y-66884761D01*
X143561904Y-66837142D01*
X143609523Y-66741904D01*
X143609523Y-65932380D01*
X144038095Y-66884761D02*
X144180952Y-66932380D01*
X144419047Y-66932380D01*
X144514285Y-66884761D01*
X144561904Y-66837142D01*
X144609523Y-66741904D01*
X144609523Y-66646666D01*
X144561904Y-66551428D01*
X144514285Y-66503809D01*
X144419047Y-66456190D01*
X144228571Y-66408571D01*
X144133333Y-66360952D01*
X144085714Y-66313333D01*
X144038095Y-66218095D01*
X144038095Y-66122857D01*
X144085714Y-66027619D01*
X144133333Y-65980000D01*
X144228571Y-65932380D01*
X144466666Y-65932380D01*
X144609523Y-65980000D01*
X145371428Y-66408571D02*
X145514285Y-66456190D01*
X145561904Y-66503809D01*
X145609523Y-66599047D01*
X145609523Y-66741904D01*
X145561904Y-66837142D01*
X145514285Y-66884761D01*
X145419047Y-66932380D01*
X145038095Y-66932380D01*
X145038095Y-65932380D01*
X145371428Y-65932380D01*
X145466666Y-65980000D01*
X145514285Y-66027619D01*
X145561904Y-66122857D01*
X145561904Y-66218095D01*
X145514285Y-66313333D01*
X145466666Y-66360952D01*
X145371428Y-66408571D01*
X145038095Y-66408571D01*
X144719457Y-81013571D02*
X145052790Y-81013571D01*
X145195647Y-81537380D02*
X144719457Y-81537380D01*
X144719457Y-80537380D01*
X145195647Y-80537380D01*
X145481361Y-80870714D02*
X145862314Y-80870714D01*
X145624219Y-80537380D02*
X145624219Y-81394523D01*
X145671838Y-81489761D01*
X145767076Y-81537380D01*
X145862314Y-81537380D01*
X146195647Y-81537380D02*
X146195647Y-80537380D01*
X146624219Y-81537380D02*
X146624219Y-81013571D01*
X146576600Y-80918333D01*
X146481361Y-80870714D01*
X146338504Y-80870714D01*
X146243266Y-80918333D01*
X146195647Y-80965952D01*
X147481361Y-81489761D02*
X147386123Y-81537380D01*
X147195647Y-81537380D01*
X147100409Y-81489761D01*
X147052790Y-81394523D01*
X147052790Y-81013571D01*
X147100409Y-80918333D01*
X147195647Y-80870714D01*
X147386123Y-80870714D01*
X147481361Y-80918333D01*
X147528980Y-81013571D01*
X147528980Y-81108809D01*
X147052790Y-81204047D01*
X147957552Y-81537380D02*
X147957552Y-80870714D01*
X147957552Y-81061190D02*
X148005171Y-80965952D01*
X148052790Y-80918333D01*
X148148028Y-80870714D01*
X148243266Y-80870714D01*
X148576600Y-80870714D02*
X148576600Y-81537380D01*
X148576600Y-80965952D02*
X148624219Y-80918333D01*
X148719457Y-80870714D01*
X148862314Y-80870714D01*
X148957552Y-80918333D01*
X149005171Y-81013571D01*
X149005171Y-81537380D01*
X149862314Y-81489761D02*
X149767076Y-81537380D01*
X149576600Y-81537380D01*
X149481361Y-81489761D01*
X149433742Y-81394523D01*
X149433742Y-81013571D01*
X149481361Y-80918333D01*
X149576600Y-80870714D01*
X149767076Y-80870714D01*
X149862314Y-80918333D01*
X149909933Y-81013571D01*
X149909933Y-81108809D01*
X149433742Y-81204047D01*
X150195647Y-80870714D02*
X150576600Y-80870714D01*
X150338504Y-80537380D02*
X150338504Y-81394523D01*
X150386123Y-81489761D01*
X150481361Y-81537380D01*
X150576600Y-81537380D01*
X141263180Y-77993723D02*
X142072704Y-77993723D01*
X142167942Y-77946104D01*
X142215561Y-77898485D01*
X142263180Y-77803247D01*
X142263180Y-77612771D01*
X142215561Y-77517533D01*
X142167942Y-77469914D01*
X142072704Y-77422295D01*
X141263180Y-77422295D01*
X142215561Y-76993723D02*
X142263180Y-76850866D01*
X142263180Y-76612771D01*
X142215561Y-76517533D01*
X142167942Y-76469914D01*
X142072704Y-76422295D01*
X141977466Y-76422295D01*
X141882228Y-76469914D01*
X141834609Y-76517533D01*
X141786990Y-76612771D01*
X141739371Y-76803247D01*
X141691752Y-76898485D01*
X141644133Y-76946104D01*
X141548895Y-76993723D01*
X141453657Y-76993723D01*
X141358419Y-76946104D01*
X141310800Y-76898485D01*
X141263180Y-76803247D01*
X141263180Y-76565152D01*
X141310800Y-76422295D01*
X141739371Y-75660390D02*
X141786990Y-75517533D01*
X141834609Y-75469914D01*
X141929847Y-75422295D01*
X142072704Y-75422295D01*
X142167942Y-75469914D01*
X142215561Y-75517533D01*
X142263180Y-75612771D01*
X142263180Y-75993723D01*
X141263180Y-75993723D01*
X141263180Y-75660390D01*
X141310800Y-75565152D01*
X141358419Y-75517533D01*
X141453657Y-75469914D01*
X141548895Y-75469914D01*
X141644133Y-75517533D01*
X141691752Y-75565152D01*
X141739371Y-75660390D01*
X141739371Y-75993723D01*
X142263180Y-74231819D02*
X141263180Y-74231819D01*
X141739371Y-74231819D02*
X141739371Y-73660390D01*
X142263180Y-73660390D02*
X141263180Y-73660390D01*
X142263180Y-73041342D02*
X142215561Y-73136580D01*
X142167942Y-73184200D01*
X142072704Y-73231819D01*
X141786990Y-73231819D01*
X141691752Y-73184200D01*
X141644133Y-73136580D01*
X141596514Y-73041342D01*
X141596514Y-72898485D01*
X141644133Y-72803247D01*
X141691752Y-72755628D01*
X141786990Y-72708009D01*
X142072704Y-72708009D01*
X142167942Y-72755628D01*
X142215561Y-72803247D01*
X142263180Y-72898485D01*
X142263180Y-73041342D01*
X142215561Y-72327057D02*
X142263180Y-72231819D01*
X142263180Y-72041342D01*
X142215561Y-71946104D01*
X142120323Y-71898485D01*
X142072704Y-71898485D01*
X141977466Y-71946104D01*
X141929847Y-72041342D01*
X141929847Y-72184200D01*
X141882228Y-72279438D01*
X141786990Y-72327057D01*
X141739371Y-72327057D01*
X141644133Y-72279438D01*
X141596514Y-72184200D01*
X141596514Y-72041342D01*
X141644133Y-71946104D01*
X141596514Y-71612771D02*
X141596514Y-71231819D01*
X141263180Y-71469914D02*
X142120323Y-71469914D01*
X142215561Y-71422295D01*
X142263180Y-71327057D01*
X142263180Y-71231819D01*
M02*
