G04 #@! TF.GenerationSoftware,KiCad,Pcbnew,(5.1.5)-3*
G04 #@! TF.CreationDate,2020-10-29T12:26:40+11:00*
G04 #@! TF.ProjectId,MotorControlsV2,4d6f746f-7243-46f6-9e74-726f6c735632,rev?*
G04 #@! TF.SameCoordinates,Original*
G04 #@! TF.FileFunction,Soldermask,Bot*
G04 #@! TF.FilePolarity,Negative*
%FSLAX46Y46*%
G04 Gerber Fmt 4.6, Leading zero omitted, Abs format (unit mm)*
G04 Created by KiCad (PCBNEW (5.1.5)-3) date 2020-10-29 12:26:40*
%MOMM*%
%LPD*%
G04 APERTURE LIST*
%ADD10C,0.100000*%
G04 APERTURE END LIST*
D10*
G36*
X186137060Y-138512300D02*
G01*
X186698282Y-138623934D01*
X187289926Y-138869001D01*
X187822392Y-139224784D01*
X188275216Y-139677608D01*
X188630999Y-140210074D01*
X188876066Y-140801718D01*
X188876066Y-140801719D01*
X189001000Y-141429803D01*
X189001000Y-142070197D01*
X188938533Y-142384239D01*
X188876066Y-142698282D01*
X188630999Y-143289926D01*
X188275216Y-143822392D01*
X187822392Y-144275216D01*
X187289926Y-144630999D01*
X186698282Y-144876066D01*
X186384239Y-144938533D01*
X186070197Y-145001000D01*
X185429803Y-145001000D01*
X185115761Y-144938533D01*
X184801718Y-144876066D01*
X184210074Y-144630999D01*
X183677608Y-144275216D01*
X183224784Y-143822392D01*
X182869001Y-143289926D01*
X182623934Y-142698282D01*
X182561467Y-142384239D01*
X182499000Y-142070197D01*
X182499000Y-141429803D01*
X182623934Y-140801719D01*
X182623934Y-140801718D01*
X182869001Y-140210074D01*
X183224784Y-139677608D01*
X183677608Y-139224784D01*
X184210074Y-138869001D01*
X184801718Y-138623934D01*
X185362940Y-138512300D01*
X185429803Y-138499000D01*
X186070197Y-138499000D01*
X186137060Y-138512300D01*
G37*
G36*
X97387060Y-138512300D02*
G01*
X97948282Y-138623934D01*
X98539926Y-138869001D01*
X99072392Y-139224784D01*
X99525216Y-139677608D01*
X99880999Y-140210074D01*
X100126066Y-140801718D01*
X100126066Y-140801719D01*
X100251000Y-141429803D01*
X100251000Y-142070197D01*
X100188533Y-142384239D01*
X100126066Y-142698282D01*
X99880999Y-143289926D01*
X99525216Y-143822392D01*
X99072392Y-144275216D01*
X98539926Y-144630999D01*
X97948282Y-144876066D01*
X97634239Y-144938533D01*
X97320197Y-145001000D01*
X96679803Y-145001000D01*
X96365761Y-144938533D01*
X96051718Y-144876066D01*
X95460074Y-144630999D01*
X94927608Y-144275216D01*
X94474784Y-143822392D01*
X94119001Y-143289926D01*
X93873934Y-142698282D01*
X93811467Y-142384239D01*
X93749000Y-142070197D01*
X93749000Y-141429803D01*
X93873934Y-140801719D01*
X93873934Y-140801718D01*
X94119001Y-140210074D01*
X94474784Y-139677608D01*
X94927608Y-139224784D01*
X95460074Y-138869001D01*
X96051718Y-138623934D01*
X96612940Y-138512300D01*
X96679803Y-138499000D01*
X97320197Y-138499000D01*
X97387060Y-138512300D01*
G37*
G36*
X120962302Y-143979795D02*
G01*
X121032363Y-144008815D01*
X121095422Y-144050950D01*
X121149050Y-144104578D01*
X121191185Y-144167637D01*
X121220205Y-144237698D01*
X121235000Y-144312079D01*
X121235000Y-144387921D01*
X121220205Y-144462302D01*
X121191185Y-144532363D01*
X121149050Y-144595422D01*
X121095422Y-144649050D01*
X121032363Y-144691185D01*
X120962302Y-144720205D01*
X120887921Y-144735000D01*
X120812079Y-144735000D01*
X120737698Y-144720205D01*
X120667637Y-144691185D01*
X120604578Y-144649050D01*
X120550950Y-144595422D01*
X120508815Y-144532363D01*
X120479795Y-144462302D01*
X120465000Y-144387921D01*
X120465000Y-144312079D01*
X120479795Y-144237698D01*
X120508815Y-144167637D01*
X120550950Y-144104578D01*
X120604578Y-144050950D01*
X120667637Y-144008815D01*
X120737698Y-143979795D01*
X120812079Y-143965000D01*
X120887921Y-143965000D01*
X120962302Y-143979795D01*
G37*
G36*
X122262302Y-143979795D02*
G01*
X122332363Y-144008815D01*
X122395422Y-144050950D01*
X122449050Y-144104578D01*
X122491185Y-144167637D01*
X122520205Y-144237698D01*
X122535000Y-144312079D01*
X122535000Y-144387921D01*
X122520205Y-144462302D01*
X122491185Y-144532363D01*
X122449050Y-144595422D01*
X122395422Y-144649050D01*
X122332363Y-144691185D01*
X122262302Y-144720205D01*
X122187921Y-144735000D01*
X122112079Y-144735000D01*
X122037698Y-144720205D01*
X121967637Y-144691185D01*
X121904578Y-144649050D01*
X121850950Y-144595422D01*
X121808815Y-144532363D01*
X121779795Y-144462302D01*
X121765000Y-144387921D01*
X121765000Y-144312079D01*
X121779795Y-144237698D01*
X121808815Y-144167637D01*
X121850950Y-144104578D01*
X121904578Y-144050950D01*
X121967637Y-144008815D01*
X122037698Y-143979795D01*
X122112079Y-143965000D01*
X122187921Y-143965000D01*
X122262302Y-143979795D01*
G37*
G36*
X122262302Y-142679795D02*
G01*
X122332363Y-142708815D01*
X122395422Y-142750950D01*
X122449050Y-142804578D01*
X122491185Y-142867637D01*
X122520205Y-142937698D01*
X122535000Y-143012079D01*
X122535000Y-143087921D01*
X122520205Y-143162302D01*
X122491185Y-143232363D01*
X122449050Y-143295422D01*
X122395422Y-143349050D01*
X122332363Y-143391185D01*
X122262302Y-143420205D01*
X122187921Y-143435000D01*
X122112079Y-143435000D01*
X122037698Y-143420205D01*
X121967637Y-143391185D01*
X121904578Y-143349050D01*
X121850950Y-143295422D01*
X121808815Y-143232363D01*
X121779795Y-143162302D01*
X121765000Y-143087921D01*
X121765000Y-143012079D01*
X121779795Y-142937698D01*
X121808815Y-142867637D01*
X121850950Y-142804578D01*
X121904578Y-142750950D01*
X121967637Y-142708815D01*
X122037698Y-142679795D01*
X122112079Y-142665000D01*
X122187921Y-142665000D01*
X122262302Y-142679795D01*
G37*
G36*
X120962302Y-142679795D02*
G01*
X121032363Y-142708815D01*
X121095422Y-142750950D01*
X121149050Y-142804578D01*
X121191185Y-142867637D01*
X121220205Y-142937698D01*
X121235000Y-143012079D01*
X121235000Y-143087921D01*
X121220205Y-143162302D01*
X121191185Y-143232363D01*
X121149050Y-143295422D01*
X121095422Y-143349050D01*
X121032363Y-143391185D01*
X120962302Y-143420205D01*
X120887921Y-143435000D01*
X120812079Y-143435000D01*
X120737698Y-143420205D01*
X120667637Y-143391185D01*
X120604578Y-143349050D01*
X120550950Y-143295422D01*
X120508815Y-143232363D01*
X120479795Y-143162302D01*
X120465000Y-143087921D01*
X120465000Y-143012079D01*
X120479795Y-142937698D01*
X120508815Y-142867637D01*
X120550950Y-142804578D01*
X120604578Y-142750950D01*
X120667637Y-142708815D01*
X120737698Y-142679795D01*
X120812079Y-142665000D01*
X120887921Y-142665000D01*
X120962302Y-142679795D01*
G37*
G36*
X122262302Y-141379795D02*
G01*
X122332363Y-141408815D01*
X122395422Y-141450950D01*
X122449050Y-141504578D01*
X122491185Y-141567637D01*
X122520205Y-141637698D01*
X122535000Y-141712079D01*
X122535000Y-141787921D01*
X122520205Y-141862302D01*
X122491185Y-141932363D01*
X122449050Y-141995422D01*
X122395422Y-142049050D01*
X122332363Y-142091185D01*
X122262302Y-142120205D01*
X122187921Y-142135000D01*
X122112079Y-142135000D01*
X122037698Y-142120205D01*
X121967637Y-142091185D01*
X121904578Y-142049050D01*
X121850950Y-141995422D01*
X121808815Y-141932363D01*
X121779795Y-141862302D01*
X121765000Y-141787921D01*
X121765000Y-141712079D01*
X121779795Y-141637698D01*
X121808815Y-141567637D01*
X121850950Y-141504578D01*
X121904578Y-141450950D01*
X121967637Y-141408815D01*
X122037698Y-141379795D01*
X122112079Y-141365000D01*
X122187921Y-141365000D01*
X122262302Y-141379795D01*
G37*
G36*
X120962302Y-141379795D02*
G01*
X121032363Y-141408815D01*
X121095422Y-141450950D01*
X121149050Y-141504578D01*
X121191185Y-141567637D01*
X121220205Y-141637698D01*
X121235000Y-141712079D01*
X121235000Y-141787921D01*
X121220205Y-141862302D01*
X121191185Y-141932363D01*
X121149050Y-141995422D01*
X121095422Y-142049050D01*
X121032363Y-142091185D01*
X120962302Y-142120205D01*
X120887921Y-142135000D01*
X120812079Y-142135000D01*
X120737698Y-142120205D01*
X120667637Y-142091185D01*
X120604578Y-142049050D01*
X120550950Y-141995422D01*
X120508815Y-141932363D01*
X120479795Y-141862302D01*
X120465000Y-141787921D01*
X120465000Y-141712079D01*
X120479795Y-141637698D01*
X120508815Y-141567637D01*
X120550950Y-141504578D01*
X120604578Y-141450950D01*
X120667637Y-141408815D01*
X120737698Y-141379795D01*
X120812079Y-141365000D01*
X120887921Y-141365000D01*
X120962302Y-141379795D01*
G37*
G36*
X156162302Y-138029795D02*
G01*
X156232363Y-138058815D01*
X156295422Y-138100950D01*
X156349050Y-138154578D01*
X156391185Y-138217637D01*
X156420205Y-138287698D01*
X156435000Y-138362079D01*
X156435000Y-138437921D01*
X156420205Y-138512302D01*
X156391185Y-138582363D01*
X156349050Y-138645422D01*
X156295422Y-138699050D01*
X156232363Y-138741185D01*
X156162302Y-138770205D01*
X156087921Y-138785000D01*
X156012079Y-138785000D01*
X155937698Y-138770205D01*
X155867637Y-138741185D01*
X155804578Y-138699050D01*
X155750950Y-138645422D01*
X155708815Y-138582363D01*
X155679795Y-138512302D01*
X155665000Y-138437921D01*
X155665000Y-138362079D01*
X155679795Y-138287698D01*
X155708815Y-138217637D01*
X155750950Y-138154578D01*
X155804578Y-138100950D01*
X155867637Y-138058815D01*
X155937698Y-138029795D01*
X156012079Y-138015000D01*
X156087921Y-138015000D01*
X156162302Y-138029795D01*
G37*
G36*
X154862302Y-138029795D02*
G01*
X154932363Y-138058815D01*
X154995422Y-138100950D01*
X155049050Y-138154578D01*
X155091185Y-138217637D01*
X155120205Y-138287698D01*
X155135000Y-138362079D01*
X155135000Y-138437921D01*
X155120205Y-138512302D01*
X155091185Y-138582363D01*
X155049050Y-138645422D01*
X154995422Y-138699050D01*
X154932363Y-138741185D01*
X154862302Y-138770205D01*
X154787921Y-138785000D01*
X154712079Y-138785000D01*
X154637698Y-138770205D01*
X154567637Y-138741185D01*
X154504578Y-138699050D01*
X154450950Y-138645422D01*
X154408815Y-138582363D01*
X154379795Y-138512302D01*
X154365000Y-138437921D01*
X154365000Y-138362079D01*
X154379795Y-138287698D01*
X154408815Y-138217637D01*
X154450950Y-138154578D01*
X154504578Y-138100950D01*
X154567637Y-138058815D01*
X154637698Y-138029795D01*
X154712079Y-138015000D01*
X154787921Y-138015000D01*
X154862302Y-138029795D01*
G37*
G36*
X153562302Y-138029795D02*
G01*
X153632363Y-138058815D01*
X153695422Y-138100950D01*
X153749050Y-138154578D01*
X153791185Y-138217637D01*
X153820205Y-138287698D01*
X153835000Y-138362079D01*
X153835000Y-138437921D01*
X153820205Y-138512302D01*
X153791185Y-138582363D01*
X153749050Y-138645422D01*
X153695422Y-138699050D01*
X153632363Y-138741185D01*
X153562302Y-138770205D01*
X153487921Y-138785000D01*
X153412079Y-138785000D01*
X153337698Y-138770205D01*
X153267637Y-138741185D01*
X153204578Y-138699050D01*
X153150950Y-138645422D01*
X153108815Y-138582363D01*
X153079795Y-138512302D01*
X153065000Y-138437921D01*
X153065000Y-138362079D01*
X153079795Y-138287698D01*
X153108815Y-138217637D01*
X153150950Y-138154578D01*
X153204578Y-138100950D01*
X153267637Y-138058815D01*
X153337698Y-138029795D01*
X153412079Y-138015000D01*
X153487921Y-138015000D01*
X153562302Y-138029795D01*
G37*
G36*
X154862302Y-136729795D02*
G01*
X154932363Y-136758815D01*
X154995422Y-136800950D01*
X155049050Y-136854578D01*
X155091185Y-136917637D01*
X155120205Y-136987698D01*
X155135000Y-137062079D01*
X155135000Y-137137921D01*
X155120205Y-137212302D01*
X155091185Y-137282363D01*
X155049050Y-137345422D01*
X154995422Y-137399050D01*
X154932363Y-137441185D01*
X154862302Y-137470205D01*
X154787921Y-137485000D01*
X154712079Y-137485000D01*
X154637698Y-137470205D01*
X154567637Y-137441185D01*
X154504578Y-137399050D01*
X154450950Y-137345422D01*
X154408815Y-137282363D01*
X154379795Y-137212302D01*
X154365000Y-137137921D01*
X154365000Y-137062079D01*
X154379795Y-136987698D01*
X154408815Y-136917637D01*
X154450950Y-136854578D01*
X154504578Y-136800950D01*
X154567637Y-136758815D01*
X154637698Y-136729795D01*
X154712079Y-136715000D01*
X154787921Y-136715000D01*
X154862302Y-136729795D01*
G37*
G36*
X153562302Y-136729795D02*
G01*
X153632363Y-136758815D01*
X153695422Y-136800950D01*
X153749050Y-136854578D01*
X153791185Y-136917637D01*
X153820205Y-136987698D01*
X153835000Y-137062079D01*
X153835000Y-137137921D01*
X153820205Y-137212302D01*
X153791185Y-137282363D01*
X153749050Y-137345422D01*
X153695422Y-137399050D01*
X153632363Y-137441185D01*
X153562302Y-137470205D01*
X153487921Y-137485000D01*
X153412079Y-137485000D01*
X153337698Y-137470205D01*
X153267637Y-137441185D01*
X153204578Y-137399050D01*
X153150950Y-137345422D01*
X153108815Y-137282363D01*
X153079795Y-137212302D01*
X153065000Y-137137921D01*
X153065000Y-137062079D01*
X153079795Y-136987698D01*
X153108815Y-136917637D01*
X153150950Y-136854578D01*
X153204578Y-136800950D01*
X153267637Y-136758815D01*
X153337698Y-136729795D01*
X153412079Y-136715000D01*
X153487921Y-136715000D01*
X153562302Y-136729795D01*
G37*
G36*
X156162302Y-136729795D02*
G01*
X156232363Y-136758815D01*
X156295422Y-136800950D01*
X156349050Y-136854578D01*
X156391185Y-136917637D01*
X156420205Y-136987698D01*
X156435000Y-137062079D01*
X156435000Y-137137921D01*
X156420205Y-137212302D01*
X156391185Y-137282363D01*
X156349050Y-137345422D01*
X156295422Y-137399050D01*
X156232363Y-137441185D01*
X156162302Y-137470205D01*
X156087921Y-137485000D01*
X156012079Y-137485000D01*
X155937698Y-137470205D01*
X155867637Y-137441185D01*
X155804578Y-137399050D01*
X155750950Y-137345422D01*
X155708815Y-137282363D01*
X155679795Y-137212302D01*
X155665000Y-137137921D01*
X155665000Y-137062079D01*
X155679795Y-136987698D01*
X155708815Y-136917637D01*
X155750950Y-136854578D01*
X155804578Y-136800950D01*
X155867637Y-136758815D01*
X155937698Y-136729795D01*
X156012079Y-136715000D01*
X156087921Y-136715000D01*
X156162302Y-136729795D01*
G37*
G36*
X134734810Y-131200935D02*
G01*
X134881309Y-131261617D01*
X134881310Y-131261618D01*
X135013158Y-131349716D01*
X135125284Y-131461842D01*
X135125285Y-131461844D01*
X135213383Y-131593691D01*
X135274065Y-131740190D01*
X135305000Y-131895713D01*
X135305000Y-132054287D01*
X135274065Y-132209810D01*
X135213383Y-132356309D01*
X135213382Y-132356310D01*
X135125284Y-132488158D01*
X135013158Y-132600284D01*
X134946785Y-132644633D01*
X134881309Y-132688383D01*
X134734810Y-132749065D01*
X134579287Y-132780000D01*
X134420713Y-132780000D01*
X134265190Y-132749065D01*
X134118691Y-132688383D01*
X134053215Y-132644633D01*
X133986842Y-132600284D01*
X133874716Y-132488158D01*
X133786618Y-132356310D01*
X133786617Y-132356309D01*
X133725935Y-132209810D01*
X133695000Y-132054287D01*
X133695000Y-131895713D01*
X133725935Y-131740190D01*
X133786617Y-131593691D01*
X133874715Y-131461844D01*
X133874716Y-131461842D01*
X133986842Y-131349716D01*
X134118690Y-131261618D01*
X134118691Y-131261617D01*
X134265190Y-131200935D01*
X134420713Y-131170000D01*
X134579287Y-131170000D01*
X134734810Y-131200935D01*
G37*
G36*
X137805000Y-132780000D02*
G01*
X136195000Y-132780000D01*
X136195000Y-131170000D01*
X137805000Y-131170000D01*
X137805000Y-132780000D01*
G37*
G36*
X121762302Y-126229795D02*
G01*
X121832363Y-126258815D01*
X121895422Y-126300950D01*
X121949050Y-126354578D01*
X121991185Y-126417637D01*
X122020205Y-126487698D01*
X122035000Y-126562079D01*
X122035000Y-126637921D01*
X122020205Y-126712302D01*
X121991185Y-126782363D01*
X121949050Y-126845422D01*
X121895422Y-126899050D01*
X121832363Y-126941185D01*
X121762302Y-126970205D01*
X121687921Y-126985000D01*
X121612079Y-126985000D01*
X121537698Y-126970205D01*
X121467637Y-126941185D01*
X121404578Y-126899050D01*
X121350950Y-126845422D01*
X121308815Y-126782363D01*
X121279795Y-126712302D01*
X121265000Y-126637921D01*
X121265000Y-126562079D01*
X121279795Y-126487698D01*
X121308815Y-126417637D01*
X121350950Y-126354578D01*
X121404578Y-126300950D01*
X121467637Y-126258815D01*
X121537698Y-126229795D01*
X121612079Y-126215000D01*
X121687921Y-126215000D01*
X121762302Y-126229795D01*
G37*
G36*
X123062302Y-126229795D02*
G01*
X123132363Y-126258815D01*
X123195422Y-126300950D01*
X123249050Y-126354578D01*
X123291185Y-126417637D01*
X123320205Y-126487698D01*
X123335000Y-126562079D01*
X123335000Y-126637921D01*
X123320205Y-126712302D01*
X123291185Y-126782363D01*
X123249050Y-126845422D01*
X123195422Y-126899050D01*
X123132363Y-126941185D01*
X123062302Y-126970205D01*
X122987921Y-126985000D01*
X122912079Y-126985000D01*
X122837698Y-126970205D01*
X122767637Y-126941185D01*
X122704578Y-126899050D01*
X122650950Y-126845422D01*
X122608815Y-126782363D01*
X122579795Y-126712302D01*
X122565000Y-126637921D01*
X122565000Y-126562079D01*
X122579795Y-126487698D01*
X122608815Y-126417637D01*
X122650950Y-126354578D01*
X122704578Y-126300950D01*
X122767637Y-126258815D01*
X122837698Y-126229795D01*
X122912079Y-126215000D01*
X122987921Y-126215000D01*
X123062302Y-126229795D01*
G37*
G36*
X164762302Y-126029795D02*
G01*
X164832363Y-126058815D01*
X164895422Y-126100950D01*
X164949050Y-126154578D01*
X164991185Y-126217637D01*
X165020205Y-126287698D01*
X165035000Y-126362079D01*
X165035000Y-126437921D01*
X165020205Y-126512302D01*
X164991185Y-126582363D01*
X164949050Y-126645422D01*
X164895422Y-126699050D01*
X164832363Y-126741185D01*
X164762302Y-126770205D01*
X164687921Y-126785000D01*
X164612079Y-126785000D01*
X164537698Y-126770205D01*
X164467637Y-126741185D01*
X164404578Y-126699050D01*
X164350950Y-126645422D01*
X164308815Y-126582363D01*
X164279795Y-126512302D01*
X164265000Y-126437921D01*
X164265000Y-126362079D01*
X164279795Y-126287698D01*
X164308815Y-126217637D01*
X164350950Y-126154578D01*
X164404578Y-126100950D01*
X164467637Y-126058815D01*
X164537698Y-126029795D01*
X164612079Y-126015000D01*
X164687921Y-126015000D01*
X164762302Y-126029795D01*
G37*
G36*
X163462302Y-126029795D02*
G01*
X163532363Y-126058815D01*
X163595422Y-126100950D01*
X163649050Y-126154578D01*
X163691185Y-126217637D01*
X163720205Y-126287698D01*
X163735000Y-126362079D01*
X163735000Y-126437921D01*
X163720205Y-126512302D01*
X163691185Y-126582363D01*
X163649050Y-126645422D01*
X163595422Y-126699050D01*
X163532363Y-126741185D01*
X163462302Y-126770205D01*
X163387921Y-126785000D01*
X163312079Y-126785000D01*
X163237698Y-126770205D01*
X163167637Y-126741185D01*
X163104578Y-126699050D01*
X163050950Y-126645422D01*
X163008815Y-126582363D01*
X162979795Y-126512302D01*
X162965000Y-126437921D01*
X162965000Y-126362079D01*
X162979795Y-126287698D01*
X163008815Y-126217637D01*
X163050950Y-126154578D01*
X163104578Y-126100950D01*
X163167637Y-126058815D01*
X163237698Y-126029795D01*
X163312079Y-126015000D01*
X163387921Y-126015000D01*
X163462302Y-126029795D01*
G37*
G36*
X182601000Y-126101000D02*
G01*
X179899000Y-126101000D01*
X179899000Y-123399000D01*
X182601000Y-123399000D01*
X182601000Y-126101000D01*
G37*
G36*
X102144072Y-123080918D02*
G01*
X102389939Y-123182759D01*
X102432204Y-123211000D01*
X102611211Y-123330609D01*
X102799391Y-123518789D01*
X102863677Y-123615000D01*
X102921108Y-123700950D01*
X102947242Y-123740063D01*
X103049082Y-123985928D01*
X103101000Y-124246937D01*
X103101000Y-124513063D01*
X103049082Y-124774072D01*
X102947242Y-125019937D01*
X102799391Y-125241211D01*
X102611211Y-125429391D01*
X102527986Y-125485000D01*
X102389939Y-125577241D01*
X102389938Y-125577242D01*
X102389937Y-125577242D01*
X102144072Y-125679082D01*
X101883063Y-125731000D01*
X101616937Y-125731000D01*
X101355928Y-125679082D01*
X101110063Y-125577242D01*
X101110062Y-125577242D01*
X101110061Y-125577241D01*
X100972014Y-125485000D01*
X100888789Y-125429391D01*
X100700609Y-125241211D01*
X100552758Y-125019937D01*
X100450918Y-124774072D01*
X100399000Y-124513063D01*
X100399000Y-124246937D01*
X100450918Y-123985928D01*
X100552758Y-123740063D01*
X100578893Y-123700950D01*
X100636323Y-123615000D01*
X100700609Y-123518789D01*
X100888789Y-123330609D01*
X101067796Y-123211000D01*
X101110061Y-123182759D01*
X101355928Y-123080918D01*
X101616937Y-123029000D01*
X101883063Y-123029000D01*
X102144072Y-123080918D01*
G37*
G36*
X121762302Y-124929795D02*
G01*
X121832363Y-124958815D01*
X121895422Y-125000950D01*
X121949050Y-125054578D01*
X121991185Y-125117637D01*
X122020205Y-125187698D01*
X122035000Y-125262079D01*
X122035000Y-125337921D01*
X122020205Y-125412302D01*
X121991185Y-125482363D01*
X121949050Y-125545422D01*
X121895422Y-125599050D01*
X121832363Y-125641185D01*
X121762302Y-125670205D01*
X121687921Y-125685000D01*
X121612079Y-125685000D01*
X121537698Y-125670205D01*
X121467637Y-125641185D01*
X121404578Y-125599050D01*
X121350950Y-125545422D01*
X121308815Y-125482363D01*
X121279795Y-125412302D01*
X121265000Y-125337921D01*
X121265000Y-125262079D01*
X121279795Y-125187698D01*
X121308815Y-125117637D01*
X121350950Y-125054578D01*
X121404578Y-125000950D01*
X121467637Y-124958815D01*
X121537698Y-124929795D01*
X121612079Y-124915000D01*
X121687921Y-124915000D01*
X121762302Y-124929795D01*
G37*
G36*
X123062302Y-124929795D02*
G01*
X123132363Y-124958815D01*
X123195422Y-125000950D01*
X123249050Y-125054578D01*
X123291185Y-125117637D01*
X123320205Y-125187698D01*
X123335000Y-125262079D01*
X123335000Y-125337921D01*
X123320205Y-125412302D01*
X123291185Y-125482363D01*
X123249050Y-125545422D01*
X123195422Y-125599050D01*
X123132363Y-125641185D01*
X123062302Y-125670205D01*
X122987921Y-125685000D01*
X122912079Y-125685000D01*
X122837698Y-125670205D01*
X122767637Y-125641185D01*
X122704578Y-125599050D01*
X122650950Y-125545422D01*
X122608815Y-125482363D01*
X122579795Y-125412302D01*
X122565000Y-125337921D01*
X122565000Y-125262079D01*
X122579795Y-125187698D01*
X122608815Y-125117637D01*
X122650950Y-125054578D01*
X122704578Y-125000950D01*
X122767637Y-124958815D01*
X122837698Y-124929795D01*
X122912079Y-124915000D01*
X122987921Y-124915000D01*
X123062302Y-124929795D01*
G37*
G36*
X164762302Y-124729795D02*
G01*
X164832363Y-124758815D01*
X164895422Y-124800950D01*
X164949050Y-124854578D01*
X164991185Y-124917637D01*
X165020205Y-124987698D01*
X165035000Y-125062079D01*
X165035000Y-125137921D01*
X165020205Y-125212302D01*
X164991185Y-125282363D01*
X164949050Y-125345422D01*
X164895422Y-125399050D01*
X164832363Y-125441185D01*
X164762302Y-125470205D01*
X164687921Y-125485000D01*
X164612079Y-125485000D01*
X164537698Y-125470205D01*
X164467637Y-125441185D01*
X164404578Y-125399050D01*
X164350950Y-125345422D01*
X164308815Y-125282363D01*
X164279795Y-125212302D01*
X164265000Y-125137921D01*
X164265000Y-125062079D01*
X164279795Y-124987698D01*
X164308815Y-124917637D01*
X164350950Y-124854578D01*
X164404578Y-124800950D01*
X164467637Y-124758815D01*
X164537698Y-124729795D01*
X164612079Y-124715000D01*
X164687921Y-124715000D01*
X164762302Y-124729795D01*
G37*
G36*
X163462302Y-124729795D02*
G01*
X163532363Y-124758815D01*
X163595422Y-124800950D01*
X163649050Y-124854578D01*
X163691185Y-124917637D01*
X163720205Y-124987698D01*
X163735000Y-125062079D01*
X163735000Y-125137921D01*
X163720205Y-125212302D01*
X163691185Y-125282363D01*
X163649050Y-125345422D01*
X163595422Y-125399050D01*
X163532363Y-125441185D01*
X163462302Y-125470205D01*
X163387921Y-125485000D01*
X163312079Y-125485000D01*
X163237698Y-125470205D01*
X163167637Y-125441185D01*
X163104578Y-125399050D01*
X163050950Y-125345422D01*
X163008815Y-125282363D01*
X162979795Y-125212302D01*
X162965000Y-125137921D01*
X162965000Y-125062079D01*
X162979795Y-124987698D01*
X163008815Y-124917637D01*
X163050950Y-124854578D01*
X163104578Y-124800950D01*
X163167637Y-124758815D01*
X163237698Y-124729795D01*
X163312079Y-124715000D01*
X163387921Y-124715000D01*
X163462302Y-124729795D01*
G37*
G36*
X123062302Y-123629795D02*
G01*
X123132363Y-123658815D01*
X123195422Y-123700950D01*
X123249050Y-123754578D01*
X123291185Y-123817637D01*
X123320205Y-123887698D01*
X123335000Y-123962079D01*
X123335000Y-124037921D01*
X123320205Y-124112302D01*
X123291185Y-124182363D01*
X123249050Y-124245422D01*
X123195422Y-124299050D01*
X123132363Y-124341185D01*
X123062302Y-124370205D01*
X122987921Y-124385000D01*
X122912079Y-124385000D01*
X122837698Y-124370205D01*
X122767637Y-124341185D01*
X122704578Y-124299050D01*
X122650950Y-124245422D01*
X122608815Y-124182363D01*
X122579795Y-124112302D01*
X122565000Y-124037921D01*
X122565000Y-123962079D01*
X122579795Y-123887698D01*
X122608815Y-123817637D01*
X122650950Y-123754578D01*
X122704578Y-123700950D01*
X122767637Y-123658815D01*
X122837698Y-123629795D01*
X122912079Y-123615000D01*
X122987921Y-123615000D01*
X123062302Y-123629795D01*
G37*
G36*
X121762302Y-123629795D02*
G01*
X121832363Y-123658815D01*
X121895422Y-123700950D01*
X121949050Y-123754578D01*
X121991185Y-123817637D01*
X122020205Y-123887698D01*
X122035000Y-123962079D01*
X122035000Y-124037921D01*
X122020205Y-124112302D01*
X121991185Y-124182363D01*
X121949050Y-124245422D01*
X121895422Y-124299050D01*
X121832363Y-124341185D01*
X121762302Y-124370205D01*
X121687921Y-124385000D01*
X121612079Y-124385000D01*
X121537698Y-124370205D01*
X121467637Y-124341185D01*
X121404578Y-124299050D01*
X121350950Y-124245422D01*
X121308815Y-124182363D01*
X121279795Y-124112302D01*
X121265000Y-124037921D01*
X121265000Y-123962079D01*
X121279795Y-123887698D01*
X121308815Y-123817637D01*
X121350950Y-123754578D01*
X121404578Y-123700950D01*
X121467637Y-123658815D01*
X121537698Y-123629795D01*
X121612079Y-123615000D01*
X121687921Y-123615000D01*
X121762302Y-123629795D01*
G37*
G36*
X163462302Y-123429795D02*
G01*
X163532363Y-123458815D01*
X163595422Y-123500950D01*
X163649050Y-123554578D01*
X163691185Y-123617637D01*
X163720205Y-123687698D01*
X163735000Y-123762079D01*
X163735000Y-123837921D01*
X163720205Y-123912302D01*
X163691185Y-123982363D01*
X163649050Y-124045422D01*
X163595422Y-124099050D01*
X163532363Y-124141185D01*
X163462302Y-124170205D01*
X163387921Y-124185000D01*
X163312079Y-124185000D01*
X163237698Y-124170205D01*
X163167637Y-124141185D01*
X163104578Y-124099050D01*
X163050950Y-124045422D01*
X163008815Y-123982363D01*
X162979795Y-123912302D01*
X162965000Y-123837921D01*
X162965000Y-123762079D01*
X162979795Y-123687698D01*
X163008815Y-123617637D01*
X163050950Y-123554578D01*
X163104578Y-123500950D01*
X163167637Y-123458815D01*
X163237698Y-123429795D01*
X163312079Y-123415000D01*
X163387921Y-123415000D01*
X163462302Y-123429795D01*
G37*
G36*
X164762302Y-123429795D02*
G01*
X164832363Y-123458815D01*
X164895422Y-123500950D01*
X164949050Y-123554578D01*
X164991185Y-123617637D01*
X165020205Y-123687698D01*
X165035000Y-123762079D01*
X165035000Y-123837921D01*
X165020205Y-123912302D01*
X164991185Y-123982363D01*
X164949050Y-124045422D01*
X164895422Y-124099050D01*
X164832363Y-124141185D01*
X164762302Y-124170205D01*
X164687921Y-124185000D01*
X164612079Y-124185000D01*
X164537698Y-124170205D01*
X164467637Y-124141185D01*
X164404578Y-124099050D01*
X164350950Y-124045422D01*
X164308815Y-123982363D01*
X164279795Y-123912302D01*
X164265000Y-123837921D01*
X164265000Y-123762079D01*
X164279795Y-123687698D01*
X164308815Y-123617637D01*
X164350950Y-123554578D01*
X164404578Y-123500950D01*
X164467637Y-123458815D01*
X164537698Y-123429795D01*
X164612079Y-123415000D01*
X164687921Y-123415000D01*
X164762302Y-123429795D01*
G37*
G36*
X152168228Y-121541703D02*
G01*
X152323100Y-121605853D01*
X152462481Y-121698985D01*
X152581015Y-121817519D01*
X152674147Y-121956900D01*
X152738297Y-122111772D01*
X152771000Y-122276184D01*
X152771000Y-122443816D01*
X152738297Y-122608228D01*
X152674147Y-122763100D01*
X152581015Y-122902481D01*
X152462481Y-123021015D01*
X152323100Y-123114147D01*
X152168228Y-123178297D01*
X152003816Y-123211000D01*
X151836184Y-123211000D01*
X151671772Y-123178297D01*
X151516900Y-123114147D01*
X151377519Y-123021015D01*
X151258985Y-122902481D01*
X151165853Y-122763100D01*
X151101703Y-122608228D01*
X151069000Y-122443816D01*
X151069000Y-122276184D01*
X151101703Y-122111772D01*
X151165853Y-121956900D01*
X151258985Y-121817519D01*
X151377519Y-121698985D01*
X151516900Y-121605853D01*
X151671772Y-121541703D01*
X151836184Y-121509000D01*
X152003816Y-121509000D01*
X152168228Y-121541703D01*
G37*
G36*
X136928228Y-121541703D02*
G01*
X137083100Y-121605853D01*
X137222481Y-121698985D01*
X137341015Y-121817519D01*
X137434147Y-121956900D01*
X137498297Y-122111772D01*
X137531000Y-122276184D01*
X137531000Y-122443816D01*
X137498297Y-122608228D01*
X137434147Y-122763100D01*
X137341015Y-122902481D01*
X137222481Y-123021015D01*
X137083100Y-123114147D01*
X136928228Y-123178297D01*
X136763816Y-123211000D01*
X136596184Y-123211000D01*
X136431772Y-123178297D01*
X136276900Y-123114147D01*
X136137519Y-123021015D01*
X136018985Y-122902481D01*
X135925853Y-122763100D01*
X135861703Y-122608228D01*
X135829000Y-122443816D01*
X135829000Y-122276184D01*
X135861703Y-122111772D01*
X135925853Y-121956900D01*
X136018985Y-121817519D01*
X136137519Y-121698985D01*
X136276900Y-121605853D01*
X136431772Y-121541703D01*
X136596184Y-121509000D01*
X136763816Y-121509000D01*
X136928228Y-121541703D01*
G37*
G36*
X181644072Y-118370918D02*
G01*
X181807926Y-118438788D01*
X181889939Y-118472759D01*
X182111212Y-118620610D01*
X182299390Y-118808788D01*
X182428293Y-119001703D01*
X182447242Y-119030063D01*
X182549082Y-119275928D01*
X182601000Y-119536937D01*
X182601000Y-119803063D01*
X182549082Y-120064072D01*
X182508846Y-120161212D01*
X182447241Y-120309939D01*
X182299390Y-120531212D01*
X182111212Y-120719390D01*
X181889939Y-120867241D01*
X181889938Y-120867242D01*
X181889937Y-120867242D01*
X181644072Y-120969082D01*
X181383063Y-121021000D01*
X181116937Y-121021000D01*
X180855928Y-120969082D01*
X180610063Y-120867242D01*
X180610062Y-120867242D01*
X180610061Y-120867241D01*
X180388788Y-120719390D01*
X180200610Y-120531212D01*
X180052759Y-120309939D01*
X179991155Y-120161212D01*
X179950918Y-120064072D01*
X179899000Y-119803063D01*
X179899000Y-119536937D01*
X179950918Y-119275928D01*
X180052758Y-119030063D01*
X180071708Y-119001703D01*
X180200610Y-118808788D01*
X180388788Y-118620610D01*
X180610061Y-118472759D01*
X180692075Y-118438788D01*
X180855928Y-118370918D01*
X181116937Y-118319000D01*
X181383063Y-118319000D01*
X181644072Y-118370918D01*
G37*
G36*
X152168228Y-119001703D02*
G01*
X152323100Y-119065853D01*
X152462481Y-119158985D01*
X152581015Y-119277519D01*
X152674147Y-119416900D01*
X152738297Y-119571772D01*
X152771000Y-119736184D01*
X152771000Y-119903816D01*
X152738297Y-120068228D01*
X152674147Y-120223100D01*
X152581015Y-120362481D01*
X152462481Y-120481015D01*
X152323100Y-120574147D01*
X152168228Y-120638297D01*
X152003816Y-120671000D01*
X151836184Y-120671000D01*
X151671772Y-120638297D01*
X151516900Y-120574147D01*
X151377519Y-120481015D01*
X151258985Y-120362481D01*
X151165853Y-120223100D01*
X151101703Y-120068228D01*
X151069000Y-119903816D01*
X151069000Y-119736184D01*
X151101703Y-119571772D01*
X151165853Y-119416900D01*
X151258985Y-119277519D01*
X151377519Y-119158985D01*
X151516900Y-119065853D01*
X151671772Y-119001703D01*
X151836184Y-118969000D01*
X152003816Y-118969000D01*
X152168228Y-119001703D01*
G37*
G36*
X136928228Y-119001703D02*
G01*
X137083100Y-119065853D01*
X137222481Y-119158985D01*
X137341015Y-119277519D01*
X137434147Y-119416900D01*
X137498297Y-119571772D01*
X137531000Y-119736184D01*
X137531000Y-119903816D01*
X137498297Y-120068228D01*
X137434147Y-120223100D01*
X137341015Y-120362481D01*
X137222481Y-120481015D01*
X137083100Y-120574147D01*
X136928228Y-120638297D01*
X136763816Y-120671000D01*
X136596184Y-120671000D01*
X136431772Y-120638297D01*
X136276900Y-120574147D01*
X136137519Y-120481015D01*
X136018985Y-120362481D01*
X135925853Y-120223100D01*
X135861703Y-120068228D01*
X135829000Y-119903816D01*
X135829000Y-119736184D01*
X135861703Y-119571772D01*
X135925853Y-119416900D01*
X136018985Y-119277519D01*
X136137519Y-119158985D01*
X136276900Y-119065853D01*
X136431772Y-119001703D01*
X136596184Y-118969000D01*
X136763816Y-118969000D01*
X136928228Y-119001703D01*
G37*
G36*
X102144072Y-118000918D02*
G01*
X102389939Y-118102759D01*
X102432204Y-118131000D01*
X102611211Y-118250609D01*
X102799391Y-118438789D01*
X102947242Y-118660063D01*
X103008846Y-118808789D01*
X103049082Y-118905928D01*
X103101000Y-119166938D01*
X103101000Y-119433062D01*
X103049082Y-119694072D01*
X102947241Y-119939939D01*
X102799390Y-120161212D01*
X102611212Y-120349390D01*
X102389939Y-120497241D01*
X102389938Y-120497242D01*
X102389937Y-120497242D01*
X102144072Y-120599082D01*
X101883063Y-120651000D01*
X101616937Y-120651000D01*
X101355928Y-120599082D01*
X101110063Y-120497242D01*
X101110062Y-120497242D01*
X101110061Y-120497241D01*
X100888788Y-120349390D01*
X100700610Y-120161212D01*
X100552759Y-119939939D01*
X100450918Y-119694072D01*
X100399000Y-119433062D01*
X100399000Y-119166938D01*
X100450918Y-118905928D01*
X100491154Y-118808789D01*
X100552758Y-118660063D01*
X100700609Y-118438789D01*
X100888789Y-118250609D01*
X101067796Y-118131000D01*
X101110061Y-118102759D01*
X101355928Y-118000918D01*
X101616937Y-117949000D01*
X101883063Y-117949000D01*
X102144072Y-118000918D01*
G37*
G36*
X152168228Y-116461703D02*
G01*
X152323100Y-116525853D01*
X152462481Y-116618985D01*
X152581015Y-116737519D01*
X152674147Y-116876900D01*
X152738297Y-117031772D01*
X152771000Y-117196184D01*
X152771000Y-117363816D01*
X152738297Y-117528228D01*
X152674147Y-117683100D01*
X152581015Y-117822481D01*
X152462481Y-117941015D01*
X152323100Y-118034147D01*
X152168228Y-118098297D01*
X152003816Y-118131000D01*
X151836184Y-118131000D01*
X151671772Y-118098297D01*
X151516900Y-118034147D01*
X151377519Y-117941015D01*
X151258985Y-117822481D01*
X151165853Y-117683100D01*
X151101703Y-117528228D01*
X151069000Y-117363816D01*
X151069000Y-117196184D01*
X151101703Y-117031772D01*
X151165853Y-116876900D01*
X151258985Y-116737519D01*
X151377519Y-116618985D01*
X151516900Y-116525853D01*
X151671772Y-116461703D01*
X151836184Y-116429000D01*
X152003816Y-116429000D01*
X152168228Y-116461703D01*
G37*
G36*
X136928228Y-116461703D02*
G01*
X137083100Y-116525853D01*
X137222481Y-116618985D01*
X137341015Y-116737519D01*
X137434147Y-116876900D01*
X137498297Y-117031772D01*
X137531000Y-117196184D01*
X137531000Y-117363816D01*
X137498297Y-117528228D01*
X137434147Y-117683100D01*
X137341015Y-117822481D01*
X137222481Y-117941015D01*
X137083100Y-118034147D01*
X136928228Y-118098297D01*
X136763816Y-118131000D01*
X136596184Y-118131000D01*
X136431772Y-118098297D01*
X136276900Y-118034147D01*
X136137519Y-117941015D01*
X136018985Y-117822481D01*
X135925853Y-117683100D01*
X135861703Y-117528228D01*
X135829000Y-117363816D01*
X135829000Y-117196184D01*
X135861703Y-117031772D01*
X135925853Y-116876900D01*
X136018985Y-116737519D01*
X136137519Y-116618985D01*
X136276900Y-116525853D01*
X136431772Y-116461703D01*
X136596184Y-116429000D01*
X136763816Y-116429000D01*
X136928228Y-116461703D01*
G37*
G36*
X181644072Y-113290918D02*
G01*
X181807926Y-113358788D01*
X181889939Y-113392759D01*
X182111212Y-113540610D01*
X182299390Y-113728788D01*
X182428293Y-113921703D01*
X182447242Y-113950063D01*
X182549082Y-114195928D01*
X182601000Y-114456937D01*
X182601000Y-114723063D01*
X182549082Y-114984072D01*
X182508846Y-115081212D01*
X182447241Y-115229939D01*
X182299390Y-115451212D01*
X182111212Y-115639390D01*
X181889939Y-115787241D01*
X181889938Y-115787242D01*
X181889937Y-115787242D01*
X181644072Y-115889082D01*
X181383063Y-115941000D01*
X181116937Y-115941000D01*
X180855928Y-115889082D01*
X180610063Y-115787242D01*
X180610062Y-115787242D01*
X180610061Y-115787241D01*
X180388788Y-115639390D01*
X180200610Y-115451212D01*
X180052759Y-115229939D01*
X179991155Y-115081212D01*
X179950918Y-114984072D01*
X179899000Y-114723063D01*
X179899000Y-114456937D01*
X179950918Y-114195928D01*
X180052758Y-113950063D01*
X180071708Y-113921703D01*
X180200610Y-113728788D01*
X180388788Y-113540610D01*
X180610061Y-113392759D01*
X180692075Y-113358788D01*
X180855928Y-113290918D01*
X181116937Y-113239000D01*
X181383063Y-113239000D01*
X181644072Y-113290918D01*
G37*
G36*
X136928228Y-113921703D02*
G01*
X137083100Y-113985853D01*
X137222481Y-114078985D01*
X137341015Y-114197519D01*
X137434147Y-114336900D01*
X137498297Y-114491772D01*
X137531000Y-114656184D01*
X137531000Y-114823816D01*
X137498297Y-114988228D01*
X137434147Y-115143100D01*
X137341015Y-115282481D01*
X137222481Y-115401015D01*
X137083100Y-115494147D01*
X136928228Y-115558297D01*
X136763816Y-115591000D01*
X136596184Y-115591000D01*
X136431772Y-115558297D01*
X136276900Y-115494147D01*
X136137519Y-115401015D01*
X136018985Y-115282481D01*
X135925853Y-115143100D01*
X135861703Y-114988228D01*
X135829000Y-114823816D01*
X135829000Y-114656184D01*
X135861703Y-114491772D01*
X135925853Y-114336900D01*
X136018985Y-114197519D01*
X136137519Y-114078985D01*
X136276900Y-113985853D01*
X136431772Y-113921703D01*
X136596184Y-113889000D01*
X136763816Y-113889000D01*
X136928228Y-113921703D01*
G37*
G36*
X152168228Y-113921703D02*
G01*
X152323100Y-113985853D01*
X152462481Y-114078985D01*
X152581015Y-114197519D01*
X152674147Y-114336900D01*
X152738297Y-114491772D01*
X152771000Y-114656184D01*
X152771000Y-114823816D01*
X152738297Y-114988228D01*
X152674147Y-115143100D01*
X152581015Y-115282481D01*
X152462481Y-115401015D01*
X152323100Y-115494147D01*
X152168228Y-115558297D01*
X152003816Y-115591000D01*
X151836184Y-115591000D01*
X151671772Y-115558297D01*
X151516900Y-115494147D01*
X151377519Y-115401015D01*
X151258985Y-115282481D01*
X151165853Y-115143100D01*
X151101703Y-114988228D01*
X151069000Y-114823816D01*
X151069000Y-114656184D01*
X151101703Y-114491772D01*
X151165853Y-114336900D01*
X151258985Y-114197519D01*
X151377519Y-114078985D01*
X151516900Y-113985853D01*
X151671772Y-113921703D01*
X151836184Y-113889000D01*
X152003816Y-113889000D01*
X152168228Y-113921703D01*
G37*
G36*
X102144072Y-112920918D02*
G01*
X102389939Y-113022759D01*
X102432204Y-113051000D01*
X102611211Y-113170609D01*
X102799391Y-113358789D01*
X102947242Y-113580063D01*
X103008846Y-113728789D01*
X103049082Y-113825928D01*
X103101000Y-114086938D01*
X103101000Y-114353062D01*
X103049082Y-114614072D01*
X102947241Y-114859939D01*
X102799390Y-115081212D01*
X102611212Y-115269390D01*
X102389939Y-115417241D01*
X102389938Y-115417242D01*
X102389937Y-115417242D01*
X102144072Y-115519082D01*
X101883063Y-115571000D01*
X101616937Y-115571000D01*
X101355928Y-115519082D01*
X101110063Y-115417242D01*
X101110062Y-115417242D01*
X101110061Y-115417241D01*
X100888788Y-115269390D01*
X100700610Y-115081212D01*
X100552759Y-114859939D01*
X100450918Y-114614072D01*
X100399000Y-114353062D01*
X100399000Y-114086938D01*
X100450918Y-113825928D01*
X100491154Y-113728789D01*
X100552758Y-113580063D01*
X100700609Y-113358789D01*
X100888789Y-113170609D01*
X101067796Y-113051000D01*
X101110061Y-113022759D01*
X101355928Y-112920918D01*
X101616937Y-112869000D01*
X101883063Y-112869000D01*
X102144072Y-112920918D01*
G37*
G36*
X136928228Y-111381703D02*
G01*
X137083100Y-111445853D01*
X137222481Y-111538985D01*
X137341015Y-111657519D01*
X137434147Y-111796900D01*
X137498297Y-111951772D01*
X137531000Y-112116184D01*
X137531000Y-112283816D01*
X137498297Y-112448228D01*
X137434147Y-112603100D01*
X137341015Y-112742481D01*
X137222481Y-112861015D01*
X137083100Y-112954147D01*
X136928228Y-113018297D01*
X136763816Y-113051000D01*
X136596184Y-113051000D01*
X136431772Y-113018297D01*
X136276900Y-112954147D01*
X136137519Y-112861015D01*
X136018985Y-112742481D01*
X135925853Y-112603100D01*
X135861703Y-112448228D01*
X135829000Y-112283816D01*
X135829000Y-112116184D01*
X135861703Y-111951772D01*
X135925853Y-111796900D01*
X136018985Y-111657519D01*
X136137519Y-111538985D01*
X136276900Y-111445853D01*
X136431772Y-111381703D01*
X136596184Y-111349000D01*
X136763816Y-111349000D01*
X136928228Y-111381703D01*
G37*
G36*
X152168228Y-111381703D02*
G01*
X152323100Y-111445853D01*
X152462481Y-111538985D01*
X152581015Y-111657519D01*
X152674147Y-111796900D01*
X152738297Y-111951772D01*
X152771000Y-112116184D01*
X152771000Y-112283816D01*
X152738297Y-112448228D01*
X152674147Y-112603100D01*
X152581015Y-112742481D01*
X152462481Y-112861015D01*
X152323100Y-112954147D01*
X152168228Y-113018297D01*
X152003816Y-113051000D01*
X151836184Y-113051000D01*
X151671772Y-113018297D01*
X151516900Y-112954147D01*
X151377519Y-112861015D01*
X151258985Y-112742481D01*
X151165853Y-112603100D01*
X151101703Y-112448228D01*
X151069000Y-112283816D01*
X151069000Y-112116184D01*
X151101703Y-111951772D01*
X151165853Y-111796900D01*
X151258985Y-111657519D01*
X151377519Y-111538985D01*
X151516900Y-111445853D01*
X151671772Y-111381703D01*
X151836184Y-111349000D01*
X152003816Y-111349000D01*
X152168228Y-111381703D01*
G37*
G36*
X181644072Y-108210918D02*
G01*
X181807926Y-108278788D01*
X181889939Y-108312759D01*
X182001328Y-108387187D01*
X182111211Y-108460609D01*
X182299391Y-108648789D01*
X182336667Y-108704577D01*
X182428293Y-108841703D01*
X182447242Y-108870063D01*
X182549082Y-109115928D01*
X182601000Y-109376937D01*
X182601000Y-109643063D01*
X182549082Y-109904072D01*
X182452312Y-110137698D01*
X182447241Y-110149939D01*
X182299390Y-110371212D01*
X182111212Y-110559390D01*
X181889939Y-110707241D01*
X181889938Y-110707242D01*
X181889937Y-110707242D01*
X181644072Y-110809082D01*
X181383063Y-110861000D01*
X181116937Y-110861000D01*
X180855928Y-110809082D01*
X180610063Y-110707242D01*
X180610062Y-110707242D01*
X180610061Y-110707241D01*
X180388788Y-110559390D01*
X180200610Y-110371212D01*
X180052759Y-110149939D01*
X180047689Y-110137698D01*
X179950918Y-109904072D01*
X179899000Y-109643063D01*
X179899000Y-109376937D01*
X179950918Y-109115928D01*
X180052758Y-108870063D01*
X180071708Y-108841703D01*
X180163333Y-108704577D01*
X180200609Y-108648789D01*
X180388789Y-108460609D01*
X180498672Y-108387187D01*
X180610061Y-108312759D01*
X180692075Y-108278788D01*
X180855928Y-108210918D01*
X181116937Y-108159000D01*
X181383063Y-108159000D01*
X181644072Y-108210918D01*
G37*
G36*
X122612302Y-109879795D02*
G01*
X122682363Y-109908815D01*
X122745422Y-109950950D01*
X122799050Y-110004578D01*
X122841185Y-110067637D01*
X122870205Y-110137698D01*
X122885000Y-110212079D01*
X122885000Y-110287921D01*
X122870205Y-110362302D01*
X122841185Y-110432363D01*
X122799050Y-110495422D01*
X122745422Y-110549050D01*
X122682363Y-110591185D01*
X122612302Y-110620205D01*
X122537921Y-110635000D01*
X122462079Y-110635000D01*
X122387698Y-110620205D01*
X122317637Y-110591185D01*
X122254578Y-110549050D01*
X122200950Y-110495422D01*
X122158815Y-110432363D01*
X122129795Y-110362302D01*
X122115000Y-110287921D01*
X122115000Y-110212079D01*
X122129795Y-110137698D01*
X122158815Y-110067637D01*
X122200950Y-110004578D01*
X122254578Y-109950950D01*
X122317637Y-109908815D01*
X122387698Y-109879795D01*
X122462079Y-109865000D01*
X122537921Y-109865000D01*
X122612302Y-109879795D01*
G37*
G36*
X121312302Y-109879795D02*
G01*
X121382363Y-109908815D01*
X121445422Y-109950950D01*
X121499050Y-110004578D01*
X121541185Y-110067637D01*
X121570205Y-110137698D01*
X121585000Y-110212079D01*
X121585000Y-110287921D01*
X121570205Y-110362302D01*
X121541185Y-110432363D01*
X121499050Y-110495422D01*
X121445422Y-110549050D01*
X121382363Y-110591185D01*
X121312302Y-110620205D01*
X121237921Y-110635000D01*
X121162079Y-110635000D01*
X121087698Y-110620205D01*
X121017637Y-110591185D01*
X120954578Y-110549050D01*
X120900950Y-110495422D01*
X120858815Y-110432363D01*
X120829795Y-110362302D01*
X120815000Y-110287921D01*
X120815000Y-110212079D01*
X120829795Y-110137698D01*
X120858815Y-110067637D01*
X120900950Y-110004578D01*
X120954578Y-109950950D01*
X121017637Y-109908815D01*
X121087698Y-109879795D01*
X121162079Y-109865000D01*
X121237921Y-109865000D01*
X121312302Y-109879795D01*
G37*
G36*
X147088228Y-108841703D02*
G01*
X147243100Y-108905853D01*
X147382481Y-108998985D01*
X147501015Y-109117519D01*
X147594147Y-109256900D01*
X147658297Y-109411772D01*
X147691000Y-109576184D01*
X147691000Y-109743816D01*
X147658297Y-109908228D01*
X147594147Y-110063100D01*
X147501015Y-110202481D01*
X147382481Y-110321015D01*
X147243100Y-110414147D01*
X147088228Y-110478297D01*
X146923816Y-110511000D01*
X146756184Y-110511000D01*
X146591772Y-110478297D01*
X146436900Y-110414147D01*
X146297519Y-110321015D01*
X146178985Y-110202481D01*
X146085853Y-110063100D01*
X146021703Y-109908228D01*
X145989000Y-109743816D01*
X145989000Y-109576184D01*
X146021703Y-109411772D01*
X146085853Y-109256900D01*
X146178985Y-109117519D01*
X146297519Y-108998985D01*
X146436900Y-108905853D01*
X146591772Y-108841703D01*
X146756184Y-108809000D01*
X146923816Y-108809000D01*
X147088228Y-108841703D01*
G37*
G36*
X144548228Y-108841703D02*
G01*
X144703100Y-108905853D01*
X144842481Y-108998985D01*
X144961015Y-109117519D01*
X145054147Y-109256900D01*
X145118297Y-109411772D01*
X145151000Y-109576184D01*
X145151000Y-109743816D01*
X145118297Y-109908228D01*
X145054147Y-110063100D01*
X144961015Y-110202481D01*
X144842481Y-110321015D01*
X144703100Y-110414147D01*
X144548228Y-110478297D01*
X144383816Y-110511000D01*
X144216184Y-110511000D01*
X144051772Y-110478297D01*
X143896900Y-110414147D01*
X143757519Y-110321015D01*
X143638985Y-110202481D01*
X143545853Y-110063100D01*
X143481703Y-109908228D01*
X143449000Y-109743816D01*
X143449000Y-109576184D01*
X143481703Y-109411772D01*
X143545853Y-109256900D01*
X143638985Y-109117519D01*
X143757519Y-108998985D01*
X143896900Y-108905853D01*
X144051772Y-108841703D01*
X144216184Y-108809000D01*
X144383816Y-108809000D01*
X144548228Y-108841703D01*
G37*
G36*
X139468228Y-108841703D02*
G01*
X139623100Y-108905853D01*
X139762481Y-108998985D01*
X139881015Y-109117519D01*
X139974147Y-109256900D01*
X140038297Y-109411772D01*
X140071000Y-109576184D01*
X140071000Y-109743816D01*
X140038297Y-109908228D01*
X139974147Y-110063100D01*
X139881015Y-110202481D01*
X139762481Y-110321015D01*
X139623100Y-110414147D01*
X139468228Y-110478297D01*
X139303816Y-110511000D01*
X139136184Y-110511000D01*
X138971772Y-110478297D01*
X138816900Y-110414147D01*
X138677519Y-110321015D01*
X138558985Y-110202481D01*
X138465853Y-110063100D01*
X138401703Y-109908228D01*
X138369000Y-109743816D01*
X138369000Y-109576184D01*
X138401703Y-109411772D01*
X138465853Y-109256900D01*
X138558985Y-109117519D01*
X138677519Y-108998985D01*
X138816900Y-108905853D01*
X138971772Y-108841703D01*
X139136184Y-108809000D01*
X139303816Y-108809000D01*
X139468228Y-108841703D01*
G37*
G36*
X152168228Y-108841703D02*
G01*
X152323100Y-108905853D01*
X152462481Y-108998985D01*
X152581015Y-109117519D01*
X152674147Y-109256900D01*
X152738297Y-109411772D01*
X152771000Y-109576184D01*
X152771000Y-109743816D01*
X152738297Y-109908228D01*
X152674147Y-110063100D01*
X152581015Y-110202481D01*
X152462481Y-110321015D01*
X152323100Y-110414147D01*
X152168228Y-110478297D01*
X152003816Y-110511000D01*
X151836184Y-110511000D01*
X151671772Y-110478297D01*
X151516900Y-110414147D01*
X151377519Y-110321015D01*
X151258985Y-110202481D01*
X151165853Y-110063100D01*
X151101703Y-109908228D01*
X151069000Y-109743816D01*
X151069000Y-109576184D01*
X151101703Y-109411772D01*
X151165853Y-109256900D01*
X151258985Y-109117519D01*
X151377519Y-108998985D01*
X151516900Y-108905853D01*
X151671772Y-108841703D01*
X151836184Y-108809000D01*
X152003816Y-108809000D01*
X152168228Y-108841703D01*
G37*
G36*
X149628228Y-108841703D02*
G01*
X149783100Y-108905853D01*
X149922481Y-108998985D01*
X150041015Y-109117519D01*
X150134147Y-109256900D01*
X150198297Y-109411772D01*
X150231000Y-109576184D01*
X150231000Y-109743816D01*
X150198297Y-109908228D01*
X150134147Y-110063100D01*
X150041015Y-110202481D01*
X149922481Y-110321015D01*
X149783100Y-110414147D01*
X149628228Y-110478297D01*
X149463816Y-110511000D01*
X149296184Y-110511000D01*
X149131772Y-110478297D01*
X148976900Y-110414147D01*
X148837519Y-110321015D01*
X148718985Y-110202481D01*
X148625853Y-110063100D01*
X148561703Y-109908228D01*
X148529000Y-109743816D01*
X148529000Y-109576184D01*
X148561703Y-109411772D01*
X148625853Y-109256900D01*
X148718985Y-109117519D01*
X148837519Y-108998985D01*
X148976900Y-108905853D01*
X149131772Y-108841703D01*
X149296184Y-108809000D01*
X149463816Y-108809000D01*
X149628228Y-108841703D01*
G37*
G36*
X136928228Y-108841703D02*
G01*
X137083100Y-108905853D01*
X137222481Y-108998985D01*
X137341015Y-109117519D01*
X137434147Y-109256900D01*
X137498297Y-109411772D01*
X137531000Y-109576184D01*
X137531000Y-109743816D01*
X137498297Y-109908228D01*
X137434147Y-110063100D01*
X137341015Y-110202481D01*
X137222481Y-110321015D01*
X137083100Y-110414147D01*
X136928228Y-110478297D01*
X136763816Y-110511000D01*
X136596184Y-110511000D01*
X136431772Y-110478297D01*
X136276900Y-110414147D01*
X136137519Y-110321015D01*
X136018985Y-110202481D01*
X135925853Y-110063100D01*
X135861703Y-109908228D01*
X135829000Y-109743816D01*
X135829000Y-109576184D01*
X135861703Y-109411772D01*
X135925853Y-109256900D01*
X136018985Y-109117519D01*
X136137519Y-108998985D01*
X136276900Y-108905853D01*
X136431772Y-108841703D01*
X136596184Y-108809000D01*
X136763816Y-108809000D01*
X136928228Y-108841703D01*
G37*
G36*
X142008228Y-108841703D02*
G01*
X142163100Y-108905853D01*
X142302481Y-108998985D01*
X142421015Y-109117519D01*
X142514147Y-109256900D01*
X142578297Y-109411772D01*
X142611000Y-109576184D01*
X142611000Y-109743816D01*
X142578297Y-109908228D01*
X142514147Y-110063100D01*
X142421015Y-110202481D01*
X142302481Y-110321015D01*
X142163100Y-110414147D01*
X142008228Y-110478297D01*
X141843816Y-110511000D01*
X141676184Y-110511000D01*
X141511772Y-110478297D01*
X141356900Y-110414147D01*
X141217519Y-110321015D01*
X141098985Y-110202481D01*
X141005853Y-110063100D01*
X140941703Y-109908228D01*
X140909000Y-109743816D01*
X140909000Y-109576184D01*
X140941703Y-109411772D01*
X141005853Y-109256900D01*
X141098985Y-109117519D01*
X141217519Y-108998985D01*
X141356900Y-108905853D01*
X141511772Y-108841703D01*
X141676184Y-108809000D01*
X141843816Y-108809000D01*
X142008228Y-108841703D01*
G37*
G36*
X102144072Y-107840918D02*
G01*
X102275660Y-107895423D01*
X102389939Y-107942759D01*
X102399354Y-107949050D01*
X102611211Y-108090609D01*
X102799391Y-108278789D01*
X102947242Y-108500063D01*
X103049082Y-108745928D01*
X103082132Y-108912079D01*
X103101000Y-109006938D01*
X103101000Y-109273062D01*
X103049082Y-109534072D01*
X102947241Y-109779939D01*
X102799390Y-110001212D01*
X102611212Y-110189390D01*
X102389939Y-110337241D01*
X102389938Y-110337242D01*
X102389937Y-110337242D01*
X102144072Y-110439082D01*
X101883063Y-110491000D01*
X101616937Y-110491000D01*
X101355928Y-110439082D01*
X101110063Y-110337242D01*
X101110062Y-110337242D01*
X101110061Y-110337241D01*
X100888788Y-110189390D01*
X100700610Y-110001212D01*
X100552759Y-109779939D01*
X100450918Y-109534072D01*
X100399000Y-109273062D01*
X100399000Y-109006938D01*
X100417869Y-108912079D01*
X100450918Y-108745928D01*
X100552758Y-108500063D01*
X100700609Y-108278789D01*
X100888789Y-108090609D01*
X101100646Y-107949050D01*
X101110061Y-107942759D01*
X101224341Y-107895423D01*
X101355928Y-107840918D01*
X101616937Y-107789000D01*
X101883063Y-107789000D01*
X102144072Y-107840918D01*
G37*
G36*
X121312302Y-108579795D02*
G01*
X121382363Y-108608815D01*
X121445422Y-108650950D01*
X121499050Y-108704578D01*
X121541185Y-108767637D01*
X121570205Y-108837698D01*
X121585000Y-108912079D01*
X121585000Y-108987921D01*
X121570205Y-109062302D01*
X121541185Y-109132363D01*
X121499050Y-109195422D01*
X121445422Y-109249050D01*
X121382363Y-109291185D01*
X121312302Y-109320205D01*
X121237921Y-109335000D01*
X121162079Y-109335000D01*
X121087698Y-109320205D01*
X121017637Y-109291185D01*
X120954578Y-109249050D01*
X120900950Y-109195422D01*
X120858815Y-109132363D01*
X120829795Y-109062302D01*
X120815000Y-108987921D01*
X120815000Y-108912079D01*
X120829795Y-108837698D01*
X120858815Y-108767637D01*
X120900950Y-108704578D01*
X120954578Y-108650950D01*
X121017637Y-108608815D01*
X121087698Y-108579795D01*
X121162079Y-108565000D01*
X121237921Y-108565000D01*
X121312302Y-108579795D01*
G37*
G36*
X122612302Y-108579795D02*
G01*
X122682363Y-108608815D01*
X122745422Y-108650950D01*
X122799050Y-108704578D01*
X122841185Y-108767637D01*
X122870205Y-108837698D01*
X122885000Y-108912079D01*
X122885000Y-108987921D01*
X122870205Y-109062302D01*
X122841185Y-109132363D01*
X122799050Y-109195422D01*
X122745422Y-109249050D01*
X122682363Y-109291185D01*
X122612302Y-109320205D01*
X122537921Y-109335000D01*
X122462079Y-109335000D01*
X122387698Y-109320205D01*
X122317637Y-109291185D01*
X122254578Y-109249050D01*
X122200950Y-109195422D01*
X122158815Y-109132363D01*
X122129795Y-109062302D01*
X122115000Y-108987921D01*
X122115000Y-108912079D01*
X122129795Y-108837698D01*
X122158815Y-108767637D01*
X122200950Y-108704578D01*
X122254578Y-108650950D01*
X122317637Y-108608815D01*
X122387698Y-108579795D01*
X122462079Y-108565000D01*
X122537921Y-108565000D01*
X122612302Y-108579795D01*
G37*
G36*
X121312302Y-107279795D02*
G01*
X121382363Y-107308815D01*
X121445422Y-107350950D01*
X121499050Y-107404578D01*
X121541185Y-107467637D01*
X121570205Y-107537698D01*
X121585000Y-107612079D01*
X121585000Y-107687921D01*
X121570205Y-107762302D01*
X121541185Y-107832363D01*
X121499050Y-107895422D01*
X121445422Y-107949050D01*
X121382363Y-107991185D01*
X121312302Y-108020205D01*
X121237921Y-108035000D01*
X121162079Y-108035000D01*
X121087698Y-108020205D01*
X121017637Y-107991185D01*
X120954578Y-107949050D01*
X120900950Y-107895422D01*
X120858815Y-107832363D01*
X120829795Y-107762302D01*
X120815000Y-107687921D01*
X120815000Y-107612079D01*
X120829795Y-107537698D01*
X120858815Y-107467637D01*
X120900950Y-107404578D01*
X120954578Y-107350950D01*
X121017637Y-107308815D01*
X121087698Y-107279795D01*
X121162079Y-107265000D01*
X121237921Y-107265000D01*
X121312302Y-107279795D01*
G37*
G36*
X122612302Y-107279795D02*
G01*
X122682363Y-107308815D01*
X122745422Y-107350950D01*
X122799050Y-107404578D01*
X122841185Y-107467637D01*
X122870205Y-107537698D01*
X122885000Y-107612079D01*
X122885000Y-107687921D01*
X122870205Y-107762302D01*
X122841185Y-107832363D01*
X122799050Y-107895422D01*
X122745422Y-107949050D01*
X122682363Y-107991185D01*
X122612302Y-108020205D01*
X122537921Y-108035000D01*
X122462079Y-108035000D01*
X122387698Y-108020205D01*
X122317637Y-107991185D01*
X122254578Y-107949050D01*
X122200950Y-107895422D01*
X122158815Y-107832363D01*
X122129795Y-107762302D01*
X122115000Y-107687921D01*
X122115000Y-107612079D01*
X122129795Y-107537698D01*
X122158815Y-107467637D01*
X122200950Y-107404578D01*
X122254578Y-107350950D01*
X122317637Y-107308815D01*
X122387698Y-107279795D01*
X122462079Y-107265000D01*
X122537921Y-107265000D01*
X122612302Y-107279795D01*
G37*
G36*
X152168228Y-106301703D02*
G01*
X152323100Y-106365853D01*
X152462481Y-106458985D01*
X152581015Y-106577519D01*
X152674147Y-106716900D01*
X152738297Y-106871772D01*
X152771000Y-107036184D01*
X152771000Y-107203816D01*
X152738297Y-107368228D01*
X152674147Y-107523100D01*
X152581015Y-107662481D01*
X152462481Y-107781015D01*
X152323100Y-107874147D01*
X152168228Y-107938297D01*
X152003816Y-107971000D01*
X151836184Y-107971000D01*
X151671772Y-107938297D01*
X151516900Y-107874147D01*
X151377519Y-107781015D01*
X151258985Y-107662481D01*
X151165853Y-107523100D01*
X151101703Y-107368228D01*
X151069000Y-107203816D01*
X151069000Y-107036184D01*
X151101703Y-106871772D01*
X151165853Y-106716900D01*
X151258985Y-106577519D01*
X151377519Y-106458985D01*
X151516900Y-106365853D01*
X151671772Y-106301703D01*
X151836184Y-106269000D01*
X152003816Y-106269000D01*
X152168228Y-106301703D01*
G37*
G36*
X136928228Y-106301703D02*
G01*
X137083100Y-106365853D01*
X137222481Y-106458985D01*
X137341015Y-106577519D01*
X137434147Y-106716900D01*
X137498297Y-106871772D01*
X137531000Y-107036184D01*
X137531000Y-107203816D01*
X137498297Y-107368228D01*
X137434147Y-107523100D01*
X137341015Y-107662481D01*
X137222481Y-107781015D01*
X137083100Y-107874147D01*
X136928228Y-107938297D01*
X136763816Y-107971000D01*
X136596184Y-107971000D01*
X136431772Y-107938297D01*
X136276900Y-107874147D01*
X136137519Y-107781015D01*
X136018985Y-107662481D01*
X135925853Y-107523100D01*
X135861703Y-107368228D01*
X135829000Y-107203816D01*
X135829000Y-107036184D01*
X135861703Y-106871772D01*
X135925853Y-106716900D01*
X136018985Y-106577519D01*
X136137519Y-106458985D01*
X136276900Y-106365853D01*
X136431772Y-106301703D01*
X136596184Y-106269000D01*
X136763816Y-106269000D01*
X136928228Y-106301703D01*
G37*
G36*
X164762302Y-106529795D02*
G01*
X164832363Y-106558815D01*
X164895422Y-106600950D01*
X164949050Y-106654578D01*
X164991185Y-106717637D01*
X165020205Y-106787698D01*
X165035000Y-106862079D01*
X165035000Y-106937921D01*
X165020205Y-107012302D01*
X164991185Y-107082363D01*
X164949050Y-107145422D01*
X164895422Y-107199050D01*
X164832363Y-107241185D01*
X164762302Y-107270205D01*
X164687921Y-107285000D01*
X164612079Y-107285000D01*
X164537698Y-107270205D01*
X164467637Y-107241185D01*
X164404578Y-107199050D01*
X164350950Y-107145422D01*
X164308815Y-107082363D01*
X164279795Y-107012302D01*
X164265000Y-106937921D01*
X164265000Y-106862079D01*
X164279795Y-106787698D01*
X164308815Y-106717637D01*
X164350950Y-106654578D01*
X164404578Y-106600950D01*
X164467637Y-106558815D01*
X164537698Y-106529795D01*
X164612079Y-106515000D01*
X164687921Y-106515000D01*
X164762302Y-106529795D01*
G37*
G36*
X163462302Y-106529795D02*
G01*
X163532363Y-106558815D01*
X163595422Y-106600950D01*
X163649050Y-106654578D01*
X163691185Y-106717637D01*
X163720205Y-106787698D01*
X163735000Y-106862079D01*
X163735000Y-106937921D01*
X163720205Y-107012302D01*
X163691185Y-107082363D01*
X163649050Y-107145422D01*
X163595422Y-107199050D01*
X163532363Y-107241185D01*
X163462302Y-107270205D01*
X163387921Y-107285000D01*
X163312079Y-107285000D01*
X163237698Y-107270205D01*
X163167637Y-107241185D01*
X163104578Y-107199050D01*
X163050950Y-107145422D01*
X163008815Y-107082363D01*
X162979795Y-107012302D01*
X162965000Y-106937921D01*
X162965000Y-106862079D01*
X162979795Y-106787698D01*
X163008815Y-106717637D01*
X163050950Y-106654578D01*
X163104578Y-106600950D01*
X163167637Y-106558815D01*
X163237698Y-106529795D01*
X163312079Y-106515000D01*
X163387921Y-106515000D01*
X163462302Y-106529795D01*
G37*
G36*
X164762302Y-105229795D02*
G01*
X164832363Y-105258815D01*
X164895422Y-105300950D01*
X164949050Y-105354578D01*
X164991185Y-105417637D01*
X165020205Y-105487698D01*
X165035000Y-105562079D01*
X165035000Y-105637921D01*
X165020205Y-105712302D01*
X164991185Y-105782363D01*
X164949050Y-105845422D01*
X164895422Y-105899050D01*
X164832363Y-105941185D01*
X164762302Y-105970205D01*
X164687921Y-105985000D01*
X164612079Y-105985000D01*
X164537698Y-105970205D01*
X164467637Y-105941185D01*
X164404578Y-105899050D01*
X164350950Y-105845422D01*
X164308815Y-105782363D01*
X164279795Y-105712302D01*
X164265000Y-105637921D01*
X164265000Y-105562079D01*
X164279795Y-105487698D01*
X164308815Y-105417637D01*
X164350950Y-105354578D01*
X164404578Y-105300950D01*
X164467637Y-105258815D01*
X164537698Y-105229795D01*
X164612079Y-105215000D01*
X164687921Y-105215000D01*
X164762302Y-105229795D01*
G37*
G36*
X163462302Y-105229795D02*
G01*
X163532363Y-105258815D01*
X163595422Y-105300950D01*
X163649050Y-105354578D01*
X163691185Y-105417637D01*
X163720205Y-105487698D01*
X163735000Y-105562079D01*
X163735000Y-105637921D01*
X163720205Y-105712302D01*
X163691185Y-105782363D01*
X163649050Y-105845422D01*
X163595422Y-105899050D01*
X163532363Y-105941185D01*
X163462302Y-105970205D01*
X163387921Y-105985000D01*
X163312079Y-105985000D01*
X163237698Y-105970205D01*
X163167637Y-105941185D01*
X163104578Y-105899050D01*
X163050950Y-105845422D01*
X163008815Y-105782363D01*
X162979795Y-105712302D01*
X162965000Y-105637921D01*
X162965000Y-105562079D01*
X162979795Y-105487698D01*
X163008815Y-105417637D01*
X163050950Y-105354578D01*
X163104578Y-105300950D01*
X163167637Y-105258815D01*
X163237698Y-105229795D01*
X163312079Y-105215000D01*
X163387921Y-105215000D01*
X163462302Y-105229795D01*
G37*
G36*
X181644072Y-103130918D02*
G01*
X181807926Y-103198788D01*
X181889939Y-103232759D01*
X182111212Y-103380610D01*
X182299390Y-103568788D01*
X182428293Y-103761703D01*
X182447242Y-103790063D01*
X182549082Y-104035928D01*
X182601000Y-104296937D01*
X182601000Y-104563063D01*
X182549082Y-104824072D01*
X182447242Y-105069937D01*
X182299391Y-105291211D01*
X182111211Y-105479391D01*
X182001328Y-105552813D01*
X181889939Y-105627241D01*
X181889938Y-105627242D01*
X181889937Y-105627242D01*
X181644072Y-105729082D01*
X181383063Y-105781000D01*
X181116937Y-105781000D01*
X180855928Y-105729082D01*
X180610063Y-105627242D01*
X180610062Y-105627242D01*
X180610061Y-105627241D01*
X180498672Y-105552813D01*
X180388789Y-105479391D01*
X180200609Y-105291211D01*
X180052758Y-105069937D01*
X179950918Y-104824072D01*
X179899000Y-104563063D01*
X179899000Y-104296937D01*
X179950918Y-104035928D01*
X180052758Y-103790063D01*
X180071708Y-103761703D01*
X180200610Y-103568788D01*
X180388788Y-103380610D01*
X180610061Y-103232759D01*
X180692075Y-103198788D01*
X180855928Y-103130918D01*
X181116937Y-103079000D01*
X181383063Y-103079000D01*
X181644072Y-103130918D01*
G37*
G36*
X152168228Y-103761703D02*
G01*
X152323100Y-103825853D01*
X152462481Y-103918985D01*
X152581015Y-104037519D01*
X152674147Y-104176900D01*
X152738297Y-104331772D01*
X152771000Y-104496184D01*
X152771000Y-104663816D01*
X152738297Y-104828228D01*
X152674147Y-104983100D01*
X152581015Y-105122481D01*
X152462481Y-105241015D01*
X152323100Y-105334147D01*
X152168228Y-105398297D01*
X152003816Y-105431000D01*
X151836184Y-105431000D01*
X151671772Y-105398297D01*
X151516900Y-105334147D01*
X151377519Y-105241015D01*
X151258985Y-105122481D01*
X151165853Y-104983100D01*
X151101703Y-104828228D01*
X151069000Y-104663816D01*
X151069000Y-104496184D01*
X151101703Y-104331772D01*
X151165853Y-104176900D01*
X151258985Y-104037519D01*
X151377519Y-103918985D01*
X151516900Y-103825853D01*
X151671772Y-103761703D01*
X151836184Y-103729000D01*
X152003816Y-103729000D01*
X152168228Y-103761703D01*
G37*
G36*
X136928228Y-103761703D02*
G01*
X137083100Y-103825853D01*
X137222481Y-103918985D01*
X137341015Y-104037519D01*
X137434147Y-104176900D01*
X137498297Y-104331772D01*
X137531000Y-104496184D01*
X137531000Y-104663816D01*
X137498297Y-104828228D01*
X137434147Y-104983100D01*
X137341015Y-105122481D01*
X137222481Y-105241015D01*
X137083100Y-105334147D01*
X136928228Y-105398297D01*
X136763816Y-105431000D01*
X136596184Y-105431000D01*
X136431772Y-105398297D01*
X136276900Y-105334147D01*
X136137519Y-105241015D01*
X136018985Y-105122481D01*
X135925853Y-104983100D01*
X135861703Y-104828228D01*
X135829000Y-104663816D01*
X135829000Y-104496184D01*
X135861703Y-104331772D01*
X135925853Y-104176900D01*
X136018985Y-104037519D01*
X136137519Y-103918985D01*
X136276900Y-103825853D01*
X136431772Y-103761703D01*
X136596184Y-103729000D01*
X136763816Y-103729000D01*
X136928228Y-103761703D01*
G37*
G36*
X102144072Y-102760918D02*
G01*
X102389939Y-102862759D01*
X102432204Y-102891000D01*
X102611211Y-103010609D01*
X102799391Y-103198789D01*
X102947242Y-103420063D01*
X103049082Y-103665928D01*
X103101000Y-103926937D01*
X103101000Y-104193063D01*
X103049082Y-104454072D01*
X102971579Y-104641183D01*
X102947241Y-104699939D01*
X102799390Y-104921212D01*
X102611212Y-105109390D01*
X102389939Y-105257241D01*
X102389938Y-105257242D01*
X102389937Y-105257242D01*
X102144072Y-105359082D01*
X101883063Y-105411000D01*
X101616937Y-105411000D01*
X101355928Y-105359082D01*
X101110063Y-105257242D01*
X101110062Y-105257242D01*
X101110061Y-105257241D01*
X100888788Y-105109390D01*
X100700610Y-104921212D01*
X100552759Y-104699939D01*
X100528422Y-104641183D01*
X100450918Y-104454072D01*
X100399000Y-104193063D01*
X100399000Y-103926937D01*
X100450918Y-103665928D01*
X100552758Y-103420063D01*
X100700609Y-103198789D01*
X100888789Y-103010609D01*
X101067796Y-102891000D01*
X101110061Y-102862759D01*
X101355928Y-102760918D01*
X101616937Y-102709000D01*
X101883063Y-102709000D01*
X102144072Y-102760918D01*
G37*
G36*
X163462302Y-103929795D02*
G01*
X163532363Y-103958815D01*
X163595422Y-104000950D01*
X163649050Y-104054578D01*
X163691185Y-104117637D01*
X163720205Y-104187698D01*
X163735000Y-104262079D01*
X163735000Y-104337921D01*
X163720205Y-104412302D01*
X163691185Y-104482363D01*
X163649050Y-104545422D01*
X163595422Y-104599050D01*
X163532363Y-104641185D01*
X163462302Y-104670205D01*
X163387921Y-104685000D01*
X163312079Y-104685000D01*
X163237698Y-104670205D01*
X163167637Y-104641185D01*
X163104578Y-104599050D01*
X163050950Y-104545422D01*
X163008815Y-104482363D01*
X162979795Y-104412302D01*
X162965000Y-104337921D01*
X162965000Y-104262079D01*
X162979795Y-104187698D01*
X163008815Y-104117637D01*
X163050950Y-104054578D01*
X163104578Y-104000950D01*
X163167637Y-103958815D01*
X163237698Y-103929795D01*
X163312079Y-103915000D01*
X163387921Y-103915000D01*
X163462302Y-103929795D01*
G37*
G36*
X164762302Y-103929795D02*
G01*
X164832363Y-103958815D01*
X164895422Y-104000950D01*
X164949050Y-104054578D01*
X164991185Y-104117637D01*
X165020205Y-104187698D01*
X165035000Y-104262079D01*
X165035000Y-104337921D01*
X165020205Y-104412302D01*
X164991185Y-104482363D01*
X164949050Y-104545422D01*
X164895422Y-104599050D01*
X164832363Y-104641185D01*
X164762302Y-104670205D01*
X164687921Y-104685000D01*
X164612079Y-104685000D01*
X164537698Y-104670205D01*
X164467637Y-104641185D01*
X164404578Y-104599050D01*
X164350950Y-104545422D01*
X164308815Y-104482363D01*
X164279795Y-104412302D01*
X164265000Y-104337921D01*
X164265000Y-104262079D01*
X164279795Y-104187698D01*
X164308815Y-104117637D01*
X164350950Y-104054578D01*
X164404578Y-104000950D01*
X164467637Y-103958815D01*
X164537698Y-103929795D01*
X164612079Y-103915000D01*
X164687921Y-103915000D01*
X164762302Y-103929795D01*
G37*
G36*
X136928228Y-101221703D02*
G01*
X137083100Y-101285853D01*
X137222481Y-101378985D01*
X137341015Y-101497519D01*
X137434147Y-101636900D01*
X137498297Y-101791772D01*
X137531000Y-101956184D01*
X137531000Y-102123816D01*
X137498297Y-102288228D01*
X137434147Y-102443100D01*
X137341015Y-102582481D01*
X137222481Y-102701015D01*
X137083100Y-102794147D01*
X136928228Y-102858297D01*
X136763816Y-102891000D01*
X136596184Y-102891000D01*
X136431772Y-102858297D01*
X136276900Y-102794147D01*
X136137519Y-102701015D01*
X136018985Y-102582481D01*
X135925853Y-102443100D01*
X135861703Y-102288228D01*
X135829000Y-102123816D01*
X135829000Y-101956184D01*
X135861703Y-101791772D01*
X135925853Y-101636900D01*
X136018985Y-101497519D01*
X136137519Y-101378985D01*
X136276900Y-101285853D01*
X136431772Y-101221703D01*
X136596184Y-101189000D01*
X136763816Y-101189000D01*
X136928228Y-101221703D01*
G37*
G36*
X152168228Y-101221703D02*
G01*
X152323100Y-101285853D01*
X152462481Y-101378985D01*
X152581015Y-101497519D01*
X152674147Y-101636900D01*
X152738297Y-101791772D01*
X152771000Y-101956184D01*
X152771000Y-102123816D01*
X152738297Y-102288228D01*
X152674147Y-102443100D01*
X152581015Y-102582481D01*
X152462481Y-102701015D01*
X152323100Y-102794147D01*
X152168228Y-102858297D01*
X152003816Y-102891000D01*
X151836184Y-102891000D01*
X151671772Y-102858297D01*
X151516900Y-102794147D01*
X151377519Y-102701015D01*
X151258985Y-102582481D01*
X151165853Y-102443100D01*
X151101703Y-102288228D01*
X151069000Y-102123816D01*
X151069000Y-101956184D01*
X151101703Y-101791772D01*
X151165853Y-101636900D01*
X151258985Y-101497519D01*
X151377519Y-101378985D01*
X151516900Y-101285853D01*
X151671772Y-101221703D01*
X151836184Y-101189000D01*
X152003816Y-101189000D01*
X152168228Y-101221703D01*
G37*
G36*
X181644072Y-98050918D02*
G01*
X181807926Y-98118788D01*
X181889939Y-98152759D01*
X182111212Y-98300610D01*
X182299390Y-98488788D01*
X182428293Y-98681703D01*
X182447242Y-98710063D01*
X182549082Y-98955928D01*
X182601000Y-99216937D01*
X182601000Y-99483063D01*
X182549082Y-99744072D01*
X182508846Y-99841212D01*
X182447241Y-99989939D01*
X182299390Y-100211212D01*
X182111212Y-100399390D01*
X181889939Y-100547241D01*
X181889938Y-100547242D01*
X181889937Y-100547242D01*
X181644072Y-100649082D01*
X181383063Y-100701000D01*
X181116937Y-100701000D01*
X180855928Y-100649082D01*
X180610063Y-100547242D01*
X180610062Y-100547242D01*
X180610061Y-100547241D01*
X180388788Y-100399390D01*
X180200610Y-100211212D01*
X180052759Y-99989939D01*
X179991155Y-99841212D01*
X179950918Y-99744072D01*
X179899000Y-99483063D01*
X179899000Y-99216937D01*
X179950918Y-98955928D01*
X180052758Y-98710063D01*
X180071708Y-98681703D01*
X180200610Y-98488788D01*
X180388788Y-98300610D01*
X180610061Y-98152759D01*
X180692075Y-98118788D01*
X180855928Y-98050918D01*
X181116937Y-97999000D01*
X181383063Y-97999000D01*
X181644072Y-98050918D01*
G37*
G36*
X152168228Y-98681703D02*
G01*
X152323100Y-98745853D01*
X152462481Y-98838985D01*
X152581015Y-98957519D01*
X152674147Y-99096900D01*
X152738297Y-99251772D01*
X152771000Y-99416184D01*
X152771000Y-99583816D01*
X152738297Y-99748228D01*
X152674147Y-99903100D01*
X152581015Y-100042481D01*
X152462481Y-100161015D01*
X152323100Y-100254147D01*
X152168228Y-100318297D01*
X152003816Y-100351000D01*
X151836184Y-100351000D01*
X151671772Y-100318297D01*
X151516900Y-100254147D01*
X151377519Y-100161015D01*
X151258985Y-100042481D01*
X151165853Y-99903100D01*
X151101703Y-99748228D01*
X151069000Y-99583816D01*
X151069000Y-99416184D01*
X151101703Y-99251772D01*
X151165853Y-99096900D01*
X151258985Y-98957519D01*
X151377519Y-98838985D01*
X151516900Y-98745853D01*
X151671772Y-98681703D01*
X151836184Y-98649000D01*
X152003816Y-98649000D01*
X152168228Y-98681703D01*
G37*
G36*
X136928228Y-98681703D02*
G01*
X137083100Y-98745853D01*
X137222481Y-98838985D01*
X137341015Y-98957519D01*
X137434147Y-99096900D01*
X137498297Y-99251772D01*
X137531000Y-99416184D01*
X137531000Y-99583816D01*
X137498297Y-99748228D01*
X137434147Y-99903100D01*
X137341015Y-100042481D01*
X137222481Y-100161015D01*
X137083100Y-100254147D01*
X136928228Y-100318297D01*
X136763816Y-100351000D01*
X136596184Y-100351000D01*
X136431772Y-100318297D01*
X136276900Y-100254147D01*
X136137519Y-100161015D01*
X136018985Y-100042481D01*
X135925853Y-99903100D01*
X135861703Y-99748228D01*
X135829000Y-99583816D01*
X135829000Y-99416184D01*
X135861703Y-99251772D01*
X135925853Y-99096900D01*
X136018985Y-98957519D01*
X136137519Y-98838985D01*
X136276900Y-98745853D01*
X136431772Y-98681703D01*
X136596184Y-98649000D01*
X136763816Y-98649000D01*
X136928228Y-98681703D01*
G37*
G36*
X102144072Y-97680918D02*
G01*
X102389939Y-97782759D01*
X102432204Y-97811000D01*
X102611211Y-97930609D01*
X102799391Y-98118789D01*
X102947242Y-98340063D01*
X103008846Y-98488789D01*
X103049082Y-98585928D01*
X103101000Y-98846938D01*
X103101000Y-99113062D01*
X103049082Y-99374072D01*
X102947241Y-99619939D01*
X102799390Y-99841212D01*
X102611212Y-100029390D01*
X102389939Y-100177241D01*
X102389938Y-100177242D01*
X102389937Y-100177242D01*
X102144072Y-100279082D01*
X101883063Y-100331000D01*
X101616937Y-100331000D01*
X101355928Y-100279082D01*
X101110063Y-100177242D01*
X101110062Y-100177242D01*
X101110061Y-100177241D01*
X100888788Y-100029390D01*
X100700610Y-99841212D01*
X100552759Y-99619939D01*
X100450918Y-99374072D01*
X100399000Y-99113062D01*
X100399000Y-98846938D01*
X100450918Y-98585928D01*
X100491154Y-98488789D01*
X100552758Y-98340063D01*
X100700609Y-98118789D01*
X100888789Y-97930609D01*
X101067796Y-97811000D01*
X101110061Y-97782759D01*
X101355928Y-97680918D01*
X101616937Y-97629000D01*
X101883063Y-97629000D01*
X102144072Y-97680918D01*
G37*
G36*
X152168228Y-96141703D02*
G01*
X152323100Y-96205853D01*
X152462481Y-96298985D01*
X152581015Y-96417519D01*
X152674147Y-96556900D01*
X152738297Y-96711772D01*
X152771000Y-96876184D01*
X152771000Y-97043816D01*
X152738297Y-97208228D01*
X152674147Y-97363100D01*
X152581015Y-97502481D01*
X152462481Y-97621015D01*
X152323100Y-97714147D01*
X152168228Y-97778297D01*
X152003816Y-97811000D01*
X151836184Y-97811000D01*
X151671772Y-97778297D01*
X151516900Y-97714147D01*
X151377519Y-97621015D01*
X151258985Y-97502481D01*
X151165853Y-97363100D01*
X151101703Y-97208228D01*
X151069000Y-97043816D01*
X151069000Y-96876184D01*
X151101703Y-96711772D01*
X151165853Y-96556900D01*
X151258985Y-96417519D01*
X151377519Y-96298985D01*
X151516900Y-96205853D01*
X151671772Y-96141703D01*
X151836184Y-96109000D01*
X152003816Y-96109000D01*
X152168228Y-96141703D01*
G37*
G36*
X136928228Y-96141703D02*
G01*
X137083100Y-96205853D01*
X137222481Y-96298985D01*
X137341015Y-96417519D01*
X137434147Y-96556900D01*
X137498297Y-96711772D01*
X137531000Y-96876184D01*
X137531000Y-97043816D01*
X137498297Y-97208228D01*
X137434147Y-97363100D01*
X137341015Y-97502481D01*
X137222481Y-97621015D01*
X137083100Y-97714147D01*
X136928228Y-97778297D01*
X136763816Y-97811000D01*
X136596184Y-97811000D01*
X136431772Y-97778297D01*
X136276900Y-97714147D01*
X136137519Y-97621015D01*
X136018985Y-97502481D01*
X135925853Y-97363100D01*
X135861703Y-97208228D01*
X135829000Y-97043816D01*
X135829000Y-96876184D01*
X135861703Y-96711772D01*
X135925853Y-96556900D01*
X136018985Y-96417519D01*
X136137519Y-96298985D01*
X136276900Y-96205853D01*
X136431772Y-96141703D01*
X136596184Y-96109000D01*
X136763816Y-96109000D01*
X136928228Y-96141703D01*
G37*
G36*
X181644072Y-92970918D02*
G01*
X181807926Y-93038788D01*
X181889939Y-93072759D01*
X182111212Y-93220610D01*
X182299390Y-93408788D01*
X182428293Y-93601703D01*
X182447242Y-93630063D01*
X182549082Y-93875928D01*
X182601000Y-94136937D01*
X182601000Y-94403063D01*
X182549082Y-94664072D01*
X182508846Y-94761212D01*
X182447241Y-94909939D01*
X182299390Y-95131212D01*
X182111212Y-95319390D01*
X181889939Y-95467241D01*
X181889938Y-95467242D01*
X181889937Y-95467242D01*
X181644072Y-95569082D01*
X181383063Y-95621000D01*
X181116937Y-95621000D01*
X180855928Y-95569082D01*
X180610063Y-95467242D01*
X180610062Y-95467242D01*
X180610061Y-95467241D01*
X180388788Y-95319390D01*
X180200610Y-95131212D01*
X180052759Y-94909939D01*
X179991155Y-94761212D01*
X179950918Y-94664072D01*
X179899000Y-94403063D01*
X179899000Y-94136937D01*
X179950918Y-93875928D01*
X180052758Y-93630063D01*
X180071708Y-93601703D01*
X180200610Y-93408788D01*
X180388788Y-93220610D01*
X180610061Y-93072759D01*
X180692075Y-93038788D01*
X180855928Y-92970918D01*
X181116937Y-92919000D01*
X181383063Y-92919000D01*
X181644072Y-92970918D01*
G37*
G36*
X136928228Y-93601703D02*
G01*
X137083100Y-93665853D01*
X137222481Y-93758985D01*
X137341015Y-93877519D01*
X137434147Y-94016900D01*
X137498297Y-94171772D01*
X137531000Y-94336184D01*
X137531000Y-94503816D01*
X137498297Y-94668228D01*
X137434147Y-94823100D01*
X137341015Y-94962481D01*
X137222481Y-95081015D01*
X137083100Y-95174147D01*
X136928228Y-95238297D01*
X136763816Y-95271000D01*
X136596184Y-95271000D01*
X136431772Y-95238297D01*
X136276900Y-95174147D01*
X136137519Y-95081015D01*
X136018985Y-94962481D01*
X135925853Y-94823100D01*
X135861703Y-94668228D01*
X135829000Y-94503816D01*
X135829000Y-94336184D01*
X135861703Y-94171772D01*
X135925853Y-94016900D01*
X136018985Y-93877519D01*
X136137519Y-93758985D01*
X136276900Y-93665853D01*
X136431772Y-93601703D01*
X136596184Y-93569000D01*
X136763816Y-93569000D01*
X136928228Y-93601703D01*
G37*
G36*
X152168228Y-93601703D02*
G01*
X152323100Y-93665853D01*
X152462481Y-93758985D01*
X152581015Y-93877519D01*
X152674147Y-94016900D01*
X152738297Y-94171772D01*
X152771000Y-94336184D01*
X152771000Y-94503816D01*
X152738297Y-94668228D01*
X152674147Y-94823100D01*
X152581015Y-94962481D01*
X152462481Y-95081015D01*
X152323100Y-95174147D01*
X152168228Y-95238297D01*
X152003816Y-95271000D01*
X151836184Y-95271000D01*
X151671772Y-95238297D01*
X151516900Y-95174147D01*
X151377519Y-95081015D01*
X151258985Y-94962481D01*
X151165853Y-94823100D01*
X151101703Y-94668228D01*
X151069000Y-94503816D01*
X151069000Y-94336184D01*
X151101703Y-94171772D01*
X151165853Y-94016900D01*
X151258985Y-93877519D01*
X151377519Y-93758985D01*
X151516900Y-93665853D01*
X151671772Y-93601703D01*
X151836184Y-93569000D01*
X152003816Y-93569000D01*
X152168228Y-93601703D01*
G37*
G36*
X102144072Y-92600918D02*
G01*
X102389939Y-92702759D01*
X102432204Y-92731000D01*
X102611211Y-92850609D01*
X102799391Y-93038789D01*
X102947242Y-93260063D01*
X103008846Y-93408789D01*
X103049082Y-93505928D01*
X103101000Y-93766938D01*
X103101000Y-94033062D01*
X103049082Y-94294072D01*
X102947241Y-94539939D01*
X102799390Y-94761212D01*
X102611212Y-94949390D01*
X102389939Y-95097241D01*
X102389938Y-95097242D01*
X102389937Y-95097242D01*
X102144072Y-95199082D01*
X101883063Y-95251000D01*
X101616937Y-95251000D01*
X101355928Y-95199082D01*
X101110063Y-95097242D01*
X101110062Y-95097242D01*
X101110061Y-95097241D01*
X100888788Y-94949390D01*
X100700610Y-94761212D01*
X100552759Y-94539939D01*
X100450918Y-94294072D01*
X100399000Y-94033062D01*
X100399000Y-93766938D01*
X100450918Y-93505928D01*
X100491154Y-93408789D01*
X100552758Y-93260063D01*
X100700609Y-93038789D01*
X100888789Y-92850609D01*
X101067796Y-92731000D01*
X101110061Y-92702759D01*
X101355928Y-92600918D01*
X101616937Y-92549000D01*
X101883063Y-92549000D01*
X102144072Y-92600918D01*
G37*
G36*
X152168228Y-91061703D02*
G01*
X152323100Y-91125853D01*
X152462481Y-91218985D01*
X152581015Y-91337519D01*
X152674147Y-91476900D01*
X152738297Y-91631772D01*
X152771000Y-91796184D01*
X152771000Y-91963816D01*
X152738297Y-92128228D01*
X152674147Y-92283100D01*
X152581015Y-92422481D01*
X152462481Y-92541015D01*
X152323100Y-92634147D01*
X152168228Y-92698297D01*
X152003816Y-92731000D01*
X151836184Y-92731000D01*
X151671772Y-92698297D01*
X151516900Y-92634147D01*
X151377519Y-92541015D01*
X151258985Y-92422481D01*
X151165853Y-92283100D01*
X151101703Y-92128228D01*
X151069000Y-91963816D01*
X151069000Y-91796184D01*
X151101703Y-91631772D01*
X151165853Y-91476900D01*
X151258985Y-91337519D01*
X151377519Y-91218985D01*
X151516900Y-91125853D01*
X151671772Y-91061703D01*
X151836184Y-91029000D01*
X152003816Y-91029000D01*
X152168228Y-91061703D01*
G37*
G36*
X136928228Y-91061703D02*
G01*
X137083100Y-91125853D01*
X137222481Y-91218985D01*
X137341015Y-91337519D01*
X137434147Y-91476900D01*
X137498297Y-91631772D01*
X137531000Y-91796184D01*
X137531000Y-91963816D01*
X137498297Y-92128228D01*
X137434147Y-92283100D01*
X137341015Y-92422481D01*
X137222481Y-92541015D01*
X137083100Y-92634147D01*
X136928228Y-92698297D01*
X136763816Y-92731000D01*
X136596184Y-92731000D01*
X136431772Y-92698297D01*
X136276900Y-92634147D01*
X136137519Y-92541015D01*
X136018985Y-92422481D01*
X135925853Y-92283100D01*
X135861703Y-92128228D01*
X135829000Y-91963816D01*
X135829000Y-91796184D01*
X135861703Y-91631772D01*
X135925853Y-91476900D01*
X136018985Y-91337519D01*
X136137519Y-91218985D01*
X136276900Y-91125853D01*
X136431772Y-91061703D01*
X136596184Y-91029000D01*
X136763816Y-91029000D01*
X136928228Y-91061703D01*
G37*
G36*
X122712302Y-91529795D02*
G01*
X122782363Y-91558815D01*
X122845422Y-91600950D01*
X122899050Y-91654578D01*
X122941185Y-91717637D01*
X122970205Y-91787698D01*
X122985000Y-91862079D01*
X122985000Y-91937921D01*
X122970205Y-92012302D01*
X122941185Y-92082363D01*
X122899050Y-92145422D01*
X122845422Y-92199050D01*
X122782363Y-92241185D01*
X122712302Y-92270205D01*
X122637921Y-92285000D01*
X122562079Y-92285000D01*
X122487698Y-92270205D01*
X122417637Y-92241185D01*
X122354578Y-92199050D01*
X122300950Y-92145422D01*
X122258815Y-92082363D01*
X122229795Y-92012302D01*
X122215000Y-91937921D01*
X122215000Y-91862079D01*
X122229795Y-91787698D01*
X122258815Y-91717637D01*
X122300950Y-91654578D01*
X122354578Y-91600950D01*
X122417637Y-91558815D01*
X122487698Y-91529795D01*
X122562079Y-91515000D01*
X122637921Y-91515000D01*
X122712302Y-91529795D01*
G37*
G36*
X121412302Y-91529795D02*
G01*
X121482363Y-91558815D01*
X121545422Y-91600950D01*
X121599050Y-91654578D01*
X121641185Y-91717637D01*
X121670205Y-91787698D01*
X121685000Y-91862079D01*
X121685000Y-91937921D01*
X121670205Y-92012302D01*
X121641185Y-92082363D01*
X121599050Y-92145422D01*
X121545422Y-92199050D01*
X121482363Y-92241185D01*
X121412302Y-92270205D01*
X121337921Y-92285000D01*
X121262079Y-92285000D01*
X121187698Y-92270205D01*
X121117637Y-92241185D01*
X121054578Y-92199050D01*
X121000950Y-92145422D01*
X120958815Y-92082363D01*
X120929795Y-92012302D01*
X120915000Y-91937921D01*
X120915000Y-91862079D01*
X120929795Y-91787698D01*
X120958815Y-91717637D01*
X121000950Y-91654578D01*
X121054578Y-91600950D01*
X121117637Y-91558815D01*
X121187698Y-91529795D01*
X121262079Y-91515000D01*
X121337921Y-91515000D01*
X121412302Y-91529795D01*
G37*
G36*
X122712302Y-90229795D02*
G01*
X122782363Y-90258815D01*
X122845422Y-90300950D01*
X122899050Y-90354578D01*
X122941185Y-90417637D01*
X122970205Y-90487698D01*
X122985000Y-90562079D01*
X122985000Y-90637921D01*
X122970205Y-90712302D01*
X122941185Y-90782363D01*
X122899050Y-90845422D01*
X122845422Y-90899050D01*
X122782363Y-90941185D01*
X122712302Y-90970205D01*
X122637921Y-90985000D01*
X122562079Y-90985000D01*
X122487698Y-90970205D01*
X122417637Y-90941185D01*
X122354578Y-90899050D01*
X122300950Y-90845422D01*
X122258815Y-90782363D01*
X122229795Y-90712302D01*
X122215000Y-90637921D01*
X122215000Y-90562079D01*
X122229795Y-90487698D01*
X122258815Y-90417637D01*
X122300950Y-90354578D01*
X122354578Y-90300950D01*
X122417637Y-90258815D01*
X122487698Y-90229795D01*
X122562079Y-90215000D01*
X122637921Y-90215000D01*
X122712302Y-90229795D01*
G37*
G36*
X121412302Y-90229795D02*
G01*
X121482363Y-90258815D01*
X121545422Y-90300950D01*
X121599050Y-90354578D01*
X121641185Y-90417637D01*
X121670205Y-90487698D01*
X121685000Y-90562079D01*
X121685000Y-90637921D01*
X121670205Y-90712302D01*
X121641185Y-90782363D01*
X121599050Y-90845422D01*
X121545422Y-90899050D01*
X121482363Y-90941185D01*
X121412302Y-90970205D01*
X121337921Y-90985000D01*
X121262079Y-90985000D01*
X121187698Y-90970205D01*
X121117637Y-90941185D01*
X121054578Y-90899050D01*
X121000950Y-90845422D01*
X120958815Y-90782363D01*
X120929795Y-90712302D01*
X120915000Y-90637921D01*
X120915000Y-90562079D01*
X120929795Y-90487698D01*
X120958815Y-90417637D01*
X121000950Y-90354578D01*
X121054578Y-90300950D01*
X121117637Y-90258815D01*
X121187698Y-90229795D01*
X121262079Y-90215000D01*
X121337921Y-90215000D01*
X121412302Y-90229795D01*
G37*
G36*
X181644072Y-87890918D02*
G01*
X181807926Y-87958788D01*
X181889939Y-87992759D01*
X182111212Y-88140610D01*
X182299390Y-88328788D01*
X182428293Y-88521703D01*
X182447242Y-88550063D01*
X182549082Y-88795928D01*
X182601000Y-89056937D01*
X182601000Y-89323063D01*
X182549082Y-89584072D01*
X182507277Y-89685000D01*
X182447241Y-89829939D01*
X182299390Y-90051212D01*
X182111212Y-90239390D01*
X181889939Y-90387241D01*
X181889938Y-90387242D01*
X181889937Y-90387242D01*
X181644072Y-90489082D01*
X181383063Y-90541000D01*
X181116937Y-90541000D01*
X180855928Y-90489082D01*
X180610063Y-90387242D01*
X180610062Y-90387242D01*
X180610061Y-90387241D01*
X180388788Y-90239390D01*
X180200610Y-90051212D01*
X180052759Y-89829939D01*
X179992724Y-89685000D01*
X179950918Y-89584072D01*
X179899000Y-89323063D01*
X179899000Y-89056937D01*
X179950918Y-88795928D01*
X180052758Y-88550063D01*
X180071708Y-88521703D01*
X180200610Y-88328788D01*
X180388788Y-88140610D01*
X180610061Y-87992759D01*
X180692075Y-87958788D01*
X180855928Y-87890918D01*
X181116937Y-87839000D01*
X181383063Y-87839000D01*
X181644072Y-87890918D01*
G37*
G36*
X136928228Y-88521703D02*
G01*
X137083100Y-88585853D01*
X137222481Y-88678985D01*
X137341015Y-88797519D01*
X137434147Y-88936900D01*
X137498297Y-89091772D01*
X137531000Y-89256184D01*
X137531000Y-89423816D01*
X137498297Y-89588228D01*
X137434147Y-89743100D01*
X137341015Y-89882481D01*
X137222481Y-90001015D01*
X137083100Y-90094147D01*
X136928228Y-90158297D01*
X136763816Y-90191000D01*
X136596184Y-90191000D01*
X136431772Y-90158297D01*
X136276900Y-90094147D01*
X136137519Y-90001015D01*
X136018985Y-89882481D01*
X135925853Y-89743100D01*
X135861703Y-89588228D01*
X135829000Y-89423816D01*
X135829000Y-89256184D01*
X135861703Y-89091772D01*
X135925853Y-88936900D01*
X136018985Y-88797519D01*
X136137519Y-88678985D01*
X136276900Y-88585853D01*
X136431772Y-88521703D01*
X136596184Y-88489000D01*
X136763816Y-88489000D01*
X136928228Y-88521703D01*
G37*
G36*
X152168228Y-88521703D02*
G01*
X152323100Y-88585853D01*
X152462481Y-88678985D01*
X152581015Y-88797519D01*
X152674147Y-88936900D01*
X152738297Y-89091772D01*
X152771000Y-89256184D01*
X152771000Y-89423816D01*
X152738297Y-89588228D01*
X152674147Y-89743100D01*
X152581015Y-89882481D01*
X152462481Y-90001015D01*
X152323100Y-90094147D01*
X152168228Y-90158297D01*
X152003816Y-90191000D01*
X151836184Y-90191000D01*
X151671772Y-90158297D01*
X151516900Y-90094147D01*
X151377519Y-90001015D01*
X151258985Y-89882481D01*
X151165853Y-89743100D01*
X151101703Y-89588228D01*
X151069000Y-89423816D01*
X151069000Y-89256184D01*
X151101703Y-89091772D01*
X151165853Y-88936900D01*
X151258985Y-88797519D01*
X151377519Y-88678985D01*
X151516900Y-88585853D01*
X151671772Y-88521703D01*
X151836184Y-88489000D01*
X152003816Y-88489000D01*
X152168228Y-88521703D01*
G37*
G36*
X101963500Y-87485000D02*
G01*
X102144072Y-87520918D01*
X102389939Y-87622759D01*
X102432204Y-87651000D01*
X102611211Y-87770609D01*
X102799391Y-87958789D01*
X102947242Y-88180063D01*
X103049082Y-88425928D01*
X103101000Y-88686937D01*
X103101000Y-88953063D01*
X103080807Y-89054578D01*
X103049082Y-89214072D01*
X102947241Y-89459939D01*
X102890123Y-89545422D01*
X102826136Y-89641185D01*
X102799390Y-89681212D01*
X102611212Y-89869390D01*
X102389939Y-90017241D01*
X102389938Y-90017242D01*
X102389937Y-90017242D01*
X102144072Y-90119082D01*
X101883063Y-90171000D01*
X101616937Y-90171000D01*
X101355928Y-90119082D01*
X101110063Y-90017242D01*
X101110062Y-90017242D01*
X101110061Y-90017241D01*
X100888788Y-89869390D01*
X100700610Y-89681212D01*
X100673865Y-89641185D01*
X100609877Y-89545422D01*
X100552759Y-89459939D01*
X100450918Y-89214072D01*
X100419193Y-89054578D01*
X100399000Y-88953063D01*
X100399000Y-88686937D01*
X100450918Y-88425928D01*
X100552758Y-88180063D01*
X100700609Y-87958789D01*
X100888789Y-87770609D01*
X101067796Y-87651000D01*
X101110061Y-87622759D01*
X101355928Y-87520918D01*
X101536500Y-87485000D01*
X101616937Y-87469000D01*
X101883063Y-87469000D01*
X101963500Y-87485000D01*
G37*
G36*
X121412302Y-88929795D02*
G01*
X121482363Y-88958815D01*
X121545422Y-89000950D01*
X121599050Y-89054578D01*
X121641185Y-89117637D01*
X121670205Y-89187698D01*
X121685000Y-89262079D01*
X121685000Y-89337921D01*
X121670205Y-89412302D01*
X121641185Y-89482363D01*
X121599050Y-89545422D01*
X121545422Y-89599050D01*
X121482363Y-89641185D01*
X121412302Y-89670205D01*
X121337921Y-89685000D01*
X121262079Y-89685000D01*
X121187698Y-89670205D01*
X121117637Y-89641185D01*
X121054578Y-89599050D01*
X121000950Y-89545422D01*
X120958815Y-89482363D01*
X120929795Y-89412302D01*
X120915000Y-89337921D01*
X120915000Y-89262079D01*
X120929795Y-89187698D01*
X120958815Y-89117637D01*
X121000950Y-89054578D01*
X121054578Y-89000950D01*
X121117637Y-88958815D01*
X121187698Y-88929795D01*
X121262079Y-88915000D01*
X121337921Y-88915000D01*
X121412302Y-88929795D01*
G37*
G36*
X122712302Y-88929795D02*
G01*
X122782363Y-88958815D01*
X122845422Y-89000950D01*
X122899050Y-89054578D01*
X122941185Y-89117637D01*
X122970205Y-89187698D01*
X122985000Y-89262079D01*
X122985000Y-89337921D01*
X122970205Y-89412302D01*
X122941185Y-89482363D01*
X122899050Y-89545422D01*
X122845422Y-89599050D01*
X122782363Y-89641185D01*
X122712302Y-89670205D01*
X122637921Y-89685000D01*
X122562079Y-89685000D01*
X122487698Y-89670205D01*
X122417637Y-89641185D01*
X122354578Y-89599050D01*
X122300950Y-89545422D01*
X122258815Y-89482363D01*
X122229795Y-89412302D01*
X122215000Y-89337921D01*
X122215000Y-89262079D01*
X122229795Y-89187698D01*
X122258815Y-89117637D01*
X122300950Y-89054578D01*
X122354578Y-89000950D01*
X122417637Y-88958815D01*
X122487698Y-88929795D01*
X122562079Y-88915000D01*
X122637921Y-88915000D01*
X122712302Y-88929795D01*
G37*
G36*
X152168228Y-85981703D02*
G01*
X152323100Y-86045853D01*
X152462481Y-86138985D01*
X152581015Y-86257519D01*
X152674147Y-86396900D01*
X152738297Y-86551772D01*
X152771000Y-86716184D01*
X152771000Y-86883816D01*
X152738297Y-87048228D01*
X152674147Y-87203100D01*
X152581015Y-87342481D01*
X152462481Y-87461015D01*
X152323100Y-87554147D01*
X152168228Y-87618297D01*
X152003816Y-87651000D01*
X151836184Y-87651000D01*
X151671772Y-87618297D01*
X151516900Y-87554147D01*
X151377519Y-87461015D01*
X151258985Y-87342481D01*
X151165853Y-87203100D01*
X151101703Y-87048228D01*
X151069000Y-86883816D01*
X151069000Y-86716184D01*
X151101703Y-86551772D01*
X151165853Y-86396900D01*
X151258985Y-86257519D01*
X151377519Y-86138985D01*
X151516900Y-86045853D01*
X151671772Y-85981703D01*
X151836184Y-85949000D01*
X152003816Y-85949000D01*
X152168228Y-85981703D01*
G37*
G36*
X136928228Y-85981703D02*
G01*
X137083100Y-86045853D01*
X137222481Y-86138985D01*
X137341015Y-86257519D01*
X137434147Y-86396900D01*
X137498297Y-86551772D01*
X137531000Y-86716184D01*
X137531000Y-86883816D01*
X137498297Y-87048228D01*
X137434147Y-87203100D01*
X137341015Y-87342481D01*
X137222481Y-87461015D01*
X137083100Y-87554147D01*
X136928228Y-87618297D01*
X136763816Y-87651000D01*
X136596184Y-87651000D01*
X136431772Y-87618297D01*
X136276900Y-87554147D01*
X136137519Y-87461015D01*
X136018985Y-87342481D01*
X135925853Y-87203100D01*
X135861703Y-87048228D01*
X135829000Y-86883816D01*
X135829000Y-86716184D01*
X135861703Y-86551772D01*
X135925853Y-86396900D01*
X136018985Y-86257519D01*
X136137519Y-86138985D01*
X136276900Y-86045853D01*
X136431772Y-85981703D01*
X136596184Y-85949000D01*
X136763816Y-85949000D01*
X136928228Y-85981703D01*
G37*
G36*
X164762302Y-86729795D02*
G01*
X164832363Y-86758815D01*
X164895422Y-86800950D01*
X164949050Y-86854578D01*
X164991185Y-86917637D01*
X165020205Y-86987698D01*
X165035000Y-87062079D01*
X165035000Y-87137921D01*
X165020205Y-87212302D01*
X164991185Y-87282363D01*
X164949050Y-87345422D01*
X164895422Y-87399050D01*
X164832363Y-87441185D01*
X164762302Y-87470205D01*
X164687921Y-87485000D01*
X164612079Y-87485000D01*
X164537698Y-87470205D01*
X164467637Y-87441185D01*
X164404578Y-87399050D01*
X164350950Y-87345422D01*
X164308815Y-87282363D01*
X164279795Y-87212302D01*
X164265000Y-87137921D01*
X164265000Y-87062079D01*
X164279795Y-86987698D01*
X164308815Y-86917637D01*
X164350950Y-86854578D01*
X164404578Y-86800950D01*
X164467637Y-86758815D01*
X164537698Y-86729795D01*
X164612079Y-86715000D01*
X164687921Y-86715000D01*
X164762302Y-86729795D01*
G37*
G36*
X163462302Y-86729795D02*
G01*
X163532363Y-86758815D01*
X163595422Y-86800950D01*
X163649050Y-86854578D01*
X163691185Y-86917637D01*
X163720205Y-86987698D01*
X163735000Y-87062079D01*
X163735000Y-87137921D01*
X163720205Y-87212302D01*
X163691185Y-87282363D01*
X163649050Y-87345422D01*
X163595422Y-87399050D01*
X163532363Y-87441185D01*
X163462302Y-87470205D01*
X163387921Y-87485000D01*
X163312079Y-87485000D01*
X163237698Y-87470205D01*
X163167637Y-87441185D01*
X163104578Y-87399050D01*
X163050950Y-87345422D01*
X163008815Y-87282363D01*
X162979795Y-87212302D01*
X162965000Y-87137921D01*
X162965000Y-87062079D01*
X162979795Y-86987698D01*
X163008815Y-86917637D01*
X163050950Y-86854578D01*
X163104578Y-86800950D01*
X163167637Y-86758815D01*
X163237698Y-86729795D01*
X163312079Y-86715000D01*
X163387921Y-86715000D01*
X163462302Y-86729795D01*
G37*
G36*
X163462302Y-85429795D02*
G01*
X163532363Y-85458815D01*
X163595422Y-85500950D01*
X163649050Y-85554578D01*
X163691185Y-85617637D01*
X163720205Y-85687698D01*
X163735000Y-85762079D01*
X163735000Y-85837921D01*
X163720205Y-85912302D01*
X163691185Y-85982363D01*
X163649050Y-86045422D01*
X163595422Y-86099050D01*
X163532363Y-86141185D01*
X163462302Y-86170205D01*
X163387921Y-86185000D01*
X163312079Y-86185000D01*
X163237698Y-86170205D01*
X163167637Y-86141185D01*
X163104578Y-86099050D01*
X163050950Y-86045422D01*
X163008815Y-85982363D01*
X162979795Y-85912302D01*
X162965000Y-85837921D01*
X162965000Y-85762079D01*
X162979795Y-85687698D01*
X163008815Y-85617637D01*
X163050950Y-85554578D01*
X163104578Y-85500950D01*
X163167637Y-85458815D01*
X163237698Y-85429795D01*
X163312079Y-85415000D01*
X163387921Y-85415000D01*
X163462302Y-85429795D01*
G37*
G36*
X164762302Y-85429795D02*
G01*
X164832363Y-85458815D01*
X164895422Y-85500950D01*
X164949050Y-85554578D01*
X164991185Y-85617637D01*
X165020205Y-85687698D01*
X165035000Y-85762079D01*
X165035000Y-85837921D01*
X165020205Y-85912302D01*
X164991185Y-85982363D01*
X164949050Y-86045422D01*
X164895422Y-86099050D01*
X164832363Y-86141185D01*
X164762302Y-86170205D01*
X164687921Y-86185000D01*
X164612079Y-86185000D01*
X164537698Y-86170205D01*
X164467637Y-86141185D01*
X164404578Y-86099050D01*
X164350950Y-86045422D01*
X164308815Y-85982363D01*
X164279795Y-85912302D01*
X164265000Y-85837921D01*
X164265000Y-85762079D01*
X164279795Y-85687698D01*
X164308815Y-85617637D01*
X164350950Y-85554578D01*
X164404578Y-85500950D01*
X164467637Y-85458815D01*
X164537698Y-85429795D01*
X164612079Y-85415000D01*
X164687921Y-85415000D01*
X164762302Y-85429795D01*
G37*
G36*
X181644072Y-82810918D02*
G01*
X181807926Y-82878788D01*
X181889939Y-82912759D01*
X182111212Y-83060610D01*
X182299390Y-83248788D01*
X182428293Y-83441703D01*
X182447242Y-83470063D01*
X182549082Y-83715928D01*
X182601000Y-83976937D01*
X182601000Y-84243063D01*
X182549082Y-84504072D01*
X182508846Y-84601212D01*
X182447241Y-84749939D01*
X182414426Y-84799050D01*
X182356996Y-84885000D01*
X182299390Y-84971212D01*
X182111212Y-85159390D01*
X181889939Y-85307241D01*
X181889938Y-85307242D01*
X181889937Y-85307242D01*
X181644072Y-85409082D01*
X181383063Y-85461000D01*
X181116937Y-85461000D01*
X180855928Y-85409082D01*
X180610063Y-85307242D01*
X180610062Y-85307242D01*
X180610061Y-85307241D01*
X180388788Y-85159390D01*
X180200610Y-84971212D01*
X180143005Y-84885000D01*
X180085574Y-84799050D01*
X180052759Y-84749939D01*
X179991155Y-84601212D01*
X179950918Y-84504072D01*
X179899000Y-84243063D01*
X179899000Y-83976937D01*
X179950918Y-83715928D01*
X180052758Y-83470063D01*
X180071708Y-83441703D01*
X180200610Y-83248788D01*
X180388788Y-83060610D01*
X180610061Y-82912759D01*
X180692075Y-82878788D01*
X180855928Y-82810918D01*
X181116937Y-82759000D01*
X181383063Y-82759000D01*
X181644072Y-82810918D01*
G37*
G36*
X152168228Y-83441703D02*
G01*
X152323100Y-83505853D01*
X152462481Y-83598985D01*
X152581015Y-83717519D01*
X152674147Y-83856900D01*
X152738297Y-84011772D01*
X152771000Y-84176184D01*
X152771000Y-84343816D01*
X152738297Y-84508228D01*
X152674147Y-84663100D01*
X152581015Y-84802481D01*
X152462481Y-84921015D01*
X152323100Y-85014147D01*
X152168228Y-85078297D01*
X152003816Y-85111000D01*
X151836184Y-85111000D01*
X151671772Y-85078297D01*
X151516900Y-85014147D01*
X151377519Y-84921015D01*
X151258985Y-84802481D01*
X151165853Y-84663100D01*
X151101703Y-84508228D01*
X151069000Y-84343816D01*
X151069000Y-84176184D01*
X151101703Y-84011772D01*
X151165853Y-83856900D01*
X151258985Y-83717519D01*
X151377519Y-83598985D01*
X151516900Y-83505853D01*
X151671772Y-83441703D01*
X151836184Y-83409000D01*
X152003816Y-83409000D01*
X152168228Y-83441703D01*
G37*
G36*
X136928228Y-83441703D02*
G01*
X137083100Y-83505853D01*
X137222481Y-83598985D01*
X137341015Y-83717519D01*
X137434147Y-83856900D01*
X137498297Y-84011772D01*
X137531000Y-84176184D01*
X137531000Y-84343816D01*
X137498297Y-84508228D01*
X137434147Y-84663100D01*
X137341015Y-84802481D01*
X137222481Y-84921015D01*
X137083100Y-85014147D01*
X136928228Y-85078297D01*
X136763816Y-85111000D01*
X136596184Y-85111000D01*
X136431772Y-85078297D01*
X136276900Y-85014147D01*
X136137519Y-84921015D01*
X136018985Y-84802481D01*
X135925853Y-84663100D01*
X135861703Y-84508228D01*
X135829000Y-84343816D01*
X135829000Y-84176184D01*
X135861703Y-84011772D01*
X135925853Y-83856900D01*
X136018985Y-83717519D01*
X136137519Y-83598985D01*
X136276900Y-83505853D01*
X136431772Y-83441703D01*
X136596184Y-83409000D01*
X136763816Y-83409000D01*
X136928228Y-83441703D01*
G37*
G36*
X102144072Y-82440918D02*
G01*
X102389939Y-82542759D01*
X102432204Y-82571000D01*
X102611211Y-82690609D01*
X102799391Y-82878789D01*
X102947242Y-83100063D01*
X103049082Y-83345928D01*
X103101000Y-83606937D01*
X103101000Y-83873063D01*
X103049082Y-84134072D01*
X102973049Y-84317634D01*
X102947241Y-84379939D01*
X102942055Y-84387700D01*
X102799391Y-84601211D01*
X102611211Y-84789391D01*
X102596755Y-84799050D01*
X102389939Y-84937241D01*
X102389938Y-84937242D01*
X102389937Y-84937242D01*
X102144072Y-85039082D01*
X101883063Y-85091000D01*
X101616937Y-85091000D01*
X101355928Y-85039082D01*
X101110063Y-84937242D01*
X101110062Y-84937242D01*
X101110061Y-84937241D01*
X100903245Y-84799050D01*
X100888789Y-84789391D01*
X100700609Y-84601211D01*
X100557945Y-84387700D01*
X100552759Y-84379939D01*
X100526952Y-84317634D01*
X100450918Y-84134072D01*
X100399000Y-83873063D01*
X100399000Y-83606937D01*
X100450918Y-83345928D01*
X100552758Y-83100063D01*
X100700609Y-82878789D01*
X100888789Y-82690609D01*
X101067796Y-82571000D01*
X101110061Y-82542759D01*
X101355928Y-82440918D01*
X101616937Y-82389000D01*
X101883063Y-82389000D01*
X102144072Y-82440918D01*
G37*
G36*
X163462302Y-84129795D02*
G01*
X163532363Y-84158815D01*
X163595422Y-84200950D01*
X163649050Y-84254578D01*
X163691185Y-84317637D01*
X163720205Y-84387698D01*
X163735000Y-84462079D01*
X163735000Y-84537921D01*
X163720205Y-84612302D01*
X163691185Y-84682363D01*
X163649050Y-84745422D01*
X163595422Y-84799050D01*
X163532363Y-84841185D01*
X163462302Y-84870205D01*
X163387921Y-84885000D01*
X163312079Y-84885000D01*
X163237698Y-84870205D01*
X163167637Y-84841185D01*
X163104578Y-84799050D01*
X163050950Y-84745422D01*
X163008815Y-84682363D01*
X162979795Y-84612302D01*
X162965000Y-84537921D01*
X162965000Y-84462079D01*
X162979795Y-84387698D01*
X163008815Y-84317637D01*
X163050950Y-84254578D01*
X163104578Y-84200950D01*
X163167637Y-84158815D01*
X163237698Y-84129795D01*
X163312079Y-84115000D01*
X163387921Y-84115000D01*
X163462302Y-84129795D01*
G37*
G36*
X164762302Y-84129795D02*
G01*
X164832363Y-84158815D01*
X164895422Y-84200950D01*
X164949050Y-84254578D01*
X164991185Y-84317637D01*
X165020205Y-84387698D01*
X165035000Y-84462079D01*
X165035000Y-84537921D01*
X165020205Y-84612302D01*
X164991185Y-84682363D01*
X164949050Y-84745422D01*
X164895422Y-84799050D01*
X164832363Y-84841185D01*
X164762302Y-84870205D01*
X164687921Y-84885000D01*
X164612079Y-84885000D01*
X164537698Y-84870205D01*
X164467637Y-84841185D01*
X164404578Y-84799050D01*
X164350950Y-84745422D01*
X164308815Y-84682363D01*
X164279795Y-84612302D01*
X164265000Y-84537921D01*
X164265000Y-84462079D01*
X164279795Y-84387698D01*
X164308815Y-84317637D01*
X164350950Y-84254578D01*
X164404578Y-84200950D01*
X164467637Y-84158815D01*
X164537698Y-84129795D01*
X164612079Y-84115000D01*
X164687921Y-84115000D01*
X164762302Y-84129795D01*
G37*
G36*
X136928228Y-80901703D02*
G01*
X137083100Y-80965853D01*
X137222481Y-81058985D01*
X137341015Y-81177519D01*
X137434147Y-81316900D01*
X137498297Y-81471772D01*
X137531000Y-81636184D01*
X137531000Y-81803816D01*
X137498297Y-81968228D01*
X137434147Y-82123100D01*
X137341015Y-82262481D01*
X137222481Y-82381015D01*
X137083100Y-82474147D01*
X136928228Y-82538297D01*
X136763816Y-82571000D01*
X136596184Y-82571000D01*
X136431772Y-82538297D01*
X136276900Y-82474147D01*
X136137519Y-82381015D01*
X136018985Y-82262481D01*
X135925853Y-82123100D01*
X135861703Y-81968228D01*
X135829000Y-81803816D01*
X135829000Y-81636184D01*
X135861703Y-81471772D01*
X135925853Y-81316900D01*
X136018985Y-81177519D01*
X136137519Y-81058985D01*
X136276900Y-80965853D01*
X136431772Y-80901703D01*
X136596184Y-80869000D01*
X136763816Y-80869000D01*
X136928228Y-80901703D01*
G37*
G36*
X152168228Y-80901703D02*
G01*
X152323100Y-80965853D01*
X152462481Y-81058985D01*
X152581015Y-81177519D01*
X152674147Y-81316900D01*
X152738297Y-81471772D01*
X152771000Y-81636184D01*
X152771000Y-81803816D01*
X152738297Y-81968228D01*
X152674147Y-82123100D01*
X152581015Y-82262481D01*
X152462481Y-82381015D01*
X152323100Y-82474147D01*
X152168228Y-82538297D01*
X152003816Y-82571000D01*
X151836184Y-82571000D01*
X151671772Y-82538297D01*
X151516900Y-82474147D01*
X151377519Y-82381015D01*
X151258985Y-82262481D01*
X151165853Y-82123100D01*
X151101703Y-81968228D01*
X151069000Y-81803816D01*
X151069000Y-81636184D01*
X151101703Y-81471772D01*
X151165853Y-81316900D01*
X151258985Y-81177519D01*
X151377519Y-81058985D01*
X151516900Y-80965853D01*
X151671772Y-80901703D01*
X151836184Y-80869000D01*
X152003816Y-80869000D01*
X152168228Y-80901703D01*
G37*
G36*
X139979028Y-79580903D02*
G01*
X140133900Y-79645053D01*
X140273281Y-79738185D01*
X140391815Y-79856719D01*
X140484947Y-79996100D01*
X140549097Y-80150972D01*
X140581800Y-80315384D01*
X140581800Y-80483016D01*
X140549097Y-80647428D01*
X140484947Y-80802300D01*
X140391815Y-80941681D01*
X140273281Y-81060215D01*
X140133900Y-81153347D01*
X139979028Y-81217497D01*
X139814616Y-81250200D01*
X139646984Y-81250200D01*
X139482572Y-81217497D01*
X139327700Y-81153347D01*
X139188319Y-81060215D01*
X139069785Y-80941681D01*
X138976653Y-80802300D01*
X138912503Y-80647428D01*
X138879800Y-80483016D01*
X138879800Y-80315384D01*
X138912503Y-80150972D01*
X138976653Y-79996100D01*
X139069785Y-79856719D01*
X139188319Y-79738185D01*
X139327700Y-79645053D01*
X139482572Y-79580903D01*
X139646984Y-79548200D01*
X139814616Y-79548200D01*
X139979028Y-79580903D01*
G37*
G36*
X181644072Y-77730918D02*
G01*
X181807926Y-77798788D01*
X181889939Y-77832759D01*
X182111212Y-77980610D01*
X182299390Y-78168788D01*
X182428293Y-78361703D01*
X182447242Y-78390063D01*
X182549082Y-78635928D01*
X182601000Y-78896937D01*
X182601000Y-79163063D01*
X182549082Y-79424072D01*
X182457550Y-79645052D01*
X182447241Y-79669939D01*
X182299390Y-79891212D01*
X182111212Y-80079390D01*
X181889939Y-80227241D01*
X181889938Y-80227242D01*
X181889937Y-80227242D01*
X181644072Y-80329082D01*
X181383063Y-80381000D01*
X181116937Y-80381000D01*
X180855928Y-80329082D01*
X180610063Y-80227242D01*
X180610062Y-80227242D01*
X180610061Y-80227241D01*
X180388788Y-80079390D01*
X180200610Y-79891212D01*
X180052759Y-79669939D01*
X180042451Y-79645052D01*
X179950918Y-79424072D01*
X179899000Y-79163063D01*
X179899000Y-78896937D01*
X179950918Y-78635928D01*
X180052758Y-78390063D01*
X180071708Y-78361703D01*
X180200610Y-78168788D01*
X180388788Y-77980610D01*
X180610061Y-77832759D01*
X180692075Y-77798788D01*
X180855928Y-77730918D01*
X181116937Y-77679000D01*
X181383063Y-77679000D01*
X181644072Y-77730918D01*
G37*
G36*
X136928228Y-78361703D02*
G01*
X137083100Y-78425853D01*
X137222481Y-78518985D01*
X137341015Y-78637519D01*
X137434147Y-78776900D01*
X137498297Y-78931772D01*
X137531000Y-79096184D01*
X137531000Y-79263816D01*
X137498297Y-79428228D01*
X137434147Y-79583100D01*
X137341015Y-79722481D01*
X137222481Y-79841015D01*
X137083100Y-79934147D01*
X136928228Y-79998297D01*
X136763816Y-80031000D01*
X136596184Y-80031000D01*
X136431772Y-79998297D01*
X136276900Y-79934147D01*
X136137519Y-79841015D01*
X136018985Y-79722481D01*
X135925853Y-79583100D01*
X135861703Y-79428228D01*
X135829000Y-79263816D01*
X135829000Y-79096184D01*
X135861703Y-78931772D01*
X135925853Y-78776900D01*
X136018985Y-78637519D01*
X136137519Y-78518985D01*
X136276900Y-78425853D01*
X136431772Y-78361703D01*
X136596184Y-78329000D01*
X136763816Y-78329000D01*
X136928228Y-78361703D01*
G37*
G36*
X152168228Y-78361703D02*
G01*
X152323100Y-78425853D01*
X152462481Y-78518985D01*
X152581015Y-78637519D01*
X152674147Y-78776900D01*
X152738297Y-78931772D01*
X152771000Y-79096184D01*
X152771000Y-79263816D01*
X152738297Y-79428228D01*
X152674147Y-79583100D01*
X152581015Y-79722481D01*
X152462481Y-79841015D01*
X152323100Y-79934147D01*
X152168228Y-79998297D01*
X152003816Y-80031000D01*
X151836184Y-80031000D01*
X151671772Y-79998297D01*
X151516900Y-79934147D01*
X151377519Y-79841015D01*
X151258985Y-79722481D01*
X151165853Y-79583100D01*
X151101703Y-79428228D01*
X151069000Y-79263816D01*
X151069000Y-79096184D01*
X151101703Y-78931772D01*
X151165853Y-78776900D01*
X151258985Y-78637519D01*
X151377519Y-78518985D01*
X151516900Y-78425853D01*
X151671772Y-78361703D01*
X151836184Y-78329000D01*
X152003816Y-78329000D01*
X152168228Y-78361703D01*
G37*
G36*
X102123666Y-77356859D02*
G01*
X102144072Y-77360918D01*
X102389939Y-77462759D01*
X102432204Y-77491000D01*
X102611211Y-77610609D01*
X102799391Y-77798789D01*
X102947242Y-78020063D01*
X103049082Y-78265928D01*
X103088310Y-78463138D01*
X103101000Y-78526938D01*
X103101000Y-78793062D01*
X103049082Y-79054072D01*
X102947241Y-79299939D01*
X102799390Y-79521212D01*
X102611212Y-79709390D01*
X102389939Y-79857241D01*
X102389938Y-79857242D01*
X102389937Y-79857242D01*
X102144072Y-79959082D01*
X101883063Y-80011000D01*
X101616937Y-80011000D01*
X101355928Y-79959082D01*
X101110063Y-79857242D01*
X101110062Y-79857242D01*
X101110061Y-79857241D01*
X100888788Y-79709390D01*
X100700610Y-79521212D01*
X100552759Y-79299939D01*
X100450918Y-79054072D01*
X100399000Y-78793062D01*
X100399000Y-78526938D01*
X100411691Y-78463138D01*
X100450918Y-78265928D01*
X100552758Y-78020063D01*
X100700609Y-77798789D01*
X100888789Y-77610609D01*
X101067796Y-77491000D01*
X101110061Y-77462759D01*
X101355928Y-77360918D01*
X101376334Y-77356859D01*
X101616937Y-77309000D01*
X101883063Y-77309000D01*
X102123666Y-77356859D01*
G37*
G36*
X147686073Y-78235938D02*
G01*
X147813649Y-78288782D01*
X147928459Y-78365495D01*
X148026105Y-78463141D01*
X148102818Y-78577951D01*
X148155662Y-78705527D01*
X148182600Y-78840956D01*
X148182600Y-78979044D01*
X148155662Y-79114473D01*
X148102818Y-79242049D01*
X148026105Y-79356859D01*
X147928459Y-79454505D01*
X147813649Y-79531218D01*
X147686073Y-79584062D01*
X147550644Y-79611000D01*
X147412556Y-79611000D01*
X147277127Y-79584062D01*
X147149551Y-79531218D01*
X147034741Y-79454505D01*
X146937095Y-79356859D01*
X146860382Y-79242049D01*
X146807538Y-79114473D01*
X146780600Y-78979044D01*
X146780600Y-78840956D01*
X146807538Y-78705527D01*
X146860382Y-78577951D01*
X146937095Y-78463141D01*
X147034741Y-78365495D01*
X147149551Y-78288782D01*
X147277127Y-78235938D01*
X147412556Y-78209000D01*
X147550644Y-78209000D01*
X147686073Y-78235938D01*
G37*
G36*
X145686073Y-78235938D02*
G01*
X145813649Y-78288782D01*
X145928459Y-78365495D01*
X146026105Y-78463141D01*
X146102818Y-78577951D01*
X146155662Y-78705527D01*
X146182600Y-78840956D01*
X146182600Y-78979044D01*
X146155662Y-79114473D01*
X146102818Y-79242049D01*
X146026105Y-79356859D01*
X145928459Y-79454505D01*
X145813649Y-79531218D01*
X145686073Y-79584062D01*
X145550644Y-79611000D01*
X145412556Y-79611000D01*
X145277127Y-79584062D01*
X145149551Y-79531218D01*
X145034741Y-79454505D01*
X144937095Y-79356859D01*
X144860382Y-79242049D01*
X144807538Y-79114473D01*
X144780600Y-78979044D01*
X144780600Y-78840956D01*
X144807538Y-78705527D01*
X144860382Y-78577951D01*
X144937095Y-78463141D01*
X145034741Y-78365495D01*
X145149551Y-78288782D01*
X145277127Y-78235938D01*
X145412556Y-78209000D01*
X145550644Y-78209000D01*
X145686073Y-78235938D01*
G37*
G36*
X149686073Y-78235938D02*
G01*
X149813649Y-78288782D01*
X149928459Y-78365495D01*
X150026105Y-78463141D01*
X150102818Y-78577951D01*
X150155662Y-78705527D01*
X150182600Y-78840956D01*
X150182600Y-78979044D01*
X150155662Y-79114473D01*
X150102818Y-79242049D01*
X150026105Y-79356859D01*
X149928459Y-79454505D01*
X149813649Y-79531218D01*
X149686073Y-79584062D01*
X149550644Y-79611000D01*
X149412556Y-79611000D01*
X149277127Y-79584062D01*
X149149551Y-79531218D01*
X149034741Y-79454505D01*
X148937095Y-79356859D01*
X148860382Y-79242049D01*
X148807538Y-79114473D01*
X148780600Y-78979044D01*
X148780600Y-78840956D01*
X148807538Y-78705527D01*
X148860382Y-78577951D01*
X148937095Y-78463141D01*
X149034741Y-78365495D01*
X149149551Y-78288782D01*
X149277127Y-78235938D01*
X149412556Y-78209000D01*
X149550644Y-78209000D01*
X149686073Y-78235938D01*
G37*
G36*
X139979028Y-77040903D02*
G01*
X140133900Y-77105053D01*
X140273281Y-77198185D01*
X140391815Y-77316719D01*
X140484947Y-77456100D01*
X140549097Y-77610972D01*
X140581800Y-77775384D01*
X140581800Y-77943016D01*
X140549097Y-78107428D01*
X140484947Y-78262300D01*
X140391815Y-78401681D01*
X140273281Y-78520215D01*
X140133900Y-78613347D01*
X139979028Y-78677497D01*
X139814616Y-78710200D01*
X139646984Y-78710200D01*
X139482572Y-78677497D01*
X139327700Y-78613347D01*
X139188319Y-78520215D01*
X139069785Y-78401681D01*
X138976653Y-78262300D01*
X138912503Y-78107428D01*
X138879800Y-77943016D01*
X138879800Y-77775384D01*
X138912503Y-77610972D01*
X138976653Y-77456100D01*
X139069785Y-77316719D01*
X139188319Y-77198185D01*
X139327700Y-77105053D01*
X139482572Y-77040903D01*
X139646984Y-77008200D01*
X139814616Y-77008200D01*
X139979028Y-77040903D01*
G37*
G36*
X145686073Y-76235938D02*
G01*
X145813649Y-76288782D01*
X145928459Y-76365495D01*
X146026105Y-76463141D01*
X146102818Y-76577951D01*
X146155662Y-76705527D01*
X146182600Y-76840956D01*
X146182600Y-76979044D01*
X146155662Y-77114473D01*
X146102818Y-77242049D01*
X146026105Y-77356859D01*
X145928459Y-77454505D01*
X145813649Y-77531218D01*
X145686073Y-77584062D01*
X145550644Y-77611000D01*
X145412556Y-77611000D01*
X145277127Y-77584062D01*
X145149551Y-77531218D01*
X145034741Y-77454505D01*
X144937095Y-77356859D01*
X144860382Y-77242049D01*
X144807538Y-77114473D01*
X144780600Y-76979044D01*
X144780600Y-76840956D01*
X144807538Y-76705527D01*
X144860382Y-76577951D01*
X144937095Y-76463141D01*
X145034741Y-76365495D01*
X145149551Y-76288782D01*
X145277127Y-76235938D01*
X145412556Y-76209000D01*
X145550644Y-76209000D01*
X145686073Y-76235938D01*
G37*
G36*
X147686073Y-76235938D02*
G01*
X147813649Y-76288782D01*
X147928459Y-76365495D01*
X148026105Y-76463141D01*
X148102818Y-76577951D01*
X148155662Y-76705527D01*
X148182600Y-76840956D01*
X148182600Y-76979044D01*
X148155662Y-77114473D01*
X148102818Y-77242049D01*
X148026105Y-77356859D01*
X147928459Y-77454505D01*
X147813649Y-77531218D01*
X147686073Y-77584062D01*
X147550644Y-77611000D01*
X147412556Y-77611000D01*
X147277127Y-77584062D01*
X147149551Y-77531218D01*
X147034741Y-77454505D01*
X146937095Y-77356859D01*
X146860382Y-77242049D01*
X146807538Y-77114473D01*
X146780600Y-76979044D01*
X146780600Y-76840956D01*
X146807538Y-76705527D01*
X146860382Y-76577951D01*
X146937095Y-76463141D01*
X147034741Y-76365495D01*
X147149551Y-76288782D01*
X147277127Y-76235938D01*
X147412556Y-76209000D01*
X147550644Y-76209000D01*
X147686073Y-76235938D01*
G37*
G36*
X150182600Y-77611000D02*
G01*
X148780600Y-77611000D01*
X148780600Y-76209000D01*
X150182600Y-76209000D01*
X150182600Y-77611000D01*
G37*
G36*
X152168228Y-75821703D02*
G01*
X152323100Y-75885853D01*
X152462481Y-75978985D01*
X152581015Y-76097519D01*
X152674147Y-76236900D01*
X152738297Y-76391772D01*
X152771000Y-76556184D01*
X152771000Y-76723816D01*
X152738297Y-76888228D01*
X152674147Y-77043100D01*
X152581015Y-77182481D01*
X152462481Y-77301015D01*
X152323100Y-77394147D01*
X152168228Y-77458297D01*
X152003816Y-77491000D01*
X151836184Y-77491000D01*
X151671772Y-77458297D01*
X151516900Y-77394147D01*
X151377519Y-77301015D01*
X151258985Y-77182481D01*
X151165853Y-77043100D01*
X151101703Y-76888228D01*
X151069000Y-76723816D01*
X151069000Y-76556184D01*
X151101703Y-76391772D01*
X151165853Y-76236900D01*
X151258985Y-76097519D01*
X151377519Y-75978985D01*
X151516900Y-75885853D01*
X151671772Y-75821703D01*
X151836184Y-75789000D01*
X152003816Y-75789000D01*
X152168228Y-75821703D01*
G37*
G36*
X136928228Y-75821703D02*
G01*
X137083100Y-75885853D01*
X137222481Y-75978985D01*
X137341015Y-76097519D01*
X137434147Y-76236900D01*
X137498297Y-76391772D01*
X137531000Y-76556184D01*
X137531000Y-76723816D01*
X137498297Y-76888228D01*
X137434147Y-77043100D01*
X137341015Y-77182481D01*
X137222481Y-77301015D01*
X137083100Y-77394147D01*
X136928228Y-77458297D01*
X136763816Y-77491000D01*
X136596184Y-77491000D01*
X136431772Y-77458297D01*
X136276900Y-77394147D01*
X136137519Y-77301015D01*
X136018985Y-77182481D01*
X135925853Y-77043100D01*
X135861703Y-76888228D01*
X135829000Y-76723816D01*
X135829000Y-76556184D01*
X135861703Y-76391772D01*
X135925853Y-76236900D01*
X136018985Y-76097519D01*
X136137519Y-75978985D01*
X136276900Y-75885853D01*
X136431772Y-75821703D01*
X136596184Y-75789000D01*
X136763816Y-75789000D01*
X136928228Y-75821703D01*
G37*
G36*
X139979028Y-74500903D02*
G01*
X140133900Y-74565053D01*
X140273281Y-74658185D01*
X140391815Y-74776719D01*
X140484947Y-74916100D01*
X140549097Y-75070972D01*
X140581800Y-75235384D01*
X140581800Y-75403016D01*
X140549097Y-75567428D01*
X140484947Y-75722300D01*
X140391815Y-75861681D01*
X140273281Y-75980215D01*
X140133900Y-76073347D01*
X139979028Y-76137497D01*
X139814616Y-76170200D01*
X139646984Y-76170200D01*
X139482572Y-76137497D01*
X139327700Y-76073347D01*
X139188319Y-75980215D01*
X139069785Y-75861681D01*
X138976653Y-75722300D01*
X138912503Y-75567428D01*
X138879800Y-75403016D01*
X138879800Y-75235384D01*
X138912503Y-75070972D01*
X138976653Y-74916100D01*
X139069785Y-74776719D01*
X139188319Y-74658185D01*
X139327700Y-74565053D01*
X139482572Y-74500903D01*
X139646984Y-74468200D01*
X139814616Y-74468200D01*
X139979028Y-74500903D01*
G37*
G36*
X121312302Y-74629795D02*
G01*
X121382363Y-74658815D01*
X121445422Y-74700950D01*
X121499050Y-74754578D01*
X121541185Y-74817637D01*
X121570205Y-74887698D01*
X121585000Y-74962079D01*
X121585000Y-75037921D01*
X121570205Y-75112302D01*
X121541185Y-75182363D01*
X121499050Y-75245422D01*
X121445422Y-75299050D01*
X121382363Y-75341185D01*
X121312302Y-75370205D01*
X121237921Y-75385000D01*
X121162079Y-75385000D01*
X121087698Y-75370205D01*
X121017637Y-75341185D01*
X120954578Y-75299050D01*
X120900950Y-75245422D01*
X120858815Y-75182363D01*
X120829795Y-75112302D01*
X120815000Y-75037921D01*
X120815000Y-74962079D01*
X120829795Y-74887698D01*
X120858815Y-74817637D01*
X120900950Y-74754578D01*
X120954578Y-74700950D01*
X121017637Y-74658815D01*
X121087698Y-74629795D01*
X121162079Y-74615000D01*
X121237921Y-74615000D01*
X121312302Y-74629795D01*
G37*
G36*
X122612302Y-74629795D02*
G01*
X122682363Y-74658815D01*
X122745422Y-74700950D01*
X122799050Y-74754578D01*
X122841185Y-74817637D01*
X122870205Y-74887698D01*
X122885000Y-74962079D01*
X122885000Y-75037921D01*
X122870205Y-75112302D01*
X122841185Y-75182363D01*
X122799050Y-75245422D01*
X122745422Y-75299050D01*
X122682363Y-75341185D01*
X122612302Y-75370205D01*
X122537921Y-75385000D01*
X122462079Y-75385000D01*
X122387698Y-75370205D01*
X122317637Y-75341185D01*
X122254578Y-75299050D01*
X122200950Y-75245422D01*
X122158815Y-75182363D01*
X122129795Y-75112302D01*
X122115000Y-75037921D01*
X122115000Y-74962079D01*
X122129795Y-74887698D01*
X122158815Y-74817637D01*
X122200950Y-74754578D01*
X122254578Y-74700950D01*
X122317637Y-74658815D01*
X122387698Y-74629795D01*
X122462079Y-74615000D01*
X122537921Y-74615000D01*
X122612302Y-74629795D01*
G37*
G36*
X181644072Y-72650918D02*
G01*
X181807926Y-72718788D01*
X181889939Y-72752759D01*
X182111212Y-72900610D01*
X182299390Y-73088788D01*
X182428293Y-73281703D01*
X182447242Y-73310063D01*
X182549082Y-73555928D01*
X182601000Y-73816937D01*
X182601000Y-74083063D01*
X182549082Y-74344072D01*
X182457550Y-74565052D01*
X182447241Y-74589939D01*
X182299390Y-74811212D01*
X182111212Y-74999390D01*
X181889939Y-75147241D01*
X181889938Y-75147242D01*
X181889937Y-75147242D01*
X181644072Y-75249082D01*
X181383063Y-75301000D01*
X181116937Y-75301000D01*
X180855928Y-75249082D01*
X180610063Y-75147242D01*
X180610062Y-75147242D01*
X180610061Y-75147241D01*
X180388788Y-74999390D01*
X180200610Y-74811212D01*
X180052759Y-74589939D01*
X180042451Y-74565052D01*
X179950918Y-74344072D01*
X179899000Y-74083063D01*
X179899000Y-73816937D01*
X179950918Y-73555928D01*
X180052758Y-73310063D01*
X180071708Y-73281703D01*
X180200610Y-73088788D01*
X180388788Y-72900610D01*
X180610061Y-72752759D01*
X180692075Y-72718788D01*
X180855928Y-72650918D01*
X181116937Y-72599000D01*
X181383063Y-72599000D01*
X181644072Y-72650918D01*
G37*
G36*
X152168228Y-73281703D02*
G01*
X152323100Y-73345853D01*
X152462481Y-73438985D01*
X152581015Y-73557519D01*
X152674147Y-73696900D01*
X152738297Y-73851772D01*
X152771000Y-74016184D01*
X152771000Y-74183816D01*
X152738297Y-74348228D01*
X152674147Y-74503100D01*
X152581015Y-74642481D01*
X152462481Y-74761015D01*
X152323100Y-74854147D01*
X152168228Y-74918297D01*
X152003816Y-74951000D01*
X151836184Y-74951000D01*
X151671772Y-74918297D01*
X151516900Y-74854147D01*
X151377519Y-74761015D01*
X151258985Y-74642481D01*
X151165853Y-74503100D01*
X151101703Y-74348228D01*
X151069000Y-74183816D01*
X151069000Y-74016184D01*
X151101703Y-73851772D01*
X151165853Y-73696900D01*
X151258985Y-73557519D01*
X151377519Y-73438985D01*
X151516900Y-73345853D01*
X151671772Y-73281703D01*
X151836184Y-73249000D01*
X152003816Y-73249000D01*
X152168228Y-73281703D01*
G37*
G36*
X136928228Y-73281703D02*
G01*
X137083100Y-73345853D01*
X137222481Y-73438985D01*
X137341015Y-73557519D01*
X137434147Y-73696900D01*
X137498297Y-73851772D01*
X137531000Y-74016184D01*
X137531000Y-74183816D01*
X137498297Y-74348228D01*
X137434147Y-74503100D01*
X137341015Y-74642481D01*
X137222481Y-74761015D01*
X137083100Y-74854147D01*
X136928228Y-74918297D01*
X136763816Y-74951000D01*
X136596184Y-74951000D01*
X136431772Y-74918297D01*
X136276900Y-74854147D01*
X136137519Y-74761015D01*
X136018985Y-74642481D01*
X135925853Y-74503100D01*
X135861703Y-74348228D01*
X135829000Y-74183816D01*
X135829000Y-74016184D01*
X135861703Y-73851772D01*
X135925853Y-73696900D01*
X136018985Y-73557519D01*
X136137519Y-73438985D01*
X136276900Y-73345853D01*
X136431772Y-73281703D01*
X136596184Y-73249000D01*
X136763816Y-73249000D01*
X136928228Y-73281703D01*
G37*
G36*
X102144072Y-72280918D02*
G01*
X102389939Y-72382759D01*
X102432204Y-72411000D01*
X102611211Y-72530609D01*
X102799391Y-72718789D01*
X102947242Y-72940063D01*
X103049082Y-73185928D01*
X103101000Y-73446937D01*
X103101000Y-73713063D01*
X103081260Y-73812302D01*
X103049082Y-73974072D01*
X102947241Y-74219939D01*
X102799390Y-74441212D01*
X102611212Y-74629390D01*
X102389939Y-74777241D01*
X102389938Y-74777242D01*
X102389937Y-74777242D01*
X102144072Y-74879082D01*
X101883063Y-74931000D01*
X101616937Y-74931000D01*
X101355928Y-74879082D01*
X101110063Y-74777242D01*
X101110062Y-74777242D01*
X101110061Y-74777241D01*
X100888788Y-74629390D01*
X100700610Y-74441212D01*
X100552759Y-74219939D01*
X100450918Y-73974072D01*
X100418740Y-73812302D01*
X100399000Y-73713063D01*
X100399000Y-73446937D01*
X100450918Y-73185928D01*
X100552758Y-72940063D01*
X100700609Y-72718789D01*
X100888789Y-72530609D01*
X101067796Y-72411000D01*
X101110061Y-72382759D01*
X101355928Y-72280918D01*
X101616937Y-72229000D01*
X101883063Y-72229000D01*
X102144072Y-72280918D01*
G37*
G36*
X121312302Y-73329795D02*
G01*
X121382363Y-73358815D01*
X121445422Y-73400950D01*
X121499050Y-73454578D01*
X121541185Y-73517637D01*
X121570205Y-73587698D01*
X121585000Y-73662079D01*
X121585000Y-73737921D01*
X121570205Y-73812302D01*
X121541185Y-73882363D01*
X121499050Y-73945422D01*
X121445422Y-73999050D01*
X121382363Y-74041185D01*
X121312302Y-74070205D01*
X121237921Y-74085000D01*
X121162079Y-74085000D01*
X121087698Y-74070205D01*
X121017637Y-74041185D01*
X120954578Y-73999050D01*
X120900950Y-73945422D01*
X120858815Y-73882363D01*
X120829795Y-73812302D01*
X120815000Y-73737921D01*
X120815000Y-73662079D01*
X120829795Y-73587698D01*
X120858815Y-73517637D01*
X120900950Y-73454578D01*
X120954578Y-73400950D01*
X121017637Y-73358815D01*
X121087698Y-73329795D01*
X121162079Y-73315000D01*
X121237921Y-73315000D01*
X121312302Y-73329795D01*
G37*
G36*
X122612302Y-73329795D02*
G01*
X122682363Y-73358815D01*
X122745422Y-73400950D01*
X122799050Y-73454578D01*
X122841185Y-73517637D01*
X122870205Y-73587698D01*
X122885000Y-73662079D01*
X122885000Y-73737921D01*
X122870205Y-73812302D01*
X122841185Y-73882363D01*
X122799050Y-73945422D01*
X122745422Y-73999050D01*
X122682363Y-74041185D01*
X122612302Y-74070205D01*
X122537921Y-74085000D01*
X122462079Y-74085000D01*
X122387698Y-74070205D01*
X122317637Y-74041185D01*
X122254578Y-73999050D01*
X122200950Y-73945422D01*
X122158815Y-73882363D01*
X122129795Y-73812302D01*
X122115000Y-73737921D01*
X122115000Y-73662079D01*
X122129795Y-73587698D01*
X122158815Y-73517637D01*
X122200950Y-73454578D01*
X122254578Y-73400950D01*
X122317637Y-73358815D01*
X122387698Y-73329795D01*
X122462079Y-73315000D01*
X122537921Y-73315000D01*
X122612302Y-73329795D01*
G37*
G36*
X139979028Y-71960903D02*
G01*
X140133900Y-72025053D01*
X140273281Y-72118185D01*
X140391815Y-72236719D01*
X140484947Y-72376100D01*
X140549097Y-72530972D01*
X140581800Y-72695384D01*
X140581800Y-72863016D01*
X140549097Y-73027428D01*
X140484947Y-73182300D01*
X140391815Y-73321681D01*
X140273281Y-73440215D01*
X140133900Y-73533347D01*
X139979028Y-73597497D01*
X139814616Y-73630200D01*
X139646984Y-73630200D01*
X139482572Y-73597497D01*
X139327700Y-73533347D01*
X139188319Y-73440215D01*
X139069785Y-73321681D01*
X138976653Y-73182300D01*
X138912503Y-73027428D01*
X138879800Y-72863016D01*
X138879800Y-72695384D01*
X138912503Y-72530972D01*
X138976653Y-72376100D01*
X139069785Y-72236719D01*
X139188319Y-72118185D01*
X139327700Y-72025053D01*
X139482572Y-71960903D01*
X139646984Y-71928200D01*
X139814616Y-71928200D01*
X139979028Y-71960903D01*
G37*
G36*
X121312302Y-72029795D02*
G01*
X121382363Y-72058815D01*
X121445422Y-72100950D01*
X121499050Y-72154578D01*
X121541185Y-72217637D01*
X121570205Y-72287698D01*
X121585000Y-72362079D01*
X121585000Y-72437921D01*
X121570205Y-72512302D01*
X121541185Y-72582363D01*
X121499050Y-72645422D01*
X121445422Y-72699050D01*
X121382363Y-72741185D01*
X121312302Y-72770205D01*
X121237921Y-72785000D01*
X121162079Y-72785000D01*
X121087698Y-72770205D01*
X121017637Y-72741185D01*
X120954578Y-72699050D01*
X120900950Y-72645422D01*
X120858815Y-72582363D01*
X120829795Y-72512302D01*
X120815000Y-72437921D01*
X120815000Y-72362079D01*
X120829795Y-72287698D01*
X120858815Y-72217637D01*
X120900950Y-72154578D01*
X120954578Y-72100950D01*
X121017637Y-72058815D01*
X121087698Y-72029795D01*
X121162079Y-72015000D01*
X121237921Y-72015000D01*
X121312302Y-72029795D01*
G37*
G36*
X122612302Y-72029795D02*
G01*
X122682363Y-72058815D01*
X122745422Y-72100950D01*
X122799050Y-72154578D01*
X122841185Y-72217637D01*
X122870205Y-72287698D01*
X122885000Y-72362079D01*
X122885000Y-72437921D01*
X122870205Y-72512302D01*
X122841185Y-72582363D01*
X122799050Y-72645422D01*
X122745422Y-72699050D01*
X122682363Y-72741185D01*
X122612302Y-72770205D01*
X122537921Y-72785000D01*
X122462079Y-72785000D01*
X122387698Y-72770205D01*
X122317637Y-72741185D01*
X122254578Y-72699050D01*
X122200950Y-72645422D01*
X122158815Y-72582363D01*
X122129795Y-72512302D01*
X122115000Y-72437921D01*
X122115000Y-72362079D01*
X122129795Y-72287698D01*
X122158815Y-72217637D01*
X122200950Y-72154578D01*
X122254578Y-72100950D01*
X122317637Y-72058815D01*
X122387698Y-72029795D01*
X122462079Y-72015000D01*
X122537921Y-72015000D01*
X122612302Y-72029795D01*
G37*
G36*
X136928228Y-70741703D02*
G01*
X137083100Y-70805853D01*
X137222481Y-70898985D01*
X137341015Y-71017519D01*
X137434147Y-71156900D01*
X137498297Y-71311772D01*
X137531000Y-71476184D01*
X137531000Y-71643816D01*
X137498297Y-71808228D01*
X137434147Y-71963100D01*
X137341015Y-72102481D01*
X137222481Y-72221015D01*
X137083100Y-72314147D01*
X136928228Y-72378297D01*
X136763816Y-72411000D01*
X136596184Y-72411000D01*
X136431772Y-72378297D01*
X136276900Y-72314147D01*
X136137519Y-72221015D01*
X136018985Y-72102481D01*
X135925853Y-71963100D01*
X135861703Y-71808228D01*
X135829000Y-71643816D01*
X135829000Y-71476184D01*
X135861703Y-71311772D01*
X135925853Y-71156900D01*
X136018985Y-71017519D01*
X136137519Y-70898985D01*
X136276900Y-70805853D01*
X136431772Y-70741703D01*
X136596184Y-70709000D01*
X136763816Y-70709000D01*
X136928228Y-70741703D01*
G37*
G36*
X152168228Y-70741703D02*
G01*
X152323100Y-70805853D01*
X152462481Y-70898985D01*
X152581015Y-71017519D01*
X152674147Y-71156900D01*
X152738297Y-71311772D01*
X152771000Y-71476184D01*
X152771000Y-71643816D01*
X152738297Y-71808228D01*
X152674147Y-71963100D01*
X152581015Y-72102481D01*
X152462481Y-72221015D01*
X152323100Y-72314147D01*
X152168228Y-72378297D01*
X152003816Y-72411000D01*
X151836184Y-72411000D01*
X151671772Y-72378297D01*
X151516900Y-72314147D01*
X151377519Y-72221015D01*
X151258985Y-72102481D01*
X151165853Y-71963100D01*
X151101703Y-71808228D01*
X151069000Y-71643816D01*
X151069000Y-71476184D01*
X151101703Y-71311772D01*
X151165853Y-71156900D01*
X151258985Y-71017519D01*
X151377519Y-70898985D01*
X151516900Y-70805853D01*
X151671772Y-70741703D01*
X151836184Y-70709000D01*
X152003816Y-70709000D01*
X152168228Y-70741703D01*
G37*
G36*
X140581800Y-71090200D02*
G01*
X138879800Y-71090200D01*
X138879800Y-69388200D01*
X140581800Y-69388200D01*
X140581800Y-71090200D01*
G37*
G36*
X181644072Y-67570918D02*
G01*
X181889939Y-67672759D01*
X182111212Y-67820610D01*
X182299390Y-68008788D01*
X182428293Y-68201703D01*
X182447242Y-68230063D01*
X182500643Y-68358985D01*
X182549082Y-68475928D01*
X182601000Y-68736938D01*
X182601000Y-69003062D01*
X182549082Y-69264072D01*
X182447241Y-69509939D01*
X182299390Y-69731212D01*
X182111212Y-69919390D01*
X181889939Y-70067241D01*
X181889938Y-70067242D01*
X181889937Y-70067242D01*
X181644072Y-70169082D01*
X181383063Y-70221000D01*
X181116937Y-70221000D01*
X180855928Y-70169082D01*
X180610063Y-70067242D01*
X180610062Y-70067242D01*
X180610061Y-70067241D01*
X180388788Y-69919390D01*
X180200610Y-69731212D01*
X180052759Y-69509939D01*
X179950918Y-69264072D01*
X179899000Y-69003062D01*
X179899000Y-68736938D01*
X179950918Y-68475928D01*
X179999357Y-68358985D01*
X180052758Y-68230063D01*
X180071708Y-68201703D01*
X180200610Y-68008788D01*
X180388788Y-67820610D01*
X180610061Y-67672759D01*
X180855928Y-67570918D01*
X181116937Y-67519000D01*
X181383063Y-67519000D01*
X181644072Y-67570918D01*
G37*
G36*
X136928228Y-68201703D02*
G01*
X137083100Y-68265853D01*
X137222481Y-68358985D01*
X137341015Y-68477519D01*
X137434147Y-68616900D01*
X137498297Y-68771772D01*
X137531000Y-68936184D01*
X137531000Y-69103816D01*
X137498297Y-69268228D01*
X137434147Y-69423100D01*
X137341015Y-69562481D01*
X137222481Y-69681015D01*
X137083100Y-69774147D01*
X136928228Y-69838297D01*
X136763816Y-69871000D01*
X136596184Y-69871000D01*
X136431772Y-69838297D01*
X136276900Y-69774147D01*
X136137519Y-69681015D01*
X136018985Y-69562481D01*
X135925853Y-69423100D01*
X135861703Y-69268228D01*
X135829000Y-69103816D01*
X135829000Y-68936184D01*
X135861703Y-68771772D01*
X135925853Y-68616900D01*
X136018985Y-68477519D01*
X136137519Y-68358985D01*
X136276900Y-68265853D01*
X136431772Y-68201703D01*
X136596184Y-68169000D01*
X136763816Y-68169000D01*
X136928228Y-68201703D01*
G37*
G36*
X152168228Y-68201703D02*
G01*
X152323100Y-68265853D01*
X152462481Y-68358985D01*
X152581015Y-68477519D01*
X152674147Y-68616900D01*
X152738297Y-68771772D01*
X152771000Y-68936184D01*
X152771000Y-69103816D01*
X152738297Y-69268228D01*
X152674147Y-69423100D01*
X152581015Y-69562481D01*
X152462481Y-69681015D01*
X152323100Y-69774147D01*
X152168228Y-69838297D01*
X152003816Y-69871000D01*
X151836184Y-69871000D01*
X151671772Y-69838297D01*
X151516900Y-69774147D01*
X151377519Y-69681015D01*
X151258985Y-69562481D01*
X151165853Y-69423100D01*
X151101703Y-69268228D01*
X151069000Y-69103816D01*
X151069000Y-68936184D01*
X151101703Y-68771772D01*
X151165853Y-68616900D01*
X151258985Y-68477519D01*
X151377519Y-68358985D01*
X151516900Y-68265853D01*
X151671772Y-68201703D01*
X151836184Y-68169000D01*
X152003816Y-68169000D01*
X152168228Y-68201703D01*
G37*
G36*
X103101000Y-69851000D02*
G01*
X100399000Y-69851000D01*
X100399000Y-67149000D01*
X103101000Y-67149000D01*
X103101000Y-69851000D01*
G37*
G36*
X149628228Y-65661703D02*
G01*
X149783100Y-65725853D01*
X149922481Y-65818985D01*
X150041015Y-65937519D01*
X150134147Y-66076900D01*
X150198297Y-66231772D01*
X150231000Y-66396184D01*
X150231000Y-66563816D01*
X150198297Y-66728228D01*
X150134147Y-66883100D01*
X150041015Y-67022481D01*
X149922481Y-67141015D01*
X149783100Y-67234147D01*
X149628228Y-67298297D01*
X149463816Y-67331000D01*
X149296184Y-67331000D01*
X149131772Y-67298297D01*
X148976900Y-67234147D01*
X148837519Y-67141015D01*
X148718985Y-67022481D01*
X148625853Y-66883100D01*
X148561703Y-66728228D01*
X148529000Y-66563816D01*
X148529000Y-66396184D01*
X148561703Y-66231772D01*
X148625853Y-66076900D01*
X148718985Y-65937519D01*
X148837519Y-65818985D01*
X148976900Y-65725853D01*
X149131772Y-65661703D01*
X149296184Y-65629000D01*
X149463816Y-65629000D01*
X149628228Y-65661703D01*
G37*
G36*
X152168228Y-65661703D02*
G01*
X152323100Y-65725853D01*
X152462481Y-65818985D01*
X152581015Y-65937519D01*
X152674147Y-66076900D01*
X152738297Y-66231772D01*
X152771000Y-66396184D01*
X152771000Y-66563816D01*
X152738297Y-66728228D01*
X152674147Y-66883100D01*
X152581015Y-67022481D01*
X152462481Y-67141015D01*
X152323100Y-67234147D01*
X152168228Y-67298297D01*
X152003816Y-67331000D01*
X151836184Y-67331000D01*
X151671772Y-67298297D01*
X151516900Y-67234147D01*
X151377519Y-67141015D01*
X151258985Y-67022481D01*
X151165853Y-66883100D01*
X151101703Y-66728228D01*
X151069000Y-66563816D01*
X151069000Y-66396184D01*
X151101703Y-66231772D01*
X151165853Y-66076900D01*
X151258985Y-65937519D01*
X151377519Y-65818985D01*
X151516900Y-65725853D01*
X151671772Y-65661703D01*
X151836184Y-65629000D01*
X152003816Y-65629000D01*
X152168228Y-65661703D01*
G37*
G36*
X136928228Y-65661703D02*
G01*
X137083100Y-65725853D01*
X137222481Y-65818985D01*
X137341015Y-65937519D01*
X137434147Y-66076900D01*
X137498297Y-66231772D01*
X137531000Y-66396184D01*
X137531000Y-66563816D01*
X137498297Y-66728228D01*
X137434147Y-66883100D01*
X137341015Y-67022481D01*
X137222481Y-67141015D01*
X137083100Y-67234147D01*
X136928228Y-67298297D01*
X136763816Y-67331000D01*
X136596184Y-67331000D01*
X136431772Y-67298297D01*
X136276900Y-67234147D01*
X136137519Y-67141015D01*
X136018985Y-67022481D01*
X135925853Y-66883100D01*
X135861703Y-66728228D01*
X135829000Y-66563816D01*
X135829000Y-66396184D01*
X135861703Y-66231772D01*
X135925853Y-66076900D01*
X136018985Y-65937519D01*
X136137519Y-65818985D01*
X136276900Y-65725853D01*
X136431772Y-65661703D01*
X136596184Y-65629000D01*
X136763816Y-65629000D01*
X136928228Y-65661703D01*
G37*
G36*
X164812302Y-66529795D02*
G01*
X164882363Y-66558815D01*
X164945422Y-66600950D01*
X164999050Y-66654578D01*
X165041185Y-66717637D01*
X165070205Y-66787698D01*
X165085000Y-66862079D01*
X165085000Y-66937921D01*
X165070205Y-67012302D01*
X165041185Y-67082363D01*
X164999050Y-67145422D01*
X164945422Y-67199050D01*
X164882363Y-67241185D01*
X164812302Y-67270205D01*
X164737921Y-67285000D01*
X164662079Y-67285000D01*
X164587698Y-67270205D01*
X164517637Y-67241185D01*
X164454578Y-67199050D01*
X164400950Y-67145422D01*
X164358815Y-67082363D01*
X164329795Y-67012302D01*
X164315000Y-66937921D01*
X164315000Y-66862079D01*
X164329795Y-66787698D01*
X164358815Y-66717637D01*
X164400950Y-66654578D01*
X164454578Y-66600950D01*
X164517637Y-66558815D01*
X164587698Y-66529795D01*
X164662079Y-66515000D01*
X164737921Y-66515000D01*
X164812302Y-66529795D01*
G37*
G36*
X163512302Y-66529795D02*
G01*
X163582363Y-66558815D01*
X163645422Y-66600950D01*
X163699050Y-66654578D01*
X163741185Y-66717637D01*
X163770205Y-66787698D01*
X163785000Y-66862079D01*
X163785000Y-66937921D01*
X163770205Y-67012302D01*
X163741185Y-67082363D01*
X163699050Y-67145422D01*
X163645422Y-67199050D01*
X163582363Y-67241185D01*
X163512302Y-67270205D01*
X163437921Y-67285000D01*
X163362079Y-67285000D01*
X163287698Y-67270205D01*
X163217637Y-67241185D01*
X163154578Y-67199050D01*
X163100950Y-67145422D01*
X163058815Y-67082363D01*
X163029795Y-67012302D01*
X163015000Y-66937921D01*
X163015000Y-66862079D01*
X163029795Y-66787698D01*
X163058815Y-66717637D01*
X163100950Y-66654578D01*
X163154578Y-66600950D01*
X163217637Y-66558815D01*
X163287698Y-66529795D01*
X163362079Y-66515000D01*
X163437921Y-66515000D01*
X163512302Y-66529795D01*
G37*
G36*
X164812302Y-65229795D02*
G01*
X164882363Y-65258815D01*
X164945422Y-65300950D01*
X164999050Y-65354578D01*
X165041185Y-65417637D01*
X165070205Y-65487698D01*
X165085000Y-65562079D01*
X165085000Y-65637921D01*
X165070205Y-65712302D01*
X165041185Y-65782363D01*
X164999050Y-65845422D01*
X164945422Y-65899050D01*
X164882363Y-65941185D01*
X164812302Y-65970205D01*
X164737921Y-65985000D01*
X164662079Y-65985000D01*
X164587698Y-65970205D01*
X164517637Y-65941185D01*
X164454578Y-65899050D01*
X164400950Y-65845422D01*
X164358815Y-65782363D01*
X164329795Y-65712302D01*
X164315000Y-65637921D01*
X164315000Y-65562079D01*
X164329795Y-65487698D01*
X164358815Y-65417637D01*
X164400950Y-65354578D01*
X164454578Y-65300950D01*
X164517637Y-65258815D01*
X164587698Y-65229795D01*
X164662079Y-65215000D01*
X164737921Y-65215000D01*
X164812302Y-65229795D01*
G37*
G36*
X163512302Y-65229795D02*
G01*
X163582363Y-65258815D01*
X163645422Y-65300950D01*
X163699050Y-65354578D01*
X163741185Y-65417637D01*
X163770205Y-65487698D01*
X163785000Y-65562079D01*
X163785000Y-65637921D01*
X163770205Y-65712302D01*
X163741185Y-65782363D01*
X163699050Y-65845422D01*
X163645422Y-65899050D01*
X163582363Y-65941185D01*
X163512302Y-65970205D01*
X163437921Y-65985000D01*
X163362079Y-65985000D01*
X163287698Y-65970205D01*
X163217637Y-65941185D01*
X163154578Y-65899050D01*
X163100950Y-65845422D01*
X163058815Y-65782363D01*
X163029795Y-65712302D01*
X163015000Y-65637921D01*
X163015000Y-65562079D01*
X163029795Y-65487698D01*
X163058815Y-65417637D01*
X163100950Y-65354578D01*
X163154578Y-65300950D01*
X163217637Y-65258815D01*
X163287698Y-65229795D01*
X163362079Y-65215000D01*
X163437921Y-65215000D01*
X163512302Y-65229795D01*
G37*
G36*
X143234473Y-63995938D02*
G01*
X143362049Y-64048782D01*
X143476859Y-64125495D01*
X143574505Y-64223141D01*
X143651218Y-64337951D01*
X143704062Y-64465527D01*
X143731000Y-64600956D01*
X143731000Y-64739044D01*
X143704062Y-64874473D01*
X143651218Y-65002049D01*
X143574505Y-65116859D01*
X143476859Y-65214505D01*
X143362049Y-65291218D01*
X143234473Y-65344062D01*
X143099044Y-65371000D01*
X142960956Y-65371000D01*
X142825527Y-65344062D01*
X142697951Y-65291218D01*
X142583141Y-65214505D01*
X142485495Y-65116859D01*
X142408782Y-65002049D01*
X142355938Y-64874473D01*
X142329000Y-64739044D01*
X142329000Y-64600956D01*
X142355938Y-64465527D01*
X142408782Y-64337951D01*
X142485495Y-64223141D01*
X142583141Y-64125495D01*
X142697951Y-64048782D01*
X142825527Y-63995938D01*
X142960956Y-63969000D01*
X143099044Y-63969000D01*
X143234473Y-63995938D01*
G37*
G36*
X145774473Y-63995938D02*
G01*
X145902049Y-64048782D01*
X146016859Y-64125495D01*
X146114505Y-64223141D01*
X146191218Y-64337951D01*
X146244062Y-64465527D01*
X146271000Y-64600956D01*
X146271000Y-64739044D01*
X146244062Y-64874473D01*
X146191218Y-65002049D01*
X146114505Y-65116859D01*
X146016859Y-65214505D01*
X145902049Y-65291218D01*
X145774473Y-65344062D01*
X145639044Y-65371000D01*
X145500956Y-65371000D01*
X145365527Y-65344062D01*
X145237951Y-65291218D01*
X145123141Y-65214505D01*
X145025495Y-65116859D01*
X144948782Y-65002049D01*
X144895938Y-64874473D01*
X144869000Y-64739044D01*
X144869000Y-64600956D01*
X144895938Y-64465527D01*
X144948782Y-64337951D01*
X145025495Y-64223141D01*
X145123141Y-64125495D01*
X145237951Y-64048782D01*
X145365527Y-63995938D01*
X145500956Y-63969000D01*
X145639044Y-63969000D01*
X145774473Y-63995938D01*
G37*
G36*
X152168228Y-63121703D02*
G01*
X152323100Y-63185853D01*
X152462481Y-63278985D01*
X152581015Y-63397519D01*
X152674147Y-63536900D01*
X152738297Y-63691772D01*
X152771000Y-63856184D01*
X152771000Y-64023816D01*
X152738297Y-64188228D01*
X152674147Y-64343100D01*
X152581015Y-64482481D01*
X152462481Y-64601015D01*
X152323100Y-64694147D01*
X152168228Y-64758297D01*
X152003816Y-64791000D01*
X151836184Y-64791000D01*
X151671772Y-64758297D01*
X151516900Y-64694147D01*
X151377519Y-64601015D01*
X151258985Y-64482481D01*
X151165853Y-64343100D01*
X151101703Y-64188228D01*
X151069000Y-64023816D01*
X151069000Y-63856184D01*
X151101703Y-63691772D01*
X151165853Y-63536900D01*
X151258985Y-63397519D01*
X151377519Y-63278985D01*
X151516900Y-63185853D01*
X151671772Y-63121703D01*
X151836184Y-63089000D01*
X152003816Y-63089000D01*
X152168228Y-63121703D01*
G37*
G36*
X137531000Y-64791000D02*
G01*
X135829000Y-64791000D01*
X135829000Y-63089000D01*
X137531000Y-63089000D01*
X137531000Y-64791000D01*
G37*
G36*
X164812302Y-63929795D02*
G01*
X164882363Y-63958815D01*
X164945422Y-64000950D01*
X164999050Y-64054578D01*
X165041185Y-64117637D01*
X165070205Y-64187698D01*
X165085000Y-64262079D01*
X165085000Y-64337921D01*
X165070205Y-64412302D01*
X165041185Y-64482363D01*
X164999050Y-64545422D01*
X164945422Y-64599050D01*
X164882363Y-64641185D01*
X164812302Y-64670205D01*
X164737921Y-64685000D01*
X164662079Y-64685000D01*
X164587698Y-64670205D01*
X164517637Y-64641185D01*
X164454578Y-64599050D01*
X164400950Y-64545422D01*
X164358815Y-64482363D01*
X164329795Y-64412302D01*
X164315000Y-64337921D01*
X164315000Y-64262079D01*
X164329795Y-64187698D01*
X164358815Y-64117637D01*
X164400950Y-64054578D01*
X164454578Y-64000950D01*
X164517637Y-63958815D01*
X164587698Y-63929795D01*
X164662079Y-63915000D01*
X164737921Y-63915000D01*
X164812302Y-63929795D01*
G37*
G36*
X163512302Y-63929795D02*
G01*
X163582363Y-63958815D01*
X163645422Y-64000950D01*
X163699050Y-64054578D01*
X163741185Y-64117637D01*
X163770205Y-64187698D01*
X163785000Y-64262079D01*
X163785000Y-64337921D01*
X163770205Y-64412302D01*
X163741185Y-64482363D01*
X163699050Y-64545422D01*
X163645422Y-64599050D01*
X163582363Y-64641185D01*
X163512302Y-64670205D01*
X163437921Y-64685000D01*
X163362079Y-64685000D01*
X163287698Y-64670205D01*
X163217637Y-64641185D01*
X163154578Y-64599050D01*
X163100950Y-64545422D01*
X163058815Y-64482363D01*
X163029795Y-64412302D01*
X163015000Y-64337921D01*
X163015000Y-64262079D01*
X163029795Y-64187698D01*
X163058815Y-64117637D01*
X163100950Y-64054578D01*
X163154578Y-64000950D01*
X163217637Y-63958815D01*
X163287698Y-63929795D01*
X163362079Y-63915000D01*
X163437921Y-63915000D01*
X163512302Y-63929795D01*
G37*
G36*
X174412302Y-58679795D02*
G01*
X174482363Y-58708815D01*
X174545422Y-58750950D01*
X174599050Y-58804578D01*
X174641185Y-58867637D01*
X174670205Y-58937698D01*
X174685000Y-59012079D01*
X174685000Y-59087921D01*
X174670205Y-59162302D01*
X174641185Y-59232363D01*
X174599050Y-59295422D01*
X174545422Y-59349050D01*
X174482363Y-59391185D01*
X174412302Y-59420205D01*
X174337921Y-59435000D01*
X174262079Y-59435000D01*
X174187698Y-59420205D01*
X174117637Y-59391185D01*
X174054578Y-59349050D01*
X174000950Y-59295422D01*
X173958815Y-59232363D01*
X173929795Y-59162302D01*
X173915000Y-59087921D01*
X173915000Y-59012079D01*
X173929795Y-58937698D01*
X173958815Y-58867637D01*
X174000950Y-58804578D01*
X174054578Y-58750950D01*
X174117637Y-58708815D01*
X174187698Y-58679795D01*
X174262079Y-58665000D01*
X174337921Y-58665000D01*
X174412302Y-58679795D01*
G37*
G36*
X177012302Y-58679795D02*
G01*
X177082363Y-58708815D01*
X177145422Y-58750950D01*
X177199050Y-58804578D01*
X177241185Y-58867637D01*
X177270205Y-58937698D01*
X177285000Y-59012079D01*
X177285000Y-59087921D01*
X177270205Y-59162302D01*
X177241185Y-59232363D01*
X177199050Y-59295422D01*
X177145422Y-59349050D01*
X177082363Y-59391185D01*
X177012302Y-59420205D01*
X176937921Y-59435000D01*
X176862079Y-59435000D01*
X176787698Y-59420205D01*
X176717637Y-59391185D01*
X176654578Y-59349050D01*
X176600950Y-59295422D01*
X176558815Y-59232363D01*
X176529795Y-59162302D01*
X176515000Y-59087921D01*
X176515000Y-59012079D01*
X176529795Y-58937698D01*
X176558815Y-58867637D01*
X176600950Y-58804578D01*
X176654578Y-58750950D01*
X176717637Y-58708815D01*
X176787698Y-58679795D01*
X176862079Y-58665000D01*
X176937921Y-58665000D01*
X177012302Y-58679795D01*
G37*
G36*
X175712302Y-58679795D02*
G01*
X175782363Y-58708815D01*
X175845422Y-58750950D01*
X175899050Y-58804578D01*
X175941185Y-58867637D01*
X175970205Y-58937698D01*
X175985000Y-59012079D01*
X175985000Y-59087921D01*
X175970205Y-59162302D01*
X175941185Y-59232363D01*
X175899050Y-59295422D01*
X175845422Y-59349050D01*
X175782363Y-59391185D01*
X175712302Y-59420205D01*
X175637921Y-59435000D01*
X175562079Y-59435000D01*
X175487698Y-59420205D01*
X175417637Y-59391185D01*
X175354578Y-59349050D01*
X175300950Y-59295422D01*
X175258815Y-59232363D01*
X175229795Y-59162302D01*
X175215000Y-59087921D01*
X175215000Y-59012079D01*
X175229795Y-58937698D01*
X175258815Y-58867637D01*
X175300950Y-58804578D01*
X175354578Y-58750950D01*
X175417637Y-58708815D01*
X175487698Y-58679795D01*
X175562079Y-58665000D01*
X175637921Y-58665000D01*
X175712302Y-58679795D01*
G37*
G36*
X114562302Y-58379795D02*
G01*
X114632363Y-58408815D01*
X114695422Y-58450950D01*
X114749050Y-58504578D01*
X114791185Y-58567637D01*
X114820205Y-58637698D01*
X114835000Y-58712079D01*
X114835000Y-58787921D01*
X114820205Y-58862302D01*
X114791185Y-58932363D01*
X114749050Y-58995422D01*
X114695422Y-59049050D01*
X114632363Y-59091185D01*
X114562302Y-59120205D01*
X114487921Y-59135000D01*
X114412079Y-59135000D01*
X114337698Y-59120205D01*
X114267637Y-59091185D01*
X114204578Y-59049050D01*
X114150950Y-58995422D01*
X114108815Y-58932363D01*
X114079795Y-58862302D01*
X114065000Y-58787921D01*
X114065000Y-58712079D01*
X114079795Y-58637698D01*
X114108815Y-58567637D01*
X114150950Y-58504578D01*
X114204578Y-58450950D01*
X114267637Y-58408815D01*
X114337698Y-58379795D01*
X114412079Y-58365000D01*
X114487921Y-58365000D01*
X114562302Y-58379795D01*
G37*
G36*
X115862302Y-58379795D02*
G01*
X115932363Y-58408815D01*
X115995422Y-58450950D01*
X116049050Y-58504578D01*
X116091185Y-58567637D01*
X116120205Y-58637698D01*
X116135000Y-58712079D01*
X116135000Y-58787921D01*
X116120205Y-58862302D01*
X116091185Y-58932363D01*
X116049050Y-58995422D01*
X115995422Y-59049050D01*
X115932363Y-59091185D01*
X115862302Y-59120205D01*
X115787921Y-59135000D01*
X115712079Y-59135000D01*
X115637698Y-59120205D01*
X115567637Y-59091185D01*
X115504578Y-59049050D01*
X115450950Y-58995422D01*
X115408815Y-58932363D01*
X115379795Y-58862302D01*
X115365000Y-58787921D01*
X115365000Y-58712079D01*
X115379795Y-58637698D01*
X115408815Y-58567637D01*
X115450950Y-58504578D01*
X115504578Y-58450950D01*
X115567637Y-58408815D01*
X115637698Y-58379795D01*
X115712079Y-58365000D01*
X115787921Y-58365000D01*
X115862302Y-58379795D01*
G37*
G36*
X174412302Y-57379795D02*
G01*
X174482363Y-57408815D01*
X174545422Y-57450950D01*
X174599050Y-57504578D01*
X174641185Y-57567637D01*
X174670205Y-57637698D01*
X174685000Y-57712079D01*
X174685000Y-57787921D01*
X174670205Y-57862302D01*
X174641185Y-57932363D01*
X174599050Y-57995422D01*
X174545422Y-58049050D01*
X174482363Y-58091185D01*
X174412302Y-58120205D01*
X174337921Y-58135000D01*
X174262079Y-58135000D01*
X174187698Y-58120205D01*
X174117637Y-58091185D01*
X174054578Y-58049050D01*
X174000950Y-57995422D01*
X173958815Y-57932363D01*
X173929795Y-57862302D01*
X173915000Y-57787921D01*
X173915000Y-57712079D01*
X173929795Y-57637698D01*
X173958815Y-57567637D01*
X174000950Y-57504578D01*
X174054578Y-57450950D01*
X174117637Y-57408815D01*
X174187698Y-57379795D01*
X174262079Y-57365000D01*
X174337921Y-57365000D01*
X174412302Y-57379795D01*
G37*
G36*
X175712302Y-57379795D02*
G01*
X175782363Y-57408815D01*
X175845422Y-57450950D01*
X175899050Y-57504578D01*
X175941185Y-57567637D01*
X175970205Y-57637698D01*
X175985000Y-57712079D01*
X175985000Y-57787921D01*
X175970205Y-57862302D01*
X175941185Y-57932363D01*
X175899050Y-57995422D01*
X175845422Y-58049050D01*
X175782363Y-58091185D01*
X175712302Y-58120205D01*
X175637921Y-58135000D01*
X175562079Y-58135000D01*
X175487698Y-58120205D01*
X175417637Y-58091185D01*
X175354578Y-58049050D01*
X175300950Y-57995422D01*
X175258815Y-57932363D01*
X175229795Y-57862302D01*
X175215000Y-57787921D01*
X175215000Y-57712079D01*
X175229795Y-57637698D01*
X175258815Y-57567637D01*
X175300950Y-57504578D01*
X175354578Y-57450950D01*
X175417637Y-57408815D01*
X175487698Y-57379795D01*
X175562079Y-57365000D01*
X175637921Y-57365000D01*
X175712302Y-57379795D01*
G37*
G36*
X177012302Y-57379795D02*
G01*
X177082363Y-57408815D01*
X177145422Y-57450950D01*
X177199050Y-57504578D01*
X177241185Y-57567637D01*
X177270205Y-57637698D01*
X177285000Y-57712079D01*
X177285000Y-57787921D01*
X177270205Y-57862302D01*
X177241185Y-57932363D01*
X177199050Y-57995422D01*
X177145422Y-58049050D01*
X177082363Y-58091185D01*
X177012302Y-58120205D01*
X176937921Y-58135000D01*
X176862079Y-58135000D01*
X176787698Y-58120205D01*
X176717637Y-58091185D01*
X176654578Y-58049050D01*
X176600950Y-57995422D01*
X176558815Y-57932363D01*
X176529795Y-57862302D01*
X176515000Y-57787921D01*
X176515000Y-57712079D01*
X176529795Y-57637698D01*
X176558815Y-57567637D01*
X176600950Y-57504578D01*
X176654578Y-57450950D01*
X176717637Y-57408815D01*
X176787698Y-57379795D01*
X176862079Y-57365000D01*
X176937921Y-57365000D01*
X177012302Y-57379795D01*
G37*
G36*
X114562302Y-57079795D02*
G01*
X114632363Y-57108815D01*
X114695422Y-57150950D01*
X114749050Y-57204578D01*
X114791185Y-57267637D01*
X114820205Y-57337698D01*
X114835000Y-57412079D01*
X114835000Y-57487921D01*
X114820205Y-57562302D01*
X114791185Y-57632363D01*
X114749050Y-57695422D01*
X114695422Y-57749050D01*
X114632363Y-57791185D01*
X114562302Y-57820205D01*
X114487921Y-57835000D01*
X114412079Y-57835000D01*
X114337698Y-57820205D01*
X114267637Y-57791185D01*
X114204578Y-57749050D01*
X114150950Y-57695422D01*
X114108815Y-57632363D01*
X114079795Y-57562302D01*
X114065000Y-57487921D01*
X114065000Y-57412079D01*
X114079795Y-57337698D01*
X114108815Y-57267637D01*
X114150950Y-57204578D01*
X114204578Y-57150950D01*
X114267637Y-57108815D01*
X114337698Y-57079795D01*
X114412079Y-57065000D01*
X114487921Y-57065000D01*
X114562302Y-57079795D01*
G37*
G36*
X115862302Y-57079795D02*
G01*
X115932363Y-57108815D01*
X115995422Y-57150950D01*
X116049050Y-57204578D01*
X116091185Y-57267637D01*
X116120205Y-57337698D01*
X116135000Y-57412079D01*
X116135000Y-57487921D01*
X116120205Y-57562302D01*
X116091185Y-57632363D01*
X116049050Y-57695422D01*
X115995422Y-57749050D01*
X115932363Y-57791185D01*
X115862302Y-57820205D01*
X115787921Y-57835000D01*
X115712079Y-57835000D01*
X115637698Y-57820205D01*
X115567637Y-57791185D01*
X115504578Y-57749050D01*
X115450950Y-57695422D01*
X115408815Y-57632363D01*
X115379795Y-57562302D01*
X115365000Y-57487921D01*
X115365000Y-57412079D01*
X115379795Y-57337698D01*
X115408815Y-57267637D01*
X115450950Y-57204578D01*
X115504578Y-57150950D01*
X115567637Y-57108815D01*
X115637698Y-57079795D01*
X115712079Y-57065000D01*
X115787921Y-57065000D01*
X115862302Y-57079795D01*
G37*
G36*
X114562302Y-55779795D02*
G01*
X114632363Y-55808815D01*
X114695422Y-55850950D01*
X114749050Y-55904578D01*
X114791185Y-55967637D01*
X114820205Y-56037698D01*
X114835000Y-56112079D01*
X114835000Y-56187921D01*
X114820205Y-56262302D01*
X114791185Y-56332363D01*
X114749050Y-56395422D01*
X114695422Y-56449050D01*
X114632363Y-56491185D01*
X114562302Y-56520205D01*
X114487921Y-56535000D01*
X114412079Y-56535000D01*
X114337698Y-56520205D01*
X114267637Y-56491185D01*
X114204578Y-56449050D01*
X114150950Y-56395422D01*
X114108815Y-56332363D01*
X114079795Y-56262302D01*
X114065000Y-56187921D01*
X114065000Y-56112079D01*
X114079795Y-56037698D01*
X114108815Y-55967637D01*
X114150950Y-55904578D01*
X114204578Y-55850950D01*
X114267637Y-55808815D01*
X114337698Y-55779795D01*
X114412079Y-55765000D01*
X114487921Y-55765000D01*
X114562302Y-55779795D01*
G37*
G36*
X115862302Y-55779795D02*
G01*
X115932363Y-55808815D01*
X115995422Y-55850950D01*
X116049050Y-55904578D01*
X116091185Y-55967637D01*
X116120205Y-56037698D01*
X116135000Y-56112079D01*
X116135000Y-56187921D01*
X116120205Y-56262302D01*
X116091185Y-56332363D01*
X116049050Y-56395422D01*
X115995422Y-56449050D01*
X115932363Y-56491185D01*
X115862302Y-56520205D01*
X115787921Y-56535000D01*
X115712079Y-56535000D01*
X115637698Y-56520205D01*
X115567637Y-56491185D01*
X115504578Y-56449050D01*
X115450950Y-56395422D01*
X115408815Y-56332363D01*
X115379795Y-56262302D01*
X115365000Y-56187921D01*
X115365000Y-56112079D01*
X115379795Y-56037698D01*
X115408815Y-55967637D01*
X115450950Y-55904578D01*
X115504578Y-55850950D01*
X115567637Y-55808815D01*
X115637698Y-55779795D01*
X115712079Y-55765000D01*
X115787921Y-55765000D01*
X115862302Y-55779795D01*
G37*
G36*
X130659472Y-49958412D02*
G01*
X130755040Y-49967825D01*
X131000280Y-50042218D01*
X131226294Y-50163025D01*
X131277899Y-50205376D01*
X131424397Y-50325603D01*
X131540221Y-50466736D01*
X131586975Y-50523706D01*
X131707782Y-50749720D01*
X131782175Y-50994960D01*
X131807294Y-51250000D01*
X131782175Y-51505040D01*
X131707782Y-51750280D01*
X131586975Y-51976294D01*
X131544624Y-52027899D01*
X131424397Y-52174397D01*
X131277899Y-52294624D01*
X131226294Y-52336975D01*
X131000280Y-52457782D01*
X130755040Y-52532175D01*
X130659473Y-52541587D01*
X130563906Y-52551000D01*
X127936094Y-52551000D01*
X127840527Y-52541587D01*
X127744960Y-52532175D01*
X127499720Y-52457782D01*
X127273706Y-52336975D01*
X127222101Y-52294624D01*
X127075603Y-52174397D01*
X126955376Y-52027899D01*
X126913025Y-51976294D01*
X126792218Y-51750280D01*
X126717825Y-51505040D01*
X126692706Y-51250000D01*
X126717825Y-50994960D01*
X126792218Y-50749720D01*
X126913025Y-50523706D01*
X126959779Y-50466736D01*
X127075603Y-50325603D01*
X127222101Y-50205376D01*
X127273706Y-50163025D01*
X127499720Y-50042218D01*
X127744960Y-49967825D01*
X127840527Y-49958413D01*
X127936094Y-49949000D01*
X130563906Y-49949000D01*
X130659472Y-49958412D01*
G37*
G36*
X124780535Y-45966016D02*
G01*
X125002212Y-46033261D01*
X125206511Y-46142461D01*
X125385581Y-46289419D01*
X125532539Y-46468488D01*
X125641739Y-46672787D01*
X125708984Y-46894464D01*
X125726000Y-47067229D01*
X125726000Y-49432771D01*
X125708984Y-49605536D01*
X125641739Y-49827213D01*
X125532539Y-50031512D01*
X125385581Y-50210581D01*
X125206512Y-50357539D01*
X125002213Y-50466739D01*
X124780536Y-50533984D01*
X124550000Y-50556690D01*
X124319465Y-50533984D01*
X124097788Y-50466739D01*
X123893489Y-50357539D01*
X123714420Y-50210581D01*
X123567462Y-50031512D01*
X123458262Y-49827213D01*
X123391017Y-49605536D01*
X123374001Y-49432771D01*
X123374000Y-47067230D01*
X123391016Y-46894465D01*
X123458261Y-46672788D01*
X123567461Y-46468489D01*
X123714419Y-46289419D01*
X123893488Y-46142461D01*
X124097787Y-46033261D01*
X124319464Y-45966016D01*
X124550000Y-45943310D01*
X124780535Y-45966016D01*
G37*
G36*
X97634239Y-41311467D02*
G01*
X97948282Y-41373934D01*
X98539926Y-41619001D01*
X99072392Y-41974784D01*
X99525216Y-42427608D01*
X99880999Y-42960074D01*
X100126066Y-43551718D01*
X100126066Y-43551719D01*
X100251000Y-44179803D01*
X100251000Y-44820197D01*
X100211363Y-45019464D01*
X100126066Y-45448282D01*
X99880999Y-46039926D01*
X99525216Y-46572392D01*
X99072392Y-47025216D01*
X98539926Y-47380999D01*
X97948282Y-47626066D01*
X97634239Y-47688533D01*
X97320197Y-47751000D01*
X96679803Y-47751000D01*
X96365761Y-47688533D01*
X96051718Y-47626066D01*
X95460074Y-47380999D01*
X94927608Y-47025216D01*
X94474784Y-46572392D01*
X94119001Y-46039926D01*
X93873934Y-45448282D01*
X93788637Y-45019464D01*
X93749000Y-44820197D01*
X93749000Y-44179803D01*
X93873934Y-43551719D01*
X93873934Y-43551718D01*
X94119001Y-42960074D01*
X94474784Y-42427608D01*
X94927608Y-41974784D01*
X95460074Y-41619001D01*
X96051718Y-41373934D01*
X96365761Y-41311467D01*
X96679803Y-41249000D01*
X97320197Y-41249000D01*
X97634239Y-41311467D01*
G37*
G36*
X186384239Y-41311467D02*
G01*
X186698282Y-41373934D01*
X187289926Y-41619001D01*
X187822392Y-41974784D01*
X188275216Y-42427608D01*
X188630999Y-42960074D01*
X188876066Y-43551718D01*
X188876066Y-43551719D01*
X189001000Y-44179803D01*
X189001000Y-44820197D01*
X188961363Y-45019464D01*
X188876066Y-45448282D01*
X188630999Y-46039926D01*
X188275216Y-46572392D01*
X187822392Y-47025216D01*
X187289926Y-47380999D01*
X186698282Y-47626066D01*
X186384239Y-47688533D01*
X186070197Y-47751000D01*
X185429803Y-47751000D01*
X185115761Y-47688533D01*
X184801718Y-47626066D01*
X184210074Y-47380999D01*
X183677608Y-47025216D01*
X183224784Y-46572392D01*
X182869001Y-46039926D01*
X182623934Y-45448282D01*
X182538637Y-45019464D01*
X182499000Y-44820197D01*
X182499000Y-44179803D01*
X182623934Y-43551719D01*
X182623934Y-43551718D01*
X182869001Y-42960074D01*
X183224784Y-42427608D01*
X183677608Y-41974784D01*
X184210074Y-41619001D01*
X184801718Y-41373934D01*
X185115761Y-41311467D01*
X185429803Y-41249000D01*
X186070197Y-41249000D01*
X186384239Y-41311467D01*
G37*
G36*
X130605536Y-44091016D02*
G01*
X130827213Y-44158261D01*
X131031512Y-44267461D01*
X131210581Y-44414419D01*
X131357539Y-44593488D01*
X131466739Y-44797787D01*
X131533984Y-45019464D01*
X131556690Y-45250000D01*
X131533984Y-45480536D01*
X131466739Y-45702213D01*
X131357539Y-45906512D01*
X131210581Y-46085581D01*
X131031512Y-46232539D01*
X130827213Y-46341739D01*
X130605536Y-46408984D01*
X130432771Y-46426000D01*
X128067229Y-46426000D01*
X127894464Y-46408984D01*
X127672787Y-46341739D01*
X127468488Y-46232539D01*
X127289419Y-46085581D01*
X127142461Y-45906512D01*
X127033261Y-45702213D01*
X126966016Y-45480536D01*
X126943310Y-45250000D01*
X126966016Y-45019464D01*
X127033261Y-44797787D01*
X127142461Y-44593488D01*
X127289419Y-44414419D01*
X127468488Y-44267461D01*
X127672787Y-44158261D01*
X127894464Y-44091016D01*
X128067229Y-44074000D01*
X130432771Y-44074000D01*
X130605536Y-44091016D01*
G37*
M02*
