M48
; DRILL file {KiCad (5.1.5)-3} date 29/10/2020 12:27:04 PM
; FORMAT={-:-/ absolute / inch / decimal}
; #@! TF.CreationDate,2020-10-29T12:27:04+11:00
; #@! TF.GenerationSoftware,Kicad,Pcbnew,(5.1.5)-3
FMAT,2
INCH
T1C0.0130
T2C0.0157
T3C0.0197
T4C0.0315
T5C0.0394
T6C0.0433
T7C0.0512
T8C0.1260
%
G90
G05
T1
X6.4331Y-2.5315
X6.4331Y-2.5827
X6.4331Y-2.6339
X6.4843Y-2.5315
X6.4843Y-2.5827
X6.4843Y-2.6339
X6.4311Y-4.874
X6.4311Y-4.9252
X6.4311Y-4.9764
X6.4823Y-4.874
X6.4823Y-4.9252
X6.4823Y-4.9764
X6.0413Y-5.3976
X6.0413Y-5.4488
X6.0925Y-5.3976
X6.0925Y-5.4488
X6.1437Y-5.3976
X6.1437Y-5.4488
X4.5059Y-2.2106
X4.5059Y-2.2618
X4.5059Y-2.313
X4.5571Y-2.2106
X4.5571Y-2.2618
X4.5571Y-2.313
X6.4311Y-4.1063
X6.4311Y-4.1575
X6.4311Y-4.2087
X6.4823Y-4.1063
X6.4823Y-4.1575
X6.4823Y-4.2087
X6.4311Y-3.3268
X6.4311Y-3.378
X6.4311Y-3.4291
X6.4823Y-3.3268
X6.4823Y-3.378
X6.4823Y-3.4291
X4.7717Y-2.8504
X4.7717Y-2.9016
X4.7717Y-2.9528
X4.8228Y-2.8504
X4.8228Y-2.9016
X4.8228Y-2.9528
X4.7579Y-5.5807
X4.7579Y-5.6319
X4.7579Y-5.6831
X4.8091Y-5.5807
X4.8091Y-5.6319
X4.8091Y-5.6831
X6.8622Y-2.2736
X6.8622Y-2.3248
X6.9134Y-2.2736
X6.9134Y-2.3248
X6.9646Y-2.2736
X6.9646Y-2.3248
X4.7894Y-4.8819
X4.7894Y-4.9331
X4.7894Y-4.9843
X4.8406Y-4.8819
X4.8406Y-4.9331
X4.8406Y-4.9843
X4.7756Y-3.5157
X4.7756Y-3.5669
X4.7756Y-3.6181
X4.8268Y-3.5157
X4.8268Y-3.5669
X4.8268Y-3.6181
X4.7717Y-4.2382
X4.7717Y-4.2894
X4.7717Y-4.3406
X4.8228Y-4.2382
X4.8228Y-4.2894
X4.8228Y-4.3406
T2
X3.9764Y-2.4902
X4.1437Y-5.0984
X4.1535Y-2.3622
X4.1732Y-2.5295
X4.2224Y-5.2264
X4.252Y-3.622
X4.2717Y-4.7146
X4.2815Y-4.2815
X4.2913Y-5.1083
X4.3406Y-3.622
X4.3504Y-2.4213
X4.3504Y-4.3209
X4.3799Y-2.9331
X4.3898Y-4.8327
X4.4291Y-1.6437
X4.439Y-5.4626
X4.4587Y-3.622
X4.4685Y-4.3209
X4.4783Y-2.9331
X4.5079Y-5.1083
X4.5669Y-2.0374
X4.5768Y-4.3209
X4.5866Y-2.9331
X4.5965Y-5.6496
X4.626Y-1.7913
X4.6457Y-2.4016
X4.6555Y-2.0374
X4.6654Y-2.1161
X4.685Y-5.128
X4.7244Y-1.9783
X4.7441Y-3.7598
X4.7539Y-2.313
X4.7638Y-2.2539
X4.7638Y-2.372
X4.7933Y-2.4705
X4.8327Y-1.6535
X4.8327Y-3.3268
X4.8425Y-5.3839
X4.8622Y-1.7618
X4.8622Y-3.9862
X4.872Y-5.1575
X4.8819Y-3.7008
X4.8917Y-3.0512
X4.9016Y-3.4055
X4.9114Y-4.124
X4.9114Y-5.4724
X4.9409Y-2.7461
X4.9606Y-3.3268
X4.9705Y-5.3839
X4.9876Y-4.2644
X4.9902Y-5.6102
X4.9902Y-5.6594
X4.9967Y-4.3144
X4.9986Y-3.5419
X4.9994Y-3.5919
X5.0098Y-2.9232
X5.0098Y-2.9823
X5.0163Y-4.9081
X5.0197Y-3.8386
X5.0197Y-3.9961
X5.0197Y-5.0787
X5.0197Y-5.7185
X5.0295Y-4.7638
X5.0394Y-2.874
X5.0467Y-4.9581
X5.0689Y-5.374
X5.0886Y-2.9724
X5.0984Y-5.7087
X5.128Y-4.9705
X5.1476Y-5.2461
X5.1476Y-5.4528
X5.187Y-5.7087
X5.2756Y-2.7953
X5.2756Y-3.0118
X5.2756Y-3.248
X5.2756Y-5.4134
X5.2854Y-5.6398
X5.315Y-2.1555
X5.374Y-2.0079
X5.3839Y-5.5118
X5.4331Y-2.372
X5.4921Y-3.2972
X5.5118Y-2.1555
X5.5512Y-2.372
X5.6004Y-5.1772
X5.6791Y-2.3819
X5.8169Y-5.2264
X5.8957Y-5.3346
X5.9154Y-2.3917
X6.0728Y-5.2165
X6.0827Y-4.4783
X6.122Y-5.2264
X6.1417Y-2.3819
X6.1417Y-5.1476
X6.1614Y-4.1437
X6.1909Y-2.4508
X6.1909Y-3.3465
X6.1909Y-3.9272
X6.1909Y-4.7244
X6.1909Y-5.2264
X6.2106Y-3.7894
X6.2205Y-4.5965
X6.2303Y-3.6024
X6.2402Y-3.2972
X6.2402Y-4.0748
X6.2402Y-4.9508
X6.25Y-3.3563
X6.25Y-3.4055
X6.25Y-4.1339
X6.25Y-4.1831
X6.25Y-4.3799
X6.2598Y-2.3819
X6.2598Y-4.8228
X6.2598Y-4.9016
X6.2604Y-2.6077
X6.2612Y-2.5577
X6.2795Y-5.1969
X6.2894Y-5.5315
X6.3189Y-2.7953
X6.3287Y-3.5138
X6.3287Y-3.9862
X6.3287Y-4.3209
X6.3386Y-4.7539
X6.3878Y-2.7362
X6.4272Y-3.6024
X6.437Y-3.5236
X6.437Y-4.3209
X6.437Y-4.3799
X6.437Y-5.0591
X6.6142Y-4.7638
X6.6535Y-2.2047
X6.6732Y-4.1437
X6.6831Y-3.3661
X6.7028Y-1.9882
X6.7126Y-2.4803
X6.7224Y-5.0394
X6.7224Y-5.2461
X6.7421Y-4.1437
X6.752Y-2.2539
X6.7618Y-2.1654
X6.7913Y-3.4744
X6.811Y-2.5295
X6.8209Y-4.1437
X6.8602Y-3.3661
X6.8602Y-4.9311
X6.8701Y-5.0689
X6.8884Y-2.0978
X6.9384Y-2.097
X6.939Y-2.0177
X6.9587Y-2.5295
X7.0374Y-2.0768
X7.0374Y-2.5394
X7.1063Y-2.1654
X7.126Y-2.2441
T3
X7.2185Y-5.5807
X7.2462Y-5.5139
X7.2462Y-5.6475
X7.313Y-5.4862
X7.313Y-5.6752
X7.3798Y-5.5139
X7.3798Y-5.6475
X7.4075Y-5.5807
X7.2185Y-1.752
X7.2462Y-1.6852
X7.2462Y-1.8188
X7.313Y-1.6575
X7.313Y-1.8465
X7.3798Y-1.6852
X7.3798Y-1.8188
X7.4075Y-1.752
X3.7244Y-5.5807
X3.7521Y-5.5139
X3.7521Y-5.6475
X3.8189Y-5.4862
X3.8189Y-5.6752
X3.8857Y-5.5139
X3.8857Y-5.6475
X3.9134Y-5.5807
X3.7244Y-1.752
X3.7521Y-1.6852
X3.7521Y-1.8188
X3.8189Y-1.6575
X3.8189Y-1.8465
X3.8857Y-1.6852
X3.8857Y-1.8188
X3.9134Y-1.752
T4
X5.6311Y-2.5461
X5.7276Y-3.028
X5.7276Y-3.1067
X5.7311Y-2.5461
X5.8064Y-3.028
X5.8064Y-3.1067
X5.8851Y-3.028
X5.8851Y-3.1067
T5
X5.2953Y-5.1959
X5.3937Y-5.1959
T6
X5.3811Y-2.5173
X5.3811Y-2.6173
X5.3811Y-2.7173
X5.3811Y-2.8173
X5.3811Y-2.9173
X5.3811Y-3.0173
X5.3811Y-3.1173
X5.3811Y-3.2173
X5.3811Y-3.3173
X5.3811Y-3.4173
X5.3811Y-3.5173
X5.3811Y-3.6173
X5.3811Y-3.7173
X5.3811Y-3.8173
X5.3811Y-3.9173
X5.3811Y-4.0173
X5.3811Y-4.1173
X5.3811Y-4.2173
X5.3811Y-4.3173
X5.3811Y-4.4173
X5.3811Y-4.5173
X5.3811Y-4.6173
X5.3811Y-4.7173
X5.3811Y-4.8173
X5.4811Y-4.3173
X5.5012Y-2.7653
X5.5012Y-2.8653
X5.5012Y-2.9653
X5.5012Y-3.0653
X5.5012Y-3.1653
X5.5811Y-4.3173
X5.6811Y-4.3173
X5.7811Y-4.3173
X5.8811Y-2.6173
X5.8811Y-4.3173
X5.9811Y-2.5173
X5.9811Y-2.6173
X5.9811Y-2.7173
X5.9811Y-2.8173
X5.9811Y-2.9173
X5.9811Y-3.0173
X5.9811Y-3.1173
X5.9811Y-3.2173
X5.9811Y-3.3173
X5.9811Y-3.4173
X5.9811Y-3.5173
X5.9811Y-3.6173
X5.9811Y-3.7173
X5.9811Y-3.8173
X5.9811Y-3.9173
X5.9811Y-4.0173
X5.9811Y-4.1173
X5.9811Y-4.2173
X5.9811Y-4.3173
X5.9811Y-4.4173
X5.9811Y-4.5173
X5.9811Y-4.6173
X5.9811Y-4.7173
X5.9811Y-4.8173
T7
X7.1358Y-2.7114
X7.1358Y-2.9114
X7.1358Y-3.1114
X7.1358Y-3.3114
X7.1358Y-3.5114
X7.1358Y-3.7114
X7.1358Y-3.9114
X7.1358Y-4.1114
X7.1358Y-4.3114
X7.1358Y-4.5114
X7.1358Y-4.7114
X7.1358Y-4.9114
X4.0059Y-2.6969
X4.0059Y-2.8969
X4.0059Y-3.0969
X4.0059Y-3.2969
X4.0059Y-3.4969
X4.0059Y-3.6969
X4.0059Y-3.8969
X4.0059Y-4.0969
X4.0059Y-4.2969
X4.0059Y-4.4969
X4.0059Y-4.6969
X4.0059Y-4.8969
T8
X7.313Y-5.5807
X7.313Y-1.752
X3.8189Y-5.5807
X3.8189Y-1.752
T5
G00X4.9035Y-1.939
M15
G01X4.9035Y-1.8602
M16
G05
G00X5.0492Y-1.7815
M15
G01X5.128Y-1.7815
M16
G05
G00X5.0394Y-2.0177
M15
G01X5.1378Y-2.0177
M16
G05
T0
M30
